<?xml version="1.0" standalone="no"?>
<!DOCTYPE svg PUBLIC "-//W3C//DTD SVG 1.1//EN" "http://www.w3.org/Graphics/SVG/1.1/DTD/svg11.dtd" >
<svg>
<metadata>
Created by FontForge 20110222 at Tue Jan 20 07:24:12 2015
 By www-data
Copyright (c) 2008 by Prinya R. nont. All rights reserved.
</metadata>
<defs>
<font id="DBHelvethaicaX-83BlkExt" horiz-adv-x="0" >
  <font-face 
    font-family="DB Helvethaica X 83 BlkExt"
    font-weight="900"
    font-stretch="expanded"
    units-per-em="4096"
    panose-1="2 0 5 6 9 0 0 2 0 4"
    ascent="3276"
    descent="-820"
    x-height="1384"
    cap-height="1888"
    bbox="-2404 -1470 3633 3281"
    underline-thickness="82"
    underline-position="-463"
    unicode-range="U+0020-F882"
  />
<missing-glyph horiz-adv-x="1704" 
d="M1733 1638v-57h24q29 0 29 37q0 4 -6 12t-23 8h-24zM1745 1577h-12v-57h-21v139h45q49 0 49 -41q0 -29 -12 -35t-29 -6l41 -57h-20zM1757 1499q53 0 71.5 28.5t18.5 53.5q0 45 -22.5 71.5t-67.5 26.5t-69.5 -26.5t-24.5 -71.5q0 -33 22.5 -57.5t71.5 -24.5zM1757 1692
q53 0 78 -33t25 -78q0 -33 -25 -63.5t-78 -30.5q-49 0 -77.5 30.5t-28.5 63.5q0 45 28.5 78t77.5 33zM827 1294q66 -4 154 -16t176 -28.5t162 -39t111 -51.5q-82 164 -254 252t-353 88q-139 0 -266 -53t-209 -164q74 8 147.5 12t147.5 4h92t92 -4zM1540 1618v-582
q-197 62 -450.5 105t-532.5 43q-197 0 -385 -25q25 90 78 174t135 147.5t190.5 100.5t239.5 37q127 0 229.5 -28.5t180.5 -69.5t129 -90.5t76 -86.5q0 -4 -2.5 27t-2.5 76v94v78h115zM631 520q0 33 -22.5 49.5t-47.5 16.5q-29 0 -49 -16.5t-20 -49.5t20 -47t49 -14
q25 0 47.5 14t22.5 47zM135 569q0 95 37 168.5t98.5 122.5t139 73.5t159.5 24.5t158 -22.5t135.5 -67.5t94 -114.5t34.5 -167.5v-475h434v827h115v-934h-774v107h119v487q0 123 -90 184.5t-222 61.5q-122 0 -220.5 -67.5t-98.5 -190.5v-439l238 238q-21 8 -53.5 41t-32.5 94
q0 74 45 117t118 43q70 0 113 -47t43 -113q0 -57 -22.5 -88t-38.5 -47q-9 -8 -70.5 -67.5t-134.5 -129.5q-86 -82 -193 -184h-131v565z" />
    <glyph glyph-name="ellipsis" unicode="&#x2e;&#x2e;&#x2e;" horiz-adv-x="2707" 
d="M238 451h471v-455h-471v455zM1118 451h475v-455h-475v455zM1999 451h471v-455h-471v455z" />
    <glyph glyph-name="dochadaphinthuthai" unicode="&#xe0e;&#xe3a;" horiz-adv-x="2048" 
d="M1942 -561h-418q-45 46 -98 79.5t-111.5 55t-122 31.5t-127.5 10q-89 0 -176.5 -17.5t-165.5 -49t-144 -75.5t-112 -96v385q64 48 136.5 82t149 56t156.5 32.5t160 10.5q99 0 193 -14t184 -48v1032q0 78 -28.5 137.5t-78 99t-117 59.5t-145.5 20q-46 0 -101 -6.5
t-109.5 -24t-105.5 -47.5t-89 -78q26 -20 47 -43t36 -54.5t23 -74t8 -102.5v-799h-708v381h213v410q0 46 -12 83.5t-32.5 67t-47.5 51t-56 35.5q63 147 157.5 257t214.5 183t262 109.5t300 36.5q110 0 216.5 -15.5t202.5 -49.5t178 -87t141.5 -128t93 -173.5t33.5 -222.5
v-1499zM1401 -963q0 58 22.5 111t61.5 93t92 63.5t115 23.5q57 0 108.5 -23.5t91 -63.5t63 -93t23.5 -111t-23.5 -110.5t-63 -92.5t-91 -63.5t-108.5 -23.5q-62 0 -115 23.5t-92 63.5t-61.5 92.5t-22.5 110.5z" />
    <glyph glyph-name="topatakphintuthai" unicode="&#xe0f;&#xe3a;" horiz-adv-x="2048" 
d="M1499 -561q-8 34 -20.5 65t-31 55t-44.5 38t-60 14t-61.5 -15.5t-47.5 -40t-31 -55t-11 -61.5h-369q0 26 -8.5 56.5t-25.5 57t-42 44.5t-59 18q-32 0 -56.5 -16.5t-41 -42t-25 -57t-8.5 -60.5h-377q0 114 41 203.5t110 151.5t158.5 95t186.5 33q54 0 102 -10.5t89 -28
t74.5 -40.5t57.5 -48q25 23 56.5 44t69 36.5t81 25t92.5 9.5q38 0 76 -6.5t72 -22.5v1032q0 78 -28.5 137.5t-78 99t-117 59.5t-145.5 20q-46 0 -101 -6.5t-109.5 -24t-105.5 -47.5t-89 -78q26 -20 47 -43t36 -54.5t23 -74t8 -102.5v-799h-708v381h213v410q0 46 -12 83.5
t-32.5 67t-47.5 51t-56 35.5q63 147 157.5 257t214.5 183t262 109.5t300 36.5q110 0 216.5 -15.5t202.5 -49.5t178 -87t141.5 -128t93 -173.5t33.5 -222.5v-1499h-443zM1401 -963q0 58 22.5 111t61.5 93t92 63.5t115 23.5q57 0 108.5 -23.5t91 -63.5t63 -93t23.5 -111
t-23.5 -110.5t-63 -92.5t-91 -63.5t-108.5 -23.5q-62 0 -115 23.5t-92 63.5t-61.5 92.5t-22.5 110.5z" />
    <glyph glyph-name="dochadasarauthai" unicode="&#xe0e;&#xe38;" horiz-adv-x="2048" 
d="M1942 -561h-418q-45 46 -98 79.5t-111.5 55t-122 31.5t-127.5 10q-89 0 -176.5 -17.5t-165.5 -49t-144 -75.5t-112 -96v385q64 48 136.5 82t149 56t156.5 32.5t160 10.5q99 0 193 -14t184 -48v1032q0 78 -28.5 137.5t-78 99t-117 59.5t-145.5 20q-46 0 -101 -6.5
t-109.5 -24t-105.5 -47.5t-89 -78q26 -20 47 -43t36 -54.5t23 -74t8 -102.5v-799h-708v381h213v410q0 46 -12 83.5t-32.5 67t-47.5 51t-56 35.5q63 147 157.5 257t214.5 183t262 109.5t300 36.5q110 0 216.5 -15.5t202.5 -49.5t178 -87t141.5 -128t93 -173.5t33.5 -222.5
v-1499zM1503 -1425v376h-151v357h590v-733h-439z" />
    <glyph glyph-name="topataksarauthai" unicode="&#xe0f;&#xe38;" horiz-adv-x="2048" 
d="M1499 -561q-8 34 -20.5 65t-31 55t-44.5 38t-60 14t-61.5 -15.5t-47.5 -40t-31 -55t-11 -61.5h-369q0 26 -8.5 56.5t-25.5 57t-42 44.5t-59 18q-32 0 -56.5 -16.5t-41 -42t-25 -57t-8.5 -60.5h-377q0 114 41 203.5t110 151.5t158.5 95t186.5 33q54 0 102 -10.5t89 -28
t74.5 -40.5t57.5 -48q25 23 56.5 44t69 36.5t81 25t92.5 9.5q38 0 76 -6.5t72 -22.5v1032q0 78 -28.5 137.5t-78 99t-117 59.5t-145.5 20q-46 0 -101 -6.5t-109.5 -24t-105.5 -47.5t-89 -78q26 -20 47 -43t36 -54.5t23 -74t8 -102.5v-799h-708v381h213v410q0 46 -12 83.5
t-32.5 67t-47.5 51t-56 35.5q63 147 157.5 257t214.5 183t262 109.5t300 36.5q110 0 216.5 -15.5t202.5 -49.5t178 -87t141.5 -128t93 -173.5t33.5 -222.5v-1499h-443zM1503 -1425v376h-151v357h590v-733h-439z" />
    <glyph glyph-name="fongmanfunnuthai" unicode="&#xe4f;&#x22;" horiz-adv-x="2093" 
d="M1126 2540h385l-24 -545h-328zM594 2540h381l-29 -545h-328zM102 905q0 130 34 250t96 224.5t148.5 189.5t192.5 146t227.5 94.5t252.5 33.5q129 0 248.5 -33.5t223 -94.5t189 -146t146 -189.5t94 -224.5t33.5 -250q0 -131 -33.5 -251.5t-94 -225.5t-146 -190.5
t-189 -146.5t-223 -94.5t-248.5 -33.5q-131 0 -252.5 33.5t-227.5 94.5t-192.5 146.5t-148.5 190.5t-96 225.5t-34 251.5zM549 913q0 100 39.5 189.5t108 156.5t160 106.5t196.5 39.5q100 0 188.5 -39.5t155 -106.5t105 -156.5t38.5 -189.5q0 -104 -38.5 -195t-105 -158.5
t-155 -106.5t-188.5 -39q-105 0 -196.5 39t-160 106.5t-108 158.5t-39.5 195zM401 913q0 -134 50.5 -252t138.5 -207t207 -140.5t256 -51.5q87 0 168.5 23.5t153 66t130.5 102.5t101.5 132t66 155t23.5 172q0 88 -23.5 170t-66 153.5t-101.5 130.5t-130.5 101t-153 65
t-168.5 23q-91 0 -175 -23t-156.5 -65t-131.5 -101t-101 -130.5t-65 -153.5t-23 -170zM815 913q0 -49 18 -92t50 -75.5t75.5 -51t94.5 -18.5q46 0 86.5 18.5t70.5 51t47 75.5t17 92q0 46 -17 87t-47 72t-70.5 49t-86.5 18q-51 0 -94.5 -18t-75.5 -49t-50 -72t-18 -87z" />
    <glyph glyph-name="lessequal" unicode="&#x3c;&#x3d;" horiz-adv-x="1761" 
d="M557 1118l1040 -397v-365l-1437 566v389l1437 569v-364zM160 344h1437v-344h-1437v344z" />
    <glyph glyph-name="greaterequal" unicode="&#x3e;&#x3d;" horiz-adv-x="1761" 
d="M164 1516v364l1438 -569v-389l-1438 -566v365l1040 397zM1602 0h-1438v344h1438v-344z" />
    <glyph glyph-name="plusminus" unicode="&#x2b;&#x2d;" horiz-adv-x="1593" 
d="M623 1540h348v-401h536v-348h-536v-398h-348v398h-537v348h537v401zM86 324h1421v-324h-1421v324z" />
    <glyph glyph-name="dochadasarauuthai" unicode="&#xe0e;&#xe39;" horiz-adv-x="2048" 
d="M1942 -561h-418q-45 46 -98 79.5t-111.5 55t-122 31.5t-127.5 10q-89 0 -176.5 -17.5t-165.5 -49t-144 -75.5t-112 -96v385q64 48 136.5 82t149 56t156.5 32.5t160 10.5q99 0 193 -14t184 -48v1032q0 78 -28.5 137.5t-78 99t-117 59.5t-145.5 20q-46 0 -101 -6.5
t-109.5 -24t-105.5 -47.5t-89 -78q26 -20 47 -43t36 -54.5t23 -74t8 -102.5v-799h-708v381h213v410q0 46 -12 83.5t-32.5 67t-47.5 51t-56 35.5q63 147 157.5 257t214.5 183t262 109.5t300 36.5q110 0 216.5 -15.5t202.5 -49.5t178 -87t141.5 -128t93 -173.5t33.5 -222.5
v-1499zM741 -696h582v-291q0 -47 25 -70.5t65 -23.5t65 23.5t25 70.5v291h439v-291q0 -97 -29.5 -184.5t-93.5 -154t-164.5 -105.5t-241.5 -39q-121 0 -216.5 23.5t-162.5 74t-105 129.5t-44 190h-144v357z" />
    <glyph glyph-name="topataksarauuthai" unicode="&#xe0f;&#xe39;" horiz-adv-x="2048" 
d="M1499 -561q-8 34 -20.5 65t-31 55t-44.5 38t-60 14t-61.5 -15.5t-47.5 -40t-31 -55t-11 -61.5h-369q0 26 -8.5 56.5t-25.5 57t-42 44.5t-59 18q-32 0 -56.5 -16.5t-41 -42t-25 -57t-8.5 -60.5h-377q0 114 41 203.5t110 151.5t158.5 95t186.5 33q54 0 102 -10.5t89 -28
t74.5 -40.5t57.5 -48q25 23 56.5 44t69 36.5t81 25t92.5 9.5q38 0 76 -6.5t72 -22.5v1032q0 78 -28.5 137.5t-78 99t-117 59.5t-145.5 20q-46 0 -101 -6.5t-109.5 -24t-105.5 -47.5t-89 -78q26 -20 47 -43t36 -54.5t23 -74t8 -102.5v-799h-708v381h213v410q0 46 -12 83.5
t-32.5 67t-47.5 51t-56 35.5q63 147 157.5 257t214.5 183t262 109.5t300 36.5q110 0 216.5 -15.5t202.5 -49.5t178 -87t141.5 -128t93 -173.5t33.5 -222.5v-1499h-443zM741 -696h582v-291q0 -47 25 -70.5t65 -23.5t65 23.5t25 70.5v291h439v-291q0 -97 -29.5 -184.5
t-93.5 -154t-164.5 -105.5t-241.5 -39q-121 0 -216.5 23.5t-162.5 74t-105 129.5t-44 190h-144v357z" />
    <glyph glyph-name=".notdef" horiz-adv-x="1704" 
d="M1733 1638v-57h24q29 0 29 37q0 4 -6 12t-23 8h-24zM1745 1577h-12v-57h-21v139h45q49 0 49 -41q0 -29 -12 -35t-29 -6l41 -57h-20zM1757 1499q53 0 71.5 28.5t18.5 53.5q0 45 -22.5 71.5t-67.5 26.5t-69.5 -26.5t-24.5 -71.5q0 -33 22.5 -57.5t71.5 -24.5zM1757 1692
q53 0 78 -33t25 -78q0 -33 -25 -63.5t-78 -30.5q-49 0 -77.5 30.5t-28.5 63.5q0 45 28.5 78t77.5 33zM827 1294q66 -4 154 -16t176 -28.5t162 -39t111 -51.5q-82 164 -254 252t-353 88q-139 0 -266 -53t-209 -164q74 8 147.5 12t147.5 4h92t92 -4zM1540 1618v-582
q-197 62 -450.5 105t-532.5 43q-197 0 -385 -25q25 90 78 174t135 147.5t190.5 100.5t239.5 37q127 0 229.5 -28.5t180.5 -69.5t129 -90.5t76 -86.5q0 -4 -2.5 27t-2.5 76v94v78h115zM631 520q0 33 -22.5 49.5t-47.5 16.5q-29 0 -49 -16.5t-20 -49.5t20 -47t49 -14
q25 0 47.5 14t22.5 47zM135 569q0 95 37 168.5t98.5 122.5t139 73.5t159.5 24.5t158 -22.5t135.5 -67.5t94 -114.5t34.5 -167.5v-475h434v827h115v-934h-774v107h119v487q0 123 -90 184.5t-222 61.5q-122 0 -220.5 -67.5t-98.5 -190.5v-439l238 238q-21 8 -53.5 41t-32.5 94
q0 74 45 117t118 43q70 0 113 -47t43 -113q0 -57 -22.5 -88t-38.5 -47q-9 -8 -70.5 -67.5t-134.5 -129.5q-86 -82 -193 -184h-131v565z" />
    <glyph glyph-name=".null" 
 />
    <glyph glyph-name="nonmarkingreturn" horiz-adv-x="1159" 
 />
    <glyph glyph-name="space" unicode=" " horiz-adv-x="778" 
 />
    <glyph glyph-name="yoyingnobasethai" unicode="&#xf70f;" horiz-adv-x="2798" 
d="M1241 922q1 78 -20 136.5t-62 97t-99 58t-130 19.5q-49 0 -97 -6.5t-92.5 -23.5t-84.5 -46.5t-74 -75.5q27 -20 48.5 -44t36 -57t22 -77t7.5 -104v-430h217v-369h-712v791q0 46 -12 83.5t-32.5 67t-47.5 51t-56 35.5q48 118 127.5 224.5t189.5 186.5t250.5 127.5
t309.5 47.5q166 0 312.5 -35.5t256.5 -115t174 -209t64 -316.5v-401q0 -60 19 -99.5t51 -63t73 -33t86 -9.5t84.5 9.5t69 33.5t46.5 64t17 102v1044h496v-1044q0 -111 -29.5 -196t-81 -148t-120.5 -105.5t-149 -68.5t-166 -37t-171 -11q-89 0 -177.5 11.5t-169 37.5
t-149.5 69t-120 105t-80 146t-29 193z" />
    <glyph glyph-name="quoteleft" unicode="&#x2018;" horiz-adv-x="946" 
d="M238 1446q0 91 27 178.5t84 161.5t146 128t214 77v-279q-69 -22 -106 -56.5t-46 -99.5h152v-454h-471v344z" />
    <glyph glyph-name="quoteright" unicode="&#x2019;" horiz-adv-x="946" 
d="M709 1638q0 -90 -27 -178t-84.5 -161.5t-146.5 -127.5t-213 -77v278q68 22 105 56.5t46 99.5h-151v454h471v-344z" />
    <glyph glyph-name="quotedblleft" unicode="&#x201c;" horiz-adv-x="1397" 
d="M156 1446q0 91 27 178.5t84 161.5t146 128t214 77v-279q-68 -22 -105.5 -56.5t-46.5 -99.5h152v-454h-471v344zM770 1446q0 91 27 178.5t84 161.5t146 128t214 77v-279q-68 -22 -105 -56.5t-46 -99.5h151v-454h-471v344z" />
    <glyph glyph-name="quotedblright" unicode="&#x201d;" horiz-adv-x="1397" 
d="M1241 1647q0 -91 -27 -179t-84 -161.5t-146.5 -127.5t-213.5 -77v278q68 22 105 56.5t47 99.5h-152v455h471v-344zM627 1647q0 -91 -27 -179t-84.5 -161.5t-146.5 -127.5t-213 -77v278q68 22 105 56.5t46 99.5h-151v455h471v-344z" />
    <glyph glyph-name="bullet" unicode="&#x2022;" horiz-adv-x="1409" 
d="M131 946q0 118 46 222t124.5 181.5t183.5 122t224 44.5q79 0 151.5 -20.5t136 -57.5t115.5 -88.5t88.5 -115t57 -136.5t20.5 -152q0 -118 -44.5 -223t-122 -183.5t-181 -124.5t-221.5 -46q-79 0 -152.5 21t-138 58.5t-117 90.5t-90.5 117.5t-59 137.5t-21 152z" />
    <glyph glyph-name="endash" unicode="&#x2013;" horiz-adv-x="1589" 
d="M74 909h1442v-344h-1442v344z" />
    <glyph glyph-name="emdash" unicode="&#x2014;" horiz-adv-x="2912" 
d="M74 909h2765v-344h-2765v344z" />
    <glyph glyph-name="uni00A0" unicode="&#xa0;" horiz-adv-x="467" 
 />
    <glyph glyph-name="kokaithai" unicode="&#xe01;" horiz-adv-x="1987" 
d="M995 1217q-57 0 -113.5 -10t-109.5 -29.5t-100.5 -47.5t-85.5 -65q26 -20 44 -42.5t29 -52t16 -67t5 -88.5v-815h-496v791q0 41 -12 75.5t-33.5 61.5t-50.5 46t-63 30q60 153 158.5 268t225 192t276 115.5t310.5 38.5q109 0 217 -16t207 -50.5t184 -88t147.5 -129.5
t98 -175.5t35.5 -224.5v-934h-500v918q0 66 -26 121t-76 94.5t-122.5 61.5t-164.5 22z" />
    <glyph glyph-name="khokhaithai" unicode="&#xe02;" horiz-adv-x="1708" 
d="M590 0l-340 1188h-221v397h618l246 -880l237 880h521l-471 -1585h-590z" />
    <glyph glyph-name="khokhuatthai" unicode="&#xe03;" horiz-adv-x="1724" 
d="M193 590q0 70 15.5 124.5t43.5 98t65.5 80t81 72.5t91.5 73.5t96 83.5q-13 -3 -27.5 -3.5t-30.5 -0.5q-31 0 -75.5 6t-93.5 24t-98 50t-87.5 84t-63 126.5t-24.5 176.5h389q0 -28 5 -57.5t15.5 -54t26.5 -40.5t39 -16q26 0 44 14.5t29 38.5t16 54t5 61h410v-303
q0 -78 -27.5 -139.5t-68.5 -113t-88.5 -96t-88.5 -87.5t-68.5 -88.5t-27.5 -98.5v-94q0 -120 53 -183t164 -63q52 0 92.5 12.5t68.5 39.5t42 71t14 107v1036h492v-1065q0 -95 -28 -173t-77.5 -139t-117 -105.5t-146 -74t-165.5 -43.5t-175 -14q-91 0 -179.5 15.5t-168.5 46
t-148.5 76.5t-118 107t-77.5 137t-28 167v70v0z" />
    <glyph glyph-name="khokhwaithai" unicode="&#xe04;" horiz-adv-x="1978" 
d="M598 0h-496v942q0 119 37 215t101.5 171t150.5 130t184.5 90.5t204 52.5t207.5 17q103 0 209.5 -17t205 -52.5t185 -90.5t151 -130t101.5 -171t37 -215v-942h-496v946q0 69 -28 122t-79.5 88.5t-124 54t-161.5 18.5t-161 -18.5t-122.5 -54t-78 -88.5t-27.5 -122v-127
q46 51 95.5 84t109 52.5t132.5 27.5t167 8v-327q-141 0 -237.5 -29t-156 -84.5t-85 -135.5t-25.5 -182v-233z" />
    <glyph glyph-name="khokhonthai" unicode="&#xe05;" horiz-adv-x="1978" 
d="M598 766q46 51 95 84t107.5 52.5t131 27.5t166.5 8v-328q-141 0 -237 -29t-154.5 -84.5t-83.5 -135t-25 -181.5v-180h-496v983q0 95 27.5 175.5t75.5 146t114 116.5t142.5 87.5t160.5 58.5t169 30l196 -176l197 176q86 -8 170.5 -30t161.5 -58.5t143 -87.5t114 -116.5
t75.5 -146t27.5 -175.5v-983h-496v999q0 69 -21 121t-77 80l-201 -156q-43 -30 -94 -29.5t-94 34.5l-197 151q-55 -28 -76.5 -78.5t-21.5 -122.5v-233z" />
    <glyph glyph-name="khorakhangthai" unicode="&#xe06;" horiz-adv-x="1966" 
d="M483 1122q-12 -3 -33 -3.5t-36 -0.5q-31 0 -72.5 6t-86.5 24t-88.5 50t-78 84t-55.5 126.5t-21 176.5h394q0 -28 4.5 -57.5t15 -54t27 -40.5t39.5 -16q26 0 44 14.5t29 38.5t16 54t5 61h405v-311q0 -80 -26.5 -143.5t-66 -116.5t-85.5 -99.5t-85.5 -92t-66 -94
t-26.5 -105.5q0 -60 33.5 -110t87.5 -85.5t122.5 -55.5t137.5 -20q81 0 146.5 21t111 59.5t70 94t24.5 124.5v934h492v-991q0 -99 -28.5 -183.5t-79 -153.5t-120.5 -121.5t-152.5 -88t-174.5 -54t-187 -18.5q-124 0 -245 42.5t-242 138.5v-156h-496v578q0 62 4.5 110t15 87
t28.5 71.5t45 63.5t65 63t88 71z" />
    <glyph glyph-name="ngonguthai" unicode="&#xe07;" horiz-adv-x="1634" 
d="M737 422q19 -47 60 -68.5t100 -21.5q18 0 42 3.5t45.5 16t36.5 36t15 63.5v766h-213v368h709v-1139q0 -120 -53 -209t-141.5 -148t-203 -88.5t-237.5 -29.5q-117 0 -217.5 17t-183 58.5t-144.5 110t-102 171.5l-254 659h524z" />
    <glyph glyph-name="chochanthai" unicode="&#xe08;" horiz-adv-x="1810" 
d="M1774 1053q-1 -70 -23.5 -149.5t-60.5 -165.5t-89.5 -177.5t-110.5 -185.5t-124 -188.5t-129 -186.5h-528l-353 549h-176v381h500l307 -471q52 81 101 163t86.5 157t60 140t22.5 113q0 61 -29 102t-77 66t-110 35t-128 10q-71 0 -135 -11.5t-116.5 -37t-89.5 -67
t-52 -101.5h-520q20 144 97 254.5t198.5 185t280.5 112.5t342 38q102 0 206 -9.5t199.5 -33.5t178.5 -64.5t144.5 -103.5t95.5 -150t32 -204z" />
    <glyph glyph-name="chochingthai" unicode="&#xe09;" horiz-adv-x="1917" 
d="M1815 0h-500v143q-48 -54 -106.5 -90.5t-124 -59t-135 -32.5t-138.5 -10q-152 0 -279.5 42t-220 121.5t-144.5 195.5t-52 263v320h495v-262q0 -142 78 -218.5t250 -76.5q70 0 138 17.5t121 57t85.5 103.5t32.5 158v299q0 40 -22 85t-68.5 83.5t-118.5 64t-172 25.5
q-75 0 -136 -15.5t-106 -42t-73 -61.5t-37 -74h-508q12 115 73.5 220.5t170.5 185.5t263.5 128t352.5 48q232 0 398.5 -56t273.5 -150t158 -216t51 -254v-942z" />
    <glyph glyph-name="chochangthai" unicode="&#xe0a;" horiz-adv-x="1794" 
d="M1188 631q0 67 -14.5 106.5t-42 59.5t-68 26t-92.5 8h-37v287h33q84 0 134 25t75.5 81t33 144.5t7.5 216.5h499q0 -94 -6.5 -184t-29 -168.5t-64.5 -142t-113 -103.5q54 -38 88 -85t53.5 -95t27 -93.5t7.5 -82.5v-111q0 -102 -29 -183t-81.5 -142.5t-125 -104.5
t-159.5 -70.5t-185.5 -40t-201.5 -12.5q-167 0 -311 33t-249.5 101t-165.5 172t-60 247v139q0 70 27.5 129.5t68 111t88.5 96.5t88.5 86.5t68 80.5t27.5 78q0 15 -20 19.5t-52 0.5t-71.5 -14t-79 -22.5t-74 -25.5t-55.5 -23v348q55 23 109.5 37t101.5 22t84 11t57 3
q91 0 173.5 -19t145 -59t99.5 -103t37 -150q0 -68 -24.5 -123t-60.5 -103t-79 -92t-79 -89t-60.5 -95t-24.5 -109v-90q0 -52 27 -90.5t69.5 -64t94 -38t100.5 -12.5q54 0 106 10t93 33.5t66.5 61t25.5 92.5v74z" />
    <glyph glyph-name="sosothai" unicode="&#xe0b;" horiz-adv-x="1872" 
d="M1012 1257q0 -75 -24.5 -135t-61.5 -111t-80 -96t-80 -90t-61.5 -92t-24.5 -102v-62q0 -61 24.5 -101.5t66 -64.5t94.5 -33.5t110 -9.5q60 0 112.5 9.5t91 33.5t61 64.5t22.5 101.5v62q0 67 -11 106.5t-34 59.5t-57.5 26t-82.5 8h-41v283h41q74 0 117 26.5t65.5 83
t28.5 146t6 215.5h500q0 -94 -7 -184.5t-29.5 -169.5t-65.5 -142t-115 -102q54 -38 88.5 -85t55 -95t28.5 -93.5t8 -82.5v-111q0 -100 -32 -180t-88 -141.5t-131.5 -105.5t-162 -72t-181 -41t-187.5 -13q-95 0 -191 14t-183.5 43t-163.5 73.5t-132.5 106t-88.5 140.5
t-32 176v111q0 81 39.5 153.5t99 135.5t128 116.5t127.5 98.5q-11 -5 -25.5 -8t-29 -5t-27.5 -3t-21 -1q-31 0 -75.5 6t-93.5 24t-98 50t-88 84t-63 126.5t-24 176.5h393q0 -28 5 -57.5t15.5 -54t26.5 -40.5t39 -16q26 0 44 14.5t29 38.5t16 54t5 61h406v-328z" />
    <glyph glyph-name="chochoethai" unicode="&#xe0c;" horiz-adv-x="2814" 
d="M201 791q0 51 -11 89.5t-30.5 67t-45.5 48.5t-57 32q48 124 126 231.5t187.5 186t249 123.5t310.5 45q169 0 316 -36t256 -116t172 -209t63 -315v-250q0 -63 13 -124t44.5 -109t85.5 -77.5t135 -29.5q55 0 93.5 17t62.5 53t34.5 91t10.5 130v946h496v-1003
q0 -161 -35 -277.5t-107.5 -191.5t-183 -110.5t-260.5 -35.5q-52 0 -106 9t-105 30t-97 54.5t-81 82.5v-143h-492v922q0 76 -22 134.5t-63.5 97.5t-99.5 59t-130 20q-45 0 -91.5 -8.5t-92 -27t-87.5 -49t-77 -75.5q27 -20 48.5 -43t36 -54.5t22 -74t7.5 -102.5v-430h217
v-369h-712v791z" />
    <glyph glyph-name="dochadathai" unicode="&#xe0e;" horiz-adv-x="2048" 
d="M1942 -561h-418q-45 46 -98 79.5t-111.5 55t-122 31.5t-127.5 10q-89 0 -176.5 -17.5t-165.5 -49t-144 -75.5t-112 -96v385q64 48 136.5 82t149 56t156.5 32.5t160 10.5q99 0 193 -14t184 -48v1032q0 78 -28.5 137.5t-78 99t-117 59.5t-145.5 20q-46 0 -101 -6.5
t-109.5 -24t-105.5 -47.5t-89 -78q26 -20 47 -43t36 -54.5t23 -74t8 -102.5v-799h-708v381h213v410q0 46 -12 83.5t-32.5 67t-47.5 51t-56 35.5q63 147 157.5 257t214.5 183t262 109.5t300 36.5q110 0 216.5 -15.5t202.5 -49.5t178 -87t141.5 -128t93 -173.5t33.5 -222.5
v-1499z" />
    <glyph glyph-name="topatakthai" unicode="&#xe0f;" horiz-adv-x="2048" 
d="M1499 -561q-8 34 -20.5 65t-31 55t-44.5 38t-60 14t-61.5 -15.5t-47.5 -40t-31 -55t-11 -61.5h-369q0 26 -8.5 56.5t-25.5 57t-42 44.5t-59 18q-32 0 -56.5 -16.5t-41 -42t-25 -57t-8.5 -60.5h-377q0 114 41 203.5t110 151.5t158.5 95t186.5 33q54 0 102 -10.5t89 -28
t74.5 -40.5t57.5 -48q25 23 56.5 44t69 36.5t81 25t92.5 9.5q38 0 76 -6.5t72 -22.5v1032q0 78 -28.5 137.5t-78 99t-117 59.5t-145.5 20q-46 0 -101 -6.5t-109.5 -24t-105.5 -47.5t-89 -78q26 -20 47 -43t36 -54.5t23 -74t8 -102.5v-799h-708v381h213v410q0 46 -12 83.5
t-32.5 67t-47.5 51t-56 35.5q63 147 157.5 257t214.5 183t262 109.5t300 36.5q110 0 216.5 -15.5t202.5 -49.5t178 -87t141.5 -128t93 -173.5t33.5 -222.5v-1499h-443z" />
    <glyph glyph-name="thothanthai" unicode="&#xe10;" horiz-adv-x="1823" 
d="M754 -582q0 31 -5.5 57t-15.5 45.5t-24.5 30.5t-32.5 11t-34 -11.5t-27.5 -31t-18 -46t-6.5 -55.5h-324q1 88 31 161.5t79.5 127t113.5 83.5t133 30q27 0 57 -5.5t58.5 -16t55 -27t46.5 -37.5q24 34 65.5 60t93.5 26q64 0 127 -49v123h443v-476h-430q0 28 -6 54t-17.5 46
t-28.5 32t-38 12q-20 0 -35.5 -12t-26 -32t-15.5 -46t-5 -54h-213zM1774 1053q-1 -70 -23.5 -149.5t-60.5 -165.5t-89.5 -177.5t-110.5 -185.5t-124 -188.5t-129 -186.5h-528l-353 549h-176v381h500l307 -471q52 81 101 163t86.5 157t60 140t22.5 113q0 61 -29 102t-77 66
t-110 35t-128 10q-71 0 -135 -11.5t-116.5 -37t-89.5 -67t-52 -101.5h-520q20 144 97 254.5t198.5 185t280.5 112.5t342 38q83 0 169.5 -6.5t169.5 -22.5q22 31 33.5 74.5t7.5 89.5h504q3 -114 -32 -211t-103 -162q50 -62 78.5 -142t28.5 -185z" />
    <glyph glyph-name="thonangmonthothai" unicode="&#xe11;" horiz-adv-x="2028" 
d="M180 524q0 97 27 183t76.5 161t118 139.5t151.5 118.5q-22 -6 -45.5 -7t-32.5 -1q-31 0 -75.5 6t-93.5 24t-98 50t-88 84t-63 126.5t-24 176.5h393q0 -28 5 -57.5t15.5 -54t26.5 -40.5t39 -16q26 0 44 14.5t29 38.5t16 54t5 61h385v-147q74 48 145.5 80.5t139 53
t130 29.5t118.5 9q72 0 143.5 -17t129 -59t93 -114t35.5 -183v-1237h-495v1094q0 46 -23 60.5t-60.5 7t-86.5 -33t-101 -60t-103.5 -73.5t-94 -74.5t-73 -62t-40.5 -35.5q-49 -43 -82 -77.5t-53 -69t-28.5 -73.5t-8.5 -91v-512h-496v524v0z" />
    <glyph glyph-name="thophuthaothai" unicode="&#xe12;" horiz-adv-x="2990" 
d="M1937 651q0 -54 17.5 -108t53 -97.5t90.5 -70.5t130 -27q49 0 81 18t50.5 54.5t25.5 93t7 133.5v938h496v-995q0 -160 -31.5 -277t-97 -194t-167 -114.5t-241.5 -37.5q-118 0 -225.5 46t-188.5 126v-139h-499v1004q0 38 -12.5 72.5t-33.5 63t-49.5 49.5t-60.5 32
l-160 -152q-46 -40 -100.5 -43.5t-103.5 39.5l-185 160q-32 -11 -58 -32.5t-44 -50.5t-27.5 -64.5t-9.5 -73.5v-529l242 201h-140v282h639v-303l-786 -655h-451v999q0 95 31 176t84 147.5t125 118t154 87t170 55.5t174 23l176 -168l159 168q87 -3 178 -23t176 -55.5t160 -87
t131 -118t88.5 -147.5t32.5 -176v-348z" />
    <glyph glyph-name="nonenthai" unicode="&#xe13;" horiz-adv-x="2814" 
d="M1245 922q0 78 -22 136.5t-63.5 97t-99.5 58t-130 19.5q-43 0 -89.5 -6.5t-92.5 -22.5t-88.5 -43.5t-77.5 -70.5q27 -20 48.5 -46t36 -60.5t22 -79.5t7.5 -105v-430h217v-369h-712v791q0 48 -11.5 85.5t-31 66.5t-46 50t-55.5 35q48 124 126 231.5t187.5 186t249 123.5
t310.5 45q169 0 316 -36t256 -116t172 -209t63 -315v-320q0 -69 7.5 -121t28 -87t57 -52.5t95.5 -17.5q69 0 123 29.5t91.5 77.5t57 109t19.5 124v905h496v-1585h-496v131q-84 -80 -182.5 -122t-206.5 -42q-295 0 -438.5 146.5t-143.5 447.5v361z" />
    <glyph glyph-name="dodekthai" unicode="&#xe14;" horiz-adv-x="2060" 
d="M557 0h-455v942q0 122 39 219.5t106.5 172.5t158 129t193 88.5t212.5 50.5t217 16q106 0 216.5 -16t214 -50.5t194.5 -88.5t158.5 -129t107 -172.5t39.5 -219.5v-942h-500v946q0 64 -32.5 116.5t-90 89.5t-136.5 57t-171 20q-87 0 -165.5 -19t-137 -55t-93 -89
t-34.5 -120v-471l250 205h-148v270h656v-282z" />
    <glyph glyph-name="totaothai" unicode="&#xe15;" horiz-adv-x="2060" 
d="M102 0v983q0 95 30.5 175.5t84 146t124.5 116.5t152 87.5t167.5 58.5t170.5 30l197 -176l197 176q84 -8 171 -30t168.5 -58.5t153 -87.5t125 -116.5t84.5 -146t31 -175.5v-983h-500v987q0 35 -11.5 66.5t-30.5 57.5t-44 46.5t-53 34.5l-197 -152q-21 -15 -44 -25
t-48 -11.5t-51 7t-53 29.5l-189 152q-27 -14 -52.5 -34.5t-44.5 -46.5t-30.5 -57.5t-11.5 -66.5v-512l250 205h-148v270h656v-282l-799 -668h-455z" />
    <glyph glyph-name="thothungthai" unicode="&#xe16;" horiz-adv-x="1991" 
d="M184 791q0 92 -41 152.5t-106 88.5q66 147 163 257t219.5 183t267.5 109.5t308 36.5q109 0 217 -15.5t207 -49.5t184 -87t147.5 -128t98 -173.5t35.5 -222.5v-942h-500v922q0 75 -29 132.5t-81 96t-123 58.5t-156 20q-123 0 -233 -34.5t-193 -117.5q55 -40 83 -105.5
t28 -172.5v-430h217v-369h-713v791z" />
    <glyph glyph-name="thothahanthai" unicode="&#xe17;" horiz-adv-x="1946" 
d="M102 1585h496v-155q54 58 115.5 97t128 63t136 34t140.5 10q154 0 286.5 -41.5t230 -121t153 -195t55.5 -264.5v-1012h-495v958q0 139 -85.5 217t-254.5 78q-74 0 -147 -26t-131.5 -74t-95 -116t-36.5 -152v-885h-496v1585z" />
    <glyph glyph-name="thothongthai" unicode="&#xe18;" horiz-adv-x="1905" 
d="M573 758v-234q0 -37 20 -69.5t66.5 -57t121.5 -39t186 -14.5q103 0 174 12.5t115 35.5t63.5 55.5t19.5 72.5q0 31 -8.5 57.5t-30 47.5t-58 36t-91.5 23l-594 90q-94 14 -185 39t-163 68t-116 106t-44 152q0 114 64 201.5t179.5 147.5t277 91t356.5 31q206 0 366 -38.5
t274 -109.5t181.5 -172t87.5 -225h-492q-15 61 -56 97.5t-98.5 56t-125.5 26t-137 8.5q-72 1 -140 -1t-120.5 -11.5t-84.5 -28t-32 -49.5q0 -43 48.5 -65t147.5 -37l525 -82q147 -23 256 -61t180 -97t106 -141t35 -193q0 -131 -62.5 -228.5t-177.5 -162t-276.5 -97
t-359.5 -32.5q-96 0 -199.5 8t-203 29.5t-188.5 59t-156 95.5t-106.5 140t-39.5 193v266h495z" />
    <glyph glyph-name="nonuthai" unicode="&#xe19;" horiz-adv-x="1946" 
d="M1843 0h-495v156q-54 -59 -115.5 -98t-128 -63t-136.5 -34t-141 -10q-153 0 -285.5 41.5t-230 121t-153.5 195t-56 264.5v1012h496v-958q0 -139 85.5 -217t254.5 -78q74 0 147 26t131.5 74t95 116t36.5 152v885h495v-1585z" />
    <glyph glyph-name="bobaimaithai" unicode="&#xe1a;" horiz-adv-x="1946" 
d="M971 360q92 0 162.5 24.5t118 65t72 94t24.5 111.5v930h495v-930q0 -120 -35.5 -217.5t-97.5 -174t-146 -132.5t-181 -92.5t-202.5 -54t-209.5 -17.5t-208.5 17.5t-201 54t-180.5 92.5t-146 132.5t-97.5 174t-35.5 217.5v930h496v-930q0 -58 23.5 -111.5t70.5 -94
t117 -65t162 -24.5z" />
    <glyph glyph-name="poplathai" unicode="&#xe1b;" horiz-adv-x="1946" 
d="M971 360q92 0 162.5 24.5t118 65t72 94t24.5 111.5v1676h495v-1676q0 -120 -35.5 -217.5t-97.5 -174t-146 -132.5t-181 -92.5t-202.5 -54t-209.5 -17.5t-208.5 17.5t-201 54t-180.5 92.5t-146 132.5t-97.5 174t-35.5 217.5v930h496v-930q0 -58 23.5 -111.5t70.5 -94
t117 -65t162 -24.5z" />
    <glyph glyph-name="phophungthai" unicode="&#xe1c;" horiz-adv-x="2032" 
d="M102 1585h701v-368h-205v-680q0 -226 98 -226q34 0 55 22t32.5 60t15.5 87.5t4 105.5v401h434v-401q0 -56 4 -105.5t15 -87.5t31 -60t52 -22q44 0 69.5 55.5t25.5 170.5v1048h495v-1110q0 -129 -43.5 -224.5t-117 -158.5t-169.5 -94t-202 -31q-54 0 -107 9t-102 27
t-93 45t-79 63q-65 -69 -162.5 -106.5t-206.5 -37.5t-208 31t-174 94t-119 158.5t-44 224.5v1110z" />
    <glyph glyph-name="fofathai" unicode="&#xe1d;" horiz-adv-x="2032" 
d="M102 1585h701v-368h-205v-680q0 -226 98 -226q34 0 55 22t32.5 60t15.5 87.5t4 105.5v401h434v-401q0 -56 4 -105.5t15 -87.5t31 -60t52 -22q44 0 69.5 55.5t25.5 170.5v1794h495v-1856q0 -129 -43.5 -224.5t-117 -158.5t-169.5 -94t-202 -31q-54 0 -107 9t-102 27
t-93 45t-79 63q-65 -69 -162.5 -106.5t-206.5 -37.5t-208 31t-174 94t-119 158.5t-44 224.5v1110z" />
    <glyph glyph-name="phophanthai" unicode="&#xe1e;" horiz-adv-x="2490" 
d="M1516 1585l204 -741l201 741h537l-496 -1585h-442l-271 995l-274 -995h-438l-504 1585h536l213 -749l201 749h533z" />
    <glyph glyph-name="fofanthai" unicode="&#xe1f;" horiz-adv-x="2589" 
d="M1516 1585l245 -741l373 1478h537l-668 -2322h-442l-312 995l-274 -995h-438l-504 1585h536l213 -749l201 749h533z" />
    <glyph glyph-name="phosamphaothai" unicode="&#xe20;" horiz-adv-x="2048" 
d="M1942 0h-496v913q0 78 -28.5 137.5t-78 99t-117 59.5t-145.5 20q-46 0 -101 -6.5t-109.5 -24t-105.5 -47.5t-89 -78q26 -20 47 -43t36 -54.5t23 -74t8 -102.5v-799h-708v369h213v422q0 46 -12 83.5t-32.5 67t-47.5 51t-56 35.5q63 147 157.5 257t214.5 183t262 109.5
t300 36.5q110 0 216.5 -15.5t202.5 -49.5t178 -87t141.5 -128t93 -173.5t33.5 -222.5v-938z" />
    <glyph glyph-name="momathai" unicode="&#xe21;" horiz-adv-x="1946" 
d="M102 1585h496v-885q0 -84 36.5 -152t95 -116t131.5 -74t147 -26q169 0 254.5 78t85.5 217v958h495v-1012q0 -149 -55.5 -264.5t-153 -195t-230 -121t-286.5 -41.5q-71 0 -140.5 10t-136 34t-128 63t-115.5 98v-156h-496v1585z" />
    <glyph glyph-name="yoyakthai" unicode="&#xe22;" horiz-adv-x="1946" 
d="M86 1167q0 83 27 146t72 109.5t104.5 78t124.5 50t131.5 26.5t126.5 8h303v-373h-242q-71 0 -107 -19t-36 -63q0 -46 35.5 -68t115.5 -22h226v-356h-217q-75 0 -115.5 -31t-40.5 -108q0 -49 30.5 -85.5t82 -60.5t119 -35.5t141.5 -11.5q76 0 144 14.5t118.5 49.5t80 93.5
t29.5 145.5v930h496v-979q0 -99 -30.5 -185t-86.5 -157t-134.5 -126.5t-175 -93t-208 -57.5t-233.5 -20q-119 0 -230.5 16.5t-209 48.5t-179 79t-139.5 108t-90.5 135.5t-32.5 161.5q0 61 13.5 113.5t36 95t51 75.5t59.5 56q-78 56 -119 139t-41 172z" />
    <glyph glyph-name="roruathai" unicode="&#xe23;" horiz-adv-x="1782" 
d="M528 541q3 -39 24 -75t64 -64t109 -45t160 -17q107 0 172.5 13t101.5 33t48 44t14 45q1 20 -5.5 39t-30 36.5t-68 32.5t-118.5 27l-446 78q-92 15 -181.5 46.5t-158.5 82.5t-109 124t-34 173q7 118 70 210.5t168.5 156t247.5 96.5t308 33q203 0 354.5 -39.5t255 -112
t161.5 -176.5t73 -233h-512q-8 44 -29.5 78.5t-61 58.5t-99 36.5t-142.5 14.5q-62 1 -115.5 -4.5t-94 -20t-64.5 -37.5t-25 -57q-3 -46 34.5 -78.5t129.5 -48.5l377 -61q160 -26 279.5 -61.5t198 -88.5t115 -129t30.5 -184q-5 -122 -62.5 -215t-164.5 -156.5t-261 -96
t-352 -32.5q-91 0 -188.5 10t-191 35t-177.5 67t-148 105.5t-103.5 151.5t-43.5 205h491z" />
    <glyph glyph-name="ruthai" unicode="&#xe24;" horiz-adv-x="1991" 
d="M184 791q0 92 -41 152.5t-106 88.5q66 147 163 257t219.5 183t267.5 109.5t308 36.5q109 0 217 -15.5t207 -49.5t184 -87t147.5 -128t98 -173.5t35.5 -222.5v-1462h-500v1442q0 75 -29 132.5t-81 96t-123 58.5t-156 20q-123 0 -233 -34.5t-193 -117.5q55 -40 83 -105.5
t28 -172.5v-430h217v-369h-713v791z" />
    <glyph glyph-name="lolingthai" unicode="&#xe25;" horiz-adv-x="1880" 
d="M1282 655q-18 -9 -34.5 -15.5t-34.5 -11t-40 -8t-51 -6.5l-323 -28q-71 -6 -119 -17.5t-77 -27.5t-41.5 -35.5t-12.5 -42.5t17 -43.5t49.5 -35.5t78.5 -23.5t105 -8.5t135 12.5t172 36.5v-381q-102 -24 -189.5 -36.5t-146.5 -12.5q-141 0 -250 21.5t-190 57.5t-136.5 84
t-89 101.5t-48.5 109t-15 106.5q0 211 185 331t569 148l331 28q86 7 121 39.5t35 75.5q0 42 -27 72.5t-72 51t-103.5 30.5t-121.5 10q-68 0 -130 -8t-110.5 -31t-78.5 -65t-33 -109h-500q8 138 71.5 247.5t175.5 185.5t268 116.5t350 40.5q91 0 186 -12t185 -39.5t169 -71.5
t138.5 -108t94 -150t34.5 -197v-1036h-496v655z" />
    <glyph glyph-name="luthai" unicode="&#xe26;" horiz-adv-x="2048" 
d="M1942 -516h-496v1429q0 78 -28.5 137.5t-78 99t-117 59.5t-145.5 20q-46 0 -101 -6.5t-109.5 -24t-105.5 -47.5t-89 -78q26 -20 47 -43t36 -54.5t23 -74t8 -102.5v-799h-708v381h213v410q0 46 -12 83.5t-32.5 67t-47.5 51t-56 35.5q63 147 157.5 257t214.5 183t262 109.5
t300 36.5q110 0 216.5 -15.5t202.5 -49.5t178 -87t141.5 -128t93 -173.5t33.5 -222.5v-1454z" />
    <glyph glyph-name="wowaenthai" unicode="&#xe27;" horiz-adv-x="1831" 
d="M45 1008q32 141 103 254t178.5 192t250.5 121.5t320 42.5q153 0 279 -31t224.5 -87t171 -133.5t120.5 -170.5t71 -198t23 -216q0 -96 -19 -194t-61.5 -188.5t-111.5 -169.5t-168.5 -137.5t-232.5 -92t-304 -33.5q-198 0 -348 47.5t-255.5 132t-167.5 201t-85 254.5h512
q12 -72 43.5 -121.5t77 -79.5t103.5 -43.5t124 -13.5q103 0 176.5 33.5t120.5 93t69.5 141.5t22.5 179t-21.5 177.5t-68 138.5t-119.5 90t-176 32q-55 0 -110.5 -11.5t-102.5 -38t-81 -68.5t-46 -103h-512z" />
    <glyph glyph-name="sosalathai" unicode="&#xe28;" horiz-adv-x="1978" 
d="M598 0h-496v942q0 119 37 215t101.5 171t150.5 130t184.5 90.5t204 52.5t207.5 17q175 0 344 -49q14 15 24.5 38.5t18 49t11.5 51t4 45.5h512q1 -66 -9.5 -126.5t-34 -113t-58.5 -94.5t-83 -71q75 -78 117.5 -178.5t42.5 -227.5v-942h-496v946q0 69 -28 122t-79.5 88.5
t-124 54t-161.5 18.5t-161 -18.5t-122.5 -54t-78 -88.5t-27.5 -122v-127q46 51 95.5 84t109 52.5t132.5 27.5t167 8v-327q-141 0 -237.5 -29t-156 -84.5t-85 -135.5t-25.5 -182v-233z" />
    <glyph glyph-name="sorusithai" unicode="&#xe29;" horiz-adv-x="1946" 
d="M762 700v471h397v-106h189v520h491v-520h193v-365h-193v-69q0 -120 -35.5 -215.5t-97 -169.5t-145 -126.5t-180 -86.5t-201.5 -50t-209 -16t-208.5 16t-201 50t-180.5 86.5t-146 126.5t-97.5 169.5t-35.5 215.5v954h496v-938q0 -138 92.5 -212.5t280.5 -74.5
q190 0 283.5 74.5t93.5 212.5v53h-586z" />
    <glyph glyph-name="sosuathai" unicode="&#xe2a;" horiz-adv-x="1880" 
d="M1282 655q-18 -9 -34.5 -15.5t-34.5 -11t-40 -8t-51 -6.5l-323 -28q-71 -6 -119 -17.5t-77 -27.5t-41.5 -35.5t-12.5 -42.5t17 -43.5t49.5 -35.5t78.5 -23.5t105 -8.5t135 12.5t172 36.5v-381q-102 -24 -189.5 -36.5t-146.5 -12.5q-141 0 -250 21.5t-190 57.5t-136.5 84
t-89 101.5t-48.5 109t-15 106.5q0 211 185 331t569 148l331 28q86 7 121 39.5t35 75.5q0 42 -27 72.5t-72 51t-103.5 30.5t-121.5 10q-68 0 -130 -8t-110.5 -31t-78.5 -65t-33 -109h-500q8 138 71.5 247.5t175.5 185.5t268 116.5t350 40.5q81 0 164.5 -9.5t164.5 -30.5
q13 15 23.5 38t17.5 48t11 49.5t4 43.5h504q1 -65 -10 -125t-34 -112.5t-57.5 -95t-80.5 -72.5q47 -61 73.5 -138t26.5 -174v-1036h-496v655z" />
    <glyph glyph-name="hohipthai" unicode="&#xe2b;" horiz-adv-x="1917" 
d="M1868 1585l-377 -291q80 -34 142.5 -83.5t105.5 -117t65.5 -154t22.5 -194.5v-745h-500v692q0 54 -9.5 105t-31.5 94t-59 75.5t-92 49.5l-533 -410v-606h-496v1585h496v-455l582 455h684z" />
    <glyph glyph-name="lochulathai" unicode="&#xe2c;" horiz-adv-x="2490" 
d="M1962 0h-426l-287 811l-291 -811h-421l-504 1585h532l242 -831l221 626h447l229 -639l135 459q0 37 -7.5 62t-27 40.5t-53.5 22t-88 6.5v250q75 3 131 16t94 40t59 69.5t27 103.5h533q-19 -169 -85.5 -271.5t-164.5 -145.5q35 -43 48.5 -92.5t12 -102.5t-14.5 -108.5
t-30 -110.5z" />
    <glyph glyph-name="oangthai" unicode="&#xe2d;" horiz-adv-x="1925" 
d="M37 782q0 22 1 50.5t7 80.5h909v-360h-385q41 -96 142 -150.5t243 -54.5q111 0 192 30.5t134 88t78.5 139.5t25.5 185t-25 186t-77.5 141.5t-134 90.5t-193.5 32q-66 0 -129 -12t-117.5 -37t-97.5 -65t-69 -95h-508q46 134 131 242t202.5 184.5t266 118t321.5 41.5
q154 0 283 -30.5t232.5 -85.5t182 -131.5t131 -169.5t79 -199t26.5 -220q0 -99 -22 -198t-69.5 -189t-122 -167.5t-178 -134.5t-238.5 -89.5t-304 -32.5q-170 0 -304 33.5t-236 92t-173.5 137t-117 169t-66 187.5t-20.5 192z" />
    <glyph glyph-name="honokhukthai" unicode="&#xe2e;" horiz-adv-x="1925" 
d="M37 782q0 22 1 50.5t7 80.5h909v-360h-385q41 -96 142 -150.5t243 -54.5q111 0 192 30.5t134 88t78.5 139.5t25.5 185t-25 186t-77.5 141.5t-134 90.5t-193.5 32q-66 0 -129 -12t-117.5 -37t-97.5 -65t-69 -95h-508q46 134 131 242t202.5 184.5t266 118t321.5 41.5
q103 0 191.5 -14.5t169.5 -38.5q14 15 26.5 39t22 50.5t15 52.5t5.5 46h504q1 -66 -12 -128.5t-39 -117t-63.5 -99t-85.5 -73.5h-5q103 -111 154 -253t51 -300q0 -99 -22 -198t-69.5 -189t-122 -167.5t-178 -134.5t-238.5 -89.5t-304 -32.5q-170 0 -304 33.5t-236 92
t-173.5 137t-117 169t-66 187.5t-20.5 192z" />
    <glyph glyph-name="paiyannoithai" unicode="&#xe2f;" horiz-adv-x="1831" 
d="M1212 0v672q-86 -59 -178.5 -83t-197.5 -24q-169 0 -303 38t-227 108t-142 170t-49 225q0 91 24.5 162t66 124t97.5 90t120 60t131.5 33t133.5 10h299v-377h-258q-80 0 -113.5 -28.5t-33.5 -77.5q0 -34 11.5 -67.5t41.5 -60.5t81.5 -44t131.5 -17q178 0 271 56.5
t93 185.5v430h496v-1585h-496z" />
    <glyph glyph-name="saraathai" unicode="&#xe30;" horiz-adv-x="1102" 
d="M147 979v475h394v-119h454v-356h-848zM147 197v475h394v-119h454v-356h-848z" />
    <glyph glyph-name="maihanakatthai" unicode="&#xe31;" 
d="M-1180 1843v500h402v-143h872v-357h-1274z" />
    <glyph glyph-name="saraaathai" unicode="&#xe32;" horiz-adv-x="1552" 
d="M16 999q0 98 29 182.5t79.5 153t120 121.5t149.5 89t167.5 54.5t175.5 18.5q143 0 272 -34t227 -104.5t156 -177.5t58 -253v-1049h-496v999q0 66 -17 111t-46.5 72.5t-69 39t-84.5 11.5q-37 0 -75 -13.5t-69.5 -42t-52.5 -73t-24 -105.5h-500z" />
    <glyph glyph-name="saraamthai" unicode="&#xe33;" horiz-adv-x="1552" 
d="M16 999q0 98 29 182.5t79.5 153t120 121.5t149.5 89t167.5 54.5t175.5 18.5q143 0 272 -34t227 -104.5t156 -177.5t58 -253v-1049h-496v999q0 66 -17 111t-46.5 72.5t-69 39t-84.5 11.5q-37 0 -75 -13.5t-69.5 -42t-52.5 -73t-24 -105.5h-500zM-451 2130q0 -21 9.5 -41
t25 -35.5t35.5 -25t41 -9.5q23 0 43 9.5t35 25t24 35.5t9 41q0 23 -9 43t-24 35t-35 24t-43 9q-21 0 -41 -9t-35.5 -24t-25 -35t-9.5 -43zM-721 2130q0 80 29.5 149.5t81 121t121 81t149.5 29.5q78 0 148 -29.5t122.5 -81t83.5 -121t31 -149.5t-31 -149.5t-83.5 -121
t-122.5 -81t-148 -29.5q-80 0 -149.5 29.5t-121 81t-81 121t-29.5 149.5z" />
    <glyph glyph-name="saraithai" unicode="&#xe34;" 
d="M-1868 1843l197 357h1569v-357h-1766z" />
    <glyph glyph-name="saraiithai" unicode="&#xe35;" 
d="M-1671 2200h1118v241h451v-598h-1766z" />
    <glyph glyph-name="sarauethai" unicode="&#xe36;" 
d="M-1671 2200h954q4 64 31.5 119t71 95t101.5 62.5t124 22.5q69 0 129 -25.5t104 -69.5t69.5 -104t25.5 -129t-25.5 -129t-69.5 -104t-104 -69.5t-129 -25.5h-1479zM-483 2171q0 -18 8 -34.5t21 -29t30 -19.5t35 -7t35 7t30 19.5t21 29t8 34.5q0 20 -8 37t-21 30t-30 20
t-35 7t-35 -7t-30 -20t-21 -30t-8 -37z" />
    <glyph glyph-name="saraueethai" unicode="&#xe37;" 
d="M-1671 2200h663v241h385v-241h131v241h390v-598h-1766z" />
    <glyph glyph-name="sarauthai" unicode="&#xe38;" 
d="M-541 -918v377h-151v357h590v-734h-439z" />
    <glyph glyph-name="sarauuthai" unicode="&#xe39;" 
d="M-1303 -184h582v-291q0 -47 25 -70.5t65 -23.5t65 23.5t25 70.5v291h439v-291q0 -97 -29.5 -184.5t-93.5 -154t-164.5 -105.5t-241.5 -39q-123 0 -218.5 23.5t-162 74t-104 129.5t-43.5 190h-144v357z" />
    <glyph glyph-name="phinthuthai" unicode="&#xe3a;" 
d="M-651 -467q0 58 22.5 111t61.5 93t92 63.5t115 23.5q57 0 108.5 -23.5t91 -63.5t63 -93t23.5 -111q0 -59 -23.5 -111.5t-63 -92.5t-91 -63.5t-108.5 -23.5q-62 0 -115 23.5t-92 63.5t-61.5 92.5t-22.5 111.5z" />
    <glyph glyph-name="PUCR2005" unicode="&#xe3e;" 
 />
    <glyph glyph-name="bahtthai" unicode="&#xe3f;" horiz-adv-x="2060" 
d="M123 1888h749v250h287v-250h86q178 0 307 -36t213 -103.5t124 -166t40 -222.5q0 -118 -35 -201.5t-100 -142.5q101 -65 157 -168t56 -254q0 -74 -18 -146.5t-55 -138.5t-94 -122.5t-135 -98t-177 -65t-221 -23.5h-148v-258h-287v258h-749v1888zM1159 770v-344h78
q77 0 127 16t79 41.5t40.5 56.5t11.5 62t-11 61t-38.5 54t-73.5 38.5t-115 14.5h-98zM872 426v344h-237v-344h237zM872 1188v278h-237v-278h237zM1159 1466v-278h78q46 0 80 11t56 30t33 43.5t11 50.5q0 29 -10.5 55t-33.5 45.5t-59.5 31t-88.5 11.5h-66z" />
    <glyph glyph-name="saraethai" unicode="&#xe40;" horiz-adv-x="696" 
d="M102 0v1585h492v-1585h-492z" />
    <glyph glyph-name="saraaethai" unicode="&#xe41;" horiz-adv-x="1352" 
d="M102 0v1585h492v-1585h-492zM758 0v1585h491v-1585h-491z" />
    <glyph glyph-name="saraothai" unicode="&#xe42;" horiz-adv-x="971" 
d="M213 1835q0 51 -18 92.5t-51 71t-78 45.5t-99 16l82 340h914l221 -368h-557q46 -44 64 -95t18 -98v-1470h196v-369h-692v1835z" />
    <glyph glyph-name="saraaimaimuanthai" unicode="&#xe43;" horiz-adv-x="971" 
d="M709 369h196v-369h-692v1516q0 79 26 137t64.5 102.5t83.5 78t83.5 63t64.5 58.5t26 64q0 34 -28.5 52t-77.5 18q-29 0 -61.5 -14.5t-59 -42.5t-42.5 -69t-13 -95h-385q7 97 33 175.5t66 139.5t92 105.5t110.5 73t121.5 42t125 13.5q56 0 114.5 -10t113.5 -30.5
t104 -51.5t86 -72.5t60 -95t26 -117.5q2 -58 -15 -103t-43 -84.5t-57.5 -76t-58.5 -76.5t-45 -87t-18 -106v-1138z" />
    <glyph glyph-name="saraaimaimalaithai" unicode="&#xe44;" horiz-adv-x="971" 
d="M709 369h196v-369h-692v1839q0 47 17.5 98t64.5 95h-557l221 368h913l82 -340q-54 0 -99 -16t-77.5 -45.5t-50.5 -71t-18 -92.5v-1466z" />
    <glyph glyph-name="lakkhangyaothai" unicode="&#xe45;" horiz-adv-x="1552" 
d="M16 999q0 98 29 182.5t79.5 153t120 121.5t149.5 89t167.5 54.5t175.5 18.5q143 0 272 -34t227 -104.5t156 -177.5t58 -253v-1565h-496v1515q0 66 -17 111t-46.5 72.5t-69 39t-84.5 11.5q-37 0 -75 -13.5t-69.5 -42t-52.5 -73t-24 -105.5h-500z" />
    <glyph glyph-name="maiyamokthai" unicode="&#xe46;" horiz-adv-x="1712" 
d="M557 1028q0 -37 5.5 -60.5t17.5 -37.5t30.5 -19.5t44.5 -5.5h156v-389h-197q-53 0 -112 10.5t-115.5 34t-108 62.5t-91 96t-62.5 133.5t-23 175.5q0 65 12 131.5t39 128t71 116.5t108.5 98t151.5 72.5t200 39.5l156 -144l151 144q190 -18 311 -74t189 -140.5t93.5 -193
t25.5 -231.5v-1495h-496v1503q0 34 -0.5 72.5t-5 73.5t-15.5 62t-32 38l-143 -131q-12 -12 -32.5 -18.5t-42 -6.5t-42.5 6.5t-35 18.5l-143 127q-38 -28 -52 -78.5t-14 -118.5z" />
    <glyph glyph-name="maitaikhuthai" unicode="&#xe47;" 
d="M-238 2392h-888q-48 0 -78 -15.5t-47.5 -37.5t-24 -47t-6.5 -43q0 -17 3.5 -37t12.5 -37.5t25 -29t41 -11.5q37 0 61 38.5t21 100.5h291q-3 -62 18.5 -100.5t58.5 -38.5q20 0 35.5 10.5t25 29.5t13 44.5t0.5 54.5h328q6 -123 -17 -211.5t-70.5 -146.5t-118 -85.5
t-159.5 -27.5q-93 0 -157.5 30t-104.5 77q-46 -50 -112.5 -78.5t-153.5 -28.5q-83 0 -146 21t-109 55.5t-76.5 80t-49 94t-26 97.5t-7.5 91q0 114 44 201.5t115 147.5t160.5 91t180.5 31h917v-320z" />
    <glyph glyph-name="maiekthai" unicode="&#xe48;" 
d="M-537 3187h426v-566h-426v566z" />
    <glyph glyph-name="maithothai" unicode="&#xe49;" 
d="M-901 2617v250h-139v291h467v-242q83 3 142 23.5t96.5 53t55 75t17.5 90.5h344q0 -105 -42.5 -202.5t-130.5 -172.5t-224.5 -120.5t-323.5 -45.5h-262z" />
    <glyph glyph-name="maitrithai" unicode="&#xe4a;" 
d="M-362 2617q0 42 -1 76t-6.5 58t-17 37.5t-32.5 13.5q-18 0 -30 -9.5t-19 -26t-9.5 -39.5t-2.5 -50h-211q0 27 -1.5 49.5t-7.5 39.5t-17.5 26.5t-30.5 9.5q-23 0 -35.5 -15t-18 -40.5t-6 -59t-0.5 -70.5h-286q-8 121 14.5 212.5t65.5 153t102 92t125 30.5q38 0 68.5 -10
t54.5 -26t42 -37t32 -42q18 21 40 42t47.5 37t55.5 26t65 10q87 0 145.5 -40t92.5 -108q11 14 22.5 35t20.5 46.5t13 54t1 57.5h312q0 -84 -29.5 -169.5t-79.5 -158.5t-117.5 -127.5t-142.5 -77.5h-218z" />
    <glyph glyph-name="maichattawathai" unicode="&#xe4b;" 
d="M-115 2777v-201h-356v201h-246v303h246v201h356v-201h246v-303h-246z" />
    <glyph glyph-name="thanthakhatthai" unicode="&#xe4c;" 
d="M-49 2687q-80 0 -136.5 -14t-92.5 -42.5t-53 -71.5t-17 -101h-389q0 132 45 236t132.5 177t216 111.5t294.5 40.5v-336z" />
    <glyph glyph-name="nikhahitthai" unicode="&#xe4d;" 
d="M-451 2130q0 -21 9.5 -41t25 -35.5t35.5 -25t41 -9.5q23 0 43 9.5t35 25t24 35.5t9 41q0 23 -9 43t-24 35t-35 24t-43 9q-21 0 -41 -9t-35.5 -24t-25 -35t-9.5 -43zM-721 2130q0 80 29.5 149.5t81 121t121 81t149.5 29.5q78 0 148 -29.5t122.5 -81t83.5 -121t31 -149.5
t-31 -149.5t-83.5 -121t-122.5 -81t-148 -29.5q-80 0 -149.5 29.5t-121 81t-81 121t-29.5 149.5z" />
    <glyph glyph-name="yamakkanthai" unicode="&#xe4e;" 
d="M0 2298q-66 0 -108 -7t-66.5 -21.5t-33.5 -37t-9 -53.5v-119h-131q-35 0 -58 -15.5t-36.5 -44t-19 -68.5t-5.5 -89h-401q-5 88 11.5 177.5t55.5 163.5t100.5 124t147.5 59q37 137 176 205.5t377 65.5v-340z" />
    <glyph glyph-name="fongmanthai" unicode="&#xe4f;" horiz-adv-x="2093" 
d="M102 905q0 130 34 250t96 224.5t148.5 189.5t192.5 146t227.5 94.5t252.5 33.5q129 0 248.5 -33.5t223 -94.5t189 -146t146 -189.5t94 -224.5t33.5 -250q0 -131 -33.5 -251.5t-94 -225.5t-146 -190.5t-189 -146.5t-223 -94.5t-248.5 -33.5q-131 0 -252.5 33.5
t-227.5 94.5t-192.5 146.5t-148.5 190.5t-96 225.5t-34 251.5zM549 913q0 100 39.5 189.5t108 156.5t160 106.5t196.5 39.5q100 0 188.5 -39.5t155 -106.5t105 -156.5t38.5 -189.5q0 -104 -38.5 -195t-105 -158.5t-155 -106.5t-188.5 -39q-105 0 -196.5 39t-160 106.5
t-108 158.5t-39.5 195zM401 913q0 -134 50.5 -252t138.5 -207t207 -140.5t256 -51.5q87 0 168.5 23.5t153 66t130.5 102.5t101.5 132t66 155t23.5 172q0 88 -23.5 170t-66 153.5t-101.5 130.5t-130.5 101t-153 65t-168.5 23q-91 0 -175 -23t-156.5 -65t-131.5 -101
t-101 -130.5t-65 -153.5t-23 -170zM815 913q0 -49 18 -92t50 -75.5t75.5 -51t94.5 -18.5q46 0 86.5 18.5t70.5 51t47 75.5t17 92q0 46 -17 87t-47 72t-70.5 49t-86.5 18q-51 0 -94.5 -18t-75.5 -49t-50 -72t-18 -87z" />
    <glyph glyph-name="zerothai" unicode="&#xe50;" horiz-adv-x="1909" 
d="M1851 692q0 -128 -35 -232t-96.5 -185.5t-146.5 -141t-184.5 -98.5t-210 -57.5t-224.5 -18.5q-112 0 -222.5 18.5t-210 57t-184.5 97t-147.5 138t-97.5 181t-35 225.5q0 183 66.5 323.5t185.5 236t283.5 145t361.5 49.5t361.5 -48.5t283.5 -142.5t185.5 -231.5
t66.5 -315.5zM1364 684q0 83 -34 147.5t-91 109t-131 68t-154 23.5t-154 -23.5t-130.5 -68t-90.5 -109t-34 -147.5q0 -68 34 -127.5t90.5 -104t130.5 -70.5t154 -26t154 25t131 68.5t91 103.5t34 131z" />
    <glyph glyph-name="onethai" unicode="&#xe51;" horiz-adv-x="1888" 
d="M872 -33q-104 0 -219 4.5t-237.5 30t-251 81.5t-258.5 159l323 266q48 -42 117 -77t150 -61t169.5 -40.5t174.5 -14.5q100 0 191 22t160.5 71.5t110.5 128t41 192.5q0 77 -32.5 138t-88.5 103t-131 64.5t-161 22.5q-78 0 -145 -10.5t-116 -30t-76.5 -48t-27.5 -63.5
q0 -23 18 -42.5t50 -33.5t77.5 -22t100.5 -8q12 0 60 2.5t116 17.5v-344q-38 -12 -70 -19.5t-60 -11.5t-52 -5t-47 -1q-83 0 -165.5 12t-158 37t-141 63t-113 89.5t-75 116.5t-27.5 145q0 98 34.5 175.5t94.5 136.5t142 100t177 67t199 38t209 12q125 0 240 -18.5
t214.5 -56.5t181.5 -95.5t140 -135t89.5 -175t31.5 -216.5q0 -174 -71.5 -315t-199 -241.5t-303.5 -155t-385 -54.5z" />
    <glyph glyph-name="twothai" unicode="&#xe52;" horiz-adv-x="2281" 
d="M119 1110q0 40 -5 68t-19 45.5t-38.5 25.5t-64.5 8l106 332q103 0 195.5 -26.5t162 -80t110 -135t40.5 -192.5v-487q0 -68 38.5 -125t115.5 -98.5t192 -65t269 -23.5q251 0 375 61.5t124 196.5v312q0 38 -7 64.5t-20 44t-32 28t-43 18.5l-197 -155l-204 147
q-38 -6 -64.5 -43.5t-26.5 -120.5q0 -32 4 -60t13.5 -48t24.5 -31.5t36 -11.5h127v-312h-139q-107 0 -186 16.5t-135 46.5t-92.5 71.5t-57.5 91t-29 105.5t-8 116q0 114 47 205.5t126.5 158.5t184 108.5t220.5 55.5l151 -114l139 110q77 -5 155.5 -24.5t151.5 -52t136.5 -77
t111 -100t74.5 -121.5t27 -141v-262q0 -116 -39 -209.5t-107 -166t-159 -125.5t-195 -87t-216.5 -50.5t-221.5 -16.5h-160q-136 0 -262.5 21t-236.5 61.5t-200.5 98t-155.5 130t-100.5 159.5t-35.5 185v471z" />
    <glyph glyph-name="threethai" unicode="&#xe53;" horiz-adv-x="1946" 
d="M725 1044q-29 -8 -60.5 -23.5t-57 -53t-42 -104t-16.5 -175.5q0 -74 2 -135t14.5 -104.5t39 -68t75.5 -24.5q25 0 65 6t99 31v-360q-65 -25 -135 -35t-131 -10q-160 0 -260.5 53t-157.5 146t-78 220.5t-21 276.5q0 123 28.5 222.5t79 178t119.5 136.5t150.5 98.5
t172.5 64.5t184 33l192 -151l184 151q155 -8 285.5 -55t224.5 -121.5t146.5 -170t52.5 -198.5v-872h-487v868q0 39 -11 70t-30.5 53.5t-45.5 36t-57 16.5l-266 -204z" />
    <glyph glyph-name="fourthai" unicode="&#xe54;" horiz-adv-x="1942" 
d="M905 1036q-81 0 -147 -13.5t-112.5 -41t-71.5 -71t-25 -103.5v-176q0 -126 74 -196t237 -70h29q-50 43 -78.5 100t-28.5 113q0 27 4 61.5t20.5 70.5t51 71t94.5 62.5t150.5 44.5t220.5 17v-307q-45 0 -76.5 -9t-52 -24t-30 -34t-9.5 -39q0 -22 10.5 -43.5t30.5 -39
t49 -29.5t66 -15h528v-365h-1053q-133 0 -238 27.5t-185 74.5t-136.5 109t-92 130.5t-52 139.5t-16.5 137v148q0 160 62.5 279.5t172.5 199.5t260.5 120t327.5 40h422q40 0 65.5 11.5t40 34t20 56t5.5 78.5h450q0 -63 -11.5 -127.5t-37.5 -125.5t-68 -115t-103.5 -94
t-144 -63.5t-188.5 -23.5h-434z" />
    <glyph glyph-name="fivethai" unicode="&#xe55;" horiz-adv-x="1942" 
d="M860 1376q0 -23 9 -43t24.5 -35t35.5 -23.5t42 -8.5q21 0 40.5 8.5t34 23.5t23 35t8.5 43q0 22 -8.5 41.5t-23 34t-34 23t-40.5 8.5q-22 0 -42 -8.5t-35.5 -23t-24.5 -34t-9 -41.5zM905 1036q-81 0 -147 -13.5t-112.5 -41t-71.5 -71t-25 -103.5v-176q0 -126 74 -196
t237 -70h29q-50 43 -78.5 100t-28.5 113q0 27 4 61.5t20.5 70.5t51 71t94.5 62.5t150.5 44.5t220.5 17v-307q-45 0 -76.5 -9t-52 -24t-30 -34t-9.5 -39q0 -22 10.5 -43.5t30.5 -39t49 -29.5t66 -15h528v-365h-1053q-133 0 -238 27.5t-185 74.5t-136.5 109t-92 130.5
t-52 139.5t-16.5 137v148q0 132 43 236.5t121 181.5t186 127t239 73q1 64 26 121t67.5 99.5t99.5 67t123 24.5q61 0 116.5 -23t98 -62.5t69 -92.5t31.5 -113h25q40 0 65.5 11.5t40 34t20 56t5.5 78.5h450q0 -63 -11.5 -127.5t-37.5 -125.5t-68 -115t-103.5 -94t-144 -63.5
t-188.5 -23.5h-434z" />
    <glyph glyph-name="sixthai" unicode="&#xe56;" horiz-adv-x="1999" 
d="M504 1303q55 23 119 43.5t134 36.5t144.5 25t151.5 9q209 0 373 -52.5t277.5 -147.5t173.5 -227t60 -290q0 -156 -65.5 -287.5t-186.5 -227t-292 -148.5t-381 -53q-107 0 -208.5 13.5t-191 40t-163.5 66t-127.5 91.5t-83 116t-29.5 140q0 106 45 181.5t122 124.5
t178.5 72t215.5 23h168v-303h-115q-35 0 -58 -7t-36.5 -19t-18.5 -27.5t-5 -32.5q0 -28 25 -50.5t68.5 -38.5t101.5 -25t124 -9q45 0 94 9.5t95.5 29t89 48.5t74 68.5t50.5 88.5t19 108q0 97 -27 164.5t-76.5 110.5t-120 62.5t-157.5 19.5q-63 0 -131 -6.5t-138 -18.5
t-138.5 -28t-131.5 -36t-118 -42t-97 -46l-303 504l344 189z" />
    <glyph glyph-name="seventhai" unicode="&#xe57;" horiz-adv-x="2367" 
d="M1835 1155q0 111 33 192.5t93.5 135t145 80t187.5 26.5l151 -332q-80 0 -115.5 -33.5t-35.5 -113.5v-401q0 -100 -31 -189t-87 -165t-134 -138t-172 -109t-201.5 -78.5t-222.5 -45.5l-295 168q57 58 88.5 118t46.5 121t18 121t3 119v114q0 68 -10.5 116.5t-29 81.5
t-44 52.5t-56.5 28.5l-229 -197l-225 205q-29 -8 -58.5 -28.5t-53 -65.5t-38 -119t-14.5 -188q0 -40 4 -87.5t17 -88t36 -68t62 -27.5q24 0 57 3t86 22v-360q-43 -19 -107 -28t-139 -9q-90 0 -162.5 26t-128.5 71t-96 106.5t-66 132t-38.5 147t-12.5 152.5q0 136 28 244.5
t77.5 193t118 146t149.5 103.5t172 66t185 33l151 -143l152 139q164 -18 288 -74.5t207.5 -143t125.5 -199t42 -243.5v-110q0 -40 -9.5 -85.5t-31.5 -94.5q22 15 43 39.5t38 55t27.5 65t10.5 69.5v471z" />
    <glyph glyph-name="eightthai" unicode="&#xe58;" horiz-adv-x="1942" 
d="M827 1044q-78 0 -132 -20.5t-87.5 -57t-48 -88t-14.5 -112.5v-229q0 -40 13.5 -71t37.5 -53.5t56 -37.5t69 -23l250 201l262 -205q40 1 72.5 10t55.5 27t35.5 45t12.5 66q0 20 -4 40t-14.5 36.5t-28 27t-43.5 10.5h-70v316h140q138 0 232.5 -38t153 -99t84 -138
t25.5 -155q0 -132 -54.5 -228t-152 -158.5t-232 -92t-294.5 -29.5l-172 139l-168 -139q-98 0 -192 17.5t-178 51.5t-154.5 83t-121.5 112t-79.5 138.5t-28.5 162.5v201q0 146 56 266.5t158.5 207t246 134t318.5 47.5h499q39 0 63.5 11t38.5 32.5t19.5 54.5t5.5 78h455
q0 -63 -9.5 -127t-32.5 -124t-62 -113t-97.5 -92.5t-139.5 -62t-187 -22.5h-562z" />
    <glyph glyph-name="ninethai" unicode="&#xe59;" horiz-adv-x="1937" 
d="M1389 1409q34 0 54 11t30.5 32.5t14 54.5t3.5 78h446q0 -63 -5 -127.5t-21.5 -124t-47.5 -111.5t-82.5 -90.5t-128 -60.5t-182.5 -22q-30 0 -52.5 -2.5t-41.5 -18.5l-45 -41l479 -987h-471l-434 926q-11 23 -23 43.5t-28 36.5t-37.5 25t-50.5 9h-70q-38 0 -66.5 -14.5
t-47.5 -49.5t-28 -93t-9 -146v-172q1 -43 7 -80.5t19 -65t34.5 -43.5t53.5 -16q22 0 42.5 2.5t44 8.5t50 15.5t60.5 23.5l70 -357q-81 -40 -155.5 -56.5t-139.5 -16.5q-152 0 -261 42t-178.5 121t-102 191t-32.5 252v143q0 180 46.5 308.5t133.5 211t210.5 121.5t277.5 39
h131q45 0 84 -4t74 -14.5t66 -29.5t59 -50l65 61q13 13 35 25t59 12h91z" />
    <glyph glyph-name="angkhankhuthai" unicode="&#xe5a;" horiz-adv-x="2437" 
d="M1843 0v1585h492v-1585h-492zM1171 0v672q-86 -59 -178.5 -83t-197.5 -24q-169 0 -303 38t-227 108t-142 170t-49 225q0 91 24 162t66 124t98 90t120 60t131.5 33t133.5 10h299v-377h-258q-80 0 -113.5 -28.5t-33.5 -77.5q0 -34 11.5 -67.5t41.5 -60.5t81.5 -44
t131.5 -17q178 0 271 56.5t93 185.5v430h496v-1585h-496z" />
    <glyph glyph-name="khomutthai" unicode="&#xe5b;" horiz-adv-x="3666" 
d="M2970 770q-25 -32 -59 -79.5t-72.5 -103t-78.5 -115t-77 -116.5q-43 81 -76.5 146t-61.5 116.5t-53 91.5t-51 72q-29 -43 -61 -102.5t-65 -132t-66.5 -156t-65.5 -174.5q-77 184 -135.5 302.5t-89.5 180.5q-48 -144 -138.5 -269.5t-214 -218.5t-275.5 -146.5t-322 -53.5
q-223 0 -393.5 57.5t-286 163t-175 253.5t-59.5 329q0 161 55.5 300.5t158 242t248 161t325.5 58.5q160 0 278.5 -54.5t197.5 -148t119.5 -219t43.5 -266.5h-435q-5 83 -21.5 139.5t-45.5 91t-69.5 49.5t-92.5 15q-55 0 -106 -24t-90.5 -71.5t-63 -119t-23.5 -166.5
q0 -97 31 -173t88.5 -128.5t138.5 -80.5t181 -28q96 0 181 29t157 81.5t128.5 124.5t96.5 157.5t61.5 181.5t22.5 196l246 168q35 -43 72.5 -94t73 -103t67.5 -102t57 -90q32 46 68 95.5t72 97.5t69.5 92t60.5 80q75 -87 136 -165t110 -159q34 37 70.5 72t64.5 63h545
q68 -86 132.5 -173.5t129.5 -174.5h-663z" />
    <glyph glyph-name="saraulowthai" unicode="&#xf718;" 
d="M-541 -1384v335h-151v357h590v-692h-439z" />
    <glyph glyph-name="sarauulowthai" unicode="&#xf719;" 
d="M-1303 -696h582v-291q0 -47 25 -70.5t65 -23.5t65 23.5t25 70.5v291h439v-291q0 -97 -29.5 -184.5t-93.5 -154t-164.5 -105.5t-241.5 -39q-123 0 -218.5 23.5t-162 74t-104 129.5t-43.5 190h-144v357z" />
    <glyph glyph-name="phinthulowthai" unicode="&#xf71a;" 
d="M-651 -958q0 58 22.5 110.5t61.5 92.5t92 63.5t115 23.5q57 0 108.5 -23.5t91 -63.5t63 -92.5t23.5 -110.5q0 -59 -23.5 -111.5t-63 -92.5t-91 -63.5t-108.5 -23.5q-62 0 -115 23.5t-92 63.5t-61.5 92.5t-22.5 111.5z" />
    <glyph glyph-name="rulakkhangyao" unicode="&#xf881;" horiz-adv-x="2916" 
d="M184 791q0 92 -41 152.5t-106 88.5q66 147 163 257t219.5 183t267.5 109.5t308 36.5q83 0 166.5 -9.5t163 -29t153 -49.5t136.5 -72q102 78 228 119t259 41q143 0 272 -34t227 -104.5t156 -177.5t58 -253v-1565h-496v1515q0 66 -17 111t-46.5 72.5t-69 39t-84.5 11.5
q-37 0 -74.5 -12.5t-68.5 -39.5t-52.5 -69t-25.5 -100q0 -19 2 -35t2 -35v-1458h-500v1438q0 75 -29 132.5t-81 96t-123 58.5t-156 20q-123 0 -233 -34.5t-193 -117.5q55 -40 83 -105.5t28 -172.5v-430h217v-369h-713v791z" />
    <glyph glyph-name="lulakkhangyao" unicode="&#xf882;" horiz-adv-x="2974" 
d="M1942 -516h-496v1429q0 78 -28.5 137.5t-78 99t-117 59.5t-145.5 20q-46 0 -101 -6.5t-109.5 -24t-105.5 -47.5t-89 -78q26 -20 47 -43t36 -54.5t23 -74t8 -102.5v-799h-708v381h213v410q0 46 -12 83.5t-32.5 67t-47.5 51t-56 35.5q63 147 157.5 257t214.5 183t262 109.5
t300 36.5q83 0 163.5 -9t156.5 -27.5t146 -48t132 -71.5q102 78 226 119t258 41q143 0 272 -34t227 -104.5t155.5 -177.5t57.5 -253v-1565h-495v1515q0 66 -17.5 111t-47 72.5t-69 39t-83.5 11.5q-36 0 -73 -12.5t-68.5 -39t-53.5 -67.5t-27 -98q0 -19 2.5 -39t2.5 -39
v-1454z" />
    <glyph glyph-name="lochula.short" unicode="&#xf71d;" horiz-adv-x="2417" 
d="M1942 0h-426l-287 811l-291 -811h-422l-504 1585h533l241 -831l222 626h446l229 -639l136 459q0 37 -7.5 62t-27 40.5t-54 22t-88.5 6.5v250q75 3 131 16t94 40t59.5 69.5t27.5 103.5h532q-18 -169 -85 -271.5t-165 -145.5q36 -43 49 -92.5t11.5 -102.5t-14 -108.5
t-29.5 -110.5z" />
    <glyph glyph-name="uni25CC" unicode="&#x25cc;" horiz-adv-x="1774" 
d="M541 430l61 152q22 -34 47 -59.5t56 -47.5zM885 1233l69 -148q-37 7 -76 5t-67 -9zM885 287l-70 143q37 -9 66.5 -8.5t72.5 12.5zM1360 758l-148 -66q13 34 13.5 68t-8.5 71zM414 762l151 74q-6 -34 -7.5 -72.5t7.5 -75.5zM569 1094l156 -54q-40 -18 -70 -42t-49 -52z
M1208 426l-143 45q31 22 55.5 44.5t42.5 53.5zM1233 1094l-70 -152q-18 31 -46 57.5t-56 44.5z" />
    <glyph glyph-name="yamakkanleftthai" 
d="M-688 2298q-66 0 -108 -7t-66.5 -21.5t-33.5 -37t-9 -53.5v-119h-131q-35 0 -58 -15.5t-36.5 -44t-19 -68.5t-5.5 -89h-401q-5 88 11.5 177.5t55.5 163.5t100.5 124t147.5 59q37 137 176 205.5t377 65.5v-340z" />
    <glyph glyph-name="copyright" unicode="&#xa9;" horiz-adv-x="2122" 
d="M70 946q0 147 37 277.5t103.5 240.5t158.5 197t202 147.5t234.5 92.5t255.5 32t255.5 -32t234.5 -92.5t202 -147.5t158.5 -197t103.5 -240.5t37 -277.5q0 -148 -37 -279.5t-103.5 -241.5t-158.5 -197t-202 -148t-234.5 -93t-255.5 -32t-255.5 32t-234.5 93t-202 148
t-158.5 197t-103.5 241t-37 280zM1769 946q0 102 -25.5 195.5t-71.5 173.5t-111 145t-143.5 111t-169 71t-187.5 25q-98 0 -189 -25t-169.5 -71t-143 -111t-111 -145t-71.5 -173.5t-25 -195.5q0 -104 25 -197.5t71.5 -174.5t111 -146t143 -111t169.5 -71t189 -25
q97 0 187.5 25t169 71t143.5 111t111 146t71.5 174.5t25.5 197.5zM1573 811q-23 -109 -68.5 -194.5t-108.5 -144t-141 -89.5t-165 -31q-126 0 -228 44t-174.5 122t-111.5 184.5t-39 231.5q0 126 37 234t107.5 187t172.5 124t231 45q89 0 169 -29.5t143.5 -87t107 -141.5
t60.5 -193h-271q-12 40 -32.5 74t-48 58.5t-62 38t-74.5 13.5q-62 0 -110.5 -24.5t-82 -68t-51.5 -102.5t-18 -128q0 -65 19.5 -123t54.5 -101.5t85 -69.5t111 -26q37 0 71 14.5t61.5 41t47.5 62.5t29 79h279z" />
    <glyph glyph-name="registered" unicode="&#xae;" horiz-adv-x="2122" 
d="M70 946q0 147 37 277.5t103.5 240.5t158.5 197t202 147.5t234.5 92.5t255.5 32t255.5 -32t234.5 -92.5t202 -147.5t158.5 -197t103.5 -240.5t37 -277.5q0 -148 -37 -279.5t-103.5 -241.5t-158.5 -197t-202 -148t-234.5 -93t-255.5 -32t-255.5 32t-234.5 93t-202 148
t-158.5 197t-103.5 241t-37 280zM1024 1044q37 0 71 3.5t60 14.5t41.5 31t15.5 54q0 21 -12.5 35.5t-33 23t-46 12t-51.5 3.5h-119v-177h74zM1098 1470q199 0 294 -80.5t95 -246.5q0 -124 -51 -199t-150 -113q31 -47 64.5 -99t68 -104t67.5 -102.5t62 -95.5h-319l-234 365
h-45v-365h-286v1040h434zM1769 946q0 102 -25.5 195.5t-71.5 173.5t-111 145t-143.5 111t-169 71t-187.5 25q-98 0 -189 -25t-169.5 -71t-143 -111t-111 -145t-71.5 -173.5t-25 -195.5q0 -104 25 -197.5t71.5 -174.5t111 -146t143 -111t169.5 -71t189 -25q97 0 187.5 25
t169 71t143.5 111t111 146t71.5 174.5t25.5 197.5z" />
    <glyph glyph-name="trademark" unicode="&#x2122;" horiz-adv-x="2671" 
d="M410 1602h-328v286h991v-286h-328v-918h-335v918zM2200 1286l-222 -602h-229l-225 594v-594h-320v1204h406l254 -659l258 659h405v-1204h-323z" />
    <glyph glyph-name="multiply" unicode="&#xd7;" horiz-adv-x="1593" 
d="M115 1176l237 237l443 -446l446 446l238 -237l-447 -447l447 -442l-238 -238l-446 447l-443 -447l-237 238l446 442z" />
    <glyph glyph-name="divide" unicode="&#xf7;" horiz-adv-x="1692" 
d="M135 909h1421v-344h-1421v344zM598 1286q0 49 20 93.5t54.5 78.5t79.5 54t96 20q49 0 93.5 -20t78.5 -54t54 -78.5t20 -93.5q0 -51 -20 -96t-54 -79.5t-78.5 -54.5t-93.5 -20q-51 0 -96 20t-79.5 54.5t-54.5 79.5t-20 96zM598 188q0 51 20 96.5t54.5 79.5t79.5 54t96 20
q49 0 93.5 -20t78.5 -54t54 -79.5t20 -96.5q0 -49 -20 -93t-54 -77t-78.5 -52t-93.5 -19q-51 0 -96 19t-79.5 52t-54.5 77t-20 93z" />
    <glyph glyph-name="ZWSP" unicode="&#x200b;" 
 />
    <glyph glyph-name="yoyingthai" unicode="&#xe0d;" horiz-adv-x="2798" 
d="M1716 0q15 -46 41.5 -74t57 -43.5t63 -20.5t59.5 -5q83 0 134.5 37.5t80 97t38.5 133t10 145.5v21q-45 -37 -89 -62t-89.5 -40.5t-92.5 -22t-98 -6.5q-138 0 -247.5 35.5t-185.5 110.5t-116.5 191t-40.5 277v148q0 151 -81.5 231t-229.5 80q-42 0 -88 -6t-92 -23
t-89.5 -47.5t-78.5 -79.5q27 -18 48.5 -39.5t36 -53t22 -76.5t7.5 -109v-430h217v-369h-712v791q0 46 -11.5 84.5t-31.5 69.5t-47 53t-58 34q48 117 125 222.5t186 185.5t250 127t316 47q110 0 213 -15.5t192.5 -48.5t163.5 -86t127 -127.5t82 -172.5t29 -222v-115
q0 -75 7.5 -131t27 -93.5t54.5 -56t91 -18.5q67 0 120 31t89 81t55 113t19 128v704h495v-1249q-3 -191 -50.5 -346t-140.5 -264.5t-233 -169.5t-329 -60q-113 0 -224 23t-206 80t-165.5 154.5t-101.5 246.5h471z" />
    <glyph glyph-name="sterling" unicode="&#xa3;" horiz-adv-x="1843" 
d="M53 1065h119q-22 56 -29.5 109.5t-7.5 115.5q0 74 24 148.5t71 143t117 128.5t163 104t208.5 69.5t252.5 25.5q186 0 336.5 -49.5t257 -142.5t164 -226.5t57.5 -302.5h-504q-3 69 -22.5 128t-59 102.5t-101 68t-149.5 24.5q-72 0 -130 -18t-99.5 -51.5t-63.5 -82.5
t-22 -110q0 -31 10.5 -81t38.5 -103h496v-299h-369q6 -25 11 -59.5t5 -59.5q0 -28 -5 -54.5t-15.5 -53.5t-27.5 -56t-42 -61q66 0 128.5 -11.5t124 -25.5t124.5 -25.5t131 -11.5t171 44.5t226 127.5l115 -377q-69 -52 -135 -87.5t-129.5 -57t-124.5 -30.5t-119 -9
q-75 0 -148.5 14.5t-147.5 32.5t-150 32.5t-156 14.5q-55 0 -112 -7t-109.5 -20.5t-98 -34.5t-77.5 -48l-172 286q75 43 125 90.5t79.5 97.5t41.5 103t12 107q0 34 -9 69.5t-28 69.5h-246v299z" />
    <glyph glyph-name="yen" unicode="&#xa5;" horiz-adv-x="2187" 
d="M631 1888l467 -676l475 676h610l-627 -831h320v-299h-528v-131h528v-303h-528v-324h-508v324h-525v303h525v131h-525v299h316l-627 831h627z" />
    <glyph glyph-name="cent" unicode="&#xa2;" horiz-adv-x="1774" 
d="M1712 549q-40 -151 -108.5 -258t-159 -177.5t-198.5 -108.5t-226 -50v-229h-250v229q-127 11 -229 46.5t-180.5 89t-135.5 121.5t-93.5 145.5t-53.5 160.5t-17 166q0 141 45 269t134.5 228.5t222 167t307.5 85.5v249h250v-249q126 -14 240 -55.5t204.5 -111t152 -167
t83.5 -223.5h-492q-15 71 -66 116t-122 64v-725q71 21 122 72.5t79 144.5h491zM553 692q0 -133 54.5 -224t162.5 -128v704q-105 -40 -161 -131t-56 -221z" />
    <glyph glyph-name="Euro" unicode="&#x20ac;" horiz-adv-x="2441" 
d="M2404 733q-31 -170 -117.5 -312.5t-220 -245t-309.5 -159.5t-385 -57q-101 0 -204 14t-201 43.5t-189 76.5t-169.5 113t-140.5 152t-103 195h-299v299h237q-2 12 -2.5 24.5t-1 28.5t-0.5 37.5v52.5h-233v295h286q48 140 137 257.5t217.5 202t295.5 132t370 47.5
q98 0 207 -11.5t216.5 -41.5t208 -82t182 -134t139 -197t79.5 -271h-512q-43 144 -168.5 223.5t-330.5 79.5q-161 0 -283 -51.5t-197 -153.5h476v-295h-578q-12 -69 0 -143h578v-299h-447q67 -71 175.5 -115.5t258.5 -44.5q89 0 169 14.5t146.5 52.5t118.5 104t86 169h508z
" />
    <glyph glyph-name="onequarter" unicode="&#xbc;" horiz-adv-x="2687" 
d="M487 1454q-58 -28 -131 -36.5t-172 -8.5v262q64 0 123.5 5.5t107 24t81 55t45.5 99.5h262v-1150h-316v749zM2105 229h-577v234l643 700h242v-659h172v-275h-172v-229h-308v229zM2105 705l-192 -201h192v201zM1675 1855h332l-1036 -1892h-328z" />
    <glyph glyph-name="onehalf" unicode="&#xbd;" horiz-adv-x="2687" 
d="M1581 684q0 105 28 195t88 156t155 103.5t229 37.5q124 0 214.5 -31t149.5 -84.5t87 -125.5t28 -153q0 -97 -40.5 -168t-108 -127t-155.5 -102t-183 -94h487v-291h-1016q5 82 27 149t55.5 122.5t76.5 99.5t91 80t98.5 64.5t98.5 53.5q48 23 93 45.5t80 47.5t56 54t21 66
q0 31 -14 53.5t-37 37t-52.5 21.5t-60.5 7q-49 0 -85.5 -17.5t-60.5 -47.5t-35.5 -69.5t-11.5 -82.5h-303zM1638 1855h332l-1036 -1892h-328zM487 1454q-58 -28 -131 -36.5t-172 -8.5v262q64 0 123.5 5.5t107 24t81 55t45.5 99.5h262v-1150h-316v749z" />
    <glyph glyph-name="threequarters" unicode="&#xbe;" horiz-adv-x="2687" 
d="M2105 229h-577v234l643 700h242v-659h172v-275h-172v-229h-308v229zM2105 705l-192 -201h192v201zM610 1421h49q65 0 96 29t31 70q0 21 -10.5 37.5t-28 27t-40.5 16t-48 5.5q-74 0 -122.5 -38t-61.5 -130h-303q3 101 37.5 181.5t95.5 136.5t145 86t185 30
q126 0 214.5 -28t145 -75t82 -109.5t25.5 -131.5q0 -56 -19 -109t-59 -96q56 -43 91.5 -106.5t35.5 -135.5q0 -34 -6.5 -76.5t-25 -87.5t-52 -87.5t-88 -75.5t-132 -53.5t-183.5 -20.5q-33 0 -85 3t-111 16t-118 40t-107 75t-78 121t-30 179h311q3 -54 20.5 -86t44.5 -49.5
t61 -23t71 -5.5q49 0 84.5 9.5t58.5 25.5t34 38t11 46q0 62 -49 96.5t-139 34.5h-33v221zM1806 1855h332l-1036 -1892h-328z" />
    <glyph glyph-name="saraamleft" horiz-adv-x="1536" 
d="M-1163 2130q0 -21 9 -41t24.5 -35.5t35.5 -25t41 -9.5q23 0 43.5 9.5t35.5 25t23.5 35.5t8.5 41q0 23 -8.5 43t-23.5 35t-35.5 24t-43.5 9q-21 0 -41 -9t-35.5 -24t-24.5 -35t-9 -43zM-1434 2130q0 80 29.5 149.5t81 121t121 81t149.5 29.5q78 0 148 -29.5t122.5 -81
t83.5 -121t31 -149.5t-31 -149.5t-83.5 -121t-122.5 -81t-148 -29.5q-80 0 -149.5 29.5t-121 81t-81 121t-29.5 149.5zM0 999q0 98 29 182.5t79.5 153t120 121.5t149.5 89t167.5 54.5t175.5 18.5q143 0 272 -34t227 -104.5t156 -177.5t58 -253v-1049h-496v999q0 66 -17 111
t-46.5 72.5t-69 39t-84.5 11.5q-37 0 -75 -13.5t-69.5 -42t-52.5 -73t-24 -105.5h-500z" />
    <glyph glyph-name="uni0E33.alt1" horiz-adv-x="1536" 
d="M-1163 2130q0 -21 9 -41t24.5 -35.5t35.5 -25t41 -9.5q23 0 43.5 9.5t35.5 25t23.5 35.5t8.5 41q0 23 -8.5 43t-23.5 35t-35.5 24t-43.5 9q-21 0 -41 -9t-35.5 -24t-24.5 -35t-9 -43zM-1434 2130q0 80 29.5 149.5t81 121t121 81t149.5 29.5q78 0 148 -29.5t122.5 -81
t83.5 -121t31 -149.5t-31 -149.5t-83.5 -121t-122.5 -81t-148 -29.5q-80 0 -149.5 29.5t-121 81t-81 121t-29.5 149.5zM0 999q0 98 29 182.5t79.5 153t120 121.5t149.5 89t167.5 54.5t175.5 18.5q143 0 272 -34t227 -104.5t156 -177.5t58 -253v-1049h-496v999q0 66 -17 111
t-46.5 72.5t-69 39t-84.5 11.5q-37 0 -75 -13.5t-69.5 -42t-52.5 -73t-24 -105.5h-500z" />
    <glyph glyph-name="guillemotleft" unicode="&#xab;" horiz-adv-x="1520" 
d="M795 913l557 414v-393l-283 -197l283 -200v-394l-557 414v356zM168 913l557 414v-393l-283 -197l283 -200v-394l-557 414v356z" />
    <glyph glyph-name="guillemotright" unicode="&#xbb;" horiz-adv-x="1520" 
d="M725 557l-557 -414v394l283 200l-283 197v393l557 -414v-356zM1352 557l-557 -414v394l282 200l-282 197v393l557 -414v-356z" />
    <glyph glyph-name="thothannobasethai" unicode="&#xf700;" horiz-adv-x="1823" 
d="M1774 1053q-1 -70 -23.5 -149.5t-60.5 -165.5t-89.5 -177.5t-110.5 -185.5t-124 -188.5t-129 -186.5h-528l-353 549h-176v381h500l307 -471q52 81 101 163t86.5 157t60 140t22.5 113q0 61 -29 102t-77 66t-110 35t-128 10q-71 0 -135 -11.5t-116.5 -37t-89.5 -67
t-52 -101.5h-520q20 144 97 254.5t198.5 185t280.5 112.5t342 38q83 0 169.5 -6.5t169.5 -22.5q22 31 33.5 74.5t7.5 89.5h504q3 -114 -32 -211t-103 -162q50 -62 78.5 -142t28.5 -185z" />
    <glyph glyph-name="exclam" unicode="!" horiz-adv-x="971" 
d="M737 446v-446h-504v446h504zM672 561h-369l-70 787v540h508v-540z" />
    <glyph glyph-name="quotedbl" unicode="&#x22;" horiz-adv-x="1282" 
d="M1081 1888v-671h-372v671h372zM569 1888v-671h-372v671h372z" />
    <glyph glyph-name="numbersign" unicode="#" horiz-adv-x="1774" 
d="M795 860h176l28 172h-180zM111 492v368h303l28 172h-266v365h311l78 491h373l-74 -491h180l82 491h373l-74 -491h234v-365h-275l-28 -172h229v-368h-282l-78 -492h-377l74 492h-172l-78 -492h-381l74 492h-254z" />
    <glyph glyph-name="dollar" unicode="$" horiz-adv-x="1901" 
d="M528 692q1 -75 23 -126.5t58.5 -85t85 -52t104.5 -27.5v381q-84 15 -170 32t-166 43t-150.5 64t-122.5 93.5t-82 132t-30 180.5q0 127 47 232t138.5 182t226 124.5t309.5 59.5v209h291v-213q91 -7 178.5 -25t166 -51t146.5 -82.5t119.5 -120t84.5 -163.5t42 -213h-500
q-9 37 -23 70t-40 61t-68 49t-106 33v-320q76 -12 163.5 -28.5t175 -42.5t168 -65t143 -96.5t99.5 -137.5t37 -187q0 -117 -31 -208t-85.5 -160t-129 -117.5t-162 -80.5t-184 -49.5t-194.5 -23.5v-221h-291v225q-104 7 -201.5 26t-184.5 54.5t-159 90t-124 133t-81 182.5
t-29 239h508zM1090 397q63 6 113.5 20t86 35t55 49.5t19.5 63.5q0 29 -20 55t-56 47.5t-86.5 38t-111.5 27.5v-336zM590 1327q0 -15 10 -32.5t34.5 -34t64.5 -31t100 -25.5v283q-42 -6 -79.5 -18t-66.5 -31.5t-46 -46.5t-17 -64z" />
    <glyph glyph-name="percent" unicode="%" horiz-adv-x="2736" 
d="M1692 1896h393l-1041 -1908h-393zM1561 520q0 120 29.5 219t91 169.5t155.5 109.5t223 39q126 0 219 -39t154.5 -109.5t92 -169.5t30.5 -219q0 -118 -30.5 -216t-92 -168t-154.5 -109t-219 -39q-129 0 -223 39t-155.5 109t-91 168t-29.5 216zM180 1364q0 117 30 214.5
t91.5 168t153.5 110t217 39.5q129 0 223 -39.5t155.5 -110t91 -168t29.5 -214.5q0 -120 -29.5 -219t-91 -169.5t-155.5 -109.5t-223 -39q-125 0 -217 39t-153.5 109.5t-91.5 169.5t-30 219zM819 1364q0 111 -38 170t-109 59q-68 0 -104 -59t-36 -170q0 -115 36 -174.5
t104 -59.5q71 0 109 59.5t38 174.5zM2204 520q0 115 -36.5 172.5t-107.5 57.5t-109 -57.5t-38 -172.5q0 -114 38 -171.5t109 -57.5t107.5 57.5t36.5 171.5z" />
    <glyph glyph-name="ampersand" unicode="&#x26;" horiz-adv-x="2286" 
d="M1614 160q-60 -54 -135 -93t-159 -63.5t-174.5 -36.5t-182.5 -12q-156 0 -277 26t-212.5 70t-154.5 103.5t-102 126.5t-56.5 137.5t-17.5 138.5q0 81 22 158t70.5 147t125.5 131.5t188 112.5q-42 46 -67 87t-38.5 79t-17.5 74t-4 71q0 108 38 196t111 151t177.5 97.5
t238.5 34.5q130 0 233.5 -36.5t175.5 -99.5t110 -147t38 -179q0 -54 -15.5 -111.5t-50 -113.5t-90 -108.5t-135.5 -96.5l295 -254q10 34 18.5 87t14.5 134h426q0 -60 -7.5 -126t-23 -132t-40.5 -129t-60 -117l553 -467h-631zM840 1430q0 -35 32 -74t91 -94q86 43 124.5 82
t38.5 73q0 47 -37 79t-102 32q-40 0 -68 -8t-45.5 -21.5t-25.5 -31t-8 -37.5zM848 831q-75 -35 -123.5 -68.5t-76.5 -66t-39 -65t-11 -66.5q0 -38 18.5 -80t62 -77t115 -57.5t177.5 -22.5q96 0 184 18t156 68z" />
    <glyph glyph-name="quotesingle" unicode="'" horiz-adv-x="930" 
d="M651 1888v-671h-372v671h372z" />
    <glyph glyph-name="parenleft" unicode="(" horiz-adv-x="1167" 
d="M610 -561q-106 149 -193.5 294t-150 296.5t-97 315.5t-34.5 351q0 347 118.5 657.5t360.5 596.5h455q-118 -175 -200.5 -330.5t-134.5 -305.5t-75.5 -301t-23.5 -317q0 -164 23 -314.5t74.5 -300.5t134 -307t202.5 -335h-459z" />
    <glyph glyph-name="parenright" unicode=")" horiz-adv-x="1167" 
d="M98 -561q120 178 203 335t134 307t74 300.5t23 314.5q0 166 -23.5 317t-75 301t-134.5 305.5t-201 330.5h455q243 -286 361 -596.5t118 -657.5q0 -187 -34.5 -351t-97 -315.5t-150 -296.5t-193.5 -294h-459z" />
    <glyph glyph-name="asterisk" unicode="*" horiz-adv-x="1303" 
d="M1065 1753l123 -291l-283 -102l164 -230l-254 -180l-164 230l-159 -234l-271 176l168 238l-274 98l106 295l266 -94v274h320v-278z" />
    <glyph glyph-name="plus" unicode="+" horiz-adv-x="1692" 
d="M672 1450h348v-541h536v-344h-536v-536h-348v536h-537v344h537v541z" />
    <glyph glyph-name="comma" unicode="," horiz-adv-x="954" 
d="M238 -135q131 30 155 135h-155v451h479v-336q0 -91 -25.5 -177.5t-82 -158t-148 -123.5t-223.5 -74v283z" />
    <glyph glyph-name="hyphen" unicode="-" horiz-adv-x="1507" 
d="M135 909h1237v-344h-1237v344z" />
    <glyph glyph-name="period" unicode="." horiz-adv-x="954" 
d="M238 459h479v-463h-479v463z" />
    <glyph glyph-name="slash" unicode="/" horiz-adv-x="1241" 
d="M1262 1929l-795 -2003h-487l786 2003h496z" />
    <glyph glyph-name="zero" unicode="0" horiz-adv-x="1884" 
d="M70 918q0 131 19.5 253t62 228.5t110 194t164 150.5t223.5 97.5t289 34.5q163 0 291 -34.5t225.5 -97.5t166 -150.5t111.5 -194t63 -228.5t20 -253q0 -133 -20 -256t-63 -229.5t-111.5 -194t-166 -149.5t-225.5 -96t-291 -34q-162 0 -289 34t-223.5 96t-164 149.5
t-110 194t-62 229.5t-19.5 256zM1298 918q0 40 -3.5 96t-16 117.5t-36 122t-63.5 108.5t-99 78t-142 30q-82 0 -140.5 -30t-98 -78t-62.5 -108.5t-35.5 -122t-16 -117.5t-3.5 -96t3.5 -97t16 -119t35.5 -123t62.5 -110t98 -79t140.5 -30q83 0 142 30t99 79t63.5 110t36 123
t16 119t3.5 97z" />
    <glyph glyph-name="one" unicode="1" horiz-adv-x="1884" 
d="M766 1200q-43 -20 -95 -31.5t-108 -17t-114 -7t-113 -1.5v393h74q97 0 168 16t121 42.5t81.5 60t50 69t26.5 69.5t11 62h406v-1855h-508v1200z" />
    <glyph glyph-name="two" unicode="2" horiz-adv-x="1884" 
d="M135 1069q0 178 50 326.5t153 255t260.5 166t372.5 59.5q204 0 354.5 -48t249 -132t146.5 -198.5t48 -248.5q0 -96 -28 -175.5t-76 -145t-113 -119t-139 -98.5t-153.5 -82.5t-157.5 -71.5q-65 -28 -128 -56.5t-122 -62.5h917v-438h-1671q12 148 51 265t96.5 208
t130.5 160.5t153.5 123.5t165 95.5t165.5 77.5q75 34 146.5 69.5t127 74.5t89.5 82.5t34 92.5q0 57 -22.5 100t-60.5 72t-87.5 43.5t-103.5 14.5q-91 0 -156 -32.5t-107.5 -88t-64 -130.5t-24.5 -159h-496z" />
    <glyph glyph-name="three" unicode="3" horiz-adv-x="1884" 
d="M819 1155q9 0 11 -0.5t13.5 -1.5t40 -1.5t91.5 -0.5q55 0 98.5 12t73.5 33t45.5 48.5t15.5 58.5q0 46 -24.5 77.5t-64 51.5t-89 29t-100.5 9q-148 0 -221.5 -69t-85.5 -201h-496q14 175 79 302.5t171.5 210.5t249 123t311.5 40q204 0 352 -47t243.5 -125t141 -178.5
t45.5 -206.5q0 -84 -32 -169.5t-91 -150.5q108 -61 156.5 -165t48.5 -248q0 -126 -49 -239.5t-151 -200t-258 -137t-369 -50.5q-37 0 -94.5 0.5t-127 7.5t-145.5 23t-149.5 47.5t-140.5 81.5t-117.5 123.5t-80.5 174t-30 234.5h488q6 -84 36 -140t79 -89.5t114.5 -47.5
t142.5 -14q80 0 143 17t107 46.5t67 68t23 81.5q0 51 -26 89t-71.5 62.5t-108 37t-134.5 12.5h-131v381z" />
    <glyph glyph-name="four" unicode="4" horiz-adv-x="1884" 
d="M1004 377h-934v397l966 1081h463v-1073h320v-405h-320v-377h-495v377zM1004 1200l-365 -418h365v418z" />
    <glyph glyph-name="five" unicode="5" horiz-adv-x="1884" 
d="M324 1855h1335v-425h-934l-41 -205q71 31 147.5 42t147.5 11q88 0 182.5 -11.5t185 -39t172 -74.5t142.5 -117t97 -166t36 -223q0 -157 -62 -284t-176.5 -217t-276.5 -138.5t-361 -48.5q-183 0 -334 42.5t-260.5 122t-173 193t-72.5 256.5h483q23 -68 56.5 -110t79.5 -66
t106 -32.5t135 -8.5q63 0 124.5 15.5t110.5 49t79 86.5t30 128q0 64 -27 112t-73.5 79.5t-107.5 47t-128 15.5q-48 0 -96 -2t-94.5 -12.5t-89.5 -32t-80 -60.5l-451 25z" />
    <glyph glyph-name="six" unicode="6" horiz-adv-x="1884" 
d="M1303 631q0 52 -21 99.5t-63 83.5t-105 57.5t-147 21.5q-85 0 -148 -21.5t-105 -57.5t-62.5 -83.5t-20.5 -99.5t20.5 -100t62.5 -85t105 -59t148 -22q84 0 147 22t105 59t63 85t21 100zM1274 1319q-12 49 -39.5 80t-66.5 49t-89 24.5t-108 6.5q-56 0 -110.5 -17
t-101 -54.5t-80.5 -96.5t-48 -144q34 23 80 41t97 30t102 18t94 6q91 0 186.5 -13t185.5 -42.5t170 -77t139.5 -117t94.5 -163t35 -214.5q0 -74 -20.5 -152.5t-64 -153.5t-110.5 -142.5t-160 -118t-213 -80t-268 -29.5q-237 0 -406 63t-277 182t-159 291t-51 390
q0 176 28.5 312t77 238.5t114 175t139.5 121.5t152.5 77.5t154 43.5t143.5 19t121 4q64 0 138.5 -7t150.5 -28t149.5 -59t136.5 -100t110.5 -151t72.5 -212h-500z" />
    <glyph glyph-name="seven" unicode="7" horiz-adv-x="1884" 
d="M147 1855h1557v-356q-146 -167 -269 -337t-222.5 -352.5t-176.5 -382.5t-131 -427h-536q54 201 129 396.5t166.5 377t196 344t216.5 299.5h-930v438z" />
    <glyph glyph-name="eight" unicode="8" horiz-adv-x="1884" 
d="M78 586q0 78 20 142.5t52.5 116t74.5 91t86 68.5q-44 35 -72.5 74.5t-45 82.5t-23 87.5t-6.5 90.5q0 120 53.5 219t154.5 169.5t246 109.5t328 39q181 0 326.5 -35.5t246.5 -104t155.5 -168.5t54.5 -229q0 -92 -36.5 -177t-107.5 -150q49 -34 90.5 -79t71.5 -99
t46.5 -116.5t16.5 -131.5q0 -61 -15.5 -131.5t-53 -140.5t-101 -134t-160 -113t-229.5 -78.5t-309 -29.5q-174 0 -305.5 29.5t-227.5 78.5t-160 113t-102 134t-53.5 140t-15.5 132zM1229 1327q0 25 -18.5 51t-54 47.5t-88.5 35.5t-122 14t-121.5 -14t-88.5 -35.5t-54 -47.5
t-18 -51q0 -26 18 -54.5t54 -52t88.5 -38.5t121.5 -15t122 15t88.5 38.5t54 52t18.5 54.5zM1307 573q0 43 -20 84t-64 72.5t-113.5 50.5t-167.5 19q-95 0 -163.5 -19t-112 -50.5t-64 -72.5t-20.5 -84q0 -41 20.5 -80t64 -69.5t112 -49t163.5 -18.5q98 0 167.5 18.5t113.5 49
t64 69.5t20 80z" />
    <glyph glyph-name="nine" unicode="9" horiz-adv-x="1884" 
d="M590 1204q0 -52 20.5 -99.5t62.5 -83.5t105 -57.5t148 -21.5q84 0 147 21.5t105 57.5t63 83.5t21 99.5t-21 100t-63 85t-105 59t-147 22q-85 0 -148 -22t-105 -59t-62.5 -85t-20.5 -100zM618 516q20 -49 48 -80t65.5 -49t84.5 -24.5t106 -6.5q55 0 110 17t101.5 54.5
t80.5 96.5t48 144q-34 -23 -80.5 -41t-97 -30t-101.5 -18t-94 -6q-91 0 -186.5 13t-186 42.5t-170 77t-139.5 117t-94.5 163t-34.5 214.5q0 74 20.5 152.5t64 153.5t110.5 142.5t159.5 118t212 80t268.5 29.5q237 0 406 -63t277 -182t159 -291t51 -390q0 -176 -28.5 -312
t-77 -238.5t-114 -175t-139.5 -121.5t-152.5 -77.5t-153.5 -43.5t-143 -19t-121 -4q-65 0 -139.5 7t-150.5 28t-149.5 59t-136 100t-110.5 151t-72 212h499z" />
    <glyph glyph-name="colon" unicode=":" horiz-adv-x="954" 
d="M238 459h479v-463h-479v463zM238 1364h479v-463h-479v463z" />
    <glyph glyph-name="semicolon" unicode=";" horiz-adv-x="954" 
d="M238 1364h479v-463h-479v463zM238 -135q131 30 155 135h-155v451h479v-336q0 -91 -25.5 -177.5t-82 -158t-148 -123.5t-223.5 -74v283z" />
    <glyph glyph-name="less" unicode="&#x3c;" horiz-adv-x="1757" 
d="M168 950l1421 639v-352l-1007 -446l1007 -447v-348l-1421 635v319z" />
    <glyph glyph-name="equal" unicode="=" horiz-adv-x="1692" 
d="M135 1188h1421v-348h-1421v348zM135 635h1421v-344h-1421v344z" />
    <glyph glyph-name="greater" unicode="&#x3e;" horiz-adv-x="1757" 
d="M168 1237v352l1421 -639v-319l-1421 -635v348l1003 447z" />
    <glyph glyph-name="question" unicode="?" horiz-adv-x="1815" 
d="M131 1217q6 142 45 249.5t100.5 185t141 129t167.5 81.5t178.5 42.5t174.5 12.5q152 0 287.5 -37t237 -110.5t161 -183t59.5 -255.5q0 -89 -25 -158t-65.5 -123.5t-92.5 -98t-106.5 -80.5t-107 -71.5t-94 -72t-67.5 -80.5t-27 -98h-451q0 94 24 165t63 124.5t89 94.5
t102.5 75.5t102.5 67t89 69.5t63 83t24 107q0 58 -23 100t-61 69t-88.5 39.5t-105.5 12.5q-72 0 -131.5 -22.5t-102.5 -65.5t-68.5 -106.5t-29.5 -144.5h-463zM618 430h508v-434h-508v434z" />
    <glyph glyph-name="at" unicode="@" horiz-adv-x="2212" 
d="M1384 418q-46 3 -94.5 25t-85.5 53q-59 -41 -122.5 -63.5t-131.5 -22.5q-86 0 -158 32.5t-124.5 89t-81.5 133.5t-29 166q0 126 39.5 240.5t114.5 201t183 138t245 51.5q31 0 61.5 -3t59 -12t55 -25t49.5 -42l20 50h270q-42 55 -98 96t-120.5 69t-137 42t-147.5 14
q-99 0 -189.5 -25.5t-168.5 -72t-141 -111.5t-107.5 -144.5t-69 -170.5t-24.5 -189q0 -97 25.5 -188t72.5 -170t112 -144.5t143.5 -112t168.5 -72.5t186 -26q83 0 166 13t161 42.5t148 76t127 114.5h357q-92 -141 -204 -243t-236 -167t-257 -96t-266 -31q-146 0 -280.5 35.5
t-250 100.5t-209.5 157.5t-160.5 205.5t-103 245t-36.5 276q0 141 37 269.5t104 239.5t161.5 201.5t209 155t246.5 99.5t274 35q129 0 249 -28.5t225.5 -82t192 -129t149 -169.5t96.5 -203.5t34 -231.5q0 -115 -33.5 -212t-90 -175t-129.5 -137.5t-152 -98t-157.5 -56
t-146.5 -13.5zM1143 1196q-71 3 -124.5 -27.5t-89.5 -81t-54.5 -115t-18.5 -128.5q0 -34 10 -62.5t29 -49.5t45.5 -32.5t58.5 -11.5q58 0 107.5 32.5t84.5 84t55 115t20 124.5q0 28 -9 54.5t-25 47.5t-38.5 34.5t-50.5 15.5zM1761 1098q0 91 -22.5 166.5t-64.5 137.5
l-187 -636q-5 -14 -8.5 -29.5t-4.5 -29t1 -22.5t8 -9q45 0 94 33.5t90 91t67.5 134.5t26.5 163z" />
    <glyph glyph-name="A" unicode="A" horiz-adv-x="2286" 
d="M1483 504h-701l-229 -504h-553l901 1888h483l902 -1888h-574zM1130 1286l-172 -405h357z" />
    <glyph glyph-name="B" unicode="B" horiz-adv-x="2060" 
d="M123 1888h1122q178 0 307 -36t213 -103.5t124 -166t40 -222.5q0 -118 -35 -201.5t-100 -142.5q101 -65 157 -168t56 -254q0 -74 -18 -146.5t-55 -138.5t-94 -122.5t-135 -98t-177 -65t-221 -23.5h-1184v1888zM1237 1188q46 0 80 11t56 30t33 43.5t11 50.5q0 29 -10.5 55
t-33.5 45.5t-59.5 31t-88.5 11.5h-590v-278h602zM1237 426q77 0 127 16t79 41.5t40.5 56.5t11.5 62t-11 61t-38.5 54t-73.5 38.5t-115 14.5h-622v-344h602z" />
    <glyph glyph-name="C" unicode="C" horiz-adv-x="2154" 
d="M2126 733q-31 -170 -117.5 -312.5t-220 -245t-309.5 -159.5t-385 -57q-128 0 -257.5 22t-248.5 71t-223 126t-180.5 187.5t-120.5 255.5t-44 329q0 136 31.5 261.5t93 234.5t152.5 198t210.5 152.5t266.5 98t320 34.5q98 0 207 -11.5t216.5 -41.5t208 -82t182 -134
t139 -197t79.5 -271h-512q-44 144 -169 223.5t-331 79.5q-134 0 -242 -36t-184.5 -107.5t-118 -179t-41.5 -250.5q0 -65 13.5 -129t42.5 -123t74 -109.5t108.5 -87.5t145.5 -58.5t186 -21.5q89 0 168.5 14.5t146.5 52.5t119 104t86 169h508z" />
    <glyph glyph-name="D" unicode="D" horiz-adv-x="2089" 
d="M123 1888h1036q237 0 410 -66.5t286 -188t167.5 -291t54.5 -375.5q0 -130 -22 -252.5t-69 -230t-119.5 -196.5t-173.5 -153t-232 -99.5t-294 -35.5h-1044v1888zM1163 426q85 0 148 22.5t107.5 62t73 92t45 112t22.5 123t6 125.5q0 59 -8 119.5t-27.5 116.5t-52.5 104.5
t-84 84.5t-122 57t-165 21h-471v-1040h528z" />
    <glyph glyph-name="E" unicode="E" horiz-adv-x="1868" 
d="M123 1888h1659v-422h-1147v-286h1106v-418h-1106v-336h1167v-426h-1679v1888z" />
    <glyph glyph-name="F" unicode="F" horiz-adv-x="1724" 
d="M123 1888h1560v-422h-1048v-286h995v-426h-995v-754h-512v1888z" />
    <glyph glyph-name="G" unicode="G" horiz-adv-x="2294" 
d="M1130 1073h1041v-1073h-410l-28 123q-51 -39 -111.5 -69.5t-135.5 -51.5t-166.5 -32t-205.5 -11q-204 0 -363 42.5t-278.5 114.5t-202.5 167.5t-135 202t-75 217.5t-23 215q0 178 43 322t118 256.5t177 194t221 134.5t249 78.5t261 25.5q103 0 210.5 -10t211.5 -38
t201 -77t180.5 -127t149.5 -189.5t108 -262.5h-520q-34 78 -81.5 129.5t-112 82t-146.5 42.5t-185 12q-147 0 -255 -45.5t-178.5 -122t-105 -176.5t-34.5 -209q0 -146 47 -248.5t127.5 -167.5t186.5 -95t225 -30q97 0 180 20t149 57.5t114.5 90.5t76.5 119h-525v389z" />
    <glyph glyph-name="H" unicode="H" horiz-adv-x="2253" 
d="M1618 791h-983v-791h-512v1888h512v-676h983v676h512v-1888h-512v791z" />
    <glyph glyph-name="I" unicode="I" horiz-adv-x="803" 
d="M147 1888h508v-1888h-508v1888z" />
    <glyph glyph-name="J" unicode="J" horiz-adv-x="1602" 
d="M496 786v-192q0 -111 64.5 -164t180.5 -53q112 0 169 55.5t57 157.5v1298h512v-1245q0 -195 -56 -327t-154 -212t-231 -114.5t-288 -34.5q-137 0 -242 23.5t-183.5 64t-133 95.5t-90.5 119t-56.5 133t-30 138t-12 135t-2.5 123h496z" />
    <glyph glyph-name="K" unicode="K" horiz-adv-x="2032" 
d="M800 791l-161 -144v-647h-516v1888h516v-672l758 672h667l-913 -807l930 -1081h-602z" />
    <glyph glyph-name="L" unicode="L" horiz-adv-x="1667" 
d="M123 1888h512v-1454h1016v-434h-1528v1888z" />
    <glyph glyph-name="M" unicode="M" horiz-adv-x="2695" 
d="M1999 1888h573v-1888h-512v1016l-540 -1016h-349l-536 999v-999h-512v1888h573l652 -1241z" />
    <glyph glyph-name="N" unicode="N" horiz-adv-x="2236" 
d="M639 1126v-1126h-516v1888h483l991 -1126v1126h517v-1888h-484z" />
    <glyph glyph-name="O" unicode="O" horiz-adv-x="2294" 
d="M16 946q0 121 26.5 241t83.5 229t146.5 203t215.5 163t289.5 108t369.5 39t369.5 -39t289 -108t215 -163t146.5 -203t83.5 -229t26.5 -241q0 -122 -26.5 -242.5t-83.5 -230t-146.5 -203.5t-215 -163t-289 -108.5t-369.5 -39.5t-369.5 39.5t-289.5 108.5t-215.5 163
t-146.5 203.5t-83.5 230t-26.5 242.5zM1765 946q0 135 -47.5 239t-131 174.5t-196.5 107t-243 36.5q-131 0 -244 -36.5t-196 -107t-131 -174.5t-48 -239q0 -137 48 -241.5t131 -175.5t196 -107.5t244 -36.5q130 0 243 36.5t196.5 107.5t131 175.5t47.5 241.5z" />
    <glyph glyph-name="P" unicode="P" horiz-adv-x="1901" 
d="M123 1888h1012q181 0 318 -38.5t229.5 -113.5t139 -185t46.5 -253t-47 -259.5t-138 -200t-224.5 -129t-307.5 -45.5h-512v-664h-516v1888zM1118 1090q66 0 111.5 17t73.5 45t40.5 64t12.5 74q0 35 -12 67t-36 56t-59.5 38.5t-81.5 14.5h-528v-376h479z" />
    <glyph glyph-name="Q" unicode="Q" horiz-adv-x="2294" 
d="M16 946q0 121 26.5 241t83.5 229t146.5 203t215.5 163t289.5 108t369.5 39t369.5 -39t289 -108t215 -163t146.5 -203t83.5 -229t26.5 -241q0 -91 -14.5 -181t-45.5 -176t-79 -165.5t-114 -149.5l225 -188l-279 -332l-333 278q-104 -35 -225.5 -54t-264.5 -19
q-206 0 -369.5 39.5t-289.5 108.5t-215.5 163t-146.5 203.5t-83.5 230t-26.5 242.5zM1647 591q57 68 87.5 156.5t30.5 198.5q0 135 -47.5 239t-131 174.5t-196.5 107t-243 36.5q-131 0 -244 -36.5t-196 -107t-131 -174.5t-48 -239q0 -137 48 -241.5t131 -175.5t196 -107.5
t244 -36.5q17 0 33 0.5t33 1.5l-119 100l282 332z" />
    <glyph glyph-name="R" unicode="R" horiz-adv-x="2077" 
d="M123 1888h1200q114 0 204 -22.5t158.5 -61.5t117.5 -92.5t79.5 -115.5t45 -129.5t14.5 -135.5q0 -124 -45 -231.5t-132 -181.5q31 -31 54.5 -70t40.5 -83.5t27.5 -93.5t13.5 -98q4 -70 5.5 -125.5t5 -102t13 -86.5t29.5 -80t53.5 -83.5t85.5 -95.5h-557q-48 51 -72.5 103
t-35 105t-12.5 106.5t-3 107.5q-3 81 -18.5 137t-44.5 90t-71 49t-99 15h-541v-713h-516v1888zM1221 1135q63 0 103.5 14.5t64 38t32.5 52.5t9 58q0 36 -10.5 66.5t-34.5 53t-62.5 35.5t-93.5 13h-590v-331h582z" />
    <glyph glyph-name="S" unicode="S" horiz-adv-x="1901" 
d="M528 692q2 -76 22.5 -127.5t54.5 -84.5t78.5 -51t96 -26t106.5 -9t109 -1q83 0 151 11.5t116.5 33.5t75 54t26.5 73q0 29 -19.5 55t-53 47t-78 37t-95.5 25l-393 66q-65 11 -138.5 26t-145.5 40t-137.5 62t-116 92t-80 131.5t-29.5 180.5q0 138 55 249.5t162.5 190
t265 120.5t361.5 42q106 0 212 -10.5t203 -38.5t182 -75.5t150 -121t106.5 -176.5t51.5 -241h-500q-11 49 -32 91t-68 72.5t-128.5 48t-213.5 17.5q-53 0 -105.5 -9t-94.5 -29t-68.5 -52t-26.5 -78q0 -15 10 -32t33 -33.5t60.5 -30.5t92.5 -23l439 -69q42 -7 106.5 -20
t137 -36.5t145 -61.5t131 -95t95 -137t36.5 -187q0 -128 -37 -225.5t-102 -169t-152 -119t-187 -76.5t-208.5 -41t-214.5 -12q-119 0 -236 11.5t-223 42t-196.5 83t-157 134t-104.5 195t-38 267.5h508z" />
    <glyph glyph-name="T" unicode="T" horiz-adv-x="1716" 
d="M602 1466h-590v422h1692v-422h-594v-1466h-508v1466z" />
    <glyph glyph-name="U" unicode="U" horiz-adv-x="2118" 
d="M123 1888h516v-1179q0 -86 28.5 -149t82.5 -103.5t132.5 -60t178.5 -19.5q98 0 176.5 19.5t133 60t83.5 103.5t29 149v1179h512v-1151q0 -195 -56 -341.5t-171.5 -244.5t-291 -147t-415.5 -49q-479 0 -708.5 196t-229.5 586v1151z" />
    <glyph glyph-name="V" unicode="V" horiz-adv-x="2236" 
d="M578 1888l552 -1257l541 1257h557l-868 -1888h-471l-881 1888h570z" />
    <glyph glyph-name="W" unicode="W" horiz-adv-x="3138" 
d="M1556 1278l-450 -1278h-451l-651 1888h549l369 -1118l393 1118h508l401 -1122l373 1122h536l-667 -1888h-451z" />
    <glyph glyph-name="X" unicode="X" horiz-adv-x="2118" 
d="M1462 1888h631l-725 -921l741 -967h-647l-418 582q-44 -63 -97 -138t-107.5 -153t-108.5 -153t-100 -138h-627l729 958l-700 930h631l397 -557z" />
    <glyph glyph-name="Y" unicode="Y" horiz-adv-x="2195" 
d="M635 1888l467 -680l475 680h610l-835 -1110v-778h-508v766l-836 1122h627z" />
    <glyph glyph-name="Z" unicode="Z" horiz-adv-x="2007" 
d="M90 377l1049 1089h-959v422h1716v-368l-1048 -1094h1069v-426h-1827v377z" />
    <glyph glyph-name="bracketleft" unicode="[" horiz-adv-x="1167" 
d="M709 1548v-1712h295v-377h-754v2466h754v-377h-295z" />
    <glyph glyph-name="backslash" unicode="\" horiz-adv-x="1241" 
d="M475 1929l787 -2003h-488l-794 2003h495z" />
    <glyph glyph-name="bracketright" unicode="]" horiz-adv-x="1167" 
d="M168 1548v377h754v-2466h-754v377h295v1712h-295z" />
    <glyph glyph-name="asciicircum" unicode="^" horiz-adv-x="1688" 
d="M844 1544l-398 -823h-352l578 1180h332l589 -1180h-356z" />
    <glyph glyph-name="underscore" unicode="_" horiz-adv-x="1335" 
d="M1335 -152v-303h-1335v303h1335z" />
    <glyph glyph-name="grave" unicode="`" horiz-adv-x="987" 
d="M94 1999h512l291 -479h-365z" />
    <glyph glyph-name="a" unicode="a" horiz-adv-x="1765" 
d="M94 901q15 143 76 245.5t161 168t237 96.5t304 31q77 0 160.5 -7t163.5 -25.5t152 -49.5t126.5 -79.5t86.5 -115.5t32 -157v-680q0 -26 14 -35t34 -8t42 8.5t37 13.5v-307q-41 -8 -73.5 -13t-59.5 -9t-50 -5.5t-46 -1.5q-49 0 -91 5.5t-76 19t-60 36.5t-43 58
q-49 -34 -111 -60.5t-130 -45t-138.5 -28t-136.5 -9.5q-128 0 -227 19.5t-172.5 53.5t-124.5 78.5t-82 94.5t-44.5 102.5t-13.5 101.5q0 103 39 179.5t121.5 130.5t211 88.5t308.5 52.5l237 29q80 9 126 30t46 68q0 37 -18.5 59.5t-53.5 35t-85 16.5t-113 4q-135 0 -214 -44
t-85 -145h-467zM1130 614q-37 -12 -77 -21t-99 -15l-233 -29q-57 -5 -95 -14.5t-60.5 -25.5t-32 -39.5t-9.5 -55.5q0 -50 50.5 -76.5t146.5 -26.5q91 0 166 15t129 45t84 76.5t30 109.5v57z" />
    <glyph glyph-name="b" unicode="b" horiz-adv-x="1851" 
d="M102 1888h484v-598q95 83 206.5 121.5t256.5 38.5q163 0 303 -51t243 -147.5t161.5 -235.5t58.5 -316q0 -180 -58.5 -318t-162 -232t-246.5 -142.5t-312 -48.5q-154 0 -264.5 40t-189.5 120v-119h-480v1888zM1319 700q0 95 -29 164.5t-79.5 115t-119.5 67.5t-149 22
t-149 -22t-119.5 -67.5t-79.5 -115t-29 -164.5q0 -77 22.5 -142.5t69 -114t117.5 -76t168 -27.5q98 0 169.5 27.5t117.5 76t68 114t22 142.5z" />
    <glyph glyph-name="c" unicode="c" horiz-adv-x="1712" 
d="M1692 549q-45 -169 -126 -284.5t-188 -186t-235 -101t-266 -30.5q-149 0 -269.5 30t-213 82t-159.5 123t-110 153t-63.5 171t-20.5 178q0 102 24 198.5t71 180.5t116.5 154t162 120t207 77.5t250.5 27.5q146 0 282 -35t245 -105t183 -176.5t97 -248.5h-491q-9 48 -36 84
t-66 60t-88.5 36t-104.5 12q-83 0 -149.5 -27t-113.5 -76.5t-72.5 -119t-25.5 -154.5q0 -86 23.5 -155t69 -117.5t113 -74.5t155.5 -26q55 0 103 13t87 40.5t69 71t48 105.5h492z" />
    <glyph glyph-name="d" unicode="d" horiz-adv-x="1851" 
d="M1749 0h-479v119q-80 -80 -190.5 -120t-264.5 -40q-169 0 -311.5 48.5t-246 142.5t-162 232t-58.5 318q0 177 58.5 316t161.5 235.5t243 147.5t303 51q144 0 256 -38.5t207 -121.5v598h483v-1888zM532 700q0 -77 22 -142.5t68 -114t117.5 -76t169.5 -27.5q97 0 168 27.5
t117.5 76t69 114t22.5 142.5q0 95 -29 164.5t-79.5 115t-119.5 67.5t-149 22t-149 -22t-119.5 -67.5t-79.5 -115t-29 -164.5z" />
    <glyph glyph-name="e" unicode="e" horiz-adv-x="1806" 
d="M537 561q18 -60 57 -104t89.5 -72.5t109 -42.5t116.5 -14q48 0 95.5 4t93 18.5t87 43t77.5 77.5h495q-63 -149 -156.5 -249.5t-204 -161.5t-231.5 -87t-239 -26q-218 0 -383.5 56t-277 155.5t-168 236t-56.5 297.5q0 155 57.5 291.5t169.5 238.5t277.5 161t380.5 59
q99 0 199.5 -19.5t193.5 -63t173.5 -112t140 -166.5t94 -227t34.5 -293h-1224zM1249 860q-43 105 -131 157t-209 52q-51 0 -101.5 -12t-97 -37t-86 -65t-67.5 -95h692z" />
    <glyph glyph-name="f" unicode="f" horiz-adv-x="1032" 
d="M246 1536q0 108 39.5 181.5t109 118.5t165.5 65t210 20q59 0 124 -8.5t118 -24.5v-344q-25 3 -63.5 7.5t-88.5 4.5q-26 0 -50.5 -2.5t-43 -9.5t-30 -19t-11.5 -30v-111h287v-356h-287v-1028h-479v1028h-226v356h226v152z" />
    <glyph glyph-name="g" unicode="g" horiz-adv-x="1851" 
d="M1286 1384h483v-1318q0 -189 -50.5 -330t-156.5 -234t-270 -139.5t-391 -46.5q-88 0 -177.5 9t-174.5 32.5t-161 64t-136.5 104t-103 153t-58.5 210.5h471q17 -61 46.5 -101t72.5 -64t100 -33.5t129 -9.5q117 0 190.5 25.5t115 69t56.5 100.5t15 120v135
q-51 -52 -109.5 -85t-119 -51.5t-119 -25t-107.5 -6.5q-99 0 -196 17.5t-185 54t-163 94t-129.5 137.5t-85.5 184t-31 234q0 131 30.5 236t85 186t128.5 139t160.5 95.5t183 55t194.5 17.5q154 0 265.5 -37.5t197.5 -113.5v122zM1286 684q0 84 -28 150.5t-78 112t-119 69.5
t-152 24q-81 0 -149.5 -25t-118 -71.5t-77 -112.5t-27.5 -147t26.5 -145.5t75 -109.5t117.5 -69t153 -24q85 0 154.5 22.5t119 67t76.5 109.5t27 149z" />
    <glyph glyph-name="h" unicode="h" horiz-adv-x="1761" 
d="M102 1888h484v-598q46 42 100.5 72t114 49.5t122.5 29t126 9.5q72 0 145.5 -14t141.5 -41.5t127 -70t102.5 -99t68.5 -128.5t25 -159v-938h-483v844q0 117 -63.5 175t-174.5 58q-68 0 -130 -20t-111 -59.5t-80 -98.5t-35 -137v-762h-480v1888z" />
    <glyph glyph-name="i" unicode="i" horiz-adv-x="725" 
d="M123 1384h479v-1384h-479v1384zM123 1888h479v-389h-479v389z" />
    <glyph glyph-name="j" unicode="j" horiz-adv-x="729" 
d="M-127 -197q31 -8 72.5 -12t80 4t66.5 33.5t31 77.5v1478h483v-1499q0 -128 -31 -218.5t-96 -148.5t-166.5 -85t-242.5 -27q-59 0 -112.5 4.5t-84.5 7.5v385zM123 1888h483v-389h-483v389z" />
    <glyph glyph-name="k" unicode="k" horiz-adv-x="1696" 
d="M586 999l475 385h606l-676 -540l721 -844h-569l-496 578l-61 -54v-524h-484v1888h484v-889z" />
    <glyph glyph-name="l" unicode="l" horiz-adv-x="729" 
d="M123 1888h483v-1888h-483v1888z" />
    <glyph glyph-name="m" unicode="m" horiz-adv-x="2732" 
d="M2146 823q0 57 -17.5 99.5t-49 70.5t-75 42t-95.5 14q-60 0 -113 -16t-94 -49t-66.5 -82.5t-29.5 -115.5v-786h-480v823q0 112 -54.5 169t-153.5 57q-65 0 -125.5 -20t-107.5 -58.5t-75 -95t-28 -130.5v-745h-480v1384h480v-147q86 93 195.5 136.5t242.5 43.5
q81 0 145 -11t117 -34.5t98.5 -59.5t89.5 -87q48 44 98 81.5t113.5 65t145 43t192.5 15.5q73 0 146.5 -11.5t141.5 -37.5t127 -68t102.5 -102t68.5 -140t25 -182v-889h-484v823z" />
    <glyph glyph-name="n" unicode="n" horiz-adv-x="1757" 
d="M102 1384h480v-147q46 46 103.5 82t121.5 60.5t132.5 37.5t137.5 13q111 0 215.5 -32.5t186 -97t131 -161.5t49.5 -226v-913h-483v819q0 61 -19.5 105.5t-51.5 73t-74.5 42t-88.5 13.5q-63 0 -127 -22.5t-116 -64t-84.5 -100.5t-32.5 -133v-733h-480v1384z" />
    <glyph glyph-name="o" unicode="o" horiz-adv-x="1851" 
d="M41 692q0 152 53.5 289t163 240.5t276 164t392.5 60.5t392 -60.5t275.5 -164t163 -240.5t53.5 -289t-53.5 -288t-163 -238.5t-275.5 -162.5t-392 -60t-392.5 60t-276 162.5t-163 238.5t-53.5 288zM1315 692q0 64 -21 130.5t-67.5 120.5t-120.5 88t-180 34t-180 -34
t-120.5 -88t-67.5 -120.5t-21 -130.5q0 -63 21.5 -128.5t68.5 -118.5t120.5 -87t178.5 -34q104 0 178 34t121 87t68.5 118.5t21.5 128.5z" />
    <glyph glyph-name="p" unicode="p" horiz-adv-x="1851" 
d="M102 1384h480v-118q83 77 201.5 118t273.5 41q169 0 308.5 -48.5t239.5 -142.5t155 -232t55 -318q0 -177 -58 -316t-159.5 -235.5t-239 -147.5t-297.5 -51q-146 0 -262.5 38.5t-212.5 121.5v-626h-484v1916zM1319 684q0 77 -22 143t-68 114t-117.5 75.5t-169.5 27.5
q-97 0 -168 -27.5t-117.5 -75.5t-69 -114t-22.5 -143q0 -95 29 -164.5t79.5 -115t119.5 -67.5t149 -22t149 22t119.5 67.5t79.5 115t29 164.5z" />
    <glyph glyph-name="q" unicode="q" horiz-adv-x="1851" 
d="M1749 -532h-483v626q-96 -83 -213 -121.5t-262 -38.5q-160 0 -297.5 51t-239 147.5t-159.5 235.5t-58 316q0 180 55 318t155 232t239.5 142.5t308.5 48.5q154 0 272.5 -41t202.5 -118v118h479v-1916zM532 684q0 -95 29 -164.5t79.5 -115t119.5 -67.5t149 -22t149 22
t119.5 67.5t79.5 115t29 164.5q0 77 -22.5 143t-69 114t-117.5 75.5t-168 27.5q-98 0 -169.5 -27.5t-117.5 -75.5t-68 -114t-22 -143z" />
    <glyph glyph-name="r" unicode="r" horiz-adv-x="1163" 
d="M94 1384h479v-139q75 87 176.5 127.5t213.5 40.5q26 0 48.5 -1.5t44.5 -6t44 -11.5t47 -18v-422q-65 28 -124 36.5t-105 8.5q-78 0 -142 -21t-109 -63.5t-69.5 -107t-24.5 -152.5v-655h-479v1384z" />
    <glyph glyph-name="s" unicode="s" horiz-adv-x="1618" 
d="M504 487q1 -30 13 -63.5t44.5 -61t91.5 -45.5t154 -18q91 0 147.5 8t88.5 21.5t43.5 32.5t11.5 40q0 17 -6 33t-22.5 29.5t-46 25t-77.5 19.5l-389 57q-100 15 -188.5 45.5t-155 81.5t-105 124.5t-38.5 174.5q0 118 53 203.5t148.5 140.5t227 81t287.5 26q184 0 324 -36
t236 -103.5t149.5 -164.5t65.5 -220h-492q-2 32 -15.5 63t-46 55t-86 39t-135.5 15q-49 0 -92 -4.5t-75.5 -15.5t-51 -29t-18.5 -46q0 -18 6 -34t22 -29t43 -23t68 -16l332 -45q286 -40 429.5 -145t143.5 -289q0 -134 -57.5 -223.5t-161 -143.5t-246 -77t-313.5 -23
q-85 0 -174.5 6.5t-175 26t-163 56t-137.5 96.5t-98.5 147t-46.5 208h484z" />
    <glyph glyph-name="t" unicode="t" horiz-adv-x="1024" 
d="M193 1815h479v-431h295v-364h-295v-606q0 -30 16 -46t41.5 -22t58 -5t65 6.5t62.5 13t52 12.5v-381q-49 -9 -87.5 -15.5t-74 -10.5t-70 -5.5t-76.5 -1.5q-114 0 -201 25t-146 72.5t-89 115t-30 152.5v696h-189v364h189v431z" />
    <glyph glyph-name="u" unicode="u" horiz-adv-x="1761" 
d="M1659 0h-479v147q-46 -46 -103.5 -81.5t-121.5 -60t-133 -37.5t-138 -13q-111 0 -215.5 32t-186 96.5t-131 161.5t-49.5 226v913h484v-819q0 -62 19 -106t51.5 -72t74.5 -41.5t88 -13.5q63 0 127.5 20t116 59.5t84.5 99.5t33 140v733h479v-1384z" />
    <glyph glyph-name="v" unicode="v" horiz-adv-x="1692" 
d="M537 1384l315 -774l315 774h521l-615 -1384h-455l-614 1384h533z" />
    <glyph glyph-name="w" unicode="w" horiz-adv-x="2503" 
d="M1487 1384l242 -704l253 704h517l-549 -1384h-422l-291 819l-287 -819h-409l-537 1384h520l242 -696l238 696h483z" />
    <glyph glyph-name="x" unicode="x" horiz-adv-x="1802" 
d="M1163 1384h623l-582 -667l619 -717h-631l-299 377l-295 -377h-614l610 717l-561 667h618l254 -323z" />
    <glyph glyph-name="y" unicode="y" horiz-adv-x="1704" 
d="M537 1384l323 -798l320 798h520l-729 -1658q-51 -116 -108 -188.5t-126.5 -113.5t-153 -56t-186.5 -15q-46 0 -107 3t-126 9v393q7 -2 20 -3t27.5 -2.5t28 -2t22.5 -0.5q42 0 80.5 1.5t72.5 12t63 35t50 70.5l78 160l-602 1355h533z" />
    <glyph glyph-name="z" unicode="z" horiz-adv-x="1610" 
d="M90 336l692 659h-647v389h1348v-323l-713 -672h750v-389h-1430v336z" />
    <glyph glyph-name="braceleft" unicode="{" horiz-adv-x="1167" 
d="M98 852q43 3 83 21t70.5 48.5t49 73t18.5 95.5v409q0 103 35.5 182.5t93.5 133.5t130.5 82t146.5 28h307v-356h-205q-15 0 -25 -12.5t-15 -33.5t-7 -47.5t-2 -54.5v-372q0 -72 -12.5 -127.5t-34 -98.5t-49.5 -74.5t-59 -56.5q26 -24 53.5 -59t50 -80t37 -99.5
t14.5 -117.5v-369q0 -29 2 -56.5t7 -48.5t15 -33.5t25 -12.5h205v-357h-307q-78 0 -151.5 28t-130 82t-90.5 133.5t-34 182.5v410q0 52 -18.5 94.5t-49 72.5t-70.5 47t-83 19v324z" />
    <glyph glyph-name="bar" unicode="|" horiz-adv-x="770" 
d="M610 1933v-1978h-450v1978h450z" />
    <glyph glyph-name="braceright" unicode="}" horiz-adv-x="1167" 
d="M1073 528q-43 -2 -83 -19t-70.5 -47t-49 -72.5t-18.5 -94.5v-410q0 -103 -34 -182.5t-90.5 -133.5t-130 -82t-151.5 -28h-307v357h205q15 0 25 12.5t15 33.5t7 48.5t2 56.5v369q0 63 14.5 117.5t37 99.5t50.5 80t54 59q-31 25 -59 56.5t-49.5 74.5t-34.5 98.5t-13 127.5
v372q0 28 -2 54.5t-7 47.5t-15 33.5t-25 12.5h-205v356h307q74 0 146.5 -28t130.5 -82t93.5 -133.5t35.5 -182.5v-409q0 -53 18.5 -95.5t49 -73t70.5 -48.5t83 -21v-324z" />
    <glyph glyph-name="asciitilde" unicode="~" horiz-adv-x="1593" 
d="M135 651q40 78 84.5 130.5t93 83.5t100.5 44t107 13q39 0 87 -14.5t99 -35.5t103.5 -46.5t101.5 -46.5t92.5 -35.5t77.5 -14.5q47 0 102.5 63t123.5 187l151 -295q-43 -77 -87.5 -128t-92 -82t-97.5 -43.5t-104 -12.5q-45 0 -92.5 14t-97 35t-99 45t-97 45t-92 35
t-83.5 14q-49 0 -105.5 -63t-127.5 -187z" />
    <glyph glyph-name="saraithai.alt1" 
d="M-1704 1843l197 357h1405v-357h-1602z" />
    <glyph glyph-name="saraiithai.alt1" 
d="M-1507 2200h954v241h451v-598h-1602z" />
    <glyph glyph-name="sarauethai.alt1" 
d="M-1507 2200h790q4 64 31.5 119t71 95t101.5 62.5t124 22.5q69 0 129 -25.5t104 -69.5t69.5 -104t25.5 -129t-25.5 -129t-69.5 -104t-104 -69.5t-129 -25.5h-1315zM-483 2171q0 -18 8 -34.5t21 -29t30 -19.5t35 -7t35 7t30 19.5t21 29t8 34.5q0 20 -8 37t-21 30t-30 20
t-35 7t-35 -7t-30 -20t-21 -30t-8 -37z" />
    <glyph glyph-name="saraueethai.alt1" 
d="M-1507 2200h499v241h385v-241h131v241h390v-598h-1602z" />
    <glyph glyph-name="saraithai.alt2" 
d="M-2404 1839l200 356h1491v-356h-1691z" />
    <glyph glyph-name="saraiithai.alt2" 
d="M-2208 2195h1065v242h430v-598h-1691z" />
    <glyph glyph-name="sarauethai.alt2" 
d="M-2208 2195h905q5 64 32 119t71 95t101.5 62.5t123.5 22.5q69 0 129 -25t104 -69.5t69.5 -104t25.5 -128.5t-25.5 -129t-69.5 -104.5t-104 -69.5t-129 -25h-1429zM-1069 2167q0 -18 8 -34.5t21 -29t30 -19.5t35 -7t35 7t30 19.5t21 29t8 34.5q0 20 -8 37t-21 30t-30 20
t-35 7t-35 -7t-30 -20t-21 -30t-8 -37z" />
    <glyph glyph-name="saraueethai.alt2" 
d="M-2208 2195h672v242h344v-242h131v242h348v-598h-1691z" />
    <glyph glyph-name="maiekthai.alt2" 
d="M-1130 3187h417v-566h-417v566z" />
    <glyph glyph-name="maithothai.alt2" 
d="M-1335 2617v250h-140v291h467v-242q83 3 142.5 23.5t97 53t55 75t17.5 90.5h344q0 -105 -42.5 -202.5t-130.5 -172.5t-224.5 -120.5t-323.5 -45.5h-262z" />
    <glyph glyph-name="maitrithai.alt2" 
d="M-746 2617q0 42 -1 76t-6.5 58t-17 37.5t-32.5 13.5q-18 0 -30 -9.5t-19 -26t-9.5 -39.5t-2.5 -50h-211q0 27 -1.5 49.5t-7.5 39.5t-17.5 26.5t-30.5 9.5q-23 0 -35.5 -15t-18 -40.5t-6 -59t-0.5 -70.5h-286q-8 121 14.5 212.5t65.5 153t102 92t125 30.5q38 0 68.5 -10
t54.5 -26t42 -37t32 -42q18 21 40 42t47.5 37t55.5 26t65 10q87 0 145.5 -40t92.5 -108q11 14 22.5 35t20.5 46.5t13 54t1 57.5h312q0 -84 -29.5 -169.5t-79.5 -158.5t-117.5 -127.5t-142.5 -77.5h-218z" />
    <glyph glyph-name="maichattawathai.alt2" 
d="M-741 2777v-201h-357v201h-245v303h245v201h357v-201h245v-303h-245z" />
    <glyph glyph-name="saraithai.alt3" 
d="M-2318 1843l196 357h2020v-357h-2216z" />
    <glyph glyph-name="saraiithai.alt3" 
d="M-2122 2200h1569v241h451v-598h-2216z" />
    <glyph glyph-name="sarauethai.alt3" 
d="M-2122 2200h1405q4 64 31.5 119t71 95t101.5 62.5t124 22.5q69 0 129 -25.5t104 -69.5t69.5 -104t25.5 -129t-25.5 -129t-69.5 -104t-104 -69.5t-129 -25.5h-1929zM-483 2171q0 -18 8 -34.5t21 -29t30 -19.5t35 -7t35 7t30 19.5t21 29t8 34.5q0 20 -8 37t-21 30t-30 20
t-35 7t-35 -7t-30 -20t-21 -30t-8 -37z" />
    <glyph glyph-name="saraueethai.alt3" 
d="M-2122 2200h1114v241h385v-241h131v241h390v-598h-2216z" />
    <glyph glyph-name="maiekthai.alt4" 
d="M-537 3023h426v-565h-426v565z" />
    <glyph glyph-name="maithothai.alt4" 
d="M-901 2458v249h-139v291h467v-241q83 3 142 23t96.5 52.5t55 75t17.5 90.5h344q0 -104 -42.5 -201.5t-130.5 -172.5t-224.5 -120.5t-323.5 -45.5h-262z" />
    <glyph glyph-name="maitrithai.alt4" 
d="M-362 2458q0 42 -1 76t-6.5 58t-17 37.5t-32.5 13.5q-18 0 -30 -9.5t-19 -26t-9.5 -39.5t-2.5 -50h-211q0 27 -1.5 49.5t-7.5 39.5t-17.5 26.5t-30.5 9.5q-23 0 -35.5 -15t-18 -40.5t-6 -59t-0.5 -70.5h-286q-8 121 14.5 212.5t65.5 153t102 92t125 30.5q38 0 68.5 -10
t54.5 -26t42 -37t32 -42q18 21 40 42t47.5 37t55.5 26t65 10q87 0 145.5 -40t92.5 -108q11 14 22.5 35t20.5 46.5t13 54t1 57.5h312q0 -84 -29.5 -169.5t-79.5 -158.5t-117.5 -127.5t-142.5 -77.5h-218z" />
    <glyph glyph-name="maichattawathai.alt4" 
d="M-143 2658v-200h-357v200h-245v303h245v201h357v-201h245v-303h-245z" />
    <glyph glyph-name="maiekthai.alt5" 
d="M-1155 3023h418v-565h-418v565z" />
    <glyph glyph-name="maithothai.alt5" 
d="M-1319 2458v249h-139v291h467v-241q83 3 142 23t96.5 52.5t55 75t17.5 90.5h344q0 -104 -42.5 -201.5t-130.5 -172.5t-224.5 -120.5t-323.5 -45.5h-262z" />
    <glyph glyph-name="maitrithai.alt5" 
d="M-771 2457q0 42 -1 76t-6.5 58t-17 37.5t-32.5 13.5q-18 0 -30 -9.5t-19 -26t-9.5 -39.5t-2.5 -50h-211q0 27 -1.5 49.5t-7.5 39.5t-17.5 26.5t-30.5 9.5q-23 0 -35.5 -15t-18 -40.5t-6 -59t-0.5 -70.5h-286q-8 121 14.5 212.5t65.5 153t102 92t125 30.5q38 0 68.5 -10
t54.5 -26t42 -37t32 -42q18 21 40 42t47.5 37t55.5 26t65 10q87 0 145.5 -40t92.5 -108q11 14 22.5 35t20.5 46.5t13 54t1 57.5h312q0 -84 -29.5 -169.5t-79.5 -158.5t-117.5 -127.5t-142.5 -77.5h-218z" />
    <glyph glyph-name="maichattawathai.alt5" 
d="M-766 2658v-200h-356v200h-246v303h246v201h356v-201h246v-303h-246z" />
    <glyph glyph-name="sarauthai.alt6" 
d="M-967 -918v377h-151v357h590v-734h-439z" />
    <glyph glyph-name="sarauuthai.alt6" 
d="M-1483 -184h582v-303q0 -47 25 -71t65 -24t65 24t25 71v303h438v-291q0 -97 -29.5 -184.5t-93 -154t-164 -105.5t-241.5 -39q-123 0 -218.5 23.5t-162.5 74t-104 129.5t-43 190h-144v357z" />
    <glyph glyph-name="phinthuthai.alt6" 
d="M-1110 -467q0 58 22.5 111t61.5 93t92 63.5t115 23.5q57 0 108.5 -23.5t91.5 -63.5t63.5 -93t23.5 -111q0 -59 -23.5 -111.5t-63.5 -92.5t-91.5 -63.5t-108.5 -23.5q-62 0 -115 23.5t-92 63.5t-61.5 92.5t-22.5 111.5z" />
    <glyph glyph-name="sarauthai.alt7" 
d="M-909 -918v377h-152v357h590v-734h-438z" />
    <glyph glyph-name="sarauuthai.alt7" 
d="M-1716 -184h581v-291q0 -47 25 -70.5t66 -23.5q40 0 65 23.5t25 70.5v291h438v-291q0 -97 -29.5 -184.5t-93.5 -154t-164 -105.5t-241 -39q-123 0 -218.5 23.5t-162.5 74t-104.5 129.5t-43.5 190h-143v357z" />
    <glyph glyph-name="phinthuthai.alt7" 
d="M-1057 -467q0 58 22.5 111t61.5 93t92 63.5t115 23.5q57 0 109 -23.5t91.5 -63.5t63 -93t23.5 -111q0 -59 -23.5 -111.5t-63 -92.5t-91.5 -63.5t-109 -23.5q-62 0 -115 23.5t-92 63.5t-61.5 92.5t-22.5 111.5z" />
    <glyph glyph-name="maihanakatthai.alt8" 
d="M-1339 1831v500h401v-156h1225v-344h-1626z" />
    <glyph glyph-name="maiekthai.alt8" 
d="M-1032 3187h418v-566h-418v566z" />
    <glyph glyph-name="maithothai.alt8" 
d="M-1196 2617v250h-139v291h467v-242q83 3 142 23.5t96.5 53t55 75t17.5 90.5h344q0 -105 -42.5 -202.5t-130.5 -172.5t-224.5 -120.5t-323.5 -45.5h-262z" />
    <glyph glyph-name="maitrithai.alt8" 
d="M-632 2617q0 42 -1 76t-6.5 58t-17 37.5t-32.5 13.5q-18 0 -30 -9.5t-19 -26t-9.5 -39.5t-2.5 -50h-211q0 27 -1.5 49.5t-7.5 39.5t-17.5 26.5t-30.5 9.5q-23 0 -35.5 -15t-18 -40.5t-6 -59t-0.5 -70.5h-286q-8 121 14.5 212.5t65.5 153t102 92t125 30.5q38 0 68.5 -10
t54.5 -26t42 -37t32 -42q18 21 40 42t47.5 37t55.5 26t65 10q87 0 145.5 -40t92.5 -108q11 14 22.5 35t20.5 46.5t13 54t1 57.5h312q0 -84 -29.5 -169.5t-79.5 -158.5t-117.5 -127.5t-142.5 -77.5h-218z" />
    <glyph glyph-name="maichattawathai.alt8" 
d="M-643 2777v-201h-356v201h-246v303h246v201h356v-201h246v-303h-246z" />
    <glyph glyph-name="saraileftthai" 
d="M-2036 1839l201 356h1098v-356h-1299z" />
    <glyph glyph-name="saraileftthai" unicode="&#xf701;" 
d="M-2036 1839l201 356h1098v-356h-1299z" />
    <glyph glyph-name="saraiileftthai" 
d="M-1839 2195h672v242h430v-598h-1299z" />
    <glyph glyph-name="saraiileftthai" unicode="&#xf702;" 
d="M-1839 2195h672v242h430v-598h-1299z" />
    <glyph glyph-name="saraueleftthai" 
d="M-1839 2195h496q4 64 31 119t71 95t101.5 62.5t123.5 22.5q69 0 129 -25t104.5 -69.5t69.5 -104t25 -128.5t-25 -129t-69.5 -104.5t-104.5 -69.5t-129 -25h-1020zM-1110 2167q0 -18 8 -34.5t21 -29t30 -19.5t35 -7t35 7t30 19.5t21 29t8 34.5q0 20 -8 37t-21 30t-30 20
t-35 7t-35 -7t-30 -20t-21 -30t-8 -37z" />
    <glyph glyph-name="saraueleftthai" unicode="&#xf703;" 
d="M-1839 2195h496q4 64 31 119t71 95t101.5 62.5t123.5 22.5q69 0 129 -25t104.5 -69.5t69.5 -104t25 -128.5t-25 -129t-69.5 -104.5t-104.5 -69.5t-129 -25h-1020zM-1110 2167q0 -18 8 -34.5t21 -29t30 -19.5t35 -7t35 7t30 19.5t21 29t8 34.5q0 20 -8 37t-21 30t-30 20
t-35 7t-35 -7t-30 -20t-21 -30t-8 -37z" />
    <glyph glyph-name="saraueeleftthai" 
d="M-1839 2195h278v242h344v-242h132v242h348v-598h-1299z" />
    <glyph glyph-name="saraueeleftthai" unicode="&#xf704;" 
d="M-1839 2195h278v242h344v-242h132v242h348v-598h-1299z" />
    <glyph glyph-name="maieklowleftthai" 
d="M-1257 2433h454v-594h-454v594z" />
    <glyph glyph-name="maieklowleftthai" unicode="&#xf705;" 
d="M-1257 2433h454v-594h-454v594z" />
    <glyph glyph-name="maitholowleftthai" 
d="M-1626 1843v287h-148v307h480v-270q63 7 117 32t93.5 61.5t62 82t22.5 94.5h360q0 -76 -19 -149.5t-58 -139.5t-99 -122t-143 -96.5t-189 -63.5t-237 -23h-242z" />
    <glyph glyph-name="maitholowleftthai" unicode="&#xf706;" 
d="M-1626 1843v287h-148v307h480v-270q63 7 117 32t93.5 61.5t62 82t22.5 94.5h360q0 -76 -19 -149.5t-58 -139.5t-99 -122t-143 -96.5t-189 -63.5t-237 -23h-242z" />
    <glyph glyph-name="maitrilowleftthai" 
d="M-1139 1839q0 42 -2.5 77t-9.5 61t-19 40.5t-31 14.5q-18 0 -30 -10.5t-19 -28.5t-10 -42.5t-3 -51.5h-206q0 27 -2 51.5t-8.5 42.5t-18 28.5t-29.5 10.5q-21 0 -33 -16.5t-18.5 -43.5t-8.5 -61.5t-2 -71.5h-295q-8 123 16 221t69.5 166t106.5 104.5t127 36.5
q39 0 68.5 -9.5t52.5 -25.5t40.5 -35.5t31.5 -39.5q18 20 40 39.5t47.5 35.5t56 25.5t65.5 9.5q41 0 73.5 -12t57 -33.5t41.5 -50.5t28 -63q11 14 19 36t13 50t6.5 59.5t-1.5 63.5h320q0 -88 -22.5 -180.5t-64.5 -173t-102 -141t-135 -83.5h-209z" />
    <glyph glyph-name="maitrilowleftthai" unicode="&#xf707;" 
d="M-1139 1839q0 42 -2.5 77t-9.5 61t-19 40.5t-31 14.5q-18 0 -30 -10.5t-19 -28.5t-10 -42.5t-3 -51.5h-206q0 27 -2 51.5t-8.5 42.5t-18 28.5t-29.5 10.5q-21 0 -33 -16.5t-18.5 -43.5t-8.5 -61.5t-2 -71.5h-295q-8 123 16 221t69.5 166t106.5 104.5t127 36.5
q39 0 68.5 -9.5t52.5 -25.5t40.5 -35.5t31.5 -39.5q18 20 40 39.5t47.5 35.5t56 25.5t65.5 9.5q41 0 73.5 -12t57 -33.5t41.5 -50.5t28 -63q11 14 19 36t13 50t6.5 59.5t-1.5 63.5h320q0 -88 -22.5 -180.5t-64.5 -173t-102 -141t-135 -83.5h-209z" />
    <glyph glyph-name="maichattawalowleftthai" 
d="M-930 2032v-189h-401v189h-225v340h225v184h401v-184h225v-340h-225z" />
    <glyph glyph-name="maichattawalowleftthai" unicode="&#xf708;" 
d="M-930 2032v-189h-401v189h-225v340h225v184h401v-184h225v-340h-225z" />
    <glyph glyph-name="thanthakhatlowleftthai" 
d="M-705 2068q-161 0 -238 -55.5t-77 -173.5h-381q0 129 47 230.5t136.5 171.5t219 107.5t293.5 39.5v-320z" />
    <glyph glyph-name="thanthakhatlowleftthai" unicode="&#xf709;" 
d="M-705 2068q-161 0 -238 -55.5t-77 -173.5h-381q0 129 47 230.5t136.5 171.5t219 107.5t293.5 39.5v-320z" />
    <glyph glyph-name="maieklowrightthai" 
d="M-578 2433h472v-594h-472v594z" />
    <glyph glyph-name="maieklowrightthai" unicode="&#xf70a;" 
d="M-578 2433h472v-594h-472v594z" />
    <glyph glyph-name="maitholowrightthai" 
d="M-950 1843v287h-148v307h520v-258q63 8 114.5 31t88 57t56.5 77.5t20 92.5h377q0 -76 -19 -149.5t-58 -139.5t-99 -122t-143 -96.5t-189.5 -63.5t-237.5 -23h-282z" />
    <glyph glyph-name="maitholowrightthai" unicode="&#xf70b;" 
d="M-950 1843v287h-148v307h520v-258q63 8 114.5 31t88 57t56.5 77.5t20 92.5h377q0 -76 -19 -149.5t-58 -139.5t-99 -122t-143 -96.5t-189.5 -63.5t-237.5 -23h-282z" />
    <glyph glyph-name="maitrilowrightthai" 
d="M-594 1843q0 42 -3.5 76.5t-12 59.5t-22 39t-33.5 14q-41 0 -58.5 -38.5t-17.5 -100.5h-221q0 63 -17 101t-51 38q-26 0 -42 -15.5t-24 -42t-10.5 -60.5t-2.5 -71h-315q-8 124 19 223t77 168t117.5 105.5t142.5 36.5q40 0 72.5 -11t59 -29t47.5 -40.5t36 -44.5
q18 22 41 44.5t51.5 40.5t63.5 29t77 11q44 0 83 -12.5t71.5 -35t57 -53t39.5 -67.5q11 14 23 38t22 53.5t15 62t2 63.5h332q0 -88 -28.5 -181t-78.5 -174.5t-118 -142.5t-148 -84h-246z" />
    <glyph glyph-name="maitrilowrightthai" unicode="&#xf70c;" 
d="M-594 1843q0 42 -3.5 76.5t-12 59.5t-22 39t-33.5 14q-41 0 -58.5 -38.5t-17.5 -100.5h-221q0 63 -17 101t-51 38q-26 0 -42 -15.5t-24 -42t-10.5 -60.5t-2.5 -71h-315q-8 124 19 223t77 168t117.5 105.5t142.5 36.5q40 0 72.5 -11t59 -29t47.5 -40.5t36 -44.5
q18 22 41 44.5t51.5 40.5t63.5 29t77 11q44 0 83 -12.5t71.5 -35t57 -53t39.5 -67.5q11 14 23 38t22 53.5t15 62t2 63.5h332q0 -88 -28.5 -181t-78.5 -174.5t-118 -142.5t-148 -84h-246z" />
    <glyph glyph-name="maichattawalowrightthai" 
d="M-143 2040v-197h-414v197h-234v348h234v192h414v-192h233v-348h-233z" />
    <glyph glyph-name="maichattawalowrightthai" unicode="&#xf70d;" 
d="M-143 2040v-197h-414v197h-234v348h234v192h414v-192h233v-348h-233z" />
    <glyph glyph-name="thanthakhatlowrightthai" 
d="M4 2068q-160 0 -248 -56t-88 -173h-422q0 144 55 254.5t155 185t239.5 112.5t308.5 38v-361z" />
    <glyph glyph-name="thanthakhatlowrightthai" unicode="&#xf70e;" 
d="M4 2068q-160 0 -248 -56t-88 -173h-422q0 144 55 254.5t155 185t239.5 112.5t308.5 38v-361z" />
    <glyph glyph-name="maihanakatleftthai" 
d="M-1323 1831v500h401v-156h1090v-344h-1491z" />
    <glyph glyph-name="maihanakatleftthai" unicode="&#xf710;" 
d="M-1323 1831v500h401v-156h1090v-344h-1491z" />
    <glyph glyph-name="nikhahitleftthai" 
d="M-1163 2130q0 -21 9 -41t24.5 -35.5t35.5 -25t41 -9.5q23 0 43.5 9.5t35.5 25t23.5 35.5t8.5 41q0 23 -8.5 43t-23.5 35t-35.5 24t-43.5 9q-21 0 -41 -9t-35.5 -24t-24.5 -35t-9 -43zM-1434 2130q0 80 29.5 149.5t81 121t121 81t149.5 29.5q78 0 148 -29.5t122.5 -81
t83.5 -121t31 -149.5t-31 -149.5t-83.5 -121t-122.5 -81t-148 -29.5q-80 0 -149.5 29.5t-121 81t-81 121t-29.5 149.5z" />
    <glyph glyph-name="nikhahitleftthai" unicode="&#xf711;" 
d="M-1163 2130q0 -21 9 -41t24.5 -35.5t35.5 -25t41 -9.5q23 0 43.5 9.5t35.5 25t23.5 35.5t8.5 41q0 23 -8.5 43t-23.5 35t-35.5 24t-43.5 9q-21 0 -41 -9t-35.5 -24t-24.5 -35t-9 -43zM-1434 2130q0 80 29.5 149.5t81 121t121 81t149.5 29.5q78 0 148 -29.5t122.5 -81
t83.5 -121t31 -149.5t-31 -149.5t-83.5 -121t-122.5 -81t-148 -29.5q-80 0 -149.5 29.5t-121 81t-81 121t-29.5 149.5z" />
    <glyph glyph-name="maitaikhuleftthai" 
d="M-1585 2220q0 -17 3.5 -36.5t12.5 -36t25 -27.5t41 -11q37 0 61 37t21 99h286q-3 -62 17 -99t57 -37q40 0 60 38.5t14 97.5h303q4 -117 -17 -201t-65.5 -137.5t-109.5 -79t-148 -25.5q-46 0 -84.5 9t-70 25t-56.5 37t-43 44q-21 -23 -48.5 -44t-61 -37t-72.5 -25t-84 -9
q-77 0 -135 19.5t-101 52t-71.5 75t-46 88t-24.5 91t-7 84.5q0 108 41 190.5t108 138.5t151.5 84.5t170.5 28.5h901v-291h-873q-47 0 -77.5 -15.5t-47.5 -37.5t-23.5 -47t-6.5 -43z" />
    <glyph glyph-name="maitaikhuleftthai" unicode="&#xf712;" 
d="M-1585 2220q0 -17 3.5 -36.5t12.5 -36t25 -27.5t41 -11q37 0 61 37t21 99h286q-3 -62 17 -99t57 -37q40 0 60 38.5t14 97.5h303q4 -117 -17 -201t-65.5 -137.5t-109.5 -79t-148 -25.5q-46 0 -84.5 9t-70 25t-56.5 37t-43 44q-21 -23 -48.5 -44t-61 -37t-72.5 -25t-84 -9
q-77 0 -135 19.5t-101 52t-71.5 75t-46 88t-24.5 91t-7 84.5q0 108 41 190.5t108 138.5t151.5 84.5t170.5 28.5h901v-291h-873q-47 0 -77.5 -15.5t-47.5 -37.5t-23.5 -47t-6.5 -43z" />
    <glyph glyph-name="maiekupperleftthai" 
d="M-1155 3187h418v-566h-418v566z" />
    <glyph glyph-name="maiekupperleftthai" unicode="&#xf713;" 
d="M-1155 3187h418v-566h-418v566z" />
    <glyph glyph-name="maithoupperleftthai" 
d="M-1319 2617v250h-139v291h467v-242q83 3 142 23.5t96.5 53t55 75t17.5 90.5h344q0 -105 -42.5 -202.5t-130.5 -172.5t-224.5 -120.5t-323.5 -45.5h-262z" />
    <glyph glyph-name="maithoupperleftthai" unicode="&#xf714;" 
d="M-1319 2617v250h-139v291h467v-242q83 3 142 23.5t96.5 53t55 75t17.5 90.5h344q0 -105 -42.5 -202.5t-130.5 -172.5t-224.5 -120.5t-323.5 -45.5h-262z" />
    <glyph glyph-name="maitriupperleftthai" 
d="M-771 2617q0 42 -1 76t-6.5 58t-17 37.5t-32.5 13.5q-18 0 -30 -9.5t-19 -26t-9.5 -39.5t-2.5 -50h-211q0 27 -1.5 49.5t-7.5 39.5t-17.5 26.5t-30.5 9.5q-23 0 -35.5 -15t-18 -40.5t-6 -59t-0.5 -70.5h-286q-8 121 14.5 212.5t65.5 153t102 92t125 30.5q38 0 68.5 -10
t54.5 -26t42 -37t32 -42q18 21 40 42t47.5 37t55.5 26t65 10q87 0 145.5 -40t92.5 -108q11 14 22.5 35t20.5 46.5t13 54t1 57.5h312q0 -84 -29.5 -169.5t-79.5 -158.5t-117.5 -127.5t-142.5 -77.5h-218z" />
    <glyph glyph-name="maitriupperleftthai" unicode="&#xf715;" 
d="M-771 2617q0 42 -1 76t-6.5 58t-17 37.5t-32.5 13.5q-18 0 -30 -9.5t-19 -26t-9.5 -39.5t-2.5 -50h-211q0 27 -1.5 49.5t-7.5 39.5t-17.5 26.5t-30.5 9.5q-23 0 -35.5 -15t-18 -40.5t-6 -59t-0.5 -70.5h-286q-8 121 14.5 212.5t65.5 153t102 92t125 30.5q38 0 68.5 -10
t54.5 -26t42 -37t32 -42q18 21 40 42t47.5 37t55.5 26t65 10q87 0 145.5 -40t92.5 -108q11 14 22.5 35t20.5 46.5t13 54t1 57.5h312q0 -84 -29.5 -169.5t-79.5 -158.5t-117.5 -127.5t-142.5 -77.5h-218z" />
    <glyph glyph-name="maichattawaupperleftthai" 
d="M-766 2777v-201h-356v201h-246v303h246v201h356v-201h246v-303h-246z" />
    <glyph glyph-name="maichattawaupperleftthai" unicode="&#xf716;" 
d="M-766 2777v-201h-356v201h-246v303h246v201h356v-201h246v-303h-246z" />
    <glyph glyph-name="thanthakhatupperleftthai" 
d="M-430 2666q-80 0 -136.5 -14t-92.5 -42t-53 -71.5t-17 -101.5h-389q0 132 45.5 236t133 177t215.5 111.5t294 40.5v-336z" />
    <glyph glyph-name="thanthakhatupperleftthai" unicode="&#xf717;" 
d="M-430 2666q-80 0 -136.5 -14t-92.5 -42t-53 -71.5t-17 -101.5h-389q0 132 45.5 236t133 177t215.5 111.5t294 40.5v-336z" />
    <glyph glyph-name="maiekupperleftthai.alt11" 
d="M-1255 3187h418v-566h-418v566z" />
    <glyph glyph-name="maichattawaupperleftthai.alt11" 
d="M-866 2777v-201h-356v201h-246v303h246v201h356v-201h246v-303h-246z" />
    </font>
</defs>
</svg>
