<?xml version="1.0" standalone="no"?>
<!DOCTYPE svg PUBLIC "-//W3C//DTD SVG 1.1//EN" "http://www.w3.org/Graphics/SVG/1.1/DTD/svg11.dtd" >
<svg xmlns="http://www.w3.org/2000/svg">
<metadata></metadata>
<defs>
<font id="db_komol_xdemi" horiz-adv-x="0" >
<font-face units-per-em="2048" ascent="1638" descent="-410" />
<missing-glyph horiz-adv-x="400" />
<glyph unicode="&#x2b;&#x2d;" horiz-adv-x="862" d="M102 10v127h658v-127h-658zM102 447v127h266v245h126v-245h266v-127h-266v-245h-126v245h-266z" />
<glyph unicode="&#x2e;&#x2e;&#x2e;" horiz-adv-x="1134" d="M100 94q0 20 6 38t18 31t29 21t39 8t39 -8t28.5 -22t17 -31.5t5.5 -36.5q0 -22 -6.5 -40.5t-19 -32t-28.5 -21t-36 -7.5t-36.5 7.5t-29 20.5t-19.5 31q-7 20 -7 42zM476 94q0 20 6 38t18 31t29 21t39 8t39 -8t28 -22t17 -31.5t6 -36.5q0 -22 -7 -40.5t-19 -32t-28 -21.5 q-16 -7 -36 -7t-37 7.5t-29 20.5t-19 31q-7 20 -7 42zM852 94q0 20 6 38t18 31t29 21t39 8t39 -8t28 -22t17 -31.5t6 -36.5q0 -22 -7 -40.5t-19 -32t-28 -21.5q-16 -7 -36 -7t-37 7.5t-29 20.5t-19 31q-7 20 -7 42z" />
<glyph unicode="&#x3c;&#x3d;" horiz-adv-x="761" d="M71 455v124q154 68 305 135.5t305 135.5v-124l-475 -210l475 -220v-120q-78 36 -154 70t-151.5 69l-151 70t-153.5 70zM72 10v109h608v-109h-608z" />
<glyph unicode="&#x3e;&#x3d;" horiz-adv-x="761" d="M79 176v120l475 220l-475 210v124l610 -271v-124q-154 -70 -305.5 -139.5t-304.5 -139.5zM80 10v109h608v-109h-608z" />
<glyph unicode="&#xe4f;&#x22;" horiz-adv-x="1122" d="M64 424q0 66 17 124t49 107t77 87t100 64t119 40t134 14t134 -14t119 -40t100 -64t76.5 -86t49 -106t17.5 -125q0 -100 -36 -180.5t-100.5 -136.5t-156 -86t-203.5 -30q-114 0 -206 30t-156 86t-99 136t-35 180zM211 424q0 -82 26 -148t72.5 -112t110.5 -70.5t140 -24.5 t140 25t110 71.5t72 111.5t26 147q0 73 -25 136.5t-71 111t-110 75t-142 27.5t-142.5 -27.5t-110 -75t-71 -111t-25.5 -136.5zM306 422q0 54 20.5 97t55 73t80.5 46.5t98 16.5q50 0 96 -16.5t80.5 -46.5t55 -73t20.5 -97t-20.5 -97t-55 -73t-80.5 -46.5t-96 -16.5 q-51 0 -97.5 16.5t-81 46.5t-55 73t-20.5 97zM362 1182h132l-20 -208h-92zM425 426q0 -34 10 -61t28 -47t42.5 -31t54.5 -11t55 11t43 31t27.5 47t9.5 61q0 33 -9.5 60.5t-27.5 47t-42 30.5q-26 11 -56 11t-54.5 -11t-42.5 -30.5t-28 -47t-10 -60.5zM617 1182h133l-20 -208 h-92z" />
<glyph unicode="&#xe0e;&#xe3a;" horiz-adv-x="959" d="M82 132q0 43 13 71.5t34 45.5t48 25t55 8l-4 44v182l-121 86q29 40 67.5 71t86.5 53t105.5 34t126.5 12q84 0 147.5 -15t107 -39.5t67 -55t29.5 -62.5v-828q0 -29 -12 -48.5t-33 -27.5t-47 -2q-28 6 -56 28q-20 16 -35.5 28.5t-32.5 24t-37.5 23t-49.5 26.5 q-4 -29 -19.5 -54.5t-40.5 -44.5t-60 -29.5t-77 -10.5q-51 0 -84.5 10t-53.5 26.5t-29 38.5t-9 46q0 26 11.5 48t34 38t55.5 25t77 9q14 0 32.5 -2t37 -5t36.5 -8t31 -10q-2 17 -7 37q-5 22 -13 34l59 20q10 -24 16 -54t8 -58q46 -17 83 -36.5t71 -41.5l-4 166v628 q-4 22 -21 43t-45 37t-66 26t-82 10q-38 0 -76 -5.5t-72 -17.5t-64 -30q-30 -19 -52 -43l155 -98v-418q0 -20 -7.5 -38t-24 -31t-42 -21t-61.5 -8t-65 10t-49 28t-31 43t-11 57zM134 136q0 -24 7 -40.5t18 -27t23 -15t23 -4.5q10 0 18.5 2.5t8.5 14.5v168q-52 -4 -75 -29 t-23 -69zM235 -204q0 -10 4.5 -21t16.5 -20t33 -15t53 -6q30 0 55 8t43 21.5t29.5 32t13.5 40.5q-32 12 -67.5 19.5t-67.5 7.5q-34 0 -56 -7t-35 -17.5t-17.5 -22.5t-4.5 -20zM670 -471q0 23 10 43t31 33.5t51 13.5t50 -13.5t30 -33.5t9.5 -43t-10 -43t-29.5 -33.5 t-50 -13.5t-51 13.5t-31 33.5t-10 43z" />
<glyph unicode="&#xe0f;&#xe3a;" horiz-adv-x="959" d="M30 -217q0 28 10 49.5t29 36.5t46 23t58 8q34 0 66.5 -10t65.5 -28q0 16 -3 32t-10 32l58 18q14 -32 17 -63t-4 -59q16 -12 30.5 -26t30.5 -30l134 135l144 -128l-6 183v632q-4 22 -21 43t-45 37t-66 26t-82 10q-38 0 -76 -5.5t-72 -17.5t-64 -30q-30 -19 -52 -43 l155 -98v-418q0 -20 -7.5 -38t-24 -31t-42 -21t-61.5 -8t-65 10t-49 28t-31 43t-11 57q0 43 13 71.5t34 45.5t48 25t55 8l-4 44v182l-121 86q29 40 67.5 71t86.5 53t105.5 34t126.5 12q84 0 147.5 -15t107 -39.5t67 -55t29.5 -62.5v-829q0 -24 -8 -42t-22 -30.5t-32 -18.5 t-37 -5t-37 8t-34 23l-118 114l-132 -135q-24 26 -45 46.5t-40 37.5q-25 -40 -68 -65.5t-97 -25.5q-28 0 -54.5 7t-46 21.5t-31.5 35.5t-12 49zM92 -218q0 -12 6 -22.5t16 -18.5t25 -12.5t35 -4.5q42 0 72 20q31 20 46 54q-32 22 -60 33t-58 11q-22 0 -38 -5t-25.5 -14 t-14 -20t-4.5 -21zM134 136q0 -24 7 -40.5t18 -27t23 -15t23 -4.5q10 0 18.5 2.5t8.5 14.5v168q-52 -4 -75 -29t-23 -69zM670 -471q0 23 10 43t31 33.5t51 13.5t50 -13.5t30 -33.5t9.5 -43t-10 -43t-29.5 -33.5t-50 -13.5t-51 13.5t-31 33.5t-10 43z" />
<glyph unicode="&#xe0e;&#xe38;" horiz-adv-x="959" d="M82 132q0 43 13 71.5t34 45.5t48 25t55 8l-4 44v182l-121 86q29 40 67.5 71t86.5 53t105.5 34t126.5 12q84 0 147.5 -15t107 -39.5t67 -55t29.5 -62.5v-828q0 -29 -12 -48.5t-33 -27.5t-47 -2q-28 6 -56 28q-20 16 -35.5 28.5t-32.5 24t-37.5 23t-49.5 26.5 q-4 -29 -19.5 -54.5t-40.5 -44.5t-60 -29.5t-77 -10.5q-51 0 -84.5 10t-53.5 26.5t-29 38.5t-9 46q0 26 11.5 48t34 38t55.5 25t77 9q14 0 32.5 -2t37 -5t36.5 -8t31 -10q-2 17 -7 37q-5 22 -13 34l59 20q10 -24 16 -54t8 -58q46 -17 83 -36.5t71 -41.5l-4 166v628 q-4 22 -21 43t-45 37t-66 26t-82 10q-38 0 -76 -5.5t-72 -17.5t-64 -30q-30 -19 -52 -43l155 -98v-418q0 -20 -7.5 -38t-24 -31t-42 -21t-61.5 -8t-65 10t-49 28t-31 43t-11 57zM134 136q0 -24 7 -40.5t18 -27t23 -15t23 -4.5q10 0 18.5 2.5t8.5 14.5v168q-52 -4 -75 -29 t-23 -69zM235 -204q0 -10 4.5 -21t16.5 -20t33 -15t53 -6q30 0 55 8t43 21.5t29.5 32t13.5 40.5q-32 12 -67.5 19.5t-67.5 7.5q-34 0 -56 -7t-35 -17.5t-17.5 -22.5t-4.5 -20zM576 -509q0 27 9 49t26 38.5t41 25.5t56 9t55.5 -7.5t39 -20.5t23.5 -29t8 -34v-274h-126v113 q-26 -1 -49 5t-42 21t-30 41t-11 63zM626 -513q0 -38 19 -59.5t65 -25.5v138q0 12 -6 17t-16 5t-21 -4t-20 -13t-15 -23t-6 -35z" />
<glyph unicode="&#xe0f;&#xe38;" horiz-adv-x="959" d="M30 -217q0 28 10 49.5t29 36.5t46 23t58 8q34 0 66.5 -10t65.5 -28q0 16 -3 32t-10 32l58 18q14 -32 17 -63t-4 -59q16 -12 30.5 -26t30.5 -30l134 135l144 -128l-6 183v632q-4 22 -21 43t-45 37t-66 26t-82 10q-38 0 -76 -5.5t-72 -17.5t-64 -30q-30 -19 -52 -43 l155 -98v-418q0 -20 -7.5 -38t-24 -31t-42 -21t-61.5 -8t-65 10t-49 28t-31 43t-11 57q0 43 13 71.5t34 45.5t48 25t55 8l-4 44v182l-121 86q29 40 67.5 71t86.5 53t105.5 34t126.5 12q84 0 147.5 -15t107 -39.5t67 -55t29.5 -62.5v-829q0 -24 -8 -42t-22 -30.5t-32 -18.5 t-37 -5t-37 8t-34 23l-118 114l-132 -135q-24 26 -45 46.5t-40 37.5q-25 -40 -68 -65.5t-97 -25.5q-28 0 -54.5 7t-46 21.5t-31.5 35.5t-12 49zM92 -218q0 -12 6 -22.5t16 -18.5t25 -12.5t35 -4.5q42 0 72 20q31 20 46 54q-32 22 -60 33t-58 11q-22 0 -38 -5t-25.5 -14 t-14 -20t-4.5 -21zM134 136q0 -24 7 -40.5t18 -27t23 -15t23 -4.5q10 0 18.5 2.5t8.5 14.5v168q-52 -4 -75 -29t-23 -69zM576 -509q0 27 9 49t26 38.5t41 25.5t56 9t55.5 -7.5t39 -20.5t23.5 -29t8 -34v-274h-126v113q-26 -1 -49 5t-42 21t-30 41t-11 63zM626 -513 q0 -38 19 -59.5t65 -25.5v138q0 12 -6 17t-16 5t-21 -4t-20 -13t-15 -23t-6 -35z" />
<glyph unicode="&#xe0e;&#xe39;" horiz-adv-x="959" d="M82 132q0 43 13 71.5t34 45.5t48 25t55 8l-4 44v182l-121 86q29 40 67.5 71t86.5 53t105.5 34t126.5 12q84 0 147.5 -15t107 -39.5t67 -55t29.5 -62.5v-828q0 -29 -12 -48.5t-33 -27.5t-47 -2q-28 6 -56 28q-20 16 -35.5 28.5t-32.5 24t-37.5 23t-49.5 26.5 q-4 -29 -19.5 -54.5t-40.5 -44.5t-60 -29.5t-77 -10.5q-51 0 -84.5 10t-53.5 26.5t-29 38.5t-9 46q0 26 11.5 48t34 38t55.5 25t77 9q14 0 32.5 -2t37 -5t36.5 -8t31 -10q-2 17 -7 37q-5 22 -13 34l59 20q10 -24 16 -54t8 -58q46 -17 83 -36.5t71 -41.5l-4 166v628 q-4 22 -21 43t-45 37t-66 26t-82 10q-38 0 -76 -5.5t-72 -17.5t-64 -30q-30 -19 -52 -43l155 -98v-418q0 -20 -7.5 -38t-24 -31t-42 -21t-61.5 -8t-65 10t-49 28t-31 43t-11 57zM134 136q0 -24 7 -40.5t18 -27t23 -15t23 -4.5q10 0 18.5 2.5t8.5 14.5v168q-52 -4 -75 -29 t-23 -69zM235 -204q0 -10 4.5 -21t16.5 -20t33 -15t53 -6q30 0 55 8t43 21.5t29.5 32t13.5 40.5q-32 12 -67.5 19.5t-67.5 7.5q-34 0 -56 -7t-35 -17.5t-17.5 -22.5t-4.5 -20zM332 -500q0 27 9.5 48t27.5 36t43.5 22.5t57.5 7.5t54 -6.5t36 -18t21 -27.5t7 -34v-190 q2 -17 18 -27t40 -10q26 0 41 10.5t18 26.5v270h129v-266q-2 -28 -19 -47t-42 -30.5t-58 -16t-67 -4.5q-36 0 -68 4.5t-57 16t-41 30.5t-18 47v30q-26 -1 -49 5t-42 20.5t-30 39.5t-11 63zM382 -506q0 -38 20 -57t64 -23v132q0 9 -7 13t-15 4q-9 0 -19.5 -3t-20 -11 t-16 -21.5t-6.5 -33.5z" />
<glyph unicode="&#xe0f;&#xe39;" horiz-adv-x="959" d="M30 -217q0 28 10 49.5t29 36.5t46 23t58 8q34 0 66.5 -10t65.5 -28q0 16 -3 32t-10 32l58 18q14 -32 17 -63t-4 -59q16 -12 30.5 -26t30.5 -30l134 135l144 -128l-6 183v632q-4 22 -21 43t-45 37t-66 26t-82 10q-38 0 -76 -5.5t-72 -17.5t-64 -30q-30 -19 -52 -43 l155 -98v-418q0 -20 -7.5 -38t-24 -31t-42 -21t-61.5 -8t-65 10t-49 28t-31 43t-11 57q0 43 13 71.5t34 45.5t48 25t55 8l-4 44v182l-121 86q29 40 67.5 71t86.5 53t105.5 34t126.5 12q84 0 147.5 -15t107 -39.5t67 -55t29.5 -62.5v-829q0 -24 -8 -42t-22 -30.5t-32 -18.5 t-37 -5t-37 8t-34 23l-118 114l-132 -135q-24 26 -45 46.5t-40 37.5q-25 -40 -68 -65.5t-97 -25.5q-28 0 -54.5 7t-46 21.5t-31.5 35.5t-12 49zM92 -218q0 -12 6 -22.5t16 -18.5t25 -12.5t35 -4.5q42 0 72 20q31 20 46 54q-32 22 -60 33t-58 11q-22 0 -38 -5t-25.5 -14 t-14 -20t-4.5 -21zM134 136q0 -24 7 -40.5t18 -27t23 -15t23 -4.5q10 0 18.5 2.5t8.5 14.5v168q-52 -4 -75 -29t-23 -69zM332 -500q0 27 9.5 48t27.5 36t43.5 22.5t57.5 7.5t54 -6.5t36 -18t21 -27.5t7 -34v-190q2 -17 18 -27t40 -10q26 0 41 10.5t18 26.5v270h129v-266 q-2 -28 -19 -47t-42 -30.5t-58 -16t-67 -4.5q-36 0 -68 4.5t-57 16t-41 30.5t-18 47v30q-26 -1 -49 5t-42 20.5t-30 39.5t-11 63zM382 -506q0 -38 20 -57t64 -23v132q0 9 -7 13t-15 4q-9 0 -19.5 -3t-20 -11t-16 -21.5t-6.5 -33.5z" />
<glyph unicode="&#xd;" horiz-adv-x="579" />
<glyph unicode=" "  horiz-adv-x="400" />
<glyph unicode="&#x09;" horiz-adv-x="400" />
<glyph unicode="&#xa0;" horiz-adv-x="400" />
<glyph unicode="!" horiz-adv-x="449" d="M141 75q0 16 5.5 30.5t16.5 25.5t27 17t36 6t35.5 -6.5t26 -18t15.5 -25.5t5 -29q0 -18 -6 -32.5t-17.5 -25.5t-27 -17t-33.5 -6q-16 0 -31 6t-27 17t-18.5 26t-6.5 32zM146 980h158l-34 -734h-90z" />
<glyph unicode="&#x22;" horiz-adv-x="577" d="M86 980h156l-25 -317h-107zM336 980h156l-25 -317h-107z" />
<glyph unicode="#" horiz-adv-x="739" d="M44 264v107h134q6 43 12.5 84t12.5 85h-121v106h136l38 265h106l-38 -265h149l38 265h107l-40 -265h122v-106h-135q-6 -43 -12.5 -84.5t-12.5 -84.5h122v-107h-136l-37 -264h-107l38 264h-149q-4 -31 -9.5 -64.5t-10 -67.5l-9 -68t-8.5 -64h-107l37 264h-120zM286 371 h148l24 169h-148q-6 -43 -12 -84.5t-12 -84.5z" />
<glyph unicode="$" horiz-adv-x="838" d="M90 671q0 68 22 115.5t59 77.5t85 44t100 16v96h86v-100q48 -6 90 -20.5t70 -37.5l30 52h68v-236h-80q0 36 -15 65t-40 50.5t-57 36t-66 20.5v-312q36 -15 73 -31.5t71 -34.5t63.5 -39t51.5 -46t34.5 -55t12.5 -64q0 -66 -18 -118t-56 -88t-96 -54t-136 -20v-92h-86v95 q-40 6 -81 19.5t-83 39.5q-6 -13 -13 -26.5t-13 -25.5h-70v242h80q0 -30 13 -58t37 -52t57 -42t73 -26v352q-50 21 -97 45t-85 54t-61 68.5t-23 89.5zM212 734q0 -27 11 -49.5t30.5 -41.5t46 -35.5t56.5 -31.5v278q-32 -4 -58 -15.5t-45.5 -28t-30 -36.5t-10.5 -40zM442 57 q28 3 57 13.5t52 28t37 42t14 55.5q0 33 -12.5 59.5t-34 48.5t-51 40t-62.5 34v-321z" />
<glyph unicode="%" horiz-adv-x="1378" d="M124 678q0 52 18 95.5t49 75t75 49.5t94 18q60 0 104 -18t73 -49.5t44 -75t15 -95.5t-18 -95t-49 -75t-75 -50q-42 -17 -94 -17q-60 0 -104 17.5t-73.5 49.5t-44 75t-14.5 95zM250 678q0 -55 9 -90.5t24 -56.5t35 -29.5t42 -8.5t42 11.5t35 35t23.5 58t8.5 80.5 q0 55 -8.5 91t-23.5 57t-35 29.5t-42 8.5t-42 -12t-35 -35t-24 -58t-9 -81zM350 0l584 910h100l-585 -910h-99zM782 226q0 52 18 95t49.5 75t75 49.5t93.5 17.5q60 0 104.5 -17.5t74 -49.5t43.5 -75t14 -95t-17.5 -95.5t-49 -75t-74.5 -49.5t-95 -18q-60 0 -104 18t-73 49.5 t-44 75t-15 95.5zM909 226q0 -55 9 -91t24.5 -57t35.5 -30q18 -8 40 -8t42 12t35 35t24 58t9 81q0 55 -9 90.5t-24 56.5t-35 30t-42 9t-41 -12t-34.5 -35.5t-24.5 -58t-9 -80.5z" />
<glyph unicode="&#x26;" horiz-adv-x="1030" d="M134 250q0 92 57 168t180 137q-14 24 -27 52.5t-23 57t-16 55.5q-6 28 -6 50q0 47 16 85.5t44.5 66.5t66.5 43.5t83 15.5q42 0 78.5 -13.5t63.5 -39t42.5 -63t15.5 -85.5q0 -28 -8.5 -53t-22.5 -46t-31 -39.5t-34 -33t-33 -26.5t-26 -19l170 -317q15 16 27.5 38 t22.5 47.5t18 51.5t13 49t8 41t2 27l131 31q0 -28 -8 -59.5t-22 -64.5t-32 -66.5t-38 -64t-42 -56.5t-42 -45l52 -99h122v-76h-270l-32 52q-26 -18 -55 -29t-60 -18t-65 -9q-32 -3 -68 -3q-43 0 -78.5 11.5t-63.5 31.5t-49 46t-34.5 55t-20 58t-6.5 55zM285 306 q0 -38 15 -75.5t41.5 -67.5t63 -48.5t79.5 -18.5q10 0 24 0.5t29.5 2t32 5.5t30.5 10l-193 364q-23 -16 -45 -34t-39 -39t-27 -45q-11 -26 -11 -54zM442 819q0 -18 8 -42t19 -49t23 -48.5t20 -41.5q16 10 35 25.5t36 34.5t28 40.5t11 44.5q0 26 -6 46.5t-18 35.5t-30 23 t-39 8q-18 0 -33.5 -6t-27.5 -16.5t-19 -24.5t-7 -30z" />
<glyph unicode="'" horiz-adv-x="326" d="M86 980h156l-25 -322h-107z" />
<glyph unicode="(" horiz-adv-x="539" d="M124 421q0 90 11 178.5t39 169t75 151t119 126.5l87 -49q-56 -60 -90.5 -129t-53.5 -143.5t-25 -151.5t-6 -152q0 -82 7 -159.5t25.5 -150.5t51 -140t84.5 -129l-94 -49q-70 66 -114 138.5t-70 151.5t-36 163t-10 175z" />
<glyph unicode=")" horiz-adv-x="539" d="M84 997l88 49q71 -56 117.5 -126.5t74.5 -151t40 -168.5t12 -179q0 -90 -12 -174.5t-40 -163.5t-74 -151t-116 -139l-83 49q52 61 84.5 128.5t51.5 140.5t26 150.5t7 159.5q0 76 -6.5 152.5t-25.5 151t-53.5 144t-90.5 128.5z" />
<glyph unicode="*" horiz-adv-x="618" d="M80 776l37 117l144 -61l-13 156h122l-15 -156q16 7 34.5 14.5t37.5 15.5t37 16l36 16l38 -118l-154 -36l105 -119l-99 -73l-81 136l-81 -136q-14 10 -26 19l-24 18l-24 18t-26 18l106 119q-18 4 -37 9t-39 9.5l-40 9t-38 8.5z" />
<glyph unicode="+" horiz-adv-x="862" d="M102 277v127h266v265h126v-265h266v-127h-266v-265h-126v265h-266z" />
<glyph unicode="," horiz-adv-x="418" d="M115 -102q24 10 40.5 22t26.5 26t15.5 28t7.5 29q-26 -1 -43 7.5t-26.5 22t-13.5 29.5t-4 32q0 22 7 40t20 30.5t30 19t36 6.5q18 0 35.5 -7t31 -21t21.5 -35t8 -48q0 -34 -5.5 -70.5t-21.5 -70.5t-46 -62t-78 -45z" />
<glyph unicode="-" horiz-adv-x="803" d="M102 277v127h598v-127h-598z" />
<glyph unicode="." horiz-adv-x="418" d="M118 94q0 20 6 38t18 31t29 21t39 8t39 -8t28 -22t17 -31.5t6 -36.5q0 -22 -7 -40.5t-19 -32t-28 -21.5q-16 -7 -36 -7t-37 7.5t-29 20.5t-19 31q-7 20 -7 42z" />
<glyph unicode="/" horiz-adv-x="530" d="M10 -37l352 1051h158l-350 -1051h-160z" />
<glyph unicode="0" horiz-adv-x="807" d="M86 456q0 62 8.5 120.5t25 110t42.5 95t61 74.5t80 48.5t101 17.5q55 0 100 -17.5t80.5 -48.5t61 -74.5t42 -95t25 -110t8.5 -120.5t-8.5 -121t-25 -111t-42 -95t-61 -74t-80.5 -48.5t-100 -17.5q-56 0 -101 17.5t-80 48.5t-61 74t-42.5 95t-25 111t-8.5 121zM262 320 q0 -78 11 -129t30 -81.5t45 -43t56 -12.5t56 12.5t45 43t30 81.5t11 129v270q0 78 -11 129.5t-30 82t-45 43t-56 12.5t-56 -12.5t-45 -43t-30 -82t-11 -129.5v-270z" />
<glyph unicode="1" horiz-adv-x="807" d="M160 706q18 12 41 28t47 34t48.5 38t47 38.5t42.5 36t34 31.5h72v-836h156v-76h-466v76h156v666q-30 -26 -61 -50t-65 -45z" />
<glyph unicode="2" horiz-adv-x="807" d="M80 10q0 8 8 13l97 109q51 58 97 108.5t86 96.5t72 89t55 85.5t35 84.5t12 87q0 32 -9.5 63t-29 56t-49.5 40.5t-69 15.5q-26 0 -46.5 -8t-36.5 -22t-28 -32t-20 -38t-12 -41t-4 -39h-149q0 62 22.5 108t64 76t100 45t128.5 15q62 0 118 -15t98 -47t66.5 -81t24.5 -119 q0 -35 -12 -70.5t-32.5 -70.5t-47.5 -69t-57 -66t-61 -61t-60 -54l-145 -133h414v-136h-618q-7 0 -9.5 3t-2.5 7z" />
<glyph unicode="3" horiz-adv-x="807" d="M63 273h141q0 -20 3 -43.5t11 -48t21.5 -47.5t32 -40.5t43.5 -28.5t57 -11q31 0 55.5 10t42.5 27t31 39t21 46t11 48t3 46q0 42 -5 76.5t-24 60t-54 39.5t-93 14h-29v68q15 -1 32 -2.5t39 -1.5q40 0 66 14t40.5 38t20 56t5.5 67q0 32 -9 60.5t-27 50t-45 34.5t-63 13 q-28 0 -49 -9.5t-37 -25.5t-27.5 -36t-18.5 -42t-10.5 -43.5t-3.5 -39.5h-132q0 70 21 119.5t60.5 80.5t95 46t123.5 15q56 0 106 -13.5t87 -41t58.5 -70.5t21.5 -101q0 -74 -38.5 -126.5t-114.5 -73.5q44 -8 77 -29.5t54.5 -52t32 -68.5t10.5 -78q0 -70 -25 -123t-69.5 -87 t-105 -51.5t-131.5 -17.5q-158 0 -235 71.5t-77 212.5z" />
<glyph unicode="4" horiz-adv-x="807" d="M65 228v17l407 667h146v-588h103v-96h-103v-228h-152v228h-401zM198 324h268v440l-15 -26z" />
<glyph unicode="5" horiz-adv-x="807" d="M56 261h158q-4 -20 -2 -43.5t9 -46.5t19 -44t29 -37t39 -26t50 -10q44 0 77 20.5t53.5 52.5t30.5 71.5t10 75.5q0 46 -11.5 87t-36.5 72t-63 49t-92 18q-50 0 -91.5 -15t-82.5 -42l-18 16l124 453h437l-39 -129h-326q-18 0 -25 -7t-11 -17l-60 -215q19 9 37.5 15.5 t39.5 10.5t45 6t53 2q68 0 122 -19t91.5 -56t57.5 -91q19 -54 19 -122q0 -74 -25.5 -130t-70.5 -94t-107 -58q-60 -19 -134 -19q-64 0 -120 18t-97 52.5t-65 85.5t-24 116z" />
<glyph unicode="6" horiz-adv-x="807" d="M80 426q0 48 5.5 103t19 110t37.5 106t62.5 90t92 63t127.5 24q58 0 104 -14t79 -40t51 -64t20 -86h-138q0 24 -7 49t-22 45t-38 32.5t-54 12.5q-29 0 -52.5 -15t-42 -40.5t-32 -58.5t-22.5 -69t-13.5 -73t-6.5 -71q9 13 26 29.5t42 30.5t58.5 23.5t75.5 9.5 q62 0 113 -22.5t87.5 -61.5t56.5 -93t20 -116q0 -82 -23 -146t-65 -107t-100.5 -65.5t-130.5 -22.5q-68 0 -118 19.5t-87 52.5t-61 76t-38 92t-20 99.5t-6 97.5zM250 294q0 -58 11 -103t31.5 -75t49 -46t63.5 -16q34 0 63 16.5t50.5 48t33.5 76.5t12 103t-12 103t-33 76 t-50 46.5t-64 15.5q-34 0 -62 -16.5t-48.5 -48t-32.5 -77t-12 -103.5z" />
<glyph unicode="7" horiz-adv-x="807" d="M75 782v129h644l9 -16l-375 -895h-171v16l360 751l8 15h-475z" />
<glyph unicode="8" horiz-adv-x="807" d="M83 252q0 40 10 77.5t30.5 69t52.5 53.5t75 30q-33 8 -61 25.5t-48 42t-31.5 56.5t-11.5 70q0 63 24 109t65.5 76.5t97 45.5t118.5 15t118 -15t96.5 -45.5t65.5 -76.5t24 -109q0 -38 -11.5 -70t-32 -56.5t-48 -42t-60.5 -25.5q43 -8 74.5 -30t52.5 -53.5t31 -69.5 q10 -37 10 -77q0 -55 -20 -103t-60.5 -83.5t-100.5 -55.5q-59 -21 -139 -21t-140 20.5t-100.5 56t-60.5 83t-20 103.5zM253 254q0 -40 9.5 -76.5t28.5 -64t47 -43.5t66 -16q36 0 64 16t47 43.5t29 64t10 76.5q0 36 -9.5 72t-28 64.5t-46.5 46.5t-66 18t-67 -18t-47.5 -46.5 t-27.5 -64.5t-9 -72zM259 688q0 -38 11.5 -69.5t31.5 -54t46 -35.5t56 -13t56 13t45 35.5t31 54t12 69.5q0 27 -8 56.5t-25 54.5t-44 41.5t-67 16.5t-67.5 -16.5t-45 -42.5t-25 -55t-7.5 -55z" />
<glyph unicode="9" horiz-adv-x="807" d="M79 580q0 82 23 146t65 107.5t100.5 66t130.5 22.5q68 0 118 -19.5t87 -52.5t61 -76.5t38 -92t20 -99t6 -98.5t-5.5 -103t-19 -110t-37.5 -106t-62.5 -90t-92 -62.5t-127.5 -23.5q-58 0 -104 13.5t-79 40t-51 64t-20 86.5h138q0 -24 7 -49t22 -45t38 -32.5t54 -12.5 q29 0 52.5 15t42 40t32 58t22.5 69.5t13.5 73.5t6.5 70q-9 -13 -26 -29t-42 -30.5t-58.5 -23.5t-75.5 -9q-62 0 -113 22t-88 61.5t-56.5 93t-19.5 115.5zM244 612q0 -58 12 -103t33 -75.5t50 -46t64 -15.5q34 0 62 16t48.5 48t32.5 77t12 104q0 58 -11 102.5t-31.5 75 t-49 46t-63.5 15.5q-34 0 -63 -16t-50.5 -47.5t-33.5 -77t-12 -103.5z" />
<glyph unicode=":" horiz-adv-x="438" d="M128 96q0 20 6 38t18 31t29 21t39 8t39 -8t28 -22t17 -31.5t6 -36.5q0 -22 -7 -40.5t-19 -32t-28 -21t-36 -7.5t-37 7.5t-29 20.5t-19 31q-7 20 -7 42zM128 598q0 20 6 38.5t18 32t29 22t39 8.5t39 -8.5t28 -22.5t17 -32t6 -36q0 -22 -7 -40.5t-19 -32t-28 -21.5t-36 -8 t-37 7t-29 21t-19 32t-7 40z" />
<glyph unicode=";" horiz-adv-x="438" d="M125 -102l41 -67q48 17 78 45t46 62t21.5 70.5t5.5 70.5q0 27 -8 48t-21.5 35t-30.5 21t-36 7t-36 -6.5t-30 -19t-20 -30.5t-7 -40q0 -16 4 -32t13.5 -29.5t26.5 -22t43 -7.5q-2 -14 -7.5 -28.5t-15.5 -28.5t-26.5 -26t-40.5 -22zM128 598q0 20 6 38.5t18 32t29 22 t39 8.5t39 -8.5t28 -22.5t17 -32t6 -36q0 -22 -7 -40.5t-19 -32t-28 -21.5t-36 -8t-37 7t-29 21t-19 32t-7 40z" />
<glyph unicode="&#x3c;" horiz-adv-x="761" d="M71 285v124q154 68 305 135.5t305 135.5v-124l-475 -210l475 -220v-120q-78 36 -154 70t-151.5 69l-151 70t-153.5 70z" />
<glyph unicode="=" horiz-adv-x="860" d="M102 154v125h656v-125h-656zM102 402v126h656v-126h-656z" />
<glyph unicode="&#x3e;" horiz-adv-x="761" d="M80 6v120l475 220l-475 210v124l610 -271v-124q-154 -70 -305 -139.5t-305 -139.5z" />
<glyph unicode="?" horiz-adv-x="710" d="M92 726q-3 48 9 95t43.5 83t84.5 58t132 22q60 0 108.5 -15.5t83.5 -45t53.5 -71.5t18.5 -94q0 -35 -11.5 -65.5t-30 -59.5t-43 -58t-52.5 -59q-10 -12 -21 -27t-20 -33t-15 -38t-6 -43v-103h-148l1 98q0 28 5.5 52t16.5 48t27 48t38 50q22 28 41 50t34 42.5t24 42.5 t9 50t-8 53.5t-23 44.5t-35 30t-46 11q-28 0 -50 -13t-37 -35t-23 -52t-6 -66h-154zM253 84q0 20 7.5 39t20.5 33t32 22t43 8t43 -8.5t32 -23t20 -32.5t7 -38q0 -22 -7.5 -41t-21 -32t-32.5 -20t-41 -7q-48 0 -75.5 26t-27.5 74z" />
<glyph unicode="@" horiz-adv-x="1158" d="M85 468q0 77 17 144.5t48.5 124.5t76.5 103t101 77t121 48t137 17q68 0 130.5 -13t116 -38t96.5 -61.5t73 -83t47 -102.5t17 -120q0 -39 -8 -79.5t-23 -78.5t-37 -71t-51.5 -58t-66 -39.5t-79.5 -14.5q-35 0 -59 11.5t-39 27t-21.5 31t-6.5 23.5q-4 -9 -18.5 -24 t-36.5 -29t-50.5 -24.5t-62.5 -10.5q-28 0 -55 8t-48.5 27t-34.5 51t-13 82q0 34 8 73.5t23 78t39 74.5t56 63t72 43.5t89 16.5q24 0 42.5 -7.5t32.5 -18.5t22 -24t10 -23l14 50h96l-76 -294q-3 -11 -6 -20.5t-5.5 -19.5t-4 -19.5t-1.5 -20.5q0 -26 12.5 -42t40.5 -16 q30 0 58 21t49.5 58t34 86t12.5 107q0 72 -26 135t-75.5 108t-122 71t-164.5 26q-46 0 -91 -10.5t-86.5 -33t-77 -58.5t-62 -86t-41.5 -114t-15 -146q0 -56 14.5 -105t41.5 -91t63 -75t79 -56t91.5 -36t98.5 -13q48 0 88.5 6t75 15.5t65.5 22.5l62 28q2 -10 3 -18t2.5 -15.5 l3 -15l3.5 -17.5q-34 -18 -69 -33.5t-73 -27t-78 -18.5t-82 -7q-96 0 -172 22t-133 58t-97.5 83.5t-66 100t-37 105.5t-11.5 101zM468 402q0 -53 17 -77.5t60 -24.5q18 0 38 13t38.5 35t35 50t29.5 59t21.5 61.5t10.5 57.5q4 50 -14 76t-56 26q-33 0 -65.5 -18.5t-58 -54 t-41 -86.5t-15.5 -117z" />
<glyph unicode="A" horiz-adv-x="1102" d="M32 0v76h76l372 904h96l398 -904h90v-76h-380v76h117l-83 192h-446l-78 -192h114v-76h-276zM302 343h384l-184 431l-12 30z" />
<glyph unicode="B" horiz-adv-x="935" d="M54 0v76h117v828h-117v76h460q66 0 123 -15.5t100 -46t67 -75t24 -101.5q0 -42 -14.5 -79.5t-42 -66t-65.5 -47t-86 -21.5q22 -2 48 -10t53 -22t52 -35t45 -47t32 -59t12 -71q0 -48 -14 -87t-37.5 -70.5t-56 -55t-70 -39.5t-79 -24t-83.5 -8h-468zM326 76h131q51 0 94 9 t75 32t50 64t18 103q0 50 -17.5 87.5t-46 62.5t-67 37.5t-80.5 12.5h-157v-408zM326 557h180q40 0 71 13.5t52.5 36.5t33 55t11.5 68q0 40 -13 72.5t-36 55t-55 34.5t-68 12h-176v-347z" />
<glyph unicode="C" horiz-adv-x="1076" d="M88 490q0 66 13 128.5t39 118t65 102.5t90.5 81t116 53t140.5 19q39 0 75.5 -4.5t70 -16t64.5 -29.5q32 -20 62 -48l48 86h60v-284h-68q-10 48 -35 88t-61 69.5t-83 46t-103 16.5q-57 0 -102.5 -18t-81 -49t-61 -73t-42.5 -90t-25 -99t-8 -101q0 -58 13 -112t36.5 -101 t57 -86t73.5 -67t87 -43.5t98 -15.5q86 0 158.5 41.5t132.5 123.5l68 -59q-61 -61 -116 -96.5t-105.5 -54t-95.5 -23.5t-85 -5q-88 0 -160 19t-127 53t-94.5 81t-65 103t-37.5 118t-12 128z" />
<glyph unicode="D" horiz-adv-x="1071" d="M54 0v76h117v828h-117v76h410q122 0 219 -34.5t164 -98.5t102.5 -154.5t35.5 -202.5q0 -106 -35.5 -196t-102.5 -155t-164 -102t-219 -37h-410zM326 76h123q70 0 124.5 18t94.5 48.5t67 71t44 86t24 93t7 93.5q0 96 -22.5 173.5t-69 132t-116.5 83.5t-164 29h-112v-828z " />
<glyph unicode="E" horiz-adv-x="925" d="M54 0v76h117v828h-117v76h764v-198h-80v105h-412v-329h366v98h80v-276h-80v106h-366v-392h435v108h80v-202h-787z" />
<glyph unicode="F" horiz-adv-x="876" d="M54 0v76h117v828h-117v76h760v-198h-80v105h-408v-331h374v102h80v-280h-80v110h-374v-412h140v-76h-412z" />
<glyph unicode="G" horiz-adv-x="1141" d="M88 490q0 66 13 128.5t39 118t66 102.5t95 81t124 53t153 19q48 0 87 -6.5t73.5 -18t64 -28t56.5 -36.5l36 77h57v-274h-65q-13 51 -40 90t-65 65.5t-85 39.5t-101 13q-76 0 -137.5 -30.5t-105 -86t-67.5 -133t-24 -171.5q0 -50 9.5 -102.5t28 -100.5t47.5 -90.5t67 -74 t86 -49.5q46 -18 104 -18q38 0 77.5 10t72 29t53.5 48t21 68v143h-132v77h286v-433h-53l-51 76q-30 -21 -60.5 -37.5t-66 -27.5t-76.5 -17t-92 -6q-86 0 -156.5 19t-125.5 53t-95 81t-66.5 103t-39.5 118q-12 62 -12 128z" />
<glyph unicode="H" horiz-adv-x="1181" d="M54 0v76h117v828h-117v76h388v-76h-116v-346h530v346h-117v76h388v-76h-117v-828h117v-76h-388v76h117v410h-530v-410h116v-76h-388z" />
<glyph unicode="I" horiz-adv-x="525" d="M68 0v76h117v828h-117v76h388v-76h-116v-828h116v-76h-388z" />
<glyph unicode="J" horiz-adv-x="723" d="M34 260h150v-32q0 -78 27.5 -120.5t78.5 -42.5q25 0 44.5 10t33.5 26.5t21 36.5t7 42v724h-116v76h388v-76h-117v-636q0 -78 -16.5 -131t-49 -86t-81 -48t-111.5 -15q-68 0 -116.5 18t-80.5 52t-47 85t-15 117z" />
<glyph unicode="K" horiz-adv-x="1027" d="M54 0v76h117v828h-117v76h386v-76h-114v-398l443 398h-114v76h321v-76h-98l-305 -276l330 -552h79v-76h-368v76h102l-262 445l-128 -115v-330h114v-76h-386z" />
<glyph unicode="L" horiz-adv-x="880" d="M54 0v76h117v828h-117v76h404v-76h-132v-810h376v119h104v-213h-752z" />
<glyph unicode="M" horiz-adv-x="1308" d="M54 0v76h112v828h-112v76h280l303 -704l25 -56l314 760h277v-76h-112v-828h112v-76h-382v76h115v738l-15 -36l-311 -760h-71l-343 784l-4 12v-738h116v-76h-304z" />
<glyph unicode="N" horiz-adv-x="1152" d="M54 0v76h114v828h-114v76h258l597 -754v678h-117v76h305v-76h-117v-916h-76l-662 834v-746h116v-76h-304z" />
<glyph unicode="O" horiz-adv-x="1143" d="M88 490q0 66 14.5 128.5t43 118t69.5 102.5t95 81t119 53t143 19q77 0 142.5 -19t119 -53t95 -81t69.5 -102.5t43 -118t15 -128.5t-15 -128t-43 -118t-69.5 -103t-95 -81t-119.5 -53t-142 -19t-142 19t-120 53t-95 81t-69.5 103t-43 118t-14.5 128zM264 490 q0 -96 16.5 -165t43 -117t59.5 -78t67 -46t66 -21t56 -5t56 5t66 21t67 46t59 78t42 117t16 165t-16 165.5t-41.5 118t-58.5 77.5t-67 45t-66.5 21.5t-56.5 5.5q-18 0 -41 -2.5t-47.5 -10.5t-50.5 -22t-50.5 -37t-46 -55t-37.5 -76t-25.5 -101t-9.5 -129z" />
<glyph unicode="P" horiz-adv-x="912" d="M54 0v76h117v828h-117v76h388q84 0 154.5 -20t122 -60t80.5 -97t29 -131q0 -75 -29.5 -132.5t-81.5 -96t-122.5 -58t-152.5 -19.5h-116v-290h138v-76h-410zM326 442h142q51 0 88 18.5t61 49.5t35.5 71.5t11.5 82.5q0 50 -13 94t-39 76.5t-64 51t-88 18.5h-134v-462z" />
<glyph unicode="Q" horiz-adv-x="1143" d="M88 490q0 66 14.5 128.5t43 118t69.5 102.5t95 81t119 53t143 19q77 0 142.5 -19t119 -53t95 -81t69.5 -102.5t43 -118t15 -128.5q0 -63 -14 -123t-39.5 -114t-64 -100.5t-87.5 -80.5q14 -19 27.5 -35.5t26.5 -29.5t25 -21t22 -10q10 -1 22 3t24 10.5t22 13.5q12 7 20 15 l42 -54q-17 -21 -36.5 -40t-40.5 -32.5t-44 -21.5q-18 -5 -38 -5h-11q-24 2 -46 15.5t-43 34.5t-41 47l-40 54q-38 -13 -81 -20.5t-89 -7.5q-76 0 -142 19t-120 53t-95 81t-69.5 103t-43 118t-14.5 128zM264 490q0 -96 16.5 -165t43 -117t59.5 -78t67 -46t66 -21t56 -5 t55.5 5t65.5 21q-12 16 -24 30.5t-23.5 25.5t-21.5 18q-10 6 -20 8q-12 1 -22.5 -2.5t-20 -9.5t-19.5 -15t-20 -19l-52 48q16 21 34 41.5t39 36.5t45 25t54 7q19 -2 37.5 -12t37 -26.5t36 -37t35.5 -44.5q20 24 36 56t28 73t19 91t7 112q0 96 -16 165.5t-41.5 118 t-58.5 77.5t-67 45t-66.5 21.5t-56.5 5.5q-18 0 -41 -2.5t-47.5 -10.5t-50.5 -22t-50.5 -37t-46 -55t-37.5 -76t-25.5 -101t-9.5 -129z" />
<glyph unicode="R" horiz-adv-x="950" d="M54 0v76h117v828h-117v76h410q78 0 147 -20t120 -60t80 -97t29 -131q0 -39 -9.5 -71.5t-25.5 -58.5t-37.5 -47t-46.5 -37t-51 -27t-50 -19l156 -250q12 -20 23 -36.5t22 -28t23 -17.5t26 -6q9 0 17.5 1t17.5 1v-76q-10 -2 -18.5 -4t-18.5 -3.5t-23 -3t-31 -1.5 q-22 0 -40.5 1.5t-34 6t-29.5 13.5t-28.5 24t-30 36.5t-33.5 52.5l-94 157q-32 54 -58 79t-48 25h-92v-307h116v-76h-388zM326 466h140q57 0 97.5 15.5t66.5 44t38 66.5t12 84q0 47 -12.5 88.5t-38.5 72.5t-66.5 49t-96.5 18h-140v-438z" />
<glyph unicode="S" horiz-adv-x="916" d="M106 712q0 76 25 129t67 86.5t96 48.5q56 16 114 16q34 0 70 -4.5t68.5 -13t60.5 -21.5q27 -13 47 -30l32 57h70v-248h-80q0 30 -11 56t-29 47t-43 37.5t-53 27.5t-58 16.5t-59 6.5q-40 0 -75 -12t-61 -31t-40.5 -42.5t-14.5 -47.5q0 -34 16 -62t43.5 -51.5t64.5 -43 t78.5 -37.5t85.5 -36t85 -37t78 -41.5t65 -50t44 -60.5t16 -74q0 -72 -20 -129.5t-62 -97t-106 -61t-151 -21.5q-31 0 -63 3t-64 11t-64 21t-66 35l-28 -58h-72v256h80q0 -37 20 -72.5t56 -63.5t84 -45t106 -17q32 0 67 10t64.5 29t48.5 48t19 67t-15.5 68t-42 55t-62 45 t-74.5 38t-81 35t-82 36t-75 40t-61.5 48t-42 60t-15.5 75z" />
<glyph unicode="T" horiz-adv-x="964" d="M46 780v200h872v-200h-85v112h-273v-816h116v-76h-388v76h116v816h-273v-112h-85z" />
<glyph unicode="U" horiz-adv-x="1124" d="M54 904v76h388v-76h-116v-598q0 -64 22 -109t60 -75t88 -43.5t105 -13.5q35 0 70 5.5t67 18t59 34.5t48 55.5t32 80t11 108.5v537h-116v76h310v-76h-117v-548q0 -82 -19.5 -150t-63.5 -116t-116 -75t-178 -27q-114 0 -193.5 18t-129 59t-72 107t-22.5 163v569h-117z" />
<glyph unicode="V" horiz-adv-x="1145" d="M42 980h388l4 -76h-120l296 -690l24 -58l310 748h-119v76h283v-76h-76l-390 -916h-100l-401 916h-95z" />
<glyph unicode="W" horiz-adv-x="1455" d="M42 904v76h376v-76h-124l194 -649l14 -51l238 776h84l214 -689l21 -72l201 685h-117v76h280v-76h-83l-276 -916h-99l-223 733l-226 -733h-106l-284 916h-84z" />
<glyph unicode="X" horiz-adv-x="1119" d="M42 0v76h106l316 415l-313 413h-99v76h406v-76h-107l213 -282l214 282h-104v76h336v-76h-128l-268 -350l360 -478h104v-76h-410v76h110l-264 348l-265 -348h112v-76h-319z" />
<glyph unicode="Y" horiz-adv-x="1039" d="M42 904v76h416v-76h-130l239 -445l9 -19l252 464h-126v76h295v-76h-81l-308 -568v-260h117v-76h-388v76h117v258l-314 570h-98z" />
<glyph unicode="Z" horiz-adv-x="1000" d="M81 0v22q0 2 0.5 4t2.5 5l6 9t10 16l548 821l6 7h-442v-106h-95v202h787v-16l-571 -860l-5 -8h480v120h95v-216h-822z" />
<glyph unicode="[" horiz-adv-x="478" d="M116 -259v1351h287v-104h-131v-1141h131v-106h-287z" />
<glyph unicode="\" horiz-adv-x="530" d="M10 1014h158l352 -1051h-160z" />
<glyph unicode="]" horiz-adv-x="478" d="M75 -153h131v1141h-131v104h287v-1351h-287v106z" />
<glyph unicode="^" horiz-adv-x="703" d="M75 478l218 508h114l221 -508h-118l-160 370l-158 -370h-117z" />
<glyph unicode="_" horiz-adv-x="709" d="M0 -122h710v-95h-710v95z" />
<glyph unicode="`" horiz-adv-x="413" d="M17 990h219l136 -244h-140z" />
<glyph unicode="a" horiz-adv-x="823" d="M94 204q0 55 17 100t47.5 76.5t73 49t94.5 17.5q32 0 63.5 -4.5t59.5 -12t50 -18.5q21 -10 33 -22v172q0 16 -8.5 29t-22.5 22t-31.5 14.5t-34.5 9t-32 4.5t-25 1q-39 0 -69.5 -7t-54.5 -20t-40 -30t-25 -37h-5l-70 86q18 13 44 26.5t61 24.5t78 18t96 7q36 0 71.5 -2.5 t67.5 -10t58.5 -22t46 -38t30.5 -56.5t11 -79v-430h83v-72h-221v68q-16 -20 -40 -35t-54.5 -25t-65.5 -15q-36 -5 -72 -5q-47 0 -86.5 16t-67.5 45t-44 68t-16 87zM238 217q0 -31 12 -56.5t32.5 -44t48 -28.5t57.5 -10q20 0 45 4.5t47 12t37 19t15 25.5v169q0 12 -13 22.5 t-33.5 18.5t-44.5 13q-23 4 -45 4q-32 0 -61 -10t-50 -29.5t-34 -47.5t-13 -62z" />
<glyph unicode="b" horiz-adv-x="873" d="M58 1014v68h240v-475q10 17 29 35.5t46.5 33.5t62 24.5t76.5 9.5q54 0 105.5 -20t92 -63t64.5 -111t24 -162q0 -75 -21.5 -141.5t-63 -116.5t-102 -79t-138.5 -29q-44 0 -77.5 11t-59.5 29t-45 40t-33 46l-61 -117h-53q2 16 3.5 32.5t3 40.5t2 58t0.5 85v801h-95z M298 336q0 -74 13.5 -128.5t36 -90t53.5 -52.5t65 -17q38 0 70 17.5t56 54t37.5 93.5t13.5 134q0 85 -14.5 139t-38.5 85t-56 43t-68 12q-16 0 -35 -6t-37 -20t-35.5 -36t-31 -54t-21.5 -75t-8 -99z" />
<glyph unicode="c" horiz-adv-x="783" d="M82 345q0 48 9 93.5t27.5 86.5t45 75t62.5 58.5t80 38t96 13.5q29 0 58.5 -6t54.5 -16.5t44 -23t27 -22.5l-6 60h81l15 -240h-76l-4 28q-4 36 -18 63.5t-35 45t-49 26.5t-58 9q-20 0 -42.5 -6t-44.5 -19t-42.5 -36t-35.5 -56.5t-24 -79.5q-9 -47 -9 -107q0 -53 9 -93.5 t24 -71.5t36 -52t43.5 -33.5t46 -18t45.5 -5.5q30 0 60 7t55 20t45 31t34 38h8l49 -64q-26 -24 -56.5 -43t-64.5 -31t-70 -19q-38 -7 -74 -7q-85 0 -149.5 26t-108 72t-66 112t-22.5 147z" />
<glyph unicode="d" horiz-adv-x="873" d="M75 345q0 82 20.5 149.5t58 115.5t89 74t113.5 26q36 0 69 -6t61 -18.5t51 -30t38 -39.5v399h-95v67h240v-1014h95v-68h-240v75q-14 -16 -34.5 -31.5t-49.5 -27.5t-66 -20t-82 -8q-48 0 -95.5 19t-86 61t-62.5 110t-24 167zM230 334q0 -46 8 -83t22 -66t33 -51t39.5 -36 t42 -21t41.5 -7q40 0 71 18.5t52.5 52t33 80.5t11.5 104v93q0 38 -8 68t-21 52t-30 38t-36 26t-38.5 14t-36.5 4q-40 0 -73 -17t-58 -53t-39 -90t-14 -126z" />
<glyph unicode="e" horiz-adv-x="819" d="M82 354q0 86 24 152.5t67.5 112t105 68.5t137.5 23q66 0 123.5 -23t99.5 -65t66 -102t24 -134q0 -20 -1 -35.5t-2 -28.5h-486q0 -60 15 -108t44 -82t71 -52.5t96 -18.5q32 0 61 10.5t54 29.5t45.5 45t36.5 57h9l64 -59q-18 -26 -44 -53t-61 -50t-82 -38t-109 -15 q-98 0 -166 27t-110.5 75.5t-61.5 115.5q-20 68 -20 148zM240 404h340q0 22 -3 47.5t-10.5 51.5t-19 50.5t-29.5 43t-42.5 30t-56.5 11.5q-33 0 -59 -11.5t-46 -30t-34 -43t-23 -50.5t-13 -51.5t-4 -47.5z" />
<glyph unicode="f" horiz-adv-x="486" d="M69 0v68h95v563h-95v68h95v207q0 40 10.5 73t32 57t54.5 37.5t79 13.5q27 0 47.5 -4t38 -10.5t31.5 -16.5q15 -9 27 -19l-50 -74h-8q-16 14 -33 19.5t-37 5.5q-17 0 -30.5 -6t-22.5 -15.5t-14 -23t-5 -27.5q0 -18 7 -32t19 -22v-163h117v-68h-117v-563h102v-68h-343z" />
<glyph unicode="g" horiz-adv-x="886" d="M82 350q0 74 20 139t57 114.5t92 78t125 28.5q40 0 73 -7t60 -20t46 -31t31 -40v87h242v-78h-96v-609q0 -96 -23 -160.5t-67 -104t-107 -56t-145 -16.5q-63 0 -112.5 9.5t-86.5 27t-63 41t-43 50.5l108 85h10q11 -22 30 -45.5t44.5 -42.5t58 -31t70.5 -12t71 11.5 t57 38.5t38 73t14 114v81q-10 -15 -27.5 -30.5t-44 -28t-60.5 -20.5t-78 -8q-70 0 -125 29t-92 78t-57 115t-20 140zM238 345q0 -72 16 -124t42 -85.5t57 -49.5t62 -16q41 0 74 17t57 49.5t36.5 79t12.5 104.5v44q0 60 -13.5 108t-37.5 81t-56.5 50t-71.5 17 q-33 0 -65 -13.5t-57.5 -45.5t-40.5 -85t-15 -131z" />
<glyph unicode="h" horiz-adv-x="888" d="M58 0v68h95v946h-95v68h242v-490q19 31 43.5 53.5t54.5 37t64 21t72 6.5q48 0 86 -13t65 -38t41 -63t14 -87v-441h96v-68h-310v68h68v414q0 24 -6 47t-21.5 41t-41 29t-61.5 11q-37 0 -67.5 -18t-52 -45t-33 -61t-11.5 -66v-352h68v-68h-310z" />
<glyph unicode="i" horiz-adv-x="473" d="M79 0h336v68h-95v631h-241v-68h95v-563h-95v-68zM146 904q0 18 7 35t20 29t30 19t35 7q19 0 36 -7t29.5 -19t19.5 -28q7 -18 7 -36t-7 -34.5t-19.5 -29t-29.5 -19.5t-36 -7q-18 0 -35 7t-30 19.5t-20 29t-7 34.5z" />
<glyph unicode="j" horiz-adv-x="496" d="M14 -218v-9q6 -15 18 -29t29 -25t40 -17.5t51 -6.5q16 0 37 3.5t42 11.5t41 22t36 36.5t25 53t9 72.5v805h-241v-68h95v-820q0 -9 -3 -18t-9 -17t-16 -12.5t-24 -4.5q-11 0 -21.5 5.5t-18.5 14.5t-13.5 23t-5.5 30l-13 4zM168 904q0 18 7 35t20 29t30 19t35 7q19 0 36 -7 t29.5 -19t19.5 -28q7 -18 7 -36t-7 -34.5t-19.5 -29t-29.5 -19.5t-36 -7q-18 0 -35 7t-30 19.5t-20 29t-7 34.5z" />
<glyph unicode="k" horiz-adv-x="877" d="M58 0v68h95v946h-95v68h242v-748l294 297h-107v68h297v-68h-82l-176 -171l258 -392h47v-68h-307v68h91l-191 291l-124 -123v-168h68v-68h-310z" />
<glyph unicode="l" horiz-adv-x="463" d="M69 0v68h95v946h-95v68h241v-1014h95v-68h-336z" />
<glyph unicode="m" horiz-adv-x="1287" d="M58 0v68h94v563h-94v68h241v-102q18 25 38.5 46t46.5 36t60 23t79 8q40 0 72.5 -9t57.5 -25t42 -38t25 -46q14 26 33 48t44 37.5t57 24t74 8.5q58 0 98.5 -15.5t65.5 -42t36.5 -61.5t11.5 -73v-450h94v-68h-310v68h69v396q0 41 -10.5 68.5t-27.5 44.5t-39 24t-44 7 q-25 0 -51.5 -11t-48.5 -31t-36 -48t-14 -62v-388h68v-68h-284v68h70v390q0 33 -10 60.5t-26.5 47.5t-39.5 31t-50 11q-28 0 -55.5 -13t-48.5 -36t-34 -55t-13 -72v-364h69v-68h-310z" />
<glyph unicode="n" horiz-adv-x="887" d="M58 0v68h95v563h-95v68h242v-107q15 26 35.5 48t46.5 38t58 24t69 8q52 0 95 -13t73.5 -38t46.5 -63t16 -87v-441h96v-68h-310v68h68v414q0 24 -8.5 46.5t-25 40t-41.5 28.5t-55 11q-37 0 -67.5 -17t-52 -44.5t-33 -61t-11.5 -65.5v-352h68v-68h-310z" />
<glyph unicode="o" horiz-adv-x="868" d="M83 350q0 42 8 85.5t25.5 83.5t45.5 75t67 61t90 40.5t116 14.5q64 0 115.5 -14.5t91 -40.5t68 -61t46.5 -75t26 -83.5t8 -85.5t-9 -86t-28 -84t-48 -75t-68 -61t-89.5 -41t-112.5 -15q-68 0 -120.5 15t-91.5 41t-66 61t-43 75t-23.5 83.5t-7.5 86.5zM238 350 q0 -70 14.5 -124.5t40.5 -92t62.5 -57.5t79.5 -20q44 0 78.5 20t59.5 57.5t39 92t14 124.5t-13.5 124t-38 91.5t-60 57t-79.5 19.5t-80 -19.5t-62 -57t-40.5 -91.5t-14.5 -124z" />
<glyph unicode="p" horiz-adv-x="873" d="M58 -237h95v868h-95v68h242v-95q28 49 78 77.5t124 28.5q70 0 125 -28.5t93 -78t58 -114.5t20 -139t-20 -140t-58 -115t-93 -78t-125 -29q-43 0 -76.5 8t-58 20.5t-41.5 27.5q-16 16 -26 31v-312h94v-68h-336v68zM290 288q0 -56 14 -97t38 -68t55 -40t64 -13q36 0 69 17 t58 52t40 88.5t15 125.5q0 51 -8 91t-21.5 69.5t-31.5 50t-37.5 33.5t-40 18t-38.5 5q-30 0 -61.5 -14t-57 -43t-41.5 -72t-16 -101v-102z" />
<glyph unicode="q" horiz-adv-x="873" d="M75 345q0 82 22.5 149.5t63.5 115.5t98 74t125 26q40 0 74 -10.5t61 -27t47 -36.5t32 -40l52 103h165v-68h-95v-868h95v-68h-336v68h95v321q-37 -46 -89.5 -71t-112.5 -25q-36 0 -72.5 8.5t-69.5 26t-61.5 45.5t-49 68t-32.5 91.5t-12 117.5zM230 345q0 -71 13.5 -122 t37 -84.5t54.5 -49t67 -15.5q32 0 63 15t55.5 45t39 74t14.5 100v106q0 62 -15 103t-39 66t-54 35.5t-58 10.5q-33 0 -65.5 -18.5t-57.5 -54.5t-40 -89t-15 -122z" />
<glyph unicode="r" horiz-adv-x="580" d="M58 0v68h95v563h-95v68h230v-127q4 10 13 25t22 30t29 30t35 27t40.5 19t44.5 7q32 0 56 -9.5t39 -26t22 -38.5t7 -46l-88 -70l-13 3q0 22 -5.5 36.5t-14.5 24t-21 13.5t-25 4q-22 0 -45.5 -14.5t-42 -37.5t-30 -51.5t-11.5 -57.5v-372h108v-68h-350z" />
<glyph unicode="s" horiz-adv-x="719" d="M106 508q0 47 15 84.5t43 63.5t66 40t85 14q30 0 55 -3t46.5 -11.5t40.5 -22t38 -31.5v60h71v-182h-71q-4 26 -18.5 49t-36.5 40t-48 27t-52 10q-20 0 -40 -5t-36 -15.5t-26 -26t-10 -37.5q0 -27 16 -47.5t43 -38.5t62 -34t71 -33t71 -36t62 -43t43 -55t16 -71 q0 -49 -15 -89t-45 -68t-73 -43.5t-99 -15.5q-31 0 -59 6.5t-52.5 17t-44.5 24.5t-34 30v-66h-80v207h80q0 -34 14 -62.5t36 -47.5q22 -18 51 -27t57 -9q26 0 50 6.5t43 18.5t30 30t11 40q0 29 -16 51.5t-42.5 41t-60.5 34.5t-69.5 32.5t-69 34.5t-60 40.5t-42.5 51 t-16 66.5z" />
<glyph unicode="t" horiz-adv-x="531" d="M58 631v68h95v239l137 66l10 -9v-296h120v-68h-120v-521q0 -14 4.5 -23t11.5 -13.5t14.5 -6t13.5 -1.5q13 0 23.5 8.5t18 21t11.5 27.5q5 15 5 28l14 5l58 -48q-6 -32 -22 -54.5t-39 -37t-51 -21.5t-58 -7q-44 0 -73 10t-46.5 30.5t-24.5 51.5q-7 30 -7 72v479h-95z" />
<glyph unicode="u" horiz-adv-x="893" d="M58 631v68h242v-482q0 -30 9.5 -55.5t27 -43.5t41.5 -29t52 -11q34 0 64.5 14.5t52.5 40t35 59.5q12 36 12 76v363h-94v68h240v-631h96v-68h-244v88q-16 -21 -37 -39t-48.5 -31.5t-62.5 -21.5q-34 -8 -78 -8q-48 0 -87 14t-67 46t-43.5 83t-15.5 125v375h-95z" />
<glyph unicode="v" horiz-adv-x="815" d="M44 631v68h310v-68h-88l186 -465l182 465h-85v68h231v-68h-70l-258 -643h-73l-271 643h-64z" />
<glyph unicode="w" horiz-adv-x="1202" d="M41 631v68h329v-68h-99l148 -383l18 -47l195 507h24l183 -504l167 427h-95v68h251v-68h-72l-254 -643h-64l-166 444l-178 -444h-65l-249 643h-73z" />
<glyph unicode="x" horiz-adv-x="813" d="M41 631v68h330v-68h-87l145 -195l153 195h-82v68h248v-68h-74l-200 -255l229 -308h69v-68h-330v68h86l-145 194l-153 -194h80v-68h-258v68h88l198 253l-230 310h-67z" />
<glyph unicode="y" horiz-adv-x="814" d="M41 631v68h315v-68h-91l186 -449l190 449h-95v68h238v-68h-64l-364 -868h102v-68h-276v68h92l100 239l-269 629h-64z" />
<glyph unicode="z" horiz-adv-x="768" d="M81 0q0 12 0.5 20t1.5 13t3 9t5 8l379 571l4 5h-288v-130h-89v203h573v-35l-390 -586l-3 -6h308v131h90v-203h-594z" />
<glyph unicode="{" horiz-adv-x="463" d="M54 418q34 10 54.5 25t32 37t15.5 50t4 66v246q0 64 13 106.5t44 67t82 34.5t127 10v-16q-60 -18 -87.5 -65t-27.5 -128v-232q0 -42 -2 -74.5t-11.5 -57.5t-30.5 -42t-59 -27q38 -10 59 -27t30.5 -42t11.5 -58t2 -75v-261q0 -81 27 -127q28 -48 88 -66v-17q-76 0 -127 10 t-82 35t-44 67q-13 43 -13 107v276q0 38 -4 66t-15.5 49.5t-32 36.5t-54.5 26z" />
<glyph unicode="|" horiz-adv-x="377" d="M124 -146v1128h130v-1128h-130z" />
<glyph unicode="}" horiz-adv-x="463" d="M37 -238q60 18 87.5 65t27.5 128v261q0 42 2 75t12 58t31 42t58 27q-38 10 -58.5 27t-30.5 42t-12 58t-2 74v232q0 81 -27 127q-27 48 -88 66v16q76 0 127.5 -10t82.5 -34.5t44 -67t13 -106.5v-246q0 -38 4 -66t15 -50t31 -37t54 -25q-34 -11 -54 -26t-31 -36.5 t-15 -49.5t-4 -66v-276q0 -64 -13 -106.5t-44 -67.5t-82.5 -35t-127.5 -10v17z" />
<glyph unicode="~" horiz-adv-x="777" d="M65 352q38 72 89.5 106t108.5 34q35 0 72 -11t75 -31q30 -16 55 -22.5t45 -6.5q32 0 55 17.5t40 51.5l107 -60q-38 -72 -89 -106t-108 -34q-35 0 -72 10t-75 30q-30 16 -55 23t-46 7q-32 0 -55 -18q-22 -16 -40 -50z" />
<glyph unicode="&#xa2;" horiz-adv-x="785" d="M92 484q0 46 9 91t26 84.5t42.5 73t59.5 58.5t75.5 40t91.5 17v115h85v-123q20 -5 38 -12t33 -15t26.5 -16.5t17.5 -16.5l-6 60h81l15 -240h-76l-4 29q-3 31 -13.5 55t-27.5 42t-38 28q-21 12 -46 16v-574q26 3 50.5 11.5t46.5 20.5t39 28t29 35h8l49 -65 q-44 -42 -101.5 -66t-120.5 -31v-105h-85v104q-74 6 -131 34t-95 74t-58 109t-20 139zM242 469q0 -64 13.5 -110.5t35 -78.5t49.5 -50q28 -20 56 -28v563q-28 -8 -55 -28t-49 -55t-36 -87t-14 -126z" />
<glyph unicode="&#xa3;" horiz-adv-x="738" d="M70 404v75h78q-6 10 -15 31.5t-18 47.5t-15 54.5t-6 53.5q0 125 66.5 192.5t193.5 67.5q34 0 60 -4.5t45.5 -11t34.5 -14.5t28 -16q6 -4 10.5 -6t8.5 -5l27 46h62v-235h-75q-12 88 -55 134.5t-120 46.5q-31 0 -58.5 -8.5t-48 -25t-32 -40.5t-11.5 -55q0 -30 7.5 -62 t21 -64t30 -64t34.5 -63h188v-75h-160q3 -20 5 -41t2 -45q0 -26 -3.5 -52.5t-11.5 -51t-21.5 -46.5t-33.5 -40l2 2h308v92h85v-222h-591v72q32 6 60 21t50 38t34 53t12 64q0 43 -12 81.5t-30 74.5h-136z" />
<glyph unicode="&#xa5;" horiz-adv-x="921" d="M25 836v76h391v-76h-118l210 -408l8 -14l220 422h-116v76h280v-76h-77q-44 -84 -86.5 -165t-87.5 -165h133v-100h-186q-12 -24 -24.5 -47t-24.5 -47l1 1v-15h234v-98h-234v-124h108v-76h-366v76h108v124h-236v98h236v12l-50 96h-186v100h132q-44 84 -88 165t-88 165h-93z " />
<glyph unicode="&#xa9;" horiz-adv-x="1131" d="M64 489q0 73 18 138t50.5 120t78 99t101.5 75t120 47q64 17 134 17t134 -16.5t120 -47.5t101 -75t78 -99t50.5 -120t17.5 -138q0 -72 -17.5 -136.5t-50.5 -120.5t-78 -101t-101 -76.5t-120 -48.5t-134 -17t-134 17t-120 48.5t-101.5 76.5t-78 101t-50.5 120.5t-18 136.5z M170 489q0 -57 14.5 -109.5t40.5 -98t62.5 -83.5t80.5 -64.5t94 -41t104 -14.5t105 14.5t95 41t80 64.5t62 83.5t41 98t15 109.5q0 56 -15 108.5t-41 98.5t-62 83t-80 64t-95 41t-105 14t-104 -14t-94 -41t-80.5 -64t-62.5 -83t-40.5 -98t-14.5 -109zM297 492q0 30 5.5 63 t19.5 64t36 59t55 49t78 33t103 12q36 0 67 -4t56 -11t43 -15q20 -9 32 -17v-102h-35q-8 22 -20.5 40.5t-32 31.5t-45 20.5t-57.5 7.5q-39 0 -72.5 -15t-58.5 -43.5t-39 -70.5t-14 -94q0 -54 12 -100t34.5 -78t56 -50t78.5 -18q28 0 55 6t50 18.5t41.5 33t30.5 50.5h38 l-22 -113q-26 -14 -55.5 -22.5t-58 -13.5t-52.5 -7q-26 -2 -42 -2q-70 0 -123 19t-90 55t-55.5 90t-18.5 124z" />
<glyph unicode="&#xab;" horiz-adv-x="779" d="M56 350q40 32 78 62t75.5 59.5l75 59t77.5 61.5v-130l-150 -111l148 -116v-123zM386 350q40 32 78 62t75.5 59.5l75 59t77.5 61.5v-130l-150 -111l148 -116v-123z" />
<glyph unicode="&#xad;" horiz-adv-x="803" d="M102 277v127h598v-127h-598z" />
<glyph unicode="&#xae;" horiz-adv-x="1131" d="M64 489q0 73 18 138t50.5 120t78 99t101.5 75t120 47q64 17 134 17t134 -16.5t120 -47.5t101 -75t78 -99t50.5 -120t17.5 -138q0 -72 -17.5 -136.5t-50.5 -120.5t-78 -101t-101 -76.5t-120 -48.5t-134 -17t-134 17t-120 48.5t-101.5 76.5t-78 101t-50.5 120.5t-18 136.5z M170 489q0 -57 14.5 -109.5t40.5 -98t62.5 -83.5t80.5 -64.5t94 -41t104 -14.5t105 14.5t95 41t80 64.5t62 83.5t41 98t15 109.5q0 56 -15 108.5t-41 98.5t-62 83t-80 64t-95 41t-105 14t-104 -14t-94 -41t-80.5 -64t-62.5 -83t-40.5 -98t-14.5 -109zM350 228v48h65v447h-65 v47h229q44 0 81.5 -11t65.5 -33t44.5 -54t16.5 -72q0 -32 -11.5 -56.5t-29.5 -42t-39 -28.5t-42 -17l87 -138q14 -22 25 -35.5t27 -13.5q10 -1 18 1v-42q-6 -1 -10 -2t-9 -1.5t-12 -1.5t-17 -1q-19 0 -33.5 2t-27.5 9t-25.5 22t-27.5 41l-52 86q-18 30 -30 44t-25 14h-51 v-164h65v-48h-217zM502 490h74q32 0 54 8t36.5 23t21.5 35q6 20 6 46t-6.5 48t-21 38t-36.5 26q-22 9 -54 9h-74v-233z" />
<glyph unicode="&#xbb;" horiz-adv-x="779" d="M88 462v130l304 -242l-302 -238v122l148 118q-17 12 -36.5 26t-38.5 28.5t-39 28.5q-18 14 -36 27zM418 462v130l304 -242l-302 -238v122l148 118q-17 12 -36.5 26t-38.5 28.5t-39 28.5q-18 14 -36 27z" />
<glyph unicode="&#xbc;" horiz-adv-x="1118" d="M93 790q16 10 36.5 26t41.5 33t39 34q20 17 32 29h54v-496h92v-42h-282v42h92v395q-18 -16 -36 -29.5t-38 -26.5zM244 0l593 912h120l-595 -912h-118zM638 135v10l258 411h90v-367h64v-54h-64v-135h-95v135h-253zM730 189h161v261z" />
<glyph unicode="&#xbd;" horiz-adv-x="1118" d="M93 790q16 10 36.5 26t41.5 33t39 34q20 17 32 29h54v-496h92v-42h-282v42h92v395q-18 -16 -36 -29.5t-38 -26.5zM209 0l593 912h120l-595 -912h-118zM678 6q0 4 4 8l58 64q45 50 83.5 92.5t67.5 81t45 75t16 76.5q0 18 -5.5 36.5t-17 33.5t-27.5 25t-38 10t-36 -11 t-23.5 -27t-13.5 -35t-4 -35h-98q0 36 13.5 63t38 45t59 27t76.5 9q37 0 69.5 -9t57 -28t39 -48t14.5 -69q0 -35 -16 -67.5t-40.5 -61.5t-53.5 -55q-28 -26 -54 -48l-82 -77h244v-81h-369q-7 0 -7 6z" />
<glyph unicode="&#xbe;" horiz-adv-x="1118" d="M70 521h97q0 -17 3.5 -39.5t13.5 -43t28 -34.5t48 -14q28 0 47 13t29.5 32t15 42t4.5 42q0 26 -3 47t-13 36.5t-30 24.5t-56 9h-18v46q10 -1 20 -1.5t22 -0.5q26 0 41.5 7.5t23 21t9.5 31.5t2 40q0 19 -5 36t-16 29.5t-26.5 20.5t-35.5 8q-23 0 -38 -12t-24.5 -30 t-13 -38t-3.5 -37h-92q0 42 13.5 72.5t37.5 49.5t58 28q33 9 75 9q34 0 64 -8t53 -25t36 -43t13 -62q0 -46 -20 -77t-66 -45q27 -5 45.5 -17.5t30.5 -31.5t17 -42t5 -47q0 -43 -15 -75t-42 -53t-64 -31.5t-79 -10.5q-192 0 -192 173zM279 0l593 912h120l-595 -912h-118z M653 135v10l257 411h92v-367h62v-54h-62v-135h-96v135h-253zM746 189h160v261z" />
<glyph unicode="&#xd7;" horiz-adv-x="768" d="M98 538l88 87l199 -199l198 197l87 -87l-198 -198l198 -196l-88 -88l-197 198l-199 -200l-87 88l199 198z" />
<glyph unicode="&#xf7;" horiz-adv-x="866" d="M102 281v125h661v-125h-661zM342 102q0 20 6 37t18 30t30 20q16 7 38 7t39 -7.5t28.5 -20t17 -29t5.5 -34.5q0 -22 -6.5 -39.5t-18.5 -30t-28.5 -19t-36.5 -6.5t-36.5 6t-29 18t-19.5 30q-7 16 -7 38zM342 586q0 20 6 37t18 30t30 20q16 7 38 7t39 -7.5t28.5 -20 t17 -29.5t5.5 -35q0 -22 -6.5 -39t-18.5 -30t-28.5 -20t-36.5 -7t-36.5 7t-29 19t-19.5 29t-7 39z" />
<glyph unicode="&#xe01;" horiz-adv-x="905" d="M67 594q33 38 72 70t86 54t102 34t120 12q84 0 145 -15t101.5 -39t64 -54t32.5 -60v-596h-146v592q-8 24 -26 44.5t-44 36t-60 23.5t-74 8q-44 0 -83 -7t-72.5 -20t-60.5 -31q-26 -18 -46 -38l143 -98v-510h-143v508z" />
<glyph unicode="&#xe02;" horiz-adv-x="852" d="M65 550q0 52 16.5 91.5t45.5 67t68 41.5t83 14q50 0 89.5 -14t66 -42t40 -68.5t13.5 -92.5q0 -32 -5.5 -57t-14 -47.5t-18 -42.5t-18.5 -42t-14 -47t-5 -56v-151q8 -25 32 -41t58 -16q39 0 62 16q22 15 28 39v652h145v-644q-6 -20 -21.5 -41t-44 -39t-70.5 -29 q-41 -11 -99 -11q-56 0 -98 12t-72 30t-47 39t-21 39v106q0 40 11.5 70.5t28.5 55t37.5 46.5t37.5 45t28 51t11 65q0 36 -10 65.5t-28 50t-42 31.5q-26 10 -54 10t-49 -4.5t-37 -12.5t-28 -18.5t-20 -23.5q11 2 25.5 0.5t29.5 -6.5t29 -13.5t25.5 -21.5t18 -30.5t6.5 -41.5 q0 -27 -9 -47.5t-24 -34.5t-35 -21.5t-40 -6.5q-21 0 -40.5 7t-35.5 22t-25.5 39t-9.5 58zM122 547q0 -18 5 -31t13 -22t18 -13.5t20 -5.5q10 0 19.5 3.5t17 11.5t12 19t4.5 27q0 17 -8.5 30.5t-22.5 22t-31 12t-36 1.5q-4 -12 -7.5 -26t-3.5 -29z" />
<glyph unicode="&#xe03;" horiz-adv-x="852" d="M59 599q0 30 9 58.5t25 51.5t38.5 38.5t48.5 20.5l106 -88l113 88q60 -14 92.5 -56t32.5 -102q0 -32 -8 -58t-21 -49.5t-27.5 -46t-27 -45.5t-20.5 -49t-8 -57v-201q8 -25 32 -41t58 -16q39 0 62 16q22 15 28 39v652h145v-644q-6 -20 -21.5 -41t-44 -39t-70.5 -29 q-41 -11 -99 -11q-56 0 -98 12t-72 30t-47 39t-21 39v156q0 40 14.5 71.5t36.5 58t47.5 49.5t47.5 48t36 54t14 65q0 14 -3 28t-9 26t-17 21t-25 13l-120 -90l-114 90q-14 -8 -23.5 -20t-15 -26t-8.5 -29t-3 -29q0 -42 20 -67t56 -25q20 0 32.5 8t20.5 20l41 -28 q-6 -14 -17 -24t-23.5 -16.5t-27 -10t-26.5 -3.5q-33 0 -59 12t-43.5 31.5t-27 47t-9.5 58.5z" />
<glyph unicode="&#xe04;" horiz-adv-x="909" d="M116 0v598q2 18 14 36.5t34 37t52 34.5t67 29t80 20t91 7q72 0 132.5 -16t105 -40.5t71.5 -54t31 -57.5v-594h-148v592q-2 18 -15 38t-36.5 36t-59 26t-83.5 10t-82.5 -11t-57 -27t-34.5 -35t-15 -35v-211q14 26 33.5 52.5t44.5 47.5t55 34t64 13q30 0 52.5 -10t37.5 -27 t22.5 -39t7.5 -44q0 -60 -29 -95t-83 -35q-28 0 -49 11t-34 27.5t-19 35.5t-5 35q0 10 2 21q3 10 9 22q-14 -16 -30 -38t-30 -49t-27 -58t-22 -63v-224h-147zM415.5 393.5q1.5 -16.5 8 -30t18.5 -22.5t28 -9q19 0 31 10t17.5 26t5 34t-7 33t-19.5 25.5t-31 10.5h-10 q-16 -5 -25 -17t-13 -28t-2.5 -32.5z" />
<glyph unicode="&#xe05;" horiz-adv-x="921" d="M116 0v624q3 18 21.5 42t48.5 46t71 37.5t90 16.5l113 -88l114 88q53 -2 94.5 -18t70.5 -38t46 -47t21 -45v-618h-148v631q0 12 -5 22.5t-13.5 20.5t-19.5 17q-12 7 -24 11l-136 -100l-138 102q-10 -2 -20 -9t-19 -17.5t-14.5 -22t-5.5 -22.5v-250q14 26 33.5 52.5 t44.5 47.5t55 34t64 13q30 0 52.5 -10t37.5 -27t22.5 -39t7.5 -44q0 -60 -29 -95t-83 -35q-28 0 -49 11t-34 27.5t-19 35.5t-5 35q0 10 2 21q3 10 9 22q-14 -16 -30 -38t-30 -49t-27 -58t-22 -63v-224h-147zM415.5 393.5q1.5 -16.5 8 -30t18.5 -22.5t28 -9q19 0 31 10 t17.5 26t5 34t-7 33t-19.5 25.5t-31 10.5h-10q-16 -5 -25 -17t-13 -28t-2.5 -32.5z" />
<glyph unicode="&#xe06;" horiz-adv-x="989" d="M84 599q0 30 9 58.5t25 51.5t38 38.5t49 20.5l107 -88l112 88q60 -14 92.5 -56t32.5 -102q0 -32 -7.5 -57.5t-18.5 -49t-24 -45.5t-24.5 -45.5t-19 -49t-7.5 -56.5q40 -10 80 -27t76 -39.5t68 -48.5t56 -55v617h146v-672q0 -28 -8.5 -47t-22 -29t-31 -12t-35 2t-33.5 15 t-26 28q-33 52 -68 87.5t-70 60.5t-68.5 40t-63.5 24v-155q0 -26 -10 -45t-29 -32t-44 -20t-56 -7q-36 0 -64 11t-47 31t-28.5 48t-9.5 62q0 36 10 65t29 51t45.5 35.5t60.5 17.5q8 32 24 57t36 47.5t41.5 43t39 43t28.5 48.5q12 26 12 60q0 14 -3 28t-10 26t-17 21t-26 13 l-118 -90l-115 90q-14 -8 -23.5 -20t-15.5 -26t-8 -29t-2 -29q0 -42 20 -67q18 -25 54 -25q20 0 33 8t21 20l40 -28q-6 -14 -16 -24t-23 -16.5t-27 -10t-28 -3.5q-33 0 -58.5 12t-43.5 31.5t-27 47t-9 58.5zM210 150q0 -27 6 -46.5t16 -32t23 -18.5t27 -6q10 0 16 6.5 t6 14.5v191q-19 -4 -36 -11.5t-29.5 -20.5t-20.5 -32t-8 -45z" />
<glyph unicode="&#xe07;" horiz-adv-x="704" d="M54 396v77q90 -95 163 -173q31 -33 61 -65.5t55 -58.5t42 -44t21 -22q10 -10 19 -13t15.5 -0.5t9.5 9.5q2 8 2 19q-1 6 -1.5 24.5t-1 39.5t-1 40.5t-0.5 28.5v136v31q2 15 2 27v25q-26 0 -52 8.5t-47 27t-34 48t-13 72.5q0 32 10.5 56.5t31 40.5t49.5 25t65 9t61 -7.5 t42 -21t24 -30.5t7 -37v-566q0 -30 -9 -51t-25 -35t-37 -20t-44 -6q-30 0 -51.5 8t-38.5 22.5t-33 33t-34 40.5zM345 628q0 -44 23 -70q23 -28 75 -32v153q0 13 -7 21q-6 8 -24 8q-10 0 -22 -4t-22 -14t-16.5 -25t-6.5 -37z" />
<glyph unicode="&#xe08;" horiz-adv-x="837" d="M52 628q23 30 56.5 56t76 44t93 28t108.5 10q76 0 135.5 -13t102 -34t67.5 -47t31 -54v-514q-7 -33 -28.5 -54.5t-52.5 -35t-67 -19t-72 -5.5q-34 0 -69 6t-64.5 20t-51 36t-29.5 56v49v31v26q0 14 2 26q-26 0 -53 9t-48 27t-34 47.5t-13 72.5q0 32 11 56t31 41t49 25.5 t65 8.5t61 -7.5t40.5 -20.5t22.5 -31t7 -38v-338q6 -28 25 -39.5t50 -11.5q29 0 47.5 11.5t22.5 37.5v512q-3 18 -19.5 36t-45 33t-68 24t-89.5 9q-39 0 -75.5 -9t-68 -24t-56.5 -35t-41 -41zM194 392q0 -44 23 -71t75 -31v152q0 13 -7 21.5t-25 8.5q-10 0 -22 -4.5 t-21.5 -14t-16.5 -25.5q-6 -14 -6 -36z" />
<glyph unicode="&#xe09;" horiz-adv-x="949" d="M78 622q20 28 49 54.5t70.5 46t96 31.5t126.5 12q88 0 150 -15t102 -38t61 -51.5t27 -55.5v-290q23 -1 48 -10.5t46 -29.5t34.5 -51t13.5 -75q0 -76 -37 -118t-114 -42q-32 0 -57.5 7t-43.5 19.5t-27 29t-9 36.5v172q-16 -6 -42 -20t-55.5 -38t-60.5 -58q-32 -34 -61 -82 q-7 -12 -16 -24t-19.5 -21t-23 -14t-25.5 -5q-16 0 -30 3.5t-25.5 12t-18 21.5t-6.5 33v94q0 16 1 32v26q0 14 1 26q-26 0 -52.5 9t-47.5 27t-34 47.5t-13 72.5q0 32 11 56t31 41t49 25.5t65 8.5t61.5 -7.5t42 -20.5t24 -31t7.5 -38l-1 -272q30 33 59.5 57.5t58 43.5t58 31 t60.5 20v280q-4 18 -19 38t-41 38t-65 29t-92 11q-38 0 -75.5 -6.5t-72 -21t-63 -36.5t-48.5 -52zM138 392q0 -44 23 -71t75 -31v152q0 13 -7 21.5t-25 8.5q-10 0 -22 -4.5t-22 -14t-16 -25.5q-6 -14 -6 -36zM758 66q0 -3 1 -6.5t3.5 -6.5t7.5 -5q6 -2 14 -2q13 0 24.5 7 t20 20t13.5 33t5 44q0 22 -4.5 41t-15.5 33.5t-28 23t-41 10.5v-192z" />
<glyph unicode="&#xe0a;" horiz-adv-x="852" d="M65 550q0 52 16.5 91.5t45.5 67t68 41.5t83 14q46 0 85 -12t66.5 -37t42.5 -63t15 -90q0 -32 -5.5 -57t-14 -47t-18 -43t-18.5 -43t-14 -47t-5 -55v-166q8 -25 32 -41t58 -16q39 0 62 16q22 15 28 39v468q0 14 -5 24t-14 14q-13 6 -20 17.5t-7 24t8 24.5t22 20 q23 12 48.5 27.5t46.5 38.5t35 54.5t14 73.5l93 -31q-2 -31 -15 -61t-34.5 -57t-50.5 -50t-64 -41q16 -6 31.5 -15t28 -23t20.5 -34t8 -46v-420q-6 -20 -21.5 -41t-44 -39t-70.5 -29q-41 -11 -99 -11q-56 0 -98 12t-72 30t-47 39t-21 39v121q0 40 11.5 70.5t28.5 55.5 t37.5 46t37.5 45t28 51.5t11 64.5q0 36 -12 63t-31 45t-43 26t-48 8q-28 0 -49 -4.5t-37 -12.5t-28 -18.5t-20 -23.5q11 2 25.5 0.5t29.5 -6.5t29 -13.5t25.5 -21.5t18 -30.5t6.5 -41.5q0 -27 -9 -47.5t-24 -34.5t-35 -21.5t-40 -6.5q-21 0 -40.5 7t-35.5 22t-25.5 39 t-9.5 58zM122 547q0 -18 5 -31t13 -22t18 -13.5t20 -5.5q10 0 19.5 3.5t17 11.5t12 19t4.5 27q0 17 -8.5 30.5t-22.5 22t-31 12t-36 1.5q-4 -12 -7.5 -26t-3.5 -29z" />
<glyph unicode="&#xe0b;" horiz-adv-x="852" d="M59 599q0 30 9 58.5t25 51.5t38.5 38.5t48.5 20.5l106 -88l113 88q60 -14 92.5 -56t32.5 -102q0 -32 -8 -58t-21 -49.5t-27.5 -46t-27 -45.5t-20.5 -49t-8 -57v-201q8 -25 32 -41t58 -16q39 0 62 16q22 15 28 39v468q0 14 -5 24t-14 14q-13 6 -20 17.5t-7 24t8 24.5 t22 20q23 12 48.5 27.5t46.5 38.5t35 54.5t14 73.5l93 -31q-2 -31 -15 -61t-34.5 -57t-50.5 -50t-64 -41q16 -6 31.5 -15t28 -23t20.5 -34t8 -46v-420q-6 -20 -21.5 -41t-44 -39t-70.5 -29q-41 -11 -99 -11q-56 0 -98 12t-72 30t-47 39t-21 39v156q0 40 14.5 71.5t36.5 58 t47.5 49.5t47.5 48t36 54t14 65q0 14 -3 28t-9 26t-17 21t-25 13l-120 -90l-114 90q-14 -8 -23.5 -20t-15 -26t-8.5 -29t-3 -29q0 -42 20 -67t56 -25q20 0 32.5 8t20.5 20l41 -28q-6 -14 -17 -24t-23.5 -16.5t-27 -10t-26.5 -3.5q-33 0 -59 12t-43.5 31.5t-27 47t-9.5 58.5z " />
<glyph unicode="&#xe0c;" horiz-adv-x="1303" d="M69 594q34 39 75 70.5t89 53.5t104 34q55 12 121 12q84 0 149 -14.5t110 -38t70 -53.5t29 -62v-298q30 -10 61 -25.5t60 -37t55.5 -49t47.5 -59.5v627h148v-694q0 -20 -10 -34t-26 -22.5t-35 -11t-37 0t-34 11.5q-14 8 -22 22q-21 39 -42.5 71.5t-45.5 59t-54 47.5 t-66 38v-156q0 -43 -34 -68.5t-105 -25.5q-29 0 -55 8t-45.5 26t-31 48t-11.5 74q0 38 12 67t31.5 49t43.5 32t48 16v280q-4 22 -21.5 42.5t-46.5 36t-67 24.5t-82 9q-36 0 -74 -5.5t-74 -17.5t-68 -30q-32 -19 -56 -43l143 -98v-184l-4 -44q28 -1 54.5 -9t47 -26.5 t33 -47.5t12.5 -72q0 -32 -10 -56.5t-30 -41.5t-48.5 -26t-64.5 -9t-61.5 8t-42.5 21t-24 31t-7 38v416zM319 66q0 -11 8.5 -14t18.5 -3q11 0 23 4t22.5 13.5t17 25t6.5 39.5q0 44 -22 71q-22 28 -74 32v-168zM587 148q0 -51 16.5 -77t42.5 -26q11 0 19 4q8 5 8 11v196 q-14 -1 -29 -6.5t-27.5 -18.5t-21 -33t-8.5 -50z" />
<glyph unicode="&#xe0d;" horiz-adv-x="1288" d="M69 594q34 38 73 69t86 54t102 35q54 12 120 12q84 0 145 -15t101.5 -39t61.5 -54q22 -30 26 -62v-446q2 -14 7.5 -32t19 -33t37.5 -25q22 -11 60 -11t61 11.5t35.5 27.5t17 33t5.5 29v606h145v-604q-3 -28 -19.5 -57t-48.5 -52t-82 -37t-118 -14q-69 0 -117.5 14 t-80.5 36t-49 49t-21 53v448q-4 22 -18.5 43t-39 37t-59.5 25t-80 9q-40 0 -79 -8t-73.5 -21t-61.5 -31t-45 -36l143 -98v-184l-4 -44q28 -1 54.5 -9t47 -26.5t33 -47.5t12.5 -72q0 -32 -10 -56.5t-30 -41.5t-48.5 -26t-64.5 -9t-61.5 8t-42.5 21t-24 31t-7 38v416zM319 66 q0 -11 8.5 -14t18.5 -3q11 0 23 4t22.5 13.5t17 25t6.5 39.5q0 44 -22 71q-22 28 -74 32v-168zM628 -143q2 24 14 42.5t31 30t43 14.5q26 4 52 -1q38 -9 61 -27t35 -42t15 -53t-1 -59q36 2 70 12t62 30t46 51t24 76l100 -19q-9 -44 -28.5 -76t-47.5 -55t-61 -37.5t-69 -22 t-73 -8.5t-73 2q-50 4 -88 15.5t-64 29.5t-38 42q-12 25 -10 55zM680 -152q-2 -19 9 -33.5t31 -25.5t48 -16.5t60 -7.5q2 20 1 40.5t-8 37.5t-21 30t-37 17q-40 8 -60 -4q-21 -12 -23 -38z" />
<glyph unicode="&#xe0e;" horiz-adv-x="959" d="M82 132q0 43 13 71.5t34 45.5t48 25t55 8l-4 44v182l-121 86q29 40 67.5 71t86.5 53t105.5 34t126.5 12q84 0 147.5 -15t107 -39.5t67 -55t29.5 -62.5v-828q0 -29 -12 -48.5t-33 -27.5t-47 -2q-28 6 -56 28q-20 16 -35.5 28.5t-32.5 24t-37.5 23t-49.5 26.5 q-4 -29 -19.5 -54.5t-40.5 -44.5t-60 -29.5t-77 -10.5q-51 0 -84.5 10t-53.5 26.5t-29 38.5t-9 46q0 26 11.5 48t34 38t55.5 25t77 9q14 0 32.5 -2t37 -5t36.5 -8t31 -10q-2 17 -7 37q-5 22 -13 34l59 20q10 -24 16 -54t8 -58q46 -17 83 -36.5t71 -41.5l-4 166v628 q-4 22 -21 43t-45 37t-66 26t-82 10q-38 0 -76 -5.5t-72 -17.5t-64 -30q-30 -19 -52 -43l155 -98v-418q0 -20 -7.5 -38t-24 -31t-42 -21t-61.5 -8t-65 10t-49 28t-31 43t-11 57zM134 136q0 -24 7 -40.5t18 -27t23 -15t23 -4.5q10 0 18.5 2.5t8.5 14.5v168q-52 -4 -75 -29 t-23 -69zM235 -204q0 -10 4.5 -21t16.5 -20t33 -15t53 -6q30 0 55 8t43 21.5t29.5 32t13.5 40.5q-32 12 -67.5 19.5t-67.5 7.5q-34 0 -56 -7t-35 -17.5t-17.5 -22.5t-4.5 -20z" />
<glyph unicode="&#xe0f;" horiz-adv-x="959" d="M30 -217q0 28 10 49.5t29 36.5t46 23t58 8q34 0 66.5 -10t65.5 -28q0 16 -3 32t-10 32l58 18q14 -32 17 -63t-4 -59q16 -12 30.5 -26t30.5 -30l134 135l144 -128l-5 183l-1 632q-4 22 -21 43t-45 37t-66 26t-82 10q-38 0 -76 -5.5t-72 -17.5t-64 -30q-30 -19 -52 -43 l155 -98v-418q0 -20 -7.5 -38t-24 -31t-42 -21t-61.5 -8t-65 10t-49 28t-31 43t-11 57q0 43 13 71.5t34 45.5t48 25t55 8l-4 44v182l-121 86q29 40 67.5 71t86.5 53t105.5 34t126.5 12q84 0 147.5 -15t107 -39.5t67 -55t29.5 -62.5v-829q0 -24 -8 -42t-22 -30.5t-32 -18.5 t-37 -5t-37 8t-34 23l-114 112l-136 -133q-24 26 -45 46.5t-40 37.5q-25 -40 -68 -65.5t-97 -25.5q-28 0 -54.5 7t-46 21.5t-31.5 35.5t-12 49zM92 -218q0 -12 6 -22.5t16 -18.5t25 -12.5t35 -4.5q42 0 72 20q31 20 46 54q-32 22 -60 33t-58 11q-22 0 -38 -5t-25.5 -14 t-14 -20t-4.5 -21zM134 136q0 -24 7 -40.5t18 -27t23 -15t23 -4.5q10 0 18.5 2.5t8.5 14.5v168q-52 -4 -75 -29t-23 -69z" />
<glyph unicode="&#xe10;" horiz-adv-x="805" d="M25 -325q0 22 7.5 40t21.5 30.5t33 19t42 6.5q21 0 40 -6.5t38 -22.5q-2 22 -6.5 41t-14.5 33l40 16q8 -14 13 -32.5t8 -37t2.5 -35.5t-3.5 -29q13 -16 23 -30t17 -30l36 87q4 9 11.5 13t16 3t16.5 -6.5t11 -15.5q8 -27 18.5 -45t23 -29t29 -15.5t36.5 -4.5h63v60 q-26 0 -50.5 7t-43 22.5t-30 39.5t-11.5 58q0 33 11 57.5t30 40.5t44 24t52 8q33 0 58.5 -8t43 -23t26.5 -34.5t9 -42.5v-178q0 -22 -9 -39t-24 -29t-33 -17.5t-36 -5.5h-116q-22 2 -41.5 9.5t-35 19.5t-27.5 29t-18 41l-39 -90h-39q-6 16 -16 36q-12 20 -24 36 q-14 -31 -41 -46t-58 -15q-22 0 -41 6.5t-33 18.5t-22 28.5t-8 36.5zM49 606.5q-1 10.5 3 23t12 24.5q16 22 41 43t59.5 37t79 26t100.5 10q38 0 74 -8t69.5 -18t64 -18t58.5 -8q29 0 52.5 12t35.5 30l30 -48q-6 -8 -17 -17.5t-27 -17.5t-35 -13t-42 -5q-32 0 -64.5 7 t-65.5 15.5t-66 15.5t-65 7q-41 0 -72.5 -7.5t-54 -19t-37 -24.5t-22.5 -25q24 -1 61 -4t81.5 -9t93 -14.5t95.5 -21.5t88 -29t71 -36q18 -12 27 -31t9 -47v-336q-7 -33 -27.5 -54.5t-50 -33.5t-65 -17t-71.5 -5q-34 0 -68 5t-64 18t-51 35t-29 56v21v43q-26 0 -51 8 t-45.5 26.5t-33.5 48t-13 73.5q0 30 11.5 54t31.5 42t48.5 27t62.5 9q36 0 62 -7.5t42.5 -21t24.5 -31.5t8 -38v-270q3 -23 20.5 -35t44.5 -12q13 0 25 2.5t21 8.5t14.5 14t5.5 20v346q0 26 -7.5 38.5t-19.5 18.5q-43 21 -96.5 36t-111.5 25.5t-116 17t-110 12.5 q-14 2 -21 9t-8 17.5zM70 -324q0 -12 5 -21t13.5 -15t19.5 -10q10 -3 22 -3q11 0 22.5 4.5t21.5 12.5t16.5 19.5t9.5 25.5q-16 18 -33 27.5t-38 9.5q-28 0 -43 -14q-16 -12 -16 -36zM168 320q0 -20 5.5 -38t17 -31.5t29.5 -22.5t44 -11v168q0 11 -8 14t-18 3q-8 0 -20 -4 t-23 -13.5t-19 -25t-8 -39.5zM463 -189q0 -20 6.5 -35t18.5 -25t27 -14.5t33 -4.5v124q0 10 -6.5 16.5t-20.5 6.5q-9 0 -19 -3.5t-19 -12t-14.5 -21.5t-5.5 -31z" />
<glyph unicode="&#xe11;" horiz-adv-x="1038" d="M59 599q0 30 9 58.5t25 51.5t38.5 38.5t48.5 20.5l106 -88l113 88q60 -14 92.5 -56t32.5 -102q0 -32 -8 -58t-21 -49.5t-27.5 -46t-27 -45.5t-20.5 -49t-8 -57v-10t-0.5 -16t-1 -19t-0.5 -20v-54q23 54 49.5 109t55.5 107t57.5 100t54.5 89t48 73q21 31 37 51 q14 19 35 31t44 16t46 0t41.5 -18t30 -38t11.5 -59v-647h-144v596q4 22 0 33t-13 12.5t-22 -7t-27 -28.5q-19 -26 -43.5 -64t-52 -85.5t-56.5 -101t-56.5 -109.5t-52.5 -113t-43 -109v-24h-146v266q0 40 14.5 71.5t36.5 58t47.5 49.5t47.5 48t36 54t14 65q0 14 -3 28t-9 26 t-17 21t-25 13l-120 -90l-114 90q-14 -8 -23.5 -20t-15 -26t-8.5 -29t-3 -29q0 -42 20 -67t56 -25q20 0 32.5 8t20.5 20l41 -28q-6 -14 -17 -24t-23.5 -16.5t-27 -10t-26.5 -3.5q-33 0 -59 12t-43.5 31.5t-27 47t-9.5 58.5z" />
<glyph unicode="&#xe12;" horiz-adv-x="1327" d="M118 0v624q3 20 21.5 44.5t48.5 46t71 36t90 15.5l129 -88l129 88q53 -2 94 -16t70.5 -35.5t46 -47t20.5 -49.5v-315q70 -18 126 -64.5t98 -111.5v627h147v-694q0 -20 -10 -34t-25.5 -22.5t-34.5 -11t-37.5 0t-34 11t-22.5 22.5q-20 39 -41.5 73.5t-45.5 62.5t-54 50 q-30 23 -66 40v-166q0 -43 -34 -68.5t-105 -25.5q-30 0 -55.5 8t-45.5 26t-31 48t-11 74q0 38 12 67t31.5 49t43.5 32t48 16v319q0 12 -5 22.5t-13.5 19t-19.5 15t-23 10.5l-152 -100l-154 102q-9 -2 -19.5 -8t-19.5 -15t-14.5 -20.5t-5.5 -23.5v-537q12 8 27.5 20.5t32 27 t33 31.5t31.5 32t27 29t19 24q-18 4 -35.5 16.5t-30.5 30t-22 39.5t-9 47q0 32 9 56.5t24 41.5t36 26t47 9q22 0 43 -7t39 -22t29 -38t11 -55q0 -19 -5.5 -38.5t-13.5 -36.5t-17.5 -32t-16.5 -25q-18 -24 -44.5 -56.5t-60.5 -69t-73 -74.5t-80 -72h-147zM396 400 q0 -22 7 -37.5t18 -27t24 -19.5t25 -15q7 9 15 20.5t15.5 24t12 27.5t4.5 29q0 17 -5.5 30t-14 22.5t-19.5 13.5q-10 5 -22 5t-23 -4.5t-19 -13.5t-13 -23t-5 -32zM609 148q0 -51 16.5 -77t42.5 -26q10 0 18 4q9 5 9 11v196q-14 -1 -29 -6.5t-27.5 -18.5t-21 -33t-8.5 -50z " />
<glyph unicode="&#xe13;" horiz-adv-x="1318" d="M70 594q30 42 70 73.5t86 53t97.5 32.5t106.5 11q77 0 135.5 -14t98.5 -37.5t62 -52.5q24 -30 28 -62v-354q0 -11 -2 -24q0 -14 -2 -28q-2 -16 -4 -30l4 -4q18 24 41 50t52 49t64 41t76 26v430h145v-432q23 -3 48.5 -12.5t45.5 -28.5t34 -49t14 -72q0 -52 -14 -85 t-37.5 -51t-55.5 -24t-69 -6q-28 0 -49 9t-35 21.5t-21 26.5t-7 25v198q-14 -6 -30 -12.5t-33.5 -17t-37 -27t-41.5 -41t-46 -58.5t-50 -81q-10 -17 -25.5 -30t-38.5 -13q-13 0 -26 4t-23.5 12t-16.5 22t-6 34v528q-4 22 -20 42t-42 35t-60 24t-74 9q-34 0 -68.5 -7t-65 -20 t-56 -31t-42.5 -38l144 -98v-184l-4 -44q28 -1 54 -9t47 -26.5t33.5 -47.5t12.5 -72q0 -32 -10.5 -56.5t-30.5 -41.5t-48 -26t-64 -9t-62 8t-42.5 21t-24 31t-7.5 38v416zM320 66q0 -11 8.5 -14t17.5 -3q11 0 23.5 4t22.5 13.5t17 25t7 39.5q0 44 -22 71q-22 28 -74 32v-168 zM1125 72q0 -9 6 -16q7 -7 19 -7q30 0 48.5 26.5t18.5 78.5q0 21 -5.5 40.5t-16.5 35.5t-28.5 28t-41.5 16v-202z" />
<glyph unicode="&#xe14;" horiz-adv-x="911" d="M118 0v598q2 18 14 36.5t34 37t52 34.5t67 29t80 20t91 7q72 0 132.5 -16t105 -40.5t71.5 -54t31 -57.5v-594h-148v592q-2 18 -15 38t-36.5 36t-59 26t-83.5 10t-82.5 -11t-57 -27t-34.5 -35t-15 -35v-498q12 8 27.5 20.5t32 27t33 31.5t31.5 32t27 29t19 24 q-18 4 -35 16.5t-30.5 30t-22.5 39.5t-9 47q0 32 9 56.5t24.5 41.5t36.5 26q22 9 46 9q22 0 43 -7t39 -22t29 -38t11 -55q0 -19 -5.5 -38.5t-13.5 -36.5t-17.5 -32t-16.5 -25q-18 -24 -44.5 -56.5t-60.5 -69t-73 -74.5t-80 -72h-147zM396 400q0 -22 7 -37.5t18 -27t24 -19.5 t25 -15q7 9 15 20.5t15.5 24t12 27.5t4.5 29q0 17 -5.5 30t-14 22.5t-19.5 13.5q-10 5 -22 5t-23 -4.5t-19 -13.5t-13 -23t-5 -32z" />
<glyph unicode="&#xe15;" horiz-adv-x="923" d="M118 0v624q3 18 21.5 42t49 46t71.5 38q42 15 90 16l112 -88l114 88q53 -2 94.5 -18t71 -38t46 -47t20.5 -45v-618h-148v631q0 12 -5 22.5t-13 19t-19 15t-24 10.5l-137 -100l-137 102q-10 -2 -20.5 -8t-19 -15t-14 -20.5t-5.5 -23.5v-537q12 8 27 20.5t32 27t33 31.5 t31 32t27 29t20 24q-18 4 -35 16.5t-31 30t-22.5 39.5t-8.5 47q0 32 8.5 56.5t24.5 41.5t37 26t45 9q22 0 43.5 -7t39 -22t28.5 -38t11 -55q0 -19 -5 -38.5t-13 -36.5t-18 -32q-8 -15 -16 -25q-18 -24 -45 -56.5t-61 -69t-72 -74.5t-80 -72h-148zM396 400q0 -22 7 -37.5 t18 -27t24 -19.5t25 -15q7 9 15.5 20.5t15.5 24t12 27.5t5 29q0 17 -5.5 30t-14 22.5t-19.5 14t-23 4.5t-23 -4.5t-19 -13.5t-13 -23t-5 -32z" />
<glyph unicode="&#xe16;" horiz-adv-x="913" d="M69 594q34 38 73 69t86 54t101.5 35t120.5 12q84 0 147.5 -15t106.5 -39t66.5 -55t27.5 -62v-593h-145v589q-4 22 -21.5 43t-45.5 37t-65 25.5t-82 9.5q-40 0 -79 -8t-73.5 -21t-61.5 -31t-45 -36l143 -98v-184l-4 -44q28 -1 54.5 -9t47 -26.5t33 -47.5t12.5 -72 q0 -32 -10 -56.5t-30 -41.5t-48.5 -26t-64.5 -9t-61.5 8t-42.5 21t-24 31t-7 38v416zM319 66q0 -11 8.5 -14t18.5 -3q11 0 23 4t22.5 13.5t17 25t6.5 39.5q0 44 -22 71q-22 28 -74 32v-168z" />
<glyph unicode="&#xe17;" horiz-adv-x="921" d="M48 631q0 32 10.5 56.5t31 40.5t49.5 25t65 9t61 -7.5t42 -21t24 -30.5t7 -37v-240q0 -27 -2 -58q0 -32 -2 -60q-2 -32 -4 -65q4 16 11.5 35.5t16 40t16.5 40t14 32.5q24 53 49.5 100t50 88t46.5 74t42 57q18 22 41 35t49 17.5t51 -0.5t44.5 -20t32 -39.5t12.5 -60.5 v-642h-148v611q0 10 -6 18.5t-16 10.5t-21 -4t-23 -22q-29 -44 -61.5 -100t-65.5 -121t-66 -137q-33 -74 -61 -152v-104h-147v392q0 16 0.5 31t0.5 27q0 14 2 25q-26 0 -52 8.5t-47 27t-34 48t-13 72.5zM98 626q0 -44 23 -70q23 -28 75 -32v153q0 13 -7 21t-24 8 q-10 0 -22 -4t-21.5 -14t-16.5 -25t-7 -37z" />
<glyph unicode="&#xe18;" horiz-adv-x="815" d="M74 605.5q-1 10.5 3 23.5q5 13 13 25q16 22 40.5 43t59 37t79.5 26t101 10q38 0 71 -8t64 -18t59 -18t56 -8q29 0 52.5 12t35.5 30l30 -48q-6 -8 -17 -17.5t-27 -17.5t-35 -13t-42 -5q-32 0 -62.5 7t-60.5 15.5t-60 15.5q-32 7 -64 7q-41 0 -72 -7.5t-53.5 -19 t-37.5 -24.5t-22 -25q55 -4 114 -14t119 -26t119 -37t113 -47q20 -10 35 -31t15 -57v-297q-3 -26 -25.5 -49.5t-60 -41.5t-88 -29t-110.5 -11q-50 0 -99 9t-90 27t-70 42t-41 53v351h148v-358q3 -12 14.5 -24t30.5 -22.5t47 -17.5t62 -7q30 0 54 6.5t41 16.5t27 22t13 24 v302q0 26 -9.5 38.5t-21.5 18.5q-43 21 -94.5 38t-106.5 30t-111 23q-54 10 -106 18q-14 2 -21.5 9.5t-8.5 18z" />
<glyph unicode="&#xe19;" horiz-adv-x="960" d="M47 631q0 32 10.5 56.5t31 40.5t49.5 25t65 9t61.5 -7.5t42 -21t24 -30.5t7.5 -37v-422q0 -20 -1 -36q-1 -14 -3 -26q-2 -13 -2 -24h2q25 30 58 57t70.5 48.5t78.5 37t81 23.5v430h148v-432q26 -3 51.5 -14.5t46 -31.5t33.5 -50t13 -70q0 -50 -12 -82t-34 -50t-52 -25 q-28 -7 -64 -7q-28 0 -52 7t-41 20t-27 32t-10 43v176q-32 -10 -68 -27t-72.5 -45t-72 -67t-67.5 -94q-4 -8 -12 -16.5t-18 -14.5t-23 -10t-27 -4q-13 0 -25.5 4t-23 13t-17 23t-6.5 34v326q0 16 0.5 31t1.5 27q1 14 2 25q-26 0 -52.5 8.5t-47.5 27t-34 48t-13 72.5zM98 626 q0 -44 23 -70q23 -28 75 -32v153q0 13 -7 21t-24 8q-10 0 -22 -4t-21.5 -14t-16.5 -25t-7 -37zM768 77q0 -9 8 -17.5t21 -8.5q12 0 23.5 5t20.5 16.5t14 31t5 48.5q0 24 -7.5 44.5t-20 35t-29.5 23.5t-35 12v-190z" />
<glyph unicode="&#xe1a;" horiz-adv-x="920" d="M47 631q0 32 10.5 56.5t31 40.5t49.5 25t65 9t61.5 -7.5t42 -21t24 -30.5t7.5 -37v-537q2 -14 14 -29t33 -26.5t50 -19t67 -7.5t67 8.5t48.5 21t30 27t12.5 25.5v625h145v-604q-3 -28 -26 -57t-63 -52t-95 -37t-123 -14q-69 0 -124 14t-94.5 36t-61.5 49q-24 27 -28 53 v250q0 16 0.5 31t1.5 27q1 14 2 25q-26 0 -52.5 8.5t-47.5 27t-34 48t-13 72.5zM98 626q0 -44 23 -70q23 -28 75 -32v153q0 13 -7 21t-24 8q-10 0 -22 -4t-21.5 -14t-16.5 -25t-7 -37z" />
<glyph unicode="&#xe1b;" horiz-adv-x="940" d="M47 631q0 32 10.5 56.5t31 40.5t49.5 25t65 9t61.5 -7.5t42 -21t24 -30.5t7.5 -37v-537q2 -14 15.5 -29t36 -26.5t53.5 -19t69 -7.5t68.5 8.5t52 21t33.5 27t14 25.5v969h145v-948q-3 -28 -27.5 -57t-66 -52t-98.5 -37t-125 -14q-69 0 -125.5 14t-97.5 36t-65 49 q-26 27 -30 53v250q0 16 0.5 31t1.5 27q1 14 2 25q-26 0 -52.5 8.5t-47.5 27t-34 48t-13 72.5zM98 626q0 -44 23 -70q23 -28 75 -32v153q0 13 -7 21t-24 8q-10 0 -22 -4t-21.5 -14t-16.5 -25t-7 -37z" />
<glyph unicode="&#xe1c;" horiz-adv-x="918" d="M120 0v666q0 20 8 37t25 30.5t43 21t62 7.5q72 0 113 -34t41 -97q0 -43 -13 -72.5t-34 -48t-47 -26.5t-54 -9l6 -43v-213l-4 -96l158 159q9 9 16.5 14t12.5 7t11 2q4 0 10 -2q5 -2 12 -7q8 -4 16 -14l153 -159v631h147v-754h-120l-220 232l-220 -232h-122zM264 524 q52 4 74 31t22 71q0 24 -7 40t-17 25t-22 12q-14 3 -24 3h-9t-8.5 -1t-6 -4t-2.5 -9v-168z" />
<glyph unicode="&#xe1d;" horiz-adv-x="918" d="M120 0v666q0 20 8 37t25 30.5t43 21t62 7.5q72 0 113 -34t41 -97q0 -43 -13 -72.5t-34 -48t-47 -26.5t-54 -9l6 -43v-213l-4 -96l158 159q9 9 16.5 14t12.5 7t11 2q4 0 10 -2q5 -2 12 -7q8 -4 16 -14l153 -159v979h147v-1102h-120l-220 232l-220 -232h-122zM264 524 q52 4 74 31t22 71q0 24 -7 40t-17 25t-22 12q-14 3 -24 3h-9t-8.5 -1t-6 -4t-2.5 -9v-168z" />
<glyph unicode="&#xe1e;" horiz-adv-x="997" d="M47 631q0 32 10.5 56.5t31 40.5t49.5 25t65 9t61.5 -7.5t42 -21t24 -30.5t7.5 -37v-295q0 -9 -1 -21t-2 -25t-3 -26l-4 -26q-4 -29 -8 -61l212 514h12l211 -514q-5 36 -9 67q-2 14 -3.5 27.5t-3 25.5t-2 21.5t-0.5 15.5v385h145v-754h-112l-232 585l-235 -585h-113v392 q0 16 0.5 31t1.5 27q1 14 2 25q-26 0 -52.5 8.5t-47.5 27t-34 48t-13 72.5zM98 626q0 -44 23 -70q23 -28 75 -32v153q0 13 -7 21t-24 8q-10 0 -22 -4t-21.5 -14t-16.5 -25t-7 -37z" />
<glyph unicode="&#xe1f;" horiz-adv-x="997" d="M47 631q0 32 10.5 56.5t31 40.5t49.5 25t65 9t61.5 -7.5t42 -21t24 -30.5t7.5 -37v-295q0 -9 -1 -21t-2 -25t-3 -26l-4 -26q-4 -29 -8 -61l212 514h12l211 -514q-5 36 -9 67q-2 14 -3.5 27.5t-3 25.5t-2 21.5t-0.5 15.5v733h145v-1102h-112l-232 585l-235 -585h-113v392 q0 16 0.5 31t1.5 27q1 14 2 25q-26 0 -52.5 8.5t-47.5 27t-34 48t-13 72.5zM98 626q0 -44 23 -70q23 -28 75 -32v153q0 13 -7 21t-24 8q-10 0 -22 -4t-21.5 -14t-16.5 -25t-7 -37z" />
<glyph unicode="&#xe20;" horiz-adv-x="959" d="M82 127q0 43 13 72t34 47.5t48 27t55 8.5l-4 44v182l-121 86q29 40 67.5 71t86.5 53t105.5 34t126.5 12q84 0 147.5 -15t107 -39.5t67 -55t29.5 -62.5v-592h-148v588q-4 22 -21 43t-45 37t-66 26t-82 10q-38 0 -76 -5.5t-72 -17.5t-64 -30q-30 -19 -52 -43l155 -98v-418 q0 -20 -7.5 -38t-24 -31t-42 -21t-61.5 -8t-65 9t-49 26t-31 42t-11 56zM134 131q0 -24 7 -39.5t18 -25t23 -13.5t23 -4q10 0 18.5 2.5t8.5 14.5v168q-52 -4 -75 -31t-23 -72z" />
<glyph unicode="&#xe21;" horiz-adv-x="929" d="M75 631q0 32 10.5 56.5t31 40.5t49.5 25t65 9t61.5 -7.5t42 -21t24 -30.5t7.5 -37v-332q40 -8 84 -26t84 -42t76 -54t60 -60l3 1q-1 9 -3 23q-1 12 -2 28q-2 14 -2 34v516h148v-678q0 -17 -5 -32t-16 -26.5t-27 -18.5q-14 -7 -36 -7q-24 0 -45 11t-31 29 q-22 40 -51.5 76.5t-65.5 68t-78.5 57.5t-92.5 42v-181q0 -22 -8 -40.5t-25 -32.5t-43 -22t-61 -8q-36 0 -64.5 9t-48 29t-30 52t-10.5 77q0 39 12.5 69t33 52t46.5 36q26 12 52 18v58v31t1 27q0 14 1 25q-26 0 -52.5 8.5t-47.5 27t-34 48t-13 72.5zM126 626q0 -44 23 -70 q23 -28 75 -32v153q0 13 -7 21t-24 8q-10 0 -22 -4t-21.5 -14t-16.5 -25t-7 -37zM130 158q0 -32 6 -53t15 -33t20 -17t22 -5q13 0 21.5 8t8.5 22v198q-16 -3 -32.5 -11.5t-30 -23.5t-22 -36t-8.5 -49z" />
<glyph unicode="&#xe22;" horiz-adv-x="881" d="M120 534v132q0 20 8 37t24 30.5t42 21t62 7.5t65 -9.5t49 -27t30.5 -42.5t10.5 -57q0 -43 -13 -71.5t-34 -46t-47.5 -25.5t-54.5 -8q2 -16 14.5 -28.5t32.5 -19t45.5 -6t54.5 10.5v-32l-141 -142l2 -104q3 -8 12 -25.5t28.5 -35t51.5 -30t80 -12.5q35 0 61.5 6t45.5 15.5 t32 21t21 22t12 20.5t6 14v604h146v-614q-4 -26 -26.5 -53t-63 -48t-99.5 -34t-135 -13q-77 0 -133.5 12t-95.5 32.5t-61 47t-28 56.5l2 71l178 161q-48 -4 -82.5 10t-57 38t-33.5 54t-11 60zM262 524q52 4 75 28q23 26 23 70q0 24 -7 40t-18 26t-23 14q-14 4 -24 4h-9 t-9 -1t-6 -4t-2 -9v-168z" />
<glyph unicode="&#xe23;" horiz-adv-x="707" d="M47 605.5q-2 11.5 1.5 25t12.5 24.5q16 22 40.5 42.5t56.5 36.5t72 26t90 10q38 0 69 -8t59 -18t54 -18t52 -8q29 0 47.5 12t31.5 30l31 -48q-6 -8 -16 -17.5t-24 -17.5t-32 -13t-40 -5q-32 0 -61 7t-56 15.5t-54 15.5t-55 7q-33 0 -59.5 -6.5t-47 -17t-35 -24.5 t-24.5 -28q33 -4 75.5 -11.5t87.5 -20t90.5 -30.5t85.5 -40q26 -14 35 -34t9 -46v-350q0 -51 -40.5 -76.5t-110.5 -25.5q-33 0 -62.5 9t-51.5 28t-34 48t-12 69q0 44 15.5 76t40 51.5t53.5 27t55 2.5v147q0 23 -10 34q-10 12 -22 18q-36 17 -73.5 29.5t-74.5 21t-72 14 t-66 8.5q-14 2 -21.5 9.5t-9.5 19zM281 148q0 -24 8.5 -43t20.5 -32t26 -19.5t26 -6.5q16 0 25.5 6.5t9.5 22.5v188q-24 2 -45.5 -5.5t-37 -23t-24.5 -37.5t-9 -50z" />
<glyph unicode="&#xe24;" horiz-adv-x="912" d="M69 594q34 38 73 69t86 54t101.5 35t120.5 12q84 0 147.5 -15t106.5 -39t66.5 -55t27.5 -62v-913h-145v909q-4 22 -21.5 43t-45.5 37t-65 25.5t-82 9.5q-40 0 -79 -8t-73.5 -21t-61.5 -31t-45 -36l143 -98v-184l-4 -44q28 -1 54.5 -9t47 -26.5t33 -47.5t12.5 -72 q0 -32 -10 -56.5t-30 -41.5t-48.5 -26t-64.5 -9t-61.5 8t-42.5 21t-24 31t-7 38v416zM319 66q0 -11 8.5 -14t18.5 -3q11 0 23 4t22.5 13.5t17 25t6.5 39.5q0 44 -22 71q-22 28 -74 32v-168z" />
<glyph unicode="&#xe25;" horiz-adv-x="869" d="M96 628q23 30 56 56t74.5 44t91.5 28t108 10q76 0 134 -15t99.5 -38t65 -51t29.5 -55v-607h-148v278q-18 30 -43 58t-54 49t-62 34t-66 13q-34 0 -55.5 -9t-34.5 -23t-18 -29.5t-5 -28.5v-43l-4 -17q28 -1 55 -9t48 -26.5t34 -47.5t13 -72q0 -32 -11 -56.5t-31 -41.5 t-49 -26t-65 -9t-62 8t-42 21t-23.5 31t-7.5 38v203q0 50 16.5 87.5t48.5 62.5t79 37t105 12q38 0 73.5 -10t66 -26t56.5 -38q24 -21 44 -45q-2 10 -3 24q-1 12 -2 27.5t-1 36.5v139q-3 18 -18.5 36t-42.5 33t-65 24t-88 9q-39 0 -75 -9t-66.5 -24t-54.5 -35t-40 -41z M264 66q0 -6 2.5 -9t6 -4t8.5 -1.5t10 -0.5q10 0 22.5 3.5t23.5 12.5t18 24.5t7 39.5q0 44 -23 71q-23 28 -75 32v-168z" />
<glyph unicode="&#xe26;" horiz-adv-x="959" d="M82 127q0 43 13 72t34 47.5t48 27t55 8.5l-4 44v182l-121 86q29 40 67.5 71t86.5 53t105.5 34t126.5 12q84 0 147.5 -15t107 -39.5t67 -55t29.5 -62.5v-912h-148v908q-4 22 -21 43t-45 37t-66 26t-82 10q-38 0 -76 -5.5t-72 -17.5t-64 -30q-30 -19 -52 -43l155 -98v-418 q0 -20 -7.5 -38t-24 -31t-42 -21t-61.5 -8t-65 9t-49 26t-31 42t-11 56zM134 131q0 -24 7 -39.5t18 -25t23 -13.5t23 -4q10 0 18.5 2.5t8.5 14.5v168q-52 -4 -75 -31t-23 -72z" />
<glyph unicode="&#xe27;" horiz-adv-x="710" d="M2 629q23 30 50.5 55.5t62.5 44.5t78 29t97 10q72 0 126 -14t90.5 -35.5t57 -48t26.5 -54.5v-520q0 -51 -40 -76q-42 -26 -112 -26q-33 0 -62 9t-50.5 28t-34.5 48t-13 69q0 44 16 75.5t40 51t53 26.5t55 2v299q-2 14 -14 32t-34.5 34t-54 26t-69.5 10t-69 -9t-57 -24 t-46 -35q-21 -18 -37 -40zM328 148q0 -24 8 -43t20 -32t27 -19.5t27 -6.5q22 0 29 6.5t7 18.5v192q-24 2 -46 -5.5t-38 -23t-25 -37.5t-9 -50z" />
<glyph unicode="&#xe28;" horiz-adv-x="909" d="M116 0v598q2 18 14 36.5t34 37t52 34.5t67 29t80 20t91 7q68 0 124.5 -14t100.5 -36q21 29 37 59q16 29 28 61l104 -48q-32 -69 -88 -129q14 -16 22 -31q10 -16 12 -30v-594h-148v559q-26 -16 -52 -30.5t-54 -25.5q20 -18 30 -42.5t10 -50.5q0 -60 -29 -95t-83 -35 q-28 0 -49 11t-34 27.5t-19 35.5t-5 35q0 10 2 21q3 10 9 22q-14 -16 -30 -38t-30 -49t-27 -58t-22 -63v-224h-147zM263 383q12 24 30 48.5t40.5 44.5t49 34.5t56.5 18.5q56 23 100.5 52t80.5 63q-22 24 -64 41t-104 17q-48 0 -82.5 -11t-57 -27t-34.5 -35t-15 -35v-211z M415.5 393.5q1.5 -16.5 8 -30t18.5 -22.5t28 -9q19 0 31 10t17.5 26t5 34t-7 33t-19.5 25.5t-31 10.5h-10q-16 -5 -25 -17t-13 -28t-2.5 -32.5z" />
<glyph unicode="&#xe29;" horiz-adv-x="951" d="M47 631q0 32 10.5 56.5t31 40.5t49.5 25t65 9t61.5 -7.5t42 -21t24 -30.5t7.5 -37v-537q2 -14 16 -29t38 -26.5t56 -19t69 -7.5q38 0 69.5 8.5t53.5 21t35 27t15 25.5v189q-19 -13 -43.5 -20t-47.5 -8q-52 -3 -90.5 11t-64.5 38.5t-38.5 56.5t-11.5 65q0 23 7.5 44 t21.5 37t34 26q19 10 45 10q28 0 49 -10t35 -26t20 -38t6 -45q0 -20 -5 -39t-14 -34.5t-21 -26.5t-26 -15q4 -2 11 -4t15 -2.5t16 -0.5t14 1q28 2 50 14t38 28v374h145v-604q-3 -28 -28 -57t-68 -52t-101 -37t-126 -14q-69 0 -126 14t-99 36t-67 49q-26 27 -30 53v250 q0 16 0.5 31t1.5 27q1 14 2 25q-26 0 -52.5 8.5t-47.5 27t-34 48t-13 72.5zM98 626q0 -44 23 -70q23 -28 75 -32v153q0 13 -7 21t-24 8q-10 0 -22 -4t-21.5 -14t-16.5 -25t-7 -37zM452 462q-1 -14 3 -29t10.5 -28t16.5 -23q9 -10 19 -12q14 6 25.5 16t18.5 22t10.5 25 t3.5 25t-3.5 24.5t-10.5 22t-17.5 14.5t-24.5 5q-12 0 -21.5 -5t-16.5 -14t-10 -20t-3 -23z" />
<glyph unicode="&#xe2a;" horiz-adv-x="889" d="M106 628q23 30 56.5 56t76.5 44t94 28t108 10q73 0 130 -14t100 -36q37 52 63 116l106 -48q-20 -37 -42 -68q-22 -32 -48 -61q20 -25 24 -48v-607h-148v278q-18 30 -43.5 58t-56 49t-64 34t-66.5 13q-34 0 -56.5 -9t-36 -23t-19.5 -29.5t-6 -28.5v-43l-4 -17q28 -1 55 -9 t48 -26.5t34 -47.5t13 -72q0 -32 -11 -56.5t-31 -41.5t-49 -26t-65 -9t-62 8t-42 21t-23.5 31t-7.5 38v203q0 82 45.5 129.5t127.5 61.5q188 52 298 154q-12 13 -31 24.5t-44 20.5t-55 14q-32 5 -68 5q-39 0 -75.5 -9t-67.5 -24t-56 -35t-41 -41zM274 66q0 -6 2.5 -9t6 -4 t8.5 -1.5t10 -0.5q10 0 22.5 3.5t23.5 12.5t18 24.5t7 39.5q0 44 -23 71q-23 28 -75 32v-168zM468 482q52 -14 94 -43.5t70 -63.5q-2 10 -3 24q-1 12 -2 27.5t-1 36.5v90q-72 -44 -158 -71z" />
<glyph unicode="&#xe2b;" horiz-adv-x="935" d="M58 631q0 32 10.5 56.5t31 40.5t49.5 25t65 9t61 -7.5t42 -21t24 -30.5t7 -37v-298q0 -32 -2.5 -65t-5.5 -61q-4 -32 -8 -62q26 53 61 102t74 91.5t81 76.5t83 56l-9 9t-8 7q-9 8 -17.5 19.5t-14.5 25t-10 29.5t-4 32q0 34 11.5 59t31 42t44.5 25t51 8q29 0 54.5 -8.5 t44 -25.5t29 -42.5t10.5 -59.5q0 -18 -5 -36.5t-15.5 -35.5t-27 -30.5t-38.5 -22.5q18 -14 30 -29.5t19.5 -31.5t10.5 -32.5t3 -32.5v-375h-145v396v14.5t-1 20t-3 20t-6 13.5q-36 -26 -67.5 -53t-60.5 -58t-56 -67t-53 -79t-52 -94t-53 -113h-123v392q0 16 0.5 31t0.5 27 q0 14 2 25q-26 0 -52 8.5t-47 27t-34 48t-13 72.5zM109 626q0 -44 23 -70q23 -28 75 -32v153q0 13 -7 21q-6 8 -24 8q-10 0 -22 -4t-22 -14t-16.5 -25t-6.5 -37zM626 628q0 -16 6 -30t16.5 -26t24 -21t27.5 -17q86 28 86 99q0 19 -6.5 34t-17.5 26t-25 17q-15 5 -29 5 q-16 0 -31 -5.5t-26 -16.5t-18 -27t-7 -38z" />
<glyph unicode="&#xe2c;" horiz-adv-x="997" d="M47 631q0 32 10.5 56.5t31 40.5t49.5 25t65 9t61.5 -7.5t41.5 -21t23 -30.5t7 -37v-384q0 -18 -2 -39t-4 -39q-2 -21 -6 -42l194 297h41l190 -297q-4 26 -6 50q-1 10 -2 20.5t-2 20t-1.5 18t-0.5 14.5v317q-14 -6 -25.5 -9.5t-24 -6t-26 -3.5t-29.5 -1q-38 0 -71 7 t-58 22t-40 37t-15 50t16 49t43 35t61 20.5t70 6.5q34 0 63 -5t53.5 -13.5t43.5 -20.5t33 -26q6 8 12.5 16t11 18t8.5 22t7 26l74 -11q-4 -17 -11.5 -35t-17 -36t-21.5 -33t-24 -27q4 -12 8 -34t4 -56v-594h-112l-232 381l-239 -381h-109v392q0 16 0.5 31t1.5 27q1 14 2 25 q-26 0 -52.5 8.5t-47.5 27t-34 48t-13 72.5zM98 626q0 -44 23 -70q23 -28 75 -32v153q0 13 -7 21t-24 8q-10 0 -22 -4t-21.5 -14t-16.5 -25t-7 -37zM510 698q0 -14 8 -26.5t23.5 -21.5t37.5 -14q21 -5 49 -5q34 0 59 8q25 9 49 23v10q0 23 -10 39.5t-26 27.5t-36 16t-38 5 q-26 0 -47 -4.5t-36.5 -12.5t-24 -19.5t-8.5 -25.5z" />
<glyph unicode="&#xe2d;" horiz-adv-x="865" d="M70 628q23 30 56.5 56t77.5 44t98 28t118 10q76 0 134.5 -15t100 -38t65.5 -51t30 -55v-465q-4 -26 -26.5 -53t-62 -50t-95.5 -37t-128 -14q-74 0 -131 14t-96.5 37t-62.5 51q-22 30 -26 58v280q0 20 7.5 38t24 31.5t42.5 20.5q24 8 60 8q74 0 115 -35t41 -98 q0 -43 -13 -72t-33 -47.5t-47 -27t-55 -8.5l2 -33v-65q4 -12 15 -28t31.5 -30t51.5 -24q32 -9 76 -9q39 0 68.5 8.5t50 21.5t31 29t10.5 29v465q-3 18 -18.5 36t-42.5 33t-65.5 24t-88.5 9q-39 0 -78 -9t-73 -24t-61 -35t-43 -41zM264 286q52 5 74.5 32t22.5 71 q0 24 -6.5 39.5t-17.5 24.5t-23 12.5t-23 3.5q-4 0 -9 -0.5t-8.5 -1.5t-6.5 -4t-3 -9v-168z" />
<glyph unicode="&#xe2e;" horiz-adv-x="865" d="M84 618q0 32 25.5 59.5t68 47t99.5 30.5t119 11q42 0 77 -3t64 -9t53 -14t44 -17q13 19 23.5 42.5t17.5 53.5l94 -26q-4 -17 -10.5 -33.5t-15.5 -31t-19 -27.5t-19 -23q10 -8 18 -18t14 -20t9.5 -19t3.5 -15v-464q-4 -26 -26.5 -53t-62 -50t-95.5 -37t-128 -14 q-74 0 -131 14t-96.5 37t-62.5 51q-22 30 -26 58v210q0 20 7.5 38t24 31.5t42.5 20.5q24 8 60 8q74 0 115 -35t41 -98q0 -43 -13 -71.5t-33 -46t-47 -25.5t-55 -8l2 -17v-15q4 -12 15 -28t31.5 -30t51.5 -24q32 -9 76 -9q39 0 68.5 8.5t50 21.5t31 29t10.5 29v425q0 4 -1 8 t-2 6q-3 3 -3 5q-20 -15 -47 -28t-59 -23t-69 -15.5t-78 -5.5q-49 0 -95 6.5t-82 19.5t-58 33t-22 50zM176 622q0 -10 8 -17t21 -13t30 -10t36 -6t38 -3t37 -1q57 0 109 17t106 55q-8 10 -24 20t-39 19t-52.5 14.5t-65.5 5.5q-38 0 -74 -7.5t-65 -18.5t-47 -25 q-18 -16 -18 -30zM264 222q52 5 74.5 29t22.5 68q0 24 -6.5 39.5t-17.5 24.5t-23 12.5t-23 3.5q-9 0 -18 -6.5t-9 -18.5v-152z" />
<glyph unicode="&#xe2f;" horiz-adv-x="803" d="M74 620q0 34 11 60.5t29 44t40.5 26.5t46.5 9q28 0 52 -7.5t42 -24t28.5 -42.5t10.5 -62q0 -26 -8.5 -48.5t-21 -40t-27.5 -29.5t-27 -16q22 -14 48 -18.5t50 -4.5q29 0 62.5 14t64 47.5t53 88.5t28.5 137h118v-539q0 -120 -67 -188.5t-207 -96.5l-23 73q54 14 84 35 t44.5 45.5t17.5 50.5t3 48v189l6 113q-13 -20 -33.5 -36.5t-45.5 -28t-53 -17.5t-58 -6q-32 0 -64 7t-62 20.5t-56 33t-45 44.5t-30 55t-11 64zM142 626q0 -22 5 -38t12.5 -28.5t16.5 -21.5q8 -8 16 -14q14 0 28 11t24 25t16 30.5t6 29.5q0 40 -15.5 60t-49.5 20 q-13 0 -24 -6.5t-19 -17t-12 -23.5t-4 -27z" />
<glyph unicode="&#xe30;" horiz-adv-x="696" d="M91 171q0 26 9 49.5t26.5 41.5t41.5 30q24 11 56 11t57 -10t42.5 -27.5t26 -41.5t8.5 -51q0 -20 -4 -36.5t-12 -29.5t-18 -23t-20 -14h14q34 0 67 15t57 44t36 71.5t6 97.5l117 -14q-2 -70 -25.5 -123t-62.5 -87.5t-89 -51.5t-103 -17q-52 0 -94.5 10.5t-72.5 31.5 t-46.5 52t-16.5 72zM91 616q0 26 9 49.5t26.5 42t41.5 29.5t56 11t57 -10t42.5 -27.5t26 -41t8.5 -51.5q0 -20 -4 -36.5t-12 -30t-18 -22.5t-20 -15h14q34 0 67 15t57 44t36 72t6 98l117 -15q-2 -70 -25.5 -122.5t-62.5 -87t-89 -51.5t-103 -17q-52 0 -94.5 10.5t-72.5 31 t-46.5 51.5t-16.5 73zM161 171q0 -18 6.5 -34t17.5 -27.5t23 -19.5q12 -6 22 -8q12 4 23 13t18.5 20t12 23.5t4.5 25.5q0 38 -17.5 57t-47.5 19q-13 0 -24 -5.5t-20 -15t-13.5 -22t-4.5 -26.5zM161 616q0 -18 6.5 -34t17.5 -28t23 -19t22 -9q12 4 23 13t18.5 20.5t12 24.5 t4.5 26q0 38 -17.5 56.5t-47.5 18.5q-13 0 -24 -5.5t-20 -15t-13.5 -22t-4.5 -26.5z" />
<glyph unicode="&#xe31;" d="M-575 1073q0 30 9.5 55t27 43.5t43 28.5t57.5 10t56 -10t41 -28t26 -42t9 -50q0 -19 -6 -37.5t-16 -33.5t-25 -26t-33 -15q12 -4 24 -6t25 -3.5t25 -2t22 -0.5q51 0 95.5 19t78.5 52t57 79t31 100l106 -16q-18 -69 -50.5 -124.5t-80 -93.5t-109.5 -59t-139 -21 q-63 0 -114 15t-86.5 39.5t-54.5 57t-19 69.5zM-504 1080q0 -21 6 -36.5t16 -25t20 -14.5q12 -4 20 -4q12 0 23.5 4.5t21 14t16 25t6.5 36.5q0 20 -5.5 34.5t-14.5 24.5t-21 15t-26 5q-13 0 -24.5 -6t-19.5 -16.5t-13 -25.5t-5 -31z" />
<glyph unicode="&#xe32;" horiz-adv-x="638" d="M5 656q18 24 42 44t55 35t69 23t84 8q65 0 114 -12t82 -31t51 -43t21 -49v-631h-147v620q-5 18 -15.5 34t-28.5 27t-43.5 17t-60.5 6q-24 0 -47 -5t-44 -15t-39 -25q-20 -15 -34 -33z" />
<glyph unicode="&#xe33;" horiz-adv-x="638" d="M-372 1079q0 30 10 58.5t30.5 50.5t54 35t80.5 13q48 0 81.5 -13t54 -35t29.5 -50.5t9 -58.5q0 -28 -10.5 -55.5t-32.5 -49.5t-54.5 -35t-76.5 -13q-42 0 -74.5 13t-54.5 34t-34 48.5t-12 57.5zM-274 1081q0 -25 9 -47t25.5 -36t42.5 -14q25 0 42 14t25 36t8 47t-8 47 t-25 36t-42 14q-26 0 -42.5 -14t-25.5 -36t-9 -47zM5 656q18 24 42 44t55 35t69 23t84 8q65 0 114 -12t82 -31t51 -43t21 -49v-631h-147v620q-5 18 -15.5 34t-28.5 27t-43.5 17t-60.5 6q-24 0 -47 -5t-44 -15t-39 -25q-20 -15 -34 -33z" />
<glyph unicode="&#xe34;" d="M-783 996q0 38 24.5 68t64.5 50t91 30t105 10q126 0 219 -54.5t161 -157.5q12 -20 14 -39t-4 -31t-19 -16t-29 5q-50 24 -111 40.5t-127 24t-135 6t-135 -11.5q-57 -10 -88 11.5t-31 64.5zM-658 1003q0 -8 7 -14t21 -4q45 6 99.5 7.5t111.5 -4t115 -18t110 -33.5l2 6 q-26 36 -60 63t-74 45.5t-82 28.5t-84 10q-40 0 -71 -7t-52 -18.5t-32 -27.5t-11 -34z" />
<glyph unicode="&#xe35;" d="M-783 996q0 38 24.5 68t64.5 50t91 30t105 10q72 0 132 -18t112 -52v176h128v-306l4 -6l4 -6q12 -20 14 -39t-4 -31t-19 -16t-29 5q-50 24 -111 40.5t-127 24t-135 6t-135 -11.5q-57 -10 -88 11.5t-31 64.5zM-658 1003q0 -8 7 -14t21 -4q45 6 99.5 7.5t111.5 -4t115 -18 t110 -33.5l2 6q-26 36 -60 63t-74 45.5t-82 28.5t-84 10q-40 0 -71 -7t-52 -18.5t-32 -27.5t-11 -34z" />
<glyph unicode="&#xe36;" d="M-783 996q0 38 24.5 68t64.5 50t91 30t105 10q82 0 150 -24v5v5q0 18 7 40t22 40.5t40 31t61 12.5q40 0 67 -16t42 -42t18.5 -56t-4 -58t-26 -49.5t-46.5 -28.5l-5 -2q28 -32 54 -70q12 -20 14 -39t-4 -31t-19 -16t-29 5q-50 24 -111 40.5t-127 24t-135 6t-135 -11.5 q-57 -10 -88 11.5t-31 64.5zM-658 1003q0 -8 7 -14t21 -4q45 6 99.5 7.5t111.5 -4t115 -18t110 -33.5l2 6q-26 36 -60 63t-74 45.5t-82 28.5t-84 10q-40 0 -71 -7t-52 -18.5t-32 -27.5t-11 -34zM-277 1132q0 -18 6.5 -33t19.5 -25t33 -10t33 10t20 25t7 33t-7 33t-20 25 t-33 10t-33 -10t-19.5 -25t-6.5 -33z" />
<glyph unicode="&#xe37;" d="M-783 996q0 38 24.5 68t64.5 50t91 30t105 10h5h5v105h129v-125q57 -18 105 -50v176h128v-306l4 -6l4 -6q12 -20 14 -39t-4 -31t-19 -16t-29 5q-50 24 -111 40.5t-127 24t-135 6t-135 -11.5q-57 -10 -88 11.5t-31 64.5zM-658 1003q0 -8 7 -14t21 -4q45 6 99.5 7.5 t111.5 -4t115 -18t110 -33.5l2 6q-26 36 -60 63t-74 45.5t-82 28.5t-84 10q-40 0 -71 -7t-52 -18.5t-32 -27.5t-11 -34z" />
<glyph unicode="&#xe38;" d="M-386 -216q0 27 9 49.5t26 38.5t42 25t56 9q32 0 55.5 -7.5t39 -20t23 -29.5t7.5 -34v-274h-125v113q-26 -1 -49.5 5.5t-42.5 21.5t-30 40t-11 63zM-335 -220q0 -38 19 -59t65 -26v137q0 12 -6.5 17t-16.5 5t-20.5 -3.5t-19.5 -12t-15 -23t-6 -35.5z" />
<glyph unicode="&#xe39;" d="M-620 -214q0 27 9 49t26 37.5t42 24.5t56 9q32 0 54.5 -7t36.5 -18.5t21 -27t7 -33.5v-191q2 -17 17 -27t40 -10q26 0 41.5 10.5t17.5 26.5v271h124v-266q-2 -28 -18 -47t-41 -31t-57 -16.5t-67 -4.5q-36 0 -66.5 4.5t-54.5 16.5t-38.5 31t-16.5 47v20q-26 -1 -49.5 5.5 t-42.5 22.5t-30 41t-11 63zM-569 -220q0 -38 19.5 -59t64.5 -26v143q0 9 -7.5 12.5t-15.5 3.5q-9 0 -19.5 -3.5t-19.5 -12t-15.5 -23t-6.5 -35.5z" />
<glyph unicode="&#xe3a;" d="M-284 -191.5q0 25.5 10 47t31 36t51 14.5t50 -14.5t29.5 -36t10 -47t-9.5 -47t-30 -36t-50 -14.5t-51 14.5t-31 36t-10 47z" />
<glyph unicode="&#xe3e;" />
<glyph unicode="&#xe3f;" horiz-adv-x="870" d="M48 0v76h108v760h-108v76h370v100h86v-101q57 -3 106.5 -19t85.5 -44t56.5 -67.5t20.5 -90.5q0 -37 -12.5 -70.5t-35.5 -60.5t-55 -45t-73 -24q20 -4 43.5 -13t46.5 -23t44 -33t37 -42t26 -52t10 -61q0 -64 -26 -113t-67.5 -82t-95.5 -51t-111 -20v-102h-86v102h-370z M306 76h112v372h-112v-372zM306 520h112v316h-112v-316zM504 82q32 6 57 18.5t43 34t28 54t10 77.5q0 37 -10.5 66.5t-29 51t-44 36t-54.5 21.5v-359zM504 524q28 5 51 18.5t38 34t23 47t8 56.5q0 31 -9 56.5t-25 45t-38 32.5q-22 12 -48 18v-308z" />
<glyph unicode="&#xe40;" horiz-adv-x="482" d="M144 92v662h144v-428l-2 -44q28 -1 54 -9t47.5 -26.5t34.5 -47.5t13 -72q0 -32 -10.5 -56.5t-31 -41.5t-49.5 -26t-65 -9t-61.5 8t-42 21t-24 31t-7.5 38zM286 66q0 -6 2 -9t6 -4t9 -1.5t9 -0.5q10 0 23 3.5t23.5 12.5t18 24.5t7.5 39.5q0 44 -23 71q-23 28 -75 32v-168z " />
<glyph unicode="&#xe41;" horiz-adv-x="867" d="M144 92v662h144v-428l-2 -44q28 -1 54 -9t47.5 -26.5t34.5 -47.5t13 -72q0 -32 -10.5 -56.5t-31 -41.5t-49.5 -26t-65 -9t-61.5 8t-42 21t-24 31t-7.5 38zM286 66q0 -6 2 -9t6 -4t9 -1.5t9 -0.5q10 0 23 3.5t23.5 12.5t18 24.5t7.5 39.5q0 44 -23 71q-23 28 -75 32v-168z M524 92v662h144v-428l-2 -44q28 -1 54 -9t47.5 -26.5t34.5 -47.5t13 -72q0 -32 -10.5 -56.5t-31 -41.5t-49.5 -26t-65 -9t-61.5 8t-42 21t-24 31t-7.5 38zM666 66q0 -6 2 -9t6 -4t9 -1.5t9 -0.5q10 0 23 3.5t23.5 12.5t18 24.5t7.5 39.5q0 44 -23 71q-23 28 -75 32v-168z " />
<glyph unicode="&#xe42;" horiz-adv-x="510" d="M-34 1143q12 34 33 60t50 43t64 25.5t75 8.5q36 0 66 -10t56 -22t49 -24t45 -16.5t43 2t45 31.5l41 -35q-32 -35 -62 -47.5t-59 -11.5t-57 12t-55.5 23.5t-55.5 23t-56 10.5q-16 0 -31.5 -4t-29.5 -11.5t-25 -18.5q-12 -12 -18 -27q53 -30 97 -55q18 -10 36.5 -21 t34.5 -20t28 -16t16 -9q22 -12 29 -29t7 -41v-638l-4 -44q28 -1 55 -8.5t48 -24.5t34 -45.5t13 -71.5q0 -32 -11 -57t-31 -43t-49 -28t-65 -10t-61.5 8t-42 21t-24 31t-7.5 38v887q0 8 -3 18q-4 11 -14 15q-2 1 -11.5 7t-24 15.5t-32.5 21.5q-20 12 -38 24q-44 28 -98 63z M328 66q0 -6 3 -9t6.5 -4t8 -1.5t9.5 -0.5q10 0 22.5 4.5t23.5 14.5t18 26t7 40q0 45 -22 69q-24 25 -76 29v-168z" />
<glyph unicode="&#xe43;" horiz-adv-x="520" d="M-16 1058q0 52 16 92t45 68.5t67 43.5q40 15 84 15q52 0 93 -16.5t69.5 -46.5t43.5 -72q16 -44 16 -96q0 -61 -19 -117.5t-53 -100.5q-3 -5 -5.5 -11.5t-2.5 -19.5v-471l-4 -44q28 -1 54 -8.5t47.5 -24.5t34.5 -45.5t13 -71.5q0 -32 -10.5 -57t-31 -43t-49.5 -28t-65 -10 t-61.5 8t-42 21t-24 31t-7.5 38v670q0 10 4 18.5t10 14.5q23 23 47.5 49t45 57t34 68t13.5 79q0 40 -13 72t-34 53.5t-48 33t-53 11.5q-24 0 -44 -5t-36 -14t-28 -22t-22 -27q11 2 25.5 0.5t29.5 -6.5t29 -13.5t26 -21.5t18.5 -31t6.5 -40q0 -27 -9.5 -48t-24.5 -35.5 t-34 -21.5t-41 -6q-20 0 -40 7.5t-35.5 24t-25 41t-9.5 58.5zM42 1050q0 -18 5 -31t12.5 -22t17 -14t19.5 -5t20 4t17.5 11.5t12 19t4.5 27.5q0 17 -8.5 29.5t-22.5 21.5t-31.5 12.5t-35.5 1.5q-10 -25 -10 -55zM334 66q0 -6 2 -9t6 -4t9 -1.5t9 -0.5q10 0 23 4.5t23.5 14.5 t18 26t7.5 40q0 45 -23 69q-23 25 -75 29v-168z" />
<glyph unicode="&#xe44;" horiz-adv-x="520" d="M-71 1226q7 6 18 15t21 15q4 2 9 2t9.5 -2t8 -5t7.5 -7q10 -14 18.5 -31t16 -35.5t13.5 -37t12 -36.5q3 -14 8 -37q6 -23 10 -53q10 34 19 57.5t13 34.5q6 18 16 38.5t19 39t16 32t9 17.5q6 12 15 18t19 7t20 -2q12 -4 22 -11q16 -9 30 -19l24 -16q14 -8 20 -12 q9 -6 14.5 -14t5.5 -20l1 -838l-4 -44q28 -1 54.5 -8.5t47.5 -24.5t34 -45.5t13 -71.5q0 -32 -10.5 -57t-31 -43t-49.5 -28t-65 -10t-61 8t-42 21t-24 31t-7 38v709q0 26 3 58t7.5 66.5t10.5 69.5t11.5 65t10.5 54t9 38l-31 18l-103 -216q-9 -18 -22.5 -24t-26.5 -3t-24 14 t-15 27q-8 34 -16 64t-16.5 57.5t-18 53t-19.5 52.5q-2 6 -10 15.5t-19 15.5zM339 66q0 -6 2.5 -9t6.5 -4t8 -1q6 -1 10 -1q10 0 22.5 4.5t23 14.5t18 26t7.5 40q0 45 -23 69q-22 25 -75 29v-168z" />
<glyph unicode="&#xe45;" horiz-adv-x="638" d="M5 656q18 24 42 44t55 35t69 23t84 8q65 0 114 -12t82 -31t51 -43t21 -49v-953h-147v942q-5 18 -15.5 34t-28.5 27t-43.5 17t-60.5 6q-24 0 -47 -5t-44 -15t-39 -25q-20 -15 -34 -33z" />
<glyph unicode="&#xe46;" horiz-adv-x="844" d="M100 538q0 52 15.5 92.5t40 69.5t56.5 46q30 18 62 22l136 -94l126 90q46 -4 82 -19t60.5 -37t37.5 -48t13 -52v-928h-137v928q-1 5 -3.5 15.5t-8 22t-15 22t-25.5 14.5l-132 -90l-140 96q-11 -4 -21.5 -13t-19 -20t-15 -25t-7.5 -28q29 -2 62 -10t60 -26t45 -45t18 -67 q0 -26 -10 -47t-26 -36.5t-37 -24t-44 -8.5q-36 0 -67.5 11t-55 35.5t-36.5 62.5q-14 37 -14 91zM199 534q-2 -34 4 -59t16.5 -42t25 -26t30.5 -9q22 0 36 15.5t14 43.5q0 18 -8.5 33.5t-24.5 27.5t-40 18.5t-53 6.5v-9z" />
<glyph unicode="&#xe47;" d="M-705 1102q0 44 14.5 82.5t43.5 67.5t74 46t105 17q34 0 59 -1.5t46 -3t39 -2.5q18 -2 40 -2q24 0 43 5t33.5 17t25 33t18.5 54l76 -63q-10 -40 -29 -63t-42.5 -34t-50 -13t-50.5 -3q-44 -2 -95 1t-113 3q-26 0 -46.5 -11.5t-36 -30.5t-23.5 -43.5t-8 -51.5 q0 -51 14.5 -86.5t36.5 -51.5l51 76q6 9 16 16.5t20 9t20 -4t16 -23.5q12 -34 31 -56t40 -33t43 -11t40 8q-18 4 -30.5 13.5t-20.5 23t-11.5 29.5t-3.5 32q0 21 7.5 39.5t21 31.5t32.5 20.5t43 7.5q20 0 39 -7t33.5 -20.5t23 -32.5t8.5 -43q0 -34 -13.5 -63t-38 -50 t-58.5 -32.5t-74 -11.5q-30 0 -54 6.5t-42 17.5t-32 26t-23 31l-55 -77q-49 -4 -87 12.5t-63.5 46.5t-39 70t-13.5 82zM-261 1042q0 -18 12.5 -35.5t38.5 -31.5q6 4 13.5 10t14 14.5t10.5 20t4 28.5q0 8 -3 17t-9 15.5t-15 11t-21 4.5q-24 0 -34.5 -15t-10.5 -39z" />
<glyph unicode="&#xe48;" d="M-250 1358v284h119v-284h-119z" />
<glyph unicode="&#xe49;" d="M-504 1339v47q22 0 44 2t40.5 8t33.5 16q14 10 24 25q-7 -3 -12 -3q-6 -2 -11 -2q-16 -1 -33.5 6.5t-32.5 21.5t-25 36t-10 50q0 25 8 46.5t24 38t39 26t53 9.5q32 0 56 -9t40 -25t23.5 -38t7.5 -48q0 -22 -6 -43t-16.5 -40t-24.5 -36t-28 -29l-13 -10q14 1 27.5 3.5 t30.5 6.5q46 12 80.5 35t59 55t40 74.5t23.5 94.5l104 -11q-11 -40 -26 -78.5t-36.5 -73t-51 -64.5t-69.5 -51.5t-91.5 -34t-117.5 -12.5h-33.5t-43 1t-43 2t-34.5 4zM-424 1550q0 -28 17 -47.5t45 -19.5q12 0 24 4.5t20.5 13.5t13.5 21.5t5 27.5t-4.5 27.5t-12.5 21 t-19.5 13.5t-24.5 5q-16 0 -28 -5.5t-20 -15.5t-12 -22t-4 -24z" />
<glyph unicode="&#xe4a;" d="M-554 1488q0 26 8 55t27 54t50 41t77 15l79 -79l75 77q36 2 63 -9t45.5 -31.5t28 -48.5t9.5 -63q0 -10 -2.5 -24.5t-7 -30.5t-11.5 -32t-17 -26l8 -2q24 12 41 38t27 61.5t12 78.5q2 44 -2 92l84 -10q-2 -39 -7 -76.5t-14.5 -71.5t-24.5 -63t-35.5 -50.5t-47.5 -34.5 q-27 -12 -60 -14q-13 0 -25 1.5t-19 7t-8 15.5q-1 12 8 28q13 22 21 51t8 60q0 36 -14 61.5t-42 38.5l-82 -81h-23l-84 81q-10 -1 -20.5 -5t-19 -13t-15 -21t-9.5 -30q30 -1 54 -10t40.5 -23.5t24.5 -34t8 -39.5q0 -15 -5 -30t-15 -27t-25 -20t-37 -8q-30 -1 -53.5 9.5 t-39.5 30.5t-24.5 48t-8.5 64zM-480 1475q-4 -43 10.5 -66t39.5 -23q12 0 23 8.5t11 26.5q0 12 -7 23.5t-18 20.5t-26 15t-31 8q0 -2 -1 -6t-1 -7z" />
<glyph unicode="&#xe4b;" d="M-373 1460v88h125v114h116v-114h126v-88h-126v-109h-116v109h-125z" />
<glyph unicode="&#xe4c;" d="M-316 1304q0 26 10 51t30 45t47 32q27 14 62 16q42 3 70.5 11t46.5 22.5t30 34.5t22 48l76 -38q-20 -37 -45 -62.5t-55 -41t-66.5 -22t-78.5 -6.5q-7 0 -13.5 -1t-11.5 -3q-6 -2 -10 -4v-2q19 2 36.5 -4t30.5 -18.5t20.5 -30t7.5 -39.5t-6.5 -41t-19 -34t-31.5 -23 q-20 -8 -44 -8q-28 0 -48.5 9t-34 25t-19.5 37.5t-6 46.5zM-252 1286q0 -23 12 -38q10 -14 32 -14q11 0 19.5 5t14.5 13t9 17.5t3 18.5q0 22 -12 37t-34 15q-18 0 -31 -15t-13 -39z" />
<glyph unicode="&#xe4d;" d="M-372 1079q0 30 10 58.5t30.5 50.5t54 35t80.5 13q48 0 81.5 -13t54 -35t29.5 -50.5t9 -58.5q0 -28 -10.5 -55.5t-32.5 -49.5t-54.5 -35t-76.5 -13q-42 0 -74.5 13t-54.5 34t-34 48.5t-12 57.5zM-274 1081q0 -25 9 -47t25.5 -36t42.5 -14q25 0 42 14t25 36t8 47t-8 47 t-25 36t-42 14q-26 0 -42.5 -14t-25.5 -36t-9 -47z" />
<glyph unicode="&#xe4e;" d="M-248 946v127l72 88l-72 82v125q0 20 10 37t27 29t40 16t51 -4v-192l79 -93l-79 -96v-193q-28 -8 -51 -4.5t-40 14t-27 27.5t-10 37z" />
<glyph unicode="&#xe4f;" horiz-adv-x="1123" d="M64 424q0 66 17 124t49 107t77 87t100 64t119 40t134 14t134 -14t119 -40t100 -64t76.5 -86t49 -106t17.5 -125q0 -100 -36 -180.5t-100.5 -136.5t-156 -86t-203.5 -30q-114 0 -206 30t-156 86t-99 136t-35 180zM211 424q0 -82 26 -148t72.5 -112t110.5 -70.5t140 -24.5 t140 25t110 71.5t72 111.5t26 147q0 73 -25 136.5t-71 111t-110 75t-142 27.5t-142.5 -27.5t-110 -75t-71 -111t-25.5 -136.5zM306 422q0 54 20.5 97t55 73t80.5 46.5t98 16.5q50 0 96 -16.5t80.5 -46.5t55 -73t20.5 -97t-20.5 -97t-55 -73t-80.5 -46.5t-96 -16.5 q-51 0 -97.5 16.5t-81 46.5t-55 73t-20.5 97zM425 426q0 -34 10 -61t28 -47t42.5 -31t54.5 -11t55 11t43 31t27.5 47t9.5 61q0 33 -9.5 60.5t-27.5 47t-42 30.5q-26 11 -56 11t-54.5 -11t-42.5 -30.5t-28 -47t-10 -60.5z" />
<glyph unicode="&#xe50;" horiz-adv-x="1006" d="M72 279v121q2 22 12 52.5t30.5 63t53 64t80.5 56.5t112 40.5t146 15.5t144.5 -16t109 -42t78.5 -58t52.5 -65t30 -62t11.5 -49v-124q0 -18 -9.5 -46t-30 -60t-53.5 -64t-81 -58t-111 -42t-145 -16q-87 0 -152.5 16.5t-112.5 42.5t-78 58.5t-50 64.5t-27 60.5t-10 46.5z M214 289q4 -44 23 -85.5t55 -73.5t88.5 -51t123.5 -19q68 0 119.5 15t87 44t55.5 71t25 94v120q-4 26 -12.5 52t-23.5 50t-37 45t-53 36t-70.5 24t-90.5 9q-52 0 -93 -9t-72 -25.5t-53.5 -38t-37.5 -45.5t-23 -49q-9 -25 -11 -49v-115z" />
<glyph unicode="&#xe51;" horiz-adv-x="1006" d="M64 329q0 90 33 157.5t92 112t140.5 66.5t178.5 22q72 0 133 -14t109 -38.5t84 -58.5t60 -74t36 -84t12 -88v-70q0 -66 -25 -133t-75 -125.5t-125 -102t-175 -63.5l-18 72q70 16 120 51.5t81.5 84t46 104.5t14.5 112v70q0 30 -6 62.5t-20 64t-35.5 60.5t-52 51t-71.5 35 t-93 13q-68 0 -120.5 -20t-88.5 -58t-54.5 -92t-18.5 -122q0 -66 13 -113t36 -79t54 -48t67 -18q20 -1 41 2.5t40 10t34 16t21 20.5q-26 3 -49.5 14.5t-41.5 30t-28.5 43.5t-10.5 55q0 28 9 50t25 38t38 24t49 8q28 0 51.5 -9.5t39.5 -27t25.5 -41.5t9.5 -52 q0 -44 -17.5 -89.5t-51 -81.5t-82 -58.5t-111.5 -22.5q-68 0 -127.5 20t-103 61.5t-68 104t-24.5 147.5zM460 256q0 -16 7 -32t20 -29t32 -22t44 -13q10 13 18 37.5t8 55.5q0 15 -5 28t-13.5 22t-20.5 14.5t-26 5.5t-25.5 -4.5t-20 -13t-13.5 -21t-5 -28.5z" />
<glyph unicode="&#xe52;" horiz-adv-x="1005" d="M0 768l88 64q26 -19 47 -45.5t36 -56.5t23.5 -64t8.5 -68v-381q8 -34 34.5 -62.5t68 -48t96 -30t118.5 -10.5q74 0 126.5 12t87 32t53.5 45.5t24 53.5v266q-2 20 -6.5 38.5t-13.5 34.5t-22 27t-33 18l-124 -116h-18l-129 119q-16 -4 -33.5 -16t-31.5 -30t-24 -40t-12 -46 q38 4 71 -4t59 -26t41 -45t15 -59q0 -26 -9 -48t-25.5 -38.5t-39.5 -25.5q-22 -10 -50 -10q-42 0 -71 19t-46 50t-25 69t-8 76q0 57 14.5 103t42 78.5t67.5 50.5t90 20l112 -102l112 102q28 0 57 -7t56 -19t51 -30t42 -41.5t29 -51.5t11 -60v-223q-6 -52 -38.5 -98t-89 -81 t-135.5 -55t-179 -20q-85 0 -164 16.5t-142 49t-105.5 79.5t-53.5 109v356q0 40 -11.5 83t-41.5 87zM356.5 358q1.5 -26 9.5 -46t23 -33t39 -13q28 0 45 17t17 43q0 24 -10 40t-28 26.5t-42 15t-52 2.5q-3 -26 -1.5 -52z" />
<glyph unicode="&#xe53;" horiz-adv-x="1005" d="M63 312q1 82 19 148t53.5 113t89 72t125.5 27l158 -148l170 148q69 -3 120.5 -30t85.5 -73.5t51 -112.5q17 -64 17 -144q0 -48 -8 -95t-22 -89.5t-32 -80t-36 -67.5l-104 44q18 36 29 76t17.5 78t8.5 72q2 36 2 62q0 40 -4 82t-15.5 81t-33.5 70t-57 45l-178 -152h-19 l-180 153q-24 -10 -42 -29.5t-31 -46.5t-22 -60t-13 -67t-5 -68t3 -66q47 5 85.5 -2.5t66.5 -25.5t43 -45.5t15 -62.5q0 -29 -9 -52.5t-27.5 -40t-46.5 -25t-66 -8.5q-40 0 -71.5 14.5t-54.5 39.5t-39 57.5t-26 68.5t-14 72t-3 68zM214 201q3 -36 8.5 -64.5t14.5 -48.5 t22.5 -31t32.5 -11q32 0 49 18.5t17 50.5q0 27 -12 45t-33 28t-47 13t-52 0z" />
<glyph unicode="&#xe54;" horiz-adv-x="1005" d="M82 320q0 92 31 158t85 109.5t126 64t154 18.5q8 0 25 -1t39 -2t46 -1.5t46 -1t40 -0.5h26q44 6 75 22t52 41t33 61q12 34 18 80l105 -40q-4 -48 -25.5 -93t-58.5 -80t-88 -55t-115 -20h-26h-41t-49 0.5t-48 1t-39 0.5h-23q-62 0 -107 -20t-73 -55t-41 -84t-13 -107 q0 -50 15 -95t43.5 -79t69 -53.5t89.5 -19.5q24 0 56.5 1.5t75.5 11.5q-16 12 -33.5 33t-32 48.5t-24 59t-9.5 61.5q0 36 10 65t28 49t45 30.5t61 10.5q32 0 55 -10.5t39 -27.5t23.5 -39t7.5 -46q0 -34 -13.5 -60t-37 -44t-54 -26t-64.5 -4q21 -32 54.5 -57t75.5 -40.5 t92.5 -20t105.5 5.5l10 -68q-32 -8 -69 -9.5t-73 2t-70 12.5t-58 23q-18 -10 -42.5 -17t-51.5 -12t-55.5 -7t-54.5 -2q-87 0 -155.5 20t-115.5 61t-72 103t-25 144zM553 282q2 -25 12 -46q23 -2 46 -0.5t41 10.5t29.5 25.5t11.5 44.5q0 12 -4 24t-12 21t-20 14t-28 5 q-28 0 -45.5 -15t-25 -36.5t-5.5 -46.5z" />
<glyph unicode="&#xe55;" horiz-adv-x="1005" d="M82 320q0 75 22 132.5t59 98.5t87 65q49 24 104 34q-15 33 -14.5 67.5t16.5 62.5t46 46t75 16q38 0 65.5 -16t42.5 -41t17 -58t-10 -67q16 0 33 1t32 1.5t27 1t16 0.5q44 6 75 22t52 41t33 61q12 34 18 80l105 -40q-4 -48 -25.5 -93t-58.5 -80t-88 -55t-115 -20 q-8 0 -26 -1t-40 -2t-47 -1.5t-47 -1.5t-39 -1.5t-23 -0.5q-57 0 -101 -18t-74.5 -52t-46.5 -81t-16 -105q0 -50 15 -95t43.5 -79t69 -53.5t89.5 -19.5q24 0 56.5 1.5t75.5 11.5q-16 12 -33.5 33t-32 48.5t-24 59t-9.5 61.5q0 36 10 65t28 49t45 30.5t61 10.5q32 0 55 -10.5 t39 -27.5t23.5 -39t7.5 -46q0 -34 -13.5 -60t-37 -44t-54 -26t-64.5 -4q21 -32 54.5 -57t75.5 -40.5t92.5 -20t105.5 5.5l10 -68q-32 -8 -69 -9.5t-73 2t-70 12.5t-58 23q-18 -10 -42.5 -17t-51.5 -12t-55.5 -7t-54.5 -2q-87 0 -155.5 20t-115.5 61t-72 103t-25 144z M405 716q0 -14 4.5 -28.5t13.5 -25t21 -16.5t28 -6q18 2 30 9t19.5 17t11 23t3.5 27q0 13 -4 25.5t-12 22.5t-20 16t-28 6q-15 0 -27.5 -5.5t-21 -15t-13 -22.5t-5.5 -27zM553 282q2 -25 12 -46q23 -2 46 -0.5t41 10.5t29.5 25.5t11.5 44.5q0 12 -4 24t-12 21t-20 14t-28 5 q-28 0 -45.5 -15t-25 -36.5t-5.5 -46.5z" />
<glyph unicode="&#xe56;" horiz-adv-x="1005" d="M26 792l96 82q28 -18 48 -49t33 -66t19 -70t7 -59q22 10 51.5 20t63.5 17t74 12t82 5q96 0 175.5 -21.5t137 -65t89.5 -108.5t32 -153q0 -90 -32 -155t-88 -107.5t-133 -63t-166 -20.5q-90 0 -157.5 21t-112.5 56t-67 80t-22 95q0 36 10 65t28 49t45 30t61 10 q32 0 55.5 -10t39.5 -27t24 -39t8 -46q0 -34 -14.5 -60.5t-37.5 -44t-54 -25.5t-65 -4l2 -1q15 -14 35 -27.5t50 -24.5t71.5 -18t99.5 -7q63 0 113 20.5t85 57t53.5 87.5t18.5 111t-20 110t-56.5 86t-89 56t-118.5 20q-32 0 -66 -4t-68 -12t-66 -20t-58 -27 q-28 -16 -51 -18.5t-38 6.5t-23 27q-10 18 -10 44q0 18 -5.5 42.5t-17 50t-29.5 50.5t-42 43zM223 239q2 -25 12 -46q23 -2 46 -0.5t41 10.5t29.5 26t11.5 45q0 12 -4 24t-12 21t-20 14t-28 5q-28 0 -45.5 -15t-25 -37t-5.5 -47z" />
<glyph unicode="&#xe57;" horiz-adv-x="1006" d="M23 312q1 76 15 139t43 109t73 74t106 36l158 -146l170 148q60 -6 104 -34.5t73 -73t42.5 -101.5t13.5 -122q0 -36 -4.5 -73.5t-13 -72.5t-19.5 -67q-12 -30 -25 -54q20 12 37 33t30.5 47t23.5 55t16 58t9 54t3 44q0 60 -4 113.5t-13.5 105.5t-26 105t-42.5 112l125 55 q19 -50 33 -104.5t23 -114t12 -124.5t1 -137q-2 -42 -10 -87t-22.5 -87.5t-36 -80.5t-49.5 -66.5t-62 -45.5t-75 -17q-19 0 -38 2q-16 2 -35 4q-20 3 -36 10q23 36 38.5 75.5t24.5 80.5t12 81.5t3 78.5q0 46 -5.5 87t-18 74t-32.5 57t-48 38l-166 -142h-19l-165 140 q-28 -18 -45.5 -49t-27 -67t-12.5 -75t-1 -73q0 -13 1 -30.5t2 -29.5q47 5 86 -2.5t67 -25.5t43 -45.5t15 -62.5q0 -29 -8.5 -52.5t-27 -40t-46.5 -25t-66 -8.5q-40 0 -71 14.5t-54 39.5t-38 57.5t-24 68.5t-13 72t-3 68zM168 201q3 -36 8.5 -64.5t15 -48.5t23 -31t33.5 -11 q32 0 49 18.5t17 50.5q0 27 -13 45t-33.5 28t-46.5 13t-53 0z" />
<glyph unicode="&#xe58;" horiz-adv-x="1006" d="M64 286v58q0 41 10 81t31.5 76.5t54 67t77 53t101.5 35.5t128 13q8 0 26 -1t41 -2t49 -1.5t49.5 -1t42 -0.5h26.5q44 6 75 22t52 41t33 61q12 34 18 80l105 -40q-4 -48 -25.5 -93t-58.5 -80t-88 -55t-115 -20h-26h-41t-49 0.5t-48 1t-39 0.5h-23q-47 0 -84 -10t-64.5 -28 t-46.5 -41t-31 -49.5t-17.5 -54t-5.5 -53.5v-45q0 -48 13 -85.5t32 -64.5t40.5 -42t39.5 -17l140 149h31l164 -179q26 0 48.5 9t41 22.5t33 29t23.5 31.5q1 2 3 4q2 0 2 2q-34 -4 -64.5 4.5t-54 26t-37.5 44t-14 60.5q0 24 8 46t24 39t40 27.5t56 10.5t58 -10.5t44 -30 t28 -46t10 -60.5q0 -31 -8 -63t-23.5 -62.5t-38 -58t-51 -48t-63 -33t-73.5 -14.5h-9.5t-11.5 1q-6 0 -14 1l-138 148l-128 -146q-32 -4 -67 2t-70 22t-66 41.5t-54 59t-37 75.5t-14 90zM724 295q0 -28 11.5 -44.5t30 -25.5t41 -11t45.5 0q10 21 12 46.5t-5.5 47t-25 36 t-45.5 15.5q-16 0 -28 -5.5t-20 -14t-12 -20t-4 -24.5z" />
<glyph unicode="&#xe59;" horiz-adv-x="1006" d="M56 322q-10 76 4 142t47.5 114t84 76t112.5 28q46 0 82 -11t65 -31t52 -48t43 -60q0 36 14 64t36 48t49 30t53 10q20 0 45 -4t45 -10q0 34 7 66t20 59.5t31 48.5q20 22 42 36l94 -70q-26 -12 -44 -31t-31 -40t-19 -44t-6 -43q0 -26 -6 -41t-17 -21t-26.5 -7t-34 1 t-39.5 5t-43 3q-20 0 -36 -11t-27 -30t-16 -46t-3.5 -57.5t11 -64t26.5 -67.5l163 -316h-146l-252 484q-20 39 -38 62t-35 35t-34 15.5t-34 3.5q-34 0 -55 -20t-32.5 -52t-14 -72t0.5 -80t10 -76q8 -38 17 -62q48 15 92.5 12.5t78.5 -19t54 -46t20 -69.5q0 -26 -9 -49 t-26 -40t-41 -27t-56 -10q-39 0 -73 15t-63.5 38.5t-53.5 55.5t-42 68.5t-29.5 76.5t-16.5 78zM236 187q22 -70 47 -104.5t59 -34.5q14 0 26.5 5t21 13.5t13.5 20t5 24.5q0 28 -14 47t-38 28.5t-55 9.5t-65 -9z" />
<glyph unicode="&#xe5a;" horiz-adv-x="1136" d="M80 624q0 30 8.5 55t25 43t40.5 28t54 10q26 0 48.5 -8.5t39 -24t25.5 -37.5t9 -50q0 -30 -11 -56t-29 -44.5t-42 -30t-50 -15.5q8 -12 23 -20.5t33 -15t37.5 -10t39.5 -3.5q35 0 72 17.5t69 54.5t55 96t29 141h118v-539q0 -120 -67 -188.5t-207 -96.5l-23 73 q54 14 84 35t44.5 45.5t17.5 50.5t3 48v189q0 18 1 36q1 17 2 33q1 18 3 36q-13 -20 -32.5 -38t-44.5 -31t-56 -20t-66 -7q-56 0 -102.5 20t-80 53.5t-52 78t-18.5 92.5zM142 634q0 -16 2 -30t5 -26t8 -22t10 -16q24 4 43.5 13t32.5 23t20 30t7 32t-5 28t-13 21t-20 13.5 t-25 4.5q-14 0 -26 -5.5t-20.5 -14.5t-13.5 -22.5t-5 -28.5zM842 5v753h140v-753h-140z" />
<glyph unicode="&#xe5b;" horiz-adv-x="2052" d="M58 386q0 60 14.5 112t41 93.5t63 73t81 53.5t94.5 33t104 11q74 0 133 -19t101 -53t65 -82.5t23 -107.5q0 -51 -21 -96.5t-58.5 -80t-88.5 -54.5t-110 -20q-31 0 -58.5 7.5t-47.5 23.5t-32 40t-12 57q0 26 10 48.5t29 38.5t45 25t58 9q26 0 50 -8t43 -22t33 -32t22 -36 q6 10 11 23.5t8 26.5t4 24.5t1 17.5q0 41 -15 74.5t-42 57.5t-65 37q-40 13 -86 13q-58 0 -106 -23t-82 -62.5t-53.5 -92t-19.5 -110.5q0 -60 20.5 -115.5t58.5 -98t92.5 -68.5t121.5 -26q54 0 104 11t100 35.5t100 66t104 102t113 143t125 190.5l232 -293l130 169h486v-118 h-426l-188 -258l-224 277q-60 -90 -116 -155.5t-111 -111.5t-108 -74t-106.5 -44.5t-107.5 -22t-110 -5.5q-59 0 -114 12.5t-102 36.5t-86 58.5t-67 78.5t-43 97t-15 113zM410 373q0 -15 5 -28t16 -23t26 -15.5t35 -5.5q34 0 63 12.5t50 34.5q-7 18 -18.5 35t-27 30 t-33.5 20.5t-36 7.5q-40 0 -60 -19.5t-20 -48.5z" />
<glyph unicode="&#x2000;" horiz-adv-x="833" />
<glyph unicode="&#x2001;" horiz-adv-x="1666" />
<glyph unicode="&#x2002;" horiz-adv-x="833" />
<glyph unicode="&#x2003;" horiz-adv-x="1666" />
<glyph unicode="&#x2004;" horiz-adv-x="555" />
<glyph unicode="&#x2005;" horiz-adv-x="416" />
<glyph unicode="&#x2006;" horiz-adv-x="277" />
<glyph unicode="&#x2007;" horiz-adv-x="277" />
<glyph unicode="&#x2008;" horiz-adv-x="208" />
<glyph unicode="&#x2009;" horiz-adv-x="333" />
<glyph unicode="&#x200a;" horiz-adv-x="92" />
<glyph unicode="&#x200b;" />
<glyph unicode="&#x2010;" horiz-adv-x="803" d="M102 277v127h598v-127h-598z" />
<glyph unicode="&#x2011;" horiz-adv-x="803" d="M102 277v127h598v-127h-598z" />
<glyph unicode="&#x2012;" horiz-adv-x="803" d="M102 277v127h598v-127h-598z" />
<glyph unicode="&#x2013;" horiz-adv-x="969" d="M0 262v112h969v-112h-969z" />
<glyph unicode="&#x2014;" horiz-adv-x="2019" d="M0 262v112h2020v-112h-2020z" />
<glyph unicode="&#x2018;" horiz-adv-x="307" d="M50 628q0 104 39 168.5t109 92.5l32 -50q-20 -9 -35.5 -22.5t-27 -29t-19 -32.5t-10.5 -32q20 -2 38 -9.5t32 -20.5t21.5 -31t7.5 -39q0 -20 -6.5 -37.5t-18.5 -31.5t-29 -22t-39 -8t-39.5 8t-30 22t-18.5 33t-6 41z" />
<glyph unicode="&#x2019;" horiz-adv-x="307" d="M62 778q0 20 6.5 38t18.5 31.5t29.5 21.5t38.5 8q22 0 39.5 -7.5t30 -21.5t19 -33t6.5 -41q0 -104 -39 -169t-109 -93l-32 50q20 9 35 22.5t27 29.5t19 32t11 32q-20 2 -38.5 10t-32 21t-21.5 31t-8 38z" />
<glyph unicode="&#x201c;" horiz-adv-x="575" d="M62 630q0 104 39 168t109 92l32 -50q-20 -9 -35.5 -22.5t-27 -28.5t-19 -32t-10.5 -33q20 -2 38 -9.5t32 -20.5t21.5 -30.5t7.5 -39.5q0 -20 -6.5 -37t-18.5 -31t-29 -22t-39 -8t-39.5 8t-30 22t-18.5 32q-6 20 -6 42zM328 630q0 104 39.5 168t109.5 92l31 -50 q-20 -9 -35 -22.5t-27 -28.5t-19 -32t-10 -33q20 -2 38.5 -9.5t31.5 -20.5t21 -30.5t8 -39.5q0 -20 -6 -37t-18 -31t-30 -22q-16 -8 -38 -8t-40 8t-30 22t-19 32q-7 20 -7 42z" />
<glyph unicode="&#x201d;" horiz-adv-x="575" d="M60 770q0 20 6 38t18 31.5t30 21.5q16 8 38 8t40 -7.5t30 -21.5t19 -33t7 -41q0 -104 -39.5 -169t-109.5 -93l-31 50q20 9 35 22.5t27 29.5t19 32t10 32q-20 2 -38.5 10t-31.5 21t-21 31t-8 38zM327 770q0 20 6.5 38t18.5 31.5t29 21.5t39 8t39.5 -7.5t30 -21.5t18.5 -33 t6 -41q0 -104 -39 -169t-109 -93l-32 50q20 9 35.5 22.5t27 29.5t19 32t10.5 32q-20 2 -38 10t-32 21t-21.5 31t-7.5 38z" />
<glyph unicode="&#x2022;" horiz-adv-x="681" d="M112 492q0 47 18 88.5t49 72.5t72 49t89 18q47 0 89 -18t73 -49t49.5 -73t18.5 -88q0 -48 -18.5 -90t-49.5 -73t-73 -49t-89 -18q-48 0 -89 18t-72 49t-49 73t-18 90z" />
<glyph unicode="&#x202f;" horiz-adv-x="333" />
<glyph unicode="&#x205f;" horiz-adv-x="416" />
<glyph unicode="&#x20ac;" horiz-adv-x="1055" d="M31 518l35 92h102q18 66 53.5 124t87.5 100t120.5 66.5t152.5 24.5q36 0 70 -4.5t65 -14.5t60 -27t57 -43q10 20 22 40t22 38h60v-269h-68q-10 44 -32.5 81.5t-56 64.5t-77 43t-94.5 16q-56 0 -101 -19.5t-79 -52t-57 -76.5t-37 -92h327l-30 -92h-315q-3 -33 -3 -66 q0 -13 0.5 -26.5t2.5 -25.5h345l-29 -92h-296q18 -54 49.5 -100t72 -79t89.5 -51.5t103 -18.5q79 0 146 39.5t124 115.5l68 -58q-58 -58 -110 -92t-99 -51t-89.5 -21.5t-80.5 -4.5q-98 0 -173.5 24.5t-130.5 68t-90 102t-52 126.5h-133l34 92h84q-1 13 -2 27.5t-1 28.5 q0 16 0.5 31t2.5 31h-119z" />
<glyph unicode="&#x2122;" horiz-adv-x="1449" d="M44 844v136h542v-136h-67v68h-149v-464h70v-62h-251v62h70v464h-148v-68h-67zM656 386v62h68v471h-68v61h194l183 -422l177 422h185v-61h-67v-471h67v-62h-247v62h68v373l-180 -425h-48l-192 426v-374h70v-62h-210z" />
<glyph unicode="&#x25cc;" horiz-adv-x="1061" d="M184 588l92 45q-4 -23 -4 -49q0 -24 4 -44zM282 336l35 96q26 -40 63 -66zM296 838l92 -33q-40 -24 -65 -61zM489 846l47 92l45 -90q-22 2 -43 2q-25 0 -49 -4zM493 320q22 -4 45 -4q21 0 39 4l-41 -86zM690 805l100 33l-35 -96q-26 36 -65 63zM692 362q36 24 59 58 l25 -84zM802 545q4 19 4 39q0 22 -4 44l86 -44z" />
<glyph unicode="&#x25fc;" horiz-adv-x="700" d="M0 0v700h700v-700h-700z" />
<glyph unicode="&#xf700;" horiz-adv-x="805" d="M49 606.5q-1 10.5 3 23t12 24.5q16 22 41 43t59.5 37t79 26t100.5 10q38 0 74 -8t69.5 -18t64 -18t58.5 -8q29 0 52.5 12t35.5 30l30 -48q-6 -8 -17 -17.5t-27 -17.5t-35 -13t-42 -5q-32 0 -64.5 7t-65.5 15.5t-66 15.5t-65 7q-41 0 -72.5 -7.5t-54 -19t-37 -24.5 t-22.5 -25q24 -1 61 -4t81.5 -9t93 -14.5t95.5 -21.5t88 -29t71 -36q18 -12 27 -31t9 -47v-336q-7 -33 -27.5 -54.5t-50 -33.5t-65 -17t-71.5 -5q-34 0 -68 5t-64 18t-51 35t-29 56v21v43q-26 0 -51 8t-45.5 26.5t-33.5 48t-13 73.5q0 30 11.5 54t31.5 42t48.5 27t62.5 9 q36 0 62 -7.5t42.5 -21t24.5 -31.5t8 -38v-270q3 -23 20.5 -35t44.5 -12q13 0 25 2.5t21 8.5t14.5 14t5.5 20v346q0 26 -7.5 38.5t-19.5 18.5q-43 21 -96.5 36t-111.5 25.5t-116 17t-110 12.5q-14 2 -21 9t-8 17.5zM168 320q0 -20 5.5 -38t17 -31.5t29.5 -22.5t44 -11v168 q0 11 -8 14t-18 3q-8 0 -20 -4t-23 -13.5t-19 -25t-8 -39.5z" />
<glyph unicode="&#xf701;" d="M-944 1009q0 34 19 62.5t53.5 49t81 32t100.5 11.5q64 0 115 -18t91.5 -50t71.5 -74t54 -90q8 -16 10 -31t-2 -24t-14.5 -11t-27.5 6q-38 18 -80 35t-94 27.5t-116 11.5q-64 2 -144 -12q-58 -10 -88 11t-30 64zM-830 1005q0 -2 1.5 -5.5t4 -6t5.5 -4t8 -0.5 q53 10 101 11.5t95.5 -5t95 -21t99.5 -36.5l2 6q-24 32 -51 60.5t-59.5 50t-72 33.5t-89.5 12q-33 0 -59.5 -8t-44 -21.5t-27 -31t-9.5 -34.5z" />
<glyph unicode="&#xf702;" d="M-944 1009q0 34 19 62.5t53.5 49t81 32t100.5 11.5q66 0 118 -20q52 -18 94 -52v166h114v-314l6 -12q8 -16 10 -31t-2 -24t-14.5 -11t-27.5 6q-38 18 -80 35t-94 27.5t-116 11.5q-64 2 -144 -12q-58 -10 -88 11t-30 64zM-830 1005q0 -2 1.5 -5.5t4 -6t5.5 -4t8 -0.5 q53 10 101 11.5t95.5 -5t95 -21t99.5 -36.5l2 6q-24 32 -51 60.5t-59.5 50t-72 33.5t-89.5 12q-33 0 -59.5 -8t-44 -21.5t-27 -31t-9.5 -34.5z" />
<glyph unicode="&#xf703;" d="M-944 1009q0 34 19 62.5t53.5 49t81 32t100.5 11.5q30 0 56 -4t51 -12q0 18 7.5 39t23 39t40 31t60.5 13q40 0 67 -17t42 -42t18 -56t-5 -58.5t-26 -49t-46 -28.5l-8 -1q30 -40 52 -86q8 -16 10 -31t-2 -24t-14.5 -11t-27.5 6q-38 18 -80 35t-94 27.5t-116 11.5 q-64 2 -144 -12q-58 -10 -88 11t-30 64zM-830 1005q0 -2 1.5 -5.5t4 -6t5.5 -4t8 -0.5q53 10 101 11.5t95.5 -5t95 -21t99.5 -36.5l2 6q-24 32 -51 60.5t-59.5 50t-72 33.5t-89.5 12q-33 0 -59.5 -8t-44 -21.5t-27 -31t-9.5 -34.5zM-512 1136.5q0 -17.5 6.5 -32.5t19.5 -25 t33 -10t33.5 10t19.5 25t6 32.5t-6 32.5t-19.5 25t-33.5 10t-33 -10t-19.5 -25t-6.5 -32.5z" />
<glyph unicode="&#xf704;" d="M-944 1009q0 34 19 62.5t53.5 49t81 32t100.5 11.5h4h4v94h114v-114q46 -18 86 -48v162h118v-313q2 -4 3 -6.5t3 -6.5q8 -17 10 -31.5t-2 -23.5t-14.5 -11t-27.5 6q-38 18 -80 35t-94 27.5t-116 11.5q-64 2 -144 -12q-58 -10 -88 11t-30 64zM-830 1005q0 -2 1.5 -5.5 t4 -6t5.5 -4t8 -0.5q53 10 101 11.5t95.5 -5t95 -21t99.5 -36.5l2 6q-24 32 -51 60.5t-59.5 50t-72 33.5t-89.5 12q-33 0 -59.5 -8t-44 -21.5t-27 -31t-9.5 -34.5z" />
<glyph unicode="&#xf705;" d="M-518 922v338h120v-338h-120z" />
<glyph unicode="&#xf706;" d="M-828 928v46q22 0 43 2.5t40 8.5t34 16t25 25q-7 -3 -12.5 -3.5t-11.5 -0.5q-16 -1 -34 5.5t-33 21.5t-24.5 36t-9.5 50q0 25 8 47.5t23.5 40t39.5 27.5t54 10q32 0 55.5 -10t39 -27t23.5 -40t8 -48q0 -22 -6 -43.5t-16.5 -40.5t-24 -35t-29.5 -28l-12 -10q14 1 28 3.5 t30 6.5q40 9 72 30.5t56 55t40 76.5q18 44 26 96l108 -12q-11 -40 -25.5 -78t-35.5 -73t-50 -64t-68 -51t-91 -34t-118 -12h-33.5t-42.5 0.5t-42 1.5q-20 2 -34 4zM-748 1139q0 -28 16 -47q18 -20 46 -20q12 0 23 5t20 13.5t14 20.5t5 27t-4.5 27.5t-13 21.5t-19.5 14t-24 5 q-16 0 -28 -6t-19.5 -15t-11.5 -21t-4 -25z" />
<glyph unicode="&#xf707;" d="M-916 1069q0 26 8 55.5t27 55t50 41.5q31 17 78 15l80 -80l74 78q36 2 63.5 -9t46.5 -32t28 -49.5t9 -63.5q0 -10 -2 -24.5t-7 -31t-12 -32t-16 -26.5l3 -2q26 10 44 36.5t28.5 63t13 80.5t-1.5 92l89 -10q0 -64 -11.5 -119.5t-35.5 -97.5t-61 -67.5t-87 -27.5 q-13 0 -25.5 2t-19.5 7.5t-8 16t9 26.5q13 22 21.5 51.5t8.5 60.5q0 37 -12 61t-42 40l-86 -83h-24l-86 83q-10 -1 -20 -5t-19 -13t-15 -21.5t-10 -29.5q30 -1 54.5 -10.5t41 -24.5t25.5 -34t9 -39q0 -15 -5 -30t-15 -27t-26 -20q-16 -9 -37 -9q-31 -1 -54.5 9.5t-39.5 30.5 t-24.5 49t-8.5 64zM-842 1056q-4 -44 11 -67t40 -23q12 0 22.5 8.5t10.5 27.5q0 12 -6.5 23.5t-18 20.5t-26.5 15t-32 8q0 -2 -0.5 -5.5t-0.5 -7.5z" />
<glyph unicode="&#xf708;" d="M-762 1044v90h148v150h125v-150h147v-90h-147v-149h-125v149h-148z" />
<glyph unicode="&#xf709;" d="M-612 1034q0 34 11.5 60t31 45t45.5 33t54 26q25 10 49.5 23t45.5 32t38 44t28 59l80 -42q-20 -43 -44 -70.5t-49.5 -45.5t-51.5 -28t-52 -18q-17 -6 -33.5 -11t-33.5 -15v-4q18 4 37.5 -1t34.5 -17t25 -31t10 -43q0 -23 -8 -42.5t-22 -33.5t-34 -22t-46 -8 q-29 0 -50.5 9t-36.5 24.5t-22 35.5q-7 19 -7 41zM-546 1028q0 -24 13 -39.5t37 -15.5q12 0 21 4.5t15 12.5t9 18t3 20q0 22 -13 38t-37 16q-21 0 -34.5 -14t-13.5 -40z" />
<glyph unicode="&#xf70a;" d="M-254 922v338h130v-338h-130z" />
<glyph unicode="&#xf70b;" d="M-548 918v56q20 -2 41 1.5t40.5 11t36 19t28.5 26.5q-15 -6 -37.5 -2.5t-43.5 18t-35.5 39.5t-14.5 62q0 27 8.5 50.5t24.5 41t40 28t56 10.5q33 0 57 -10.5t40 -28.5t23.5 -42t7.5 -51q0 -23 -4.5 -44t-12.5 -40t-19.5 -34t-23.5 -25q-6 -6 -14 -12l-16 -12 q-9 -6 -17 -10q3 0 9 1t13 2.5t13 3t9 1.5q56 10 97 34t70 60t47 85t28 109l117 -12q-10 -44 -25.5 -87t-38 -81t-53 -70t-73 -56t-97.5 -37t-125 -13q-14 0 -36 0.5t-45 2t-43 2.5t-32 3zM-467 1154q0 -14 4.5 -27t12.5 -22t19 -14.5t26 -5.5q12 0 23.5 5t20.5 14t14 21.5 t5 27.5t-5 28t-13 22t-19 14t-25 5q-16 0 -28 -6t-19.5 -16t-11.5 -22t-4 -24z" />
<glyph unicode="&#xf70c;" d="M-653 1086q0 30 9 64t30.5 63t57.5 47t89 17l91 -92l86 90q42 2 73.5 -10.5t53 -35.5t32.5 -57t11 -74q0 -16 -3 -33t-8.5 -34t-13.5 -33.5t-19 -29.5l9 -2q28 14 47.5 44t30.5 71t14 91t-2 106l98 -12q2 -46 -3.5 -89t-16.5 -82.5t-29 -72.5t-43 -57.5t-57 -39.5 t-71 -17q-15 0 -28 2t-21 9t-8 19q0 11 10 30q14 26 24 60q9 32 9 68q0 42 -16.5 71t-45.5 49l-100 -96h-27l-98 96q-12 -1 -24 -7t-22 -16.5t-18 -24.5t-11 -34q35 -1 63 -11.5t47 -28t29 -39.5q10 -21 10 -45q0 -18 -5 -35t-17 -31t-30 -23t-42 -9q-36 -1 -63 10.5 t-45 34.5t-27.5 56t-9.5 73zM-570 1072q-1 -53 14.5 -78.5t45.5 -25.5q14 0 26 10t12 32q0 14 -8 27t-21.5 23t-31 17t-37.5 9v-6v-8z" />
<glyph unicode="&#xf70d;" d="M-430 1044v99h178v149h127v-149h178v-99h-178v-149h-127v149h-178z" />
<glyph unicode="&#xf70e;" d="M-352 1038q0 36 12 63t32.5 47t47.5 35t57 27q26 10 51.5 24t48 34t40 46t29.5 62l84 -44q-22 -46 -47 -75t-52 -47t-54 -29t-55 -19q-18 -6 -34.5 -11t-35.5 -17v-4q20 4 40 -1t36 -18t26 -33t10 -45q0 -24 -8 -44.5t-23 -35.5t-36 -23t-47 -8q-30 0 -53 9.5t-38.5 26 t-23 37.5t-7.5 43zM-283 1032q0 -26 14 -42q15 -17 39 -17q12 0 21 5.5t15.5 13.5t9.5 19t3 21q0 12 -3.5 22t-10.5 18t-16 12t-22 4q-22 0 -36 -15t-14 -41z" />
<glyph unicode="&#xf70f;" horiz-adv-x="1288" d="M69 594q34 38 73 69t86 54t102 35q54 12 120 12q84 0 145 -15t101.5 -39t61.5 -54q22 -30 26 -62v-446q2 -14 7.5 -32t19 -33t37.5 -25q22 -11 60 -11t61 11.5t35.5 27.5t17 33t5.5 29v606h145v-604q-3 -28 -19.5 -57t-48.5 -52t-82 -37t-118 -14q-69 0 -117.5 14 t-80.5 36t-49 49t-21 53v448q-4 22 -18.5 43t-39 37t-59.5 25t-80 9q-40 0 -79 -8t-73.5 -21t-61.5 -31t-45 -36l143 -98v-184l-4 -44q28 -1 54.5 -9t47 -26.5t33 -47.5t12.5 -72q0 -32 -10 -56.5t-30 -41.5t-48.5 -26t-64.5 -9t-61.5 8t-42.5 21t-24 31t-7 38v416zM319 66 q0 -11 8.5 -14t18.5 -3q11 0 23 4t22.5 13.5t17 25t6.5 39.5q0 44 -22 71q-22 28 -74 32v-168z" />
<glyph unicode="&#xf710;" d="M-925 1100q0 30 9.5 55t27 43.5t43 29t57.5 10.5t56 -10.5t41 -28.5t26 -41.5t9 -50.5q0 -19 -6 -37t-16 -33t-25 -26t-33 -15q12 -4 24 -6.5t25 -4t25 -1.5h22q54 0 97 18t75 51t51 79t24 102l105 -16q-15 -70 -43.5 -125t-72.5 -94t-105 -59t-142 -20q-63 0 -114 14.5 t-86.5 39t-54.5 57.5t-19 69zM-854 1107q0 -21 6 -36t16 -25t20 -14q12 -5 20 -5q12 0 23.5 4.5t21 14.5t16 25t6.5 36q0 20 -5.5 34.5t-14.5 24.5t-21 15t-26 5q-13 0 -24.5 -6t-19.5 -16t-13 -25t-5 -32z" />
<glyph unicode="&#xf711;" d="M-702 1079q0 30 10 58.5t30.5 50.5t54 35t80.5 13q48 0 81.5 -13t54 -35t29.5 -50.5t9 -58.5q0 -28 -10.5 -55.5t-32.5 -49.5t-54.5 -35t-76.5 -13q-42 0 -74.5 13t-54.5 34t-34 48.5t-12 57.5zM-604 1081q0 -25 9 -47t25.5 -36t42.5 -14q25 0 42 14t25 36t8 47t-8 47 t-25 36t-42 14q-26 0 -42.5 -14t-25.5 -36t-9 -47z" />
<glyph unicode="&#xf712;" d="M-950 1152q0 44 14 82.5t44 67.5t74 46t106 17q34 0 58.5 -1.5t45 -3t39.5 -3t41 -1.5q24 0 43 5t33 17t24 33t18 54l76 -63q-10 -40 -28 -63t-42 -34t-50 -13q-28 -2 -52 -3q-44 -2 -94 1t-112 3q-26 0 -47 -11.5t-36 -30.5t-24 -43.5t-9 -51.5q0 -51 15 -86.5t37 -51.5 l51 76q6 9 15.5 16.5t20.5 9t20.5 -4t15.5 -23.5q12 -34 30.5 -56t39.5 -33t43 -11t40 8q-18 4 -30 13.5t-20 23t-11.5 29.5t-3.5 32q0 21 7.5 39.5t21 31.5t33 20.5t43.5 7.5q20 0 38.5 -7t33 -20.5t23.5 -32.5t9 -43q0 -34 -14 -63t-38.5 -50t-58 -32.5t-73.5 -11.5 q-30 0 -54 6.5t-43 17.5t-32.5 26t-22.5 31l-56 -77q-49 -4 -86.5 12.5t-63.5 46.5t-39 70t-13 82zM-506 1092q0 -18 12 -36q14 -17 40 -31q6 4 13 10t13 14.5t10 20t4 28.5q0 8 -3 17t-9 15.5t-14 11.5q-8 4 -20 4q-24 0 -35 -15t-11 -39z" />
<glyph unicode="&#xf713;" d="M-475 1358v284h108v-284h-108z" />
<glyph unicode="&#xf714;" d="M-606 1355v44q21 0 41.5 2.5t38.5 7.5t32 15t24 24q-6 -3 -12 -4h-10q-16 -1 -33 5.5t-31 20.5t-23 34t-9 48q0 24 7 44.5t22 36t37 24.5t52 9t52.5 -9t37.5 -24t22.5 -36t7.5 -45q0 -21 -6 -41.5t-15.5 -38.5t-22.5 -34q-14 -16 -28 -26l-12 -10q14 1 27 3.5t29 6.5 q44 11 77 32.5t56 52t38 71t23 89.5l98 -11q-10 -38 -24.5 -74t-35 -69t-48.5 -61.5t-66 -49t-87 -32.5t-113 -12h-32t-41 1t-41 2t-32 4zM-530 1556q0 -28 16 -46t44 -18q12 0 23 4.5t19 13t12.5 20.5t4.5 26q0 28 -16.5 45.5t-41.5 17.5q-15 0 -26.5 -5.5t-19 -14.5 t-11.5 -20t-4 -23z" />
<glyph unicode="&#xf715;" d="M-697 1496q0 26 7.5 55t26.5 53.5t49.5 40t76.5 14.5l78 -79l73 77q36 2 63 -8.5t45.5 -30.5t28 -49t9.5 -63q0 -10 -2.5 -24t-7 -30t-11.5 -31t-17 -27l8 -2q24 12 41 38t26.5 61t12 78t-1.5 91l82 -10q-2 -58 -12.5 -112t-33 -96.5t-57 -69t-84.5 -29.5q-13 0 -25 1.5 t-19 7.5t-7.5 16t8.5 26q12 22 20 51t8 59q0 36 -14 61t-40 39l-82 -80h-23l-83 80q-10 -1 -20 -5.5t-19 -12.5t-15 -21t-10 -29q30 -1 54 -10t40 -23.5t24 -33.5t8 -39q0 -15 -4.5 -29.5t-14 -26.5t-25.5 -20t-36 -8q-30 -1 -53.5 9t-39 29.5t-24 47.5t-8.5 64zM-624 1483 q-4 -43 10 -66t40 -23q12 0 22 9t10 27q0 12 -6 23t-17.5 20t-26 15t-30.5 8q0 -2 -1 -6t-1 -7z" />
<glyph unicode="&#xf716;" d="M-595 1460v88h121v114h106v-114h123v-88h-123v-109h-106v109h-121z" />
<glyph unicode="&#xf717;" d="M-516 1302q0 26 9 51t28 45t47 33t65 17q42 3 70.5 11t46.5 22.5t30 34.5t22 48l76 -38q-20 -37 -45 -62.5t-55 -41t-66.5 -22t-78.5 -6.5q-7 0 -13.5 -1t-11.5 -3q-6 -2 -10 -4v-2q19 2 36.5 -4t30.5 -18.5t20.5 -30t7.5 -39.5t-6.5 -41.5t-19 -34t-31.5 -22.5 q-20 -9 -44 -9q-28 0 -48.5 9t-34 24.5t-19.5 37t-6 46.5zM-452 1286q0 -23 12 -38q10 -14 32 -14q11 0 19.5 5t14.5 13t9 17.5t3 18.5q0 22 -12 37t-34 15q-18 0 -31 -15t-13 -39z" />
<glyph unicode="&#xf718;" d="M-382 -501q0 27 9 49t26 38.5t42 25.5t56 9q32 0 56 -7.5t40.5 -20.5t25.5 -29t9 -34v-274h-131v113q-26 -1 -49.5 5t-42.5 21t-30 41t-11 63zM-331 -505q0 -38 19 -59.5t65 -25.5v138q0 12 -6.5 17t-16.5 5t-20.5 -4t-19.5 -13t-15 -23t-6 -35z" />
<glyph unicode="&#xf719;" d="M-620 -494q0 54 35 84.5t98 30.5q32 0 54.5 -6.5t36.5 -18.5t21 -28t7 -33v-181q2 -17 17 -26.5t40 -9.5q26 0 41.5 10t17.5 26v260h130v-256q-2 -28 -19 -47t-43 -30t-59 -16t-68 -5q-36 0 -66.5 5t-54.5 16t-38.5 30t-16.5 47v21q-26 -1 -49.5 5t-42.5 20.5t-30 39 t-11 62.5zM-569 -500q0 -38 19.5 -57t64.5 -23v132q0 9 -7.5 13.5t-15.5 4.5q-9 0 -19.5 -3t-19.5 -11t-15.5 -21.5t-6.5 -34.5z" />
<glyph unicode="&#xf71a;" d="M-272.5 -457.5q-0.5 20.5 9 38.5t28.5 30t47 12t46.5 -12t27.5 -30t9.5 -38.5t-9.5 -38.5t-28 -30t-46 -12t-47 12t-28 30t-9.5 38.5z" />
<glyph unicode="&#xf71d;" horiz-adv-x="997" d="M45 626q0 32 10.5 57t31 42.5t49 27t64.5 9.5t62 -7.5t42.5 -21t24 -30.5t7.5 -37v-390q0 -18 -2 -39t-4 -39q-2 -20 -6 -42l194 296h41l190 -296q-4 26 -6 50l-2 20l-2 20t-1.5 18t-0.5 14v324q-14 -6 -25.5 -9.5t-24 -6t-26 -3.5t-29.5 -1q-38 0 -71 7t-58 22t-40 37 t-15 50t16 49t43 35t61 20.5t70 6.5q34 0 63 -5t53.5 -13.5t43.5 -20.5t33 -26q6 8 12.5 16t11 18t8.5 22t7 26l74 -11q-4 -17 -11.5 -35t-17 -36t-21.5 -33t-24 -27q4 -12 8 -34t4 -56v-594h-112l-232 381l-239 -381h-109v432l4 43q-28 0 -54 8t-47.5 25.5t-34.5 46 t-13 71.5zM96 622q0 -44 23 -68q23 -26 75 -30v168q0 6 -2 9t-6 4t-9 1h-9q-10 0 -23 -4t-23.5 -14t-18 -26t-7.5 -40zM510 698q0 -14 8 -26.5t23.5 -21.5t37.5 -14q21 -5 49 -5q34 0 59 8q25 9 49 23v10q0 23 -10 39.5t-26 27.5t-36 16t-38 5q-26 0 -47 -4.5t-36.5 -12.5 t-24 -19.5t-8.5 -25.5z" />
<glyph unicode="&#xf881;" horiz-adv-x="1508" d="M69 594q34 38 73 69t86 54t101.5 35t120.5 12q84 0 147.5 -15t106.5 -39t66.5 -55t27.5 -62v-913h-145v909q-4 22 -21.5 43t-45.5 37t-65 25.5t-82 9.5q-40 0 -79 -8t-73.5 -21t-61.5 -31t-45 -36l143 -98v-184l-4 -44q28 -1 54.5 -9t47 -26.5t33 -47.5t12.5 -72 q0 -32 -10 -56.5t-30 -41.5t-48.5 -26t-64.5 -9t-61.5 8t-42.5 21t-24 31t-7 38v416zM319 66q0 -11 8.5 -14t18.5 -3q11 0 23 4t22.5 13.5t17 25t6.5 39.5q0 44 -22 71q-22 28 -74 32v-168zM875 656q18 24 42 44t55 35t69 23t84 8q65 0 114 -12t82 -31t51 -43t21 -49v-953 h-147v942q-5 18 -15.5 34t-28.5 27t-43.5 17t-60.5 6q-24 0 -47 -5t-44 -15t-39 -25q-20 -15 -34 -33z" />
<glyph unicode="&#xf882;" horiz-adv-x="1553" d="M82 127q0 43 13 72t34 47.5t48 27t55 8.5l-4 44v182l-121 86q29 40 67.5 71t86.5 53t105.5 34t126.5 12q84 0 147.5 -15t107 -39.5t67 -55t29.5 -62.5v-912h-148v908q-4 22 -21 43t-45 37t-66 26t-82 10q-38 0 -76 -5.5t-72 -17.5t-64 -30q-30 -19 -52 -43l155 -98v-418 q0 -20 -7.5 -38t-24 -31t-42 -21t-61.5 -8t-65 9t-49 26t-31 42t-11 56zM134 131q0 -24 7 -39.5t18 -25t23 -13.5t23 -4q10 0 18.5 2.5t8.5 14.5v168q-52 -4 -75 -31t-23 -72zM920 656q18 24 42 44t55 35t69 23t84 8q65 0 114 -12t82.5 -31t51 -43t20.5 -49v-953h-148v942 q-5 18 -15.5 34t-27.5 27t-43 17t-61 6q-24 0 -46.5 -5t-43.5 -15t-40 -25t-33 -33z" />
<glyph d="M-522 946v127l72 88l-72 82v125q0 20 9 37t26 29t41 16q22 4 50 -4v-192l80 -93l-80 -96v-193q-28 -8 -51 -4.5t-40 14t-26 27.5t-9 37z" />
<glyph horiz-adv-x="638" d="M-702 1079q0 30 10 58.5t30.5 50.5t54 35t80.5 13q48 0 81.5 -13t54 -35t29.5 -50.5t9 -58.5q0 -28 -10.5 -55.5t-32.5 -49.5t-54.5 -35t-76.5 -13q-42 0 -74.5 13t-54.5 34t-34 48.5t-12 57.5zM-604 1081q0 -25 9 -47t25.5 -36t42.5 -14q25 0 42 14t25 36t8 47t-8 47 t-25 36t-42 14q-26 0 -42.5 -14t-25.5 -36t-9 -47zM5 656q18 24 42 44t55 35t69 23t84 8q65 0 114 -12t82 -31t51 -43t21 -49v-631h-147v620q-5 18 -15.5 34t-28.5 27t-43.5 17t-60.5 6q-24 0 -47 -5t-44 -15t-39 -25q-20 -15 -34 -33z" />
<glyph horiz-adv-x="638" d="M-702 1079q0 30 10 58.5t30.5 50.5t54 35t80.5 13q48 0 81.5 -13t54 -35t29.5 -50.5t9 -58.5q0 -28 -10.5 -55.5t-32.5 -49.5t-54.5 -35t-76.5 -13q-42 0 -74.5 13t-54.5 34t-34 48.5t-12 57.5zM-604 1081q0 -25 9 -47t25.5 -36t42.5 -14q25 0 42 14t25 36t8 47t-8 47 t-25 36t-42 14q-26 0 -42.5 -14t-25.5 -36t-9 -47zM5 656q18 24 42 44t55 35t69 23t84 8q65 0 114 -12t82 -31t51 -43t21 -49v-631h-147v620q-5 18 -15.5 34t-28.5 27t-43.5 17t-60.5 6q-24 0 -47 -5t-44 -15t-39 -25q-20 -15 -34 -33z" />
<glyph d="M-854 996q0 38 24 68t64 50t91 30t105 10q126 0 220 -54.5t162 -157.5q12 -20 13 -39t-5 -31t-18 -16t-30 5q-50 24 -110.5 40.5t-127 24t-135.5 6t-135 -11.5q-57 -10 -87.5 11.5t-30.5 64.5zM-730 1003q0 -8 7 -14t22 -4q45 6 99 7.5t111.5 -4t115 -18t109.5 -33.5l3 6 q-26 36 -60.5 63t-74 45.5t-82 28.5t-84.5 10q-40 0 -71 -7t-52 -18.5t-32 -27.5t-11 -34z" />
<glyph d="M-854 996q0 38 24 68t64 50t91 30t105 10q72 0 133 -18t113 -52v176h128v-308q2 -2 4 -5t4 -5q12 -20 13 -39t-5 -31t-18 -16t-30 5q-50 24 -110.5 40.5t-127 24t-135.5 6t-135 -11.5q-57 -10 -87.5 11.5t-30.5 64.5zM-730 1003q0 -8 7 -14t22 -4q45 6 99 7.5t111.5 -4 t115 -18t109.5 -33.5l3 6q-26 36 -60.5 63t-74 45.5t-82 28.5t-84.5 10q-40 0 -71 -7t-52 -18.5t-32 -27.5t-11 -34z" />
<glyph d="M-854 996q0 38 24 68t64 50t91 30t105 10q82 0 152 -24v5v5q0 18 7 40t22 40.5t40 31t61 12.5q40 0 67 -16t42 -42t18.5 -56t-4 -58t-26 -49.5t-46.5 -28.5l-5 -2q28 -31 54 -70q12 -20 13 -39t-5 -31t-18 -16t-30 5q-50 24 -110.5 40.5t-127 24t-135.5 6t-135 -11.5 q-57 -10 -87.5 11.5t-30.5 64.5zM-730 1003q0 -8 7 -14t22 -4q45 6 99 7.5t111.5 -4t115 -18t109.5 -33.5l3 6q-26 36 -60.5 63t-74 45.5t-82 28.5t-84.5 10q-40 0 -71 -7t-52 -18.5t-32 -27.5t-11 -34zM-347 1132q0 -18 6.5 -33t19.5 -25t33 -10t33 10t20 25t7 33t-7 33 t-20 25t-33 10t-33 -10t-19.5 -25t-6.5 -33z" />
<glyph d="M-854 996q0 38 24 68t64 50t91 30t105 10h6.5h5.5v105h129v-127q57 -18 105 -50v178h128v-308q2 -2 4 -5t4 -5q12 -20 13 -39t-5 -31t-18 -16t-30 5q-50 24 -110.5 40.5t-127 24t-135.5 6t-135 -11.5q-57 -10 -87.5 11.5t-30.5 64.5zM-730 1003q0 -8 7 -14t22 -4 q45 6 99 7.5t111.5 -4t115 -18t109.5 -33.5l3 6q-26 36 -60.5 63t-74 45.5t-82 28.5t-84.5 10q-40 0 -71 -7t-52 -18.5t-32 -27.5t-11 -34z" />
<glyph d="M-454 -215q0 27 9 49t26 38.5t42 25.5t56 9q32 0 55.5 -7.5t39 -20.5t23 -29t7.5 -34v-274h-125v113q-26 -1 -49.5 5t-42.5 21t-30 41t-11 63zM-403 -219q0 -38 19 -59.5t65 -25.5v138q0 12 -6.5 17t-16.5 5t-20.5 -4t-19.5 -13t-15 -23t-6 -35z" />
<glyph d="M-690 -214q0 27 9 49t26 37.5t42 24.5t56 9q32 0 54.5 -7t36.5 -18.5t21 -27t7 -33.5v-191q2 -17 17 -27t40 -10q26 0 41.5 10.5t17.5 26.5v271h124v-266q-2 -28 -18 -47t-41 -31t-57 -16.5t-67 -4.5q-36 0 -66.5 4.5t-54.5 16.5t-38.5 31t-16.5 47v20q-26 -1 -49.5 5.5 t-42.5 22.5t-30 41t-11 63zM-639 -220q0 -38 19.5 -59t64.5 -26v143q0 9 -7.5 12.5t-15.5 3.5q-9 0 -19.5 -3.5t-19.5 -12t-15.5 -23t-6.5 -35.5z" />
<glyph d="M-322 922v338h130v-338h-130z" />
<glyph d="M-500 1044v99h179v149h127v-149h178v-99h-178v-149h-127v149h-179z" />
<glyph d="M-318 1358v284h118v-284h-118z" />
<glyph d="M-442 1460v88h124v114h117v-114h125v-88h-125v-109h-117v109h-124z" />
<glyph d="M-284 924v311h92v-311h-92z" />
<glyph d="M-452 1077v74h174v153h81v-153h177v-74h-177v-151h-81v151h-174z" />
<glyph d="M-608 1264v282h108v-282h-108z" />
<glyph d="M-746 1521q0 25 8 47t24 38t39 25t53 9q32 0 56 -9t40 -25t23.5 -38t7.5 -47q0 -22 -6 -43.5t-16.5 -40.5t-24.5 -35t-28 -28l-13 -10q14 1 27.5 3.5t30.5 6.5q46 12 80.5 34t59 55t40 75t23.5 94l100 -12q-11 -40 -26 -78t-36 -73t-50 -64t-68.5 -51t-90.5 -34t-117 -12 h-26t-33 1t-35 2t-33 2v49q18 1 35.5 4t32.5 9t27 15t20 22q-7 -3 -12.5 -3.5t-10.5 -0.5q-16 -1 -33.5 5.5t-32.5 21.5t-25 36t-10 50zM-684 1525q0 -28 17 -47.5t45 -19.5q12 0 24 5t20.5 13.5t13.5 20.5t5 27t-4.5 27.5t-12.5 21.5t-19.5 14t-24.5 5q-16 0 -28 -6 t-20 -15t-12 -21t-4 -25z" />
<glyph d="M-832 1468q0 26 8 56t26.5 55t50 41t77.5 14l78 -80l75 78q36 2 63.5 -9t45.5 -31t27.5 -49t9.5 -63q0 -10 -2.5 -25t-6.5 -31t-11 -31t-17 -27l8 -2q24 12 41 38.5t27 62t12 79.5q2 42 -2 90l84 -10q-2 -39 -7 -76.5t-15 -71.5t-25 -62.5t-35 -50t-47 -34.5t-61 -15 q-13 0 -24.5 2t-19 8t-8 16t7.5 26q13 22 21.5 51t8.5 61q0 36 -14.5 61t-41.5 39l-83 -81h-23l-84 81q-10 -1 -20 -5.5t-19 -12.5t-15 -21t-10 -29q30 -1 54 -10.5t40.5 -24.5t25 -34t8.5 -39q0 -15 -5 -30t-15 -27t-26 -19q-14 -8 -36 -9q-30 -1 -54 9.5t-40 30t-24 48.5 t-8 63zM-758 1456q-4 -43 10 -66.5t40 -23.5q12 0 22.5 9t10.5 27q0 12 -6.5 23t-17.5 20t-26 15t-31 8q0 -2 -1 -5t-1 -7z" />
<glyph d="M-738 1405v89h125v112h117v-112h124v-89h-124v-109h-117v109h-125z" />
<glyph d="M-720 1009q0 34 19.5 62.5t54 49t80.5 32t100 11.5q67 0 121 -17t96.5 -48t75 -74t55.5 -93q8 -17 9.5 -31.5t-2.5 -23.5t-14.5 -11t-26.5 6q-38 18 -83 35t-99 27.5t-120 12t-147 -12.5q-58 -10 -88.5 11t-30.5 64zM-605 1005q0 -2 1.5 -5.5t3.5 -6t6 -3.5q4 -2 8 -1 q53 10 103.5 11.5t100.5 -5t100 -21t102 -36.5l2 6q-26 36 -55 64.5t-64 49t-77 31.5t-92 11q-31 0 -56.5 -8t-43.5 -21.5t-28.5 -31t-10.5 -34.5z" />
<glyph d="M-720 1009q0 34 19.5 62.5t54 49t80.5 32t100 11.5q67 0 120.5 -17t96.5 -48v159h124v-313q2 -4 3 -7q2 -2 4 -6q8 -17 9.5 -31.5t-2.5 -23.5t-14.5 -11t-26.5 6q-38 18 -83 35t-99 27.5t-120 12t-147 -12.5q-58 -10 -88.5 11t-30.5 64zM-605 1005q0 -2 1.5 -5.5t3.5 -6 t6 -3.5q4 -2 8 -1q53 10 103.5 11.5t100.5 -5t100 -21t102 -36.5l2 6q-26 36 -55 64.5t-64 49t-77 31.5t-92 11q-31 0 -56.5 -8t-43.5 -21.5t-28.5 -31t-10.5 -34.5z" />
<glyph d="M-720 1009q0 34 19.5 62.5t54 49t80.5 32t100 11.5q34 0 64 -5t58 -13q0 18 7 39t23 40t40.5 32t60.5 13q40 0 67 -17t42 -42t18.5 -56t-4.5 -58.5t-26 -49t-46 -28.5l-6 -2q14 -20 27 -41t23 -44q8 -17 9.5 -31.5t-2.5 -23.5t-14.5 -11t-26.5 6q-38 18 -83 35t-99 27.5 t-120 12t-147 -12.5q-58 -10 -88.5 11t-30.5 64zM-605 1005q0 -2 1.5 -5.5t3.5 -6t6 -3.5q4 -2 8 -1q53 10 103.5 11.5t100.5 -5t100 -21t102 -36.5l2 6q-26 36 -55 64.5t-64 49t-77 31.5t-92 11q-31 0 -56.5 -8t-43.5 -21.5t-28.5 -31t-10.5 -34.5zM-272 1136.5 q0 -17.5 6 -32.5t19 -25t33 -10t33.5 10t20 25t6.5 32.5t-6.5 32.5t-20 25t-33.5 10t-33 -10t-19 -25t-6 -32.5z" />
<glyph d="M-720 1009q0 34 19.5 62.5t54 49t80.5 32t100 11.5h3.5h3.5v94h124v-116q24 -8 45.5 -19t40.5 -24v159h124v-313q2 -4 3.5 -6.5t3.5 -6.5q8 -17 9.5 -31.5t-2.5 -23.5t-14.5 -11t-26.5 6q-38 18 -83 35t-99 27.5t-120 12t-147 -12.5q-58 -10 -88.5 11t-30.5 64z M-605 1005q0 -2 1.5 -5.5t3.5 -6t6 -3.5q4 -2 8 -1q53 10 103.5 11.5t100.5 -5t100 -21t102 -36.5l2 6q-26 36 -55 64.5t-64 49t-77 31.5t-92 11q-31 0 -56.5 -8t-43.5 -21.5t-28.5 -31t-10.5 -34.5z" />
<glyph d="M-550 1344v282h108v-282h-108z" />
<glyph d="M-656 1340v44q21 0 41.5 2t38.5 8t32 15t24 24q-6 -3 -12 -3q-4 -2 -10 -2q-16 -1 -33 6t-31 20.5t-23 34.5t-9 48q0 24 7 44.5t22 36t37 24t52 8.5t52.5 -8.5t37.5 -24t22.5 -36t7.5 -44.5q0 -21 -6 -41t-15.5 -38.5t-22.5 -33.5q-14 -16 -28 -28l-12 -10q14 1 27 3.5 t29 6.5q44 11 77 32.5t56 52.5t38 71t23 90l98 -10q-10 -38 -24.5 -75t-35 -70t-48.5 -61t-66 -48.5t-87 -32t-113 -11.5h-32t-41 0.5t-41 1.5q-20 2 -32 4zM-580 1541q0 -28 16 -46t44 -18q12 0 23 4.5t19 12.5t12.5 20t4.5 26q0 28 -16.5 46t-41.5 18q-15 0 -26.5 -5.5 t-19 -14.5t-11.5 -20.5t-4 -22.5z" />
<glyph d="M-717 1476q0 26 7.5 55t26.5 53.5t49.5 40t76.5 14.5l78 -79l73 77q36 2 63 -8.5t45.5 -30.5t28 -49t9.5 -63q0 -10 -2.5 -24t-7 -30t-11.5 -31t-17 -27l8 -2q24 12 41 38t26.5 61t12 78t-1.5 91l82 -10q-2 -58 -12.5 -112t-33 -96.5t-57 -69t-84.5 -29.5q-13 0 -25 1.5 t-19 7.5t-7.5 16t8.5 26q12 22 20 51t8 59q0 36 -14 61t-40 39l-82 -80h-23l-83 80q-10 -1 -20 -5.5t-19 -12.5t-15 -21t-10 -29q30 -1 54 -10t40 -23.5t24 -33.5t8 -39q0 -15 -4.5 -29.5t-14 -26.5t-25.5 -20t-36 -8q-30 -1 -53.5 9t-39 29.5t-24 47.5t-8.5 64zM-644 1463 q-4 -43 10 -66t40 -23q12 0 22 9t10 27q0 12 -6 23t-17.5 20t-26 15t-30.5 8q0 -2 -1 -6t-1 -7z" />
<glyph d="M-670 1445v89h120v112h108v-112h122v-89h-122v-109h-108v109h-120z" />
<glyph d="M-270 1264v282h114v-282h-114z" />
<glyph d="M-416 1486q0 25 8 46.5t24 38t39 26t53 9.5q32 0 56 -9t40 -25t23.5 -38t7.5 -48q0 -22 -6 -43t-16.5 -40t-24.5 -36t-28 -29l-13 -10q14 1 27.5 3.5t30.5 6.5q46 12 80.5 35t59 55t40 74.5t23.5 94.5l100 -11q-11 -40 -26 -78.5t-36 -73t-50 -64.5t-68.5 -51.5 t-90.5 -34t-117 -12.5q-10 0 -26 0.5t-33 1t-35 1.5t-33 3v48q18 1 35.5 4.5t32.5 9.5t27 15t20 22q-7 -3 -12 -3q-6 -2 -11 -2q-16 -1 -33.5 6.5t-32.5 21.5t-25 36t-10 50zM-354 1490q0 -28 17 -47.5t45 -19.5q12 0 24 4.5t20.5 13.5t13.5 21.5t5 27.5t-4.5 27.5t-12.5 21 t-19.5 13.5t-24.5 5q-16 0 -28 -5.5t-20 -15.5t-12 -22t-4 -24z" />
<glyph d="M-532 1444q0 26 8 55t26.5 54t50 41t77.5 15l78 -79l75 77q36 2 63.5 -9t45.5 -31.5t27.5 -48.5t9.5 -63q0 -10 -2.5 -24.5t-6.5 -30.5t-11 -32t-17 -26l8 -2q24 12 41 38t27 61.5t12 79t-2 91.5l84 -10q-2 -39 -7 -76.5t-15 -71.5t-25 -63t-35 -50.5t-47 -34.5 q-27 -12 -61 -14q-13 0 -24.5 1.5t-19 7t-8.5 15.5q0 12 8 28q13 22 21.5 51t8.5 60q0 36 -14.5 61.5t-41.5 38.5l-83 -81h-23l-84 81q-10 -1 -20 -5t-19 -13t-15 -21t-10 -30q30 -1 54 -10t40.5 -23.5t25 -34t8.5 -39.5q0 -15 -5 -30t-15 -27t-26 -20q-14 -8 -36 -8 q-30 -1 -54 9.5t-40 30.5t-24 48t-8 64zM-460 1431q-2 -22 1 -38.5t10 -27.5t17 -17q12 -6 24 -6t22.5 8.5t10.5 26.5q0 12 -6.5 23.5t-18.5 20.5t-27 15t-31 8v-6q-2 -4 -2 -7z" />
<glyph d="M-372 1365v89h128v112h111v-112h129v-89h-129v-109h-111v109h-128z" />
<glyph d="M-318 1214v282h116v-282h-116z" />
<glyph d="M-554 1254v46q22 0 44 2.5t40.5 8.5t33.5 16q14 10 24 25q-7 -3 -12.5 -3.5t-10.5 -0.5q-16 -1 -33.5 5.5t-32.5 21.5t-25 36t-10 50q0 25 8 47t24 38t39 25t53 9q32 0 56 -9t40 -25t23.5 -38t7.5 -47q0 -22 -6 -43.5t-16.5 -40.5t-24.5 -35t-28 -28l-13 -10 q14 1 27.5 3.5t30.5 6.5q46 12 80.5 34t59 55t40 75t23.5 94l104 -12q-11 -40 -26 -78t-36.5 -73t-51 -64t-69.5 -51t-91.5 -34t-117.5 -12h-33.5t-43 0.5t-43 2t-34.5 3.5zM-474 1465q0 -28 17 -47.5t45 -19.5q12 0 24 5t20.5 13.5t13.5 20.5t5 27t-4.5 27.5t-12.5 21.5 t-19.5 14t-24.5 5q-16 0 -28 -6t-20 -15t-12 -21t-4 -25z" />
<glyph d="M-574 1388q0 26 8 55t27 54t50 41t77 15l79 -79l75 77q36 2 63 -9t45.5 -31.5t28 -48.5t9.5 -63q0 -10 -2.5 -24.5t-7 -30.5t-11.5 -32t-17 -26l8 -2q24 12 41 38t27 61.5t12 78.5q2 44 -2 92l84 -10q-2 -39 -7 -76.5t-14.5 -71.5t-24.5 -63t-35.5 -50.5t-47.5 -34.5 q-27 -12 -60 -14q-13 0 -25 1.5t-19 7t-8 15.5q-1 12 8 28q13 22 21 51t8 60q0 36 -14 61.5t-42 38.5l-82 -81h-23l-84 81q-10 -1 -20.5 -5t-19 -13t-15 -21t-9.5 -30q30 -1 54 -10t40.5 -23.5t24.5 -34t8 -39.5q0 -15 -5 -30t-15 -27t-25 -20t-37 -8q-30 -1 -53.5 9.5 t-39.5 30.5t-24.5 48t-8.5 64zM-500 1375q-4 -43 10.5 -66t39.5 -23q12 0 23 8.5t11 26.5q0 12 -7 23.5t-18 20.5t-26 15t-31 8q0 -2 -1 -6t-1 -7z" />
<glyph d="M-442 1310v88h124v114h117v-114h125v-88h-125v-109h-117v109h-124z" />
<glyph d="M-248 1224v282h116v-282h-116z" />
<glyph d="M-496 1260v44q21 0 41.5 2t38.5 8t32 15t24 24q-6 -3 -12 -3q-4 -2 -10 -2q-16 -1 -33 6t-31 20.5t-23 34.5t-9 48q0 24 7 44.5t22 36t37 24t52 8.5t52.5 -8.5t37.5 -24t22.5 -36t7.5 -44.5q0 -21 -6 -41t-15.5 -38.5t-22.5 -33.5q-14 -16 -28 -28l-12 -10q14 1 27 3.5 t29 6.5q44 11 77 32.5t56 52.5t38 71t23 90l98 -10q-10 -38 -24.5 -75t-35 -70t-48.5 -61t-66 -48.5t-87 -32t-113 -11.5h-32t-41 0.5t-41 1.5q-20 2 -32 4zM-420 1461q0 -28 16 -46t44 -18q12 0 23 4.5t19 12.5t12.5 20t4.5 26q0 28 -16.5 46t-41.5 18q-15 0 -26.5 -5.5 t-19 -14.5t-11.5 -20.5t-4 -22.5z" />
<glyph d="M-508 1398q0 26 7.5 55t26 54t50.5 41t78 15l78 -79l74 77q36 2 63.5 -9t46 -31.5t27.5 -48.5t9 -63q0 -10 -2 -24.5t-6.5 -30.5t-11.5 -32q-6 -16 -16 -26l7 -2q24 12 41.5 38t27 61.5t12 79t-1.5 91.5l84 -10q-2 -39 -7 -76.5t-15 -71.5t-25 -63t-35.5 -50.5 t-47.5 -34.5q-26 -12 -60 -14q-13 0 -25 1.5t-19.5 7t-7.5 15.5q-1 12 8 28q13 22 21.5 51t8.5 60q0 36 -15 61.5t-41 38.5l-84 -81h-22l-84 81q-10 -1 -20 -5t-19 -13t-15.5 -21t-9.5 -30q30 -1 54 -10t40 -23.5t24.5 -34t8.5 -39.5q0 -15 -4.5 -30t-14.5 -27t-26 -20 t-37 -8q-30 -1 -53.5 9.5t-39.5 30.5t-24 48t-8 64zM-435 1385q-4 -43 10.5 -66t39.5 -23q12 0 22.5 8.5t10.5 26.5q0 12 -6 23.5t-17.5 20.5t-26 15t-31.5 8q0 -2 -0.5 -6t-1.5 -7z" />
<glyph d="M-373 1320v88h125v114h116v-114h126v-88h-126v-109h-116v109h-125z" />
<glyph d="M-475 1264v282h108v-282h-108z" />
<glyph d="M-638 1452q0 24 7 44.5t22 36t37 24.5t52 9t52.5 -9t37.5 -24t22.5 -36t7.5 -45q0 -21 -6 -41.5t-15.5 -38.5t-22.5 -34q-14 -16 -28 -26l-12 -10q14 1 27 3.5t29 6.5q44 11 77 32.5t56 52t38 71t23 89.5l98 -11q-10 -38 -24.5 -74t-35 -69t-48.5 -61.5t-66 -49 t-87 -32.5t-113 -12q-10 0 -26 1t-33.5 2.5l-35 3t-32.5 3.5v42q18 0 35.5 3t33 8.5t28 14.5t20.5 22q-6 -3 -12 -4h-10q-16 -1 -33 5.5t-31 20.5t-23 34t-9 48zM-580 1456q0 -28 16 -46t44 -18q12 0 23 4.5t19 13t12.5 20.5t4.5 26q0 28 -16.5 45.5t-41.5 17.5 q-15 0 -26.5 -5.5t-19 -14.5t-11.5 -20t-4 -23z" />
<glyph d="M-697 1410q0 26 7.5 55t26.5 54t49.5 41t76.5 14l78 -78l73 76q36 2 63 -9t45.5 -31t28 -48t9.5 -62q0 -10 -2.5 -25t-7 -30.5t-11.5 -31t-17 -25.5l8 -2q24 12 41 37.5t26.5 61t12 78.5t-1.5 89l82 -10q-2 -58 -12.5 -112t-33 -96t-57 -69t-84.5 -29q-13 0 -25 2 t-19 7.5t-7 15.5q-1 11 8 27q12 22 20 50q8 30 8 60q0 36 -14 61t-40 38l-82 -81h-23l-83 81q-10 -1 -20 -5t-19 -13t-15 -21t-10 -29q30 -1 54 -10t40 -24t24 -34t8 -39q0 -15 -4.5 -29.5t-14 -26.5t-25.5 -20t-36 -8q-30 -1 -53.5 9.5t-39 30.5t-24 48t-8.5 62zM-624 1398 q-4 -43 10 -65.5t40 -22.5q12 0 22 8t10 26q0 12 -6 23.5t-17.5 20t-26 14.5t-30.5 8q0 -2 -1 -5t-1 -7z" />
<glyph d="M-594 1360v88h120v114h106v-114h122v-88h-122v-109h-106v109h-120z" />
</font>
</defs>
</svg>
