<?xml version="1.0" standalone="no"?>
<!DOCTYPE svg PUBLIC "-//W3C//DTD SVG 1.1//EN" "http://www.w3.org/Graphics/SVG/1.1/DTD/svg11.dtd" >
<svg xmlns="http://www.w3.org/2000/svg">
<metadata></metadata>
<defs>
<font id="db_komol_xregular" horiz-adv-x="0" >
<font-face units-per-em="2048" ascent="1638" descent="-410" />
<missing-glyph horiz-adv-x="400" />
<glyph unicode="&#x2b;&#x2d;" horiz-adv-x="799" d="M102 20v99h594v-99h-594zM102 411v99h248v228h101v-228h245v-99h-245v-229h-101v229h-248z" />
<glyph unicode="&#x2e;&#x2e;&#x2e;" horiz-adv-x="1134" d="M104 70q0 18 6 34t17 29t27 21t38 8t38 -8.5t26 -22t15 -29.5t5 -32q0 -20 -6 -38t-18 -30t-28 -19t-34 -7q-17 0 -32.5 7t-27.5 19t-19 30t-7 38zM484 70q0 18 5 34t16 29t27 21t38 8t37 -8.5t26 -22t16 -29.5t5 -32q0 -20 -7 -38t-18 -30t-27 -19t-34 -7q-17 0 -32.5 7 t-27 19t-18.5 30q-6 18 -6 38zM860 70q0 18 6 34t17 29t27 21t38 8t37.5 -8.5t26 -22t15.5 -29.5t5 -32q0 -20 -6.5 -38t-18 -30t-27.5 -19t-34 -7q-17 0 -32.5 7t-27.5 19t-19 30t-7 38z" />
<glyph unicode="&#x3c;&#x3d;" horiz-adv-x="739" d="M70 0v94h597v-94h-597zM70 428v110l596 276v-114l-486 -218l486 -213v-111z" />
<glyph unicode="&#x3e;&#x3d;" horiz-adv-x="739" d="M72 0v94h598v-94h-598zM74 158v111l486 213l-486 218v114l596 -276v-110z" />
<glyph unicode="&#xe4f;&#x22;" horiz-adv-x="1054" d="M62 417q0 100 35 179.5t97 135.5t147 86t187 30q101 0 186.5 -29.5t147.5 -85t97 -135.5t35 -181t-35 -181t-97 -135.5t-148 -85t-186 -29.5q-101 0 -186.5 30t-147.5 86t-97 135.5t-35 179.5zM175 417q0 -80 27 -146.5t74.5 -114.5t111.5 -74t140 -26t140.5 26t111.5 74 t73.5 114.5t26.5 146.5t-26.5 146.5t-73.5 114.5t-111.5 74t-140.5 26q-75 0 -139.5 -26t-112 -74t-74.5 -114.5t-27 -146.5zM274 417q0 54 20.5 96.5t55 73.5t80.5 47t98 16q50 0 96 -16t80.5 -47t55 -73.5t20.5 -96.5t-20.5 -96.5t-55 -73.5t-80.5 -47t-96 -16 q-51 0 -97.5 16t-81 47t-55 74t-20.5 96zM370 1182h106l-20 -206h-66zM378 417q0 -36 11 -66.5t31 -52t47 -33.5t61 -12q33 0 60 12t46.5 33.5t30 52t10.5 66.5t-10.5 66.5t-30 52t-47 33.5t-59.5 12q-33 0 -60.5 -12t-47.5 -33.5t-31 -51.5t-11 -67zM574 1182h106l-20 -206 h-66z" />
<glyph unicode="&#xe0e;&#xe3a;" horiz-adv-x="925" d="M88 137q0 34 11 60.5t30 44.5t45 29t54 13v218l-126 108q32 36 73.5 64.5t88 49t97 31.5t99.5 11q56 0 101 -8t79.5 -20.5t59 -29t41.5 -34.5t27 -36q8 -17 12 -32v-878q0 -20 -8 -34t-20.5 -19t-29 -2t-32.5 16q-42 36 -85 65.5t-87 51.5q-8 -31 -24.5 -57.5t-41 -45.5 t-57.5 -30t-71 -11q-48 0 -81 10.5t-54 28t-30 39.5t-9 45q0 22 11 44.5t34 40.5t57 29t80 11q32 0 65 -6t68 -16q-3 16 -9 33t-14 30l52 21q14 -26 20 -52t8 -51q18 -8 35 -15.5t36 -17.5t41 -24.5t50 -35.5q-6 33 -7 66q-1 34 -1 66v684q-2 7 -7 18t-15 23.5t-26 25.5 t-40 23.5t-55.5 17t-73.5 6.5t-79.5 -7.5t-70.5 -21t-60 -31.5t-49 -38l134 -104v-435q0 -17 -8 -31t-21.5 -23.5t-33 -15t-41.5 -5.5q-32 0 -58.5 9t-45 27t-28.5 44.5t-10 62.5zM137 137q0 -24 5.5 -41.5t15.5 -28.5t22 -15.5t25 -4.5q3 0 7 0.5t7 1.5t6 3t3 6v176 q-13 0 -29 -5t-29.5 -16.5t-23 -30t-9.5 -45.5zM209 -217q0 -10 5.5 -22t18.5 -22.5t35 -17.5t56 -7q32 0 56 9t42 24t29 36t14 45q-36 14 -68 21t-63 7q-36 0 -60 -7.5t-38.5 -19t-20.5 -24t-6 -22.5zM636.5 -458q0.5 21 9 39t26.5 30q16 12 42 12t43 -12t25.5 -30t8.5 -39 t-8.5 -39t-25.5 -30t-43 -12t-43 12t-26 30t-8.5 39z" />
<glyph unicode="&#xe0f;&#xe3a;" horiz-adv-x="925" d="M84 -221q0 24 8 45.5t24 38t42 26t61 9.5q26 0 54.5 -8t52.5 -25q-2 17 -8.5 36t-14.5 33l51 19q16 -26 23 -60.5t4 -66.5l73 -74l111 117l119 -93q-6 33 -7 66q-1 34 -1 66v684q-2 7 -7 18.5t-15 24t-26 25t-40 23t-55.5 17t-73.5 6.5t-79.5 -7.5t-70.5 -21t-60 -31.5 t-49 -38l134 -103v-436q0 -14 -6 -27.5t-19 -24.5t-33 -17t-46 -6q-32 0 -58.5 9t-45 27t-28.5 44.5t-10 62.5q0 34 11 60.5t30 44.5t45 29t54 13v218l-126 108q32 36 73.5 65t88 49t97 31t99.5 11q56 0 101 -7.5t79.5 -20t59 -29.5t41.5 -34.5t27 -34.5q8 -18 12 -34v-878 q0 -20 -8 -34t-20.5 -19t-29 -2t-32.5 15l-118 95l-118 -119q-9 12 -20 24t-22.5 25t-22.5 25t-21 22q-20 -45 -57 -68.5t-94 -23.5q-28 0 -52.5 7.5t-42.5 22t-28 34.5t-10 47zM137 137q0 -24 5.5 -41.5t14.5 -28.5t21.5 -15.5t25.5 -4.5q3 0 7 0.5t7.5 1.5t6.5 3t3 6v176 q-13 0 -29 -5t-29.5 -16.5t-23 -30t-9.5 -45.5zM142 -223q0 -11 4 -22t14 -20.5t24 -15t33 -5.5q39 0 66.5 21t38.5 65q-22 22 -48.5 35t-54.5 13q-24 0 -39 -6t-23.5 -17t-11.5 -23.5t-3 -24.5zM636.5 -458q0.5 21 9 39t26.5 30q16 12 42 12t43 -12t25.5 -30t8.5 -39 t-8.5 -39t-25.5 -30t-43 -12t-43 12t-26 30t-8.5 39z" />
<glyph unicode="&#xe0e;&#xe38;" horiz-adv-x="925" d="M88 137q0 34 11 60.5t30 44.5t45 29t54 13v218l-126 108q32 36 73.5 64.5t88 49t97 31.5t99.5 11q56 0 101 -8t79.5 -20.5t59 -29t41.5 -34.5t27 -36q8 -17 12 -32v-878q0 -20 -8 -34t-20.5 -19t-29 -2t-32.5 16q-42 36 -85 65.5t-87 51.5q-8 -31 -24.5 -57.5t-41 -45.5 t-57.5 -30t-71 -11q-48 0 -81 10.5t-54 28t-30 39.5t-9 45q0 22 11 44.5t34 40.5t57 29t80 11q32 0 65 -6t68 -16q-3 16 -9 33t-14 30l52 21q14 -26 20 -52t8 -51q18 -8 35 -15.5t36 -17.5t41 -24.5t50 -35.5q-6 33 -7 66q-1 34 -1 66v684q-2 7 -7 18t-15 23.5t-26 25.5 t-40 23.5t-55.5 17t-73.5 6.5t-79.5 -7.5t-70.5 -21t-60 -31.5t-49 -38l134 -104v-435q0 -17 -8 -31t-21.5 -23.5t-33 -15t-41.5 -5.5q-32 0 -58.5 9t-45 27t-28.5 44.5t-10 62.5zM137 137q0 -24 5.5 -41.5t15.5 -28.5t22 -15.5t25 -4.5q3 0 7 0.5t7 1.5t6 3t3 6v176 q-13 0 -29 -5t-29.5 -16.5t-23 -30t-9.5 -45.5zM209 -217q0 -10 5.5 -22t18.5 -22.5t35 -17.5t56 -7q32 0 56 9t42 24t29 36t14 45q-36 14 -68 21t-63 7q-36 0 -60 -7.5t-38.5 -19t-20.5 -24t-6 -22.5zM548 -504q0 27 9 48.5t26 37.5t41 24t52 8q29 0 49 -6.5t32 -18.5 t17 -28.5t5 -34.5v-15t-0.5 -33t-0.5 -45v-51q0 -60 -1 -134h-101v112q-26 -1 -49 7.5t-40.5 24.5t-28 42t-10.5 62zM599 -506q0 -19 3.5 -35t13 -27.5t25 -18.5t38.5 -9v147q0 9 -7.5 10.5t-15.5 1.5t-18 -3.5t-19 -12t-14.5 -22t-5.5 -31.5z" />
<glyph unicode="&#xe0f;&#xe38;" horiz-adv-x="925" d="M84 -221q0 24 8 45.5t24 38t42 26t61 9.5q26 0 54.5 -8t52.5 -25q-2 17 -8.5 36t-14.5 33l51 19q16 -26 23 -60.5t4 -66.5l73 -74l111 117l119 -93q-6 33 -7 66q-1 34 -1 66v684q-2 7 -7 18.5t-15 24t-26 25t-40 23t-55.5 17t-73.5 6.5t-79.5 -7.5t-70.5 -21t-60 -31.5 t-49 -38l134 -103v-436q0 -14 -6 -27.5t-19 -24.5t-33 -17t-46 -6q-32 0 -58.5 9t-45 27t-28.5 44.5t-10 62.5q0 34 11 60.5t30 44.5t45 29t54 13v218l-126 108q32 36 73.5 65t88 49t97 31t99.5 11q56 0 101 -7.5t79.5 -20t59 -29.5t41.5 -34.5t27 -34.5q8 -18 12 -34v-878 q0 -20 -8 -34t-20.5 -19t-29 -2t-32.5 15l-118 95l-118 -119q-9 12 -20 24t-22.5 25t-22.5 25t-21 22q-20 -45 -57 -68.5t-94 -23.5q-28 0 -52.5 7.5t-42.5 22t-28 34.5t-10 47zM137 137q0 -24 5.5 -41.5t14.5 -28.5t21.5 -15.5t25.5 -4.5q3 0 7 0.5t7.5 1.5t6.5 3t3 6v176 q-13 0 -29 -5t-29.5 -16.5t-23 -30t-9.5 -45.5zM142 -223q0 -11 4 -22t14 -20.5t24 -15t33 -5.5q39 0 66.5 21t38.5 65q-22 22 -48.5 35t-54.5 13q-24 0 -39 -6t-23.5 -17t-11.5 -23.5t-3 -24.5zM548 -504q0 27 9 48.5t26 37.5t41 24t52 8q29 0 49 -6.5t32 -18.5t17 -28.5 t5 -34.5v-15t-0.5 -33t-0.5 -45v-51q0 -60 -1 -134h-101v112q-26 -1 -49 7.5t-40.5 24.5t-28 42t-10.5 62zM599 -506q0 -19 3.5 -35t13 -27.5t25 -18.5t38.5 -9v147q0 9 -7.5 10.5t-15.5 1.5t-18 -3.5t-19 -12t-14.5 -22t-5.5 -31.5z" />
<glyph unicode="&#xe0e;&#xe39;" horiz-adv-x="925" d="M88 137q0 34 11 60.5t30 44.5t45 29t54 13v218l-126 108q32 36 73.5 64.5t88 49t97 31.5t99.5 11q56 0 101 -8t79.5 -20.5t59 -29t41.5 -34.5t27 -36q8 -17 12 -32v-878q0 -20 -8 -34t-20.5 -19t-29 -2t-32.5 16q-42 36 -85 65.5t-87 51.5q-8 -31 -24.5 -57.5t-41 -45.5 t-57.5 -30t-71 -11q-48 0 -81 10.5t-54 28t-30 39.5t-9 45q0 22 11 44.5t34 40.5t57 29t80 11q32 0 65 -6t68 -16q-3 16 -9 33t-14 30l52 21q14 -26 20 -52t8 -51q18 -8 35 -15.5t36 -17.5t41 -24.5t50 -35.5q-6 33 -7 66q-1 34 -1 66v684q-2 7 -7 18t-15 23.5t-26 25.5 t-40 23.5t-55.5 17t-73.5 6.5t-79.5 -7.5t-70.5 -21t-60 -31.5t-49 -38l134 -104v-435q0 -17 -8 -31t-21.5 -23.5t-33 -15t-41.5 -5.5q-32 0 -58.5 9t-45 27t-28.5 44.5t-10 62.5zM137 137q0 -24 5.5 -41.5t15.5 -28.5t22 -15.5t25 -4.5q3 0 7 0.5t7 1.5t6 3t3 6v176 q-13 0 -29 -5t-29.5 -16.5t-23 -30t-9.5 -45.5zM209 -217q0 -10 5.5 -22t18.5 -22.5t35 -17.5t56 -7q32 0 56 9t42 24t29 36t14 45q-36 14 -68 21t-63 7q-36 0 -60 -7.5t-38.5 -19t-20.5 -24t-6 -22.5zM312 -504q0 27 9 48.5t26 37.5t41 24.5t52 8.5q29 0 49 -6.5t32 -18.5 t17 -28t5 -35v-10.5t-0.5 -22.5t-0.5 -31v-33q0 -40 -1 -92q4 -22 24 -33q19 -11 47 -11q26 0 44.5 13t21.5 29v272h100v-274q-6 -22 -18.5 -39t-33 -29t-48.5 -18q-30 -6 -68 -6q-37 0 -66 8t-50.5 20.5t-35.5 28.5t-18 33v29q-26 -1 -49 7t-40.5 24.5t-28 42t-10.5 61.5z M363 -506q0 -19 3.5 -34.5t13 -27.5t25 -19t37.5 -9v148q0 9 -7 10.5t-15 1.5t-18 -4t-19 -12t-14.5 -21.5t-5.5 -32.5z" />
<glyph unicode="&#xe0f;&#xe39;" horiz-adv-x="925" d="M84 -221q0 24 8 45.5t24 38t42 26t61 9.5q26 0 54.5 -8t52.5 -25q-2 17 -8.5 36t-14.5 33l51 19q16 -26 23 -60.5t4 -66.5l73 -74l111 117l119 -93q-6 33 -7 66q-1 34 -1 66v684q-2 7 -7 18.5t-15 24t-26 25t-40 23t-55.5 17t-73.5 6.5t-79.5 -7.5t-70.5 -21t-60 -31.5 t-49 -38l134 -103v-436q0 -14 -6 -27.5t-19 -24.5t-33 -17t-46 -6q-32 0 -58.5 9t-45 27t-28.5 44.5t-10 62.5q0 34 11 60.5t30 44.5t45 29t54 13v218l-126 108q32 36 73.5 65t88 49t97 31t99.5 11q56 0 101 -7.5t79.5 -20t59 -29.5t41.5 -34.5t27 -34.5q8 -18 12 -34v-878 q0 -20 -8 -34t-20.5 -19t-29 -2t-32.5 15l-118 95l-118 -119q-9 12 -20 24t-22.5 25t-22.5 25t-21 22q-20 -45 -57 -68.5t-94 -23.5q-28 0 -52.5 7.5t-42.5 22t-28 34.5t-10 47zM137 137q0 -24 5.5 -41.5t14.5 -28.5t21.5 -15.5t25.5 -4.5q3 0 7 0.5t7.5 1.5t6.5 3t3 6v176 q-13 0 -29 -5t-29.5 -16.5t-23 -30t-9.5 -45.5zM142 -223q0 -11 4 -22t14 -20.5t24 -15t33 -5.5q39 0 66.5 21t38.5 65q-22 22 -48.5 35t-54.5 13q-24 0 -39 -6t-23.5 -17t-11.5 -23.5t-3 -24.5zM312 -504q0 27 9 48.5t26 37.5t41 24.5t52 8.5q29 0 49 -6.5t32 -18.5t17 -28 t5 -35v-10.5t-0.5 -22.5t-0.5 -31v-33q0 -40 -1 -92q4 -22 24 -33q19 -11 47 -11q26 0 44.5 13t21.5 29v272h100v-274q-6 -22 -18.5 -39t-33 -29t-48.5 -18q-30 -6 -68 -6q-37 0 -66 8t-50.5 20.5t-35.5 28.5t-18 33v29q-26 -1 -49 7t-40.5 24.5t-28 42t-10.5 61.5z M363 -506q0 -19 3.5 -34.5t13 -27.5t25 -19t37.5 -9v148q0 9 -7 10.5t-15 1.5t-18 -4t-19 -12t-14.5 -21.5t-5.5 -32.5z" />
<glyph unicode="&#xd;" horiz-adv-x="579" />
<glyph unicode=" "  horiz-adv-x="400" />
<glyph unicode="&#x09;" horiz-adv-x="400" />
<glyph unicode="&#xa0;" horiz-adv-x="400" />
<glyph unicode="!" horiz-adv-x="412" d="M130 70q0 16 5 30t15 26t24 19t34 7t33.5 -8t22.5 -20t13.5 -26t4.5 -28q0 -18 -6 -34t-16 -27t-24 -17t-30 -6t-30 6t-24 17t-16 27t-6 34zM139 980h131l-24 -735h-82z" />
<glyph unicode="&#x22;" horiz-adv-x="560" d="M125 982h119l-20 -336h-78zM318 982h117l-19 -336h-79z" />
<glyph unicode="#" horiz-adv-x="746" d="M41 286v76h147l30 204h-137v78h148q10 66 19.5 133t19.5 134h86l-40 -267h169l39 267h86l-40 -267h136v-78h-147q-7 -52 -14.5 -102t-14.5 -102h136v-76h-148l-40 -286h-85l41 286h-170l-40 -286h-86l41 286h-136zM274 362h168q7 52 14.5 102t15.5 102h-169 q-7 -52 -14.5 -102t-14.5 -102z" />
<glyph unicode="$" horiz-adv-x="816" d="M78 690q0 60 23 104t62.5 72.5t91 43t107.5 14.5v87h74v-89q54 -6 98 -22t81 -49v63h77v-237h-77v11q0 37 -15 64.5t-39.5 47.5t-56.5 32q-34 12 -68 18v-325q36 -14 73 -28t70 -30.5t62 -37.5t50.5 -47.5t34.5 -59.5q12 -32 12 -74q0 -65 -24 -113.5t-65.5 -80.5 t-96.5 -48q-54 -16 -116 -18v-91h-74v91q-40 2 -70 8.5t-53 14.5t-41 17t-31 18v-48h-85v246h85v-61q0 -21 8.5 -38t23.5 -30t35 -22.5t41.5 -16t44 -10.5t42.5 -6v366q-35 12 -69.5 25.5t-66.5 29.5t-59 35.5t-47 44.5t-31 57t-11 72zM195 716q0 -31 13.5 -55.5t36 -43.5 t53 -35t64.5 -30v303q-34 -2 -64 -10.5t-53 -25.5t-36.5 -42t-13.5 -61zM436 58q36 2 70 11.5t59 28t40 46t15 65.5q0 39 -14.5 68t-39.5 51t-58.5 39t-71.5 32v-341z" />
<glyph unicode="%" horiz-adv-x="1367" d="M114 674q0 51 19 94.5t51 75.5t73.5 50t86.5 18q46 0 87 -18t73 -50t51 -75t19 -95q0 -51 -19 -94.5t-51 -75t-73 -49.5t-87 -18q-45 0 -86.5 18t-73.5 49.5t-51 75t-19 94.5zM222 674q0 -41 8.5 -76t24 -61t38 -40.5t51.5 -14.5t51.5 14.5t38 40.5t24 61.5t8.5 75.5 q0 41 -8.5 76.5t-24 61.5t-38 40.5t-51.5 14.5t-51.5 -14.5t-38 -40.5t-24 -61.5t-8.5 -76.5zM336 0l608 911h89l-607 -911h-90zM793 226q0 51 19 94.5t50.5 75.5t73.5 49.5t87 17.5t87 -17.5t73.5 -49.5t50.5 -75.5t19 -94.5q0 -52 -19 -95t-50.5 -75t-73.5 -50t-87 -18 q-46 0 -87.5 18t-73 50t-50.5 75t-19 95zM902 226q0 -42 8 -77t23.5 -61t38 -40.5t51.5 -14.5t51.5 14.5t38 40.5t23.5 61t8 77q0 41 -8 76.5t-23.5 61t-38 40t-51.5 14.5t-51.5 -14.5t-38 -40t-23.5 -61t-8 -76.5z" />
<glyph unicode="&#x26;" horiz-adv-x="1028" d="M86 245q0 58 19 105.5t51.5 86.5t77 70t96.5 57q-12 17 -27 36.5t-27 35.5q-28 41 -41 81.5t-13 72.5q0 36 14 70t41 61t66 44t89 17q39 0 75.5 -13t64.5 -36.5t45 -58t17 -77.5q0 -38 -15 -72.5t-39 -64.5t-54 -53t-62 -38l262 -357q23 36 40.5 77t28.5 82.5t16.5 81 t5.5 73.5h106q-4 -50 -17.5 -98t-34.5 -95t-49 -90t-61 -82l77 -103h122v-55h-222l-58 77q-23 -19 -50 -35.5t-60 -28.5t-72.5 -18t-85.5 -6q-66 0 -125.5 15t-104 47t-70.5 79.5t-26 111.5zM201 289q0 -52 20.5 -95t54.5 -73.5t80 -47.5t96 -17q54 0 104 16.5t92 53.5 l-283 388q-30 -20 -59.5 -43t-52.5 -51t-37.5 -60.5t-14.5 -70.5zM328 822q0 -18 5 -36t12 -35t16 -33t16 -26l51 -75q60 41 88.5 85t28.5 95q0 24 -6.5 47.5t-20.5 41.5t-36 29t-50 11q-20 0 -39.5 -7t-34 -20.5t-22.5 -33t-8 -43.5z" />
<glyph unicode="'" horiz-adv-x="369" d="M125 982h119l-20 -326h-78z" />
<glyph unicode="(" horiz-adv-x="484" d="M114 426q0 90 9 163.5t25 134t37.5 108.5t47 87t53.5 70t56 57l66 -56q-50 -52 -84 -111t-55 -128t-30 -149t-9 -176t9 -176.5t30 -149t55 -127.5t84 -111l-66 -56q-28 25 -56 56.5t-53.5 70.5t-47 87t-37.5 108.5t-25 134t-9 163.5z" />
<glyph unicode=")" horiz-adv-x="484" d="M76 -138q50 52 84 111t55 127.5t30.5 149t9.5 176.5t-9.5 176t-30.5 149t-55 128t-84 111l66 56q28 -26 56.5 -57t54 -70t47 -87t37.5 -108.5t25 -134t9 -163.5t-9 -163.5t-25 -134t-37.5 -108.5t-47 -87t-53.5 -70q-29 -31 -57 -57z" />
<glyph unicode="*" horiz-adv-x="578" d="M94 816l27 98l123 -48l-4 132h95l-5 -132l120 46l34 -102l-126 -32l78 -110l-78 -60l-71 116l-69 -112l-80 58l78 109z" />
<glyph unicode="+" horiz-adv-x="819" d="M102 286v101h256v258h100v-258h258v-101h-258v-257h-100v257h-256z" />
<glyph unicode="," horiz-adv-x="418" d="M129 82q0 19 6 34.5t16.5 26t25.5 16.5t32 6q16 0 29.5 -6t24.5 -17t17 -27t6 -36q0 -42 -5 -78.5t-19 -68t-40 -55.5q-24 -23 -66 -39l-27 46q22 8 37.5 20t24.5 27t14 32t8 35q-21 0 -37 6t-26 17.5t-15.5 27t-5.5 33.5z" />
<glyph unicode="-" horiz-adv-x="730" d="M111 286v101h508v-101h-508z" />
<glyph unicode="." horiz-adv-x="418" d="M125 88q0 17 5.5 33.5t16.5 29.5t27 21t37 8q22 0 37.5 -8t25.5 -21.5t14.5 -30t4.5 -32.5q0 -20 -6.5 -37t-17.5 -29t-27 -19t-33 -7t-32 7t-27 19t-18.5 29t-6.5 37z" />
<glyph unicode="/" horiz-adv-x="457" d="M1 -36l351 1050h104l-348 -1050h-107z" />
<glyph unicode="0" horiz-adv-x="807" d="M72 456q0 62 8.5 121t26.5 110.5t45.5 95t64.5 74t83.5 48t103.5 17.5q56 0 103 -17.5t84 -48t64 -74t45 -95t27 -110.5t9 -121t-9 -121t-27 -111t-45 -95t-64 -74t-84 -48.5t-103 -17.5q-57 0 -103.5 17.5t-83.5 48.5t-64.5 74t-45.5 95t-27 110q-8 60 -8 122zM194 456 q0 -20 1.5 -49t5 -61t10.5 -66t18 -67t26.5 -62t37 -51t49 -34.5t62.5 -12.5t62.5 12.5t48.5 34.5t37 51t27 62t17.5 67t10 66t5 61t1.5 49t-1.5 48t-5 60.5t-10 67t-17.5 66.5t-27 61.5t-37 51.5t-48.5 34.5t-62.5 12.5t-62.5 -12.5t-49 -34.5t-37 -51.5t-26.5 -61.5 t-18 -66.5t-10.5 -67t-5 -60.5t-1.5 -48z" />
<glyph unicode="1" horiz-adv-x="807" d="M160 710l256 212h64v-860h180v-62h-465v62h175v720l-166 -118z" />
<glyph unicode="2" horiz-adv-x="807" d="M74 0v24l228 221q78 76 130 137.5t83.5 112.5t44.5 93.5t13 79.5q0 41 -13.5 76t-38.5 60.5t-61 40t-79 14.5q-48 0 -84 -16.5t-60.5 -45t-36.5 -65t-12 -76.5h-110q7 66 30.5 116t64 83t96 50t125.5 17q60 0 115 -16.5t96.5 -48t66 -78.5t24.5 -107q0 -46 -17 -90.5 t-48.5 -90.5t-76.5 -94.5t-101 -102.5l-201 -198h468v-96h-646z" />
<glyph unicode="3" horiz-adv-x="807" d="M50 216h120q9 -81 59.5 -126.5t141.5 -45.5q50 0 88.5 15.5t64.5 42.5t39 64t13 80q0 53 -18 91.5t-49.5 63.5t-73.5 37t-90 14h-33v61h43q46 0 83.5 12.5t65 36.5t43 59.5t15.5 80.5q0 28 -12 56t-36 50t-60.5 36.5t-86.5 14.5q-36 0 -66.5 -10.5t-52.5 -30.5t-35 -50 t-13 -70h-110q0 44 17 84t52 71t87 50q54 19 124 19q59 0 114 -13t97.5 -39t68.5 -68t26 -99q0 -90 -50 -144q-50 -55 -142 -73v-2q51 -4 91 -24.5t67.5 -52t42 -72.5t14.5 -87q0 -68 -27 -117t-73 -80.5t-106.5 -46.5t-128.5 -15q-60 0 -114 12.5t-97 39.5t-70 70t-33 105z " />
<glyph unicode="4" horiz-adv-x="807" d="M55 216v24l466 682h75v-624h122v-82h-122v-216h-106v216h-435zM180 298h310v456z" />
<glyph unicode="5" horiz-adv-x="807" d="M49 214h115q0 -36 12 -67t35 -53t57 -35t77 -13q60 0 104.5 24t74.5 62t45 85t15 93q0 48 -15.5 88.5t-46 70t-76.5 46t-106 16.5q-49 0 -95.5 -14.5t-86.5 -39.5l-27 13l135 421h418l-28 -89h-344l-82 -253q22 10 44 17.5t43.5 11.5t44 5t48.5 1q38 0 74.5 -8t70 -24.5 t61.5 -41t48 -56.5t32 -72t12 -87q0 -68 -23 -127t-68 -103.5t-112 -70t-157 -25.5q-58 0 -112 13t-95 40.5t-66 69.5q-25 44 -26 102z" />
<glyph unicode="6" horiz-adv-x="807" d="M78 449q0 54 8 110.5t26 109.5t47 99t71 80t96.5 54t124.5 20q42 0 84.5 -11t77.5 -32t56.5 -54t21.5 -77h-102q-2 28 -14.5 49t-32.5 35t-46 21t-56 7q-48 0 -85 -15t-63.5 -41t-44 -60t-28 -71t-15.5 -75q-4 -40 -4 -74v-54h4q20 34 46 57.5t56.5 39t65 22.5t72.5 7 q67 0 121 -23t92.5 -61.5t59 -89t20.5 -104.5q0 -78 -23 -139t-65.5 -103t-103.5 -64.5t-136 -22.5q-70 0 -121.5 19.5t-88 53.5t-60 79t-37.5 96.5t-19 105.5t-5 106zM210 289q0 -28 4 -56.5t13 -55.5t24 -50t37.5 -41t52 -28t68.5 -10q50 0 88.5 22t64.5 58.5t39 83 t13 95.5q0 43 -12 82.5t-36 70t-61 48.5t-87 18q-54 0 -94 -21t-65 -55t-37 -76.5t-12 -84.5z" />
<glyph unicode="7" horiz-adv-x="807" d="M97 911h627l-384 -911h-122l386 822h-506z" />
<glyph unicode="8" horiz-adv-x="807" d="M84 239q0 46 13.5 87.5t39.5 75.5t63.5 57t85.5 33v3q-44 9 -76.5 29t-53.5 47t-31.5 60t-10.5 68q0 43 18 83t53 71t90 50t129 19t128 -19t89.5 -50t53 -71t17.5 -83q0 -36 -13.5 -69.5t-37 -61.5t-54.5 -47.5t-67 -25.5v-3q48 -11 85.5 -34.5t64 -56.5t40 -74t13.5 -88 q0 -52 -22.5 -97.5t-64.5 -79.5t-101 -53.5t-131 -19.5q-76 0 -136 19.5t-101 53.5t-62 79.5t-21 97.5zM206 254q0 -47 13 -83.5t37.5 -62t61 -39t86.5 -13.5q48 0 85 13.5t61.5 39t37 62.5t12.5 83q0 35 -11.5 70t-36 62.5t-61.5 45t-87 17.5q-51 0 -88.5 -17.5t-61.5 -45 t-36 -62.5t-12 -70zM220 693q0 -39 14 -70t38 -53t58 -34t74 -12t73.5 12t58 34t37.5 53t13 70q0 40 -13.5 71.5t-38 52.5t-58.5 33q-32 12 -72 12q-90 0 -137 -44.5t-47 -124.5z" />
<glyph unicode="9" horiz-adv-x="807" d="M72 593q0 78 23 138.5t66 103t103 65.5q60 22 136 22q70 0 121.5 -20t88 -54t60.5 -79t38 -96t19 -105t5 -106q0 -54 -8 -111t-26.5 -109.5t-47.5 -98.5t-70.5 -80.5t-96.5 -54t-125 -19.5q-42 0 -84.5 10.5t-77 32t-56.5 54t-22 76.5h102q2 -28 14.5 -49t33 -35 t46.5 -21t56 -7q48 0 84.5 15t63 41t44.5 60t28 71t14.5 75.5t4.5 73.5v54h-3q-20 -34 -46 -57t-57 -38.5t-66 -23t-71 -7.5q-67 0 -121.5 23t-92.5 62t-59 89t-21 105zM196 604q0 -43 11.5 -82.5t35.5 -70.5t61 -49t88 -18q54 0 93.5 21t65 55t37.5 76.5t12 85.5 q0 42 -9.5 84t-32.5 77t-61.5 57t-96.5 22q-50 0 -88.5 -22t-64 -58t-38.5 -83t-13 -95z" />
<glyph unicode=":" horiz-adv-x="438" d="M135 88q0 17 5.5 33.5t16.5 29.5t27 21t37 8q22 0 37.5 -8t25.5 -21.5t14.5 -30t4.5 -32.5q0 -20 -6.5 -37t-17.5 -29t-27 -19t-33 -7t-32 7t-27 19t-18.5 29t-6.5 37zM135 586q0 17 5.5 33.5t16.5 29.5t27 21t37 8q22 0 37.5 -8t25.5 -21t14.5 -30t4.5 -33 q0 -20 -6.5 -36.5t-17.5 -29t-27 -19.5t-33 -7t-32 7t-27 19t-18.5 29t-6.5 37z" />
<glyph unicode=";" horiz-adv-x="438" d="M135 586q0 17 5.5 33.5t16.5 29.5t27 21t37 8q22 0 37.5 -8t25.5 -21t14.5 -30t4.5 -33q0 -20 -6.5 -36.5t-17.5 -29t-27 -19.5t-33 -7t-32 7t-27 19t-18.5 29t-6.5 37zM144 82q0 19 6 34.5t17 26t25.5 16.5t31.5 6q16 0 30 -6t24.5 -17t17 -27t6.5 -36q0 -42 -5 -78.5 t-19 -68t-40 -55.5q-26 -23 -68 -39l-26 46q22 8 37 20t25 27t15 32t7 35q-21 0 -36.5 6t-26.5 17.5t-16 27t-5 33.5z" />
<glyph unicode="&#x3c;" horiz-adv-x="739" d="M70 264v108l596 276v-114l-486 -217l486 -213v-112z" />
<glyph unicode="=" horiz-adv-x="812" d="M111 184v102h589v-102h-589zM111 387v103h589v-103h-589z" />
<glyph unicode="&#x3e;" horiz-adv-x="739" d="M74 -8v112l486 213l-486 217v114l596 -276v-108z" />
<glyph unicode="?" horiz-adv-x="663" d="M82 727q-2 50 11 96.5t43 82.5t79 57t119 20q57 -1 102.5 -14.5t77.5 -40.5t49 -67.5t17 -96.5q0 -38 -11 -72t-30 -64t-43 -57t-52 -53q-13 -12 -24.5 -24t-20 -25.5t-13.5 -29t-5 -35.5l-2 -137h-109q-1 43 -2 81.5t4.5 74.5t20.5 70t47 68q24 24 47 46.5t42 46.5 t30 52.5t10 65.5q0 30 -8.5 55.5t-25.5 44t-42 29.5t-57 11t-55 -7t-39 -19t-26 -29.5t-15 -38t-7 -43.5q-4 -23 -4 -48h-108zM242 76q0 17 5 32.5t16 28.5t27 21t36 8q22 0 37 -8.5t26 -21.5t16 -28.5t5 -31.5q0 -21 -7 -38.5t-18 -29.5t-27 -19q-14 -7 -32 -7 q-17 0 -32.5 7t-27 19t-18 29t-6.5 39z" />
<glyph unicode="@" horiz-adv-x="1151" d="M69 468q0 78 19.5 147t54.5 127.5t84 105t108 78.5t126.5 49t139.5 17q67 0 129 -15t115 -42t97 -65t75 -86t48 -104q17 -54 17 -116q0 -37 -7 -77.5t-21 -78.5t-36 -72.5t-52 -60.5t-69 -41.5t-87 -15.5q-36 0 -61 12.5t-40 29t-21 33.5t-4 26q-6 -9 -22 -26 t-39.5 -33.5t-52.5 -29t-61 -12.5q-12 0 -26.5 2t-30 8.5t-30.5 18.5t-26.5 32t-18.5 49.5t-7 69.5q0 28 8 66t24 76.5t40 76t55.5 66.5t71 47t87.5 18q26 0 43 -6t29 -16t19.5 -22t12.5 -23l14 48h96l-86 -343q-4 -20 -5.5 -38t3.5 -32.5t19.5 -23t40.5 -8.5q40 0 73 23 t55 62t34 89t12 104q0 42 -12 85t-36 83t-59 75t-81 61t-103 41t-124 15q-56 0 -108.5 -12.5t-99.5 -38t-86 -63.5t-67 -90t-44 -118t-16 -147q0 -52 14.5 -101.5t42 -93.5t66 -80.5t87 -63t105.5 -41t121 -14.5q48 0 89 5.5t75.5 14.5t65 22t57.5 30l19 -59 q-31 -16 -66.5 -31t-74.5 -27t-80 -19t-84 -7q-95 0 -173 22t-139 59t-105 86t-73 102t-43 107q-15 56 -15 104zM468 402q0 -33 7.5 -54.5t20.5 -35t30.5 -19t37.5 -5.5t45.5 18t50 56t44.5 94q21 58 31 134q3 23 0 39.5t-12 27.5t-22 16t-28 5q-18 0 -40.5 -8t-45 -24 t-44 -39t-38.5 -54t-27 -69t-10 -82z" />
<glyph unicode="A" horiz-adv-x="1126" d="M34 0v60h92l404 932h45l415 -932h103v-60h-341v60h116l-98 222h-472l-94 -222h114v-60h-284zM326 351h414l-212 483z" />
<glyph unicode="B" horiz-adv-x="942" d="M44 0v70h129v840h-129v70h438q40 0 80 -5t75.5 -16t66 -29t52.5 -45t35 -63t13 -83q0 -48 -19 -84.5t-50 -63.5t-70 -44t-81 -26q55 -4 104.5 -22.5t87 -51.5t59.5 -80t22 -105q0 -48 -14.5 -87t-39.5 -68.5t-59 -50t-74 -33.5t-84 -19q-37 -5 -74 -4h-14h-454zM288 70 h191q49 0 94 10t79 32.5t54 60.5q21 39 21 95q0 52 -15.5 92t-48.5 68t-84.5 43t-122.5 15h-168v-416zM288 556h176q54 0 94 12.5t68 36t42 56.5t14 75q0 43 -16 76t-46.5 54.5t-75 32.5t-100.5 11h-156v-354z" />
<glyph unicode="C" horiz-adv-x="1071" d="M72 490q0 114 35 207t99 158.5t154 101t202 35.5q50 0 92 -7t79 -21t68 -35t59 -51v104h86v-276h-86v12q-8 42 -29.5 77.5t-56 61.5t-81.5 40.5t-107 14.5q-90 0 -160 -31.5t-120 -87.5t-76 -133.5t-26 -169.5q0 -56 13 -109t37.5 -100t59 -86t76.5 -67t92 -43.5 t104 -15.5q64 0 115.5 8.5t93.5 26.5t76.5 44t64.5 60l52 -54q-45 -48 -90.5 -79.5t-95 -51t-103.5 -27.5q-53 -8 -115 -8q-78 0 -146 18t-125 50t-101.5 77.5t-75.5 101.5t-47.5 120.5t-16.5 134.5z" />
<glyph unicode="D" horiz-adv-x="1078" d="M44 0v70h129v840h-129v70h400q78 0 150 -14t133 -42t110 -69.5t84 -96t54 -121.5t19 -147q0 -85 -19.5 -154.5t-56 -123.5t-88.5 -94t-117 -66t-141 -39t-162 -13h-366zM288 70h122q109 0 193.5 32t142.5 88t88 133t30 167q0 79 -17 141t-46 108.5t-69 79.5t-86.5 53 t-98 29t-103.5 9h-156v-840z" />
<glyph unicode="E" horiz-adv-x="942" d="M44 0v66h130v850h-130v64h804v-195h-78v119h-482v-348h402v108h78v-292h-78v114h-402v-410h495v132h77v-208h-816z" />
<glyph unicode="F" horiz-adv-x="868" d="M44 0v66h130v850h-130v64h769v-196h-77v120h-448v-348h374v108h78v-294h-78v116h-374v-420h144v-66h-388z" />
<glyph unicode="G" horiz-adv-x="1139" d="M72 490q0 118 35 211.5t98.5 158t151 98.5t192.5 34q38 0 79.5 -5t84.5 -17.5t85 -34.5q40 -23 78 -57v102h73v-267h-73v11q0 43 -26 78t-69 60.5t-97 39.5t-110 14q-94 0 -163.5 -33.5t-115 -91t-67.5 -135.5q-23 -78 -23 -166q0 -58 11.5 -112t33.5 -101.5t54 -86 t73 -66.5t91 -43q52 -15 110 -15q54 0 98 8.5t79.5 24.5t62.5 38q28 23 48 49v190h-173v78h293v-454h-42q-10 26 -22 52q-10 26 -28 52q-38 -36 -79 -59t-83 -35t-86 -17t-90 -5q-72 0 -135 16t-117 46t-97 74t-73 99.5t-46 123t-16 143.5z" />
<glyph unicode="H" horiz-adv-x="1179" d="M44 0v66h129v850h-129v64h373v-64h-129v-360h604v360h-130v64h374v-64h-130v-850h130v-66h-374v66h130v420h-604v-420h129v-66h-373z" />
<glyph unicode="I" horiz-adv-x="480" d="M54 0v66h129v850h-129v64h373v-64h-129v-850h129v-66h-373z" />
<glyph unicode="J" horiz-adv-x="724" d="M12 206l114 20q0 -32 9 -64t28 -57t47 -40.5t65 -15.5q36 0 65.5 13t50.5 38t33 61.5t12 82.5v672h-129v64h373v-64h-129v-676q0 -68 -21.5 -116t-59.5 -78t-89.5 -44t-112.5 -14q-60 0 -107.5 16t-80.5 44t-50.5 68t-17.5 90z" />
<glyph unicode="K" horiz-adv-x="1019" d="M44 0v66h129v850h-129v64h373v-64h-129v-466l460 466h-111v64h337v-64h-116l-354 -352l377 -498h103v-66h-360v66h113l-310 412l-139 -140v-272h129v-66h-373z" />
<glyph unicode="L" horiz-adv-x="878" d="M44 0v70h129v846h-129v64h373v-64h-129v-830h440v147h95v-233h-779z" />
<glyph unicode="M" horiz-adv-x="1295" d="M44 0v66h120v850h-120v64h244l378 -770l344 770h242v-64h-122v-850h122v-66h-367v66h129v782l-347 -778h-57l-368 752v-756h125v-66h-323z" />
<glyph unicode="N" horiz-adv-x="1155" d="M44 0v66h129v850h-129v64h219l641 -760v696h-129v64h337v-64h-130v-928h-34l-698 826v-748h130v-66h-336z" />
<glyph unicode="O" horiz-adv-x="1132" d="M72 490q0 70 17 134.5t47.5 120t74.5 101.5t98.5 78t119.5 50t137 18q68 0 131 -15t118 -45t100 -73t77 -98.5t50 -123.5q17 -69 17 -147q0 -75 -16.5 -141.5t-46.5 -122t-74 -100t-98.5 -75t-119.5 -47.5q-64 -16 -138 -16q-118 0 -210 38t-155 105t-96 158.5t-33 200.5 zM203 499q0 -91 22.5 -170.5t67.5 -138t113 -92.5t160 -34t160 34t113 92.5t67 138t22 170.5q0 56 -10 109.5t-31 99.5t-51 85t-70.5 66t-90.5 43q-49 15 -109 15t-110 -15.5t-90 -42.5t-71 -66t-51 -85t-30.5 -99.5t-10.5 -109.5z" />
<glyph unicode="P" horiz-adv-x="892" d="M44 0v66h129v844h-129v70h403q47 0 92.5 -6t86 -20t74.5 -36t59 -54.5t39 -76t14 -98.5q0 -76 -27.5 -133.5t-76 -95.5t-115.5 -57t-146 -19h-159v-318h129v-66h-373zM288 462h143q53 0 100 11t82 37t55.5 70t20.5 109q0 54 -18.5 95.5t-54 69.5t-87 42t-115.5 14h-126 v-448z" />
<glyph unicode="Q" horiz-adv-x="1132" d="M72 490q0 70 17 134.5t47.5 120t74.5 101.5t98.5 78t119.5 50t137 18q68 0 131 -15t118 -45t100 -73t77 -98.5t50 -123.5q17 -69 17 -147q0 -68 -13.5 -129t-39 -113.5t-62 -95t-82.5 -74.5q20 -23 37 -40.5t31 -29.5t26 -18t24 -6t24 4t23 10.5t20 14t17 15.5l34 -38 q-14 -20 -30 -38t-35 -32t-39 -22t-44 -8q-21 0 -42.5 10t-44 29t-46 44t-48.5 55q-91 -40 -203 -40q-118 0 -210 38t-155 105t-96 159t-33 200zM204 499q0 -91 22 -171t67 -140t113 -94.5t160 -34.5q46 0 84 6.5t72 22.5q-35 40 -59.5 58t-44.5 18q-14 0 -25 -3.5t-20 -10 t-17 -15t-17 -18.5l-42 32q13 20 28 39.5t33 35.5t39.5 26t49.5 10q34 0 71.5 -29.5t85.5 -80.5q60 62 92 152t32 197q0 56 -10 109.5t-31 99.5t-51 85t-70.5 66t-90.5 43q-49 15 -109 15t-110 -15.5t-90 -42.5t-70 -66t-51 -85t-31 -99t-10 -110z" />
<glyph unicode="R" horiz-adv-x="932" d="M44 0v66h129v844h-129v70h432q43 0 85 -5t79 -18t68.5 -33t54.5 -50t36 -70q13 -42 13 -94q0 -54 -19.5 -96t-52 -73.5t-75.5 -52t-89 -30.5q18 -18 36 -47.5t38 -64t41 -72.5t43 -74q16 -25 31 -49.5t33 -43.5t41 -31t56 -12h13v-64h-74q-41 0 -71.5 14t-57 39.5 t-50 61.5t-49.5 80.5t-57 96.5t-73 110q-6 8 -15.5 13t-22 7.5t-26.5 3t-28 0.5h-96v-360h139v-66h-383zM288 497h154q54 0 99 16.5t78 45.5t51 68t18 85t-16.5 83t-49 62.5t-81.5 39t-112 13.5h-141v-413z" />
<glyph unicode="S" horiz-adv-x="895" d="M88 742q0 65 27 112.5t71.5 78t102 45t119.5 14.5q40 0 78 -4t73 -14t66 -26t56 -39v71h77v-250h-77v9q0 33 -11.5 59.5t-32 47t-47.5 34.5t-57.5 24t-62 14t-61.5 4q-39 0 -75 -9t-64 -27t-44.5 -47t-16.5 -69q0 -36 16.5 -64t45.5 -50t67 -40t81.5 -34t89 -31.5 t88.5 -34t81 -41.5t67 -53t46 -68t17 -88q0 -48 -13.5 -87t-37 -69.5t-56 -53.5t-71 -38t-82.5 -22.5t-88 -7.5q-60 0 -105.5 6t-79 16t-56.5 22q-23 10 -40 22v-54h-87v259h87v-62q0 -28 14.5 -49.5t38 -36.5t53 -25t60.5 -16t59 -8.5t48 -2.5q44 0 86 9t75 29t53 51.5 t20 75.5q0 43 -16.5 75.5t-45 57t-67 43t-81.5 34.5t-88.5 31.5t-88.5 33t-81 39t-67 50t-46 66.5t-17 88z" />
<glyph unicode="T" horiz-adv-x="954" d="M44 774v206h867v-206h-87v130h-284v-838h136v-66h-397v66h136v838h-285v-130h-86z" />
<glyph unicode="U" horiz-adv-x="1118" d="M44 916v64h380v-64h-130v-544q0 -89 23 -149.5t62 -97t92 -52t113 -15.5q62 0 114 17.5t90 53t59.5 87.5t21.5 122v578h-121v64h328v-64h-121v-576q0 -79 -22.5 -143.5t-68.5 -111t-116 -72t-164 -25.5q-110 0 -188 25t-127.5 73t-72.5 118t-23 162v550h-129z" />
<glyph unicode="V" horiz-adv-x="1134" d="M36 916v64h364v-64h-128l330 -781l320 781h-118v64h294v-64h-89l-389 -928h-73l-405 928h-106z" />
<glyph unicode="W" horiz-adv-x="1452" d="M36 916v64h352v-64h-126l218 -752l248 816h54l248 -816l214 752h-120v64h293v-64h-94l-275 -928h-82l-235 770l-235 -770h-78l-284 928h-98z" />
<glyph unicode="X" horiz-adv-x="1107" d="M34 0v66h112l342 422l-328 428h-113v64h383v-64h-120l255 -334l271 334h-126v64h336v-64h-116l-320 -392l351 -458h112v-66h-382v66h121l-279 363l-297 -363h117v-66h-319z" />
<glyph unicode="Y" horiz-adv-x="1038" d="M36 916v64h380v-64h-128l271 -474l263 474h-122v64h302v-64h-95l-312 -555v-295h129v-66h-373v66h129v285l-332 565h-112z" />
<glyph unicode="Z" horiz-adv-x="973" d="M71 3v19q0 2 1.5 5t6.5 11t15 22t27 38l575 813h-518v-127h-87v196h777v-25l-626 -883h571v144h86v-216h-788h-20h-12.5t-6 1t-1.5 2z" />
<glyph unicode="[" horiz-adv-x="467" d="M126 -246v1338h256v-82h-142v-1172h142v-84h-256z" />
<glyph unicode="\" horiz-adv-x="457" d="M1 1014h104l351 -1050h-106z" />
<glyph unicode="]" horiz-adv-x="467" d="M86 -162h141v1172h-141v82h256v-1338h-256v84z" />
<glyph unicode="^" horiz-adv-x="693" d="M68 452l229 528h99l229 -528h-107l-171 412l-173 -412h-106z" />
<glyph unicode="_" horiz-adv-x="696" d="M0 -137h696v-70h-696v70z" />
<glyph unicode="`" horiz-adv-x="379" d="M30 990h140l151 -244h-79z" />
<glyph unicode="a" horiz-adv-x="806" d="M82 220q0 56 19 100t52.5 75t81 47t104.5 16q64 0 115.5 -25t81.5 -75v146q0 63 -35 94t-111 31q-26 0 -52 -5t-51 -14.5t-47 -24.5t-37 -34l-62 60q28 22 57.5 38t61 26.5t66 15.5t74.5 5q50 0 94 -9t77 -33t52 -65t19 -106v-423h117v-60h-219v85q-15 -25 -38.5 -44 t-51.5 -32t-61 -20t-67 -7q-53 0 -97.5 16t-76 46t-49 74.5t-17.5 101.5zM195 220q0 -46 12.5 -77t34 -50.5t51 -27.5t63.5 -8q38 0 71 13.5t57 33t38 41t14 35.5v74q0 26 -16 49t-42 41t-57 29t-61 11q-34 0 -64 -10t-52 -31t-36 -51q-13 -32 -13 -72z" />
<glyph unicode="b" horiz-adv-x="871" d="M48 1016v60l218 11v-521q14 28 36 52t50 41t63 27t76 10q76 0 133.5 -28t96.5 -75t58.5 -110.5t19.5 -134.5q0 -48 -9.5 -94t-27.5 -86.5t-45 -74.5t-63 -58.5t-80 -38.5q-46 -14 -98 -14q-76 0 -131 33t-90 101l-51 -116h-55q3 27 7 55.5t4 59.5v906zM266 340 q0 -60 10 -112.5t33 -91t61 -61t94 -22.5t96.5 22.5t66.5 61t38.5 91t12.5 112.5q0 70 -15.5 123t-43.5 89t-66.5 55t-82.5 19q-52 0 -90 -22t-63.5 -60t-38 -90t-12.5 -114z" />
<glyph unicode="c" horiz-adv-x="782" d="M72 326q0 52 11 100t31 89t49 74.5t64.5 57t77 36.5t87.5 13q28 0 55 -4t52.5 -14t49.5 -26q23 -16 45 -40v76h66l8 -222h-68v15q0 30 -16 54.5t-41 42.5t-57 28.5t-63 10.5q-60 0 -103 -24t-71.5 -64t-41.5 -92.5t-13 -110.5q0 -53 14 -102t44 -87t75 -61t106 -23 q28 0 55.5 3t52.5 11.5t49.5 23.5t47.5 39l46 -44q-24 -31 -54 -50.5t-64 -31.5t-72 -17t-74 -5q-79 0 -143 25t-109.5 70t-70.5 109q-25 62 -25 140z" />
<glyph unicode="d" horiz-adv-x="871" d="M72 335q0 47 9 92t26 85t44 74t62 58t79 38t96 14q36 0 69 -7.5t61 -23t50.5 -38.5t38.5 -55v450l-122 -6v60l228 12v-1028h121v-60h-227v118q-36 -70 -94.5 -103t-136.5 -33q-55 0 -99 15t-77.5 40.5t-58 60t-40 73.5t-22.5 81t-7 83zM194 328q0 -49 11 -98.5t35 -88.5 t62 -63.5t93 -24.5q33 0 61.5 10.5t52 27.5t41.5 39.5t31 47t19 50.5t6 50v94q0 51 -14 97.5t-39.5 81t-62.5 55.5q-38 20 -84 20q-39 0 -69.5 -12.5t-54.5 -34t-41 -50.5t-27 -62t-15 -68.5t-5 -70.5z" />
<glyph unicode="e" horiz-adv-x="813" d="M72 340q0 80 25.5 145.5t70.5 112.5t106.5 72.5t133.5 25.5q64 0 122 -20t103 -61t71.5 -105t26.5 -152v-36h-537q0 -70 18.5 -122t51 -85t75.5 -49.5t93 -16.5q73 0 134 32q62 31 102 91l60 -48q-24 -38 -59 -65t-76 -44t-85 -25t-86 -8q-88 0 -154 27t-109 75t-65 113 t-22 143zM194 382h422q0 50 -12 96t-37 79.5t-65 53t-94 19.5t-94.5 -20t-67 -54t-39.5 -79t-13 -95z" />
<glyph unicode="f" horiz-adv-x="442" d="M42 0v60h112v548h-112v70h117v214q0 42 9.5 78t30.5 62t53 40.5t78 14.5q16 0 33 -2t34 -7.5t33 -16.5q18 -11 32 -27l-44 -77q-16 42 -39 60.5t-51 18.5q-32 0 -50 -28.5t-18 -78.5v-251h157v-70h-157v-548h126v-60h-344z" />
<glyph unicode="g" horiz-adv-x="885" d="M72 335q0 47 9 92t26 85t44 74t62 58t79 38t96 14q36 0 71 -9t64 -25t52 -40q23 -22 35 -52v108h226v-60h-120v-630q0 -41 -6 -80.5t-20 -76t-38 -67t-61.5 -53t-90 -35t-122.5 -12.5q-40 0 -77 6t-69.5 20.5t-61.5 37.5q-28 22 -54 55l96 73q16 -26 35 -48.5t42 -39 t50 -25.5t58 -9q50 0 89.5 11.5t67 36.5t42 65.5t14.5 96.5v174q-36 -70 -96 -103t-138 -33q-55 0 -99 15t-77.5 40.5t-58 60t-40 73.5t-22.5 81t-7 83zM194 328q0 -49 11.5 -98.5t36.5 -88.5t64 -63.5t94 -24.5q50 0 88 20.5t63.5 53t38.5 72t13 79.5v94q0 51 -12.5 97.5 t-37 81t-60 55t-81.5 20.5q-39 0 -70.5 -12.5t-56 -34t-42 -50.5t-28.5 -62t-16 -68.5t-5 -70.5z" />
<glyph unicode="h" horiz-adv-x="872" d="M48 0v60h117v962l-117 -6v60l222 12v-516q36 66 95 95t136 29q42 0 80.5 -11t67.5 -35t47 -61t18 -90v-439h116v-60h-338v60h116v422q0 32 -10.5 58t-30 44.5t-46 29t-59.5 10.5q-42 0 -77.5 -17t-61 -46t-39.5 -66t-14 -78v-357h117v-60h-339z" />
<glyph unicode="i" horiz-adv-x="464" d="M55 0v60h124v558h-124v60h231v-618h125v-60h-356zM154 908q0 15 6 28t16 23t23 15.5t29 5.5q15 0 28 -5.5t23 -15.5t15.5 -23.5t5.5 -27.5q0 -15 -5.5 -28.5t-15.5 -23.5t-23.5 -16t-27.5 -6q-15 0 -28.5 6t-23.5 16t-16 23.5t-6 28.5z" />
<glyph unicode="j" horiz-adv-x="464" d="M-32 -243l54 61h12q0 -36 19 -55t55 -19q22 0 38 13t25 33t13.5 42t4.5 42v744h-123v60h230v-762q0 -45 -9.5 -79.5t-25 -60.5t-35.5 -44t-41 -28.5t-42.5 -15t-39.5 -4.5q-28 0 -49.5 6t-38.5 16t-28.5 23.5t-18.5 27.5zM148 908q0 15 6 28t16 23t23 15.5t28 5.5 t28 -5.5t23.5 -15.5t16 -23t5.5 -28t-5.5 -28.5t-16 -23.5t-23.5 -16t-28 -6q-14 0 -27.5 6t-23.5 16t-16 23t-6 29z" />
<glyph unicode="k" horiz-adv-x="863" d="M48 0v60h121v961l-121 -5v60l227 11v-755l286 286h-115v60h336v-60h-129l-218 -218l288 -340h95v-60h-333v60h103l-228 270l-85 -84v-186h121v-60h-348z" />
<glyph unicode="l" horiz-adv-x="464" d="M54 0v60h125v962l-125 -6v60l231 12v-1028h125v-60h-356z" />
<glyph unicode="m" horiz-adv-x="1283" d="M48 0v60h126v558h-126v60h232v-94q27 58 78.5 85t130.5 27q42 0 77 -9t61.5 -26t42.5 -42t20 -55q27 64 82 98q56 34 142 34q60 0 99 -15.5t62 -42.5t32 -63.5t9 -76.5v-438h124v-60h-340v60h110v438q0 66 -35 97.5t-103 31.5q-42 0 -75 -18.5t-55 -47.5t-33 -64t-11 -69 v-368h107v-60h-323v60h110v419q0 36 -10 63.5t-27 46.5t-41 28.5t-54 9.5q-54 0 -88.5 -19t-55 -49.5t-28.5 -69.5t-8 -79v-350h108v-60h-340z" />
<glyph unicode="n" horiz-adv-x="867" d="M48 0v60h117v558h-117v60h222v-106q36 66 95 95t136 29q42 0 79.5 -11t66 -35t45 -61t16.5 -90v-439h117v-60h-339v60h117v418q0 32 -9.5 57t-28 44t-44.5 29t-59 10q-42 0 -77.5 -16t-61 -44t-39.5 -64t-14 -77v-357h117v-60h-339z" />
<glyph unicode="o" horiz-adv-x="816" d="M72 340q0 80 26 145.5t71 112.5t106 72.5t133 25.5t133 -25.5t106 -72.5t70.5 -112.5t25.5 -145.5t-25.5 -146t-70.5 -113t-106 -73t-133 -26t-133 26t-106 73t-71 113t-26 146zM194 340q0 -60 11.5 -114t37 -95t66.5 -64.5t99 -23.5t99 23.5t66.5 64.5t37 95t11.5 114 t-11.5 113.5t-37 94t-66.5 64.5t-99 24t-99 -24t-66.5 -64.5t-37 -94t-11.5 -113.5z" />
<glyph unicode="p" horiz-adv-x="888" d="M48 -256h130v874h-121v60h227v-108q14 26 34 49t47.5 40t62.5 27t80 10q76 0 134 -29t96.5 -78t58 -111.5t19.5 -129.5q0 -48 -9.5 -94t-28 -86.5t-45.5 -74.5t-63 -58.5t-81 -38.5t-97 -14q-31 0 -61 7t-57 21t-50.5 34t-39.5 48v-348h121v-60h-357v60zM284 340 q0 -60 12 -114t36 -95t62 -64.5t92 -23.5q56 0 96 24t65 65.5t36.5 97t11.5 118.5q0 74 -17.5 128t-46 89t-63.5 53q-36 18 -72 18h-4q-51 0 -88 -22q-40 -23 -67 -63t-40 -94.5t-13 -116.5z" />
<glyph unicode="q" horiz-adv-x="868" d="M72 335q0 48 10.5 93.5t30 85.5t48.5 73.5t65.5 58t80.5 37.5q45 13 95 13q67 0 115 -23q49 -23 85 -72l42 77h176v-60h-117v-874h117v-60h-344v60h121v346q-14 -27 -37 -47t-50.5 -33.5t-59 -20.5t-63.5 -7q-41 0 -80 10t-74 29t-65 48.5t-51 69t-33 88.5t-12 108z M193 340q0 -74 19.5 -129t50.5 -90t69 -52t74 -17t69 11.5t59 34.5t43 57.5t20 80.5v217q-3 46 -20 80.5t-43 57t-59 34t-69 11.5t-74 -18.5t-69 -55.5t-50.5 -92.5t-19.5 -129.5z" />
<glyph unicode="r" horiz-adv-x="535" d="M48 0v60h117v558h-112v60h218v-100q10 20 26.5 41t38 38t47 28t53.5 11q22 0 40 -6.5t32.5 -17t25.5 -25t18 -29.5l-72 -62q-13 23 -35.5 38.5t-49.5 15.5q-32 0 -55 -19t-38.5 -49t-23 -66t-7.5 -71v-345h117v-60h-340z" />
<glyph unicode="s" horiz-adv-x="709" d="M102 500q0 49 18 86t49 61.5t73 36.5t89 12q23 0 47 -4.5t46 -14t42 -23.5t33 -33v57h69v-163h-72v27q0 14 -12.5 30t-35 30t-52.5 23t-66 9q-28 0 -52 -7t-41 -21t-27 -34t-10 -44q0 -36 18 -58t46 -38t64.5 -27t74.5 -22t74.5 -24.5t64.5 -34.5t46 -52.5t18 -77.5 q0 -49 -19.5 -88.5t-51 -66.5t-73.5 -42t-86 -15q-28 0 -55.5 4.5t-52.5 15t-47.5 26.5t-43.5 41v-69h-69v190h72v-32q0 -20 16 -41t43 -37.5t61 -27.5q34 -10 68 -10q19 0 42.5 6.5t44 20t35 34.5t14.5 51q0 38 -17.5 62.5t-46 41t-64.5 27.5t-73.5 22.5t-73.5 25 t-64.5 35.5t-45.5 54q-17 30 -17 78z" />
<glyph unicode="t" horiz-adv-x="503" d="M45 618v60h112v270l97 48l9 -12v-306h169v-60h-169v-462q0 -25 2 -46t8.5 -35.5t18.5 -23t32 -8.5q16 0 28 7.5t20 19.5t12 26t6 26h16l50 -47v-16q-8 -13 -21 -26.5t-32 -25t-44 -18.5t-57 -7q-40 0 -67.5 10t-45 30t-25 53t-7.5 81v462h-112z" />
<glyph unicode="u" horiz-adv-x="869" d="M44 618v60h222v-465q0 -42 11 -72.5t30 -50t47 -28.5q26 -10 60 -10q48 0 83 16.5t59 43t35.5 60.5t11.5 69v377h-117v60h223v-618h117v-60h-223v98q-36 -60 -93.5 -88t-132.5 -28q-52 0 -92.5 13t-68 38.5t-42 65.5t-14.5 95v424h-116z" />
<glyph unicode="v" horiz-adv-x="800" d="M27 618v60h313v-60h-110l192 -497l182 497h-106v60h276v-60h-88l-246 -626h-69l-257 626h-87z" />
<glyph unicode="w" horiz-adv-x="1177" d="M27 618v60h324v-60h-111l168 -475l176 535h50l176 -535l164 475h-116v60h294v-60h-98l-228 -626h-62l-176 510l-168 -510h-60l-232 626h-101z" />
<glyph unicode="x" horiz-adv-x="793" d="M27 618v60h328v-60h-102l150 -206l157 206h-104v60h288v-60h-106l-196 -260l218 -298h102v-60h-327v60h98l-155 212l-159 -212h102v-60h-289v60h104l203 268l-211 290h-101z" />
<glyph unicode="y" horiz-adv-x="809" d="M27 618v60h309v-60h-114l200 -486l204 486h-116v60h274v-60h-80l-368 -874h116v-60h-310v60h116l109 258l-258 616h-82z" />
<glyph unicode="z" horiz-adv-x="722" d="M57 0v20q0 3 1.5 6t4.5 8t9 12.5t15 19.5l409 552h-338v-138h-78v198h566v-25l-432 -593h350v137h78v-197h-585z" />
<glyph unicode="{" horiz-adv-x="450" d="M78 422q33 11 53 26t31.5 36.5t15.5 49.5q3 28 3 66v252q0 70 15.5 113t44 66.5t69 31t91.5 7.5v-16q-28 -9 -48.5 -25.5t-32.5 -40.5t-18 -55t-6 -72v-237q0 -42 -3 -75t-15.5 -57.5t-37 -42t-67.5 -27.5q42 -10 67 -27t37.5 -42t15.5 -58t3 -74v-253q0 -40 6 -72 t18 -55t32 -39.5t49 -25.5v-18q-50 0 -91 8t-69.5 32t-44 66.5t-15.5 112.5v267q0 38 -3.5 66t-15 50t-32 37t-52.5 25z" />
<glyph unicode="|" horiz-adv-x="357" d="M124 -137v1117h109v-1117h-109z" />
<glyph unicode="}" horiz-adv-x="450" d="M49 -224q28 9 48.5 25.5t32.5 39.5t18 55t6 72v253q0 42 3 74.5t15.5 57.5t37 42t67.5 27q-43 10 -67.5 27.5t-37 42t-15.5 57.5t-3 75v237q0 40 -6 71.5t-18 55.5t-32 40t-49 26v16q50 0 91 -7.5t69.5 -31t44 -66.5t15.5 -113v-252q0 -38 3.5 -66t15 -49.5t32 -36.5 t52.5 -26q-33 -10 -53 -25t-31.5 -37t-15 -50t-3.5 -66v-267q0 -70 -15.5 -112.5t-44 -66.5t-69 -32t-91.5 -8v18z" />
<glyph unicode="~" horiz-adv-x="768" d="M76 356q18 46 45 75t62 41t77 7.5t90 -26.5l66 -31q23 -11 43 -20.5t38.5 -15.5t34.5 -7t31 6.5t29 24t28 45.5l72 -39q-18 -46 -45 -75t-62 -41t-77 -7q-40 5 -88 29l-107 51q-33 16 -57.5 20.5t-44 -2.5t-34.5 -25t-29 -48z" />
<glyph unicode="&#xa2;" horiz-adv-x="779" d="M108 476q0 69 20 129.5t56 106.5t86 74t109 34v100h75v-101q39 -6 75.5 -23.5t67.5 -51.5v70h61l8 -207h-64v14q0 26 -13 47.5t-34 38.5t-47 27t-54 13v-527q26 0 50 3.5t46.5 11t44 21.5t43.5 36l42 -40q-20 -27 -46 -45t-55 -29.5t-61 -16.5t-64 -7v-94h-75v98 q-62 8 -112.5 34t-85.5 67.5t-54 96.5q-19 54 -19 120zM216 476q0 -42 10.5 -81t31 -72t50.5 -57t71 -36v510q-41 -11 -71.5 -36t-51 -60.5t-30.5 -78.5t-10 -89z" />
<glyph unicode="&#xa3;" horiz-adv-x="727" d="M59 439v61h75q-12 20 -22 39.5t-17.5 40t-12 41.5t-4.5 43q0 59 22.5 106.5t60 81t87.5 51.5t104 18q30 0 60.5 -5t58 -14.5t52 -24.5t43.5 -35v68h78v-237h-79q2 42 -13.5 75.5t-42.5 56.5t-65 35q-36 11 -80 11q-38 0 -73 -9.5t-61 -29.5t-41.5 -49t-15.5 -67 q0 -21 7.5 -41.5t18.5 -40.5t25.5 -39t28.5 -37q8 -10 15.5 -19.5t13.5 -18.5h213v-61h-169q14 -25 20 -54t6 -59q0 -66 -23 -122.5t-69 -103.5h342v87h78v-187h-602v53q38 16 71 36t57 46.5t37.5 61.5t13.5 79q0 23 -6 45t-16 42.5t-22.5 39.5t-26.5 36h-127z" />
<glyph unicode="&#xa5;" horiz-adv-x="868" d="M6 846v65h348v-65h-108l225 -430l217 430h-102v65h276v-65h-90q-46 -90 -92 -177t-92 -177h164v-81h-206l-39 -75v-44h245v-82h-245v-144h121v-66h-353v66h121v144h-244v82h244v34q-12 22 -24 42.5t-23 42.5h-197v81h153q-49 90 -97 177t-96 177h-106z" />
<glyph unicode="&#xa9;" horiz-adv-x="1135" d="M75 490q0 68 17.5 131t50.5 117.5t78 99t100 76.5t117 50t130 18t131 -18t118 -50t99.5 -76.5t76.5 -99t49.5 -117.5t17.5 -131t-17.5 -131t-49.5 -117.5t-76.5 -100t-99.5 -77.5t-118 -50t-131 -18t-131 18t-117.5 50t-99.5 77.5t-77.5 100t-50 117.5t-17.5 131z M166 490q0 -57 15 -109.5t41 -98t62.5 -82t81 -63.5t96.5 -41q50 -14 106 -14t108 14t97 41t82 63.5t63 82t40 98t14 109.5t-14 109.5t-40 97.5t-63 82t-82 63.5t-97 41t-108 14.5t-107 -14.5t-95.5 -41t-81 -63.5t-62.5 -82t-41 -98t-15 -109zM302 493q0 28 6.5 58.5 t21 59.5t37.5 56t56 47t77 31.5t102 11.5q32 0 60.5 -3t52.5 -9q26 -7 41.5 -18t15.5 -28v-93h-24q0 22 -9 41t-28 33t-49 22t-72 8q-45 0 -80.5 -15t-60.5 -42.5t-39 -68t-14 -92.5t13 -94t39 -71t64 -45t89 -16q35 0 62.5 7t48 20t35.5 31t25 42h23l-26 -101 q-6 -9 -18 -17t-33 -16q-22 -6 -50 -9.5t-73 -3.5q-62 0 -115.5 15.5t-93 48.5t-62 85t-22.5 125z" />
<glyph unicode="&#xab;" horiz-adv-x="671" d="M40 344l282 254v-101l-171 -151l171 -157v-95zM317 344l281 254v-101l-170 -151l170 -157v-95z" />
<glyph unicode="&#xad;" horiz-adv-x="730" d="M111 286v101h508v-101h-508z" />
<glyph unicode="&#xae;" horiz-adv-x="1135" d="M75 490q0 68 17.5 131t50.5 117.5t78 99t100 76.5t117 50t130 18t131 -18t118 -50t99.5 -76.5t76.5 -99t49.5 -117.5t17.5 -131t-17.5 -131t-49.5 -117.5t-76.5 -100t-99.5 -77.5t-118 -50t-131 -18t-131 18t-117.5 50t-99.5 77.5t-77.5 100t-50 117.5t-17.5 131z M166 490q0 -57 15 -109.5t41 -98t62.5 -82t81 -63.5t96.5 -41q50 -14 106 -14t108 14t97 41t82 63.5t63 82t40 98t14 109.5t-14 109.5t-40 97.5t-63 82t-82 63.5t-97 41t-108 14.5t-107 -14.5t-95.5 -41t-81 -63.5t-62.5 -82t-41 -98t-15 -109zM344 225v43h68v443h-68v46 h236q36 0 69 -7.5t59 -24.5t41.5 -46t15.5 -73q0 -28 -9 -50t-24.5 -39.5t-36.5 -30t-45 -18.5q6 -7 15 -23.5t20.5 -36.5l23 -40t21.5 -36q6 -10 13 -21.5t15 -21t18 -15.5t22 -6h13v-43h-43q-24 0 -43 8.5t-34 23.5t-29 37t-29 48q-12 20 -25.5 46t-35.5 56q-4 6 -16 7.5 t-24 1.5h-40v-185h72v-43h-220zM492 500h70q26 0 48 8t38 23t24.5 34.5t8.5 41.5t-8.5 41t-24 33t-39 22t-53.5 8h-64v-211z" />
<glyph unicode="&#xbb;" horiz-adv-x="671" d="M72 94v95l171 157l-171 151v101l282 -254zM350 94v95l170 157l-170 151v101l281 -254z" />
<glyph unicode="&#xbc;" horiz-adv-x="1081" d="M116 792l145 120h43v-486h97v-34h-262v34h96v404l-93 -66zM244 0l587 911h80l-586 -911h-81zM622 124v17l272 399h52v-368h72v-48h-72v-124h-68v124h-256zM695 172h183v270z" />
<glyph unicode="&#xbd;" horiz-adv-x="1081" d="M116 792l145 120h43v-486h97v-34h-262v34h96v404l-93 -66zM224 0l587 911h80l-586 -911h-81zM663 0v18l123 120q44 43 73 78t46.5 63.5t25 52.5t7.5 45q0 23 -7.5 41t-21 30.5t-31.5 19.5q-20 6 -42 6q-27 0 -47.5 -8t-34 -22t-20 -33t-6.5 -41h-63q8 76 53.5 113 t125.5 37q34 0 65.5 -9t56 -27t39 -44t14.5 -61q0 -26 -10.5 -50.5t-29.5 -50.5t-45 -54t-57 -58l-112 -109h263v-57h-365z" />
<glyph unicode="&#xbe;" horiz-adv-x="1081" d="M68 498h72q6 -48 34 -70t83 -22q60 0 89.5 29t29.5 80q0 32 -10.5 54.5t-28.5 37.5t-42.5 22t-52.5 7h-20v37h26q27 0 48.5 7.5t37.5 21.5t24.5 35t8.5 48q0 16 -6.5 31.5t-20.5 28.5t-35 20t-51 7q-21 0 -38.5 -5t-30.5 -16t-20 -28t-7 -41h-67q0 26 10 50t30.5 42 t51.5 29t73 11q35 0 68 -7t58.5 -23t41.5 -40t16 -58q0 -54 -30 -86t-84 -42v-2q30 -3 54 -15t40 -30.5t25 -42.5t9 -52q0 -40 -17 -69t-44 -48t-64 -27.5t-76 -8.5q-36 0 -68 7.5t-57.5 23.5t-41.5 42t-18 62zM269 0l597 911h80l-596 -911h-81zM622 124v17l272 399h52v-368 h72v-48h-72v-124h-68v124h-256zM695 172h183v270z" />
<glyph unicode="&#xd7;" horiz-adv-x="760" d="M102 528l76 76l202 -203l203 203l75 -76l-202 -202l192 -193l-76 -76l-192 193l-192 -195l-76 76l194 195z" />
<glyph unicode="&#xf7;" horiz-adv-x="819" d="M111 286h597v101h-597v-101zM331 119q0 16 5 31.5t14.5 27.5t24.5 20t35 8t34 -8t23.5 -21t14 -28t4.5 -30q0 -19 -6 -35t-16 -27.5t-24 -18t-30 -6.5t-30.5 6.5t-25 18t-17 27.5t-6.5 35zM331 563q0 16 5 31.5t14.5 27.5t24.5 19t35 7t34 -8t23.5 -20t14 -27t4.5 -30 q0 -19 -6 -35t-16 -28t-24 -19t-30 -7t-30.5 7t-25 18t-17 28t-6.5 36z" />
<glyph unicode="&#xe01;" horiz-adv-x="903" d="M84 606q30 42 67.5 73t81 51t92.5 30t101 10q78 0 137 -15t100 -38t64.5 -52.5t30.5 -58.5v-606h-104v594q-4 10 -10 22t-17 25t-27 25t-40 21.5t-57 15t-77 5.5q-48 0 -86.5 -7.5t-69 -21t-54.5 -32.5t-44 -41l121 -90v-516h-103v518z" />
<glyph unicode="&#xe02;" horiz-adv-x="815" d="M64 557q0 46 16 84.5t43 66.5t64 43t77 15q43 0 79.5 -13t63 -40t41.5 -67t15 -95q0 -34 -6.5 -62.5t-16.5 -53.5t-22 -48.5t-22 -47t-17 -49.5q-7 -24 -7 -54v-72v-64q0 -7 5 -16t16 -17.5t30.5 -14t48.5 -5.5t47.5 5.5t29.5 14t15 18t4 15.5v654h102v-642 q0 -22 -11 -43t-35.5 -39t-62.5 -29t-91 -11q-49 0 -86.5 11.5t-62.5 30t-38 41.5t-13 46v115q0 33 10 59.5t24 50.5t31 47t31 48t24 54t10 66q0 34 -8.5 61.5t-25 47.5t-42.5 31t-60 11q-40 0 -71 -16t-51 -45q29 1 54.5 -7.5t44.5 -24.5t30 -39q11 -24 11 -52 q0 -36 -16 -60t-40 -35.5t-53 -10t-53 16.5t-40 45t-16 75zM116 557q0 -31 9 -51t23 -30t29 -11t29 6t23 21t9 34t-9 36t-24.5 27t-36 17t-43.5 6q-9 -24 -9 -55z" />
<glyph unicode="&#xe03;" horiz-adv-x="833" d="M64 594q0 22 4.5 47t17 49t33.5 45t53 33l106 -86l111 84q32 -9 52.5 -26.5t32.5 -39t17 -46t5 -48.5q0 -32 -9 -60t-22 -53t-28 -49t-28 -48t-22 -48t-8 -51l2 -183q0 -8 5.5 -19.5t17.5 -22t32 -18.5q20 -7 48 -7q29 0 48 7t30.5 17.5t16.5 21.5t5 19v642h104v-640 q0 -22 -13.5 -44t-39.5 -40t-64.5 -29t-86.5 -11t-86 11.5t-65 30t-42 41.5t-15 46l-2 176q0 34 12 60.5t30 50.5t39 46t39 45t30 49t12 58q0 14 -2 27.5t-7 26t-14 22.5t-22 16l-113 -86l-108 86q-25 -14 -37 -41t-12 -61q0 -20 6 -36.5t16.5 -28.5t25.5 -18.5t31 -6.5 q20 0 31 8t19 20l41 -28q-12 -28 -37 -42t-51 -14q-33 0 -59 11.5t-44 31t-27 46t-9 57.5z" />
<glyph unicode="&#xe04;" horiz-adv-x="925" d="M146 1v597q5 23 25.5 51.5t59.5 53.5t96 42t134 17q52 0 95.5 -8t78 -22t60.5 -32t44.5 -37t28.5 -37t12 -34v-592h-104v592q-2 10 -13 29t-36.5 37t-66 31t-101.5 13q-40 0 -70.5 -6t-53.5 -16t-38.5 -22t-25 -24t-14.5 -23t-7 -17v-226l-2 -28q19 42 43.5 77t53 60 t59 38t61.5 11q26 -2 46 -13t33.5 -27t20.5 -37t7 -43t-6.5 -44t-19.5 -39t-32.5 -28t-46.5 -11q-36 0 -59.5 16t-35.5 39t-13 49t7 46q-24 -24 -42.5 -57t-33 -71t-25.5 -79t-17 -79l2 -21v-126h-104zM410 395.5q2 -16.5 9 -30t19 -22.5t29 -9q13 0 23 6t17 15.5t10 22 t3 24.5q0 14 -3.5 26.5t-10.5 22.5t-17.5 16t-25.5 6h-15q-16 -5 -24.5 -17t-12 -28t-1.5 -32.5z" />
<glyph unicode="&#xe05;" horiz-adv-x="933" d="M144 0v610q3 17 16.5 40t37.5 45.5t60 40.5t84 26l125 -84l123 84q48 -4 84.5 -22.5t61 -42t37.5 -49.5t15 -46v-602h-104v606q0 11 -4 24.5t-12.5 26.5t-23 24t-36.5 17l-143 -94l-143 96q-18 -6 -32 -17t-23 -24t-14 -27t-5 -26v-238l-2 -28q19 42 43 76.5t51.5 59.5 t57.5 38.5t63 11.5q27 -2 47 -12t34 -27t21 -38t7 -43t-6.5 -44t-19.5 -39t-32.5 -28t-46.5 -11q-36 0 -59.5 16t-35.5 39t-14 49t6 46q-23 -24 -41.5 -57t-32.5 -71t-25 -79t-17 -79l2 -21v-127h-104zM408 395.5q2 -16.5 9 -30t18.5 -22.5t27.5 -9q14 0 24.5 6t17 15.5 t10 22t3.5 24.5q0 14 -3.5 26.5t-10.5 22.5t-17.5 16t-25.5 6h-15q-16 -5 -24.5 -17t-12 -28t-1.5 -32.5z" />
<glyph unicode="&#xe06;" horiz-adv-x="991" d="M84 594q0 22 5 47t18 49t34 45t53 33l107 -86l111 84q32 -9 52.5 -26.5t32.5 -39t16.5 -46t4.5 -48.5q0 -32 -8 -58t-19.5 -50t-25 -46t-24.5 -44t-17 -46.5t-4 -52.5q42 -6 87.5 -23.5t88.5 -43.5t81 -59t66 -71l1 642h102v-694q0 -22 -8 -37t-20 -22.5t-27 -9t-31 3.5 t-30 15t-24 25q-38 60 -79 101t-80 67t-72 39.5t-55 19.5v-194q0 -14 -6 -28t-18 -25t-29 -17t-39 -6q-32 0 -60 8.5t-48.5 28t-31.5 49.5q-12 32 -12 76q0 33 11 59.5t30 45.5t44 32t55 18q0 34 10.5 59.5t26 48t34.5 42.5t35 41.5t26.5 46.5t10.5 57q0 14 -2.5 27.5 t-7.5 26t-14 22.5t-21 16l-113 -86l-109 86q-25 -14 -37.5 -41t-12.5 -61q0 -20 6 -36.5t17 -28.5t26 -18.5t32 -6.5q20 0 30.5 8t18.5 20l42 -28q-12 -28 -37 -42t-51 -14q-33 0 -59.5 11.5t-44.5 31t-28 46t-10 57.5zM228 156q0 -28 5 -49t14 -35t21 -21.5t25 -7.5 q9 0 16 2t7 8v207q-18 -4 -34.5 -12t-28.5 -21t-18.5 -31t-6.5 -40z" />
<glyph unicode="&#xe07;" horiz-adv-x="694" d="M47 467l41 33l326 -404q6 -6 11.5 -8t10.5 0.5t7.5 9t0.5 16.5v359q-28 3 -53 13.5t-44.5 29t-30.5 44.5t-11 60q0 72 37.5 108t105.5 36q22 0 41 -6t32 -16t20.5 -24t7.5 -28v-606q0 -30 -10 -50t-26.5 -31t-36.5 -13.5t-41.5 3t-41 19t-35.5 33.5zM356 618q0 -26 9 -44 t22 -29t28 -16t29 -5v176q0 8 -6.5 9t-15.5 1q-13 0 -25 -4t-21 -15t-14.5 -29t-5.5 -44z" />
<glyph unicode="&#xe08;" horiz-adv-x="786" d="M66 620q16 28 38.5 54t56 47t79.5 33t107 12q70 0 123 -15t89.5 -37.5t56.5 -48.5q22 -27 26 -49v-532q-2 -16 -13 -32t-31.5 -30t-52.5 -23q-33 -9 -77 -9q-42 0 -72.5 8t-52 21.5t-33.5 31t-14 35.5v170q-28 3 -53 13.5t-44 28.5t-30 44q-11 28 -11 62t10 61t28.5 45 t44.5 28q27 9 59 9q22 0 40.5 -6t32 -16.5t20.5 -23.5t7 -28v-395q6 -14 25 -25.5t45 -11.5q12 0 23.5 3.5t20.5 8.5t15.5 11.5t7.5 13.5v518q-2 12 -12.5 31t-32.5 36.5t-57 30t-88 12.5q-47 0 -84.5 -9.5t-65.5 -25t-46.5 -34.5t-25.5 -37zM208 402q0 -26 8 -44t21 -29.5 t29 -16.5t30 -5l2 169q0 8 -9.5 13t-18.5 5q-11 0 -22 -6t-20 -17t-14.5 -28t-5.5 -41z" />
<glyph unicode="&#xe09;" horiz-adv-x="909" d="M72 616q23 30 55.5 58t74 48t92 32t110.5 12q70 0 127 -15t98.5 -38t66.5 -49q24 -28 29 -50v-288l-2 -17q30 -6 55.5 -18.5t44 -31.5t29 -45.5t10.5 -59.5q0 -44 -11 -75t-31 -50.5t-48 -28t-60 -8.5q-22 0 -39 6t-29 17t-18 25t-6 28v194q-22 -6 -51 -22t-61.5 -43 t-66 -67t-64.5 -95q-8 -16 -22 -26t-29.5 -14.5t-31.5 -3t-28 9.5t-20 23q-8 16 -8 38v141v29q-28 3 -54 13.5t-45 28.5t-30 44t-11 61q0 72 39 107.5t105 35.5q22 0 40.5 -6t32 -16t20.5 -24t7 -28v-294l-4 -44q28 37 60 70.5t67 60t74 44.5t81 24v285q-2 12 -16.5 31 t-41.5 37t-66.5 31t-91.5 13q-53 0 -97 -10t-78.5 -27t-59.5 -40t-40 -47zM150 377q0 -26 8 -44.5t21 -29.5t29 -16t30 -5v172q0 8 -7 11.5t-16 3.5q-13 0 -25 -5t-21 -15.5t-14 -28.5t-5 -43zM725 58q0 -6 5.5 -8.5t17.5 -2.5q13 2 24.5 8.5t20.5 19t14.5 32t5.5 47.5 q0 23 -6.5 41t-18.5 31.5t-28 21.5t-35 12v-202z" />
<glyph unicode="&#xe0a;" horiz-adv-x="821" d="M64 557q0 46 15.5 84.5t42.5 66.5t63.5 43t76.5 15q43 0 79.5 -13t63 -40t41.5 -67t15 -95q0 -34 -6.5 -62.5t-17.5 -53.5t-22.5 -48.5t-22 -47t-17.5 -49.5q-7 -24 -7 -54v-136q0 -7 6 -16t18 -17.5t32 -14t49 -5.5t48.5 5.5t31 14t16.5 18t5 15.5v440q0 16 -9 30 t-20 25t-22.5 18t-16.5 9q-8 3 -12 10t-4 14.5t4.5 14.5t13.5 11q42 18 75 42t58.5 53t44 62t29.5 70l73 -47q-13 -30 -31.5 -59.5t-42.5 -56t-55 -49.5t-69 -40v-10q16 -7 28 -15t21 -17t15.5 -17.5t10.5 -16.5q9 -19 11 -39v-420q0 -22 -12 -43t-37 -39t-63 -29t-91 -11 q-50 0 -88.5 11.5t-64.5 30t-40 41.5t-14 46v115q0 33 10 59.5t24.5 50.5t31.5 47t31.5 48t24.5 54t10 66q0 34 -8.5 61.5t-25 47.5t-42.5 31t-60 11q-40 0 -71 -16t-49 -45q28 1 53.5 -7.5t45 -24.5t30.5 -39q11 -24 11 -52q0 -36 -16 -60t-40 -35.5t-53 -10t-53 16.5 t-40 45t-16 75zM114 557q0 -31 9 -51t23 -30t30 -11t30 6t23 21t9 34t-9.5 36t-25 27t-36.5 17t-44 6q-3 -12 -6 -26t-3 -29z" />
<glyph unicode="&#xe0b;" horiz-adv-x="829" d="M62 594q0 22 4 47t16 49t33 45t53 33l106 -86l111 84q32 -9 52.5 -26.5t32.5 -39t17 -46t5 -48.5q0 -32 -9 -60t-22 -53t-28.5 -49t-28.5 -48t-21.5 -48t-7.5 -51l1 -183q0 -8 5 -19.5t18 -22t32 -18t48 -7.5t48.5 7t31 17.5t16.5 21.5t5 19v428q0 16 -8.5 30t-19.5 25 t-22.5 18t-17.5 9q-8 3 -12 10t-3 14.5t5.5 14.5t13.5 11q42 18 74.5 42t58 53t43.5 62t29 70l73 -47q-12 -30 -30 -59.5t-42 -56t-55 -49.5t-69 -40v-10q32 -14 49 -32t25 -34q10 -19 12 -39v-418q0 -22 -13.5 -44t-40 -40t-64.5 -29t-87 -11q-48 0 -86.5 11.5t-65.5 30 t-42 41.5t-15 46v176q0 34 12 60.5t30 50.5t39 46t39 45t30 49t12 58q0 14 -2 27.5t-7 26t-14 22.5t-22 16l-113 -86l-108 86q-25 -14 -36 -41t-11 -61q0 -20 5.5 -36.5t16 -28.5t25 -18.5t30.5 -6.5q20 0 31 8t19 20l40 -28q-6 -14 -15 -24t-21 -17t-25 -11t-27 -4 q-33 0 -58.5 11.5t-42.5 31t-26 46t-9 57.5z" />
<glyph unicode="&#xe0c;" horiz-adv-x="1267" d="M56 610q32 30 68 58t80 50t97 35t117 13q56 0 101.5 -7.5t80 -20t60 -29.5t43 -34.5t27.5 -35t14 -33.5v-297q46 -13 84 -31.5t71 -43t62.5 -54.5t57.5 -68l1 642h102v-694q0 -22 -7.5 -37t-20 -22.5t-28 -9t-31 3.5t-29.5 15t-23 25q-33 53 -63 90.5t-59.5 64t-58 43.5 t-58.5 29v-194q0 -14 -7 -28t-19 -25t-29 -17t-40 -6q-32 0 -59.5 8.5t-48.5 28t-32 49.5q-11 32 -11 76q0 33 10.5 59.5t30 45.5t45 32t55.5 18v283q-2 7 -7.5 18.5t-16.5 24t-29 25.5t-42.5 23.5t-57 16.5t-74.5 6q-45 0 -83.5 -8t-70.5 -21t-58 -31.5t-46 -39.5l122 -96 v-226q29 -3 55.5 -13.5t45.5 -28.5t30 -44t11 -61q0 -36 -10 -62.5t-29 -44.5t-45 -27t-60 -9q-22 0 -40.5 6t-32 16t-20.5 24t-7 28v436zM278 58q0 -8 8 -9.5t15 -1.5q13 0 25 4.5t21 15.5t14 28.5t5 41.5q0 27 -8 45.5t-21 30t-29 16.5t-30 5v-176zM549 156q0 -28 5.5 -49 t14.5 -35t21 -21.5t24 -7.5q9 0 16 2t7 8v207q-18 -4 -34.5 -12t-28.5 -21t-18.5 -31t-6.5 -40z" />
<glyph unicode="&#xe0d;" horiz-adv-x="1255" d="M56 610q32 30 67 58t78 50t96 35t121 13q56 0 101 -7.5t78 -20t57 -29.5t40.5 -34.5t25.5 -35t13 -33.5v-471q2 -10 9.5 -25t24.5 -29t44 -24t67 -10q38 0 63 10.5t40 24.5t21 29t8 24v619h100v-619q-4 -23 -17 -48.5t-39 -47t-69 -35.5t-109 -14q-49 0 -85.5 7 t-62.5 18.5t-43.5 26.5t-28 31.5t-16.5 32.5t-9 31v455q-2 7 -7 18.5t-15.5 24t-26.5 25.5t-40 23.5t-56 16.5t-74 6q-48 0 -87 -7t-70 -20.5t-56 -31.5q-25 -19 -45 -39l122 -98v-226q29 -3 55.5 -13.5t45.5 -28.5t30 -44t11 -61q0 -36 -10 -62.5t-29 -44.5t-45 -27t-60 -9 q-22 0 -40.5 6t-32 16t-20.5 24t-7 28v436zM278 58q0 -8 8 -9.5t15 -1.5q13 0 25 4.5t21 15.5t14 28.5t5 41.5q0 27 -8 45.5t-21 30t-29 16.5t-30 5v-176zM594 -154q2 22 12 40t27.5 31t40.5 19t49 5q36 -2 63.5 -18t42 -40.5t15 -55t-15.5 -62.5q40 0 74 9.5t61 28.5t46 49 t30 72l87 -18q-15 -56 -44.5 -94t-71.5 -61.5t-96 -32.5q-52 -8 -114 -4q-43 2 -81.5 9.5t-67 23t-44 39.5t-13.5 60zM649 -156q-2 -19 7.5 -32.5t26.5 -22.5t40 -14t49 -7q12 19 16 40.5t-2 39.5t-21 31t-41 15q-19 1 -33 -3.5t-23 -11.5t-13.5 -16t-5.5 -19z" />
<glyph unicode="&#xe0e;" horiz-adv-x="925" d="M88 137q0 34 11 60.5t30 44.5t45 29t54 13v218l-126 108q32 30 68 58t79 50t96 35t120 13q56 0 100.5 -7.5t78.5 -20t58 -29.5t40.5 -34.5t25.5 -34.5q8 -18 12 -34v-901q0 -12 -6 -22.5t-16.5 -17t-23 -6t-24.5 10.5q-46 42 -94 76t-98 60q-8 -31 -24.5 -57.5t-41 -45.5 t-57.5 -30t-71 -11q-48 0 -81 10.5t-54 28t-30 39.5t-9 45q0 22 11 44.5t34 40.5t57 29t80 11q32 0 65 -6t68 -16q-3 16 -9 33t-14 30l52 21q14 -26 20 -52t8 -51q18 -8 34 -15t31 -15t29 -17q15 -8 31 -20q13 -9 19 -9t8.5 5.5t2 14t-0.5 15.5v764q-2 7 -7 18.5t-15 24 t-26 25.5t-40 23.5t-55.5 16.5t-73.5 6q-48 0 -87 -7t-70 -20.5t-56 -31.5q-24 -19 -46 -39l132 -102l2 -440q0 -17 -8 -30.5t-21.5 -22.5t-33 -14t-41.5 -5q-32 0 -58.5 9t-45 27t-28.5 44.5t-10 62.5zM137 137q0 -24 5.5 -41.5t15.5 -28.5t22 -15.5t25 -4.5q3 0 7 0.5 t7 1.5t6 3t3 6l-2 176q-13 0 -28.5 -5t-29 -16.5t-22.5 -30t-9 -45.5zM209 -217q0 -10 5.5 -22t18.5 -22.5t35 -17.5t56 -7q32 0 56 9t42 24t29 36t14 45q-36 14 -68 21t-63 7q-36 0 -60 -7.5t-38.5 -19t-20.5 -24t-6 -22.5z" />
<glyph unicode="&#xe0f;" horiz-adv-x="925" d="M84 -221q0 24 8 45.5t24 38t42 26t61 9.5q26 0 54.5 -8t52.5 -25q-2 17 -8.5 36t-14.5 33l51 19q16 -26 23 -60.5t4 -66.5l73 -74l111 117l119 -95q-2 27 -3 45t-2 32t-2 26.5t-1 28.5v686q-2 7 -7 18.5t-15 24t-26 25.5t-40 23.5t-55.5 16.5t-73.5 6q-48 0 -87 -7 t-70 -20.5t-56 -31.5q-24 -19 -46 -39l132 -102l2 -438q0 -14 -8 -28t-21.5 -24t-33 -16t-41.5 -6q-32 0 -58.5 9t-45 27t-28.5 44.5t-10 62.5q0 34 11 60.5t30 44.5t45 29t54 13v218l-126 108q32 30 68 58t79 50t96 35t120 13q56 0 100.5 -7.5t78.5 -20t58 -29.5 t40.5 -34.5t25.5 -34.5q8 -18 12 -34v-878q0 -20 -6 -36t-18 -22.5t-28 -2.5q-16 3 -34 21l-122 95l-118 -119q-9 12 -20 24t-22.5 25t-22.5 25t-21 22q-20 -45 -57 -68.5t-94 -23.5q-28 0 -52.5 7.5t-42.5 22t-28 34.5t-10 47zM137 137q0 -24 5.5 -41.5t15.5 -28.5 t22 -15.5t25 -4.5q3 0 7 0.5t7 1.5t6 3t3 6l-2 176q-13 0 -28.5 -5t-29 -16.5t-22.5 -30t-9 -45.5zM142 -223q0 -11 4 -22t14 -20.5t24 -15t33 -5.5q39 0 66.5 21t38.5 65q-22 22 -48.5 35t-54.5 13q-24 0 -39 -6t-23.5 -17t-11.5 -23.5t-3 -24.5z" />
<glyph unicode="&#xe10;" horiz-adv-x="765" d="M0 -320q0 22 8 40t21.5 30.5t33 19t41.5 6.5q21 0 40.5 -6t37.5 -22q-2 22 -6 41t-14 33l38 16q8 -14 14 -33t8 -37t2 -35.5t-3 -29.5q13 -16 23 -30t17 -30l34 85q4 10 12 14t17 3.5t17 -6t11 -15.5q8 -27 18 -45t23 -28.5t29 -15.5t38 -5h62v60q-22 0 -46 6t-44 21 t-32 39q-13 24 -13 58q0 28 9.5 52t27 41t43 26t57.5 9q16 0 33 -3.5t31.5 -13t24 -24.5t9.5 -38v-211q0 -17 -5 -32t-15.5 -26t-26 -17.5t-37.5 -6.5h-96q-22 2 -41 9.5t-35 19.5t-28 29.5t-18 41.5l-40 -91h-36q-6 16 -17 36t-23 36q-14 -31 -41.5 -46t-58.5 -15 q-22 0 -41 7t-33 19t-22 28t-8 36zM46 -319q0 -12 5 -20.5t13 -15t19 -10t23 -3.5q11 0 22 4.5t20.5 13t17 19.5t10.5 25q-16 18 -34 28t-38 10q-28 0 -43 -14t-15 -37zM58.5 635q2.5 11 11.5 21q24 26 52 46.5t60 35.5t70 23.5t83 8.5q37 0 70 -8t61 -17t53 -16.5t45 -7.5 q26 0 46 11q20 12 32 32l26 -41q-10 -16 -21 -26t-23.5 -16.5t-28 -8.5t-33.5 -2q-32 0 -62 6t-57.5 14t-55 14t-54.5 6q-26 0 -53 -5t-51.5 -13t-44.5 -20t-32 -28q20 -1 51 -4.5t67.5 -8t77 -12t79 -17.5t74 -23t62 -30t42 -37.5t15.5 -45.5v-388q-3 -17 -15.5 -33.5 t-33.5 -29t-50 -20t-63 -7.5t-62.5 7t-49 20.5t-33.5 31t-16 37.5v90q-28 3 -53.5 13.5t-44.5 28.5t-30 44q-11 28 -11 62q0 36 10 63t28.5 45t45 26.5t59.5 8.5q22 0 40.5 -6t32 -16.5t21 -23.5t7.5 -28v-315q6 -18 19 -27.5t39 -9.5t39.5 9.5t16.5 25.5v388q0 18 -17 33 t-45 27.5t-64 22.5t-74 17.5t-76 13.5t-69 9.5t-53 5t-28 1.5q-12 0 -20 6t-11 16t-0.5 21zM209 320q0 -26 8.5 -44t21.5 -29t28.5 -16t29.5 -5v172q0 8 -6.5 11t-16.5 3q-13 0 -24.5 -5t-20.5 -16t-15 -29q-5 -16 -5 -42zM430 -186q0 -20 7 -35t18.5 -25t27 -15t31.5 -5h8 v126q0 14 -9 21.5t-23 7.5q-12 0 -23 -4.5t-19 -14.5t-13 -24t-5 -32z" />
<glyph unicode="&#xe11;" horiz-adv-x="1038" d="M72 594q0 22 4 47t16 49t33 45t53 33l106 -86l112 84q32 -9 52.5 -26.5t32.5 -39t16.5 -46t4.5 -48.5q0 -32 -7 -58t-17.5 -49.5t-23 -44.5t-22.5 -42.5t-17 -44.5t-7 -49v-90q33 69 70 138.5t73 132.5t68.5 114t56.5 83q18 24 40.5 38.5t47 19t47.5 1t41 -16t29.5 -32.5 t11.5 -46v-660h-105v656q0 14 -6.5 22t-15.5 11t-18.5 0t-14.5 -10q-18 -25 -42.5 -62t-52.5 -84t-59 -101t-61 -113t-58 -121t-52 -124v-74h-105v316q0 34 10.5 59t25.5 46t33.5 41t34 41t25.5 45t10 56q0 14 -2 27.5t-7 26t-14 22.5t-21 16l-114 -86l-108 86 q-24 -14 -35.5 -41t-11.5 -61q0 -20 5.5 -36.5t16.5 -28.5t25 -18.5t31 -6.5q20 0 30.5 8t18.5 20l41 -28q-12 -28 -37 -42t-51 -14q-33 0 -58.5 11.5t-43 31t-26.5 46t-9 57.5z" />
<glyph unicode="&#xe12;" horiz-adv-x="1308" d="M146 0v618q2 16 14 38t36 43.5t60 39t86 23.5l121 -94l119 94q58 -8 95.5 -26t60 -39.5t32.5 -44t12 -40.5v-303q46 -13 85 -34t72 -48.5t63 -60.5q29 -34 57 -70v658h105v-694q0 -22 -8 -37t-20.5 -22.5t-28 -9t-31 3.5t-29.5 15t-23 25q-32 53 -62 90.5t-60 64 t-60 43.5t-60 29v-194q0 -14 -6 -28t-18 -25t-29.5 -17t-40.5 -6q-32 0 -58 8.5t-45.5 28t-30.5 49.5q-10 32 -10 76q0 33 11 61t30 48.5t43.5 32.5t50.5 13l-1 305q0 10 -4 22t-13.5 23.5t-25 21t-37.5 13.5l-135 -104l-137 106q-20 -4 -35 -13.5t-24 -21t-13 -23.5 q-4 -14 -4 -24v-540q32 16 62 39t57 49t50.5 53t41.5 51q-56 8 -84.5 42t-28.5 90q0 24 7.5 45t22 37t35.5 25t48 9q26 0 45.5 -9t33.5 -25t22 -38.5t8 -48.5q0 -18 -4 -34t-10 -32t-16 -33t-22 -36q-26 -40 -60 -80t-73 -75.5t-81 -62.5t-83 -40h-75zM406 398 q-2 -40 20 -62q22 -20 60 -22q4 4 8 12.5t8 20t7 24t3 22.5q0 30 -16 46.5t-37 16.5q-24 0 -38 -15q-13 -15 -15 -43zM593 156q0 -56 18 -86q19 -29 45 -29q9 0 15.5 3t6.5 9v207q-17 -1 -32.5 -8.5t-27 -20.5t-18.5 -32t-7 -43z" />
<glyph unicode="&#xe13;" horiz-adv-x="1275" d="M60 610q22 20 43.5 39.5t45.5 37t51.5 31.5t59.5 25t69 17t83 6q57 0 101.5 -7.5t78 -20t57.5 -29.5t40.5 -34.5t25.5 -35t12 -33.5v-510q28 36 54.5 69.5t56.5 61t65 48.5t80 34v445h107v-445q28 -1 52.5 -12t43.5 -32t30 -49t11 -62q0 -44 -11.5 -75t-31.5 -50.5 t-47 -28t-60 -8.5q-22 0 -39.5 6t-29.5 16t-18.5 24t-6.5 30v194q-30 -12 -56 -29t-51.5 -43.5t-53 -64t-60.5 -90.5q-9 -15 -23 -25t-29.5 -15t-31 -3.5t-28 9t-20.5 22.5t-8 37v532q-2 7 -6.5 18.5t-14.5 24t-26.5 25.5t-39.5 23.5t-55 16.5t-74 6q-48 0 -85.5 -7 t-67 -20.5t-52.5 -31.5q-23 -19 -43 -39l131 -102v-222q28 -3 53.5 -13.5t45 -28.5t31 -44t11.5 -61q0 -72 -38 -107q-40 -36 -106 -36q-22 0 -40.5 5t-32 14t-21.5 22t-8 31v436zM291 58q0 -8 7.5 -9.5t15.5 -1.5q13 0 24.5 4.5t20.5 15.5t14.5 28.5t5.5 41.5 q0 27 -8.5 45.5t-21.5 30t-29 16.5t-29 5v-176zM1090 53q0 -12 22 -12q12 0 24 7.5t21 22.5t15 36t6 49q0 20 -7 39t-19 33t-28 23t-34 9v-207z" />
<glyph unicode="&#xe14;" horiz-adv-x="911" d="M144 0v620q4 21 24 46.5t59 47.5t97 37t137 15t135 -15t92 -37.5t55 -48.5q19 -27 23 -49v-616h-104v596q-3 19 -16.5 38.5t-38.5 35.5t-61 26t-85 10q-50 0 -87.5 -9t-63.5 -24t-41 -34.5t-21 -40.5v-520q29 16 58.5 38t56.5 47.5t51 51.5t42 49q-50 10 -77 43t-27 89 q0 24 7 44t21 35t34 24t47 9q26 0 46.5 -9t34.5 -25t22 -37t8 -44q0 -36 -16 -68t-42 -69t-60.5 -75.5t-73 -73t-79 -63t-78.5 -44.5h-79zM404 391q0 -18 6 -33.5t16.5 -26.5t25 -18t30.5 -8q6 8 12 18.5t11 21.5t8 22.5t3 21.5q0 32 -16 51t-41 19q-11 0 -21 -4.5 t-18 -13.5t-12 -21.5t-4 -28.5z" />
<glyph unicode="&#xe15;" horiz-adv-x="925" d="M144 0v618q2 16 14 38t36 43.5t60 39t86 23.5l121 -94l119 94q58 -8 95.5 -26t60 -39.5t32.5 -44t12 -40.5v-612h-104v614q0 10 -4 22t-13.5 23.5t-25 21t-37.5 13.5l-135 -104l-139 106q-20 -4 -34 -13.5t-23 -21t-13 -23.5q-4 -14 -4 -24v-536q29 16 59.5 38t60 47.5 t55 51.5t43.5 49q-50 10 -77 43t-27 89q0 24 7 44t21 35t34 24t47 9q26 0 46.5 -9t34.5 -25t22 -37t8 -44q0 -36 -16 -68t-42 -69t-62 -75.5t-76 -73t-82.5 -63t-80.5 -44.5h-79zM414 391q0 -18 6 -33.5t16.5 -26.5t25 -18t30.5 -8q6 8 12 18.5t11 21.5t8 22.5t3 21.5 q0 32 -16 51t-41 19q-11 0 -21 -4.5t-18 -13.5t-12 -21.5t-4 -28.5z" />
<glyph unicode="&#xe16;" horiz-adv-x="923" d="M76 610q32 30 69 58t83 50t100 35t122 13q57 0 102.5 -7.5t80.5 -20t60.5 -29.5t43 -34.5t27.5 -35t14 -33.5v-606h-102v592q-2 7 -8 18.5t-18 24t-29.5 25.5t-43 23.5t-58.5 16.5t-75 6q-48 0 -88.5 -7t-74 -20.5t-59.5 -31.5q-27 -19 -48 -39l123 -98v-226 q29 -3 55 -13.5t45 -28.5t30 -44t11 -61q0 -36 -10 -62.5t-28.5 -44.5t-45 -27t-59.5 -9q-22 0 -40.5 6t-32 16t-20.5 24q-8 14 -8 28v436zM299 58q0 -8 7.5 -9.5t15.5 -1.5q13 0 24.5 4.5t20.5 15.5t14.5 28.5t5.5 41.5q0 27 -8.5 45.5t-21.5 30t-28.5 16.5t-29.5 5v-176z " />
<glyph unicode="&#xe17;" horiz-adv-x="911" d="M70 620q0 72 37 108t106 36q22 0 40.5 -6t32 -16t21 -24t7.5 -28v-406q28 73 58 139t59 120.5t53 94.5t38 62q15 23 38.5 39t51 22.5t55 3t49.5 -19t36 -44.5t14 -73v-628h-106v672q0 7 -4 14.5t-11 11.5t-18 4t-25 -10q-14 -8 -34 -36.5t-45 -71.5t-53 -97.5t-56 -116.5 t-54 -129t-46 -133v-108h-105v444v29q-28 3 -53.5 13.5t-44.5 29t-30 44.5t-11 60zM121 618q0 -26 8.5 -44t21.5 -29t28.5 -16t29.5 -5v176q0 8 -6.5 9t-16.5 1q-13 0 -24.5 -4t-20.5 -15t-14.5 -29t-5.5 -44z" />
<glyph unicode="&#xe18;" horiz-adv-x="820" d="M86 598q-2 8 0 18.5t8 20.5q13 24 35.5 47.5t56 42.5t79 30t103.5 11q32 0 64.5 -8t63 -17.5t57.5 -17.5t49 -8q16 0 28 2t22 6.5t18 12.5q10 8 18 18l24 -46q-20 -26 -49 -38t-61 -12t-61 7t-56 16t-53 16t-54 7t-56 -2t-55 -10t-53 -23q-24 -15 -46 -43q32 -2 72.5 -6 t84 -11t87.5 -17t85 -22.5t75 -27t56 -30.5q8 -6 16 -14.5t15 -19.5t12 -23.5t5 -24.5v-316q-7 -20 -27.5 -42t-53.5 -41.5t-79 -32t-103 -12.5q-49 0 -95.5 11t-84 29.5t-63.5 42t-34 48.5v367h105v-359q4 -14 17.5 -29.5t36 -28t53 -20.5t68.5 -8q34 0 61 6.5t46.5 18 t31.5 27t16 34.5v317q0 6 -5.5 16t-11.5 15q-18 13 -46 24t-61 20t-71 17t-76 15t-75 13t-68 10q-17 3 -25 3.5t-16 2.5q-14 0 -21 5t-9 13z" />
<glyph unicode="&#xe19;" horiz-adv-x="915" d="M56 620q0 73 36 108q36 36 106 36q22 0 41 -6t32 -16t20.5 -24t7.5 -28v-594q28 36 66 73.5t81 68t89.5 52.5t90.5 30v434h103v-432q28 0 53.5 -11t45 -32t31 -53t11.5 -72q0 -44 -11 -75t-31 -50.5t-47.5 -28t-59.5 -8.5q-22 0 -39.5 6t-29.5 16t-19 24t-7 30v204 q-30 -8 -67 -26t-76 -47.5t-77.5 -70t-71.5 -93.5q-10 -15 -23.5 -25t-29 -15t-31 -3.5t-28 9t-20.5 22.5t-8 37v384v29q-28 3 -53 13.5t-44 29t-30 44.5t-11 60zM106 618q0 -26 9 -44t22 -29t28 -16t29 -5v176q0 8 -6 9t-16 1q-13 0 -25 -4t-21 -15t-14.5 -29t-5.5 -44z M729 53q0 -6 6.5 -9t16.5 -3q13 0 25.5 7.5t22 22.5t15.5 36t6 49q0 26 -8 47t-21 36.5t-29.5 24t-33.5 8.5v-219z" />
<glyph unicode="&#xe1a;" horiz-adv-x="920" d="M68 620q0 72 37 108t106 36q22 0 40.5 -6t32 -16t21 -24t7.5 -28v-530q4 -17 15 -36.5t32 -36t55 -27.5t82 -11t81 10.5t54 26.5t31 35t12 37v598h104v-602q-2 -12 -11 -30t-25 -36t-39 -35.5t-53.5 -31.5t-69.5 -23q-38 -8 -86 -8t-87.5 8.5t-70 22.5t-53.5 31.5 t-39 36.5t-25 37t-12 34v284l2 29q-28 3 -54 13.5t-45.5 29t-30.5 44.5t-11 60zM119 618q0 -26 8.5 -44t21.5 -29t28.5 -16t29.5 -5v176q0 8 -6.5 9t-16.5 1q-13 0 -24.5 -4t-20.5 -15t-14.5 -29t-5.5 -44z" />
<glyph unicode="&#xe1b;" horiz-adv-x="923" d="M68 618q0 72 37 108t106 36q22 0 40.5 -6t32 -16t21 -24t7.5 -28v-530q4 -17 15 -36.5t32 -36t55 -27.5t82 -11t81 10.5t54 26.5t31 35t12 37v944h104v-948q-2 -12 -11 -30t-25 -36t-39 -36t-53.5 -32t-69.5 -22q-38 -8 -86 -8t-87.5 8t-70 22t-53.5 32t-39 37t-25 37 t-12 34v284l2 29q-28 3 -54 13.5t-45.5 29t-30.5 44.5t-11 60zM119 616q0 -26 8.5 -44t21.5 -29t28.5 -16t29.5 -5v176q0 8 -6.5 9t-16.5 1q-13 0 -24.5 -4t-20.5 -15t-14.5 -29t-5.5 -44z" />
<glyph unicode="&#xe1c;" horiz-adv-x="923" d="M144 0v690q0 14 7 28t20 24t32 16t41 6q33 0 59.5 -9t45 -27t28.5 -45t10 -63q0 -34 -11.5 -60t-30.5 -44.5t-44.5 -29t-54.5 -13.5l2 -363l180 185q8 6 14 8.5t11 3.5q6 2 10 2q3 0 9 -2q4 -2 10 -4.5t14 -7.5l178 -183v642h104v-754h-82l-233 244l-235 -244h-84z M248 524q14 0 29 5t28.5 16.5t22 29.5t8.5 45q0 24 -5.5 42t-14.5 28.5t-20.5 15t-25.5 4.5q-8 0 -15 -1t-7 -9v-176z" />
<glyph unicode="&#xe1d;" horiz-adv-x="923" d="M144 0v690q0 14 7 28t20 24t32 16t41 6q33 0 59.5 -9t45 -27t28.5 -45t10 -63q0 -34 -11.5 -60t-30.5 -44.5t-44.5 -29t-54.5 -13.5l2 -363l180 185q8 6 14 8.5t11 3.5q6 2 10 2q3 0 9 -2q4 -2 10 -4.5t14 -7.5l178 -183v990h104v-1102h-82l-233 244l-235 -244h-84z M248 524q14 0 29 5t28.5 16.5t22 29.5t8.5 45q0 24 -5.5 42t-14.5 28.5t-20.5 15t-25.5 4.5q-8 0 -15 -1t-7 -9v-176z" />
<glyph unicode="&#xe1e;" horiz-adv-x="986" d="M68 620q0 72 37 108t106 36q22 0 40.5 -6t32 -16t21 -24t7.5 -28v-350l-11 -156l51 150l158 383h26l160 -383l54 -156l-12 154v422h104v-754h-74l-246 616l-244 -616l-71 2v442l2 29q-28 3 -54 13.5t-45.5 29t-30.5 44.5t-11 60zM119 618q0 -26 8.5 -44t21.5 -29 t28.5 -16t29.5 -5v176q0 8 -6.5 9t-16.5 1q-13 0 -24.5 -4t-20.5 -15t-14.5 -29t-5.5 -44z" />
<glyph unicode="&#xe1f;" horiz-adv-x="987" d="M68 620q0 72 37 108t106 36q22 0 40.5 -6t32 -16t21 -24t7.5 -28v-350l-11 -156l51 150l158 383h26l160 -383l54 -156l-12 154v770h104v-1102h-74l-246 616l-244 -616l-71 2v442l2 29q-28 3 -54 13.5t-45.5 29t-30.5 44.5t-11 60zM119 618q0 -26 8.5 -44t21.5 -29 t28.5 -16t29.5 -5v176q0 8 -6.5 9t-16.5 1q-13 0 -24.5 -4t-20.5 -15t-14.5 -29t-5.5 -44z" />
<glyph unicode="&#xe20;" horiz-adv-x="938" d="M100 137q0 34 11 60.5t30 44.5t45 29t54 13v218l-126 108q32 30 68 58t79 50t96 35t120 13q57 0 101.5 -7.5t78 -20t57.5 -29.5t40.5 -34.5t25.5 -34.5q8 -18 12 -34v-606h-104v592q-2 7 -7 18.5t-15 24t-26 25.5t-39.5 23.5t-55.5 16.5t-74 6q-48 0 -86.5 -7 t-69.5 -20.5t-56 -31.5q-25 -19 -46 -39l131 -102l2 -438q0 -14 -8 -28t-21.5 -24t-33 -16t-41.5 -6q-32 0 -58.5 9t-45 27t-28.5 44.5t-10 62.5zM150 137q0 -24 5.5 -41.5t15 -28.5t21.5 -15.5t25 -4.5q3 0 7 0.5t7.5 1.5t6 3t2.5 6l-2 176q-13 0 -28.5 -5t-28.5 -16.5 t-22 -30t-9 -45.5z" />
<glyph unicode="&#xe21;" horiz-adv-x="915" d="M94 156q0 40 12 72t31.5 53.5t45 33t53.5 11.5v151q-28 2 -54 12.5t-45 28.5t-30 44t-11 60q0 73 37 108.5t107 35.5q22 0 40.5 -6t32 -16t20.5 -23t7 -29v-368q44 -8 90.5 -30.5t89.5 -53t80.5 -67.5t65.5 -73v656h104v-692q0 -22 -8 -37t-20 -23t-28 -9.5t-31 3.5 t-29 15.5t-23 25.5q-32 52 -70.5 92.5t-78 69.5t-77 47t-67.5 26v-204q0 -14 -6 -28t-18 -24t-30 -16t-40 -6q-32 0 -59 8t-47.5 27t-31.5 49q-12 32 -12 76zM144 158q0 -27 6 -48t15.5 -35.5t22 -22t25.5 -7.5q10 0 17 2q8 3 8 9v218q-17 0 -34 -8.5t-30.5 -24t-21.5 -37.5 q-8 -20 -8 -46zM146 622q0 -27 8.5 -45t22 -29.5t29.5 -16.5t30 -5v178q0 6 -7 7t-16 1q-13 0 -25 -4t-22 -15t-15 -28t-5 -43z" />
<glyph unicode="&#xe22;" horiz-adv-x="890" d="M137 514l3 176q0 14 7 28t20 24t31 16q20 6 42 6q66 0 104 -36q37 -36 37 -108q0 -34 -10.5 -60t-29 -44.5t-44 -29t-53.5 -13.5q4 -16 16 -27.5t33 -16.5t49 -3t64 14v-42l-154 -148l-2 -104q3 -10 15.5 -26t36 -31.5t59 -26.5t85.5 -11q54 0 90.5 11t59 26t32.5 30.5 t13 25.5v612h105v-616q-4 -24 -24 -50t-56 -48t-90 -36q-56 -14 -130 -14q-75 0 -129.5 14t-90.5 36t-56 48q-20 28 -26 54l2 86l161 145q-38 -4 -69.5 4.5t-54 27.5t-35 46t-11.5 61zM244 524q14 0 29 5t28 16.5t22 29.5t9 45q0 24 -6 42t-15 28.5t-21 15t-24 4.5 q-8 0 -15 -1t-7 -9v-176z" />
<glyph unicode="&#xe23;" horiz-adv-x="657" d="M41.5 632q0.5 8 6.5 16q16 27 38 49t52 37.5t68 24.5t86 9q36 0 68 -8t60 -18t51 -18.5t41 -8.5q26 0 45 10.5t34 28.5l21 -44q-20 -26 -47 -37t-60 -11q-24 0 -49 7.5t-51.5 16.5t-56.5 16q-30 8 -62 8q-26 0 -48 -3t-41 -11t-36 -20t-32 -29q41 -4 83 -12.5t82.5 -21.5 t78 -30t69.5 -37q8 -5 17 -13t16 -19t12 -24.5t5 -30.5v-387q0 -14 -7 -28t-20.5 -25t-35 -18t-50.5 -7q-34 0 -62.5 8.5t-48 26t-30 44.5t-10.5 64q0 41 15.5 69t39.5 45.5t52 24.5q29 8 53 8v178q0 16 -7 28t-21 20q-24 17 -57.5 31.5t-72 26t-79 20t-79.5 12.5 q-10 1 -17 5.5t-10.5 11.5t-3 15zM276 137q0 -24 7 -41.5t18 -28.5t24 -15.5t25 -4.5q22 0 30 8.5t8 20.5v168q-22 1 -42 -5t-35.5 -19.5t-25 -33.5t-9.5 -49z" />
<glyph unicode="&#xe24;" horiz-adv-x="923" d="M76 610q32 30 69 58t83 50t100 35t122 13q57 0 102.5 -7.5t80.5 -20t60.5 -29.5t43 -34.5t27.5 -35t14 -33.5v-926h-102v912q-2 7 -8 18.5t-18 24t-29.5 25.5t-43 23.5t-58.5 16.5t-75 6q-48 0 -88.5 -7t-74 -20.5t-59.5 -31.5q-27 -19 -48 -39l123 -98v-226 q29 -3 55 -13.5t45 -28.5t30 -44t11 -61q0 -36 -10 -62.5t-28.5 -44.5t-45 -27t-59.5 -9q-22 0 -40.5 6t-32 16t-20.5 24q-8 14 -8 28v436zM299 58q0 -8 7.5 -9.5t15.5 -1.5q13 0 24.5 4.5t20.5 15.5t14.5 28.5t5.5 41.5q0 27 -8.5 45.5t-21.5 30t-28.5 16.5t-29.5 5v-176z " />
<glyph unicode="&#xe25;" horiz-adv-x="894" d="M116 626q20 28 47 53.5t64.5 44.5t87 30.5t115.5 11.5q72 0 128 -14t97 -36t65 -49t30 -53v-614h-105v268q-14 23 -35.5 52.5t-52.5 55.5t-71 44t-88 18q-40 0 -69 -11.5t-47 -29t-26 -38.5t-8 -39q0 -10 -1 -21t-3 -17q29 -3 54.5 -13.5t44.5 -28.5t29.5 -44t10.5 -61 q0 -72 -37.5 -107.5t-103.5 -35.5q-22 0 -41 6t-32 16t-20 24t-7 28v229q0 42 17 79.5t49 65.5t79 45t109 17q49 0 86 -11t66 -29t52.5 -41t44.5 -46v219q-6 18 -21.5 38t-42 36.5t-65 27t-88.5 10.5q-48 0 -88 -9t-72 -25t-55 -36.5t-35 -43.5zM246 56q0 -8 7 -9.5t15 -1.5 q12 0 24 4.5t21 15.5t15 28.5t6 41.5q0 27 -8.5 45.5t-22 30t-28.5 16.5t-29 5v-176z" />
<glyph unicode="&#xe26;" horiz-adv-x="931" d="M92 137q0 34 11 60.5t30 44.5t45 29t56 13l-2 218l-126 108q32 30 68 58t79 50t96 35t120 13q57 0 101.5 -7.5t78 -20t58 -29.5t41 -34.5t25.5 -35t13 -33.5v-926h-104v912q-2 7 -7 18.5t-15 24t-26.5 25.5t-40 23.5t-56 16.5t-74.5 6q-48 0 -86.5 -7t-70 -20.5 t-56.5 -31.5q-24 -19 -45 -39l133 -102v-438q0 -14 -8 -28t-21 -24t-32 -16t-41 -6q-33 0 -59.5 9t-45.5 27t-29 44.5t-10 62.5zM142 137q0 -24 5 -41.5t15 -28.5t22 -15.5t25 -4.5q8 0 15.5 1.5t7.5 9.5v176q-14 0 -30 -5t-29.5 -16.5t-22 -30t-8.5 -45.5z" />
<glyph unicode="&#xe27;" horiz-adv-x="687" d="M18 637q16 27 39.5 51t55 41.5t72.5 28t93 10.5q60 0 108 -13t81 -33t52 -44t23 -47v-563q0 -14 -7 -28t-20.5 -24t-35 -16t-49.5 -6q-70 0 -111 35t-41 108q0 41 16 69t40 45.5t52 25t52 7.5v336q-2 10 -12 26t-30 29.5t-49 23t-69 9.5q-80 0 -130 -24t-72 -64zM328 137 q0 -24 7 -41.5t18 -28.5t24 -15.5t27 -4.5q22 0 28 6.5t6 18.5v172q-22 1 -41.5 -5t-35 -19.5t-24.5 -33.5t-9 -49z" />
<glyph unicode="&#xe28;" horiz-adv-x="927" d="M148 2v596q6 23 26 51.5t59 53.5t96 42t134 17q72 0 126.5 -15t94.5 -39q22 31 39 61.5t31 60.5l86 -42q-16 -34 -38 -68t-52 -66q14 -16 22 -32t10 -30v-592h-104v590q-31 -25 -67.5 -46.5t-82.5 -39.5q23 -17 34 -43q12 -25 12 -55q0 -22 -6.5 -44t-19.5 -39t-32.5 -28 t-46.5 -11q-36 0 -59.5 16t-35.5 39t-13 49t7 46q-24 -24 -42.5 -57t-33 -71t-25 -79t-17.5 -79l2 -21v-125h-104zM250 340q18 38 40 70.5t47 57t52 40.5t55 18q62 26 108.5 59t82.5 69q-25 20 -67 34t-105 14q-40 0 -71.5 -6t-54.5 -16t-38 -22t-25 -24t-15 -23t-7 -17 v-226zM413 395.5q2 -16.5 9 -30t18.5 -22.5t28.5 -9q13 0 23 6t17.5 15.5t11 22t3.5 24.5q0 14 -3.5 26.5t-11 22.5t-18.5 16t-26 6h-15q-15 -5 -23.5 -17t-12 -28t-1.5 -32.5z" />
<glyph unicode="&#xe29;" horiz-adv-x="923" d="M68 620q0 72 37 108t106 36q22 0 40.5 -6t32 -16t21 -24t7.5 -28v-530q4 -17 15 -36.5t32 -36t55 -27.5t82 -11t81 10.5t54 26.5t31 35t12 37v168q-19 -16 -42 -25q-22 -9 -52 -10q-52 -3 -90 12t-63 40t-37 56.5t-11 61.5q0 23 7.5 44t20.5 37t33 26t46 10 q28 0 48.5 -10t34 -27t20 -38t7.5 -44q0 -20 -4 -39t-13 -34.5t-21 -27.5t-30 -16q12 -4 24 -7t26 -1q32 4 55.5 20t40.5 42v360h104v-602q-2 -12 -11 -30t-25 -36t-39 -35.5t-53.5 -31.5t-69.5 -23q-38 -8 -86 -8t-87.5 8.5t-70 22.5t-53.5 31.5t-39 36.5t-25 37t-12 34 v284l2 29q-28 3 -54 13.5t-45.5 29t-30.5 44.5t-11 60zM119 618q0 -26 8.5 -44t21.5 -29t28.5 -16t29.5 -5v176q0 8 -6.5 9t-16.5 1q-13 0 -24.5 -4t-20.5 -15t-14.5 -29t-5.5 -44zM430 461q-1 -16 2.5 -32t11.5 -29.5t19 -23.5t25 -14q16 6 27 17t18.5 23t10.5 26t3 28 t-4.5 27t-12.5 23t-20 16q-10 6 -26 6q-14 0 -24 -5.5t-17 -15t-10 -21.5t-3 -25z" />
<glyph unicode="&#xe2a;" horiz-adv-x="894" d="M114 626q20 28 47 53.5t64.5 44.5t87 30.5t115.5 11.5q80 0 140 -16q60 -18 102 -44q24 31 41 61.5t31 62.5l86 -42q-16 -36 -39 -71t-56 -68q6 -9 9.5 -18t7.5 -17v-614h-107l2 162q-11 20 -27 48t-37 58.5t-45 60t-51 53t-56 38t-59 14.5t-54 -11t-39.5 -28t-23.5 -37 t-7 -38v-14v-6t-1 -5t-1 -13q28 -3 53 -13.5t44.5 -28.5t30.5 -44t11 -61q0 -36 -10 -62.5t-28.5 -44.5t-45.5 -27t-59 -9q-22 0 -41 6t-32 16t-20 24t-7 28v229q0 40 15 75.5t44 63.5t69 44q40 18 88 20q86 28 149 65t107 80q-12 13 -30 24.5t-41 20t-51 13.5t-62 5 q-48 0 -89 -9t-73 -25t-54 -36.5t-34 -43.5zM244 56q0 -8 7 -9.5t15 -1.5q13 0 25.5 4.5t21.5 15.5t15 28.5t6 41.5q0 27 -9 45.5t-22.5 30t-29 16.5t-29.5 5v-176zM450 479q34 -16 65 -42.5t56 -55.5t44 -58t30 -51v302q-40 -28 -87.5 -51t-107.5 -44z" />
<glyph unicode="&#xe2b;" horiz-adv-x="935" d="M72 620q0 72 37 108t106 36q22 0 40.5 -6t32 -16t21 -24t7.5 -28v-446l-11 -94q16 44 40 82t53 72t61.5 63.5t64.5 55t62 47.5t55 40q-12 8 -24.5 23t-22.5 34t-17 38.5t-7 35.5q0 26 6 48.5t20 39.5t36 27t54 10q23 0 43.5 -7.5t35.5 -22.5t24 -38t9 -53 q0 -32 -21 -67.5t-62 -69.5q13 -10 26.5 -23.5t24 -30t17.5 -36.5t7 -43v-373h-104v412v14.5t-1 13t-4 14.5t-9 17q-62 -43 -117 -87.5t-102 -99t-88 -123.5t-74 -161h-80v442l2 29q-28 3 -54 13.5t-45.5 29t-30.5 44.5t-11 60zM123 618q0 -26 8.5 -44t21.5 -29t28.5 -16 t29.5 -5v176q0 8 -6.5 9t-16.5 1q-13 0 -24.5 -4t-20.5 -15t-14.5 -29t-5.5 -44zM626 654q0 -16 4.5 -32t12 -30.5t17.5 -28t20 -25.5q19 14 30.5 29t18 30t9 30t2.5 29q0 30 -16 46.5t-40 16.5q-12 0 -22 -4.5t-18 -13t-13 -20.5q-5 -11 -5 -27z" />
<glyph unicode="&#xe2c;" horiz-adv-x="972" d="M53 620q0 72 37.5 108t105.5 36q22 0 41 -6t32 -16t20.5 -24t7.5 -28v-452l-11 -126l52 97l158 252h26l160 -248l60 -103l-17 120v374q-10 -2 -25.5 -4t-30.5 -4t-29 -3t-24 -1q-32 0 -63 6t-55 20t-39 35t-15 51q0 27 13 47.5t35 34.5t53 21.5t67 7.5q28 0 55 -6 t50.5 -17.5t43.5 -28.5q19 -17 33 -40q11 14 18.5 33.5t13.5 48.5l56 -7q-6 -42 -21 -74t-42 -60q2 -10 4 -24q2 -11 3 -26q2 -14 2 -32v-582h-90l-230 381l-230 -381l-86 2v442l2 29q-28 3 -53.5 13.5t-45 29t-31 44.5t-11.5 60zM104 618q0 -26 9 -44t22 -29t28 -16t29 -5 v176q0 8 -6 9t-16 1q-13 0 -25 -4t-21 -15t-14.5 -29t-5.5 -44zM504 704q0 -14 9 -26t25 -21t38 -13.5t48 -4.5q11 0 24.5 1.5t27.5 3.5t27 6t24 8v20q0 23 -11 39.5t-27.5 26.5t-36.5 15t-38 5q-51 0 -80.5 -16t-29.5 -44z" />
<glyph unicode="&#xe2d;" horiz-adv-x="870" d="M76 626q19 28 47.5 53.5t67.5 44.5t90 30.5t117 11.5q72 0 129 -14t99 -36t67.5 -49t31.5 -53v-474q-2 -13 -11.5 -29.5t-25.5 -33t-40 -32t-55 -28t-70 -20t-87 -7.5q-72 0 -124.5 14t-87.5 35t-53.5 46t-22.5 48l2 332q0 14 7 27.5t20 23.5t32 16t41 6q70 0 106.5 -35 t36.5 -107q0 -34 -11.5 -61t-31 -45t-45.5 -28.5t-55 -13.5l2 -29v-4v-10v-13.5v-14.5v-40q4 -17 15 -33t33 -28t56 -19.5t82 -7.5t82 8.5t55.5 22t32 30t12.5 34.5v450q-6 18 -24 38t-47.5 36.5t-70 27t-91.5 10.5q-48 0 -88.5 -9t-72 -25t-54 -36.5t-35.5 -43.5zM254 299 q14 0 29.5 5t28.5 16t21.5 29t8.5 44t-6 43.5t-15 28.5t-21 16t-26 5q-10 0 -15 -1.5t-5 -9.5v-176z" />
<glyph unicode="&#xe2e;" horiz-adv-x="870" d="M88 616q0 26 21 53t61 48.5t97 35t131 13.5q68 0 122 -12.5t96 -32.5q16 22 27 47t17 51l90 -23q-6 -16 -13.5 -32.5t-16 -33t-18 -31.5t-18.5 -25q12 -8 19 -16t11 -16t6 -16t5 -18v-475q-4 -19 -22.5 -44t-54 -47t-88 -37t-124.5 -15t-124.5 13t-87.5 32.5t-53.5 43 t-22.5 46.5l2 260q0 14 7 27.5t20 24t32 16.5t41 6q70 0 106.5 -35.5t36.5 -107.5q0 -34 -11.5 -61t-31 -45t-45.5 -28.5t-55 -13.5v-37q4 -17 20 -32t41 -26t58 -17.5t69 -6.5q48 0 82 7.5t55.5 19.5t32 28t12.5 33v453q-2 4 -2 8t-4 10q-33 -30 -71 -49t-77 -30.5 t-76.5 -16t-69.5 -4.5q-58 0 -102 9t-73 24t-43 35q-14 18 -14 40zM160 622q0 -10 9 -20t28.5 -18t50 -12t72.5 -4q68 0 130.5 24t112.5 68q-31 20 -74.5 33t-99.5 13q-52 0 -94.5 -7.5t-72.5 -19.5t-46 -27q-16 -16 -16 -30zM254 219q14 0 29.5 5t28.5 16t21.5 29.5 t8.5 44.5t-6 43.5t-15 28t-21 15.5t-26 5q-10 0 -15 -2q-5 0 -5 -8v-177z" />
<glyph unicode="&#xe2f;" horiz-adv-x="803" d="M78 620q0 34 10.5 60.5t28 44t40 26.5t46.5 9q28 0 52 -7.5t42 -24t28.5 -42.5t10.5 -62q0 -26 -8.5 -48t-21 -40t-27.5 -29t-27 -15q10 -7 23.5 -12t27.5 -7.5t27.5 -4t23.5 -1.5q42 0 82 18.5t70 54.5t49 89t19 123h86v-535q0 -60 -14 -105.5t-45 -78.5t-80 -56 t-119 -37l-23 58q54 14 87.5 37t53 50t26.5 55t7 52v304q-31 -45 -81 -70q-52 -24 -118 -24q-32 0 -65 6t-63.5 19t-57.5 32t-47 43t-31.5 54t-11.5 64zM144 626q0 -22 5 -38t12.5 -28.5t16.5 -21.5q8 -8 16 -14q14 0 28 11t24 25t16 30.5t6 29.5q0 40 -15.5 60t-49.5 20 q-13 0 -24 -6.5t-19 -17t-12 -23.5t-4 -27z" />
<glyph unicode="&#xe30;" horiz-adv-x="666" d="M94 160q0 26 8.5 48.5t25 40t41.5 27.5t56 10q32 0 56 -10t39.5 -28t23.5 -40t8 -46q0 -44 -16 -72q-18 -28 -42 -37h19q34 0 68.5 14t61.5 43.5t41 74.5t9 106l88 -13q-2 -70 -22.5 -122t-54.5 -86t-78 -51t-94 -19t-93 6t-75.5 27.5t-51.5 50.5q-18 32 -18 76zM94 624 q0 26 8.5 48.5t25 40t41.5 27.5t56 10q32 0 56 -10.5t39.5 -28t23.5 -39.5q8 -24 8 -48q0 -42 -16 -69q-18 -27 -42 -37h19q34 0 68.5 14t61.5 43t41 73q14 46 9 106l88 -12q-2 -70 -22.5 -121t-54.5 -85t-78 -51.5t-94 -19.5t-93 6.5t-75.5 27.5t-51 50t-18.5 75zM162 160 q0 -22 6.5 -39t17 -29t22.5 -18t23 -8q12 4 22.5 13.5t18.5 22t12 26t4 26.5q0 38 -17 58t-51 20q-13 0 -23.5 -6t-18.5 -16t-12 -23t-4 -27zM162 624q0 -22 6.5 -38t17 -28t22.5 -19t23 -9q12 4 22.5 14t18.5 22t12 25.5t4 26.5q0 37 -17 57.5t-51 20.5q-13 0 -23.5 -6 t-18.5 -16t-12 -23t-4 -27z" />
<glyph unicode="&#xe31;" d="M-578 1078q0 26 9 49.5t26 41t42 27.5t57 10t56 -10t41 -27t25.5 -40t8.5 -49q0 -20 -6.5 -39t-18 -34t-28 -26t-37.5 -16q19 -4 36 -6.5t33 -3.5t32 -1t32 1q57 4 100.5 26.5t74.5 57.5t50 79t29 90l84 -14q-14 -60 -38.5 -112.5t-64 -92t-95.5 -63.5t-133 -28 q-77 -3 -136 10.5t-98.5 38.5t-60.5 59q-20 34 -20 72zM-510 1080q0 -20 7 -35t16 -25t20 -14t19 -4q12 0 24 4t21.5 14t16 25t6.5 35q0 40 -19 59t-47 19q-13 0 -24.5 -5t-20.5 -14.5t-14 -24t-5 -34.5z" />
<glyph unicode="&#xe32;" horiz-adv-x="649" d="M18 656q19 24 41.5 44t51.5 35t66.5 23t86.5 8q60 0 104 -12t73 -31t44.5 -43t18.5 -49v-631h-104v620q-2 17 -15 32.5t-34 27t-49 18.5q-26 6 -58 6q-23 0 -45.5 -3.5t-44.5 -12.5t-41 -24q-19 -16 -35 -38z" />
<glyph unicode="&#xe33;" horiz-adv-x="649" d="M-350 1060q0 26 8 52t25 46t45 33t69 13q42 0 70 -13t45.5 -34t24.5 -46t7 -51q0 -24 -9 -49t-27 -44.5t-46 -32t-65 -12.5q-36 0 -63.5 12t-46 31.5t-28 44t-9.5 50.5zM-280 1063.5q0 -24.5 9 -45.5t25.5 -35t42.5 -14q25 0 42 14t25 35t8 45.5t-8 45.5t-25 35t-42 14 q-26 0 -42.5 -14t-25.5 -35t-9 -45.5zM18 656q19 24 43.5 44t53.5 35t64 23t75 8q60 0 105 -12t76.5 -31t48.5 -43t20 -49v-631h-104v620q-2 17 -15 32.5t-34 27t-49 18.5q-26 6 -58 6q-23 0 -46.5 -4t-44.5 -13.5t-40.5 -24t-34.5 -36.5z" />
<glyph unicode="&#xe34;" d="M-753 1018q0 34 22.5 61.5t60 46t86.5 28.5t102 10q68 0 123 -18t98 -48t76 -70t55 -84q7 -16 7.5 -30t-3.5 -22t-15 -10t-27 6q-34 16 -85 32t-113 26t-133 12q-71 0 -145 -12q-26 -4 -46.5 -1t-34.5 13t-21 25t-7 35zM-648 1026q0 -12 9 -16t19 -3q44 6 96.5 7.5 t108 -4t111.5 -19.5q55 -15 104 -39v4q-24 31 -53 58.5t-64 47.5t-75 31.5t-84 11.5q-40 0 -72 -7t-54 -18.5t-34 -25.5t-12 -28z" />
<glyph unicode="&#xe35;" d="M-753 1018q0 34 22.5 61.5t60 46t86.5 28.5t102 10q76 0 136 -22t105 -60v176h94v-284q9 -14 17 -30q7 -16 7.5 -30t-3.5 -22t-15 -10t-27 6q-34 16 -85 32t-113 26t-133 12q-71 0 -145 -12q-26 -4 -46.5 -1t-34.5 13t-21 25t-7 35zM-648 1026q0 -12 9 -16t19 -3 q44 6 96.5 7.5t108 -4t111.5 -19.5q55 -15 104 -39v4q-24 31 -53 58.5t-64 47.5t-75 31.5t-84 11.5q-40 0 -72 -7t-54 -18.5t-34 -25.5t-12 -28z" />
<glyph unicode="&#xe36;" d="M-753 1018q0 34 22.5 61.5t60 46t86.5 28.5t102 10q39 0 73 -6q35 -6 65 -16q0 2 -0.5 3t-0.5 2q-2 20 4.5 39.5t20.5 36t36 27t54 10.5t54 -11t36 -28t19.5 -37t5.5 -37q0 -16 -4.5 -33t-14.5 -31.5t-26 -26.5q-14 -12 -36 -16q20 -22 36.5 -46t29.5 -50q7 -16 7.5 -30 t-3.5 -22t-15 -10t-27 6q-34 16 -85 32t-113 26t-133 12q-71 0 -145 -12q-26 -4 -46.5 -1t-34.5 13t-21 25t-7 35zM-648 1026q0 -12 9 -16t19 -3q44 6 96.5 7.5t108 -4t111.5 -19.5q55 -15 104 -39v4q-24 31 -53 58.5t-64 47.5t-75 31.5t-84 11.5q-40 0 -72 -7t-54 -18.5 t-34 -25.5t-12 -28zM-286 1149q0 -17 6 -31.5t19 -24t33 -9.5q18 0 31 9.5t19 24t6 31.5t-6.5 32t-19 24.5t-30.5 9.5q-20 0 -33 -9.5t-19 -24.5t-6 -32z" />
<glyph unicode="&#xe37;" d="M-753 1018q0 34 22.5 61.5t60 46t86.5 28.5t102 10h22q12 -1 22 -2v96h94v-117q30 -10 55 -25.5t48 -33.5v176h94v-284q9 -14 17 -30q7 -16 7.5 -30t-3.5 -22t-15 -10t-27 6q-34 16 -85 32t-113 26t-133 12q-71 0 -145 -12q-26 -4 -46.5 -1t-34.5 13t-21 25t-7 35z M-648 1026q0 -12 9 -16t19 -3q44 6 96.5 7.5t108 -4t111.5 -19.5q55 -15 104 -39v4q-24 31 -53 58.5t-64 47.5t-75 31.5t-84 11.5q-40 0 -72 -7t-54 -18.5t-34 -25.5t-12 -28z" />
<glyph unicode="&#xe38;" d="M-375 -211q0 27 9.5 49t26.5 37.5t40.5 24t52.5 8.5t48.5 -7t31.5 -19t17 -28t5 -34v-15.5v-33.5v-44.5v-50.5q0 -60 -2 -135h-100v113q-26 -1 -49 7t-41 24.5t-28.5 42.5t-10.5 61zM-324 -213q0 -19 4 -35t13 -27t25 -18.5t38 -9.5v147q0 9 -7 10.5t-15 1.5t-18.5 -3.5 t-19 -12t-14.5 -21.5t-6 -32z" />
<glyph unicode="&#xe39;" d="M-612 -211q0 27 9 49t26 37.5t41 24t52 8.5q29 0 49 -7t32 -19t17 -28t5 -34v-11t-0.5 -22t-0.5 -30v-35q0 -40 -1 -90q4 -22 24 -34q19 -12 47 -12q26 0 44.5 13t21.5 31v272h100v-274q-6 -22 -18.5 -39t-33 -29t-48.5 -18q-30 -7 -68 -7q-37 0 -66 7.5t-50.5 20.5 t-35.5 29t-18 33v29q-26 -1 -49 7t-40.5 24.5t-28 42.5t-10.5 61zM-561 -213q0 -19 3.5 -35t13 -27t25 -18.5t37.5 -9.5v147q0 9 -7 10.5t-15 1.5t-18 -3.5t-19 -12t-14.5 -21.5t-5.5 -32z" />
<glyph unicode="&#xe3a;" d="M-300.5 -191q0.5 21 9 39t26 30t42.5 12q26 0 42.5 -12t25.5 -30t9 -39t-9 -39t-25.5 -30t-42.5 -12t-43.5 12t-26 30t-8 39z" />
<glyph unicode="&#xe3e;" />
<glyph unicode="&#xe3f;" horiz-adv-x="876" d="M38 0v70h120v771h-120v70h372v91h74v-92q35 -2 68.5 -8t62.5 -17t54 -28t43 -41t28 -56t10 -72q0 -44 -15.5 -78t-42 -58.5t-60.5 -41.5q-36 -16 -74 -24q49 -6 93 -25t77 -50t52.5 -73t19.5 -95q0 -66 -27 -111.5t-71 -74.5t-101 -43t-117 -14v-100h-74v100h-372z M270 70h140v379h-140v-379zM270 520h140v321h-140v-321zM484 72q39 3 73.5 13.5t60.5 31.5t41 53.5t15 78.5q0 83 -46 134t-144 63v-374zM484 524q73 10 110.5 52t37.5 109q0 65 -38 101.5t-110 48.5v-311z" />
<glyph unicode="&#xe40;" horiz-adv-x="461" d="M162 86v668h105l2 -438l-4 -40q26 -1 51.5 -9.5t45.5 -27t33 -47t13 -67.5q0 -34 -10 -59t-29 -41t-45 -23.5t-57 -7.5q-27 0 -47 7.5t-32.5 20t-19 29.5t-6.5 35zM267 62q0 -10 8.5 -12.5t16.5 -2.5q10 0 22 4.5t22 14t17.5 24.5t7.5 37q0 21 -5.5 39t-17 32t-28.5 22 q-18 10 -43 12v-170z" />
<glyph unicode="&#xe41;" horiz-adv-x="800" d="M162 86v668h105l2 -438l-4 -40q26 -1 51.5 -9.5t45.5 -27t33 -47t13 -67.5q0 -34 -10 -59t-29 -41t-45 -23.5t-57 -7.5q-27 0 -47 7.5t-32.5 20t-19 29.5t-6.5 35zM267 62q0 -10 8.5 -12.5t16.5 -2.5q10 0 22 4.5t22 14t17.5 24.5t7.5 37q0 21 -5.5 39t-17 32t-28.5 22 q-18 10 -43 12v-170zM505 86v668h105v-438l-2 -40q26 -1 50.5 -9.5t45 -27t32.5 -47t12 -67.5q0 -34 -10 -59t-28 -41t-44 -23q-24 -8 -56 -8q-27 0 -47 7.5t-32.5 20t-19 29.5t-6.5 35zM610 62q0 -10 7 -12.5t17 -2.5t22 4.5t22.5 14t18 24.5t7.5 37q0 21 -6 39t-18 32 t-29 22q-17 10 -41 12v-170z" />
<glyph unicode="&#xe42;" horiz-adv-x="490" d="M-8 1157q12 34 34 55.5t48 34.5t54 18t52 5q27 0 49.5 -5t40.5 -13t34.5 -17t32 -17t30.5 -13t33 -5q20 0 35 8t21 27l46 -31q-13 -20 -25 -31t-24 -16t-24.5 -6.5t-26.5 -1.5q-28 0 -55 10t-53.5 21.5t-53 21.5t-54.5 10q-8 0 -21.5 -1.5t-27 -7t-25.5 -15.5t-18 -27 q42 -23 78 -43q15 -8 29.5 -17t27.5 -16t23 -12.5t14 -7.5q20 -11 26 -25q7 -14 7 -36v-688l-4 -40q26 -1 51.5 -9.5t45.5 -27t33 -47t13 -67.5q0 -34 -10 -59t-29 -41t-45 -23.5t-57 -7.5q-27 0 -47 7.5t-32.5 20t-19 29.5t-6.5 35l2 928q0 8 -3 17t-12 13q-2 1 -14 8.5 t-29.5 17.5t-38.5 23t-41 25t-38 22q-16 11 -26 17zM297 62q0 -10 8.5 -12.5t16.5 -2.5q10 0 22 4.5t22 14t17.5 24.5t7.5 37q0 21 -5.5 39t-17 32t-28.5 22q-18 10 -43 12v-170z" />
<glyph unicode="&#xe43;" horiz-adv-x="500" d="M-9 1063q0 52 16 90.5t44 64.5t66.5 39t82.5 13q50 0 88.5 -18t64 -48t38.5 -68.5t13 -78.5q0 -70 -19 -127.5t-53 -101.5q-3 -4 -6.5 -8.5t-6.5 -9t-4.5 -11.5t-1.5 -17l1 -466l-4 -40q26 -1 51 -9.5t46 -27t33.5 -47t12.5 -67.5q0 -34 -10.5 -59t-28.5 -41t-44 -23.5 t-58 -7.5q-27 0 -46.5 7.5t-32.5 20t-19 29.5t-6 35v708q0 4 2 10q1 4 3 7t5 6q26 23 48 50t38 57t24.5 63t8.5 67q0 38 -10.5 67.5t-28.5 50t-43 30.5t-55 10q-26 0 -45 -3t-33.5 -10.5t-25.5 -18t-21 -25.5q11 2 25.5 0.5t29.5 -6.5t29.5 -13.5t25.5 -21.5t18 -30.5 t7 -41.5q0 -27 -9 -47.5t-24 -34t-35 -20.5t-40 -6q-21 0 -41 7.5t-35.5 23t-25 40t-9.5 58.5zM48 1054q0 -18 5 -31t13 -21.5t18 -13t20 -5.5q10 0 20 3.5t17.5 11.5t12.5 19t5 27q0 17 -8.5 30.5t-23 22t-32.5 11.5q-19 4 -37 2q-4 -12 -7 -26t-3 -30zM312 62 q0 -10 8 -12.5t16 -2.5q10 0 22 4.5t23 14t18 24.5t7 37q0 21 -5.5 39t-17 32t-29.5 22q-18 10 -42 12v-170z" />
<glyph unicode="&#xe44;" horiz-adv-x="510" d="M-50 1224q6 4 14 12.5t17 13.5t19 4q12 -2 22 -17q7 -10 17.5 -29.5t22.5 -48.5t24 -66t22 -81q4 16 10 37.5t13 44t14 45.5t12 42t9 32t5 16q6 23 19.5 32t31.5 -3q4 -2 13 -7t19 -11l20 -12q9 -8 16 -12q10 -8 17.5 -18t12 -20t6 -18.5t1.5 -14.5l2 -829l-4 -40 q26 -1 51.5 -9.5t45.5 -27t33 -47t13 -67.5q0 -34 -10 -59t-29 -41t-45 -23.5t-57 -7.5q-27 0 -47 7.5t-32.5 20t-19 29.5t-6.5 35l2 914l13 151q1 10 -3 17q-4 8 -8 12q-6 6 -12 8q-1 -4 -4.5 -16.5t-8.5 -29t-11 -36t-12 -39.5q-14 -47 -32 -103q-6 -21 -13 -29.5 t-13 -12.5q-8 -4 -14 0q-8 -2 -15 0q-6 2 -12 9t-10 23q-7 32 -15 66t-18 66t-24 63t-34 57q-2 4 -6 8q-4 3 -9 6.5t-13 3.5zM327 62q0 -10 8.5 -12.5t16.5 -2.5q10 0 22 4.5t22 14t17.5 24.5t7.5 37q0 21 -5.5 39t-17 32t-28.5 22q-18 10 -43 12v-170z" />
<glyph unicode="&#xe45;" horiz-adv-x="649" d="M18 656q18 24 41.5 44t53 34.5t67 23t84.5 8.5q56 0 99.5 -12t73.5 -31t47 -43t20 -49v-953h-104v942q-2 17 -15 32.5t-34 27t-49 18.5q-26 6 -58 6q-23 0 -46.5 -4t-45.5 -14t-41 -24q-19 -16 -33 -36z" />
<glyph unicode="&#xe46;" horiz-adv-x="837" d="M148 538q0 48 11 87t30.5 69t46 48.5t57.5 25.5l135 -94l127 90q42 -3 71.5 -18.5t48.5 -38t28 -49t9 -52.5v-924h-104v928q-1 4 -2.5 16t-6.5 24.5t-14 24t-24 15.5l-133 -90l-142 98q-10 -4 -22.5 -15t-23 -25.5t-18 -30t-7.5 -29.5q29 -2 60 -10t56 -26t41.5 -46 t16.5 -68q0 -26 -8 -46t-22 -34t-33 -22q-20 -8 -42 -8q-34 0 -60 16t-43 43t-25 63t-8 78zM209 534q-2 -34 3.5 -60t15.5 -45t24 -28.5t28 -9.5q28 0 44 17.5t16 45.5q0 18 -9 36t-25 32t-41 22.5t-56 8.5v-19z" />
<glyph unicode="&#xe47;" d="M-698 1102q0 44 14 81t43 63t71 41t97 15q34 0 59.5 -0.5t47.5 -1t42 -1.5t42 -1q24 0 43 5t33.5 17t25 33t18.5 54l60 -49q-9 -40 -25.5 -64t-36.5 -36t-44 -15t-48 -4q-45 -2 -100 1t-117 3q-26 0 -49 -9t-40.5 -27t-28.5 -44.5t-11 -60.5q0 -30 4 -55t12 -44t19 -30 t25 -15l58 86q8 10 18 17t19.5 7t18 -7t12.5 -23q13 -40 34 -62t44.5 -31t46.5 -7t41 10q-14 2 -26 11.5t-21 23t-15 29.5t-6 32q0 21 6.5 39.5t18.5 32t30 21.5t42 8q20 0 37.5 -6.5t31.5 -18.5t21.5 -30t7.5 -42q0 -34 -15.5 -62t-40 -48.5t-57 -31.5t-65.5 -11 q-30 0 -53.5 7t-42.5 19.5t-33 30.5t-24 39l-60 -88q-49 -4 -84 9.5t-57.5 40.5t-32.5 65t-10 84zM-270 1044q0 -22 14 -42q15 -22 43 -34q20 10 32.5 30t12.5 50q0 10 -4 20t-10.5 18t-16.5 13t-22 5q-13 0 -22.5 -5t-15.5 -13t-8.5 -19t-2.5 -23z" />
<glyph unicode="&#xe48;" d="M-234 1358v284h80v-284h-80z" />
<glyph unicode="&#xe49;" d="M-486 1322v46q12 1 28 4.5t34 10.5t36 18t34 28q-16 -7 -36 -4t-38 16t-30 35t-12 53q0 22 7.5 42t22 35.5t35.5 25t49 9.5q30 0 53 -9.5t37 -24.5t20.5 -36t6.5 -44q0 -19 -6 -37t-15.5 -35t-22 -31.5t-25.5 -25.5q-7 -6 -13.5 -11t-12.5 -9q-6 -6 -12 -10q18 2 30 4 t16 2q52 6 93 30t71.5 60.5t49 82t24.5 93.5l78 -12q-8 -35 -20 -71.5t-31.5 -70.5t-47 -65t-64.5 -54t-86 -36t-111 -13h-31t-39 0.5t-40 1.5q-20 0 -32 2zM-416 1531q0 -28 16 -46.5t45 -18.5q12 0 23.5 5t19.5 13.5t13 20.5t5 26q0 30 -16 47q-18 18 -46 18q-15 0 -26 -6 t-18.5 -15t-11.5 -21t-4 -23z" />
<glyph unicode="&#xe4a;" d="M-550 1482q0 16 3 35t10 37t19 34t29 28t40 19t54 6l79 -77l76 76q35 2 61.5 -8t43.5 -30t26 -48t9 -62q0 -8 -2 -24t-6 -32.5t-11 -33t-17 -26.5l9 2q23 8 42.5 29t32 54t14.5 78q4 45 -6 99l68 -8q4 -26 4 -57t-5 -63t-16.5 -62t-32 -54.5t-50.5 -41t-72 -20.5h-23.5 t-20.5 3q-4 2 -6.5 5t-3.5 7.5t0.5 10.5t6.5 12q6 10 12.5 24t10.5 31t7 34t3 31q0 36 -12 61t-46 37l-86 -82h-19l-83 86q-10 0 -21 -4t-21.5 -12t-18.5 -20t-11 -29q30 0 53 -10t39.5 -25.5t25.5 -35.5q8 -20 8 -40q0 -14 -3.5 -29t-12 -26.5t-23.5 -19t-37 -8.5 q-30 0 -52 10.5t-37 30.5t-23 48t-8 60zM-488 1473q-1 -24 3.5 -41.5t12.5 -30t19 -19t23 -6.5q14 0 23 11t9 29q0 12 -6.5 25t-18 24t-27.5 17t-36 6v-3t-0.5 -4.5t-1 -4.5t-0.5 -3z" />
<glyph unicode="&#xe4b;" d="M-362 1466v72h130v108h78v-108h128v-72h-128v-112h-78v112h-130z" />
<glyph unicode="&#xe4c;" d="M-305 1322q0 30 14.5 55t38.5 43t56.5 28.5t68.5 10.5q30 0 57.5 0.5t50.5 8.5t41 25t29 50l57 -31q-16 -37 -37 -56.5t-46 -28.5t-51 -10.5t-53 -1t-52.5 0.5t-48.5 -8l-12 -4v-4q19 2 34.5 -3t27 -16t18 -28t6.5 -37q0 -22 -6 -42t-18 -34t-30 -22.5t-43 -8.5 q-28 0 -47.5 10.5t-31.5 26.5t-17.5 36t-5.5 40zM-252 1310q0 -12 4 -22.5t10 -18t15 -12.5t20 -5q12 0 20.5 5.5t14.5 14t9 19.5t3 21q0 12 -3 22t-9 18t-15 12.5t-20 4.5q-10 0 -18.5 -4.5t-15.5 -12.5t-11 -19t-4 -23z" />
<glyph unicode="&#xe4d;" d="M-350 1060q0 26 8 52t25 46t45 33t69 13q42 0 70 -13t45.5 -34t24.5 -46t7 -51q0 -24 -9 -49t-27 -44.5t-46 -32t-65 -12.5q-36 0 -63.5 12t-46 31.5t-28 44t-9.5 50.5zM-280 1063.5q0 -24.5 9 -45.5t25.5 -35t42.5 -14q25 0 42 14t25 35t8 45.5t-8 45.5t-25 35t-42 14 q-26 0 -42.5 -14t-25.5 -35t-9 -45.5z" />
<glyph unicode="&#xe4e;" d="M-244 936v137l72 88l-72 82v135q0 38 28 57q29 19 67 11v-192l79 -93l-79 -96v-193q-35 -9 -65 8q-30 18 -30 56z" />
<glyph unicode="&#xe4f;" horiz-adv-x="1054" d="M62 417q0 100 35 179.5t97 135.5t147 86t187 30q101 0 186.5 -29.5t147.5 -85t97 -135.5t35 -181t-35 -181t-97 -135.5t-148 -85t-186 -29.5q-101 0 -186.5 30t-147.5 86t-97 135.5t-35 179.5zM175 417q0 -80 27 -146.5t74.5 -114.5t111.5 -74t140 -26t140.5 26t111.5 74 t73.5 114.5t26.5 146.5t-26.5 146.5t-73.5 114.5t-111.5 74t-140.5 26q-75 0 -139.5 -26t-112 -74t-74.5 -114.5t-27 -146.5zM274 417q0 54 20.5 96.5t55 73.5t80.5 47t98 16q50 0 96 -16t80.5 -47t55 -73.5t20.5 -96.5t-20.5 -96.5t-55 -73.5t-80.5 -47t-96 -16 q-51 0 -97.5 16t-81 47t-55 74t-20.5 96zM378 417q0 -36 11 -66.5t31 -52t47 -33.5t61 -12q33 0 60 12t46.5 33.5t30 52t10.5 66.5t-10.5 66.5t-30 52t-47 33.5t-59.5 12q-33 0 -60.5 -12t-47.5 -33.5t-31 -51.5t-11 -67z" />
<glyph unicode="&#xe50;" horiz-adv-x="995" d="M88 292v76q2 31 10.5 66t26 69.5t47 65.5t74 55t104.5 38t142 14q81 0 143.5 -15t108.5 -40t77.5 -56t51 -65t27.5 -66q8 -34 8 -60v-82q0 -26 -7.5 -59t-26 -67t-49.5 -65.5t-77 -56t-108 -39.5t-142 -15t-140.5 14t-105 37t-75.5 53t-50 64t-28 68t-11 66zM202 289 q0 -46 19 -88.5t56.5 -75.5t93 -52.5t127.5 -19.5q60 0 114 17t95 47.5t66 72.5t25 94v110q0 42 -23.5 80.5t-64 69t-96.5 48.5t-120 18q-70 0 -122 -19t-88.5 -50.5t-57.5 -71.5q-20 -39 -24 -81v-99z" />
<glyph unicode="&#xe51;" horiz-adv-x="995" d="M86 320q0 76 29 141.5t83 113.5t131.5 75t173.5 27q72 0 130.5 -15.5t105 -42t80.5 -62.5t56.5 -76.5t33.5 -84t11 -85.5v-53q0 -39 -9.5 -82.5t-29.5 -87t-50.5 -84.5t-72 -75t-95 -58.5t-118.5 -34.5l-23 72q48 8 89 27t72.5 45t55 59t39.5 69.5t24 75t8 76.5v55 q0 30 -9 63.5t-26 66.5t-42 63t-59 53t-77 37t-94 14q-67 0 -123 -23t-96.5 -63t-63 -94.5t-22.5 -116.5q0 -66 17.5 -113.5t46 -78.5t63.5 -45.5t71 -14.5q48 0 84 12.5t60 40.5q-22 3 -43 13.5t-37.5 27.5t-26 40t-9.5 52q0 23 7 44t20 36t33.5 24t47.5 9q28 0 49 -9 t35 -26t21 -38.5t7 -45.5q0 -55 -21 -100.5t-56.5 -78t-80 -50t-90.5 -17.5q-74 0 -131 23t-97 65t-61 101.5t-21 133.5zM476 246q0 -18 8 -34t21 -28t30 -18q17 -8 33 -8q5 8 9.5 19t6.5 22t3.5 23t1.5 22q0 32 -16.5 50.5t-41.5 18.5q-11 0 -21 -4.5t-17.5 -12.5t-12 -21 t-4.5 -29z" />
<glyph unicode="&#xe52;" horiz-adv-x="995" d="M12 793l80 72q23 -24 38.5 -54.5t25.5 -62.5t14 -62t4 -54v-427q8 -34 39 -61.5t77 -46.5t104 -29t122 -10q72 0 128 11t96 30t63 44.5t29 53.5v283q0 26 -5 48t-16 38t-29 26t-45 13l-131 -143h-18l-136 142q-25 2 -47.5 -12t-39.5 -37t-27.5 -52t-10.5 -56 q38 4 70 -3.5t54.5 -24.5t35.5 -43t13 -60q0 -50 -29 -78.5t-80 -28.5q-36 0 -63.5 15.5t-46 43t-28 65t-9.5 81.5q1 70 17.5 122t47.5 84t75 45q46 13 102 9l110 -124l110 124q56 6 99 -8t73 -43.5t46 -71t18 -91.5v-230q-6 -52 -36.5 -96.5t-84.5 -77.5t-131 -51.5 t-176 -18.5q-84 0 -161 15t-137 45t-100 76t-52 108v389q0 20 -3 41.5t-9 44.5t-16 45t-24 43zM324 400q-1 -28 1.5 -53t10.5 -44t22 -31t37 -12q24 0 37.5 16t13.5 42q0 20 -8.5 36t-25 27t-38.5 16t-50 3z" />
<glyph unicode="&#xe53;" horiz-adv-x="995" d="M70 312q1 84 19.5 151t53.5 113t85 72t115 28l159 -164l152 164q49 0 88.5 -15t70.5 -40t53.5 -59t37 -74t21.5 -84t7 -88q0 -48 -6.5 -95t-18 -91t-27.5 -82t-34 -68l-86 36q17 34 29 72t19.5 77t11.5 77t4 72q0 50 -7 93t-23 80t-41 66t-61 49l-184 -190h-14l-188 190 q-33 -12 -57.5 -42t-40 -69.5t-22.5 -86t-5 -90.5q0 -13 1.5 -30.5t1.5 -29.5q47 5 87.5 -2.5t69 -25.5t45 -45.5t16.5 -62.5q0 -25 -8.5 -47.5t-24.5 -40.5t-40 -28q-23 -10 -55 -10q-38 0 -69 14.5t-54 39.5t-38.5 57.5t-25 68.5t-13.5 72t-4 68zM190 201q3 -36 9.5 -64.5 t16.5 -48.5t25 -31t33 -11q32 0 49.5 18.5t17.5 50.5q0 27 -13.5 45t-35.5 28t-48.5 13t-53.5 0z" />
<glyph unicode="&#xe54;" horiz-adv-x="995" d="M78 326q0 77 28 140.5t75.5 108.5t112.5 70t140 25q8 0 24 -1t37 -1.5t44 -1t43 -1.5t35 -1.5t21 -0.5q48 0 87.5 9.5t68.5 33t46.5 63t23.5 99.5l100 -40q-34 -252 -324 -240h-24.5t-37 0.5t-43.5 1t-43 1t-35 1t-21 0.5q-62 0 -108 -22t-77 -59.5t-45.5 -86 t-14.5 -102.5q0 -53 16.5 -100.5t48.5 -83.5t78 -57t104 -23h30.5t40 1t45.5 5t45 10q-13 8 -32 28.5t-36 49t-29.5 62.5t-12.5 70q0 38 10.5 66t28.5 46.5t43 28t54 9.5q30 0 53.5 -10t38.5 -26.5t23 -39t8 -47.5q0 -34 -14 -59.5t-37 -41.5t-53.5 -22t-63.5 -2 q17 -30 49.5 -57t75.5 -44t95 -22t108 6l10 -67q-32 -7 -68 -8.5t-72 2.5t-70 12q-32 8 -58 22q-18 -10 -44 -17t-55 -12t-58.5 -7t-55.5 -2q-94 0 -161.5 25.5t-111.5 70t-65 105.5t-21 133zM551.5 283q1.5 -25 11.5 -47q22 -4 45 -2.5t41.5 10t30.5 25.5t12 45 q0 12 -5 24.5t-13 22t-20 15t-28 5.5q-28 0 -45 -14.5t-24 -36.5t-5.5 -47z" />
<glyph unicode="&#xe55;" horiz-adv-x="995" d="M78 321q0 62 21 115t58.5 94.5t89 68.5t114.5 37q-14 32 -12.5 66t16.5 60t43 42t68 15q37 0 63 -16.5t39.5 -42t14.5 -57.5q1 -31 -11 -63h11.5h16h16.5h12q48 0 87.5 13t68.5 41t46.5 71t23.5 103l100 -40q-8 -62 -33 -112t-65 -84t-97 -50.5t-129 -13.5q-23 0 -50 0.5 t-54.5 1t-53.5 1.5t-46 1q-56 0 -101 -19.5t-77 -53.5t-49 -80.5t-18 -102.5q0 -53 16.5 -99.5t48.5 -81t78 -55t104 -22.5h30.5t40 1t45.5 5t45 10q-13 8 -32 28.5t-36 49t-29.5 62.5t-12.5 70q0 38 10.5 66t28.5 46.5t43 28t54 9.5q30 0 53.5 -10t38.5 -26.5t23 -39 t8 -47.5q0 -34 -14 -59.5t-37 -41.5t-53.5 -22t-63.5 -2q17 -30 49.5 -57t75.5 -44t95 -22t108 6l10 -67q-32 -7 -67 -8t-70.5 3t-68 13t-58.5 22q-18 -10 -44.5 -17.5t-56 -12.5t-60 -7.5t-56.5 -2.5q-94 0 -161.5 24.5t-111.5 68.5t-65 104.5t-21 131.5zM410 700 q0 -14 4.5 -26.5t12 -22t19.5 -15.5t26 -6q17 0 28.5 6t18.5 15.5t10.5 22t3.5 26.5q0 12 -4 24t-11.5 21t-18.5 15t-25 6t-26 -5t-20 -14t-12 -21q-6 -12 -6 -26zM551.5 283q1.5 -25 11.5 -47q22 -4 45 -2.5t41.5 10t30.5 25.5t12 45q0 12 -5 24.5t-13 22t-20 15t-28 5.5 q-28 0 -45 -14.5t-24 -36.5t-5.5 -47z" />
<glyph unicode="&#xe56;" horiz-adv-x="995" d="M40 792l84 74q28 -19 47 -49.5t30.5 -64.5t16 -67t2.5 -56q27 10 58.5 18.5t66.5 14.5t73 10t78 4q94 0 171.5 -21t133 -64t85.5 -108t30 -153q0 -84 -30 -148t-83 -106.5t-127 -64t-162 -21.5q-84 0 -149.5 21.5t-110 56.5t-68 78.5t-23.5 88.5q0 31 9.5 57t26.5 44.5 t41 29.5q24 10 54 10q28 0 49.5 -9t36 -24t21.5 -35t7 -43q0 -31 -13 -55t-35 -40t-50.5 -22.5t-60.5 -3.5l3 -2q14 -16 36.5 -32.5t54.5 -30t74 -22.5t96 -9q70 0 124 22t91 60.5t56.5 90t19.5 111.5q0 62 -20 113t-59 87.5t-97 55.5q-56 20 -132 20q-40 0 -77.5 -5 t-70.5 -13.5t-60.5 -19.5t-47.5 -23q-23 -14 -44 -15.5t-36.5 6.5t-24.5 26q-9 16 -9 42q-2 22 -7 47t-14.5 49t-25 47t-39.5 43zM220.5 232q1.5 -24 11.5 -44q22 -2 44 0.5t39 11t28 24.5t11 42q0 12 -4 23t-11.5 19t-19 13t-26.5 5q-27 0 -43 -14.5t-23.5 -35t-6 -44.5z " />
<glyph unicode="&#xe57;" horiz-adv-x="995" d="M22 312q1 77 16.5 141.5t46 111.5t77 76t110.5 35l146 -164l143 164q64 -4 110.5 -34t76.5 -76.5t44.5 -106t14.5 -121.5q0 -34 -3.5 -70t-11.5 -72t-21 -70t-31 -64q36 13 62.5 44t43 73t24.5 90.5t8 95.5q0 52 -4 104.5t-13.5 106.5t-26 110t-42.5 115l95 55 q25 -52 43 -114t30 -126.5t17 -127t4 -117.5q-1 -42 -9 -86.5t-22 -86.5t-35 -79.5t-48 -65.5t-61 -44.5t-75 -16.5q-19 0 -38 2q-16 2 -35 4q-20 3 -36 10q23 36 38.5 77t24.5 83.5t12 84.5q3 41 3 79q0 49 -6 92t-20 76.5t-36 57.5t-54 36l-162 -178h-14l-160 179 q-30 -14 -53 -42.5t-37 -67t-20 -83t-4 -88.5q0 -13 1 -30.5t2 -29.5q47 5 87 -2.5t69 -25.5t45 -45.5t16 -62.5q0 -25 -8 -47.5t-24 -40.5t-40 -28t-56 -10q-38 0 -68.5 14.5t-53 39.5t-38.5 57.5t-26 68.5t-14 72t-4 68zM142 201q3 -36 9.5 -64.5t17.5 -48.5t25 -31 t34 -11q32 0 49 18.5t17 50.5q0 27 -14 45t-35.5 28t-48 13t-54.5 0z" />
<glyph unicode="&#xe58;" horiz-adv-x="995" d="M84 292v52q2 64 26.5 123t71.5 103.5t115.5 71t158.5 26.5h23t33 -1t38 -1.5t38 -1t32 -0.5q12 -1 18 -1q48 0 87.5 9.5t68.5 33t46.5 63t23.5 99.5l100 -40q-34 -252 -324 -240h-23.5h-35t-40.5 0.5t-39 1t-33 0.5h-21q-46 0 -83 -12t-65 -32t-47.5 -46t-32 -53 t-18.5 -53q-5 -26 -5 -48v-45q0 -54 14.5 -95.5t35.5 -70.5t47 -45t48 -19l154 167h24l168 -183q26 -1 50.5 7t46 23t37.5 35t26 43q-30 -4 -59 4t-52 25.5t-36.5 43.5t-13.5 58q0 26 8.5 46.5t23.5 35t36 22.5t45 8q28 0 51.5 -10.5t39.5 -29t25 -42.5q8 -26 8 -54 q0 -56 -18 -107t-53 -89t-86 -59t-116 -19l-143 158l-140 -158q-35 -5 -70 3t-66.5 26.5t-59 46.5t-47 62t-30.5 74t-11 84zM741 294q0 -24 10.5 -41.5t28 -28.5t39 -15t42.5 -1q4 12 6.5 27.5t2.5 31.5q0 15 -4 31t-13 29t-22 21t-33 8q-12 0 -22.5 -5t-18 -13t-12 -19.5 t-4.5 -24.5z" />
<glyph unicode="&#xe59;" horiz-adv-x="995" d="M51 396q0 65 18.5 116.5t51.5 88.5t80 56t105 19q74 0 133 -37.5t99 -114.5q2 71 44.5 109.5t118.5 38.5q7 0 18 -1t22 -2.5t21 -4t16 -4.5q2 67 28 118.5t79 85.5l70 -65q-26 -18 -44.5 -37.5t-30.5 -39t-18 -39t-6 -37.5v-19q0 -20 -6 -30.5t-17 -14.5t-27 -3t-36 5 q-18 4 -34 5t-31 1q-23 0 -41 -10.5t-31 -29t-20 -42.5t-7 -52t7 -58t22 -58l176 -340h-115l-250 484q-18 36 -36 58.5t-37 35t-37 17.5t-35 5q-33 0 -59 -13t-44.5 -35.5t-28 -54t-9.5 -67.5q0 -46 5 -99t19 -103q49 12 92.5 10t75.5 -18t51 -46t19 -70q0 -22 -8 -42.5 t-23 -36t-38 -24.5t-51 -9q-46 0 -82 20t-64 53t-48 75t-32.5 87t-18.5 89t-6 80zM197 175q40 -129 104 -129q28 0 44.5 15.5t16.5 41.5q0 33 -16 51t-40 25.5t-53 5.5t-56 -10z" />
<glyph unicode="&#xe5a;" horiz-adv-x="1106" d="M78 620q0 34 10.5 60.5t28 44t40 26.5t46.5 9q28 0 52 -7.5t42 -24t28.5 -42.5t10.5 -62q0 -26 -8.5 -48t-21 -40t-27.5 -29t-27 -15q10 -7 23.5 -12t27.5 -7.5t27.5 -4t23.5 -1.5q42 0 82 18.5t70 54.5t49 89t19 123h86v-535q0 -60 -14 -105.5t-45 -78.5t-80 -56 t-119 -37l-23 58q54 14 87.5 37t53 50t26.5 55t7 52v304q-31 -45 -81 -70q-52 -24 -118 -24q-32 0 -65 6t-63.5 19t-57.5 32t-47 43t-31.5 54t-11.5 64zM144 626q0 -22 5 -38t12.5 -28.5t16.5 -21.5q8 -8 16 -14q14 0 28 11t24 25t16 30.5t6 29.5q0 40 -15.5 60t-49.5 20 q-13 0 -24 -6.5t-19 -17t-12 -23.5t-4 -27zM843 0v754h109v-754h-109z" />
<glyph unicode="&#xe5b;" horiz-adv-x="2052" d="M62 381q0 90 31 159t85 116t125 71.5t151 24.5q69 0 126.5 -18.5t98 -51.5t63 -79.5t22.5 -101.5q0 -52 -21 -96.5t-55.5 -76.5t-79.5 -51q-44 -19 -92 -19q-32 0 -56.5 9t-40.5 24.5t-23.5 36t-7.5 43.5t8 43.5t23 35.5t38 23.5t53 8.5q32 0 56 -10.5t40.5 -27 t25.5 -36.5q10 -18 12 -36q10 11 17 25.5t11.5 31.5t6.5 33t2 30q0 33 -13.5 68t-41.5 63.5t-71 47.5t-101 19q-64 0 -119 -24t-94 -65.5t-61 -98t-22 -121.5q0 -73 26 -133t71 -103t104 -67t125 -24q54 0 97 14t80 38t70 58t65 76l275 348l239 -295l146 189h512v-82h-469 l-186 -252l-242 298l-199 -253q-46 -58 -89.5 -96t-90 -60.5t-98 -32t-112.5 -10.5q-55 -1 -107.5 10.5t-99.5 33.5t-86 55t-67.5 76.5t-44 96.5t-15.5 115zM443 372q0 -26 19 -42t51 -16q22 0 45.5 5.5t39.5 17.5q-2 15 -8 31t-17 29t-26.5 21.5t-35.5 8.5q-32 0 -50 -16 q-18 -15 -18 -39z" />
<glyph unicode="&#x2000;" horiz-adv-x="831" />
<glyph unicode="&#x2001;" horiz-adv-x="1662" />
<glyph unicode="&#x2002;" horiz-adv-x="831" />
<glyph unicode="&#x2003;" horiz-adv-x="1662" />
<glyph unicode="&#x2004;" horiz-adv-x="554" />
<glyph unicode="&#x2005;" horiz-adv-x="415" />
<glyph unicode="&#x2006;" horiz-adv-x="277" />
<glyph unicode="&#x2007;" horiz-adv-x="277" />
<glyph unicode="&#x2008;" horiz-adv-x="207" />
<glyph unicode="&#x2009;" horiz-adv-x="332" />
<glyph unicode="&#x200a;" horiz-adv-x="92" />
<glyph unicode="&#x200b;" />
<glyph unicode="&#x2010;" horiz-adv-x="730" d="M111 286v101h508v-101h-508z" />
<glyph unicode="&#x2011;" horiz-adv-x="730" d="M111 286v101h508v-101h-508z" />
<glyph unicode="&#x2012;" horiz-adv-x="730" d="M111 286v101h508v-101h-508z" />
<glyph unicode="&#x2013;" horiz-adv-x="924" d="M0 278v82h924v-82h-924z" />
<glyph unicode="&#x2014;" horiz-adv-x="1848" d="M0 278v82h1848v-82h-1848z" />
<glyph unicode="&#x2018;" horiz-adv-x="302" d="M66 624q0 42 5 79t19 68t40 55t68 40l26 -47q-23 -8 -38.5 -20t-25 -27t-14 -31.5t-6.5 -34.5q20 0 35 -6t26 -17.5t16 -27t5 -33.5q0 -20 -6 -35.5t-16.5 -27t-25 -17.5t-30.5 -6t-30 6.5t-24.5 18t-17 27.5t-6.5 36z" />
<glyph unicode="&#x2019;" horiz-adv-x="302" d="M78 584q23 8 38.5 20t25 27t14 32t6.5 33q-20 0 -35 7t-26 18t-16 27q-5 14 -5 32q0 20 6 36t16.5 27t25 17t30.5 6t30 -6t24.5 -17.5t17 -28t6.5 -36.5q0 -42 -5 -78.5t-19 -67.5t-40 -55.5t-68 -40.5z" />
<glyph unicode="&#x201c;" horiz-adv-x="558" d="M66 624q-1 42 4 80t19.5 69t40.5 55t68 40l24 -49q-22 -8 -37 -19.5t-24 -26.5t-14 -31t-7 -34q20 0 35.5 -6.5t26 -18t15.5 -26.5t5 -33q0 -20 -6 -35.5t-16.5 -27t-25 -17.5t-30.5 -6t-30 6t-24.5 17.5t-17 27t-6.5 35.5zM322 624q-1 42 4 80t19.5 69t40.5 55t68 40 l24 -49q-22 -8 -37 -19.5t-24 -26.5t-14 -31t-7 -34q20 0 35.5 -6.5t26 -18t15.5 -26.5t5 -33q0 -20 -6 -35.5t-16.5 -27t-25 -17.5t-30.5 -6t-30 6t-24.5 17.5t-17 27t-6.5 35.5z" />
<glyph unicode="&#x201d;" horiz-adv-x="557" d="M79 588q22 8 37.5 20t24.5 26t14 31t6 33q-20 0 -35.5 7t-25.5 18.5t-15.5 27t-5.5 31.5q0 20 6.5 36t16.5 27t24.5 17t30.5 6t30.5 -6t24.5 -17t16.5 -27t6.5 -36q0 -42 -4.5 -79t-18.5 -68.5t-40 -56t-68 -40.5zM335 588q22 8 37.5 20t24.5 26t14 31t6 33 q-20 0 -35.5 7t-25.5 18.5t-15.5 27t-5.5 31.5q0 20 6.5 36t16.5 27t24.5 17t30.5 6t30.5 -6t24.5 -17t16.5 -27t6.5 -36q0 -42 -4.5 -79t-18.5 -68.5t-40 -56t-68 -40.5z" />
<glyph unicode="&#x2022;" horiz-adv-x="681" d="M112 492q0 47 18 88.5t49 72.5t72 49t89 18q47 0 89 -18t73 -49t49.5 -73t18.5 -88q0 -48 -18.5 -90t-49.5 -73t-73 -49t-89 -18q-48 0 -89 18t-72 49t-49 73t-18 90z" />
<glyph unicode="&#x202f;" horiz-adv-x="332" />
<glyph unicode="&#x205f;" horiz-adv-x="415" />
<glyph unicode="&#x20ac;" horiz-adv-x="1052" d="M14 312l30 82h96q-3 30 -3 62q0 16 1 30q0 14 2 28h-126l30 82h109q18 76 57.5 137t95.5 104t129 65.5t159 22.5q46 0 85 -6t71.5 -18.5t60.5 -31.5q27 -19 53 -45v92h86v-262h-86v13q-8 38 -27 70.5t-50 56.5t-73 38t-96 14q-64 0 -118.5 -18t-97 -51t-72.5 -79 t-46 -102h342l-30 -82h-329q-2 -14 -2.5 -29t-0.5 -29t1 -30.5t3 -31.5h358l-30 -82h-306q19 -53 51 -97.5t74.5 -77.5t93.5 -52t109 -19q60 0 106 8.5t84 25t70 40.5q32 26 60 58l52 -55q-42 -45 -85 -75t-88 -48t-95 -25.5t-108 -7.5q-88 0 -162.5 24t-133 67t-99.5 103 q-41 59 -62 131h-143z" />
<glyph unicode="&#x2122;" horiz-adv-x="1415" d="M40 845v135h530v-135h-64v78h-158v-477h82v-52h-250v52h82v477h-158v-78h-64zM632 394v52h72v484h-72v50h156l222 -440l202 440h154v-50h-73v-484h73v-52h-232v52h78v422l-198 -431h-42l-210 417v-408h75v-52h-205z" />
<glyph unicode="&#x25cc;" horiz-adv-x="1372" d="M334 588l92 45q-4 -23 -4 -49q0 -24 4 -44zM432 336l35 96q26 -40 63 -66zM446 838l92 -33q-40 -24 -65 -61zM639 846l47 92l45 -90q-22 2 -43 2q-25 0 -49 -4zM643 320q22 -4 45 -4q21 0 39 4l-41 -86zM840 805l100 33l-35 -96q-26 36 -65 63zM842 362q36 24 59 58 l25 -84zM952 545q4 19 4 39q0 22 -4 44l86 -44z" />
<glyph unicode="&#x25fc;" horiz-adv-x="677" d="M0 0v678h678v-678h-678z" />
<glyph unicode="&#xf700;" horiz-adv-x="765" d="M58.5 635q2.5 11 11.5 21q24 26 52 46.5t60 35.5t70 23.5t83 8.5q37 0 70 -8t61 -17t53 -16.5t45 -7.5q26 0 46 11q20 12 32 32l26 -41q-10 -16 -21 -26t-23.5 -16.5t-28 -8.5t-33.5 -2q-32 0 -62 6t-57.5 14t-55 14t-54.5 6q-26 0 -53 -5t-51.5 -13t-44.5 -20t-32 -28 q20 -1 51 -4.5t67.5 -8t77 -12t79 -17.5t74 -23t62 -30t42 -37.5t15.5 -45.5v-388q-3 -17 -15.5 -33.5t-33.5 -29t-50 -20t-63 -7.5t-62.5 7t-49 20.5t-33.5 31t-16 37.5v90q-28 3 -53.5 13.5t-44.5 28.5t-30 44q-11 28 -11 62q0 36 10 63t28.5 45t45 26.5t59.5 8.5 q22 0 40.5 -6t32 -16.5t21 -23.5t7.5 -28v-315q6 -18 19 -27.5t39 -9.5t39.5 9.5t16.5 25.5v388q0 18 -17 33t-45 27.5t-64 22.5t-74 17.5t-76 13.5t-69 9.5t-53 5t-28 1.5q-12 0 -20 6t-11 16t-0.5 21zM209 320q0 -26 8.5 -44t21.5 -29t28.5 -16t29.5 -5v172q0 8 -6.5 11 t-16.5 3q-13 0 -24.5 -5t-20.5 -16t-15 -29q-5 -16 -5 -42z" />
<glyph unicode="&#xf701;" d="M-896 1024q0 22 13.5 46.5t40 45t65.5 33.5t91 13q58 0 109 -16t94 -45t77 -69t58 -88q7 -16 8 -30t-3.5 -22t-15 -10t-26.5 6q-30 14 -75.5 26.5t-99.5 21t-112.5 11.5t-114.5 -1q-54 -4 -81 16q-28 22 -28 62zM-793 1032q0 -12 8.5 -18.5t22.5 -6.5q39 1 83 -1t88.5 -8 t88.5 -17t83 -27v4q-19 28 -47.5 55t-63 47.5t-72.5 33t-76 11.5q-34 0 -56 -6.5t-35 -16.5t-18.5 -23t-5.5 -27z" />
<glyph unicode="&#xf702;" d="M-896 1024q0 24 13.5 48t40 44t65.5 33t91 13q67 0 124 -20q58 -20 104 -58v174h94v-284q10 -16 16 -30q7 -16 8 -30t-3.5 -22t-15 -10t-26.5 6q-30 14 -75.5 26.5t-99.5 21t-112.5 11.5t-114.5 -1q-54 -4 -81 16q-28 22 -28 62zM-793 1032q0 -12 8.5 -18.5t22.5 -6.5 q39 1 83 -1t88.5 -8t88.5 -17t83 -27v4q-19 28 -47.5 55t-63 47.5t-72.5 33t-76 11.5q-34 0 -56 -6.5t-35 -16.5t-18.5 -23t-5.5 -27z" />
<glyph unicode="&#xf703;" d="M-896 1024q0 24 13.5 48.5t40 44t65.5 32.5t91 13q34 0 65 -6t59 -16v3.5v3.5q-2 20 4 39.5t20 36t37 27t55 10.5t54 -11t35 -28t19 -37t6 -37q0 -16 -5 -33.5t-15 -31.5t-25 -25t-36 -16q38 -43 65 -97q7 -16 8 -30t-3.5 -22t-15 -10t-26.5 6q-30 14 -75.5 26.5 t-99.5 21t-112.5 11.5t-114.5 -1q-54 -4 -81 16q-28 22 -28 62zM-793 1032q0 -12 8.5 -18.5t22.5 -6.5q39 1 83 -1t88.5 -8t88.5 -17t83 -27v4q-19 28 -47.5 55t-63 47.5t-72.5 33t-76 11.5q-34 0 -56 -6.5t-35 -16.5t-18.5 -23t-5.5 -27zM-503.5 1149q0.5 -17 7 -31.5 t18.5 -24t32 -9.5q19 0 31.5 9.5t19 24t6 31.5t-6.5 32t-18 25q-14 10 -32 10q-20 0 -32 -10t-19 -25t-6.5 -32z" />
<glyph unicode="&#xf704;" d="M-896 1024q0 24 13.5 48.5t40 44t65.5 32.5t91 13q16 0 30 -2v98h94v-118q28 -10 54 -23.5t50 -32.5v174h94v-284q10 -16 16 -30q7 -16 8 -30t-3.5 -22t-15 -10t-26.5 6q-30 14 -75.5 26.5t-99.5 21t-112.5 11.5t-114.5 -1q-54 -4 -81 16q-28 22 -28 62zM-793 1032 q0 -12 8.5 -18.5t22.5 -6.5q39 1 83 -1t88.5 -8t88.5 -17t83 -27v4q-19 28 -47.5 55t-63 47.5t-72.5 33t-76 11.5q-34 0 -56 -6.5t-35 -16.5t-18.5 -23t-5.5 -27z" />
<glyph unicode="&#xf705;" d="M-457 924v311h93v-311h-93z" />
<glyph unicode="&#xf706;" d="M-784 924v47q12 1 28 4.5t34 11t36 18.5t34 29q-18 -8 -39 -4.5t-39 17t-30 35.5t-12 54q0 22 7 43t22 37t37 26t52 10q32 0 54 -9.5t37 -25.5t21.5 -37.5t6.5 -45.5q0 -19 -6 -37.5t-16 -36t-23 -32.5q-12 -14 -26 -26q-7 -6 -14 -11l-12 -10q-6 -6 -14 -10q20 2 32 4 t16 2q53 6 93.5 32.5t69 66t45 88t22.5 98.5l80 -12q-8 -36 -19 -74.5t-29 -75t-44.5 -69.5t-63 -58t-85.5 -39t-113 -14h-31h-39t-39 1t-33 3zM-718 1138q0 -29 17 -47.5t47 -18.5q13 0 24.5 5t20 14t13.5 21t5 26q0 31 -17 50q-16 18 -46 18q-16 0 -28 -6t-20 -16t-12 -22 t-4 -24z" />
<glyph unicode="&#xf707;" d="M-898 1065q0 24 7 51.5t24 51.5t46.5 39t74.5 13l76 -75l74 73q34 2 60 -7t43 -28.5t25.5 -47t8.5 -60.5q0 -9 -2 -24t-6 -31t-10.5 -31t-14.5 -25l6 -2q22 7 43 28.5t35 54t18 76t-6 95.5l68 -8q4 -26 3.5 -56t-6.5 -61t-18.5 -60t-33.5 -53t-51 -40t-72 -20h-23t-18 4 q-10 3 -12.5 11.5t7.5 22.5q6 8 12 22t11 30t8 33t3 32q0 36 -13 62q-13 27 -47 39l-82 -80h-18l-82 82q-10 0 -21.5 -5t-21.5 -13.5t-18 -21t-11 -28.5q30 -1 53 -10.5t39 -24.5t24.5 -34t8.5 -37q0 -14 -3.5 -29t-12 -27t-22.5 -19q-13 -7 -35 -7q-30 -1 -52 9.5 t-36.5 29.5t-22 46t-7.5 60zM-838 1054q-1 -22 3.5 -39t12.5 -29t18 -19q12 -7 24 -7q14 0 22 12.5t8 29.5q-1 12 -7.5 24t-17.5 22t-26.5 16.5t-34.5 6.5q0 -2 -1 -8.5t-1 -8.5z" />
<glyph unicode="&#xf708;" d="M-696 1077v74h152v133h81v-133h156v-74h-156v-131h-81v131h-152z" />
<glyph unicode="&#xf709;" d="M-603 1034q0 35 10.5 61.5t29.5 47.5t46 36t59 27q24 9 49 21.5t48.5 31.5t43 46t33.5 65l68 -36q-22 -44 -46.5 -72t-50 -46.5t-52.5 -29t-55 -18.5q-18 -6 -36 -13t-37 -17v-4q21 2 40.5 -4t35 -20t24.5 -34.5t9 -47.5q0 -23 -7 -42.5t-21 -34.5t-34 -23t-46 -8 q-30 0 -51 9t-34 25t-19 36q-7 22 -7 44zM-544 1028q0 -12 3.5 -23t10 -20t16.5 -14q8 -5 20 -5q24 0 37 18t13 44q0 12 -3.5 23t-10 20t-16.5 14t-22 5q-20 0 -34 -17t-14 -45z" />
<glyph unicode="&#xf70a;" d="M-242 924v311h92v-311h-92z" />
<glyph unicode="&#xf70b;" d="M-528 924v47q12 1 28 4.5t33 11t35 18.5t34 29q-18 -8 -38.5 -4.5t-38.5 17t-31 35.5q-12 22 -12 54q0 22 8 43t22.5 37t36.5 26q21 10 51 10q32 0 54.5 -9.5t37 -25.5t21.5 -37.5t7 -45.5q0 -19 -6 -37.5t-16 -36t-23 -32.5q-13 -14 -25 -26q-7 -6 -14.5 -11t-13.5 -10 q-6 -6 -12 -10q20 2 32 4t16 2q53 6 95.5 32.5t73.5 66t50 88t25 98.5l80 -12q-8 -36 -20 -74.5t-32 -75t-48 -69.5t-67 -58t-89 -39t-114 -14h-30.5h-39t-39.5 1t-31 3zM-463 1138q0 -29 17.5 -47.5t46.5 -18.5q13 0 24.5 5t20 14t13.5 21t5 26q0 31 -17 49.5t-47 18.5 q-16 0 -27 -6t-19 -16t-12.5 -22t-4.5 -24z" />
<glyph unicode="&#xf70c;" d="M-582 1080q0 26 8 56t26 55t50 41t80 15l84 -81l80 79q37 2 64.5 -8.5t46 -31t28 -50t9.5 -65.5q0 -9 -2 -25t-7 -33.5t-12 -33.5t-17 -27l9 -3q24 8 46.5 31t37.5 58t19.5 82t-5.5 104l72 -8q4 -28 3.5 -60.5t-7 -66.5t-20 -65.5t-36.5 -57.5t-55 -43q-34 -18 -78 -22 h-25t-20 4q-8 3 -11.5 12.5t7.5 23.5q7 10 13 25.5t11 33t8 35.5t3 34q0 19 -3 35.5t-10 30.5t-19 25t-30 17l-90 -86h-20l-88 90q-10 0 -22 -5t-23 -14t-19.5 -23t-11.5 -32q32 -1 56.5 -11t41.5 -26.5t26 -36.5t9 -42q0 -16 -3.5 -31t-13 -28t-25 -21t-37.5 -8 q-32 -1 -56 10.5t-40 32.5t-24 51t-8 64zM-516 1069q-1 -24 3.5 -43.5t13.5 -32.5t20 -20t25 -7q16 0 24 13t8 31q0 13 -7 26.5t-19 24.5t-29 18t-37 7q0 -2 -1 -9t-1 -8z" />
<glyph unicode="&#xf70d;" d="M-408 1077v74h170v153h83v-153h173v-74h-173v-151h-83v151h-170z" />
<glyph unicode="&#xf70e;" d="M-354 1034q0 35 10.5 61.5t29.5 47.5t45.5 36t58.5 27q24 9 49.5 21.5t49 31.5t43.5 46q18 27 32 65l68 -36q-22 -44 -46 -72t-49.5 -46.5t-52.5 -29.5q-28 -10 -56 -18q-18 -6 -36 -13t-36 -17v-4q21 2 40.5 -4t34.5 -20t24 -34.5t9 -47.5q0 -23 -7 -42.5t-21 -34.5 t-34 -23t-46 -8q-30 0 -50.5 9t-34 25t-19.5 36q-6 22 -6 44zM-296 1028q0 -12 4 -23t10 -20t16 -14t21 -5q24 0 37 18t13 44q0 12 -3.5 23t-10.5 20t-17 14t-22 5q-20 0 -34 -17t-14 -45z" />
<glyph unicode="&#xf70f;" horiz-adv-x="1253" d="M56 610q32 30 67 58t78 50t96 35t121 13q56 0 101 -7.5t78 -20t57 -29.5t40.5 -34.5t25.5 -35t13 -33.5v-471q2 -10 9.5 -25t24.5 -29t44 -24t67 -10q38 0 63 10.5t40 24.5t21 29t8 24v619h100v-619q-4 -23 -17 -48.5t-39 -47t-69 -35.5t-109 -14q-49 0 -85.5 7 t-62.5 18.5t-43.5 26.5t-28 31.5t-16.5 32.5t-9 31v455q-2 7 -7 18.5t-15.5 24t-26.5 25.5t-40 23.5t-56 16.5t-74 6q-48 0 -87 -7t-70 -20.5t-56 -31.5q-25 -19 -45 -39l122 -98v-226q29 -3 55.5 -13.5t45.5 -28.5t30 -44t11 -61q0 -36 -10 -62.5t-29 -44.5t-45 -27t-60 -9 q-22 0 -40.5 6t-32 16t-20.5 24t-7 28v436zM278 58q0 -8 8 -9.5t15 -1.5q13 0 25 4.5t21 15.5t14 28.5t5 41.5q0 27 -8 45.5t-21 30t-29 16.5t-30 5v-176z" />
<glyph unicode="&#xf710;" d="M-903 1077q0 24 8.5 46.5t24 38.5t39 26t53.5 10t53 -9.5t39 -26t24 -38.5t8 -46q0 -19 -5 -37.5t-16 -33.5t-27 -25.5t-36 -13.5q18 -4 30 -6t23 -3t22 -0.5t28 1.5q57 4 101 26t76 57t52 79t30 92l84 -14q-14 -60 -39 -113t-65.5 -93t-97.5 -64t-134 -28 q-77 -3 -129.5 10.5t-85 38.5t-46.5 58t-14 68zM-839 1078q0 -20 6 -34t15 -22.5t19.5 -13t18.5 -4.5q10 0 21 4.5t20.5 13t15.5 22.5t6 34q0 38 -18 56q-17 18 -43 18q-12 0 -23.5 -5t-20 -14t-13 -22.5t-4.5 -32.5z" />
<glyph unicode="&#xf711;" d="M-655 1060q0 26 7.5 52t25 46t46 33t68.5 13q42 0 70 -13t45 -34t25 -46t8 -51q0 -24 -9 -49t-27.5 -44.5t-46 -32t-65.5 -12.5q-36 0 -63.5 12t-46 31.5t-28 44t-9.5 50.5zM-584 1063.5q0 -24.5 8 -45.5t25 -35t43 -14q25 0 41.5 14t25.5 35t9 45.5t-9 45.5t-25.5 35 t-41.5 14q-26 0 -43 -14t-25 -35t-8 -45.5z" />
<glyph unicode="&#xf712;" d="M-885 1112q0 42 13.5 77t40.5 60t67 39.5t92 14.5q32 0 56 -0.5t44 -1.5t39 -1.5t39 -0.5q23 0 41.5 4.5t32.5 15.5t24 31t17 52l55 -48q-8 -38 -23 -60t-34 -33t-41 -15t-45 -4q-44 -2 -96 1t-111 3q-24 0 -46 -8.5t-38.5 -25t-26.5 -41.5t-10 -59q0 -57 15.5 -92.5 t39.5 -41.5l58 82q7 10 16 15.5t18 5.5t17 -7q9 -6 13 -20q12 -38 31.5 -59t42 -29.5t44 -7t37.5 9.5q-13 2 -25 11t-20 21.5t-13 28t-5 31.5q0 19 5.5 36t17 29.5t28.5 20.5t41 8q18 0 35 -6t29.5 -17t20 -28t7.5 -39q0 -33 -14.5 -60t-38 -46.5t-53.5 -29.5t-62 -10 q-28 0 -51 6.5t-40.5 18.5t-31 28.5t-23.5 36.5l-55 -82q-47 -4 -80 8t-54 37.5t-30.5 62t-9.5 78.5zM-482 1058q0 -18 14 -38t40 -32q20 9 32.5 28.5t12.5 47.5q0 9 -3.5 18t-10.5 16.5t-17 11.5q-8 5 -20 5q-24 0 -36 -16.5t-12 -40.5z" />
<glyph unicode="&#xf713;" d="M-451 1358v284h80v-284h-80z" />
<glyph unicode="&#xf714;" d="M-596 1342v46q11 0 26.5 3t32 10t34 18t31.5 28q-16 -7 -36 -4t-37 15.5t-28.5 34t-11.5 51.5q0 21 7 40.5t21 35t35 24.5q20 10 48 10q30 0 51.5 -9t35 -24.5t20.5 -36t7 -42.5q0 -18 -6 -36t-15.5 -34t-20.5 -30q-12 -16 -25 -26q-7 -6 -13 -11t-12 -9t-13 -8 q18 2 29.5 3.5t15.5 1.5q50 6 88.5 31t65 62.5t42.5 83t22 92.5l76 -11q-7 -34 -18 -70.5t-28.5 -71t-42 -66t-59.5 -54.5t-81.5 -37t-106.5 -14h-29.5t-37 1t-37.5 1t-30 2zM-534 1546q0 -28 16.5 -46t44.5 -18q12 0 23 5t19.5 13.5t13 20t4.5 25.5q0 30 -16.5 47t-44.5 17 q-14 0 -25 -6t-19 -15t-12 -20.5t-4 -22.5z" />
<glyph unicode="&#xf715;" d="M-690 1490q0 24 6 51t22.5 50.5t45.5 38.5q28 16 71 14l76 -74l71 69q34 2 60 -7t43 -27.5t25 -45.5t8 -59q0 -9 -2 -23.5t-6 -30t-10 -30t-15 -24.5l9 -2q22 7 39 29.5t28 56t12 75.5t-10 88l67 -8q4 -25 5 -55t-4 -60t-16 -59t-30.5 -52.5t-48.5 -39.5q-30 -17 -70 -21 q-12 0 -19 1t-17 3q-10 6 -12 14q0 8 10 21q6 8 12 22.5t10.5 30t7 32t2.5 30.5q0 18 -3 33t-10 28t-18 22t-28 15l-80 -78h-18l-80 80q-12 -1 -23 -5.5t-20.5 -13t-16.5 -21t-9 -28.5q29 -1 51.5 -9.5t38.5 -23t24 -32.5q8 -19 8 -37q0 -14 -4 -29t-12 -26.5t-22 -19 t-36 -7.5q-28 -1 -49 11t-35 32t-21 46q-7 27 -7 55zM-633 1482q-1 -22 3 -40t12 -30t18 -18t22 -6q14 0 22.5 10.5t8.5 29.5q-1 12 -7 24t-17 22.5t-26 17t-34 6.5q0 -2 -1 -8t-1 -8z" />
<glyph unicode="&#xf716;" d="M-584 1455v73h133v114h80v-114h137v-73h-137v-111h-80v111h-133z" />
<glyph unicode="&#xf717;" d="M-508 1270q0 30 14 55t39 43t57 28.5t68 10.5q30 0 58 0.5t51 8.5t41 25q16 17 28 50l58 -31q-16 -37 -37.5 -56.5t-46 -28.5t-51 -10.5t-53 -1t-52.5 0.5t-49 -8l-13 -4v-4q20 2 36 -3t27 -16t17.5 -28t6.5 -37q0 -22 -5.5 -42t-17.5 -34t-30 -22q-20 -9 -44 -9 q-28 0 -47.5 10.5t-32 26.5t-17.5 36t-5 40zM-454 1258q0 -12 3.5 -22.5t10 -18t15.5 -12.5t19 -5q12 0 21 5.5t15 14t9 19.5t3 21q0 12 -3 22t-9 18t-15 12.5t-21 4.5q-10 0 -18.5 -4.5t-15 -12.5t-10.5 -19t-4 -23z" />
<glyph unicode="&#xf718;" d="M-375 -456q0 27 9.5 48.5t26.5 37t40.5 24t52.5 8.5t48.5 -7t31.5 -19t17 -28t5 -34v-15.5v-33.5v-44.5v-50.5q0 -60 -2 -134h-100v112q-26 -1 -49 7t-41 24.5t-28.5 42.5t-10.5 62zM-324 -459q0 -19 4 -34.5t13 -27t25 -18.5t38 -10v147q0 10 -7 11.5t-15 1.5 t-18.5 -3.5t-19 -12t-14.5 -22t-6 -32.5z" />
<glyph unicode="&#xf719;" d="M-612 -456q0 27 9 48.5t26 37t41 24t52 8.5q29 0 49 -7t32 -19t17 -28t5 -34v-11t-0.5 -22t-0.5 -30v-35q0 -40 -1 -90q4 -22 24 -34q19 -12 47 -12q26 0 44.5 13t21.5 31v272h100v-274q-6 -22 -18.5 -39t-33 -29t-48.5 -18q-30 -6 -68 -6q-37 0 -66 7.5t-50.5 20 t-35.5 28.5t-18 34v28q-26 -1 -49 7t-40.5 24.5t-28 42.5t-10.5 62zM-561 -459q0 -19 3.5 -34.5t13 -27t25 -18.5t37.5 -10v147q0 10 -7 11.5t-15 1.5t-18 -3.5t-19 -12t-14.5 -22t-5.5 -32.5z" />
<glyph unicode="&#xf71a;" d="M-300.5 -457.5q0.5 20.5 9 38.5t26 30t42.5 12q26 0 42.5 -12t25.5 -30t9 -38.5t-9 -38.5t-25.5 -30t-42.5 -12t-43.5 12t-26 30t-8 38.5z" />
<glyph unicode="&#xf71d;" horiz-adv-x="972" d="M53 620q0 72 37.5 108t105.5 36q22 0 41 -6t32 -16t20.5 -24t7.5 -28v-452l-11 -126l52 97l158 252h26l160 -248l60 -103l-17 120v374q-10 -2 -25.5 -4t-30.5 -4t-29 -3t-24 -1q-32 0 -63 6t-55 20t-39 35t-15 51q0 27 13 47.5t35 34.5t53 21.5t67 7.5q28 0 55 -6 t50.5 -17.5t43.5 -28.5q19 -17 33 -40q11 14 18.5 33.5t13.5 48.5l56 -7q-6 -42 -21 -74t-42 -60q2 -10 4 -24q2 -11 3 -26q2 -14 2 -32v-582h-90l-230 381l-230 -381l-86 2v442l2 29q-28 3 -53.5 13.5t-45 29t-31 44.5t-11.5 60zM104 618q0 -26 9 -44t22 -29t28 -16t29 -5 v176q0 8 -6 9t-16 1q-13 0 -25 -4t-21 -15t-14.5 -29t-5.5 -44zM504 704q0 -14 9 -26t25 -21t38 -13.5t48 -4.5q11 0 24.5 1.5t27.5 3.5t27 6t24 8v20q0 23 -11 39.5t-27.5 26.5t-36.5 15t-38 5q-51 0 -80.5 -16t-29.5 -44z" />
<glyph unicode="&#xf881;" horiz-adv-x="1504" d="M76 610q32 30 69 58t83 50t100 35t122 13q57 0 102.5 -7.5t80.5 -20t60.5 -29.5t43 -34.5t27.5 -35t14 -33.5v-926h-102v912q-2 7 -8 18.5t-18 24t-29.5 25.5t-43 23.5t-58.5 16.5t-75 6q-48 0 -88.5 -7t-74 -20.5t-59.5 -31.5q-27 -19 -48 -39l123 -98v-226 q29 -3 55 -13.5t45 -28.5t30 -44t11 -61q0 -36 -10 -62.5t-28.5 -44.5t-45 -27t-59.5 -9q-22 0 -40.5 6t-32 16t-20.5 24q-8 14 -8 28v436zM299 58q0 -8 7.5 -9.5t15.5 -1.5q13 0 24.5 4.5t20.5 15.5t14.5 28.5t5.5 41.5q0 27 -8.5 45.5t-21.5 30t-28.5 16.5t-29.5 5v-176z M874 656q18 24 41 44t53 34.5t67 23t84 8.5q56 0 99.5 -12t73.5 -31t47 -43t20 -49v-953h-105v942q-2 17 -15 32.5t-33.5 27t-48 18t-59.5 6.5q-23 0 -46 -4t-44.5 -14t-41.5 -24q-19 -16 -33 -36z" />
<glyph unicode="&#xf882;" horiz-adv-x="1509" d="M92 137q0 34 11 60.5t30 44.5t45 29t56 13l-2 218l-126 108q32 30 68 58t79 50t96 35t120 13q57 0 101.5 -7.5t78 -20t58 -29.5t41 -34.5t25.5 -35t13 -33.5v-926h-104v912q-2 7 -7 18.5t-15 24t-26.5 25.5t-40 23.5t-56 16.5t-74.5 6q-48 0 -86.5 -7t-70 -20.5 t-56.5 -31.5q-24 -19 -45 -39l133 -102v-438q0 -14 -8 -28t-21 -24t-32 -16t-41 -6q-33 0 -59.5 9t-45.5 27t-29 44.5t-10 62.5zM142 137q0 -24 5 -41.5t15 -28.5t22 -15.5t25 -4.5q8 0 15.5 1.5t7.5 9.5v176q-14 0 -30 -5t-29.5 -16.5t-22 -30t-8.5 -45.5zM878 656 q18 24 41.5 44t53 34.5t67 23t84.5 8.5q56 0 99.5 -12t73.5 -31t47 -43t20 -49v-953h-104v942q-2 17 -15 32.5t-34 27t-49 18.5q-26 6 -58 6q-23 0 -46.5 -4t-45.5 -14t-41 -24q-19 -16 -33 -36z" />
<glyph d="M-500 936v137l72 88l-72 82v135q0 38 29 57t67 11v-192l79 -93l-79 -96v-193q-36 -9 -66 8q-30 18 -30 56z" />
<glyph horiz-adv-x="649" d="M-655 1060q0 26 7.5 52t25 46t46 33t68.5 13q42 0 70 -13t45 -34t25 -46t8 -51q0 -24 -9 -49t-27.5 -44.5t-46 -32t-65.5 -12.5q-36 0 -63.5 12t-46 31.5t-28 44t-9.5 50.5zM-584 1063.5q0 -24.5 8 -45.5t25 -35t43 -14q25 0 41.5 14t25.5 35t9 45.5t-9 45.5t-25.5 35 t-41.5 14q-26 0 -43 -14t-25 -35t-8 -45.5zM18 656q19 24 43.5 44t53.5 35t64 23t75 8q60 0 105 -12t76.5 -31t48.5 -43t20 -49v-631h-104v620q-2 17 -15 32.5t-34 27t-49 18.5q-26 6 -58 6q-23 0 -46.5 -4t-44.5 -13.5t-40.5 -24t-34.5 -36.5z" />
<glyph horiz-adv-x="649" d="M-655 1060q0 26 7.5 52t25 46t46 33t68.5 13q42 0 70 -13t45 -34t25 -46t8 -51q0 -24 -9 -49t-27.5 -44.5t-46 -32t-65.5 -12.5q-36 0 -63.5 12t-46 31.5t-28 44t-9.5 50.5zM-584 1063.5q0 -24.5 8 -45.5t25 -35t43 -14q25 0 41.5 14t25.5 35t9 45.5t-9 45.5t-25.5 35 t-41.5 14q-26 0 -43 -14t-25 -35t-8 -45.5zM18 656q19 24 43.5 44t53.5 35t64 23t75 8q60 0 105 -12t76.5 -31t48.5 -43t20 -49v-631h-104v620q-2 17 -15 32.5t-34 27t-49 18.5q-26 6 -58 6q-23 0 -46.5 -4t-44.5 -13.5t-40.5 -24t-34.5 -36.5z" />
<glyph d="M-796 1018q0 34 23 61.5t60 46t86 28.5t103 10q68 0 122.5 -18t98 -48t76 -70t54.5 -84q7 -16 8 -30t-3.5 -22t-15 -10t-26.5 6q-34 16 -85 32t-113 26t-133 12q-71 0 -146 -12q-26 -4 -46.5 -1t-34.5 13t-21 25t-7 35zM-691 1026q0 -12 9.5 -16t19.5 -3q44 6 96 7.5 t108 -4t111 -19.5q55 -15 105 -39v4q-24 31 -53.5 58.5t-64 47.5t-74.5 31.5t-84 11.5q-40 0 -72 -7t-54.5 -18.5t-34.5 -25.5t-12 -28z" />
<glyph d="M-796 1018q0 34 23 61.5t60 46t86 28.5t103 10q74 0 132 -21t104 -57v172h98v-284q8 -14 17 -30q7 -16 8 -30t-3.5 -22t-15 -10t-26.5 6q-34 16 -85 32t-113 26t-133 12q-71 0 -146 -12q-26 -4 -46.5 -1t-34.5 13t-21 25t-7 35zM-691 1026q0 -12 9.5 -16t19.5 -3 q44 6 96 7.5t108 -4t111 -19.5q55 -15 105 -39v4q-24 31 -53.5 58.5t-64 47.5t-74.5 31.5t-84 11.5q-40 0 -72 -7t-54.5 -18.5t-34.5 -25.5t-12 -28z" />
<glyph d="M-796 1018q0 34 23 61.5t60 46t86 28.5t103 10q39 0 72.5 -6t64.5 -16q0 2 -0.5 3t-0.5 2q-2 20 4.5 39.5t20.5 36t36.5 27t54.5 10.5t54 -11t35.5 -28t19 -37t5.5 -37q0 -16 -4.5 -33t-14.5 -31.5t-25 -26.5q-16 -12 -37 -16q20 -22 36.5 -46t29.5 -50q7 -16 8 -30 t-3.5 -22t-15 -10t-26.5 6q-34 16 -85 32t-113 26t-133 12q-71 0 -146 -12q-26 -4 -46.5 -1t-34.5 13t-21 25t-7 35zM-691 1026q0 -12 9.5 -16t19.5 -3q44 6 96 7.5t108 -4t111 -19.5q55 -15 105 -39v4q-24 31 -53.5 58.5t-64 47.5t-74.5 31.5t-84 11.5q-40 0 -72 -7 t-54.5 -18.5t-34.5 -25.5t-12 -28zM-328.5 1149q0.5 -17 6.5 -31.5t18.5 -24t32.5 -9.5q18 0 30.5 9.5t19 24t6.5 31.5t-6.5 32t-18.5 24.5t-31 9.5q-20 0 -32.5 -9.5t-19 -24.5t-6 -32z" />
<glyph d="M-796 1018q0 34 23 61.5t60 46t86 28.5t103 10q12 0 22 -0.5t21 -1.5v96h95v-117q30 -10 55 -25.5t47 -33.5v176h94v-284q8 -14 17 -30q7 -16 8 -30t-3.5 -22t-15 -10t-26.5 6q-34 16 -85 32t-113 26t-133 12q-71 0 -146 -12q-26 -4 -46.5 -1t-34.5 13t-21 25t-7 35z M-691 1026q0 -12 9.5 -16t19.5 -3q44 6 96 7.5t108 -4t111 -19.5q55 -15 105 -39v4q-24 31 -53.5 58.5t-64 47.5t-74.5 31.5t-84 11.5q-40 0 -72 -7t-54.5 -18.5t-34.5 -25.5t-12 -28z" />
<glyph d="M-411 -211q0 27 9.5 49t26.5 37.5t40.5 24t52.5 8.5t48.5 -7t31.5 -19t17 -28t5 -34v-15.5v-33.5v-44.5v-50.5v-135h-100v113q-26 -1 -49.5 7t-41.5 24.5t-29 42.5t-11 61zM-360 -213q0 -19 4 -35t13 -27t25 -18.5t38 -9.5v147q0 9 -7 10.5t-15 1.5t-18.5 -3.5t-19 -12 t-14.5 -21.5t-6 -32z" />
<glyph d="M-647 -211q0 27 9.5 49t26.5 37.5t40.5 24t52.5 8.5t48.5 -7t31.5 -19t17 -28t5 -34v-11v-22v-30v-35q0 -40 -2 -90q4 -22 24 -34t48 -12q26 0 44 13t22 31v272h100v-274q-6 -22 -19 -39t-33 -29t-49 -18.5t-67 -6.5q-37 0 -66.5 7.5t-50.5 20.5t-35 29t-18 33v29 q-26 -1 -49 7t-41 24.5t-28.5 42.5t-10.5 61zM-596 -213q0 -19 4 -35t13 -27t24.5 -18.5t38.5 -9.5v147q0 9 -7 10.5t-15 1.5t-18.5 -3.5t-19 -12t-14.5 -21.5t-6 -32z" />
<glyph d="M-284 924v311h92v-311h-92z" />
<glyph d="M-454 1077v74h174v153h80v-153h178v-74h-178v-151h-80v151h-174z" />
<glyph d="M-276 1358v284h80v-284h-80z" />
<glyph d="M-405 1465v74h129v103h80v-103h127v-74h-127v-107h-80v107h-129z" />
<glyph d="M-284 924v311h92v-311h-92z" />
<glyph d="M-452 1077v74h174v153h81v-153h177v-74h-177v-151h-81v151h-174z" />
<glyph d="M-591 1228v284h80v-284h-80z" />
<glyph d="M-736 1292v46q12 1 28 4.5t34 10.5t36 18t34 28q-14 -6 -34 -2.5t-38 17.5t-31 36t-13 50q0 22 8 42t23 35t36 24.5t47 9.5q30 0 51.5 -9.5t35.5 -24.5t20.5 -36t6.5 -44q0 -19 -5 -37t-14.5 -35t-21.5 -31.5t-25 -25.5q-7 -6 -14.5 -11l-13.5 -9q-8 -6 -16 -10 q18 2 33 4t19 2q52 6 93.5 30t72 60.5t49.5 82t24 93.5l77 -12q-8 -35 -20 -71.5t-31.5 -70.5t-47 -65t-64.5 -54t-86 -36t-111 -13h-31t-39 0.5t-40 1.5q-20 0 -32 2zM-666 1501q0 -28 16 -46.5t45 -18.5q12 0 23.5 5t19.5 13.5t13 20.5t5 26q0 30 -16 47q-18 18 -46 18 q-15 0 -26 -6t-18.5 -15t-11.5 -21t-4 -23z" />
<glyph d="M-824 1452q0 16 3 35t10 37t18 34t28.5 28t41 19t53.5 6l80 -77l76 76q35 2 60.5 -8t43.5 -30t26.5 -48t8.5 -62q0 -8 -2 -24t-6.5 -32.5t-10.5 -33.5q-6 -16 -16 -26l8 2q23 8 42.5 29t31.5 54t15 78t-7 99l69 -8q4 -26 4.5 -57t-4.5 -63t-17 -62t-32.5 -54.5t-51 -41 t-72.5 -20.5h-23.5t-18.5 3q-4 2 -7 5t-4 7.5t0.5 10.5t6.5 12q6 10 12 24t11 31t7.5 34t2.5 31q0 36 -12.5 61t-45.5 37l-85 -82h-20l-83 86q-10 0 -21 -4t-21.5 -12t-18.5 -20t-11 -29q30 0 53.5 -10t39.5 -25.5t24 -35.5q9 -20 9 -40q0 -14 -3.5 -29t-12.5 -26.5t-23 -19 t-36 -8.5q-30 0 -53 10.5t-38 30.5t-22 48t-7 60zM-762 1443q-1 -24 3.5 -41.5t12.5 -30t18 -19.5q12 -6 24 -6q14 0 22 11t8 29q0 12 -6 25t-17.5 24t-27.5 17q-15 6 -35 6q0 -1 -0.5 -3t-1 -4.5t-0.5 -4.5v-3z" />
<glyph d="M-730 1340v74h139v118h80v-118h137v-74h-137v-122h-80v122h-139z" />
<glyph d="M-678 1024q0 22 13 46t39.5 44t65.5 33t91 13q58 0 109.5 -15.5t94.5 -44t77 -68.5t58 -88q7 -16 7.5 -30t-3.5 -22t-15 -10t-27 6q-30 14 -75 26.5t-99 21t-113 11.5t-115 -1q-54 -4 -81 16q-27 22 -27 62zM-576 1032q0 -12 9 -18.5t23 -6.5q39 1 82.5 -1t88.5 -8 t89 -17q42 -11 82 -27v4q-19 28 -47.5 55t-62.5 47.5t-72 33t-76 11.5q-34 0 -56.5 -6.5t-35.5 -16.5t-18.5 -23t-5.5 -27z" />
<glyph d="M-678 1024q0 24 13 48t39.5 44t65.5 32.5t91 12.5q67 0 124 -19.5t104 -57.5v174h94v-284q11 -16 17 -30q7 -16 7.5 -30t-3.5 -22t-15 -10t-27 6q-30 14 -75 26.5t-99 21t-113 11.5t-115 -1q-54 -4 -81 16q-27 22 -27 62zM-576 1032q0 -12 9 -18.5t23 -6.5q39 1 82.5 -1 t88.5 -8t89 -17q42 -11 82 -27v4q-19 28 -47.5 55t-62.5 47.5t-72 33t-76 11.5q-34 0 -56.5 -6.5t-35.5 -16.5t-18.5 -23t-5.5 -27z" />
<glyph d="M-678 1024q0 24 13 48t39.5 44t65.5 32.5t91 12.5q34 0 65.5 -4.5t59.5 -15.5v3v3q-2 20 4 39.5t20 36t36.5 27t54.5 10.5t54 -11t35.5 -28t19.5 -37t6 -37q0 -16 -5 -33.5t-15 -31.5t-26 -25t-36 -16q38 -43 66 -97q7 -16 7.5 -30t-3.5 -22t-15 -10t-27 6 q-30 14 -75 26.5t-99 21t-113 11.5t-115 -1q-54 -4 -81 16q-27 22 -27 62zM-576 1032q0 -12 9 -18.5t23 -6.5q39 1 82.5 -1t88.5 -8t89 -17q42 -11 82 -27v4q-19 28 -47.5 55t-62.5 47.5t-72 33t-76 11.5q-34 0 -56.5 -6.5t-35.5 -16.5t-18.5 -23t-5.5 -27zM-286 1149 q0 -17 6.5 -31.5t19 -24t32.5 -9.5q18 0 31 9.5t19 24t6 31.5t-6 32t-19 25t-31 10q-20 0 -32.5 -10t-19 -25t-6.5 -32z" />
<glyph d="M-678 1024q0 24 13 48.5t39.5 44t65.5 32.5t91 13q17 0 31 -2v98h94v-118q28 -10 54 -23.5t49 -32.5v174h94v-284q11 -16 17 -30q7 -16 7.5 -30t-3.5 -22t-15 -10t-27 6q-30 14 -75 26.5t-99 21t-113 11.5t-115 -1q-54 -4 -81 16q-27 22 -27 62zM-576 1032q0 -12 9 -18.5 t23 -6.5q39 1 82.5 -1t88.5 -8t89 -17q42 -11 82 -27v4q-19 28 -47.5 55t-62.5 47.5t-72 33t-76 11.5q-34 0 -56.5 -6.5t-35.5 -16.5t-18.5 -23t-5.5 -27z" />
<glyph d="M-234 1238v284h80v-284h-80z" />
<glyph d="M-444 1489q0 22 7 42t21 35.5t36 25.5t50 10q30 0 52 -9.5t36.5 -25t21 -36.5t6.5 -44q0 -26 -8.5 -49.5t-23.5 -43t-34.5 -36t-41.5 -30.5q18 2 30 3.5t17 1.5q52 6 93.5 30.5t71.5 61t48 81.5q18 46 24 94l78 -12q-8 -35 -20 -71.5t-31 -70.5t-46 -65t-64.5 -54 t-86 -36t-110.5 -13q-28 0 -60 2t-56 5v43q28 6 56 20t50 38q-18 -6 -38 -2t-37.5 17t-29 35t-11.5 53zM-392 1491q0 -28 16 -47q18 -18 46 -18q12 0 23 5t19.5 13.5t13.5 20.5t5 26q0 30 -16.5 47.5t-45.5 17.5q-15 0 -26 -6t-19 -15t-12 -21t-4 -23z" />
<glyph d="M-550 1432q0 16 3 35t10 37t19 34t29 28t40 19t54 6l79 -77l76 76q35 2 61.5 -8t43.5 -30t26 -48t9 -62q0 -8 -2 -24t-6 -32.5t-11 -33t-17 -26.5l9 2q23 8 42.5 29t32 54t14.5 78q4 45 -6 99l68 -8q4 -26 4 -57t-5 -63t-16.5 -62t-32 -54.5t-50.5 -41t-72 -20.5h-23.5 t-20.5 3q-4 2 -6.5 5t-3.5 7.5t0.5 10.5t6.5 12q6 10 12.5 24t10.5 31t7 34t3 31q0 36 -12 61t-46 37l-86 -82h-19l-83 86q-10 0 -21 -4t-21.5 -12t-18.5 -20t-11 -29q30 0 53 -10t39.5 -25.5t25.5 -35.5q8 -20 8 -40q0 -14 -3.5 -29t-12 -26.5t-23.5 -19t-37 -8.5 q-30 0 -52 10.5t-37 30.5t-23 48t-8 60zM-487 1420q-2 -47 14.5 -70.5t41.5 -23.5q14 0 22.5 11t8.5 29q0 12 -6 25t-17.5 23t-27 16t-35.5 6v-3.5v-4.5v-4z" />
<glyph d="M-362 1350v74h130v108h78v-108h128v-74h-128v-112h-78v112h-130z" />
<glyph d="M-269 1228v284h80v-284h-80z" />
<glyph d="M-444 1454q0 22 7 42t21 36t36 25t50 9q30 0 52 -9t36.5 -25t21 -36.5t6.5 -43.5q0 -26 -8.5 -49t-23.5 -43t-34.5 -37t-41.5 -30q18 2 30 3.5t17 1.5q52 6 93.5 30.5t71.5 61t48 82.5t24 94l78 -12q-8 -35 -20 -71.5t-31 -71.5t-46 -65t-64.5 -53t-86 -36.5 t-110.5 -13.5q-28 0 -60 2.5t-56 4.5v44q28 6 56 20t50 36q-18 -6 -38 -2t-37.5 17t-29 35.5t-11.5 53.5zM-392 1456q0 -28 16 -46q18 -19 46 -19q12 0 23 4.5t19.5 13.5t13.5 21t5 26q0 30 -16.5 48t-45.5 18q-15 0 -26 -6t-19 -16t-12 -21.5t-4 -22.5z" />
<glyph d="M-550 1402q0 16 3 35t10 37t19 34t29 28t40 19t54 6l79 -77l76 76q35 2 61.5 -8t43.5 -30t26 -48t9 -62q0 -8 -2 -24t-6 -32.5t-11 -33t-17 -26.5l9 2q23 8 42.5 29t32 54t14.5 78q4 45 -6 99l68 -8q4 -26 4 -57t-5 -63t-16.5 -62t-32 -54.5t-50.5 -41t-72 -20.5h-23.5 t-20.5 3q-4 2 -6.5 5t-3.5 7.5t0.5 10.5t6.5 12q6 10 12.5 24t10.5 31t7 34t3 31q0 36 -12 61t-46 37l-86 -82h-19l-83 86q-10 0 -21 -4t-21.5 -12t-18.5 -20t-11 -29q30 0 53 -10t39.5 -25.5t25.5 -35.5q8 -20 8 -40q0 -14 -3.5 -29t-12 -26.5t-23.5 -19t-37 -8.5 q-30 0 -52 10.5t-37 30.5t-23 48t-8 60zM-487 1390q-2 -47 14.5 -70.5t41.5 -23.5q14 0 22.5 11t8.5 29q0 12 -6 25t-17.5 23t-27 16t-35.5 6v-3.5v-4.5v-4z" />
<glyph d="M-398 1336v72h130v108h78v-108h128v-72h-128v-112h-78v112h-130z" />
<glyph d="M-234 1228v284h80v-284h-80z" />
<glyph d="M-444 1454q0 22 7 42t21 36t36 25t50 9q30 0 52 -9t36.5 -25t21 -36.5t6.5 -43.5q0 -26 -8.5 -49t-23.5 -43t-34.5 -37t-41.5 -30q18 2 30 3.5t17 1.5q52 6 93.5 30.5t71.5 61t48 82.5t24 94l78 -12q-8 -35 -20 -71.5t-31 -71.5t-46 -65t-64.5 -53t-86 -36.5 t-110.5 -13.5q-28 0 -60 2.5t-56 4.5v44q28 6 56 20t50 36q-18 -6 -38 -2t-37.5 17t-29 35.5t-11.5 53.5zM-392 1456q0 -28 16 -46q18 -19 46 -19q12 0 23 4.5t19.5 13.5t13.5 21t5 26q0 30 -16.5 48t-45.5 18q-15 0 -26 -6t-19 -16t-12 -21.5t-4 -22.5z" />
<glyph d="M-550 1402q0 16 3 35t10 37t19 34t29 28t40 19t54 6l79 -77l76 76q35 2 61.5 -8t43.5 -30t26 -48t9 -62q0 -8 -2 -24t-6 -32.5t-11 -33t-17 -26.5l9 2q23 8 42.5 29t32 54t14.5 78q4 45 -6 99l68 -8q4 -26 4 -57t-5 -63t-16.5 -62t-32 -54.5t-50.5 -41t-72 -20.5h-23.5 t-20.5 3q-4 2 -6.5 5t-3.5 7.5t0.5 10.5t6.5 12q6 10 12.5 24t10.5 31t7 34t3 31q0 36 -12 61t-46 37l-86 -82h-19l-83 86q-10 0 -21 -4t-21.5 -12t-18.5 -20t-11 -29q30 0 53 -10t39.5 -25.5t25.5 -35.5q8 -20 8 -40q0 -14 -3.5 -29t-12 -26.5t-23.5 -19t-37 -8.5 q-30 0 -52 10.5t-37 30.5t-23 48t-8 60zM-487 1390q-2 -47 14.5 -70.5t41.5 -23.5q14 0 22.5 11t8.5 29q0 12 -6 25t-17.5 23t-27 16t-35.5 6v-3.5v-4.5v-4z" />
<glyph d="M-362 1336v72h130v108h78v-108h128v-72h-128v-112h-78v112h-130z" />
<glyph d="M-451 1228v284h80v-284h-80z" />
<glyph d="M-604 1454q0 22 7 42t21 36t36 25t50 9q30 0 52 -9t36.5 -25t21 -36.5t6.5 -43.5q0 -26 -8.5 -49t-23.5 -43t-34.5 -37t-41.5 -30q18 2 30 3.5t17 1.5q52 6 93.5 30.5t71.5 61t48 82.5t24 94l78 -12q-8 -35 -20 -71.5t-31 -71.5t-46 -65t-64.5 -53t-86 -36.5 t-110.5 -13.5q-28 0 -60 2.5t-56 4.5v44q28 6 56 20t50 36q-18 -6 -38 -2t-37.5 17t-29 35.5t-11.5 53.5zM-552 1456q0 -28 16 -46q18 -19 46 -19q12 0 23 4.5t19.5 13.5t13.5 21t5 26q0 30 -16.5 48t-45.5 18q-15 0 -26 -6t-19 -16t-12 -21.5t-4 -22.5z" />
<glyph d="M-690 1402q0 16 3 35t10 37t19 34t29 28t40 19t54 6l79 -77l76 76q35 2 61.5 -8t43.5 -30t26 -48t9 -62q0 -8 -2 -24t-6 -32.5t-11 -33t-17 -26.5l9 2q23 8 42.5 29t32 54t14.5 78q4 45 -6 99l68 -8q4 -26 4 -57t-5 -63t-16.5 -62t-32 -54.5t-50.5 -41t-72 -20.5h-23.5 t-20.5 3q-4 2 -6.5 5t-3.5 7.5t0.5 10.5t6.5 12q6 10 12.5 24t10.5 31t7 34t3 31q0 36 -12 61t-46 37l-86 -82h-19l-83 86q-10 0 -21 -4t-21.5 -12t-18.5 -20t-11 -29q30 0 53 -10t39.5 -25.5t25.5 -35.5q8 -20 8 -40q0 -14 -3.5 -29t-12 -26.5t-23.5 -19t-37 -8.5 q-30 0 -52 10.5t-37 30.5t-23 48t-8 60zM-627 1390q-2 -47 14.5 -70.5t41.5 -23.5q14 0 22.5 11t8.5 29q0 12 -6 25t-17.5 23t-27 16t-35.5 6v-3.5v-4.5v-4z" />
<glyph d="M-580 1336v72h130v108h78v-108h128v-72h-128v-112h-78v112h-130z" />
<glyph d="M-531 1308v284h80v-284h-80z" />
<glyph d="M-596 1292v46q11 0 26.5 3t32 10t34 18t31.5 28q-16 -7 -36 -4t-37 15.5t-28.5 34t-11.5 51.5q0 21 7 40.5t21 35t35 24.5q20 10 48 10q30 0 51.5 -9t35 -24.5t20.5 -36t7 -42.5q0 -18 -6 -36t-15.5 -34t-20.5 -30q-12 -16 -25 -26q-7 -6 -13 -11t-12 -9t-13 -8 q18 2 29.5 3.5t15.5 1.5q50 6 88.5 31t65 62.5t42.5 83t22 92.5l76 -11q-7 -34 -18 -70.5t-28.5 -71t-42 -66t-59.5 -54.5t-81.5 -37t-106.5 -14h-29.5t-37 1t-37.5 1t-30 2zM-534 1496q0 -28 16.5 -46t44.5 -18q12 0 23 5t19.5 13.5t13 20t4.5 25.5q0 30 -16.5 47t-44.5 17 q-14 0 -25 -6t-19 -15t-12 -20.5t-4 -22.5z" />
<glyph d="M-690 1420q0 24 6 51t22.5 50.5t45.5 38.5q28 16 71 14l76 -74l71 69q34 2 60 -7t43 -27.5t25 -45.5t8 -59q0 -9 -2 -23.5t-6 -30t-10 -30t-15 -24.5l9 -2q22 7 39 29.5t28 56t12 75.5t-10 88l67 -8q4 -25 5 -55t-4 -60t-16 -59t-30.5 -52.5t-48.5 -39.5q-30 -17 -70 -21 q-12 0 -19 1t-17 3q-10 6 -12 14q0 8 10 21q6 8 12 22.5t10.5 30t7 32t2.5 30.5q0 18 -3 33t-10 28t-18 22t-28 15l-80 -78h-18l-80 80q-12 -1 -23 -5.5t-20.5 -13t-16.5 -21t-9 -28.5q29 -1 51.5 -9.5t38.5 -23t24 -32.5q8 -19 8 -37q0 -14 -4 -29t-12 -26.5t-22 -19 t-36 -7.5q-28 -1 -49 11t-35 32t-21 46q-7 27 -7 55zM-633 1412q-1 -22 3 -40t12 -30t18 -18t22 -6q14 0 22.5 10.5t8.5 29.5q-1 12 -7 24t-17 22.5t-26 17t-34 6.5q0 -2 -1 -8t-1 -8z" />
<glyph d="M-664 1412v74h133v112h80v-112h137v-74h-137v-110h-80v110h-133z" />
<glyph d="M-234 1308v284h80v-284h-80z" />
<glyph d="M-380 1292v46q12 1 28 4.5t34 10.5t36 18t34 28q-16 -7 -37 -4t-38.5 16t-29 35t-11.5 53q0 22 7 42t21 35.5t36 25.5q22 9 50 9q30 0 52 -9.5t36 -24.5t21 -36t7 -44q0 -19 -6 -37t-16 -35t-22 -31.5t-25 -25.5q-7 -6 -14 -11t-12 -9q-7 -6 -13 -10q18 2 30 4t17 2 q52 6 93.5 30t71.5 60.5t48 81.5q18 46 24 94l78 -12q-8 -35 -20 -71.5t-31 -70.5t-46 -65t-64.5 -54t-86 -36t-110.5 -13h-31t-40 0.5t-40 1t-31 2.5zM-312 1501q0 -28 17 -46.5t45 -18.5q12 0 23 5t20 13.5t14 20.5t5 26q0 30 -17 47.5t-45 17.5q-15 0 -26.5 -6t-19.5 -15 t-12 -21t-4 -23z" />
<glyph d="M-464 1426q0 16 3 34.5t10 36.5t18 34.5t28.5 28.5t41 18.5t53.5 5.5l80 -77l76 75q35 2 60.5 -7.5t43.5 -29t26.5 -47.5t8.5 -63q0 -8 -2 -23.5t-6.5 -32.5t-10.5 -33t-16 -26h8q23 8 42.5 29t31.5 55t15 78t-7 98l69 -7q4 -26 4.5 -57t-4.5 -62.5t-17 -62t-32.5 -55 t-51.5 -40.5q-30 -18 -72 -22q-13 0 -23.5 1t-18.5 3q-4 2 -7 5t-4 7.5t0.5 10t6.5 12.5q6 10 12 24.5t11 30.5t7 34q3 18 3 32q0 36 -12.5 61t-45.5 36l-85 -81h-20l-83 85q-10 0 -21 -4t-21.5 -12t-18.5 -20.5t-11 -28.5q30 0 53.5 -10t39.5 -25.5t24.5 -35t8.5 -39.5 q0 -14 -3.5 -29t-12.5 -27t-23 -20t-36 -8q-30 0 -53 11t-38 31t-22 47t-7 61zM-402 1416q-1 -24 3.5 -42t12.5 -30t18 -18q12 -7 24 -7q14 0 22 11.5t8 29.5q0 12 -6 25t-17.5 23t-27.5 17q-15 7 -35 7q0 -1 -0.5 -3.5l-1 -5t-0.5 -5.5v-2z" />
<glyph d="M-362 1414v73h130v108h78v-108h128v-73h-128v-112h-78v112h-130z" />
</font>
</defs>
</svg>
