<svg xmlns="http://www.w3.org/2000/svg">
<defs>
<font id="DBKomolX-Demi" horiz-adv-x="0" >
  <font-face 
    font-family="DB Komol X Demi"
    font-weight="600"
    font-stretch="normal"
    units-per-em="2048"
    panose-1="2 0 8 6 6 0 0 2 0 3"
    ascent="1638"
    descent="-410"
    x-height="699"
    cap-height="980"
    bbox="-950 -756.01 2020 1666"
    underline-thickness="41"
    underline-position="-232"
    unicode-range="U+000D-U+F882"
  />
<missing-glyph horiz-adv-x="848" 
d="M66 2v282.003c0 32 6.16699 60.167 18.5 84.5s28.666 44.666 48.999 60.999s43.5 28.666 69.5 36.999s52.333 12.5 79 12.5s53 -3.66699 79 -11s48.667 -18.5 68 -33.5s35 -34.167 47 -57.5s18 -51.333 18 -84v-237h216v413h58v-467h-387v54h59v243
c0 20 -4 37.833 -12 53.5s-19 28.5 -33 38.5s-30.333 17.667 -49 23s-39.334 8 -62.001 8c-20 0 -39.667 -3 -59 -9s-36.333 -14.333 -51 -25s-26.5 -24 -35.5 -40s-13.5 -34.333 -13.5 -55v-219l125 119c-4 0.666992 -8.66699 2.66699 -14 6
s-10.666 7.66602 -15.999 12.999s-9.66602 12 -12.999 20s-5 17.333 -5 28s1.83301 20.667 5.5 30s9 17.333 16 24s15.167 12 24.5 16s20 6 32 6s22.667 -2 32 -6s17.333 -9.33301 24 -16s11.667 -14.667 15 -24s5 -19.333 5 -30c0 -8 -1.16699 -15.667 -3.5 -23
s-5 -13.833 -8 -19.5s-6.5 -10.667 -10.5 -15l-10 -10.5l-193 -190h-65zM84 580.003c8 30.667 21.002 59.8301 39.002 87.4971s40.667 52 68 73s59 37.667 95 50s76 18.5 120 18.5c42.667 0 81 -4.83301 115 -14.5s63.667 -21.5 89 -35.5s46.666 -29 63.999 -45
c17.333 -14.667 30 -28.667 38 -42c0 -1.33301 0 0.333984 0 5.00098v19c0 8 -0.166992 17.167 -0.5 27.5s-0.5 20.666 -0.5 30.999s-0.166992 20.333 -0.5 30s-0.5 17.834 -0.5 24.501h58v-291c-32.667 10.667 -67.834 20.334 -105.501 29.001s-77.5 16.334 -119.5 23.001
s-85.333 12 -130 16s-90.334 6 -137.001 6c-33.333 0 -65.666 -1 -96.999 -3s-63 -5 -95 -9zM172.002 640.999c24.667 2.66699 49.1719 4.67188 73.5049 6.00488s49.166 2 74.499 2h46c15.333 0 30.666 -0.666992 45.999 -2l49 -4.5c18 -1.66699 36.833 -4.16699 56.5 -7.5

<glyph glyph-name="plusminus" unicode="&#x2b;&#x2d;" horiz-adv-x="862" 
d="M102 10v127h658v-127h-658zM102 447v127h266v245h126v-245h266v-127h-266v-245h-126v245h-266z" />
    <glyph glyph-name="ellipsis" unicode="&#x2e;&#x2e;&#x2e;" horiz-adv-x="1134" 
d="M100 94c0 13.333 1.99805 26 5.99805 38s10 22.333 18 31s17.667 15.667 29 21s24.333 8 39 8s27.667 -2.66699 39 -8s20.833 -12.666 28.5 -21.999s13.334 -19.833 17.001 -31.5s5.5 -23.834 5.5 -36.501c0 -14.667 -2.16699 -28.167 -6.5 -40.5
s-10.666 -23 -18.999 -32s-17.833 -16 -28.5 -21s-22.667 -7.5 -36 -7.5s-25.5 2.5 -36.5 7.5s-20.667 11.833 -29 20.5s-14.833 19 -19.5 31c-4.66699 13.333 -7 27.333 -7 42zM475.998 94c0 13.333 2 26 6 38s10 22.333 18 31s17.667 15.667 29 21s24.333 8 39 8
s27.667 -2.66699 39 -8s20.666 -12.666 27.999 -21.999s13 -19.833 17 -31.5s6 -23.834 6 -36.501c0 -14.667 -2.33301 -28.167 -7 -40.5s-11 -23 -19 -32s-17.333 -16.167 -28 -21.5c-10.667 -4.66699 -22.667 -7 -36 -7s-25.666 2.5 -36.999 7.5s-21 11.833 -29 20.5
s-14.333 19 -19 31c-4.66699 13.333 -7 27.333 -7 42zM851.998 94c0 13.333 2 26 6 38s10 22.333 18 31s17.667 15.667 29 21s24.333 8 39 8s27.667 -2.66699 39 -8s20.666 -12.666 27.999 -21.999s13 -19.833 17 -31.5s6 -23.834 6 -36.501
c0 -14.667 -2.33301 -28.167 -7 -40.5s-11 -23 -19 -32s-17.333 -16.167 -28 -21.5c-10.667 -4.66699 -22.667 -7 -36 -7s-25.666 2.5 -36.999 7.5s-21 11.833 -29 20.5s-14.333 19 -19 31c-4.66699 13.333 -7 27.333 -7 42z" />
    <glyph glyph-name="lessequal" unicode="&#x3c;&#x3d;" horiz-adv-x="761" 
d="M71 455v124l305 135.5l305 135.5v-124l-475 -210l475 -220v-120l-154 70l-151.5 69l-151 70zM72 10v109h608v-109h-608z" />
    <glyph glyph-name="greaterequal" unicode="&#x3e;&#x3d;" horiz-adv-x="761" 
d="M79 176v120l475 220l-475 210v124l610 -271v-124l-305.5 -139.5zM80 10v109h608v-109h-608z" />
    <glyph glyph-name="fongmanfunnuthai" unicode="&#xe4f;&#x22;" horiz-adv-x="1122" 
d="M64 424c0 44 5.66406 85.335 16.9971 124.002s27.666 74.334 48.999 107.001s47 61.667 77 87s63.333 46.666 100 63.999s76.334 30.666 119.001 39.999s87.334 14 134.001 14s91.334 -4.66699 134.001 -14s82.334 -22.666 119.001 -39.999s70 -38.666 100 -63.999
s55.5 -54 76.5 -86s37.333 -67.333 49 -106s17.5 -80.334 17.5 -125.001c0 -66.667 -12 -126.834 -36 -180.501s-57.5 -99.167 -100.5 -136.5s-95 -66 -156 -86s-128.833 -30 -203.5 -30c-76 0 -144.667 10 -206 30s-113.333 48.667 -156 86s-75.667 82.666 -99 135.999
s-35 113.333 -35 180zM210.997 424.002c0 -54.667 8.66602 -104 25.999 -148s41.5 -81.333 72.5 -112s67.833 -54.167 110.5 -70.5s89.334 -24.5 140.001 -24.5s97.334 8.33301 140.001 25s79.334 40.5 110.001 71.5s54.667 68.167 72 111.5s26 92.333 26 147
c0 48.667 -8.33301 94.167 -25 136.5s-40.334 79.333 -71.001 111s-67.334 56.667 -110.001 75s-90 27.5 -142 27.5s-99.5 -9.16699 -142.5 -27.5s-79.667 -43.333 -110 -75s-54 -68.667 -71 -111s-25.5 -87.833 -25.5 -136.5zM305.996 422.002
c0 36 6.83203 68.333 20.499 97s32 53 55 73s49.833 35.5 80.5 46.5s63.334 16.5 98.001 16.5c33.333 0 65.333 -5.5 96 -16.5s57.5 -26.5 80.5 -46.5s41.333 -44.333 55 -73s20.5 -61 20.5 -97s-6.83301 -68.333 -20.5 -97s-32 -53 -55 -73s-49.833 -35.5 -80.5 -46.5
s-62.667 -16.5 -96 -16.5c-34 0 -66.5 5.5 -97.5 16.5s-58 26.5 -81 46.5s-41.333 44.333 -55 73s-20.5 61 -20.5 97zM361.995 1182h132l-20 -208h-92zM424.995 426.002c0 -22.667 3.33301 -43 10 -61s16 -33.667 28 -47s26.167 -23.666 42.5 -30.999s34.5 -11 54.5 -11
s38.333 3.66699 55 11s31 17.666 43 30.999s21.167 29 27.5 47s9.5 38.333 9.5 61c0 22 -3.16699 42.167 -9.5 60.5s-15.5 34 -27.5 47s-26 23.167 -42 30.5c-17.333 7.33301 -36 11 -56 11s-38.167 -3.66699 -54.5 -11s-30.5 -17.5 -42.5 -30.5s-21.333 -28.667 -28 -47
s-10 -38.5 -10 -60.5zM616.995 1182h133l-20 -208h-92z" />
    <glyph glyph-name="dochadaphinthuthai" unicode="&#xe0e;&#xe3a;" horiz-adv-x="959" 
d="M82 132c0 28.667 4.32617 52.4941 12.9932 71.4941s20 34.167 34 45.5s30 19.666 48 24.999s36.333 8 55 8l-4 44v182l-121 86c19.333 26.667 41.833 50.334 67.5 71.001s54.5 38.334 86.5 53.001s67.167 26 105.5 34s80.5 12 126.5 12c56 0 105.167 -5 147.5 -15
s78 -23.167 107 -39.5s51.333 -34.666 67 -54.999s25.5 -41.166 29.5 -62.499v-828c0 -19.333 -4 -35.5 -12 -48.5s-19 -22.167 -33 -27.5s-29.667 -6 -47 -2c-18.667 4 -37.334 13.333 -56.001 28l-35.5 28.5c-10.333 8.33301 -21.166 16.333 -32.499 24
s-23.833 15.334 -37.5 23.001l-49.5 26.5c-2.66699 -19.333 -9.16699 -37.5 -19.5 -54.5s-23.833 -31.833 -40.5 -44.5s-36.667 -22.5 -60 -29.5s-49 -10.5 -77 -10.5c-34 0 -62.167 3.33301 -84.5 10s-40.166 15.5 -53.499 26.5s-23 23.833 -29 38.5s-9 30 -9 46
c0 17.333 3.83301 33.333 11.5 48s19 27.334 34 38.001s33.5 19 55.5 25s47.667 9 77 9c9.33301 0 20.166 -0.666992 32.499 -2s24.666 -3 36.999 -5s24.5 -4.66699 36.5 -8s22.333 -6.66602 31 -9.99902c-1.33301 11.333 -3.66602 23.666 -6.99902 36.999
c-3.33301 14.667 -7.66602 26 -12.999 34l59 20c6.66699 -16 12 -34 16 -54s6.66699 -39.333 8 -58c30.667 -11.333 58.334 -23.5 83.001 -36.5s48.334 -26.833 71.001 -41.5l-4 166v628c-2.66699 14.667 -9.66699 29 -21 43s-26.333 26.333 -45 37
s-40.667 19.334 -66 26.001s-52.666 10 -81.999 10c-25.333 0 -50.666 -1.83301 -75.999 -5.5s-49.333 -9.5 -72 -17.5s-44 -18 -64 -30c-20 -12.667 -37.333 -27 -52 -43l155 -98v-418c0 -13.333 -2.5 -26 -7.5 -38s-13 -22.333 -24 -31s-25 -15.667 -42 -21
s-37.5 -8 -61.5 -8s-45.667 3.33301 -65 10s-35.666 16 -48.999 28s-23.666 26.333 -30.999 43s-11 35.667 -11 57zM133.993 135.994c0 -16 2.33203 -29.499 6.99902 -40.499s10.667 -20 18 -27s15 -12 23 -15s15.667 -4.5 23 -4.5c6.66699 0 12.834 0.833008 18.501 2.5
s8.5 6.5 8.5 14.5v168c-34.667 -2.66699 -59.667 -12.334 -75 -29.001s-23 -39.667 -23 -69zM234.992 -204.005c0 -6.66699 1.50195 -13.667 4.50195 -21s8.5 -14 16.5 -20s19 -11 33 -15s31.667 -6 53 -6c20 0 38.333 2.66699 55 8s31 12.5 43 21.5s21.833 19.667 29.5 32
s12.167 25.833 13.5 40.5c-21.333 8 -43.833 14.5 -67.5 19.5s-46.167 7.5 -67.5 7.5c-22.667 0 -41.334 -2.33301 -56.001 -7s-26.334 -10.5 -35.001 -17.5s-14.5 -14.5 -17.5 -22.5s-4.5 -14.667 -4.5 -20zM669.994 -471.005c0 15.333 3.33008 29.666 9.99707 42.999
s17 24.5 31 33.5s31 13.5 51 13.5s36.667 -4.5 50 -13.5s23.333 -20.167 30 -33.5s9.83398 -27.666 9.50098 -42.999s-3.66602 -29.666 -9.99902 -42.999s-16.166 -24.5 -29.499 -33.5s-30 -13.5 -50 -13.5s-37 4.5 -51 13.5s-24.333 20.167 -31 33.5s-10 27.666 -10 42.999
z" />
    <glyph glyph-name="topatakphintuthai" unicode="&#xe0f;&#xe3a;" horiz-adv-x="959" 
d="M30 -217c0 18.667 3.32715 35.1592 9.99414 49.4922s16.334 26.5 29.001 36.5s28 17.667 46 23s37.333 8 58 8c22.667 0 44.834 -3.33301 66.501 -10s43.5 -16 65.5 -28c0 10.667 -1 21.334 -3 32.001s-5.33301 21.334 -10 32.001l58 18
c9.33301 -21.333 15 -42.333 17 -63s0.666992 -40.334 -4 -59.001c10.667 -8 20.834 -16.667 30.501 -26l30.5 -30l134 135l144 -128l-6 183v632c-2.66699 14.667 -9.66699 29 -21 43s-26.333 26.333 -45 37s-40.667 19.334 -66 26.001s-52.666 10 -81.999 10
c-25.333 0 -50.666 -1.83301 -75.999 -5.5s-49.333 -9.5 -72 -17.5s-44 -18 -64 -30c-20 -12.667 -37.333 -27 -52 -43l155 -98v-418c0 -13.333 -2.5 -26 -7.5 -38s-13 -22.333 -24 -31s-25 -15.667 -42 -21s-37.5 -8 -61.5 -8s-45.667 3.33301 -65 10
s-35.666 16 -48.999 28s-23.666 26.333 -30.999 43s-11 35.667 -11 57c0 28.667 4.33301 52.5 13 71.5s20 34.167 34 45.5s30 19.666 48 24.999s36.333 8 55 8l-4 44v182l-121 86c19.333 26.667 41.833 50.334 67.5 71.001s54.5 38.334 86.5 53.001s67.167 26 105.5 34
s80.5 12 126.5 12c56 0 105.167 -5 147.5 -15s78 -23.167 107 -39.5s51.333 -34.666 67 -54.999s25.5 -41.166 29.5 -62.499v-829c0 -16 -2.66699 -30 -8 -42s-12.666 -22.167 -21.999 -30.5s-20 -14.5 -32 -18.5s-24.333 -5.66699 -37 -5s-25 3.33398 -37 8.00098
s-23.333 12.334 -34 23.001l-118 114l-132 -135c-16 17.333 -31 32.833 -45 46.5l-40 37.5c-16.667 -26.667 -39.334 -48.5 -68.001 -65.5s-61 -25.5 -97 -25.5c-18.667 0 -36.834 2.33301 -54.501 7s-33 11.834 -46 21.501s-23.5 21.5 -31.5 35.5s-12 30.333 -12 49z
M91.9941 -218.008c0 -8 2.00098 -15.5 6.00098 -22.5s9.33301 -13.167 16 -18.5s15 -9.5 25 -12.5s21.667 -4.5 35 -4.5c28 0 52 6.66699 72 20c20.667 13.333 36 31.333 46 54c-21.333 14.667 -41.333 25.667 -60 33s-38 11 -58 11c-14.667 0 -27.334 -1.66699 -38.001 -5
s-19.167 -8 -25.5 -14s-11 -12.667 -14 -20s-4.5 -14.333 -4.5 -21zM133.995 135.992c0 -16 2.33203 -29.499 6.99902 -40.499s10.667 -20 18 -27s15 -12 23 -15s15.667 -4.5 23 -4.5c6.66699 0 12.834 0.833008 18.501 2.5s8.5 6.5 8.5 14.5v168
c-34.667 -2.66699 -59.667 -12.334 -75 -29.001s-23 -39.667 -23 -69zM669.994 -471.007c0 15.333 3.33008 29.666 9.99707 42.999s17 24.5 31 33.5s31 13.5 51 13.5s36.667 -4.5 50 -13.5s23.333 -20.167 30 -33.5s9.83398 -27.666 9.50098 -42.999
s-3.66602 -29.666 -9.99902 -42.999s-16.166 -24.5 -29.499 -33.5s-30 -13.5 -50 -13.5s-37 4.5 -51 13.5s-24.333 20.167 -31 33.5s-10 27.666 -10 42.999z" />
    <glyph glyph-name="dochadasarauthai" unicode="&#xe0e;&#xe38;" horiz-adv-x="959" 
d="M82 132c0 28.667 4.32617 52.4941 12.9932 71.4941s20 34.167 34 45.5s30 19.666 48 24.999s36.333 8 55 8l-4 44v182l-121 86c19.333 26.667 41.833 50.334 67.5 71.001s54.5 38.334 86.5 53.001s67.167 26 105.5 34s80.5 12 126.5 12c56 0 105.167 -5 147.5 -15
s78 -23.167 107 -39.5s51.333 -34.666 67 -54.999s25.5 -41.166 29.5 -62.499v-828c0 -19.333 -4 -35.5 -12 -48.5s-19 -22.167 -33 -27.5s-29.667 -6 -47 -2c-18.667 4 -37.334 13.333 -56.001 28l-35.5 28.5c-10.333 8.33301 -21.166 16.333 -32.499 24
s-23.833 15.334 -37.5 23.001l-49.5 26.5c-2.66699 -19.333 -9.16699 -37.5 -19.5 -54.5s-23.833 -31.833 -40.5 -44.5s-36.667 -22.5 -60 -29.5s-49 -10.5 -77 -10.5c-34 0 -62.167 3.33301 -84.5 10s-40.166 15.5 -53.499 26.5s-23 23.833 -29 38.5s-9 30 -9 46
c0 17.333 3.83301 33.333 11.5 48s19 27.334 34 38.001s33.5 19 55.5 25s47.667 9 77 9c9.33301 0 20.166 -0.666992 32.499 -2s24.666 -3 36.999 -5s24.5 -4.66699 36.5 -8s22.333 -6.66602 31 -9.99902c-1.33301 11.333 -3.66602 23.666 -6.99902 36.999
c-3.33301 14.667 -7.66602 26 -12.999 34l59 20c6.66699 -16 12 -34 16 -54s6.66699 -39.333 8 -58c30.667 -11.333 58.334 -23.5 83.001 -36.5s48.334 -26.833 71.001 -41.5l-4 166v628c-2.66699 14.667 -9.66699 29 -21 43s-26.333 26.333 -45 37
s-40.667 19.334 -66 26.001s-52.666 10 -81.999 10c-25.333 0 -50.666 -1.83301 -75.999 -5.5s-49.333 -9.5 -72 -17.5s-44 -18 -64 -30c-20 -12.667 -37.333 -27 -52 -43l155 -98v-418c0 -13.333 -2.5 -26 -7.5 -38s-13 -22.333 -24 -31s-25 -15.667 -42 -21
s-37.5 -8 -61.5 -8s-45.667 3.33301 -65 10s-35.666 16 -48.999 28s-23.666 26.333 -30.999 43s-11 35.667 -11 57zM133.993 135.994c0 -16 2.33203 -29.499 6.99902 -40.499s10.667 -20 18 -27s15 -12 23 -15s15.667 -4.5 23 -4.5c6.66699 0 12.834 0.833008 18.501 2.5
s8.5 6.5 8.5 14.5v168c-34.667 -2.66699 -59.667 -12.334 -75 -29.001s-23 -39.667 -23 -69zM234.992 -204.005c0 -6.66699 1.50195 -13.667 4.50195 -21s8.5 -14 16.5 -20s19 -11 33 -15s31.667 -6 53 -6c20 0 38.333 2.66699 55 8s31 12.5 43 21.5s21.833 19.667 29.5 32
s12.167 25.833 13.5 40.5c-21.333 8 -43.833 14.5 -67.5 19.5s-46.167 7.5 -67.5 7.5c-22.667 0 -41.334 -2.33301 -56.001 -7s-26.334 -10.5 -35.001 -17.5s-14.5 -14.5 -17.5 -22.5s-4.5 -14.667 -4.5 -20zM575.994 -509.005c0 18 3 34.334 9 49.001s14.667 27.5 26 38.5
s25 19.5 41 25.5s34.667 9 56 9s39.833 -2.5 55.5 -7.5s28.667 -11.833 39 -20.5s18.166 -18.334 23.499 -29.001s8 -22 8 -34v-274h-126v113c-17.333 -0.666992 -33.666 1 -48.999 5s-29.333 11 -42 21s-22.667 23.667 -30 41s-11 38.333 -11 63zM625.994 -513.004
c0 -25.333 6.33203 -45.167 18.999 -59.5s34.334 -22.833 65.001 -25.5v138c0 8 -2 13.667 -6 17s-9.33301 5 -16 5s-13.667 -1.33301 -21 -4s-14 -7 -20 -13s-11 -13.667 -15 -23s-6 -21 -6 -35z" />
    <glyph glyph-name="topataksarauthai" unicode="&#xe0f;&#xe38;" horiz-adv-x="959" 
d="M30 -217c0 18.667 3.32715 35.1592 9.99414 49.4922s16.334 26.5 29.001 36.5s28 17.667 46 23s37.333 8 58 8c22.667 0 44.834 -3.33301 66.501 -10s43.5 -16 65.5 -28c0 10.667 -1 21.334 -3 32.001s-5.33301 21.334 -10 32.001l58 18
c9.33301 -21.333 15 -42.333 17 -63s0.666992 -40.334 -4 -59.001c10.667 -8 20.834 -16.667 30.501 -26l30.5 -30l134 135l144 -128l-6 183v632c-2.66699 14.667 -9.66699 29 -21 43s-26.333 26.333 -45 37s-40.667 19.334 -66 26.001s-52.666 10 -81.999 10
c-25.333 0 -50.666 -1.83301 -75.999 -5.5s-49.333 -9.5 -72 -17.5s-44 -18 -64 -30c-20 -12.667 -37.333 -27 -52 -43l155 -98v-418c0 -13.333 -2.5 -26 -7.5 -38s-13 -22.333 -24 -31s-25 -15.667 -42 -21s-37.5 -8 -61.5 -8s-45.667 3.33301 -65 10
s-35.666 16 -48.999 28s-23.666 26.333 -30.999 43s-11 35.667 -11 57c0 28.667 4.33301 52.5 13 71.5s20 34.167 34 45.5s30 19.666 48 24.999s36.333 8 55 8l-4 44v182l-121 86c19.333 26.667 41.833 50.334 67.5 71.001s54.5 38.334 86.5 53.001s67.167 26 105.5 34
s80.5 12 126.5 12c56 0 105.167 -5 147.5 -15s78 -23.167 107 -39.5s51.333 -34.666 67 -54.999s25.5 -41.166 29.5 -62.499v-829c0 -16 -2.66699 -30 -8 -42s-12.666 -22.167 -21.999 -30.5s-20 -14.5 -32 -18.5s-24.333 -5.66699 -37 -5s-25 3.33398 -37 8.00098
s-23.333 12.334 -34 23.001l-118 114l-132 -135c-16 17.333 -31 32.833 -45 46.5l-40 37.5c-16.667 -26.667 -39.334 -48.5 -68.001 -65.5s-61 -25.5 -97 -25.5c-18.667 0 -36.834 2.33301 -54.501 7s-33 11.834 -46 21.501s-23.5 21.5 -31.5 35.5s-12 30.333 -12 49z
M91.9941 -218.008c0 -8 2.00098 -15.5 6.00098 -22.5s9.33301 -13.167 16 -18.5s15 -9.5 25 -12.5s21.667 -4.5 35 -4.5c28 0 52 6.66699 72 20c20.667 13.333 36 31.333 46 54c-21.333 14.667 -41.333 25.667 -60 33s-38 11 -58 11c-14.667 0 -27.334 -1.66699 -38.001 -5
s-19.167 -8 -25.5 -14s-11 -12.667 -14 -20s-4.5 -14.333 -4.5 -21zM133.995 135.992c0 -16 2.33203 -29.499 6.99902 -40.499s10.667 -20 18 -27s15 -12 23 -15s15.667 -4.5 23 -4.5c6.66699 0 12.834 0.833008 18.501 2.5s8.5 6.5 8.5 14.5v168
c-34.667 -2.66699 -59.667 -12.334 -75 -29.001s-23 -39.667 -23 -69zM575.994 -509.007c0 18 3 34.334 9 49.001s14.667 27.5 26 38.5s25 19.5 41 25.5s34.667 9 56 9s39.833 -2.5 55.5 -7.5s28.667 -11.833 39 -20.5s18.166 -18.334 23.499 -29.001s8 -22 8 -34v-274h-126
v113c-17.333 -0.666992 -33.666 1 -48.999 5s-29.333 11 -42 21s-22.667 23.667 -30 41s-11 38.333 -11 63zM625.994 -513.006c0 -25.333 6.33203 -45.167 18.999 -59.5s34.334 -22.833 65.001 -25.5v138c0 8 -2 13.667 -6 17s-9.33301 5 -16 5s-13.667 -1.33301 -21 -4
s-14 -7 -20 -13s-11 -13.667 -15 -23s-6 -21 -6 -35z" />
    <glyph glyph-name="dochadasarauuthai" unicode="&#xe0e;&#xe39;" horiz-adv-x="959" 
d="M82 132c0 28.667 4.32617 52.4941 12.9932 71.4941s20 34.167 34 45.5s30 19.666 48 24.999s36.333 8 55 8l-4 44v182l-121 86c19.333 26.667 41.833 50.334 67.5 71.001s54.5 38.334 86.5 53.001s67.167 26 105.5 34s80.5 12 126.5 12c56 0 105.167 -5 147.5 -15
s78 -23.167 107 -39.5s51.333 -34.666 67 -54.999s25.5 -41.166 29.5 -62.499v-828c0 -19.333 -4 -35.5 -12 -48.5s-19 -22.167 -33 -27.5s-29.667 -6 -47 -2c-18.667 4 -37.334 13.333 -56.001 28l-35.5 28.5c-10.333 8.33301 -21.166 16.333 -32.499 24
s-23.833 15.334 -37.5 23.001l-49.5 26.5c-2.66699 -19.333 -9.16699 -37.5 -19.5 -54.5s-23.833 -31.833 -40.5 -44.5s-36.667 -22.5 -60 -29.5s-49 -10.5 -77 -10.5c-34 0 -62.167 3.33301 -84.5 10s-40.166 15.5 -53.499 26.5s-23 23.833 -29 38.5s-9 30 -9 46
c0 17.333 3.83301 33.333 11.5 48s19 27.334 34 38.001s33.5 19 55.5 25s47.667 9 77 9c9.33301 0 20.166 -0.666992 32.499 -2s24.666 -3 36.999 -5s24.5 -4.66699 36.5 -8s22.333 -6.66602 31 -9.99902c-1.33301 11.333 -3.66602 23.666 -6.99902 36.999
c-3.33301 14.667 -7.66602 26 -12.999 34l59 20c6.66699 -16 12 -34 16 -54s6.66699 -39.333 8 -58c30.667 -11.333 58.334 -23.5 83.001 -36.5s48.334 -26.833 71.001 -41.5l-4 166v628c-2.66699 14.667 -9.66699 29 -21 43s-26.333 26.333 -45 37
s-40.667 19.334 -66 26.001s-52.666 10 -81.999 10c-25.333 0 -50.666 -1.83301 -75.999 -5.5s-49.333 -9.5 -72 -17.5s-44 -18 -64 -30c-20 -12.667 -37.333 -27 -52 -43l155 -98v-418c0 -13.333 -2.5 -26 -7.5 -38s-13 -22.333 -24 -31s-25 -15.667 -42 -21
s-37.5 -8 -61.5 -8s-45.667 3.33301 -65 10s-35.666 16 -48.999 28s-23.666 26.333 -30.999 43s-11 35.667 -11 57zM133.993 135.994c0 -16 2.33203 -29.499 6.99902 -40.499s10.667 -20 18 -27s15 -12 23 -15s15.667 -4.5 23 -4.5c6.66699 0 12.834 0.833008 18.501 2.5
s8.5 6.5 8.5 14.5v168c-34.667 -2.66699 -59.667 -12.334 -75 -29.001s-23 -39.667 -23 -69zM234.992 -204.005c0 -6.66699 1.50195 -13.667 4.50195 -21s8.5 -14 16.5 -20s19 -11 33 -15s31.667 -6 53 -6c20 0 38.333 2.66699 55 8s31 12.5 43 21.5s21.833 19.667 29.5 32
s12.167 25.833 13.5 40.5c-21.333 8 -43.833 14.5 -67.5 19.5s-46.167 7.5 -67.5 7.5c-22.667 0 -41.334 -2.33301 -56.001 -7s-26.334 -10.5 -35.001 -17.5s-14.5 -14.5 -17.5 -22.5s-4.5 -14.667 -4.5 -20zM331.994 -500.005c0 18 3.16602 34 9.49902 48s15.5 26 27.5 36
s26.5 17.5 43.5 22.5s36.167 7.5 57.5 7.5s39.333 -2.16699 54 -6.5s26.667 -10.333 36 -18s16.333 -16.834 21 -27.501s7 -22 7 -34v-190c1.33301 -11.333 7.33301 -20.333 18 -27s24 -10 40 -10c17.333 0 31 3.5 41 10.5s16 15.833 18 26.5v270h129v-266
c-1.33301 -18.667 -7.66602 -34.334 -18.999 -47.001s-25.333 -22.834 -42 -30.501s-36 -13 -58 -16s-44.333 -4.5 -67 -4.5c-24 0 -46.667 1.5 -68 4.5s-40.333 8.33301 -57 16s-30.334 17.834 -41.001 30.501s-16.667 28.334 -18 47.001v30
c-17.333 -0.666992 -33.666 1 -48.999 5s-29.333 10.833 -42 20.5s-22.667 22.834 -30 39.501s-11 37.667 -11 63zM381.993 -506.005c0 -25.333 6.66699 -44.332 20 -56.999s34.666 -20.334 63.999 -23.001v132c0 6 -2.33301 10.333 -7 13s-9.66699 4 -15 4
c-6 0 -12.5 -1 -19.5 -3s-13.667 -5.66699 -20 -11s-11.666 -12.5 -15.999 -21.5s-6.5 -20.167 -6.5 -33.5z" />
    <glyph glyph-name="topataksarauuthai" unicode="&#xe0f;&#xe39;" horiz-adv-x="959" 
d="M30 -217c0 18.667 3.32715 35.1592 9.99414 49.4922s16.334 26.5 29.001 36.5s28 17.667 46 23s37.333 8 58 8c22.667 0 44.834 -3.33301 66.501 -10s43.5 -16 65.5 -28c0 10.667 -1 21.334 -3 32.001s-5.33301 21.334 -10 32.001l58 18
c9.33301 -21.333 15 -42.333 17 -63s0.666992 -40.334 -4 -59.001c10.667 -8 20.834 -16.667 30.501 -26l30.5 -30l134 135l144 -128l-6 183v632c-2.66699 14.667 -9.66699 29 -21 43s-26.333 26.333 -45 37s-40.667 19.334 -66 26.001s-52.666 10 -81.999 10
c-25.333 0 -50.666 -1.83301 -75.999 -5.5s-49.333 -9.5 -72 -17.5s-44 -18 -64 -30c-20 -12.667 -37.333 -27 -52 -43l155 -98v-418c0 -13.333 -2.5 -26 -7.5 -38s-13 -22.333 -24 -31s-25 -15.667 -42 -21s-37.5 -8 -61.5 -8s-45.667 3.33301 -65 10
s-35.666 16 -48.999 28s-23.666 26.333 -30.999 43s-11 35.667 -11 57c0 28.667 4.33301 52.5 13 71.5s20 34.167 34 45.5s30 19.666 48 24.999s36.333 8 55 8l-4 44v182l-121 86c19.333 26.667 41.833 50.334 67.5 71.001s54.5 38.334 86.5 53.001s67.167 26 105.5 34
s80.5 12 126.5 12c56 0 105.167 -5 147.5 -15s78 -23.167 107 -39.5s51.333 -34.666 67 -54.999s25.5 -41.166 29.5 -62.499v-829c0 -16 -2.66699 -30 -8 -42s-12.666 -22.167 -21.999 -30.5s-20 -14.5 -32 -18.5s-24.333 -5.66699 -37 -5s-25 3.33398 -37 8.00098
s-23.333 12.334 -34 23.001l-118 114l-132 -135c-16 17.333 -31 32.833 -45 46.5l-40 37.5c-16.667 -26.667 -39.334 -48.5 -68.001 -65.5s-61 -25.5 -97 -25.5c-18.667 0 -36.834 2.33301 -54.501 7s-33 11.834 -46 21.501s-23.5 21.5 -31.5 35.5s-12 30.333 -12 49z
M91.9941 -218.008c0 -8 2.00098 -15.5 6.00098 -22.5s9.33301 -13.167 16 -18.5s15 -9.5 25 -12.5s21.667 -4.5 35 -4.5c28 0 52 6.66699 72 20c20.667 13.333 36 31.333 46 54c-21.333 14.667 -41.333 25.667 -60 33s-38 11 -58 11c-14.667 0 -27.334 -1.66699 -38.001 -5
s-19.167 -8 -25.5 -14s-11 -12.667 -14 -20s-4.5 -14.333 -4.5 -21zM133.995 135.992c0 -16 2.33203 -29.499 6.99902 -40.499s10.667 -20 18 -27s15 -12 23 -15s15.667 -4.5 23 -4.5c6.66699 0 12.834 0.833008 18.501 2.5s8.5 6.5 8.5 14.5v168
c-34.667 -2.66699 -59.667 -12.334 -75 -29.001s-23 -39.667 -23 -69zM331.994 -500.007c0 18 3.16602 34 9.49902 48s15.5 26 27.5 36s26.5 17.5 43.5 22.5s36.167 7.5 57.5 7.5s39.333 -2.16699 54 -6.5s26.667 -10.333 36 -18s16.333 -16.834 21 -27.501s7 -22 7 -34
v-190c1.33301 -11.333 7.33301 -20.333 18 -27s24 -10 40 -10c17.333 0 31 3.5 41 10.5s16 15.833 18 26.5v270h129v-266c-1.33301 -18.667 -7.66602 -34.334 -18.999 -47.001s-25.333 -22.834 -42 -30.501s-36 -13 -58 -16s-44.333 -4.5 -67 -4.5
c-24 0 -46.667 1.5 -68 4.5s-40.333 8.33301 -57 16s-30.334 17.834 -41.001 30.501s-16.667 28.334 -18 47.001v30c-17.333 -0.666992 -33.666 1 -48.999 5s-29.333 10.833 -42 20.5s-22.667 22.834 -30 39.501s-11 37.667 -11 63zM381.993 -506.007
c0 -25.333 6.66699 -44.332 20 -56.999s34.666 -20.334 63.999 -23.001v132c0 6 -2.33301 10.333 -7 13s-9.66699 4 -15 4c-6 0 -12.5 -1 -19.5 -3s-13.667 -5.66699 -20 -11s-11.666 -12.5 -15.999 -21.5s-6.5 -20.167 -6.5 -33.5z" />
    <glyph glyph-name=".notdef" horiz-adv-x="848" 
d="M66 2v282.003c0 32 6.16699 60.167 18.5 84.5s28.666 44.666 48.999 60.999s43.5 28.666 69.5 36.999s52.333 12.5 79 12.5s53 -3.66699 79 -11s48.667 -18.5 68 -33.5s35 -34.167 47 -57.5s18 -51.333 18 -84v-237h216v413h58v-467h-387v54h59v243
c0 20 -4 37.833 -12 53.5s-19 28.5 -33 38.5s-30.333 17.667 -49 23s-39.334 8 -62.001 8c-20 0 -39.667 -3 -59 -9s-36.333 -14.333 -51 -25s-26.5 -24 -35.5 -40s-13.5 -34.333 -13.5 -55v-219l125 119c-4 0.666992 -8.66699 2.66699 -14 6
s-10.666 7.66602 -15.999 12.999s-9.66602 12 -12.999 20s-5 17.333 -5 28s1.83301 20.667 5.5 30s9 17.333 16 24s15.167 12 24.5 16s20 6 32 6s22.667 -2 32 -6s17.333 -9.33301 24 -16s11.667 -14.667 15 -24s5 -19.333 5 -30c0 -8 -1.16699 -15.667 -3.5 -23
s-5 -13.833 -8 -19.5s-6.5 -10.667 -10.5 -15l-10 -10.5l-193 -190h-65zM84 580.003c8 30.667 21.002 59.8301 39.002 87.4971s40.667 52 68 73s59 37.667 95 50s76 18.5 120 18.5c42.667 0 81 -4.83301 115 -14.5s63.667 -21.5 89 -35.5s46.666 -29 63.999 -45
c17.333 -14.667 30 -28.667 38 -42c0 -1.33301 0 0.333984 0 5.00098v19c0 8 -0.166992 17.167 -0.5 27.5s-0.5 20.666 -0.5 30.999s-0.166992 20.333 -0.5 30s-0.5 17.834 -0.5 24.501h58v-291c-32.667 10.667 -67.834 20.334 -105.501 29.001s-77.5 16.334 -119.5 23.001
s-85.333 12 -130 16s-90.334 6 -137.001 6c-33.333 0 -65.666 -1 -96.999 -3s-63 -5 -95 -9zM172.002 640.999c24.667 2.66699 49.1719 4.67188 73.5049 6.00488s49.166 2 74.499 2h46c15.333 0 30.666 -0.666992 45.999 -2l49 -4.5c18 -1.66699 36.833 -4.16699 56.5 -7.5
l59 -10.5c19.667 -3.66699 38.334 -7.83398 56.001 -12.501s33.5 -9.66699 47.5 -15c13.333 -4.66699 24 -10.334 32 -17.001c-13.333 26.667 -31 50.667 -53 72s-46.333 39.166 -73 53.499s-55.334 25.166 -86.001 32.499c-29.333 8 -59.333 12 -90 12
c-22.667 0 -45.334 -2.33301 -68.001 -7s-44.334 -11.334 -65.001 -20.001s-39.834 -20 -57.501 -34s-33.5 -30 -47.5 -48zM246.007 260.004c0 -9.33301 3.33301 -16.667 10 -22s14.667 -8 24 -8c8 0 15.167 2.66699 21.5 8s9.5 12.666 9.5 21.999
c0 10.667 -3.16699 18.834 -9.5 24.501s-13.5 8.5 -21.5 8.5c-9.33301 0 -17.333 -3 -24 -9s-10 -14 -10 -24zM823.007 794.003c0 7.33301 1.33496 14.1689 4.00195 20.502s6.5 11.833 11.5 16.5s10.5 8.33398 16.5 11.001s13 4 21 4c7.33301 0 14.166 -1.33301 20.499 -4
s11.833 -6.33398 16.5 -11.001s8.33398 -10.334 11.001 -17.001s4 -13.334 4 -20.001c0 -7.33301 -1.33301 -14.166 -4 -20.499s-6.33398 -12 -11.001 -17s-10.334 -8.83301 -17.001 -11.5s-13.334 -4 -20.001 -4c-7.33301 0 -14.166 1.33301 -20.499 4s-12 6.5 -17 11.5
s-8.83301 10.667 -11.5 17s-4 13.166 -4 20.499zM830.009 794.006c0 -6.66699 1 -12.834 3 -18.501s5.16699 -10.667 9.5 -15s9.33301 -7.5 15 -9.5s11.834 -3 18.501 -3s12.667 1 18 3s10 5.16699 14 9.5s7.33301 9.33301 10 15s4 11.834 4 18.501s-1.33301 12.667 -4 18
s-6 10 -10 14s-8.66699 7.33301 -14 10s-11.333 4 -18 4s-12.834 -1.33301 -18.501 -4s-10.667 -6 -15 -10s-7.5 -8.66699 -9.5 -14s-3 -11.333 -3 -18zM854.009 760.006v70.001h22c16 0 24.333 -7.33301 25 -22c0 -6.66699 -1.83301 -11.334 -5.5 -14.001
s-7.16699 -4 -10.5 -4l16 -30h-11l-16 28h-10v-28h-10zM864.009 796.007l12 -0.000976562c9.33301 0 14.333 4.33301 15 13c0 4.66699 -1.5 7.83398 -4.5 9.50098s-6.5 2.5 -10.5 2.5h-12v-25z" />
    <glyph glyph-name="uni000D" unicode="&#xd;" horiz-adv-x="579" 
 />
    <glyph glyph-name="space" unicode=" " horiz-adv-x="400" 
 />
    <glyph glyph-name="exclam" unicode="!" horiz-adv-x="449" 
d="M141 75c0 10.667 1.83398 20.833 5.50098 30.5s9.16699 18.167 16.5 25.5s16.333 13 27 17s22.667 6 36 6s25.166 -2.16699 35.499 -6.5s19 -10.333 26 -18s12.167 -16.167 15.5 -25.5s5 -19 5 -29c0 -12 -2 -22.833 -6 -32.5s-9.83301 -18.167 -17.5 -25.5
s-16.667 -13 -27 -17s-21.5 -6 -33.5 -6c-10.667 0 -21 2 -31 6s-19 9.66699 -27 17s-14.167 16 -18.5 26s-6.5 20.667 -6.5 32zM146.001 979.999h158l-34 -734h-90z" />
    <glyph glyph-name="quotedbl" unicode="&#x22;" horiz-adv-x="577" 
d="M86 980h156l-25 -317h-107zM336 980h156l-25 -317h-107z" />
    <glyph glyph-name="numbersign" unicode="#" horiz-adv-x="739" 
d="M44 264l0.000976562 107.003h134c4 28.667 8.16699 56.667 12.5 84s8.5 55.666 12.5 84.999h-121v106h136l38 265h106l-38 -265h149l38 265h107l-40 -265h122v-106h-135c-4 -28.667 -8.16699 -56.834 -12.5 -84.501s-8.5 -55.834 -12.5 -84.501h122v-107h-136l-37 -264
h-107l38 264h-149c-2.66699 -20.667 -5.83398 -42.167 -9.50098 -64.5s-7 -44.833 -10 -67.5l-9 -68l-8.5 -64h-107l37 264h-120zM286.001 371.003h148l24 169h-148l-12 -84.5z" />
    <glyph glyph-name="dollar" unicode="$" horiz-adv-x="838" 
d="M90 671c0 45.333 7.32617 83.835 21.9932 115.502s34.334 57.5 59.001 77.5s53 34.667 85 44s65.333 14.666 100 15.999v96h86v-100c32 -4 62 -10.833 90 -20.5s51.333 -22.167 70 -37.5l30 52h68v-236h-80c0 24 -5 45.667 -15 65s-23.333 36.166 -40 50.499
s-35.667 26.333 -57 36s-43.333 16.5 -66 20.5v-312l73 -31.5c24.667 -11 48.334 -22.5 71.001 -34.5s43.834 -25 63.501 -39s36.834 -29.333 51.501 -46s26.167 -35 34.5 -55s12.5 -41.333 12.5 -64c0 -44 -6 -83.333 -18 -118s-30.667 -64 -56 -88s-57.333 -42 -96 -54
s-84 -18.667 -136 -20v-92h-86v95c-26.667 4 -53.667 10.5 -81 19.5s-55 22.167 -83 39.5c-4 -8.66699 -8.33301 -17.5 -13 -26.5l-13 -25.5h-70v242h80c0 -20 4.33301 -39.333 13 -58s21 -36 37 -52s35 -30 57 -42s46.333 -20.667 73 -26v352
c-33.333 14 -65.666 29 -96.999 45s-59.666 34 -84.999 54s-45.666 42.833 -60.999 68.5s-23 55.5 -23 89.5zM211.993 734.002c0 -18 3.66602 -34.5 10.999 -49.5s17.5 -28.833 30.5 -41.5s28.333 -24.5 46 -35.5s36.5 -21.5 56.5 -31.5v278
c-21.333 -2.66699 -40.666 -7.83398 -57.999 -15.501s-32.5 -17 -45.5 -28s-23 -23.167 -30 -36.5s-10.5 -26.666 -10.5 -39.999zM441.992 57.002c18.667 2 37.668 6.49902 57.001 13.499s36.666 16.333 51.999 28s27.666 25.667 36.999 42s14 34.833 14 55.5
c0 22 -4.16699 41.833 -12.5 59.5s-19.666 33.834 -33.999 48.501s-31.333 28 -51 40s-40.5 23.333 -62.5 34v-321z" />
    <glyph glyph-name="percent" unicode="%" horiz-adv-x="1378" 
d="M124 678c0 34.667 6.00293 66.5 18.0029 95.5s28.333 54 49 75s45.667 37.5 75 49.5s60.666 18 93.999 18c40 0 74.667 -6 104 -18s53.666 -28.5 72.999 -49.5s34 -46 44 -75s15 -60.833 15 -95.5s-6 -66.334 -18 -95.001s-28.333 -53.667 -49 -75s-45.667 -38 -75 -50
c-28 -11.333 -59.333 -17 -94 -17c-40 0 -74.667 5.83301 -104 17.5s-53.833 28.167 -73.5 49.5s-34.334 46.333 -44.001 75s-14.5 60.334 -14.5 95.001zM250.003 678c0 -36.667 3 -66.835 9 -90.502s14 -42.5 24 -56.5s21.667 -23.833 35 -29.5s27.333 -8.5 42 -8.5
s28.667 3.83301 42 11.5s25 19.334 35 35.001s17.833 35 23.5 58s8.5 49.833 8.5 80.5c0 36.667 -2.83301 67 -8.5 91s-13.5 43 -23.5 57s-21.667 23.833 -35 29.5s-27.333 8.5 -42 8.5s-28.667 -4 -42 -12s-25 -19.667 -35 -35s-18 -34.666 -24 -57.999s-9 -50.333 -9 -81z
M350.003 -0.000976562l584 910h100l-585 -910h-99zM782.003 225.999c0 34.667 5.99902 66.334 17.999 95.001s28.5 53.667 49.5 75s46 37.833 75 49.5s60.167 17.5 93.5 17.5c40 0 74.833 -5.83301 104.5 -17.5s54.334 -28.167 74.001 -49.5s34.167 -46.333 43.5 -75
s14 -60.334 14 -95.001s-5.83301 -66.5 -17.5 -95.5s-28 -54 -49 -75s-45.833 -37.5 -74.5 -49.5s-60.334 -18 -95.001 -18c-40 0 -74.667 6 -104 18s-53.666 28.5 -72.999 49.5s-34 46 -44 75s-15 60.833 -15 95.5zM909.002 225.999c0 -36.667 3.00195 -67 9.00195 -91
s14.167 -43 24.5 -57s22.166 -24 35.499 -30c12 -5.33301 25.333 -8 40 -8s28.667 4 42 12s25 19.667 35 35s18 34.666 24 57.999s9 50.333 9 81c0 36.667 -3 66.834 -9 90.501s-14 42.5 -24 56.5s-21.667 24 -35 30s-27.333 9 -42 9s-28.334 -4 -41.001 -12
s-24.167 -19.833 -34.5 -35.5s-18.5 -35 -24.5 -58s-9 -49.833 -9 -80.5z" />
    <glyph glyph-name="ampersand" unicode="&#x26;" horiz-adv-x="1030" 
d="M134 250c0 61.333 19.001 117.333 57.001 168s98 96.334 180 137.001c-9.33301 16 -18.333 33.5 -27 52.5s-16.334 38 -23.001 57s-12 37.5 -16 55.5c-4 18.667 -6 35.334 -6 50.001c0 31.333 5.33301 59.833 16 85.5s25.5 47.834 44.5 66.501s41.167 33.167 66.5 43.5
s53 15.5 83 15.5c28 0 54.167 -4.5 78.5 -13.5s45.5 -22 63.5 -39s32.167 -38 42.5 -63s15.5 -53.5 15.5 -85.5c0 -18.667 -2.83301 -36.334 -8.5 -53.001s-13.167 -32 -22.5 -46s-19.666 -27.167 -30.999 -39.5s-22.666 -23.333 -33.999 -33s-22.333 -18.5 -33 -26.5
l-26 -19l170 -317c10 10.667 19.167 23.334 27.5 38.001s15.833 30.5 22.5 47.5s12.667 34.167 18 51.5s9.66602 33.666 12.999 48.999s6 29 8 41s2.66699 21 2 27l131 31c0 -18.667 -2.66699 -38.5 -8 -59.5s-12.666 -42.5 -21.999 -64.5s-20 -44.167 -32 -66.5
s-24.667 -43.666 -38 -63.999s-27.333 -39.166 -42 -56.499s-28.667 -32.333 -42 -45l52 -99h122v-76h-270l-32 52c-17.333 -12 -35.666 -21.667 -54.999 -29s-39.333 -13.333 -60 -18s-42.334 -7.66699 -65.001 -9c-21.333 -2 -44 -3 -68 -3
c-28.667 0 -54.834 3.83301 -78.501 11.5s-44.834 18.167 -63.501 31.5s-35 28.666 -49 45.999s-25.5 35.666 -34.5 54.999s-15.667 38.666 -20 57.999s-6.5 37.666 -6.5 54.999zM285.001 306c0 -25.333 5.00098 -50.5 15.001 -75.5s23.833 -47.5 41.5 -67.5
s38.667 -36.167 63 -48.5s50.833 -18.5 79.5 -18.5c6.66699 0 14.667 0.166992 24 0.5s19.166 1 29.499 2s21 2.83301 32 5.5s21.167 6 30.5 10l-193 364c-15.333 -10.667 -30.333 -22 -45 -34s-27.667 -25 -39 -39s-20.333 -29 -27 -45
c-7.33301 -17.333 -11 -35.333 -11 -54zM442.002 819c0 -12 2.66797 -25.998 8.00098 -41.998s11.666 -32.333 18.999 -49s15 -32.834 23 -48.501s14.667 -29.5 20 -41.5c10.667 6.66699 22.334 15.167 35.001 25.5s24.667 21.833 36 34.5s20.666 26.167 27.999 40.5
s11 29.166 11 44.499c0 17.333 -2 32.833 -6 46.5s-10 25.5 -18 35.5s-18 17.667 -30 23s-25 8 -39 8c-12 0 -23.167 -2 -33.5 -6s-19.5 -9.5 -27.5 -16.5s-14.333 -15.167 -19 -24.5s-7 -19.333 -7 -30z" />
    <glyph glyph-name="quotesingle" unicode="'" horiz-adv-x="326" 
d="M86 980h156l-25 -322h-107z" />
    <glyph glyph-name="parenleft" unicode="(" horiz-adv-x="539" 
d="M124 421c0 60 3.66504 119.503 10.998 178.503s20.333 115.333 39 169s43.667 104 75 151s71 89.167 119 126.5l87 -49c-37.333 -40 -67.5 -83 -90.5 -129s-40.833 -93.833 -53.5 -143.5s-21 -100.167 -25 -151.5s-6 -102 -6 -152c0 -54.667 2.33301 -107.834 7 -159.501
s13.167 -101.834 25.5 -150.501s29.333 -95.334 51 -140.001s49.834 -87.667 84.501 -129l-94 -49c-46.667 44 -84.667 90.167 -114 138.5s-52.666 98.833 -69.999 151.5s-29.333 107 -36 163s-10 114.333 -10 175z" />
    <glyph glyph-name="parenright" unicode=")" horiz-adv-x="539" 
d="M84 997l87.999 49.001c47.333 -37.333 86.5 -79.5 117.5 -126.5s55.833 -97.333 74.5 -151s32 -109.834 40 -168.501s12 -118.334 12 -179.001c0 -60 -4 -118.167 -12 -174.5s-21.333 -110.833 -40 -163.5s-43.334 -103 -74.001 -151s-69.334 -94.333 -116.001 -139
l-83 49c34.667 40.667 62.834 83.5 84.501 128.5s38.834 91.833 51.501 140.5s21.334 98.834 26.001 150.501s7 104.834 7 159.501c0 50.667 -2.16699 101.5 -6.5 152.5s-12.833 101.333 -25.5 151s-30.5 97.667 -53.5 144s-53.167 89.166 -90.5 128.499z" />
    <glyph glyph-name="asterisk" unicode="*" horiz-adv-x="618" 
d="M80 776l37 117l144 -61l-13 156h122l-15 -156l34.5 14.5l37.5 15.5l37 16l36 16l38 -118l-154 -36l105 -119l-99 -73l-81 136l-81 -136l-26 19l-24 18l-24 18c-8 6 -16.667 12 -26 18l106 119c-12 2.66699 -24.333 5.66699 -37 9s-25.667 6.5 -39 9.5l-40 9z" />
    <glyph glyph-name="plus" unicode="+" horiz-adv-x="862" 
d="M102 277v127h266v265h126v-265h266v-127h-266v-265h-126v265h-266z" />
    <glyph glyph-name="comma" unicode="," horiz-adv-x="418" 
d="M115 -102c16 6.66699 29.4971 14.002 40.4971 22.002s19.833 16.667 26.5 26s11.834 18.666 15.501 27.999s6.16699 19 7.5 29c-17.333 -0.666992 -31.666 1.83301 -42.999 7.5s-20.166 13 -26.499 22s-10.833 18.833 -13.5 29.5s-4 21.334 -4 32.001
c0 14.667 2.33301 28 7 40s11.334 22.167 20.001 30.5s18.667 14.666 30 18.999s23.333 6.5 36 6.5c12 0 23.833 -2.33301 35.5 -7s22 -11.667 31 -21s16.167 -21 21.5 -35s8 -30 8 -48c0 -22.667 -1.83301 -46.167 -5.5 -70.5s-10.834 -47.833 -21.501 -70.5
s-26 -43.334 -46 -62.001s-46 -33.667 -78 -45z" />
    <glyph glyph-name="hyphen" unicode="-" horiz-adv-x="803" 
d="M102 277v127h598v-127h-598z" />
    <glyph glyph-name="period" unicode="." horiz-adv-x="418" 
d="M118 94c0 13.333 2 26 6 38s10 22.333 18 31s17.667 15.667 29 21s24.333 8 39 8s27.667 -2.66699 39 -8s20.666 -12.666 27.999 -21.999s13 -19.833 17 -31.5s6 -23.834 6 -36.501c0 -14.667 -2.33301 -28.167 -7 -40.5s-11 -23 -19 -32s-17.333 -16.167 -28 -21.5
c-10.667 -4.66699 -22.667 -7 -36 -7s-25.666 2.5 -36.999 7.5s-21 11.833 -29 20.5s-14.333 19 -19 31c-4.66699 13.333 -7 27.333 -7 42z" />
    <glyph glyph-name="slash" unicode="/" horiz-adv-x="530" 
d="M10 -37l352 1051h158l-350 -1051h-160z" />
    <glyph glyph-name="zero" unicode="0" horiz-adv-x="807" 
d="M86 456c0 41.333 2.83301 81.5 8.5 120.5s14 75.667 25 110s25.167 66 42.5 95s37.666 53.833 60.999 74.5s50 36.834 80 48.501s63.667 17.5 101 17.5c36.667 0 70 -5.83301 100 -17.5s56.833 -27.834 80.5 -48.501s44 -45.5 61 -74.5s31 -60.667 42 -95
s19.333 -71 25 -110s8.5 -79.167 8.5 -120.5s-2.83301 -81.666 -8.5 -120.999s-14 -76.333 -25 -111s-25 -66.334 -42 -95.001s-37.333 -53.334 -61 -74.001s-50.5 -36.834 -80.5 -48.501s-63.333 -17.5 -100 -17.5c-37.333 0 -71 5.83301 -101 17.5
s-56.667 27.834 -80 48.501s-43.666 45.334 -60.999 74.001s-31.5 60.334 -42.5 95.001s-19.333 71.667 -25 111s-8.5 79.666 -8.5 120.999zM262 320c0 -52 3.66699 -95 11 -129s17.333 -61.167 30 -81.5s27.667 -34.666 45 -42.999s36 -12.5 56 -12.5
s38.667 4.16699 56 12.5s32.333 22.666 45 42.999s22.667 47.5 30 81.5s11 77 11 129v270c0 52 -3.66699 95.167 -11 129.5s-17.333 61.666 -30 81.999s-27.667 34.666 -45 42.999s-36 12.5 -56 12.5s-38.667 -4.16699 -56 -12.5s-32.333 -22.666 -45 -42.999
s-22.667 -47.666 -30 -81.999s-11 -77.5 -11 -129.5v-270z" />
    <glyph glyph-name="one" unicode="1" horiz-adv-x="807" 
d="M160 706l41.002 28l47 34l48.5 38l47 38.5l42.5 36c13.333 11.667 24.666 22.167 33.999 31.5h72v-836h156v-76h-466v76h156v666c-20 -17.333 -40.333 -34 -61 -50s-42.334 -31 -65.001 -45z" />
    <glyph glyph-name="two" unicode="2" horiz-adv-x="807" 
d="M80 10c0 5.33301 2.6709 9.66406 8.00391 12.9971l97 109l97 108.5l86 96.5c26.667 30.667 50.667 60.334 72 89.001s39.666 57.167 54.999 85.5s27 56.5 35 84.5s12 57 12 87c0 21.333 -3.16699 42.333 -9.5 63s-16 39.334 -29 56.001s-29.5 30.167 -49.5 40.5
s-43 15.5 -69 15.5c-17.333 0 -32.833 -2.66699 -46.5 -8s-25.834 -12.666 -36.501 -21.999s-20 -20 -28 -32s-14.667 -24.667 -20 -38s-9.33301 -27 -12 -41s-4 -27 -4 -39h-149c0 41.333 7.5 77.333 22.5 108s36.333 56 64 76s61 35 100 45s81.833 15 128.5 15
c41.333 0 80.666 -5 117.999 -15s70 -25.667 98 -47s50.167 -48.333 66.5 -81s24.5 -72.334 24.5 -119.001c0 -23.333 -4 -46.833 -12 -70.5s-18.833 -47.167 -32.5 -70.5s-29.5 -46.333 -47.5 -69s-37 -44.667 -57 -66s-40.333 -41.666 -61 -60.999l-60 -54l-145 -133h414
v-136h-618c-4.66699 0 -7.83398 1 -9.50098 3s-2.5 4.33301 -2.5 7z" />
    <glyph glyph-name="three" unicode="3" horiz-adv-x="807" 
d="M63 273l141.002 -0.000976562c0 -13.333 1 -27.833 3 -43.5s5.66699 -31.667 11 -48s12.5 -32.166 21.5 -47.499s19.667 -28.833 32 -40.5s26.833 -21.167 43.5 -28.5s35.667 -11 57 -11c20.667 0 39.167 3.33301 55.5 10s30.5 15.667 42.5 27s22.333 24.333 31 39
s15.667 30 21 46s9 32 11 48s3 31.333 3 46c0 28 -1.66699 53.5 -5 76.5s-11.333 43 -24 60s-30.667 30.167 -54 39.5s-54.333 14 -93 14h-29v68c10 -0.666992 20.667 -1.5 32 -2.5s24.333 -1.5 39 -1.5c26.667 0 48.667 4.66699 66 14s30.833 22 40.5 38
s16.334 34.667 20.001 56s5.5 43.666 5.5 66.999c0 21.333 -3 41.5 -9 60.5s-15 35.667 -27 50s-27 25.833 -45 34.5s-39 13 -63 13c-18.667 0 -35 -3.16699 -49 -9.5s-26.333 -14.833 -37 -25.5s-19.834 -22.667 -27.501 -36s-13.834 -27.333 -18.501 -42
s-8.16699 -29.167 -10.5 -43.5s-3.5 -27.5 -3.5 -39.5h-132c0 46.667 7 86.5 21 119.5s34.167 59.833 60.5 80.5s58 36 95 46s78.167 15 123.5 15c37.333 0 72.666 -4.5 105.999 -13.5s62.333 -22.667 87 -41s44.167 -41.833 58.5 -70.5s21.5 -62.334 21.5 -101.001
c0 -49.333 -12.833 -91.5 -38.5 -126.5s-63.834 -59.5 -114.501 -73.5c29.333 -5.33301 55 -15.166 77 -29.499s40.167 -31.666 54.5 -51.999s25 -43.166 32 -68.499s10.5 -51.333 10.5 -78c0 -46.667 -8.33301 -87.667 -25 -123s-39.834 -64.333 -69.501 -87
s-64.667 -39.834 -105 -51.501s-84.166 -17.5 -131.499 -17.5c-105.333 0 -183.666 23.833 -234.999 71.5s-77 118.5 -77 212.5z" />
    <glyph glyph-name="four" unicode="4" horiz-adv-x="807" 
d="M65 228v17l407 667h146v-588h103v-96h-103v-228h-152v228h-401zM198 324h268v440l-15 -26z" />
    <glyph glyph-name="five" unicode="5" horiz-adv-x="807" 
d="M56 261l158 0.000976562c-2.66699 -13.333 -3.33398 -27.833 -2.00098 -43.5s4.33301 -31.167 9 -46.5s11 -30 19 -44s17.667 -26.333 29 -37s24.333 -19.334 39 -26.001s31.334 -10 50.001 -10c29.333 0 55 6.83301 77 20.5s39.833 31.167 53.5 52.5
s23.834 45.166 30.501 71.499s10 51.5 10 75.5c0 30.667 -3.83301 59.667 -11.5 87s-19.834 51.333 -36.501 72s-37.667 37 -63 49s-56 18 -92 18c-33.333 0 -63.833 -5 -91.5 -15s-55.167 -24 -82.5 -42l-18 16l124 453h437l-39 -129h-326c-12 0 -20.333 -2.33301 -25 -7
s-8.33398 -10.334 -11.001 -17.001l-60 -215c12.667 6 25.167 11.167 37.5 15.5s25.5 7.83301 39.5 10.5s29 4.66699 45 6s33.667 2 53 2c45.333 0 86 -6.33301 122 -19s66.5 -31.334 91.5 -56.001s44.167 -55 57.5 -91c12.667 -36 19 -76.667 19 -122
c0 -49.333 -8.5 -92.666 -25.5 -129.999s-40.5 -68.666 -70.5 -93.999s-65.667 -44.666 -107 -57.999c-40 -12.667 -84.667 -19 -134 -19c-42.667 0 -82.667 6 -120 18s-69.666 29.5 -96.999 52.5s-49 51.5 -65 85.5s-24 72.667 -24 116z" />
    <glyph glyph-name="six" unicode="6" horiz-adv-x="807" 
d="M80 426c0 32 1.83105 66.333 5.49805 103s10 73.334 19 110.001s21.5 72 37.5 106s36.833 64 62.5 90s56.334 47 92.001 63s78.167 24 127.5 24c38.667 0 73.334 -4.66699 104.001 -14s57 -22.666 79 -39.999s39 -38.666 51 -63.999s18.667 -54 20 -86h-138
c0 16 -2.33301 32.333 -7 49s-12 31.667 -22 45s-22.667 24.166 -38 32.499s-33.333 12.5 -54 12.5c-19.333 0 -36.833 -5 -52.5 -15s-29.667 -23.5 -42 -40.5s-23 -36.5 -32 -58.5s-16.5 -45 -22.5 -69s-10.5 -48.333 -13.5 -73s-5.16699 -48.334 -6.5 -71.001
c6 8.66699 14.667 18.5 26 29.5s25.333 21.167 42 30.5s36.167 17.166 58.5 23.499s47.5 9.5 75.5 9.5c41.333 0 79 -7.5 113 -22.5s63.167 -35.5 87.5 -61.5s43.166 -57 56.499 -93s20 -74.667 20 -116c0 -54.667 -7.66699 -103.334 -23 -146.001s-37 -78.334 -65 -107.001
s-61.5 -50.5 -100.5 -65.5s-82.5 -22.5 -130.5 -22.5c-45.333 0 -84.666 6.5 -117.999 19.5s-62.333 30.5 -87 52.5s-45 47.333 -61 76s-28.667 59.334 -38 92.001s-16 65.834 -20 99.501s-6 66.167 -6 97.5zM249.998 294c0 -38.667 3.66895 -73 11.002 -103
s17.833 -55 31.5 -75s30 -35.333 49 -46s40.167 -16 63.5 -16c22.667 0 43.667 5.5 63 16.5s36.166 27 50.499 48s25.5 46.5 33.5 76.5s12 64.333 12 103s-4 73 -12 103s-19 55.333 -33 76s-30.667 36.167 -50 46.5s-40.666 15.5 -63.999 15.5
c-22.667 0 -43.334 -5.5 -62.001 -16.5s-34.834 -27 -48.501 -48s-24.5 -46.667 -32.5 -77s-12 -64.833 -12 -103.5z" />
    <glyph glyph-name="seven" unicode="7" horiz-adv-x="807" 
d="M75 782v129h644l9 -16l-375 -895h-171v16l360 751l8 15h-475z" />
    <glyph glyph-name="eight" unicode="8" horiz-adv-x="807" 
d="M83 252c0 26.667 3.33105 52.499 9.99805 77.499s16.834 48 30.501 69s31.167 38.833 52.5 53.5s46.333 24.667 75 30c-22 5.33301 -42.333 13.833 -61 25.5s-34.667 25.667 -48 42s-23.833 35.166 -31.5 56.499s-11.5 44.666 -11.5 69.999c0 42 8 78.333 24 109
s37.833 56.167 65.5 76.5s60 35.5 97 45.5s76.5 15 118.5 15s81.333 -5 118 -15s68.834 -25.167 96.501 -45.5s49.5 -45.833 65.5 -76.5s24 -67 24 -109c0 -25.333 -3.83301 -48.666 -11.5 -69.999s-18.334 -40.166 -32.001 -56.499s-29.667 -30.333 -48 -42
s-38.5 -20.167 -60.5 -25.5c28.667 -5.33301 53.5 -15.333 74.5 -30s38.5 -32.5 52.5 -53.5s24.333 -44.167 31 -69.5c6.66699 -24.667 10 -50.334 10 -77.001c0 -36.667 -6.66699 -71 -20 -103s-33.5 -59.833 -60.5 -83.5s-60.5 -42.167 -100.5 -55.5
c-39.333 -14 -85.666 -21 -138.999 -21s-100 6.83301 -140 20.5s-73.5 32.334 -100.5 56.001s-47.167 51.334 -60.5 83.001s-20 66.167 -20 103.5zM252.998 253.999c0 -26.667 3.16113 -52.167 9.49414 -76.5s15.833 -45.666 28.5 -63.999s28.334 -32.833 47.001 -43.5
s40.667 -16 66 -16c24 0 45.333 5.33301 64 16s34.334 25.167 47.001 43.5s22.334 39.666 29.001 63.999s10 49.833 10 76.5c0 24 -3.16699 48 -9.5 72s-15.666 45.5 -27.999 64.5s-27.833 34.5 -46.5 46.5s-40.667 18 -66 18s-47.666 -6 -66.999 -18
s-35.166 -27.5 -47.499 -46.5s-21.5 -40.5 -27.5 -64.5s-9 -48 -9 -72zM258.992 687.999c0 -25.333 3.83301 -48.5029 11.5 -69.5029s18.167 -39 31.5 -54s28.666 -26.833 45.999 -35.5s36 -13 56 -13s38.667 4.33301 56 13s32.333 20.5 45 35.5s23 33 31 54
s12 44.167 12 69.5c0 18 -2.66699 36.833 -8 56.5s-13.666 37.834 -24.999 54.501s-26 30.5 -44 41.5s-40.333 16.5 -67 16.5s-49.167 -5.5 -67.5 -16.5s-33.333 -25.167 -45 -42.5s-20 -35.666 -25 -54.999s-7.5 -37.666 -7.5 -54.999z" />
    <glyph glyph-name="nine" unicode="9" horiz-adv-x="807" 
d="M79 580c0 54.667 7.66992 103.335 23.0029 146.002s37 78.5 65 107.5s61.5 51 100.5 66s82.5 22.5 130.5 22.5c45.333 0 84.666 -6.5 117.999 -19.5s62.333 -30.5 87 -52.5s45 -47.5 61 -76.5s28.667 -59.667 38 -92s16 -65.333 20 -99s6 -66.5 6 -98.5
s-1.83301 -66.333 -5.5 -103s-10 -73.334 -19 -110.001s-21.5 -72 -37.5 -106s-36.833 -64 -62.5 -90s-56.334 -46.833 -92.001 -62.5s-78.167 -23.5 -127.5 -23.5c-38.667 0 -73.334 4.5 -104.001 13.5s-57 22.333 -79 40s-39 39 -51 64s-18.667 53.833 -20 86.5h138
c0 -16 2.33301 -32.333 7 -49s12 -31.667 22 -45s22.667 -24.166 38 -32.499s33.333 -12.5 54 -12.5c19.333 0 36.833 5 52.5 15s29.667 23.333 42 40s23 36 32 58s16.5 45.167 22.5 69.5s10.5 48.833 13.5 73.5s5.16699 48 6.5 70c-6 -8.66699 -14.667 -18.334 -26 -29.001
s-25.333 -20.834 -42 -30.501s-36.167 -17.5 -58.5 -23.5s-47.5 -9 -75.5 -9c-41.333 0 -79 7.33301 -113 22s-63.333 35.167 -88 61.5s-43.5 57.333 -56.5 93s-19.5 74.167 -19.5 115.5zM244.003 612.001c0 -38.667 3.99805 -73.001 11.998 -103.001s19 -55.167 33 -75.5
s30.667 -35.666 50 -45.999s40.666 -15.5 63.999 -15.5c22.667 0 43.334 5.33301 62.001 16s34.834 26.667 48.501 48s24.5 47 32.5 77s12 64.667 12 104c0 38.667 -3.66699 72.834 -11 102.501s-17.833 54.667 -31.5 75s-30 35.666 -49 45.999s-40.167 15.5 -63.5 15.5
c-22.667 0 -43.667 -5.33301 -63 -16s-36.166 -26.5 -50.499 -47.5s-25.5 -46.667 -33.5 -77s-12 -64.833 -12 -103.5z" />
    <glyph glyph-name="colon" unicode=":" horiz-adv-x="438" 
d="M128 96c0 13.333 2 26 6 38s10 22.333 18 31s17.667 15.667 29 21s24.333 8 39 8s27.667 -2.66699 39 -8s20.666 -12.666 27.999 -21.999s13 -19.833 17 -31.5s6 -23.834 6 -36.501c0 -14.667 -2.33301 -28.167 -7 -40.5s-11 -23 -19 -32s-17.333 -16 -28 -21
s-22.667 -7.5 -36 -7.5s-25.666 2.5 -36.999 7.5s-21 11.833 -29 20.5s-14.333 19 -19 31c-4.66699 13.333 -7 27.333 -7 42zM128 598c0 13.333 2 26.167 6 38.5s10 23 18 32s17.667 16.333 29 22s24.333 8.5 39 8.5s27.667 -2.83301 39 -8.5s20.666 -13.167 27.999 -22.5
s13 -20 17 -32s6 -24 6 -36c0 -14.667 -2.33301 -28.167 -7 -40.5s-11 -23 -19 -32s-17.333 -16.167 -28 -21.5s-22.667 -8 -36 -8s-25.666 2.33301 -36.999 7s-21 11.667 -29 21s-14.333 20 -19 32s-7 25.333 -7 40z" />
    <glyph glyph-name="semicolon" unicode=";" horiz-adv-x="438" 
d="M125 -102l41.0029 -67.001c32 11.333 58 26.333 78 45s35.333 39.334 46 62.001s17.834 46.167 21.501 70.5s5.5 47.833 5.5 70.5c0 18 -2.66699 34 -8 48s-12.5 25.667 -21.5 35s-19.167 16.333 -30.5 21s-23.333 7 -36 7s-24.667 -2.16699 -36 -6.5
s-21.333 -10.666 -30 -18.999s-15.334 -18.5 -20.001 -30.5s-7 -25.333 -7 -40c0 -10.667 1.33301 -21.334 4 -32.001s7.16699 -20.5 13.5 -29.5s15.166 -16.333 26.499 -22s25.666 -8.16699 42.999 -7.5c-1.33301 -9.33301 -3.83301 -18.833 -7.5 -28.5
s-8.83398 -19.167 -15.501 -28.5s-15.5 -18 -26.5 -26s-24.5 -15.333 -40.5 -22zM128.003 597.999c0 13.333 2 26.167 6 38.5s10 23 18 32s17.667 16.333 29 22s24.333 8.5 39 8.5s27.667 -2.83301 39 -8.5s20.666 -13.167 27.999 -22.5s13 -20 17 -32s6 -24 6 -36
c0 -14.667 -2.33301 -28.167 -7 -40.5s-11 -23 -19 -32s-17.333 -16.167 -28 -21.5s-22.667 -8 -36 -8s-25.666 2.33301 -36.999 7s-21 11.667 -29 21s-14.333 20 -19 32s-7 25.333 -7 40z" />
    <glyph glyph-name="less" unicode="&#x3c;" horiz-adv-x="761" 
d="M71 285v124l305 135.5l305 135.5v-124l-475 -210l475 -220v-120l-154 70l-151.5 69l-151 70z" />
    <glyph glyph-name="equal" unicode="=" horiz-adv-x="860" 
d="M102 154v125h656v-125h-656zM102 402v126h656v-126h-656z" />
    <glyph glyph-name="greater" unicode="&#x3e;" horiz-adv-x="761" 
d="M80 6v120l475 220l-475 210v124l610 -271v-124l-305 -139.5z" />
    <glyph glyph-name="question" unicode="?" horiz-adv-x="710" 
d="M92 726c-2 32 0.999023 63.6602 8.99902 94.9932s22.5 59 43.5 83s49.167 43.333 84.5 58s79.333 22 132 22c40 0 76.167 -5.16699 108.5 -15.5s60.166 -25.333 83.499 -45s41.166 -43.5 53.499 -71.5s18.5 -59.333 18.5 -94c0 -23.333 -3.83301 -45.166 -11.5 -65.499
s-17.667 -40.166 -30 -59.499s-26.666 -38.666 -42.999 -57.999s-33.833 -39 -52.5 -59c-6.66699 -8 -13.667 -17 -21 -27s-14 -21 -20 -33s-11 -24.667 -15 -38s-6 -27.666 -6 -42.999v-103h-148l1 98c0 18.667 1.83301 36 5.5 52s9.16699 32 16.5 48s16.333 32 27 48
s23.334 32.667 38.001 50c14.667 18.667 28.334 35.334 41.001 50.001s24 28.834 34 42.501s18 27.834 24 42.501s9 31.334 9 50.001s-2.66699 36.5 -8 53.5s-13 31.833 -23 44.5s-21.667 22.667 -35 30s-28.666 11 -45.999 11c-18.667 0 -35.334 -4.33301 -50.001 -13
s-27 -20.334 -37 -35.001s-17.667 -32 -23 -52s-7.33301 -42 -6 -66h-154zM252.999 83.9932c0 13.333 2.49805 26.3379 7.49805 39.0049s11.833 23.667 20.5 33s19.334 16.666 32.001 21.999s27 8 43 8s30.333 -2.83301 43 -8.5s23.334 -13.334 32.001 -23.001
s15.334 -20.5 20.001 -32.5s7 -24.667 7 -38c0 -14.667 -2.5 -28.334 -7.5 -41.001s-12 -23.334 -21 -32.001s-19.833 -15.334 -32.5 -20.001s-26.334 -7 -41.001 -7c-32 0 -57.167 8.66699 -75.5 26s-27.5 42 -27.5 74z" />
    <glyph glyph-name="at" unicode="@" horiz-adv-x="1158" 
d="M85 468c0 51.333 5.67285 99.5029 17.0059 144.503s27.5 86.5 48.5 124.5s46.5 72.333 76.5 103s63.667 56.334 101 77.001s77.666 36.667 120.999 48s89 17 137 17c45.333 0 88.833 -4.33301 130.5 -13s80.334 -21.334 116.001 -38.001s67.834 -37.167 96.501 -61.5
s53 -52 73 -83s35.667 -65.167 47 -102.5s17 -77.333 17 -120c0 -26 -2.66699 -52.5 -8 -79.5s-13 -53.167 -23 -78.5s-22.333 -49 -37 -71s-31.834 -41.333 -51.501 -58s-41.667 -29.834 -66 -39.501s-50.833 -14.5 -79.5 -14.5c-23.333 0 -43 3.83301 -59 11.5
s-29 16.667 -39 27s-17.167 20.666 -21.5 30.999s-6.5 18.166 -6.5 23.499c-2.66699 -6 -8.83398 -14 -18.501 -24s-21.834 -19.667 -36.501 -29s-31.5 -17.5 -50.5 -24.5s-39.833 -10.5 -62.5 -10.5c-18.667 0 -37 2.66699 -55 8s-34.167 14.333 -48.5 27
s-25.833 29.667 -34.5 51s-13 48.666 -13 81.999c0 22.667 2.66699 47.167 8 73.5s13 52.333 23 78s23 50.5 39 74.5s34.667 45 56 63s45.333 32.5 72 43.5s56.334 16.5 89.001 16.5c16 0 30.167 -2.5 42.5 -7.5s23.166 -11.167 32.499 -18.5s16.666 -15.333 21.999 -24
s8.66602 -16.334 9.99902 -23.001l14 50h96l-76 -294c-2 -7.33301 -4 -14.166 -6 -20.499s-3.83301 -12.833 -5.5 -19.5s-3 -13.167 -4 -19.5s-1.5 -13.166 -1.5 -20.499c0 -17.333 4.16699 -31.333 12.5 -42s21.833 -16 40.5 -16c20 0 39.333 7 58 21
s35.167 33.333 49.5 58s25.666 53.334 33.999 86.001s12.5 68.334 12.5 107.001c0 48 -8.66699 93 -26 135s-42.5 78 -75.5 108s-73.667 53.667 -122 71s-103.166 26 -164.499 26c-30.667 0 -61 -3.5 -91 -10.5s-58.833 -18 -86.5 -33s-53.334 -34.5 -77.001 -58.5
s-44.334 -52.667 -62.001 -86s-31.5 -71.333 -41.5 -114s-15 -91.334 -15 -146.001c0 -37.333 4.83301 -72.333 14.5 -105s23.5 -63 41.5 -91s39 -53 63 -75s50.333 -40.667 79 -56s59.167 -27.333 91.5 -36s65.166 -13 98.499 -13c32 0 61.5 2 88.5 6s52 9.16699 75 15.5
s44.833 13.833 65.5 22.5l62 28c1.33301 -6.66699 2.33301 -12.667 3 -18s1.5 -10.5 2.5 -15.5l3 -15l3.5 -17.5c-22.667 -12 -45.667 -23.167 -69 -33.5s-47.666 -19.333 -72.999 -27s-51.333 -13.834 -78 -18.501s-54 -7 -82 -7c-64 0 -121.333 7.33301 -172 22
s-95 34 -133 58s-70.5 51.833 -97.5 83.5s-49 65 -66 100s-29.333 70.167 -37 105.5s-11.5 69 -11.5 101zM468.006 402.003c0 -35.333 5.66699 -61.1689 17 -77.502s31.333 -24.5 60 -24.5c12 0 24.667 4.33301 38 13s26.166 20.334 38.499 35.001s24 31.334 35 50.001
s20.833 38.334 29.5 59.001s15.834 41.167 21.501 61.5s9.16699 39.5 10.5 57.5c2.66699 33.333 -2 58.666 -14 75.999s-30.667 26 -56 26c-22 0 -43.833 -6.16699 -65.5 -18.5s-41 -30.333 -58 -54s-30.667 -52.5 -41 -86.5s-15.5 -73 -15.5 -117z" />
    <glyph glyph-name="A" unicode="A" horiz-adv-x="1102" 
d="M32 0v76h76l372 904h96l398 -904h90v-76h-380v76h117l-83 192h-446l-78 -192h114v-76h-276zM302 343h384l-184 431l-12 30z" />
    <glyph glyph-name="B" unicode="B" horiz-adv-x="935" 
d="M54 0v75.998h117v828h-117v76h460c44 0 85 -5.16699 123 -15.5s71.333 -25.666 100 -45.999s51 -45.333 67 -75s24 -63.5 24 -101.5c0 -28 -4.83301 -54.5 -14.5 -79.5s-23.667 -47 -42 -66s-40.166 -34.667 -65.499 -47s-54 -19.5 -86 -21.5
c14.667 -1.33301 30.667 -4.66602 48 -9.99902s35 -12.666 53 -21.999s35.333 -21 52 -35s31.667 -29.667 45 -47s24 -37 32 -59s12 -45.667 12 -71c0 -32 -4.66699 -61 -14 -87s-21.833 -49.5 -37.5 -70.5s-34.334 -39.333 -56.001 -55s-45 -28.834 -70 -39.501
s-51.333 -18.667 -79 -24s-55.5 -8 -83.5 -8h-468zM326 75.998l131 0.00195312c34 0 65.333 3 94 9s53.667 16.667 75 32s38 36.666 50 63.999s18 61.666 18 102.999c0 33.333 -5.83301 62.5 -17.5 87.5s-27 45.833 -46 62.5s-41.333 29.167 -67 37.5s-52.5 12.5 -80.5 12.5
h-157v-408zM326 557h179.998c26.667 0 50.334 4.5 71.001 13.5s38.167 21.167 52.5 36.5s25.333 33.666 33 54.999s11.5 44 11.5 68c0 26.667 -4.33301 50.834 -13 72.501s-20.667 40 -36 55s-33.666 26.5 -54.999 34.5s-44 12 -68 12h-176v-347z" />
    <glyph glyph-name="C" unicode="C" horiz-adv-x="1076" 
d="M88 490c0 44 4.33496 86.8311 13.002 128.498s21.667 81 39 118s39 71.167 65 102.5s56.167 58.333 90.5 81s73 40.334 116 53.001s89.833 19 140.5 19c26 0 51.167 -1.5 75.5 -4.5s47.666 -8.33301 69.999 -16s43.833 -17.5 64.5 -29.5
c21.333 -13.333 42 -29.333 62 -48l48 86h60v-284h-68c-6.66699 32 -18.334 61.333 -35.001 88s-37 49.834 -61 69.501s-51.667 35 -83 46s-65.666 16.5 -102.999 16.5c-38 0 -72.167 -6 -102.5 -18s-57.333 -28.333 -81 -49s-44 -45 -61 -73s-31.167 -58 -42.5 -90
s-19.666 -65 -24.999 -99s-8 -67.667 -8 -101c0 -38.667 4.33301 -76 13 -112s20.834 -69.667 36.501 -101s34.667 -60 57 -86s46.833 -48.333 73.5 -67s55.667 -33.167 87 -43.5s64 -15.5 98 -15.5c57.333 0 110.166 13.833 158.499 41.5s92.5 68.834 132.5 123.501l68 -59
c-40.667 -40.667 -79.334 -72.834 -116.001 -96.501s-71.834 -41.667 -105.501 -54s-65.5 -20.166 -95.5 -23.499s-58.333 -5 -85 -5c-58.667 0 -112 6.33301 -160 19s-90.333 30.334 -127 53.001s-68.167 49.667 -94.5 81s-48 65.666 -65 102.999
s-29.5 76.666 -37.5 117.999s-12 84 -12 128z" />
    <glyph glyph-name="D" unicode="D" horiz-adv-x="1071" 
d="M54 0v76h117v828h-117v76h410c81.333 0 154.333 -11.5 219 -34.5s119.334 -55.833 164.001 -98.5s78.834 -94.167 102.501 -154.5s35.5 -127.833 35.5 -202.5c0 -70.667 -11.833 -136 -35.5 -196s-57.834 -111.667 -102.501 -155s-99.334 -77.333 -164.001 -102
s-137.667 -37 -219 -37h-410zM326 76h123.001c46.667 0 88.167 6 124.5 18s67.833 28.167 94.5 48.5s49 44 67 71s32.667 55.667 44 86s19.333 61.333 24 93s7 62.834 7 93.501c0 64 -7.5 121.833 -22.5 173.5s-38 95.667 -69 132s-69.833 64.166 -116.5 83.499
s-101.334 29 -164.001 29h-112v-828z" />
    <glyph glyph-name="E" unicode="E" horiz-adv-x="925" 
d="M54 0v76h117v828h-117v76h764v-198h-80v105h-412v-329h366v98h80v-276h-80v106h-366v-392h435v108h80v-202h-787z" />
    <glyph glyph-name="F" unicode="F" horiz-adv-x="876" 
d="M54 0v76h117v828h-117v76h760v-198h-80v105h-408v-331h374v102h80v-280h-80v110h-374v-412h140v-76h-412z" />
    <glyph glyph-name="G" unicode="G" horiz-adv-x="1141" 
d="M88 490c0 44 4.33691 86.832 13.0039 128.499s21.667 81 39 118s39.333 71.167 66 102.5s58.334 58.333 95.001 81s78 40.334 124 53.001s97 19 153 19c32 0 61 -2.16699 87 -6.5s50.5 -10.333 73.5 -18s44.333 -17 64 -28s38.5 -23.167 56.5 -36.5l36 77h57v-274h-65
c-8.66699 34 -22 64 -40 90s-39.667 47.833 -65 65.5s-53.666 30.834 -84.999 39.501s-65 13 -101 13c-50.667 0 -96.5 -10.167 -137.5 -30.5s-76 -49 -105 -86s-51.5 -81.333 -67.5 -133s-24 -108.834 -24 -171.501c0 -33.333 3.16699 -67.5 9.5 -102.5
s15.666 -68.5 27.999 -100.5s28.166 -62.167 47.499 -90.5s41.666 -53 66.999 -74s54 -37.5 86 -49.5c30.667 -12 65.334 -18 104.001 -18c25.333 0 51.166 3.33301 77.499 10s50.333 16.334 72 29.001s39.5 28.667 53.5 48s21 42 21 68v143h-132v77h286v-433h-53l-51 76
c-20 -14 -40.167 -26.5 -60.5 -37.5s-42.333 -20.167 -66 -27.5s-49.167 -13 -76.5 -17s-58 -6 -92 -6c-57.333 0 -109.5 6.33301 -156.5 19s-88.833 30.334 -125.5 53.001s-68.334 49.667 -95.001 81s-48.834 65.666 -66.501 102.999s-30.834 76.666 -39.501 117.999
c-8 41.333 -12 84 -12 128z" />
    <glyph glyph-name="H" unicode="H" horiz-adv-x="1181" 
d="M54 0v76h117v828h-117v76h388v-76h-116v-346h530v346h-117v76h388v-76h-117v-828h117v-76h-388v76h117v410h-530v-410h116v-76h-388z" />
    <glyph glyph-name="I" unicode="I" horiz-adv-x="525" 
d="M68 0v76h117v828h-117v76h388v-76h-116v-828h116v-76h-388z" />
    <glyph glyph-name="J" unicode="J" horiz-adv-x="723" 
d="M34 260h149.998v-32c0 -52 9.16699 -92.167 27.5 -120.5s44.5 -42.5 78.5 -42.5c16.667 0 31.5 3.33301 44.5 10s24.167 15.5 33.5 26.5s16.333 23.167 21 36.5s7 27.333 7 42v724h-116v76h388v-76h-117v-636c0 -52 -5.5 -95.667 -16.5 -131s-27.333 -64 -49 -86
s-48.667 -38 -81 -48s-69.5 -15 -111.5 -15c-45.333 0 -84.166 6 -116.499 18s-59.166 29.333 -80.499 52s-37 51 -47 85s-15 73 -15 117z" />
    <glyph glyph-name="K" unicode="K" horiz-adv-x="1027" 
d="M54 0v76h117v828h-117v76h386v-76h-114v-398l443 398h-114v76h321v-76h-98l-305 -276l330 -552h79v-76h-368v76h102l-262 445l-128 -115v-330h114v-76h-386z" />
    <glyph glyph-name="L" unicode="L" horiz-adv-x="880" 
d="M54 0v76h117v828h-117v76h404v-76h-132v-810h376v119h104v-213h-752z" />
    <glyph glyph-name="M" unicode="M" horiz-adv-x="1308" 
d="M54 0v76h112v828h-112v76h280l303 -704l25 -56l314 760h277v-76h-112v-828h112v-76h-382v76h115v738l-15 -36l-311 -760h-71l-343 784l-4 12v-738h116v-76h-304z" />
    <glyph glyph-name="N" unicode="N" horiz-adv-x="1152" 
d="M54 0v76h114v828h-114v76h258l597 -754v678h-117v76h305v-76h-117v-916h-76l-662 834v-746h116v-76h-304z" />
    <glyph glyph-name="O" unicode="O" horiz-adv-x="1143" 
d="M88 490c0 44 4.83203 86.833 14.499 128.5s24 81 43 118s42.167 71.167 69.5 102.5s59 58.333 95 81s75.667 40.334 119 53.001s91 19 143 19c51.333 0 98.833 -6.33301 142.5 -19s83.334 -30.334 119.001 -53.001s67.334 -49.667 95.001 -81s50.834 -65.5 69.501 -102.5
s33 -76.333 43 -118s15 -84.5 15 -128.5s-5 -86.667 -15 -128s-24.333 -80.666 -43 -117.999s-41.834 -71.666 -69.501 -102.999s-59.334 -58.333 -95.001 -81s-75.5 -40.334 -119.5 -53.001s-91.333 -19 -142 -19s-98 6.33301 -142 19s-84 30.334 -120 53.001
s-67.667 49.667 -95 81s-50.5 65.666 -69.5 102.999s-33.333 76.666 -43 117.999s-14.5 84 -14.5 128zM263.999 490c0 -64 5.49707 -119.003 16.4971 -165.003s25.333 -85 43 -117s37.5 -58 59.5 -78s44.333 -35.333 67 -46s44.667 -17.667 66 -21s40 -5 56 -5
s34.667 1.66699 56 5s43.333 10.333 66 21s45 26 67 46s41.667 46 59 78s31.333 71 42 117s16 101 16 165s-5.33301 119.167 -16 165.5s-24.5 85.666 -41.5 117.999s-36.5 58.166 -58.5 77.499s-44.333 34.333 -67 45s-44.834 17.834 -66.501 21.501s-40.5 5.5 -56.5 5.5
c-12 0 -25.667 -0.833008 -41 -2.5s-31.166 -5.16699 -47.499 -10.5s-33.166 -12.666 -50.499 -21.999s-34.166 -21.666 -50.499 -36.999s-31.666 -33.666 -45.999 -54.999s-26.833 -46.666 -37.5 -75.999s-19.167 -63 -25.5 -101s-9.5 -81 -9.5 -129z" />
    <glyph glyph-name="P" unicode="P" horiz-adv-x="912" 
d="M54 0l0.00195312 76h117v828h-117v76h388c56 0 107.5 -6.66699 154.5 -20s87.667 -33.333 122 -60s61.166 -59 80.499 -97s29 -81.667 29 -131c0 -50 -9.83301 -94.167 -29.5 -132.5s-46.834 -70.333 -81.501 -96s-75.5 -45 -122.5 -58s-97.833 -19.5 -152.5 -19.5h-116
v-290h138v-76h-410zM326.002 442l141.998 0.000976562c34 0 63.333 6.16699 88 18.5s45 28.833 61 49.5s27.833 44.5 35.5 71.5s11.5 54.5 11.5 82.5c0 33.333 -4.33301 64.666 -13 93.999s-21.667 54.833 -39 76.5s-38.666 38.667 -63.999 51s-54.666 18.5 -87.999 18.5
h-134v-462z" />
    <glyph glyph-name="Q" unicode="Q" horiz-adv-x="1143" 
d="M88 490c0 44 4.83203 86.833 14.499 128.5s24 81 43 118s42.167 71.167 69.5 102.5s59 58.333 95 81s75.667 40.334 119 53.001s91 19 143 19c51.333 0 98.833 -6.33301 142.5 -19s83.334 -30.334 119.001 -53.001s67.334 -49.667 95.001 -81s50.834 -65.5 69.501 -102.5
s33 -76.333 43 -118s15 -84.5 15 -128.5c0 -42 -4.66699 -83 -14 -123s-22.5 -78 -39.5 -114s-38.333 -69.5 -64 -100.5s-54.834 -57.833 -87.501 -80.5c9.33301 -12.667 18.5 -24.5 27.5 -35.5s17.833 -20.833 26.5 -29.5s17 -15.667 25 -21s15.333 -8.66602 22 -9.99902
c6.66699 -0.666992 14 0.333008 22 3s16 6.16699 24 10.5s15.333 8.83301 22 13.5c8 4.66699 14.667 9.66699 20 15l42 -54c-11.333 -14 -23.5 -27.333 -36.5 -40s-26.5 -23.5 -40.5 -32.5s-28.667 -16.167 -44 -21.5c-12 -3.33301 -24.667 -5 -38 -5h-11
c-16 1.33301 -31.333 6.5 -46 15.5s-29 20.5 -43 34.5s-27.667 29.667 -41 47l-40 54c-25.333 -8.66699 -52.333 -15.5 -81 -20.5s-58.334 -7.5 -89.001 -7.5c-50.667 0 -98 6.33301 -142 19s-84 30.334 -120 53.001s-67.667 49.667 -95 81s-50.5 65.666 -69.5 102.999
s-33.333 76.666 -43 117.999s-14.5 84 -14.5 128zM263.999 490c0 -64 5.50098 -119.002 16.501 -165.002s25.333 -85 43 -117s37.5 -58 59.5 -78s44.333 -35.333 67 -46s44.667 -17.667 66 -21s40 -5 56 -5s34.5 1.66699 55.5 5s42.833 10.333 65.5 21l-24 30.5
c-8 9.66699 -15.833 18.167 -23.5 25.5s-14.834 13.333 -21.501 18c-6.66699 4 -13.334 6.66699 -20.001 8c-8 0.666992 -15.5 -0.166016 -22.5 -2.49902s-13.667 -5.5 -20 -9.5s-12.833 -9 -19.5 -15s-13.334 -12.333 -20.001 -19l-52 48c10.667 14 22 27.833 34 41.5
s25 25.834 39 36.501s29 19 45 25s34 8.33301 54 7c12.667 -1.33301 25.167 -5.33301 37.5 -12s24.666 -15.5 36.999 -26.5s24.333 -23.333 36 -37s23.5 -28.5 35.5 -44.5c13.333 16 25.333 34.667 36 56s20 45.666 28 72.999s14.333 57.666 19 90.999s7 70.666 7 111.999
c0 64 -5.33301 119.167 -16 165.5s-24.5 85.666 -41.5 117.999s-36.5 58.166 -58.5 77.499s-44.333 34.333 -67 45s-44.834 17.834 -66.501 21.501s-40.5 5.5 -56.5 5.5c-12 0 -25.667 -0.833008 -41 -2.5s-31.166 -5.16699 -47.499 -10.5s-33.166 -12.666 -50.499 -21.999
s-34.166 -21.666 -50.499 -36.999s-31.666 -33.666 -45.999 -54.999s-26.833 -46.666 -37.5 -75.999s-19.167 -63 -25.5 -101s-9.5 -81 -9.5 -129z" />
    <glyph glyph-name="R" unicode="R" horiz-adv-x="950" 
d="M54 0l0.000976562 75.998h117v828h-117v76h410c52 0 101 -6.66699 147 -20s86 -33.333 120 -60s60.667 -59 80 -97s29 -81.667 29 -131c0 -26 -3.16699 -49.833 -9.5 -71.5s-14.833 -41.167 -25.5 -58.5s-23.167 -33 -37.5 -47s-29.833 -26.333 -46.5 -37
s-33.667 -19.667 -51 -27s-34 -13.666 -50 -18.999l156 -250c8 -13.333 15.667 -25.5 23 -36.5s14.666 -20.333 21.999 -28s15 -13.5 23 -17.5s16.667 -6 26 -6c6 0 11.833 0.333008 17.5 1s11.5 1 17.5 1v-76c-6.66699 -1.33301 -12.834 -2.66602 -18.501 -3.99902
s-11.834 -2.5 -18.501 -3.5s-14.334 -2 -23.001 -3s-19 -1.5 -31 -1.5c-14.667 0 -28.167 0.5 -40.5 1.5s-23.666 3 -33.999 6s-20.166 7.5 -29.499 13.5s-18.833 14 -28.5 24s-19.667 22.167 -30 36.5s-21.5 31.833 -33.5 52.5l-94 157
c-21.333 36 -40.666 62.333 -57.999 79s-33.333 25 -48 25h-92v-307h116v-76h-388zM326.001 465.998l139.999 -0.000976562c38 0 70.5 5.16699 97.5 15.5s49.167 25 66.5 44s30 41.167 38 66.5s12 53.333 12 84c0 31.333 -4.16699 60.833 -12.5 88.5
s-21.166 51.834 -38.499 72.501s-39.5 37 -66.5 49s-59.167 18 -96.5 18h-140v-438z" />
    <glyph glyph-name="S" unicode="S" horiz-adv-x="916" 
d="M106 712c0 50.667 8.3291 93.6699 24.9961 129.003s39 64.166 67 86.499s60 38.5 96 48.5c37.333 10.667 75.333 16 114 16c22.667 0 46 -1.5 70 -4.5s46.833 -7.33301 68.5 -13s41.834 -12.834 60.501 -21.501c18 -8.66699 33.667 -18.667 47 -30l32 57h70v-248h-80
c0 20 -3.66699 38.667 -11 56s-17 33 -29 47s-26.333 26.5 -43 37.5s-34.334 20.167 -53.001 27.5s-38 12.833 -58 16.5s-39.667 5.83398 -59 6.50098c-26.667 0 -51.667 -4 -75 -12s-43.666 -18.333 -60.999 -31s-30.833 -26.834 -40.5 -42.501s-14.5 -31.5 -14.5 -47.5
c0 -22.667 5.33301 -43.334 16 -62.001s25.167 -35.834 43.5 -51.501s39.833 -30 64.5 -43s50.834 -25.5 78.501 -37.5l85.5 -36c29.333 -12 57.666 -24.333 84.999 -37s53.333 -26.5 78 -41.5s46.334 -31.667 65.001 -50s33.334 -38.5 44.001 -60.5s16 -46.667 16 -74
c0 -48 -6.66699 -91.167 -20 -129.5s-34 -70.666 -62 -96.999s-63.333 -46.666 -106 -60.999s-93 -21.5 -151 -21.5c-20.667 0 -41.667 1 -63 3s-42.666 5.66699 -63.999 11s-42.666 12.333 -63.999 21s-43.333 20.334 -66 35.001l-28 -58h-72v256h80
c0 -24.667 6.66699 -48.834 20 -72.501s32 -44.834 56 -63.501s52 -33.667 84 -45s67.333 -17 106 -17c21.333 0 43.666 3.33301 66.999 10s44.833 16.334 64.5 29.001s35.834 28.667 48.501 48s19 41.666 19 66.999s-5.16699 48 -15.5 68s-24.333 38.333 -42 55
s-38.334 31.667 -62.001 45s-48.5 26 -74.5 38s-53 23.667 -81 35s-55.333 23.333 -82 36s-51.667 26 -75 40s-43.833 30 -61.5 48s-31.667 38 -42 60s-15.5 47 -15.5 75z" />
    <glyph glyph-name="T" unicode="T" horiz-adv-x="964" 
d="M46 780v200h872v-200h-85v112h-273v-816h116v-76h-388v76h116v816h-273v-112h-85z" />
    <glyph glyph-name="U" unicode="U" horiz-adv-x="1124" 
d="M54 904l0.00292969 76h388v-76h-116v-598c0 -42.667 7.33301 -79 22 -109s34.667 -55 60 -75s54.666 -34.5 87.999 -43.5s68.333 -13.5 105 -13.5c23.333 0 46.666 1.83301 69.999 5.5s45.666 9.66699 66.999 18s41 19.833 59 34.5s34 33.167 48 55.5s24.667 49 32 80
s11 67.167 11 108.5v537h-116v76h310v-76h-117v-548c0 -54.667 -6.5 -104.667 -19.5 -150s-34.167 -84 -63.5 -116s-68 -57 -116 -75s-107.333 -27 -178 -27c-76 0 -140.5 6 -193.5 18s-96 31.667 -129 59s-57 63 -72 107s-22.5 98.333 -22.5 163v569h-117z" />
    <glyph glyph-name="V" unicode="V" horiz-adv-x="1145" 
d="M42 980h388l4 -76h-120l296 -690l24 -58l310 748h-119v76h283v-76h-76l-390 -916h-100l-401 916h-95z" />
    <glyph glyph-name="W" unicode="W" horiz-adv-x="1455" 
d="M42 904v76h376v-76h-124l194 -649l14 -51l238 776h84l214 -689l21 -72l201 685h-117v76h280v-76h-83l-276 -916h-99l-223 733l-226 -733h-106l-284 916h-84z" />
    <glyph glyph-name="X" unicode="X" horiz-adv-x="1119" 
d="M42 0v76h106l316 415l-313 413h-99v76h406v-76h-107l213 -282l214 282h-104v76h336v-76h-128l-268 -350l360 -478h104v-76h-410v76h110l-264 348l-265 -348h112v-76h-319z" />
    <glyph glyph-name="Y" unicode="Y" horiz-adv-x="1039" 
d="M42 904v76h416v-76h-130l239 -445l9 -19l252 464h-126v76h295v-76h-81l-308 -568v-260h117v-76h-388v76h117v258l-314 570h-98z" />
    <glyph glyph-name="Z" unicode="Z" horiz-adv-x="1000" 
d="M81 0l0.000976562 22.001c0 1.33301 0.166992 2.66602 0.5 3.99902s1.16602 3 2.49902 5l6 9c2.66699 4 6 9.33301 10 16l548 821l6 7h-442v-106h-95v202h787v-16l-571 -860l-5 -8h480v120h95v-216h-822z" />
    <glyph glyph-name="bracketleft" unicode="[" horiz-adv-x="478" 
d="M116 -259v1351h287v-104h-131v-1141h131v-106h-287z" />
    <glyph glyph-name="backslash" unicode="\" horiz-adv-x="530" 
d="M10 1014h158l352 -1051h-160z" />
    <glyph glyph-name="bracketright" unicode="]" horiz-adv-x="478" 
d="M75 -153h131v1141h-131v104h287v-1351h-287v106z" />
    <glyph glyph-name="asciicircum" unicode="^" horiz-adv-x="703" 
d="M75 478l218 508h114l221 -508h-118l-160 370l-158 -370h-117z" />
    <glyph glyph-name="underscore" unicode="_" horiz-adv-x="709" 
d="M0 -122h710v-95h-710v95z" />
    <glyph glyph-name="grave" unicode="`" horiz-adv-x="413" 
d="M17 990h219l136 -244h-140z" />
    <glyph glyph-name="a" unicode="a" horiz-adv-x="823" 
d="M94 204c0 36.667 5.66797 70 17.001 100s27.166 55.5 47.499 76.5s44.666 37.333 72.999 49s59.833 17.5 94.5 17.5c21.333 0 42.5 -1.5 63.5 -4.5s40.833 -7 59.5 -12s35.334 -11.167 50.001 -18.5c14 -6.66699 25 -14 33 -22v172c0 10.667 -2.83301 20.334 -8.5 29.001
s-13.167 16 -22.5 22s-19.833 10.833 -31.5 14.5s-23.167 6.66699 -34.5 9s-22 3.83301 -32 4.5s-18.333 1 -25 1c-26 0 -49.167 -2.33301 -69.5 -7s-38.5 -11.334 -54.5 -20.001s-29.333 -18.667 -40 -30s-19 -23.666 -25 -36.999h-5l-70 86
c12 8.66699 26.667 17.5 44 26.5s37.666 17.167 60.999 24.5s49.333 13.333 78 18s60.667 7 96 7c24 0 47.833 -0.833008 71.5 -2.5s46.167 -5 67.5 -10s40.833 -12.333 58.5 -22s33 -22.334 46 -38.001s23.167 -34.5 30.5 -56.5s11 -48.333 11 -79v-430h83v-72h-221v68
c-10.667 -13.333 -24 -25 -40 -35s-34.167 -18.333 -54.5 -25s-42.166 -11.667 -65.499 -15c-24 -3.33301 -48 -5 -72 -5c-31.333 0 -60.166 5.33301 -86.499 16s-48.833 25.667 -67.5 45s-33.334 42 -44.001 68s-16 55 -16 87zM238.001 217
c0 -20.667 3.99902 -39.498 11.999 -56.498s18.833 -31.667 32.5 -44s29.667 -21.833 48 -28.5s37.5 -10 57.5 -10c13.333 0 28.333 1.5 45 4.5s32.334 7 47.001 12s27 11.333 37 19s15 16.167 15 25.5v169c0 8 -4.33301 15.5 -13 22.5s-19.834 13.167 -33.501 18.5
s-28.5 9.66602 -44.5 12.999c-15.333 2.66699 -30.333 4 -45 4c-21.333 0 -41.666 -3.33301 -60.999 -10s-36 -16.5 -50 -29.5s-25.333 -28.833 -34 -47.5s-13 -39.334 -13 -62.001z" />
    <glyph glyph-name="b" unicode="b" horiz-adv-x="873" 
d="M58 1014l-0.00292969 67.999h240v-475c6.66699 11.333 16.334 23.166 29.001 35.499s28.167 23.5 46.5 33.5s39 18.167 62 24.5s48.5 9.5 76.5 9.5c36 0 71.167 -6.66699 105.5 -20s65 -34.333 92 -63s48.5 -65.667 64.5 -111s24 -99.333 24 -162
c0 -50 -7.16699 -97.167 -21.5 -141.5s-35.333 -83.166 -63 -116.499s-61.667 -59.666 -102 -78.999s-86.5 -29 -138.5 -29c-29.333 0 -55.166 3.66699 -77.499 11s-42.166 17 -59.499 29s-32.333 25.333 -45 40s-23.667 30 -33 46l-61 -117h-53
c1.33301 10.667 2.5 21.5 3.5 32.5s2 24.5 3 40.5s1.66699 35.333 2 58s0.5 51 0.5 85v801h-95zM297.997 335.999c0 -49.333 4.50098 -92.167 13.501 -128.5s21 -66.333 36 -90s32.833 -41.167 53.5 -52.5s42.334 -17 65.001 -17c25.333 0 48.666 5.83301 69.999 17.5
s40 29.667 56 54s28.5 55.5 37.5 93.5s13.5 82.667 13.5 134c0 56.667 -4.83301 103 -14.5 139s-22.5 64.333 -38.5 85s-34.667 35 -56 43s-44 12 -68 12c-10.667 0 -22.334 -2 -35.001 -6s-25 -10.667 -37 -20s-23.833 -21.333 -35.5 -36s-22 -32.667 -31 -54
s-16.167 -46.333 -21.5 -75s-8 -61.667 -8 -99z" />
    <glyph glyph-name="c" unicode="c" horiz-adv-x="783" 
d="M82 345c0 32 2.99805 63.166 8.99805 93.499s15.167 59.166 27.5 86.499s27.333 52.333 45 75s38.5 42.167 62.5 58.5s50.667 29 80 38s61.333 13.5 96 13.5c19.333 0 38.833 -2 58.5 -6s37.834 -9.5 54.501 -16.5s31.334 -14.667 44.001 -23s21.667 -15.833 27 -22.5
l-6 60h81l15 -240h-76l-4 28c-2.66699 24 -8.66699 45.167 -18 63.5s-21 33.333 -35 45s-30.333 20.5 -49 26.5s-38 9 -58 9c-13.333 0 -27.5 -2 -42.5 -6s-29.833 -10.333 -44.5 -19s-28.834 -20.667 -42.501 -36s-25.5 -34.166 -35.5 -56.499s-18 -48.833 -24 -79.5
c-6 -31.333 -9 -67 -9 -107c0 -35.333 3 -66.5 9 -93.5s14 -50.833 24 -71.5s22 -38 36 -52s28.5 -25.167 43.5 -33.5s30.333 -14.333 46 -18s30.834 -5.5 45.501 -5.5c20 0 40 2.33301 60 7s38.333 11.334 55 20.001s31.667 19 45 31s24.666 24.667 33.999 38h8l49 -64
c-17.333 -16 -36.166 -30.333 -56.499 -43s-41.833 -23 -64.5 -31s-46 -14.333 -70 -19c-25.333 -4.66699 -50 -7 -74 -7c-56.667 0 -106.5 8.66699 -149.5 26s-79 41.333 -108 72s-51 68 -66 112s-22.5 93 -22.5 147z" />
    <glyph glyph-name="d" unicode="d" horiz-adv-x="873" 
d="M75 345c0 54.667 6.83496 104.501 20.502 149.501s33 83.5 58 115.5s54.667 56.667 89 74s72.166 26 113.499 26c24 0 47 -2 69 -6s42.333 -10.167 61 -18.5s35.667 -18.333 51 -30s28 -24.834 38 -39.501v399h-95v67h240v-1014h95v-68h-240v75
c-9.33301 -10.667 -20.833 -21.167 -34.5 -31.5s-30.167 -19.5 -49.5 -27.5s-41.333 -14.667 -66 -20s-52 -8 -82 -8c-32 0 -63.833 6.33301 -95.5 19s-60.334 33 -86.001 61s-46.5 64.667 -62.5 110s-24 101 -24 167zM230.002 334.001c0 -30.667 2.66699 -58.334 8 -83.001
s12.666 -46.667 21.999 -66s20.333 -36.333 33 -51s25.834 -26.667 39.501 -36s27.667 -16.333 42 -21s28.166 -7 41.499 -7c26.667 0 50.334 6.16699 71.001 18.5s38.167 29.666 52.5 51.999s25.333 49.166 33 80.499s11.5 66 11.5 104v93c0 25.333 -2.66699 48 -8 68
s-12.333 37.333 -21 52s-18.667 27.334 -30 38.001s-23.333 19.334 -36 26.001s-25.5 11.334 -38.5 14.001s-25.167 4 -36.5 4c-26.667 0 -51 -5.66699 -73 -17s-41.333 -29 -58 -53s-29.667 -54 -39 -90s-14 -78 -14 -126z" />
    <glyph glyph-name="e" unicode="e" horiz-adv-x="819" 
d="M82 354c0 57.333 7.99512 108.169 23.9951 152.502s38.5 81.666 67.5 111.999s64 53.166 105 68.499s86.833 23 137.5 23c44 0 85.167 -7.66699 123.5 -23s71.5 -37 99.5 -65s50 -62 66 -102s24 -84.667 24 -134c0 -13.333 -0.333008 -25.166 -1 -35.499
s-1.33398 -19.833 -2.00098 -28.5h-486c0 -40 5 -76 15 -108s24.667 -59.333 44 -82s43 -40.167 71 -52.5s60 -18.5 96 -18.5c21.333 0 41.666 3.5 60.999 10.5s37.333 16.833 54 29.5s31.834 27.667 45.501 45s25.834 36.333 36.501 57h9l64 -59
c-12 -17.333 -26.667 -35 -44 -53s-37.666 -34.667 -60.999 -50s-50.666 -28 -81.999 -38s-67.666 -15 -108.999 -15c-65.333 0 -120.666 9 -165.999 27s-82.166 43.167 -110.499 75.5s-48.833 70.833 -61.5 115.5c-13.333 45.333 -20 94.666 -20 147.999zM239.995 404.003
h339.997c0 14.667 -1 30.5 -3 47.5s-5.5 34.167 -10.5 51.5s-11.333 34.166 -19 50.499s-17.5 30.666 -29.5 42.999s-26.167 22.333 -42.5 30s-35.166 11.5 -56.499 11.5c-22 0 -41.667 -3.83301 -59 -11.5s-32.666 -17.667 -45.999 -30s-24.666 -26.666 -33.999 -42.999
s-17 -33.166 -23 -50.499s-10.333 -34.5 -13 -51.5s-4 -32.833 -4 -47.5z" />
    <glyph glyph-name="f" unicode="f" horiz-adv-x="486" 
d="M69 0l-0.00195312 67.999h95v563h-95v68h95v207c0 26.667 3.5 51 10.5 73s17.667 41 32 57s32.5 28.5 54.5 37.5s48.333 13.5 79 13.5c18 0 33.833 -1.33301 47.5 -4s26.334 -6.16699 38.001 -10.5s22.167 -9.83301 31.5 -16.5c10 -6 19 -12.333 27 -19l-50 -74h-8
c-10.667 9.33301 -21.667 15.833 -33 19.5s-23.666 5.5 -36.999 5.5c-11.333 0 -21.5 -2 -30.5 -6s-16.5 -9.16699 -22.5 -15.5s-10.667 -14 -14 -23s-5 -18.167 -5 -27.5c0 -12 2.33301 -22.667 7 -32s11 -16.666 19 -21.999v-163h117v-68h-117v-563h102v-68h-343z" />
    <glyph glyph-name="g" unicode="g" horiz-adv-x="886" 
d="M82 350c0 49.333 6.66797 95.667 20.001 139s32.333 81.5 57 114.5s55.334 59 92.001 78s78.334 28.5 125.001 28.5c26.667 0 51 -2.33301 73 -7s42 -11.334 60 -20.001s33.333 -19 46 -31s23 -25.333 31 -40v87h242v-78h-96v-609c0 -64 -7.66699 -117.5 -23 -160.5
s-37.666 -77.667 -66.999 -104s-65 -45 -107 -56s-90.333 -16.5 -145 -16.5c-42 0 -79.5 3.16699 -112.5 9.5s-61.833 15.333 -86.5 27s-45.667 25.334 -63 41.001s-31.666 32.5 -42.999 50.5l108 85h10c7.33301 -14.667 17.333 -29.834 30 -45.501
s27.5 -29.834 44.5 -42.501s36.333 -23 58 -31s45.167 -12 70.5 -12s49 3.83301 71 11.5s41 20.5 57 38.5s28.667 42.333 38 73s14 68.667 14 114v81c-6.66699 -10 -15.834 -20.167 -27.501 -30.5s-26.334 -19.666 -44.001 -27.999s-37.834 -15.166 -60.501 -20.499
s-48.667 -8 -78 -8c-46.667 0 -88.334 9.66699 -125.001 29s-67.334 45.333 -92.001 78s-43.667 71 -57 115s-20 90.667 -20 140zM238.001 345.001c0 -48 5.33203 -89.334 15.999 -124.001s24.667 -63.167 42 -85.5s36.333 -38.833 57 -49.5s41.334 -16 62.001 -16
c27.333 0 52 5.66699 74 17s41 27.833 57 49.5s28.167 48 36.5 79s12.5 65.833 12.5 104.5v44c0 40 -4.5 76 -13.5 108s-21.5 59 -37.5 81s-34.833 38.667 -56.5 50s-45.5 17 -71.5 17c-22 0 -43.667 -4.5 -65 -13.5s-40.5 -24.167 -57.5 -45.5s-30.5 -49.666 -40.5 -84.999
s-15 -79 -15 -131z" />
    <glyph glyph-name="h" unicode="h" horiz-adv-x="888" 
d="M58 0l-0.000976562 68.001h95v946h-95v68h242v-490c12.667 20.667 27.167 38.5 43.5 53.5s34.5 27.333 54.5 37s41.333 16.667 64 21s46.667 6.5 72 6.5c32 0 60.667 -4.33301 86 -13s47 -21.334 65 -38.001s31.667 -37.667 41 -63s14 -54.333 14 -87v-441h96v-68h-310
v68h68v414c0 16 -2 31.667 -6 47s-11.167 29 -21.5 41s-24 21.667 -41 29s-37.5 11 -61.5 11c-24.667 0 -47.167 -6 -67.5 -18s-37.666 -27 -51.999 -45s-25.333 -38.333 -33 -61s-11.5 -44.667 -11.5 -66v-352h68v-68h-310z" />
    <glyph glyph-name="i" unicode="i" horiz-adv-x="473" 
d="M79 0h336v68h-95v631h-241v-68h95v-563h-95v-68zM146 904c0 12 2.33301 23.667 7 35s11.334 21 20.001 29s18.667 14.333 30 19s23 7 35 7c12.667 0 24.667 -2.33301 36 -7s21.166 -11 29.499 -19s14.833 -17.333 19.5 -28c4.66699 -12 7 -24 7 -36
s-2.33301 -23.5 -7 -34.5s-11.167 -20.667 -19.5 -29s-18.166 -14.833 -29.499 -19.5s-23.333 -7 -36 -7c-12 0 -23.667 2.33301 -35 7s-21.333 11.167 -30 19.5s-15.334 18 -20.001 29s-7 22.5 -7 34.5z" />
    <glyph glyph-name="j" unicode="j" horiz-adv-x="496" 
d="M14 -218l0.000976562 -9c4 -10 10 -19.667 18 -29s17.667 -17.666 29 -24.999s24.666 -13.166 39.999 -17.499s32.333 -6.5 51 -6.5c10.667 0 23 1.16699 37 3.5s28 6.16602 42 11.499s27.667 12.666 41 21.999s25.333 21.5 36 36.5s19 32.667 25 53s9 44.5 9 72.5v805
h-241v-68h95v-820c0 -6 -1 -12 -3 -18s-5 -11.667 -9 -17s-9.33301 -9.5 -16 -12.5s-14.667 -4.5 -24 -4.5c-7.33301 0 -14.5 1.83301 -21.5 5.5s-13.167 8.5 -18.5 14.5s-9.83301 13.667 -13.5 23s-5.5 19.333 -5.5 30l-13 4zM168.001 904c0 12 2.33301 23.667 7 35
s11.334 21 20.001 29s18.667 14.333 30 19s23 7 35 7c12.667 0 24.667 -2.33301 36 -7s21.166 -11 29.499 -19s14.833 -17.333 19.5 -28c4.66699 -12 7 -24 7 -36s-2.33301 -23.5 -7 -34.5s-11.167 -20.667 -19.5 -29s-18.166 -14.833 -29.499 -19.5s-23.333 -7 -36 -7
c-12 0 -23.667 2.33301 -35 7s-21.333 11.167 -30 19.5s-15.334 18 -20.001 29s-7 22.5 -7 34.5z" />
    <glyph glyph-name="k" unicode="k" horiz-adv-x="877" 
d="M58 0v68h95v946h-95v68h242v-748l294 297h-107v68h297v-68h-82l-176 -171l258 -392h47v-68h-307v68h91l-191 291l-124 -123v-168h68v-68h-310z" />
    <glyph glyph-name="l" unicode="l" horiz-adv-x="463" 
d="M69 0v68h95v946h-95v68h241v-1014h95v-68h-336z" />
    <glyph glyph-name="m" unicode="m" horiz-adv-x="1287" 
d="M58 0v68.0029h94v563h-94v68h241v-102c12 16.667 24.833 32 38.5 46s29.167 26 46.5 36s37.333 17.667 60 23s49 8 79 8c26.667 0 50.834 -3 72.501 -9s40.834 -14.333 57.501 -25s30.667 -23.334 42 -38.001s19.666 -30 24.999 -46c9.33301 17.333 20.333 33.333 33 48
s27.334 27.167 44.001 37.5s35.667 18.333 57 24s46 8.5 74 8.5c38.667 0 71.5 -5.16699 98.5 -15.5s48.833 -24.333 65.5 -42s28.834 -38.167 36.501 -61.5s11.5 -47.666 11.5 -72.999v-450h94v-68h-310v68h69v396c0 27.333 -3.5 50.166 -10.5 68.499
s-16.167 33.166 -27.5 44.499s-24.333 19.333 -39 24s-29.334 7 -44.001 7c-16.667 0 -33.834 -3.66699 -51.501 -11s-33.834 -17.666 -48.501 -30.999s-26.667 -29.333 -36 -48s-14 -39.334 -14 -62.001v-388h68v-68h-284v68h70v390c0 22 -3.33301 42.167 -10 60.5
s-15.5 34.166 -26.5 47.499s-24.167 23.666 -39.5 30.999s-32 11 -50 11c-18.667 0 -37.167 -4.33301 -55.5 -13s-34.5 -20.667 -48.5 -36s-25.333 -33.666 -34 -54.999s-13 -45.333 -13 -72v-364h69v-68h-310z" />
    <glyph glyph-name="n" unicode="n" horiz-adv-x="887" 
d="M58 0l-0.000976562 67.9971h95v563h-95v68h242v-107c10 17.333 21.833 33.333 35.5 48s29.167 27.334 46.5 38.001s36.666 18.667 57.999 24s44.333 8 69 8c34.667 0 66.334 -4.33301 95.001 -13s53.167 -21.334 73.5 -38.001s35.833 -37.667 46.5 -63s16 -54.333 16 -87
v-441h96v-68h-310v68h68v414c0 16 -2.83301 31.5 -8.5 46.5s-14 28.333 -25 40s-24.833 21.167 -41.5 28.5s-35 11 -55 11c-24.667 0 -47.167 -5.66699 -67.5 -17s-37.666 -26.166 -51.999 -44.499s-25.333 -38.666 -33 -60.999s-11.5 -44.166 -11.5 -65.499v-352h68v-68
h-310z" />
    <glyph glyph-name="o" unicode="o" horiz-adv-x="868" 
d="M83 350c0 28 2.66699 56.5 8 85.5s13.833 56.833 25.5 83.5s26.834 51.667 45.501 75s41 43.666 67 60.999s56 30.833 90 40.5s72.667 14.5 116 14.5c42.667 0 81.167 -4.83301 115.5 -14.5s64.666 -23.167 90.999 -40.5s49 -37.666 68 -60.999s34.5 -48.333 46.5 -75
s20.667 -54.5 26 -83.5s8 -57.5 8 -85.5s-3 -56.667 -9 -86s-15.333 -57.333 -28 -84s-28.667 -51.667 -48 -75s-42 -43.666 -68 -60.999s-55.833 -31 -89.5 -41s-71.167 -15 -112.5 -15c-45.333 0 -85.5 5 -120.5 15s-65.5 23.667 -91.5 41s-48 37.666 -66 60.999
s-32.333 48.333 -43 75s-18.5 54.5 -23.5 83.5s-7.5 57.833 -7.5 86.5zM238 350c0 -46.667 4.83398 -88.167 14.501 -124.5s23.167 -67 40.5 -92s38.166 -44.167 62.499 -57.5s50.833 -20 79.5 -20c29.333 0 55.5 6.66699 78.5 20s42.833 32.5 59.5 57.5
s29.667 55.667 39 92s14 77.833 14 124.5s-4.5 88 -13.5 124s-21.667 66.5 -38 91.5s-36.333 44 -60 57s-50.167 19.5 -79.5 19.5s-56 -6.5 -80 -19.5s-44.667 -32 -62 -57s-30.833 -55.5 -40.5 -91.5s-14.5 -77.333 -14.5 -124z" />
    <glyph glyph-name="p" unicode="p" horiz-adv-x="873" 
d="M58 -237h95v868h-95v68h242v-95c18.667 32.667 44.667 58.5 78 77.5s74.666 28.5 123.999 28.5c46.667 0 88.334 -9.5 125.001 -28.5s67.667 -45 93 -78s44.666 -71.167 57.999 -114.5s20 -89.666 20 -138.999s-6.66699 -96 -20 -140s-32.666 -82.333 -57.999 -115
s-56.333 -58.667 -93 -78s-78.334 -29 -125.001 -29c-28.667 0 -54.167 2.66699 -76.5 8s-41.666 12.166 -57.999 20.499s-30.166 17.5 -41.499 27.5c-10.667 10.667 -19.334 21 -26.001 31v-312h94v-68h-336v68zM290 288c0 -37.333 4.66699 -69.6689 14 -97.002
s22 -50 38 -68s34.333 -31.333 55 -40s42 -13 64 -13c24 0 47 5.66699 69 17s41.333 28.666 58 51.999s30 52.833 40 88.5s15 77.5 15 125.5c0 34 -2.66699 64.333 -8 91s-12.5 49.834 -21.5 69.501s-19.5 36.334 -31.5 50.001s-24.5 24.834 -37.5 33.501
s-26.333 14.667 -40 18s-26.5 5 -38.5 5c-20 0 -40.5 -4.66699 -61.5 -14s-40 -23.666 -57 -42.999s-30.833 -43.333 -41.5 -72s-16 -62.334 -16 -101.001v-102z" />
    <glyph glyph-name="q" unicode="q" horiz-adv-x="873" 
d="M75 345c0 54.667 7.49902 104.497 22.499 149.497s36.167 83.5 63.5 115.5s60 56.667 98 74s79.667 26 125 26c26.667 0 51.334 -3.5 74.001 -10.5s43 -16 61 -27s33.667 -23.167 47 -36.5s24 -26.666 32 -39.999l52 103h165v-68h-95v-868h95v-68h-336v68h95v321
c-24.667 -30.667 -54.5 -54.334 -89.5 -71.001s-72.5 -25 -112.5 -25c-24 0 -48.167 2.83301 -72.5 8.5s-47.5 14.334 -69.5 26.001s-42.5 26.834 -61.5 45.501s-35.333 41.334 -49 68.001s-24.5 57.167 -32.5 91.5s-12 73.5 -12 117.5zM229.999 344.997
c0 -47.333 4.5 -87.999 13.5 -121.999s21.333 -62.167 37 -84.5s33.834 -38.666 54.501 -48.999s43 -15.5 67 -15.5c21.333 0 42.333 5 63 15s39.167 25 55.5 45s29.333 44.667 39 74s14.5 62.666 14.5 99.999v106c0 41.333 -5 75.666 -15 102.999s-23 49.333 -39 66
s-34 28.5 -54 35.5s-39.333 10.5 -58 10.5c-22 0 -43.833 -6.16699 -65.5 -18.5s-40.834 -30.5 -57.501 -54.5s-30 -53.667 -40 -89s-15 -76 -15 -122z" />
    <glyph glyph-name="r" unicode="r" horiz-adv-x="580" 
d="M58 0v67.999h95v563h-95v68h230v-127c2.66699 6.66699 7 15 13 25s13.333 20 22 30s18.334 20 29.001 30s22.334 19 35.001 27s26.167 14.333 40.5 19s29.166 7 44.499 7c21.333 0 40 -3.16699 56 -9.5s29 -15 39 -26s17.333 -23.833 22 -38.5s7 -30 7 -46l-88 -70l-13 3
c0 14.667 -1.83301 26.834 -5.5 36.501s-8.5 17.667 -14.5 24s-13 10.833 -21 13.5s-16.333 4 -25 4c-14.667 0 -29.834 -4.83301 -45.501 -14.5s-29.667 -22.167 -42 -37.5s-22.333 -32.5 -30 -51.5s-11.5 -38.167 -11.5 -57.5v-372h108v-68h-350z" />
    <glyph glyph-name="s" unicode="s" horiz-adv-x="719" 
d="M106 508c0 31.333 5.00293 59.5059 15.0029 84.5059s24.333 46.167 43 63.5s40.667 30.666 66 39.999s53.666 14 84.999 14c20 0 38.333 -1 55 -3s32.167 -5.83301 46.5 -11.5s27.833 -13 40.5 -22s25.334 -19.5 38.001 -31.5v60h71v-182h-71
c-2.66699 17.333 -8.83398 33.666 -18.501 48.999s-21.834 28.666 -36.501 39.999s-30.667 20.333 -48 27s-34.666 10 -51.999 10c-13.333 0 -26.666 -1.66699 -39.999 -5s-25.333 -8.5 -36 -15.5s-19.334 -15.667 -26.001 -26s-10 -22.833 -10 -37.5
c0 -18 5.33301 -33.833 16 -47.5s25 -26.5 43 -38.5s38.667 -23.333 62 -34l71 -33c24 -11.333 47.667 -23.333 71 -36s44 -27 62 -43s32.333 -34.333 43 -55s16 -44.334 16 -71.001c0 -32.667 -5 -62.334 -15 -89.001s-25 -49.334 -45 -68.001s-44.333 -33.167 -73 -43.5
s-61.667 -15.5 -99 -15.5c-20.667 0 -40.334 2.16699 -59.001 6.5s-36.167 10 -52.5 17s-31.166 15.167 -44.499 24.5s-24.666 19.333 -33.999 30v-66h-80v207h80c0 -22.667 4.66699 -43.5 14 -62.5s21.333 -34.833 36 -47.5c14.667 -12 31.667 -21 51 -27s38.333 -9 57 -9
c17.333 0 34 2.16699 50 6.5s30.333 10.5 43 18.5s22.667 18 30 30s11 25.333 11 40c0 19.333 -5.33301 36.5 -16 51.5s-24.834 28.667 -42.501 41s-37.834 23.833 -60.501 34.5l-69.5 32.5c-23.667 11 -46.667 22.5 -69 34.5s-42.333 25.5 -60 40.5s-31.834 32 -42.501 51
s-16 41.167 -16 66.5z" />
    <glyph glyph-name="t" unicode="t" horiz-adv-x="531" 
d="M58 631v67.999h95v239l137 66l10 -9v-296h120v-68h-120v-521c0 -9.33301 1.5 -17 4.5 -23s6.83301 -10.5 11.5 -13.5s9.5 -5 14.5 -6s9.5 -1.5 13.5 -1.5c8.66699 0 16.5 2.83301 23.5 8.5s13 12.667 18 21s8.83301 17.5 11.5 27.5c3.33301 10 5 19.333 5 28l14 5l58 -48
c-4 -21.333 -11.333 -39.5 -22 -54.5s-23.667 -27.333 -39 -37s-32.333 -16.834 -51 -21.501s-38 -7 -58 -7c-29.333 0 -53.666 3.33301 -72.999 10s-34.833 16.834 -46.5 30.501s-19.834 30.834 -24.501 51.501c-4.66699 20 -7 44 -7 72v479h-95z" />
    <glyph glyph-name="u" unicode="u" horiz-adv-x="893" 
d="M58 631l-0.00195312 68.001h242v-482c0 -20 3.16699 -38.5 9.5 -55.5s15.333 -31.5 27 -43.5s25.5 -21.667 41.5 -29s33.333 -11 52 -11c22.667 0 44.167 4.83301 64.5 14.5s37.833 23 52.5 40s26.334 36.833 35.001 59.5c8 24 12 49.333 12 76v363h-94v68h240v-631h96
v-68h-244v88c-10.667 -14 -23 -27 -37 -39s-30.167 -22.5 -48.5 -31.5s-39.166 -16.167 -62.499 -21.5c-22.667 -5.33301 -48.667 -8 -78 -8c-32 0 -61 4.66699 -87 14s-48.333 24.666 -67 45.999s-33.167 49 -43.5 83s-15.5 75.667 -15.5 125v375h-95z" />
    <glyph glyph-name="v" unicode="v" horiz-adv-x="815" 
d="M44 631v68h310v-68h-88l186 -465l182 465h-85v68h231v-68h-70l-258 -643h-73l-271 643h-64z" />
    <glyph glyph-name="w" unicode="w" horiz-adv-x="1202" 
d="M41 631v68h329v-68h-99l148 -383l18 -47l195 507h24l183 -504l167 427h-95v68h251v-68h-72l-254 -643h-64l-166 444l-178 -444h-65l-249 643h-73z" />
    <glyph glyph-name="x" unicode="x" horiz-adv-x="813" 
d="M41 631v68h330v-68h-87l145 -195l153 195h-82v68h248v-68h-74l-200 -255l229 -308h69v-68h-330v68h86l-145 194l-153 -194h80v-68h-258v68h88l198 253l-230 310h-67z" />
    <glyph glyph-name="y" unicode="y" horiz-adv-x="814" 
d="M41 631v68h315v-68h-91l186 -449l190 449h-95v68h238v-68h-64l-364 -868h102v-68h-276v68h92l100 239l-269 629h-64z" />
    <glyph glyph-name="z" unicode="z" horiz-adv-x="768" 
d="M81 0c0 8 0.166992 14.667 0.5 20s0.833008 9.66602 1.5 12.999s1.66699 6.33301 3 9s3 5.33398 5 8.00098l379 571l4 5h-288v-130h-89v203h573v-35l-390 -586l-3 -6h308v131h90v-203h-594z" />
    <glyph glyph-name="braceleft" unicode="{" horiz-adv-x="463" 
d="M54 418c22.667 6.66699 40.834 14.999 54.501 24.999s24.334 22.333 32.001 37s12.834 31.334 15.501 50.001s4 40.667 4 66v246c0 42.667 4.33301 78.167 13 106.5s23.334 50.666 44.001 66.999s48 27.833 82 34.5s76.333 10 127 10v-16
c-40 -12 -69.167 -33.667 -87.5 -65s-27.5 -74 -27.5 -128v-232c0 -28 -0.666992 -52.833 -2 -74.5s-5.16602 -40.834 -11.499 -57.501s-16.5 -30.667 -30.5 -42s-33.667 -20.333 -59 -27c25.333 -6.66699 45 -15.667 59 -27s24.167 -25.333 30.5 -42s10.166 -36 11.499 -58
s2 -47 2 -75v-261c0 -54 9 -96.333 27 -127c18.667 -32 48 -54 88 -66v-17c-50.667 0 -93 3.33301 -127 10s-61.333 18.334 -82 35.001s-35.334 39 -44.001 67c-8.66699 28.667 -13 64.334 -13 107.001v276c0 25.333 -1.33301 47.333 -4 66s-7.83398 35.167 -15.501 49.5
s-18.334 26.5 -32.001 36.5s-31.834 18.667 -54.501 26z" />
    <glyph glyph-name="bar" unicode="|" horiz-adv-x="377" 
d="M124 -146v1128h130v-1128h-130z" />
    <glyph glyph-name="braceright" unicode="}" horiz-adv-x="463" 
d="M37 -238c40 12 69.168 33.668 87.501 65.001s27.5 74 27.5 128v261c0 28 0.666992 53 2 75s5.33301 41.333 12 58s17 30.667 31 42s33.333 20.333 58 27c-25.333 6.66699 -44.833 15.667 -58.5 27s-23.834 25.333 -30.501 42s-10.667 36 -12 58s-2 46.667 -2 74v232
c0 54 -9 96.333 -27 127c-18 32 -47.333 54 -88 66v16c50.667 0 93.167 -3.33301 127.5 -10s61.833 -18.167 82.5 -34.5s35.334 -38.666 44.001 -66.999s13 -63.833 13 -106.5v-246c0 -25.333 1.33301 -47.333 4 -66s7.66699 -35.334 15 -50.001s17.666 -27 30.999 -37
s31.333 -18.333 54 -25c-22.667 -7.33301 -40.667 -16 -54 -26s-23.666 -22.167 -30.999 -36.5s-12.333 -30.833 -15 -49.5s-4 -40.667 -4 -66v-276c0 -42.667 -4.33301 -78.167 -13 -106.5s-23.334 -50.833 -44.001 -67.5s-48.167 -28.334 -82.5 -35.001
s-76.833 -10 -127.5 -10v17z" />
    <glyph glyph-name="asciitilde" unicode="~" horiz-adv-x="777" 
d="M65 352c25.333 48 55.168 83.3311 89.501 105.998s70.5 34 108.5 34c23.333 0 47.333 -3.66699 72 -11s49.667 -17.666 75 -30.999c20 -10.667 38.333 -18.167 55 -22.5s31.667 -6.5 45 -6.5c21.333 0 39.666 5.83301 54.999 17.5s28.666 28.834 39.999 51.501l107 -60
c-25.333 -48 -55 -83.333 -89 -106s-70 -34 -108 -34c-23.333 0 -47.333 3.33301 -72 10s-49.667 16.667 -75 30c-20 10.667 -38.333 18.334 -55 23.001s-32 7 -46 7c-21.333 0 -39.666 -6 -54.999 -18c-14.667 -10.667 -28 -27.334 -40 -50.001z" />
    <glyph glyph-name="uni00A0" unicode="&#xa0;" horiz-adv-x="512" 
 />
    <glyph glyph-name="cent" unicode="&#xa2;" horiz-adv-x="785" 
d="M92 484c0 30.667 2.99805 60.999 8.99805 90.999s14.667 58.167 26 84.5s25.5 50.666 42.5 72.999s36.833 41.833 59.5 58.5s47.834 30 75.501 40s58.167 15.667 91.5 17v115h85v-123c13.333 -3.33301 26 -7.33301 38 -12s23 -9.66699 33 -15s18.833 -10.833 26.5 -16.5
s13.5 -11.167 17.5 -16.5l-6 60h81l15 -240h-76l-4 29c-2 20.667 -6.5 39 -13.5 55s-16.167 30 -27.5 42s-24 21.333 -38 28c-14 8 -29.333 13.333 -46 16v-574c17.333 2 34.166 5.83301 50.499 11.5s31.833 12.5 46.5 20.5s27.667 17.333 39 28s21 22.334 29 35.001h8
l49 -65c-29.333 -28 -63.166 -50 -101.499 -66s-78.5 -26.333 -120.5 -31v-105h-85v104c-49.333 4 -93 15.333 -131 34s-69.667 43.334 -95 74.001s-44.666 67 -57.999 109s-20 88.333 -20 139zM241.998 468.999c0 -42.667 4.49902 -79.5029 13.499 -110.503
s20.667 -57.167 35 -78.5s30.833 -38 49.5 -50c18.667 -13.333 37.334 -22.666 56.001 -27.999v563c-18.667 -5.33301 -37 -14.666 -55 -27.999s-34.333 -31.666 -49 -54.999s-26.667 -52.333 -36 -87s-14 -76.667 -14 -126z" />
    <glyph glyph-name="sterling" unicode="&#xa3;" horiz-adv-x="738" 
d="M70 404l-0.000976562 74.9961h78c-4 6.66699 -9 17.167 -15 31.5s-12 30.166 -18 47.499s-11 35.5 -15 54.5s-6 36.833 -6 53.5c0 83.333 22.167 147.5 66.5 192.5s108.833 67.5 193.5 67.5c22.667 0 42.667 -1.5 60 -4.5s32.5 -6.66699 45.5 -11
s24.5 -9.16602 34.5 -14.499s19.333 -10.666 28 -15.999c4 -2.66699 7.5 -4.66699 10.5 -6s5.83301 -3 8.5 -5l27 46h62v-235h-75c-8 58.667 -26.333 103.5 -55 134.5s-68.667 46.5 -120 46.5c-20.667 0 -40.167 -2.83301 -58.5 -8.5s-34.333 -14 -48 -25
s-24.334 -24.5 -32.001 -40.5s-11.5 -34.333 -11.5 -55c0 -20 2.5 -40.667 7.5 -62s12 -42.666 21 -63.999s19 -42.666 30 -63.999s22.5 -42.333 34.5 -63h188v-75h-160c2 -13.333 3.66699 -27 5 -41s2 -29 2 -45c0 -17.333 -1.16699 -34.833 -3.5 -52.5
s-6.16602 -34.667 -11.499 -51s-12.5 -31.833 -21.5 -46.5s-20.167 -28 -33.5 -40l2 2h308v92h85v-222h-591v72c21.333 4 41.333 11 60 21s35.334 22.667 50.001 38s26 33 34 53s12 41.333 12 64c0 28.667 -4 55.834 -12 81.501s-18 50.5 -30 74.5h-136z" />
    <glyph glyph-name="yen" unicode="&#xa5;" horiz-adv-x="921" 
d="M25 836v76h391v-76h-118l210 -408l8 -14l220 422h-116v76h280v-76h-77l-86.5 -165l-87.5 -165h133v-100h-186l-24.5 -47l-24.5 -47l1 1v-15h234v-98h-234v-124h108v-76h-366v76h108v124h-236v98h236v12l-50 96h-186v100h132l-88 165l-88 165h-93z" />
    <glyph glyph-name="copyright" unicode="&#xa9;" horiz-adv-x="1131" 
d="M64 489c0 48.667 6 94.666 18 137.999s28.833 83.333 50.5 120s47.667 69.667 78 99s64.166 54.333 101.499 75s77.333 36.334 120 47.001c42.667 11.333 87.334 17 134.001 17s91.334 -5.5 134.001 -16.5s82.667 -26.833 120 -47.5s71 -45.667 101 -75
s56 -62.333 78 -99s38.833 -76.667 50.5 -120s17.5 -89.333 17.5 -138c0 -48 -5.83301 -93.5 -17.5 -136.5s-28.5 -83.167 -50.5 -120.5s-48 -71 -78 -101s-63.667 -55.5 -101 -76.5s-77.333 -37.167 -120 -48.5s-87.334 -17 -134.001 -17s-91.334 5.66699 -134.001 17
s-82.667 27.5 -120 48.5s-71.166 46.5 -101.499 76.5s-56.333 63.667 -78 101s-38.5 77.5 -50.5 120.5s-18 88.5 -18 136.5zM170 488.999c0 -38 4.83301 -74.499 14.5 -109.499s23.167 -67.667 40.5 -98s38.166 -58.166 62.499 -83.499s51.166 -46.833 80.499 -64.5
s60.666 -31.334 93.999 -41.001s68 -14.5 104 -14.5s71 4.83301 105 14.5s65.667 23.334 95 41.001s56 39.167 80 64.5s44.667 53.166 62 83.499s31 63 41 98s15 71.5 15 109.5c0 37.333 -5 73.5 -15 108.5s-23.667 67.833 -41 98.5s-38 58.334 -62 83.001
s-50.667 46 -80 64s-61 31.667 -95 41s-69 14 -105 14s-70.667 -4.66699 -104 -14s-64.666 -23 -93.999 -41s-56.166 -39.333 -80.499 -64s-45.166 -52.334 -62.499 -83.001s-30.833 -63.334 -40.5 -98.001s-14.5 -71 -14.5 -109zM297 492
c0 20 1.83203 40.999 5.49902 62.999s10.167 43.333 19.5 64s21.333 40.334 36 59.001s33 35 55 49s48 25 78 33s64.333 12 103 12c24 0 46.333 -1.33301 67 -4s39.334 -6.33398 56.001 -11.001s31 -9.66699 43 -15c13.333 -6 24 -11.667 32 -17v-102h-35
c-5.33301 14.667 -12.166 28.167 -20.499 40.5s-19 22.833 -32 31.5s-28 15.5 -45 20.5s-36.167 7.5 -57.5 7.5c-26 0 -50.167 -5 -72.5 -15s-41.833 -24.5 -58.5 -43.5s-29.667 -42.5 -39 -70.5s-14 -59.333 -14 -94c0 -36 4 -69.333 12 -100s19.5 -56.667 34.5 -78
s33.667 -38 56 -50s48.5 -18 78.5 -18c18.667 0 37 2 55 6s34.667 10.167 50 18.5s29.166 19.333 41.499 33s22.5 30.5 30.5 50.5h38l-22 -113c-17.333 -9.33301 -35.833 -16.833 -55.5 -22.5s-39 -10.167 -58 -13.5s-36.5 -5.66602 -52.5 -6.99902
c-17.333 -1.33301 -31.333 -2 -42 -2c-46.667 0 -87.667 6.33301 -123 19s-65.333 31 -90 55s-43.167 54 -55.5 90s-18.5 77.333 -18.5 124z" />
    <glyph glyph-name="guillemotleft" unicode="&#xab;" horiz-adv-x="779" 
d="M56 350l78 62l75.5 59.5l75 59l77.5 61.5v-130l-150 -111l148 -116v-123zM386 350l78 62l75.5 59.5l75 59l77.5 61.5v-130l-150 -111l148 -116v-123z" />
    <glyph glyph-name="uni00AD" unicode="&#xad;" horiz-adv-x="803" 
d="M102 277v127h598v-127h-598z" />
    <glyph glyph-name="registered" unicode="&#xae;" horiz-adv-x="1131" 
d="M64 489c0 48.667 6 94.666 18 137.999s28.833 83.333 50.5 120s47.667 69.667 78 99s64.166 54.333 101.499 75s77.333 36.334 120 47.001c42.667 11.333 87.334 17 134.001 17s91.334 -5.5 134.001 -16.5s82.667 -26.833 120 -47.5s71 -45.667 101 -75
s56 -62.333 78 -99s38.833 -76.667 50.5 -120s17.5 -89.333 17.5 -138c0 -48 -5.83301 -93.5 -17.5 -136.5s-28.5 -83.167 -50.5 -120.5s-48 -71 -78 -101s-63.667 -55.5 -101 -76.5s-77.333 -37.167 -120 -48.5s-87.334 -17 -134.001 -17s-91.334 5.66699 -134.001 17
s-82.667 27.5 -120 48.5s-71.166 46.5 -101.499 76.5s-56.333 63.667 -78 101s-38.5 77.5 -50.5 120.5s-18 88.5 -18 136.5zM170 488.999c0 -38 4.83301 -74.499 14.5 -109.499s23.167 -67.667 40.5 -98s38.166 -58.166 62.499 -83.499s51.166 -46.833 80.499 -64.5
s60.666 -31.334 93.999 -41.001s68 -14.5 104 -14.5s71 4.83301 105 14.5s65.667 23.334 95 41.001s56 39.167 80 64.5s44.667 53.166 62 83.499s31 63 41 98s15 71.5 15 109.5c0 37.333 -5 73.5 -15 108.5s-23.667 67.833 -41 98.5s-38 58.334 -62 83.001
s-50.667 46 -80 64s-61 31.667 -95 41s-69 14 -105 14s-70.667 -4.66699 -104 -14s-64.666 -23 -93.999 -41s-56.166 -39.333 -80.499 -64s-45.166 -52.334 -62.499 -83.001s-30.833 -63.334 -40.5 -98.001s-14.5 -71 -14.5 -109zM350 228l0.00390625 48.001h65v447h-65v47
h229c29.333 0 56.5 -3.66699 81.5 -11s46.833 -18.333 65.5 -33s33.5 -32.667 44.5 -54s16.5 -45.333 16.5 -72c0 -21.333 -3.83301 -40.166 -11.5 -56.499s-17.5 -30.333 -29.5 -42s-25 -21.167 -39 -28.5s-28 -13 -42 -17l87 -138
c9.33301 -14.667 17.666 -26.5 24.999 -35.5s16.333 -13.5 27 -13.5c6.66699 -0.666992 12.667 -0.333984 18 0.999023v-42c-4 -0.666992 -7.33301 -1.33398 -10 -2.00098s-5.66699 -1.16699 -9 -1.5s-7.33301 -0.833008 -12 -1.5s-10.334 -1 -17.001 -1
c-12.667 0 -23.834 0.666992 -33.501 2s-18.834 4.33301 -27.501 9s-17.167 12 -25.5 22s-17.5 23.667 -27.5 41l-52 86c-12 20 -22 34.667 -30 44s-16.333 14 -25 14h-51v-164h65v-48h-217zM502.004 490.001l73.999 -0.000976562c21.333 0 39.333 2.66699 54 8
s26.834 13 36.501 23s16.834 21.667 21.501 35c4 13.333 6 28.666 6 45.999s-2.16699 33.333 -6.5 48s-11.333 27.334 -21 38.001s-21.834 19.334 -36.501 26.001c-14.667 6 -32.667 9 -54 9h-74v-233z" />
    <glyph glyph-name="guillemotright" unicode="&#xbb;" horiz-adv-x="779" 
d="M88 462v130l304 -242l-302 -238v122l148 118l-36.5 26l-38.5 28.5l-39 28.5zM418 462v130l304 -242l-302 -238v122l148 118l-36.5 26l-38.5 28.5l-39 28.5z" />
    <glyph glyph-name="onequarter" unicode="&#xbc;" horiz-adv-x="1118" 
d="M93 790c10.667 6.66699 22.833 15.334 36.5 26.001l41.5 33c14 11.333 27 22.666 39 33.999c13.333 11.333 24 21 32 29h54v-496h92v-42h-282v42h92v395c-12 -10.667 -24 -20.5 -36 -29.5s-24.667 -17.833 -38 -26.5zM243.999 0l593 912h120l-595 -912h-118zM637.999 135
v10l258 411h90v-367h64v-54h-64v-135h-95v135h-253zM729.999 189h161v261z" />
    <glyph glyph-name="onehalf" unicode="&#xbd;" horiz-adv-x="1118" 
d="M93 790c10.667 6.66699 22.833 15.334 36.5 26.001l41.5 33c14 11.333 27 22.666 39 33.999c13.333 11.333 24 21 32 29h54v-496h92v-42h-282v42h92v395c-12 -10.667 -24 -20.5 -36 -29.5s-24.667 -17.833 -38 -26.5zM208.999 0l593 912h120l-595 -912h-118zM677.999 6
c0 2.66699 1.33301 5.33398 4 8.00098l58 64l83.5 92.5c25.667 28.333 48.167 55.333 67.5 81s34.333 50.667 45 75s16 49.833 16 76.5c0 12 -1.83301 24.167 -5.5 36.5s-9.33398 23.5 -17.001 33.5s-16.834 18.333 -27.501 25s-23.334 10 -38.001 10
s-26.667 -3.66699 -36 -11s-17.166 -16.333 -23.499 -27s-10.833 -22.334 -13.5 -35.001s-4 -24.334 -4 -35.001h-98c0 24 4.5 45 13.5 63s21.667 33 38 45s36 21 59 27s48.5 9 76.5 9c24.667 0 47.834 -3 69.501 -9s40.667 -15.333 57 -28s29.333 -28.667 39 -48
s14.5 -42.333 14.5 -69c0 -23.333 -5.33301 -45.833 -16 -67.5s-24.167 -42.167 -40.5 -61.5s-34.166 -37.666 -53.499 -54.999l-54 -48l-82 -77h244v-81h-369c-4.66699 0 -7 2 -7 6z" />
    <glyph glyph-name="threequarters" unicode="&#xbe;" horiz-adv-x="1118" 
d="M70 521l96.9951 -0.00195312c0 -11.333 1.16699 -24.5 3.5 -39.5s6.83301 -29.333 13.5 -43s16 -25.167 28 -34.5s28 -14 48 -14c18.667 0 34.334 4.33301 47.001 13s22.5 19.334 29.5 32.001s12 26.667 15 42s4.5 29.333 4.5 42c0 17.333 -1 33 -3 47
s-6.33301 26.167 -13 36.5s-16.667 18.5 -30 24.5s-32 9 -56 9h-18v46c6.66699 -0.666992 13.334 -1.16699 20.001 -1.5s14 -0.5 22 -0.5c17.333 0 31.166 2.5 41.499 7.5s18 12 23 21s8.16699 19.5 9.5 31.5s2 25.333 2 40c0 12.667 -1.66699 24.667 -5 36
s-8.66602 21.166 -15.999 29.499s-16.166 15.166 -26.499 20.499s-22.166 8 -35.499 8c-15.333 0 -28 -4 -38 -12s-18.167 -18 -24.5 -30s-10.666 -24.667 -12.999 -38s-3.5 -25.666 -3.5 -36.999h-92c0 28 4.5 52.167 13.5 72.5s21.5 36.833 37.5 49.5s35.333 22 58 28
c22 6 47 9 75 9c22.667 0 44 -2.66699 64 -8s37.667 -13.666 53 -24.999s27.333 -25.666 36 -42.999s13 -38 13 -62c0 -30.667 -6.66699 -56.334 -20 -77.001s-35.333 -35.667 -66 -45c18 -3.33301 33.167 -9.16602 45.5 -17.499s22.5 -18.833 30.5 -31.5
s13.667 -26.667 17 -42s5 -31 5 -47c0 -28.667 -5 -53.667 -15 -75s-24 -39 -42 -53s-39.333 -24.5 -64 -31.5s-51 -10.5 -79 -10.5c-128 0 -192 57.667 -192 173zM278.995 -0.00195312l593 912h120l-595 -912h-118zM652.995 134.998v10l257 411h92v-367h62v-54h-62v-135
h-96v135h-253zM745.995 188.998h160v261z" />
    <glyph glyph-name="multiply" unicode="&#xd7;" horiz-adv-x="768" 
d="M98 538l88 87l199 -199l198 197l87 -87l-198 -198l198 -196l-88 -88l-197 198l-199 -200l-87 88l199 198z" />
    <glyph glyph-name="divide" unicode="&#xf7;" horiz-adv-x="866" 
d="M102 281v125h661v-125h-661zM342 102c0 13.333 1.99805 25.665 5.99805 36.998s10 21.333 18 30s18 15.334 30 20.001c10.667 4.66699 23.334 7 38.001 7s27.667 -2.5 39 -7.5s20.833 -11.667 28.5 -20s13.334 -18 17.001 -29s5.5 -22.5 5.5 -34.5
c0 -14.667 -2.16699 -27.834 -6.5 -39.501s-10.5 -21.667 -18.5 -30s-17.5 -14.666 -28.5 -18.999s-23.167 -6.5 -36.5 -6.5s-25.5 2 -36.5 6s-20.667 10 -29 18s-14.833 18 -19.5 30c-4.66699 10.667 -7 23.334 -7 38.001zM341.998 585.999
c0 13.333 1.99805 25.666 5.99805 36.999s10 21.333 18 30s18 15.334 30 20.001c10.667 4.66699 23.334 7 38.001 7s27.667 -2.5 39 -7.5s20.833 -11.667 28.5 -20s13.334 -18.166 17.001 -29.499s5.5 -23 5.5 -35c0 -14.667 -2.16699 -27.667 -6.5 -39
s-10.5 -21.333 -18.5 -30s-17.5 -15.334 -28.5 -20.001s-23.167 -7 -36.5 -7s-25.5 2.33301 -36.5 7s-20.667 11 -29 19s-14.833 17.667 -19.5 29s-7 24.333 -7 39z" />
    <glyph glyph-name="kokaithai" unicode="&#xe01;" horiz-adv-x="905" 
d="M67 594c22 25.333 46 48.6689 72 70.002s54.667 39.333 86 54s65.333 26 102 34s76.667 12 120 12c56 0 104.333 -5 145 -15s74.5 -23 101.5 -39s48.333 -34 64 -54s26.5 -40 32.5 -60v-596h-146v592c-5.33301 16 -14 30.833 -26 44.5s-26.667 25.667 -44 36
s-37.333 18.166 -60 23.499s-47.334 8 -74.001 8c-29.333 0 -57 -2.33301 -83 -7s-50.167 -11.334 -72.5 -20.001s-42.5 -19 -60.5 -31c-17.333 -12 -32.666 -24.667 -45.999 -38l143 -98v-510h-143v508z" />
    <glyph glyph-name="khokhaithai" unicode="&#xe02;" horiz-adv-x="852" 
d="M65 550c0 34.667 5.50195 65.1729 16.502 91.5059s26.167 48.666 45.5 66.999s42 32.166 68 41.499s53.667 14 83 14c33.333 0 63.166 -4.66699 89.499 -14s48.333 -23.333 66 -42s31 -41.5 40 -68.5s13.5 -57.833 13.5 -92.5c0 -21.333 -1.83301 -40.333 -5.5 -57
s-8.33398 -32.5 -14.001 -47.5s-11.667 -29.167 -18 -42.5s-12.5 -27.333 -18.5 -42s-10.667 -30.334 -14 -47.001s-5 -35.334 -5 -56.001v-151c5.33301 -16.667 16 -30.334 32 -41.001s35.333 -16 58 -16c26 0 46.667 5.33301 62 16c14.667 10 24 23 28 39v652h145v-644
c-4 -13.333 -11.167 -27 -21.5 -41s-25 -27 -44 -39s-42.5 -21.667 -70.5 -29c-27.333 -7.33301 -60.333 -11 -99 -11c-37.333 0 -70 4 -98 12s-52 18 -72 30s-35.667 25 -47 39s-18.333 27 -21 39v106c0 26.667 3.83301 50.167 11.5 70.5s17.167 38.666 28.5 54.999
s23.833 31.833 37.5 46.5s26.167 29.667 37.5 45s20.666 32.333 27.999 51s11 40.334 11 65.001c0 24 -3.33301 45.833 -10 65.5s-16 36.334 -28 50.001s-26 24.167 -42 31.5c-17.333 6.66699 -35.333 10 -54 10s-35 -1.5 -49 -4.5s-26.333 -7.16699 -37 -12.5
s-20 -11.5 -28 -18.5s-14.667 -14.833 -20 -23.5c7.33301 1.33301 15.833 1.5 25.5 0.5s19.5 -3.16699 29.5 -6.5s19.667 -7.83301 29 -13.5s17.833 -12.834 25.5 -21.501s13.667 -18.834 18 -30.501s6.5 -25.5 6.5 -41.5c0 -18 -3 -33.833 -9 -47.5s-14 -25.167 -24 -34.5
s-21.667 -16.5 -35 -21.5s-26.666 -7.16699 -39.999 -6.5c-14 0 -27.5 2.33301 -40.5 7s-24.833 12 -35.5 22s-19.167 23 -25.5 39s-9.5 35.333 -9.5 58zM122.002 547.006c0 -12 1.66602 -22.3311 4.99902 -30.998s7.66602 -16 12.999 -22s11.333 -10.5 18 -13.5
s13.334 -4.83301 20.001 -5.5c6.66699 0 13.167 1.16699 19.5 3.5s12 6.16602 17 11.499s9 11.666 12 18.999s4.5 16.333 4.5 27c0 11.333 -2.83301 21.5 -8.5 30.5s-13.167 16.333 -22.5 22s-19.666 9.66699 -30.999 12s-23.333 2.83301 -36 1.5
c-2.66699 -8 -5.16699 -16.667 -7.5 -26s-3.5 -19 -3.5 -29z" />
    <glyph glyph-name="khokhuatthai" unicode="&#xe03;" horiz-adv-x="852" 
d="M59 599c0 20 2.99805 39.501 8.99805 58.501s14.333 36.167 25 51.5s23.5 28.166 38.5 38.499s31.167 17.166 48.5 20.499l106 -88l113 88c40 -9.33301 70.833 -28 92.5 -56s32.5 -62 32.5 -102c0 -21.333 -2.66699 -40.666 -8 -57.999s-12.333 -33.833 -21 -49.5
s-17.834 -31 -27.501 -46s-18.667 -30.167 -27 -45.5s-15.166 -31.666 -20.499 -48.999s-8 -36.333 -8 -57v-201c5.33301 -16.667 16 -30.334 32 -41.001s35.333 -16 58 -16c26 0 46.667 5.33301 62 16c14.667 10 24 23 28 39v652h145v-644
c-4 -13.333 -11.167 -27 -21.5 -41s-25 -27 -44 -39s-42.5 -21.667 -70.5 -29c-27.333 -7.33301 -60.333 -11 -99 -11c-37.333 0 -70 4 -98 12s-52 18 -72 30s-35.667 25 -47 39s-18.333 27 -21 39v156c0 26.667 4.83301 50.5 14.5 71.5s21.834 40.333 36.501 58
s30.5 34.167 47.5 49.5s32.833 31.333 47.5 48s26.667 34.667 36 54s14 41 14 65c0 9.33301 -1 18.666 -3 27.999s-5 18 -9 26s-9.66699 15 -17 21s-15.666 10.333 -24.999 13l-120 -90l-114 90c-9.33301 -5.33301 -17.166 -12 -23.499 -20s-11.333 -16.667 -15 -26
s-6.5 -19 -8.5 -29s-3 -19.667 -3 -29c0 -28 6.66699 -50.333 20 -67s32 -25 56 -25c13.333 0 24.166 2.66699 32.499 8s15.166 12 20.499 20l41 -28c-4 -9.33301 -9.66699 -17.333 -17 -24s-15.166 -12.167 -23.499 -16.5s-17.333 -7.66602 -27 -9.99902
s-18.5 -3.5 -26.5 -3.5c-22 0 -41.667 4 -59 12s-31.833 18.5 -43.5 31.5s-20.667 28.667 -27 47s-9.5 37.833 -9.5 58.5z" />
    <glyph glyph-name="khokhwaithai" unicode="&#xe04;" horiz-adv-x="909" 
d="M116 0l0.000976562 598.002c1.33301 12 6 24.167 14 36.5s19.333 24.666 34 36.999s32 23.833 52 34.5s42.333 20.334 67 29.001s51.334 15.334 80.001 20.001s59 7 91 7c48 0 92.167 -5.33301 132.5 -16s75.333 -24.167 105 -40.5s53.5 -34.333 71.5 -54
s28.333 -38.834 31 -57.501v-594h-148v592c-1.33301 12 -6.33301 24.667 -15 38s-20.834 25.333 -36.501 36s-35.334 19.334 -59.001 26.001s-51.5 10 -83.5 10s-59.5 -3.66699 -82.5 -11s-42 -16.333 -57 -27s-26.5 -22.334 -34.5 -35.001s-13 -24.334 -15 -35.001v-211
c9.33301 17.333 20.5 34.833 33.5 52.5s27.833 33.5 44.5 47.5s35 25.333 55 34s41.333 13 64 13c20 0 37.5 -3.33301 52.5 -10s27.5 -15.667 37.5 -27s17.5 -24.333 22.5 -39s7.5 -29.334 7.5 -44.001c0 -40 -9.66699 -71.667 -29 -95s-47 -35 -83 -35
c-18.667 0 -35 3.66699 -49 11s-25.333 16.5 -34 27.5s-15 22.833 -19 35.5s-5.66699 24.334 -5 35.001c0 6.66699 0.666992 13.667 2 21c2 6.66699 5 14 9 22c-9.33301 -10.667 -19.333 -23.334 -30 -38.001s-20.667 -31 -30 -49s-18.333 -37.333 -27 -58
s-16 -41.667 -22 -63v-224h-147zM415.501 393.502c1 -11 3.66504 -21.001 7.99805 -30.001s10.5 -16.5 18.5 -22.5s17.333 -9 28 -9c12.667 0 23 3.33301 31 10s13.833 15.334 17.5 26.001s5.33398 22 5.00098 34s-2.66602 23 -6.99902 33s-10.833 18.5 -19.5 25.5
s-19 10.5 -31 10.5h-10c-10.667 -3.33301 -19 -9 -25 -17s-10.333 -17.333 -13 -28s-3.5 -21.5 -2.5 -32.5z" />
    <glyph glyph-name="khokhonthai" unicode="&#xe05;" horiz-adv-x="921" 
d="M116 0l0.00195312 624.001c2 12 9.16699 26 21.5 42s28.5 31.333 48.5 46s43.667 27.167 71 37.5s57.333 15.833 90 16.5l113 -88l114 88c35.333 -1.33301 66.833 -7.33301 94.5 -18s51.167 -23.334 70.5 -38.001s34.666 -30.334 45.999 -47.001s18.333 -31.667 21 -45
v-618h-148v631c0 8 -1.66699 15.5 -5 22.5s-7.83301 13.833 -13.5 20.5s-12.167 12.334 -19.5 17.001c-8 4.66699 -16 8.33398 -24 11.001l-136 -100l-138 102c-6.66699 -1.33301 -13.334 -4.33301 -20.001 -9s-13 -10.5 -19 -17.5s-10.833 -14.333 -14.5 -22
s-5.5 -15.167 -5.5 -22.5v-250c9.33301 17.333 20.5 34.833 33.5 52.5s27.833 33.5 44.5 47.5s35 25.333 55 34s41.333 13 64 13c20 0 37.5 -3.33301 52.5 -10s27.5 -15.667 37.5 -27s17.5 -24.333 22.5 -39s7.5 -29.334 7.5 -44.001c0 -40 -9.66699 -71.667 -29 -95
s-47 -35 -83 -35c-18.667 0 -35 3.66699 -49 11s-25.333 16.5 -34 27.5s-15 22.833 -19 35.5s-5.66699 24.334 -5 35.001c0 6.66699 0.666992 13.667 2 21c2 6.66699 5 14 9 22c-9.33301 -10.667 -19.333 -23.334 -30 -38.001s-20.667 -31 -30 -49s-18.333 -37.333 -27 -58
s-16 -41.667 -22 -63v-224h-147zM415.502 393.501c1 -11 3.66504 -21.001 7.99805 -30.001s10.5 -16.5 18.5 -22.5s17.333 -9 28 -9c12.667 0 23 3.33301 31 10s13.833 15.334 17.5 26.001s5.33398 22 5.00098 34s-2.66602 23 -6.99902 33s-10.833 18.5 -19.5 25.5
s-19 10.5 -31 10.5h-10c-10.667 -3.33301 -19 -9 -25 -17s-10.333 -17.333 -13 -28s-3.5 -21.5 -2.5 -32.5z" />
    <glyph glyph-name="khorakhangthai" unicode="&#xe06;" horiz-adv-x="989" 
d="M84 599c0 20 3.00293 39.5049 9.00293 58.5049s14.333 36.167 25 51.5s23.334 28.166 38.001 38.499s31 17.166 49 20.499l107 -88l112 88c40 -9.33301 70.833 -28 92.5 -56s32.5 -62 32.5 -102c0 -21.333 -2.5 -40.5 -7.5 -57.5s-11.167 -33.333 -18.5 -49
s-15.333 -30.834 -24 -45.501s-16.834 -29.834 -24.501 -45.501s-14 -32 -19 -49s-7.5 -35.833 -7.5 -56.5c26.667 -6.66699 53.334 -15.667 80.001 -27s52 -24.5 76 -39.5s46.667 -31.167 68 -48.5s40 -35.666 56 -54.999v617h146v-672
c0 -18.667 -2.83301 -34.334 -8.5 -47.001s-13 -22.334 -22 -29.001s-19.333 -10.667 -31 -12s-23.334 -0.666016 -35.001 2.00098s-22.834 7.66699 -33.501 15s-19.334 16.666 -26.001 27.999c-22 34.667 -44.667 63.834 -68 87.501s-46.666 43.834 -69.999 60.501
s-46.166 30 -68.499 40s-43.5 18 -63.5 24v-155c0 -17.333 -3.33301 -32.333 -10 -45s-16.334 -23.334 -29.001 -32.001s-27.334 -15.334 -44.001 -20.001s-35.334 -7 -56.001 -7c-24 0 -45.333 3.66699 -64 11s-34.334 17.666 -47.001 30.999s-22.167 29.333 -28.5 48
s-9.5 39.334 -9.5 62.001c0 24 3.33301 45.667 10 65s16.334 36.333 29.001 51s27.834 26.5 45.501 35.5s37.834 14.833 60.501 17.5c5.33301 21.333 13.333 40.333 24 57s22.667 32.5 36 47.5s27.166 29.333 41.499 43s27.333 28 39 43s21.167 31.167 28.5 48.5
c8 17.333 12 37.333 12 60c0 9.33301 -1 18.666 -3 27.999s-5.33301 18 -10 26s-10.334 15 -17.001 21s-15.334 10.333 -26.001 13l-118 -90l-115 90c-9.33301 -5.33301 -17.166 -12 -23.499 -20s-11.5 -16.667 -15.5 -26s-6.66699 -19 -8 -29s-2 -19.667 -2 -29
c0 -28 6.66699 -50.333 20 -67c12 -16.667 30 -25 54 -25c13.333 0 24.333 2.66699 33 8s15.667 12 21 20l40 -28c-4 -9.33301 -9.33301 -17.333 -16 -24s-14.334 -12.167 -23.001 -16.5s-17.667 -7.66602 -27 -9.99902s-18.666 -3.5 -27.999 -3.5c-22 0 -41.5 4 -58.5 12
s-31.5 18.5 -43.5 31.5s-21 28.667 -27 47s-9 37.833 -9 58.5zM210.003 150.005c0 -18 1.99707 -33.498 5.99707 -46.498s9.33301 -23.667 16 -32s14.334 -14.5 23.001 -18.5s17.667 -6 27 -6c6.66699 0 12 2.16699 16 6.5s6 9.16602 6 14.499v191
c-12.667 -2.66699 -24.667 -6.5 -36 -11.5s-21.166 -11.833 -29.499 -20.5s-15.166 -19.334 -20.499 -32.001s-8 -27.667 -8 -45z" />
    <glyph glyph-name="ngonguthai" unicode="&#xe07;" horiz-adv-x="704" 
d="M54 396l-0.00292969 76.999l163 -173l61 -65.5l55 -58.5l42 -44l21 -22c6.66699 -6.66699 13 -11 19 -13s11.167 -2.16699 15.5 -0.5s7.5 4.83398 9.5 9.50098c1.33301 5.33301 2 11.666 2 18.999c-0.666992 4 -1.16699 12.167 -1.5 24.5s-0.666016 25.5 -0.999023 39.5
l-1 40.5c-0.333008 13 -0.5 22.5 -0.5 28.5v136v31c1.33301 10 2 19 2 27v25c-17.333 0 -34.666 2.83301 -51.999 8.5s-33 14.667 -47 27s-25.333 28.333 -34 48s-13 43.834 -13 72.501c0 21.333 3.5 40.166 10.5 56.499s17.333 29.833 31 40.5s30.167 19 49.5 25s41 9 65 9
s44.333 -2.5 61 -7.5s30.667 -12 42 -21s19.333 -19.167 24 -30.5s7 -23.666 7 -36.999v-566c0 -20 -3 -37 -9 -51s-14.333 -25.667 -25 -35s-23 -16 -37 -20s-28.667 -6 -44 -6c-20 0 -37.167 2.66699 -51.5 8s-27.166 12.833 -38.499 22.5s-22.333 20.667 -33 33l-34 40.5
zM344.997 627.999c0 -29.333 7.66699 -52.665 23 -69.998c15.333 -18.667 40.333 -29.334 75 -32.001v153c0 8.66699 -2.33301 15.667 -7 21c-4 5.33301 -12 8 -24 8c-6.66699 0 -14 -1.33301 -22 -4s-15.333 -7.33398 -22 -14.001s-12.167 -15 -16.5 -25
s-6.5 -22.333 -6.5 -37z" />
    <glyph glyph-name="chochanthai" unicode="&#xe08;" horiz-adv-x="837" 
d="M52 628c15.333 20 34.167 38.666 56.5 55.999s47.666 32 75.999 44s59.333 21.333 93 28s69.834 10 108.501 10c50.667 0 95.834 -4.33301 135.501 -13s73.667 -20 102 -34s50.833 -29.667 67.5 -47s27 -35.333 31 -54v-514c-4.66699 -22 -14.167 -40.167 -28.5 -54.5
s-31.833 -26 -52.5 -35s-43 -15.333 -67 -19s-48 -5.5 -72 -5.5c-22.667 0 -45.667 2 -69 6s-44.833 10.667 -64.5 20s-36.667 21.333 -51 36s-24.166 33.334 -29.499 56.001v49v31v26c0 9.33301 0.666992 18 2 26c-17.333 0 -35 3 -53 9s-34 15 -48 27
s-25.333 27.833 -34 47.5s-13 43.834 -13 72.501c0 21.333 3.66699 40 11 56s17.666 29.667 30.999 41s29.666 19.833 48.999 25.5s41 8.5 65 8.5s44.333 -2.5 61 -7.5s30.167 -11.833 40.5 -20.5s17.833 -19 22.5 -31s7 -24.667 7 -38v-338
c4 -18.667 12.333 -31.834 25 -39.501s29.334 -11.5 50.001 -11.5c19.333 0 35.166 3.83301 47.499 11.5s19.833 20.167 22.5 37.5v512c-2 12 -8.5 24 -19.5 36s-26 23 -45 33s-41.667 18 -68 24s-56.166 9 -89.499 9c-26 0 -51.167 -3 -75.5 -9s-47 -14 -68 -24
s-39.833 -21.667 -56.5 -35s-30.334 -27 -41.001 -41zM194.001 391.999c0 -29.333 7.66699 -53.001 23 -71.001s40.333 -28.333 75 -31v152c0 8.66699 -2.33301 15.834 -7 21.501s-13 8.5 -25 8.5c-6.66699 0 -14 -1.5 -22 -4.5s-15.167 -7.66699 -21.5 -14
s-11.833 -14.833 -16.5 -25.5c-4 -9.33301 -6 -21.333 -6 -36z" />
    <glyph glyph-name="chochingthai" unicode="&#xe09;" horiz-adv-x="949" 
d="M78 622c13.333 18.667 29.668 36.8301 49.001 54.4971s42.833 33 70.5 46s59.667 23.5 96 31.5s78.5 12 126.5 12c58.667 0 108.667 -5 150 -15s75.333 -22.667 102 -38s47 -32.5 61 -51.5s23 -37.5 27 -55.5v-290c15.333 -0.666992 31.333 -4.16699 48 -10.5
s32 -16.166 46 -29.499s25.5 -30.333 34.5 -51s13.5 -45.667 13.5 -75c0 -50.667 -12.333 -90 -37 -118s-62.667 -42 -114 -42c-21.333 0 -40.5 2.33301 -57.5 7s-31.5 11.167 -43.5 19.5s-21 18 -27 29s-9 23.167 -9 36.5v172c-10.667 -4 -24.667 -10.667 -42 -20
s-35.833 -22 -55.5 -38s-39.834 -35.333 -60.501 -58c-21.333 -22.667 -41.666 -50 -60.999 -82c-4.66699 -8 -10 -16 -16 -24s-12.5 -15 -19.5 -21s-14.667 -10.667 -23 -14s-16.833 -5 -25.5 -5c-10.667 0 -20.667 1.16699 -30 3.5s-17.833 6.33301 -25.5 12
s-13.667 12.834 -18 21.501s-6.5 19.667 -6.5 33v94c0 10.667 0.333008 21.334 1 32.001v26c0 9.33301 0.333008 18 1 26c-17.333 0 -34.833 3 -52.5 9s-33.5 15 -47.5 27s-25.333 27.833 -34 47.5s-13 43.834 -13 72.501c0 21.333 3.66699 40 11 56
s17.666 29.667 30.999 41s29.666 19.833 48.999 25.5s41 8.5 65 8.5s44.5 -2.5 61.5 -7.5s31 -11.833 42 -20.5s19 -19 24 -31s7.5 -24.667 7.5 -38l-1 -272c20 22 39.833 41.167 59.5 57.5s39 30.833 58 43.5s38.333 23 58 31s39.834 14.667 60.501 20v280
c-2.66699 12 -9 24.667 -19 38s-23.667 26 -41 38s-39 21.667 -65 29s-56.667 11 -92 11c-25.333 0 -50.5 -2.16699 -75.5 -6.5s-49 -11.333 -72 -21s-44 -21.834 -63 -36.501s-35.167 -32 -48.5 -52zM138.002 391.996c0 -29.333 7.66699 -53.001 23 -71.001
s40.333 -28.333 75 -31v152c0 8.66699 -2.33301 15.834 -7 21.501s-13 8.5 -25 8.5c-6.66699 0 -14 -1.5 -22 -4.5s-15.333 -7.66699 -22 -14s-12 -14.833 -16 -25.5c-4 -9.33301 -6 -21.333 -6 -36zM758.002 65.9951c0 -2 0.329102 -4.1709 0.996094 -6.50391
s1.83398 -4.5 3.50098 -6.5s4.16699 -3.66699 7.5 -5c4 -1.33301 8.66699 -2 14 -2c8.66699 0 16.834 2.33301 24.501 7s14.334 11.334 20.001 20.001s10.167 19.667 13.5 33s5 28 5 44c0 14.667 -1.5 28.334 -4.5 41.001s-8.16699 23.834 -15.5 33.501
s-16.666 17.334 -27.999 23.001s-25 9.16699 -41 10.5v-192z" />
    <glyph glyph-name="chochangthai" unicode="&#xe0a;" horiz-adv-x="852" 
d="M65 550c0 34.667 5.50293 65.1719 16.5029 91.5049s26.167 48.666 45.5 66.999s42 32.166 68 41.499s53.667 14 83 14c30.667 0 59 -4 85 -12s48.167 -20.333 66.5 -37s32.5 -37.667 42.5 -63s15 -55.333 15 -90c0 -21.333 -1.83301 -40.333 -5.5 -57
s-8.33398 -32.334 -14.001 -47.001s-11.667 -29 -18 -43s-12.5 -28.333 -18.5 -43s-10.667 -30.334 -14 -47.001s-5 -35 -5 -55v-166c5.33301 -16.667 16 -30.334 32 -41.001s35.333 -16 58 -16c26 0 46.667 5.33301 62 16c14.667 10 24 23 28 39v468
c0 9.33301 -1.66699 17.333 -5 24s-8 11.334 -14 14.001c-8.66699 4 -15.334 9.83301 -20.001 17.5s-7 15.667 -7 24s2.66699 16.5 8 24.5s12.666 14.667 21.999 20c15.333 8 31.5 17.167 48.5 27.5s32.5 23.166 46.5 38.499s25.667 33.5 35 54.5s14 45.5 14 73.5l93 -31
c-1.33301 -20.667 -6.33301 -41 -15 -61s-20.167 -39 -34.5 -57s-31.166 -34.667 -50.499 -50s-40.666 -29 -63.999 -41c10.667 -4 21.167 -9 31.5 -15s19.666 -13.667 27.999 -23s15.166 -20.666 20.499 -33.999s8 -28.666 8 -45.999v-420
c-4 -13.333 -11.167 -27 -21.5 -41s-25 -27 -44 -39s-42.5 -21.667 -70.5 -29c-27.333 -7.33301 -60.333 -11 -99 -11c-37.333 0 -70 4 -98 12s-52 18 -72 30s-35.667 25 -47 39s-18.333 27 -21 39v121c0 26.667 3.83301 50.167 11.5 70.5s17.167 38.833 28.5 55.5
s23.833 32 37.5 46s26.167 29 37.5 45s20.666 33.167 27.999 51.5s11 39.833 11 64.5c0 24 -4 45 -12 63s-18.333 33 -31 45s-27 20.667 -43 26s-32 8 -48 8c-18.667 0 -35 -1.5 -49 -4.5s-26.333 -7.16699 -37 -12.5s-20 -11.5 -28 -18.5s-14.667 -14.833 -20 -23.5
c7.33301 1.33301 15.833 1.5 25.5 0.5s19.5 -3.16699 29.5 -6.5s19.667 -7.83301 29 -13.5s17.833 -12.834 25.5 -21.501s13.667 -18.834 18 -30.501s6.5 -25.5 6.5 -41.5c0 -18 -3 -33.833 -9 -47.5s-14 -25.167 -24 -34.5s-21.667 -16.5 -35 -21.5
s-26.666 -7.16699 -39.999 -6.5c-14 0 -27.5 2.33301 -40.5 7s-24.833 12 -35.5 22s-19.167 23 -25.5 39s-9.5 35.333 -9.5 58zM122.003 547.005c0 -12 1.66602 -22.3311 4.99902 -30.998s7.66602 -16 12.999 -22s11.333 -10.5 18 -13.5s13.334 -4.83301 20.001 -5.5
c6.66699 0 13.167 1.16699 19.5 3.5s12 6.16602 17 11.499s9 11.666 12 18.999s4.5 16.333 4.5 27c0 11.333 -2.83301 21.5 -8.5 30.5s-13.167 16.333 -22.5 22s-19.666 9.66699 -30.999 12s-23.333 2.83301 -36 1.5c-2.66699 -8 -5.16699 -16.667 -7.5 -26
s-3.5 -19 -3.5 -29z" />
    <glyph glyph-name="sosothai" unicode="&#xe0b;" horiz-adv-x="852" 
d="M59 599c0 20 3 39.499 9 58.499s14.333 36.167 25 51.5s23.5 28.166 38.5 38.499s31.167 17.166 48.5 20.499l106 -88l113 88c40 -9.33301 70.833 -28 92.5 -56s32.5 -62 32.5 -102c0 -21.333 -2.66699 -40.666 -8 -57.999s-12.333 -33.833 -21 -49.5
s-17.834 -31 -27.501 -46s-18.667 -30.167 -27 -45.5s-15.166 -31.666 -20.499 -48.999s-8 -36.333 -8 -57v-201c5.33301 -16.667 16 -30.334 32 -41.001s35.333 -16 58 -16c26 0 46.667 5.33301 62 16c14.667 10 24 23 28 39v468c0 9.33301 -1.66699 17.333 -5 24
s-8 11.334 -14 14.001c-8.66699 4 -15.334 9.83301 -20.001 17.5s-7 15.667 -7 24s2.66699 16.5 8 24.5s12.666 14.667 21.999 20c15.333 8 31.5 17.167 48.5 27.5s32.5 23.166 46.5 38.499s25.667 33.5 35 54.5s14 45.5 14 73.5l93 -31
c-1.33301 -20.667 -6.33301 -41 -15 -61s-20.167 -39 -34.5 -57s-31.166 -34.667 -50.499 -50s-40.666 -29 -63.999 -41c10.667 -4 21.167 -9 31.5 -15s19.666 -13.667 27.999 -23s15.166 -20.666 20.499 -33.999s8 -28.666 8 -45.999v-420
c-4 -13.333 -11.167 -27 -21.5 -41s-25 -27 -44 -39s-42.5 -21.667 -70.5 -29c-27.333 -7.33301 -60.333 -11 -99 -11c-37.333 0 -70 4 -98 12s-52 18 -72 30s-35.667 25 -47 39s-18.333 27 -21 39v156c0 26.667 4.83301 50.5 14.5 71.5s21.834 40.333 36.501 58
s30.5 34.167 47.5 49.5s32.833 31.333 47.5 48s26.667 34.667 36 54s14 41 14 65c0 9.33301 -1 18.666 -3 27.999s-5 18 -9 26s-9.66699 15 -17 21s-15.666 10.333 -24.999 13l-120 -90l-114 90c-9.33301 -5.33301 -17.166 -12 -23.499 -20s-11.333 -16.667 -15 -26
s-6.5 -19 -8.5 -29s-3 -19.667 -3 -29c0 -28 6.66699 -50.333 20 -67s32 -25 56 -25c13.333 0 24.166 2.66699 32.499 8s15.166 12 20.499 20l41 -28c-4 -9.33301 -9.66699 -17.333 -17 -24s-15.166 -12.167 -23.499 -16.5s-17.333 -7.66602 -27 -9.99902
s-18.5 -3.5 -26.5 -3.5c-22 0 -41.667 4 -59 12s-31.833 18.5 -43.5 31.5s-20.667 28.667 -27 47s-9.5 37.833 -9.5 58.5z" />
    <glyph glyph-name="chochoethai" unicode="&#xe0c;" horiz-adv-x="1303" 
d="M69 594c22.667 26 47.6631 49.4951 74.9961 70.4951s57 38.833 89 53.5s66.667 26 104 34c36.667 8 77 12 121 12c56 0 105.667 -4.83301 149 -14.5s80 -22.334 110 -38.001s53.333 -33.5 70 -53.5s26.334 -40.667 29.001 -62v-298c20 -6.66699 40.333 -15.167 61 -25.5
s40.667 -22.666 60 -36.999s37.833 -30.666 55.5 -48.999s33.5 -38.166 47.5 -59.499v627h148v-694c0 -13.333 -3.33301 -24.666 -10 -33.999s-15.334 -16.833 -26.001 -22.5s-22.334 -9.33398 -35.001 -11.001s-25 -1.66699 -37 0s-23.333 5.5 -34 11.5
c-9.33301 5.33301 -16.666 12.666 -21.999 21.999c-14 26 -28.167 49.833 -42.5 71.5s-29.5 41.334 -45.5 59.001s-34 33.5 -54 47.5s-42 26.667 -66 38v-156c0 -28.667 -11.333 -51.5 -34 -68.5s-57.667 -25.5 -105 -25.5c-19.333 0 -37.666 2.66699 -54.999 8
s-32.5 14 -45.5 26s-23.333 28 -31 48s-11.5 44.667 -11.5 74c0 25.333 4 47.666 12 66.999s18.5 35.666 31.5 48.999s27.5 24 43.5 32s32 13.333 48 16v280c-2.66699 14.667 -9.83398 28.834 -21.501 42.501s-27.167 25.667 -46.5 36s-41.666 18.5 -66.999 24.5
s-52.666 9 -81.999 9c-24 0 -48.667 -1.83301 -74 -5.5s-50 -9.5 -74 -17.5s-46.667 -18 -68 -30c-21.333 -12.667 -40 -27 -56 -43l143 -98v-184l-4 -44c18.667 -0.666992 36.834 -3.66699 54.501 -9s33.334 -14.166 47.001 -26.499s24.667 -28.166 33 -47.499
s12.5 -43.333 12.5 -72c0 -21.333 -3.33301 -40.166 -10 -56.499s-16.667 -30.166 -30 -41.499s-29.5 -20 -48.5 -26s-40.5 -9 -64.5 -9s-44.5 2.66699 -61.5 8s-31.167 12.333 -42.5 21s-19.333 19 -24 31s-7 24.667 -7 38v416zM318.996 65.9951
c0 -7.33301 2.83301 -12 8.5 -14s11.834 -3 18.501 -3c7.33301 0 15 1.33301 23 4s15.5 7.16699 22.5 13.5s12.667 14.666 17 24.999s6.5 23.5 6.5 39.5c0 29.333 -7.33301 53 -22 71c-14.667 18.667 -39.334 29.334 -74.001 32.001v-168zM586.996 147.995
c0 -34 5.50098 -59.665 16.501 -76.998s25.167 -26 42.5 -26c7.33301 0 13.666 1.33301 18.999 4c5.33301 3.33301 8 7 8 11v196c-9.33301 -0.666992 -19 -2.83398 -29 -6.50098s-19.167 -9.83398 -27.5 -18.501s-15.333 -19.667 -21 -33s-8.5 -30 -8.5 -50z" />
    <glyph glyph-name="yoyingthai" unicode="&#xe0d;" horiz-adv-x="1288" 
d="M69 594c22.667 25.333 46.9951 48.3262 72.9951 68.9932s54.667 38.667 86 54s65.333 27 102 35c36 8 76 12 120 12c56 0 104.333 -5 145 -15s74.5 -23 101.5 -39s47.5 -34 61.5 -54c14.667 -20 23.334 -40.667 26.001 -62v-446c1.33301 -9.33301 3.83301 -20 7.5 -32
s10 -23 19 -33s21.5 -18.333 37.5 -25c14.667 -7.33301 34.667 -11 60 -11s45.666 3.83301 60.999 11.5s27.166 16.834 35.499 27.501s14 21.667 17 33s4.83301 21 5.5 29v606h145v-604c-2 -18.667 -8.5 -37.667 -19.5 -57s-27.167 -36.666 -48.5 -51.999
s-48.666 -27.666 -81.999 -36.999s-72.666 -14 -117.999 -14c-46 0 -85.167 4.66699 -117.5 14s-59.166 21.333 -80.499 36s-37.666 31 -48.999 49s-18.333 35.667 -21 53v448c-2.66699 14.667 -8.83398 29 -18.501 43s-22.667 26.333 -39 37s-36.166 19 -59.499 25
s-50 9 -80 9c-26.667 0 -53 -2.66699 -79 -8s-50.5 -12.333 -73.5 -21s-43.5 -19 -61.5 -31s-33 -24 -45 -36l143 -98v-184l-4 -44c18.667 -0.666992 36.834 -3.66699 54.501 -9s33.334 -14.166 47.001 -26.499s24.667 -28.166 33 -47.499s12.5 -43.333 12.5 -72
c0 -21.333 -3.33301 -40.166 -10 -56.499s-16.667 -30.166 -30 -41.499s-29.5 -20 -48.5 -26s-40.5 -9 -64.5 -9s-44.5 2.66699 -61.5 8s-31.167 12.333 -42.5 21s-19.333 19 -24 31s-7 24.667 -7 38v416zM318.995 65.9932c0 -7.33301 2.83301 -12 8.5 -14
s11.834 -3 18.501 -3c7.33301 0 15 1.33301 23 4s15.5 7.16699 22.5 13.5s12.667 14.666 17 24.999s6.5 23.5 6.5 39.5c0 29.333 -7.33301 53 -22 71c-14.667 18.667 -39.334 29.334 -74.001 32.001v-168zM627.995 -143.007c1.33301 16 5.99902 30.1631 13.999 42.4961
s18.333 22.333 31 30s27 12.5 43 14.5c17.333 2.66699 34.666 2.33398 51.999 -0.999023c25.333 -6 45.666 -15 60.999 -27s27 -26 35 -42s13 -33.667 15 -53s1.66699 -39 -1 -59c24 1.33301 47.333 5.33301 70 12s43.334 16.667 62.001 30s34 30.333 46 51s20 46 24 76
l100 -19c-6 -29.333 -15.5 -54.666 -28.5 -75.999s-28.833 -39.666 -47.5 -54.999s-39 -27.833 -61 -37.5s-45 -17 -69 -22s-48.333 -7.83301 -73 -8.5s-49 0 -73 2c-33.333 2.66699 -62.666 7.83398 -87.999 15.501s-46.666 17.5 -63.999 29.5s-30 26 -38 42
c-8 16.667 -11.333 35 -10 55zM679.994 -152.011c-1.33301 -12.667 1.66895 -23.834 9.00195 -33.501s17.666 -18.167 30.999 -25.5s29.333 -12.833 48 -16.5s38.667 -6.16699 60 -7.5c1.33301 13.333 1.66602 26.833 0.999023 40.5s-3.33398 26.167 -8.00098 37.5
s-11.667 21.333 -21 30s-21.666 14.334 -36.999 17.001c-26.667 5.33301 -46.667 4 -60 -4c-14 -8 -21.667 -20.667 -23 -38z" />
    <glyph glyph-name="dochadathai" unicode="&#xe0e;" horiz-adv-x="959" 
d="M82 132c0 28.667 4.32617 52.4941 12.9932 71.4941s20 34.167 34 45.5s30 19.666 48 24.999s36.333 8 55 8l-4 44v182l-121 86c19.333 26.667 41.833 50.334 67.5 71.001s54.5 38.334 86.5 53.001s67.167 26 105.5 34s80.5 12 126.5 12c56 0 105.167 -5 147.5 -15
s78 -23.167 107 -39.5s51.333 -34.666 67 -54.999s25.5 -41.166 29.5 -62.499v-828c0 -19.333 -4 -35.5 -12 -48.5s-19 -22.167 -33 -27.5s-29.667 -6 -47 -2c-18.667 4 -37.334 13.333 -56.001 28l-35.5 28.5c-10.333 8.33301 -21.166 16.333 -32.499 24
s-23.833 15.334 -37.5 23.001l-49.5 26.5c-2.66699 -19.333 -9.16699 -37.5 -19.5 -54.5s-23.833 -31.833 -40.5 -44.5s-36.667 -22.5 -60 -29.5s-49 -10.5 -77 -10.5c-34 0 -62.167 3.33301 -84.5 10s-40.166 15.5 -53.499 26.5s-23 23.833 -29 38.5s-9 30 -9 46
c0 17.333 3.83301 33.333 11.5 48s19 27.334 34 38.001s33.5 19 55.5 25s47.667 9 77 9c9.33301 0 20.166 -0.666992 32.499 -2s24.666 -3 36.999 -5s24.5 -4.66699 36.5 -8s22.333 -6.66602 31 -9.99902c-1.33301 11.333 -3.66602 23.666 -6.99902 36.999
c-3.33301 14.667 -7.66602 26 -12.999 34l59 20c6.66699 -16 12 -34 16 -54s6.66699 -39.333 8 -58c30.667 -11.333 58.334 -23.5 83.001 -36.5s48.334 -26.833 71.001 -41.5l-4 166v628c-2.66699 14.667 -9.66699 29 -21 43s-26.333 26.333 -45 37
s-40.667 19.334 -66 26.001s-52.666 10 -81.999 10c-25.333 0 -50.666 -1.83301 -75.999 -5.5s-49.333 -9.5 -72 -17.5s-44 -18 -64 -30c-20 -12.667 -37.333 -27 -52 -43l155 -98v-418c0 -13.333 -2.5 -26 -7.5 -38s-13 -22.333 -24 -31s-25 -15.667 -42 -21
s-37.5 -8 -61.5 -8s-45.667 3.33301 -65 10s-35.666 16 -48.999 28s-23.666 26.333 -30.999 43s-11 35.667 -11 57zM133.993 135.994c0 -16 2.33203 -29.499 6.99902 -40.499s10.667 -20 18 -27s15 -12 23 -15s15.667 -4.5 23 -4.5c6.66699 0 12.834 0.833008 18.501 2.5
s8.5 6.5 8.5 14.5v168c-34.667 -2.66699 -59.667 -12.334 -75 -29.001s-23 -39.667 -23 -69zM234.992 -204.005c0 -6.66699 1.50195 -13.667 4.50195 -21s8.5 -14 16.5 -20s19 -11 33 -15s31.667 -6 53 -6c20 0 38.333 2.66699 55 8s31 12.5 43 21.5s21.833 19.667 29.5 32
s12.167 25.833 13.5 40.5c-21.333 8 -43.833 14.5 -67.5 19.5s-46.167 7.5 -67.5 7.5c-22.667 0 -41.334 -2.33301 -56.001 -7s-26.334 -10.5 -35.001 -17.5s-14.5 -14.5 -17.5 -22.5s-4.5 -14.667 -4.5 -20z" />
    <glyph glyph-name="topatakthai" unicode="&#xe0f;" horiz-adv-x="959" 
d="M30 -217c0 18.667 3.32715 35.1592 9.99414 49.4922s16.334 26.5 29.001 36.5s28 17.667 46 23s37.333 8 58 8c22.667 0 44.834 -3.33301 66.501 -10s43.5 -16 65.5 -28c0 10.667 -1 21.334 -3 32.001s-5.33301 21.334 -10 32.001l58 18
c9.33301 -21.333 15 -42.333 17 -63s0.666992 -40.334 -4 -59.001c10.667 -8 20.834 -16.667 30.501 -26l30.5 -30l134 135l144 -128l-5 183l-1 632c-2.66699 14.667 -9.66699 29 -21 43s-26.333 26.333 -45 37s-40.667 19.334 -66 26.001s-52.666 10 -81.999 10
c-25.333 0 -50.666 -1.83301 -75.999 -5.5s-49.333 -9.5 -72 -17.5s-44 -18 -64 -30c-20 -12.667 -37.333 -27 -52 -43l155 -98v-418c0 -13.333 -2.5 -26 -7.5 -38s-13 -22.333 -24 -31s-25 -15.667 -42 -21s-37.5 -8 -61.5 -8s-45.667 3.33301 -65 10
s-35.666 16 -48.999 28s-23.666 26.333 -30.999 43s-11 35.667 -11 57c0 28.667 4.33301 52.5 13 71.5s20 34.167 34 45.5s30 19.666 48 24.999s36.333 8 55 8l-4 44v182l-121 86c19.333 26.667 41.833 50.334 67.5 71.001s54.5 38.334 86.5 53.001s67.167 26 105.5 34
s80.5 12 126.5 12c56 0 105.167 -5 147.5 -15s78 -23.167 107 -39.5s51.333 -34.666 67 -54.999s25.5 -41.166 29.5 -62.499v-829c0 -16 -2.66699 -30 -8 -42s-12.666 -22.167 -21.999 -30.5s-20 -14.5 -32 -18.5s-24.333 -5.66699 -37 -5s-25 3.33398 -37 8.00098
s-23.333 12.334 -34 23.001l-114 112l-136 -133c-16 17.333 -31 32.833 -45 46.5l-40 37.5c-16.667 -26.667 -39.334 -48.5 -68.001 -65.5s-61 -25.5 -97 -25.5c-18.667 0 -36.834 2.33301 -54.501 7s-33 11.834 -46 21.501s-23.5 21.5 -31.5 35.5s-12 30.333 -12 49z
M91.9941 -218.008c0 -8 2.00098 -15.5 6.00098 -22.5s9.33301 -13.167 16 -18.5s15 -9.5 25 -12.5s21.667 -4.5 35 -4.5c28 0 52 6.66699 72 20c20.667 13.333 36 31.333 46 54c-21.333 14.667 -41.333 25.667 -60 33s-38 11 -58 11c-14.667 0 -27.334 -1.66699 -38.001 -5
s-19.167 -8 -25.5 -14s-11 -12.667 -14 -20s-4.5 -14.333 -4.5 -21zM133.995 135.992c0 -16 2.33203 -29.499 6.99902 -40.499s10.667 -20 18 -27s15 -12 23 -15s15.667 -4.5 23 -4.5c6.66699 0 12.834 0.833008 18.501 2.5s8.5 6.5 8.5 14.5v168
c-34.667 -2.66699 -59.667 -12.334 -75 -29.001s-23 -39.667 -23 -69z" />
    <glyph glyph-name="thothanthai" unicode="&#xe10;" horiz-adv-x="805" 
d="M25 -325c0 14.667 2.49512 27.999 7.49512 39.999s12.167 22.167 21.5 30.5s20.333 14.666 33 18.999s26.667 6.5 42 6.5c14 0 27.333 -2.16699 40 -6.5s25.334 -11.833 38.001 -22.5c-1.33301 14.667 -3.5 28.334 -6.5 41.001s-7.83301 23.667 -14.5 33l40 16
c5.33301 -9.33301 9.66602 -20.166 12.999 -32.499s6 -24.666 8 -36.999s2.83301 -24.166 2.5 -35.499s-1.5 -21 -3.5 -29c8.66699 -10.667 16.334 -20.667 23.001 -30s12.334 -19.333 17.001 -30l36 87c2.66699 6 6.5 10.333 11.5 13s10.333 3.66699 16 3
s11.167 -2.83398 16.5 -6.50098s9 -8.83398 11 -15.501c5.33301 -18 11.5 -33 18.5 -45s14.667 -21.667 23 -29s18 -12.5 29 -15.5s23.167 -4.5 36.5 -4.5h63v60c-17.333 0 -34.166 2.33301 -50.499 7s-30.666 12.167 -42.999 22.5s-22.333 23.5 -30 39.5
s-11.5 35.333 -11.5 58c0 22 3.66699 41.167 11 57.5s17.333 29.833 30 40.5s27.334 18.667 44.001 24s34 8 52 8c22 0 41.5 -2.66699 58.5 -8s31.333 -13 43 -23s20.5 -21.5 26.5 -34.5s9 -27.167 9 -42.5v-178c0 -14.667 -3 -27.667 -9 -39s-14 -21 -24 -29
s-21 -13.833 -33 -17.5s-24 -5.5 -36 -5.5h-116c-14.667 1.33301 -28.5 4.5 -41.5 9.5s-24.667 11.5 -35 19.5s-19.5 17.667 -27.5 29s-14 25 -18 41l-39 -90h-39c-4 10.667 -9.33301 22.667 -16 36c-8 13.333 -16 25.333 -24 36c-9.33301 -20.667 -23 -36 -41 -46
s-37.333 -15 -58 -15c-14.667 0 -28.334 2.16699 -41.001 6.5s-23.667 10.5 -33 18.5s-16.666 17.5 -21.999 28.5s-8 23.167 -8 36.5zM48.9951 606.499c-0.666992 7 0.344727 14.665 3.01172 22.998s6.66699 16.5 12 24.5c10.667 14.667 24.334 29 41.001 43
s36.5 26.333 59.5 37s49.333 19.334 79 26.001s63.167 10 100.5 10c25.333 0 50 -2.66699 74 -8s47.167 -11.333 69.5 -18s43.666 -12.667 63.999 -18s39.833 -8 58.5 -8c19.333 0 36.833 4 52.5 12s27.5 18 35.5 30l30 -48c-4 -5.33301 -9.66699 -11.166 -17 -17.499
s-16.333 -12.166 -27 -17.499s-22.334 -9.66602 -35.001 -12.999s-26.667 -5 -42 -5c-21.333 0 -42.833 2.33301 -64.5 7s-43.5 9.83398 -65.5 15.501s-44 10.834 -66 15.501s-43.667 7 -65 7c-27.333 0 -51.5 -2.5 -72.5 -7.5s-39 -11.333 -54 -19
s-27.333 -15.834 -37 -24.501s-17.167 -17 -22.5 -25c16 -0.666992 36.333 -2 61 -4s51.834 -5 81.501 -9s60.667 -8.83301 93 -14.5s64.166 -12.834 95.499 -21.501s60.666 -18.334 87.999 -29.001s51 -22.667 71 -36c12 -8 21 -18.333 27 -31s9 -28.334 9 -47.001v-336
c-4.66699 -22 -13.834 -40.167 -27.501 -54.5s-30.334 -25.5 -50.001 -33.5s-41.334 -13.667 -65.001 -17s-47.5 -5 -71.5 -5c-22.667 0 -45.334 1.66699 -68.001 5s-44 9.33301 -64 18s-37 20.334 -51 35.001s-23.667 33.334 -29 56.001v21v43
c-17.333 0 -34.333 2.66699 -51 8s-31.834 14.166 -45.501 26.499s-24.834 28.333 -33.501 48s-13 44.167 -13 73.5c0 20 3.83301 38 11.5 54s18.167 30 31.5 42s29.5 21 48.5 27s39.833 9 62.5 9c24 0 44.667 -2.5 62 -7.5s31.5 -12 42.5 -21s19.167 -19.5 24.5 -31.5
s8 -24.667 8 -38v-270c2 -15.333 8.83301 -27 20.5 -35s26.5 -12 44.5 -12c8.66699 0 17 0.833008 25 2.5s15 4.5 21 8.5s10.833 8.66699 14.5 14s5.5 12 5.5 20v346c0 17.333 -2.5 30.166 -7.5 38.499s-11.5 14.5 -19.5 18.5c-28.667 14 -60.834 26 -96.501 36
s-72.834 18.5 -111.501 25.5s-77.334 12.667 -116.001 17l-110 12.5c-9.33301 1.33301 -16.333 4.33301 -21 9s-7.33398 10.5 -8.00098 17.5zM70.0068 -324.003c0 -8 1.66602 -15 4.99902 -21s7.83301 -11 13.5 -15s12.167 -7.33301 19.5 -10c6.66699 -2 14 -3 22 -3
c7.33301 0 14.833 1.5 22.5 4.5s14.834 7.16699 21.501 12.5s12.167 11.833 16.5 19.5s7.5 16.167 9.5 25.5c-10.667 12 -21.667 21.167 -33 27.5s-24 9.5 -38 9.5c-18.667 0 -33 -4.66699 -43 -14c-10.667 -8 -16 -20 -16 -36zM168.006 319.997
c0 -13.333 1.83105 -26.001 5.49805 -38.001s9.33398 -22.5 17.001 -31.5s17.5 -16.5 29.5 -22.5s26.667 -9.66699 44 -11v168c0 7.33301 -2.66699 12 -8 14s-11.333 3 -18 3c-5.33301 0 -12 -1.33301 -20 -4s-15.667 -7.16699 -23 -13.5s-13.666 -14.666 -18.999 -24.999
s-8 -23.5 -8 -39.5zM463.004 -189.004c0 -13.333 2.16602 -24.999 6.49902 -34.999s10.5 -18.333 18.5 -25s17 -11.5 27 -14.5s21 -4.5 33 -4.5v124c0 6.66699 -2.16699 12.167 -6.5 16.5s-11.166 6.5 -20.499 6.5c-6 0 -12.333 -1.16699 -19 -3.5s-13 -6.33301 -19 -12
s-10.833 -12.834 -14.5 -21.501s-5.5 -19 -5.5 -31z" />
    <glyph glyph-name="thonangmonthothai" unicode="&#xe11;" horiz-adv-x="1038" 
d="M59 599c0 20 2.99707 39.499 8.99707 58.499s14.333 36.167 25 51.5s23.5 28.166 38.5 38.499s31.167 17.166 48.5 20.499l106 -88l113 88c40 -9.33301 70.833 -28 92.5 -56s32.5 -62 32.5 -102c0 -21.333 -2.66699 -40.666 -8 -57.999s-12.333 -33.833 -21 -49.5
s-17.834 -31 -27.501 -46s-18.667 -30.167 -27 -45.5s-15.166 -31.666 -20.499 -48.999s-8 -36.333 -8 -57v-10c0 -4.66699 -0.166992 -10 -0.5 -16s-0.666016 -12.333 -0.999023 -19s-0.5 -13.334 -0.5 -20.001v-54c15.333 36 31.833 72.333 49.5 109
s36.167 72.334 55.5 107.001l57.5 100l54.5 89l48 73c14 20.667 26.333 37.667 37 51c9.33301 12.667 21 23 35 31s28.667 13.333 44 16s30.666 2.66699 45.999 0s29.166 -8.66699 41.499 -18s22.333 -22 30 -38s11.5 -35.667 11.5 -59v-647h-144v596
c2.66699 14.667 2.66699 25.667 0 33s-7 11.5 -13 12.5s-13.333 -1.33301 -22 -7s-17.667 -15.167 -27 -28.5c-12.667 -17.333 -27.167 -38.666 -43.5 -63.999s-33.666 -53.833 -51.999 -85.5l-56.5 -101c-19.333 -35.667 -38.166 -72.167 -56.499 -109.5
s-35.833 -75 -52.5 -113s-31 -74.333 -43 -109v-24h-146v266c0 26.667 4.83301 50.5 14.5 71.5s21.834 40.333 36.501 58s30.5 34.167 47.5 49.5s32.833 31.333 47.5 48s26.667 34.667 36 54s14 41 14 65c0 9.33301 -1 18.666 -3 27.999s-5 18 -9 26s-9.66699 15 -17 21
s-15.666 10.333 -24.999 13l-120 -90l-114 90c-9.33301 -5.33301 -17.166 -12 -23.499 -20s-11.333 -16.667 -15 -26s-6.5 -19 -8.5 -29s-3 -19.667 -3 -29c0 -28 6.66699 -50.333 20 -67s32 -25 56 -25c13.333 0 24.166 2.66699 32.499 8s15.166 12 20.499 20l41 -28
c-4 -9.33301 -9.66699 -17.333 -17 -24s-15.166 -12.167 -23.499 -16.5s-17.333 -7.66602 -27 -9.99902s-18.5 -3.5 -26.5 -3.5c-22 0 -41.667 4 -59 12s-31.833 18.5 -43.5 31.5s-20.667 28.667 -27 47s-9.5 37.833 -9.5 58.5z" />
    <glyph glyph-name="thophuthaothai" unicode="&#xe12;" horiz-adv-x="1327" 
d="M118 0l-0.000976562 623.999c2 13.333 9.16699 28.166 21.5 44.499s28.5 31.666 48.5 45.999s43.667 26.333 71 36s57.333 14.834 90 15.501l129 -88l129 88c35.333 -1.33301 66.666 -6.66602 93.999 -15.999s50.833 -21.166 70.5 -35.499s35 -30 46 -47
s17.833 -33.5 20.5 -49.5v-315c46.667 -12 88.667 -33.5 126 -64.5s70 -68.167 98 -111.5v627h147v-694c0 -13.333 -3.33301 -24.666 -10 -33.999s-15.167 -16.833 -25.5 -22.5s-21.833 -9.33398 -34.5 -11.001s-25.167 -1.66699 -37.5 0s-23.666 5.33398 -33.999 11.001
s-17.833 13.167 -22.5 22.5c-13.333 26 -27.166 50.5 -41.499 73.5s-29.5 43.833 -45.5 62.5s-34 35.334 -54 50.001c-20 15.333 -42 28.666 -66 39.999v-166c0 -28.667 -11.333 -51.5 -34 -68.5s-57.667 -25.5 -105 -25.5c-20 0 -38.5 2.66699 -55.5 8s-32.167 14 -45.5 26
s-23.666 28 -30.999 48s-11 44.667 -11 74c0 25.333 4 47.666 12 66.999s18.5 35.666 31.5 48.999s27.5 24 43.5 32s32 13.333 48 16v319c0 8 -1.66699 15.5 -5 22.5s-7.83301 13.333 -13.5 19s-12.167 10.667 -19.5 15s-15 7.83301 -23 10.5l-152 -100l-154 102
c-6 -1.33301 -12.5 -4 -19.5 -8s-13.5 -9 -19.5 -15s-10.833 -12.833 -14.5 -20.5s-5.5 -15.5 -5.5 -23.5v-537c8 5.33301 17.167 12.166 27.5 20.499l32 27c11 9.66699 22 20.167 33 31.5l31.5 32c10 10 19 19.667 27 29s14.333 17.333 19 24
c-12 2.66699 -23.833 8.16699 -35.5 16.5s-21.834 18.333 -30.501 30s-16 24.834 -22 39.501s-9 30.334 -9 47.001c0 21.333 3 40.166 9 56.499s14 30.166 24 41.499s22 20 36 26s29.667 9 47 9c14.667 0 29 -2.33301 43 -7s27 -12 39 -22s21.667 -22.667 29 -38
s11 -33.666 11 -54.999c0 -12.667 -1.83301 -25.5 -5.5 -38.5s-8.16699 -25.167 -13.5 -36.5s-11.166 -22 -17.499 -32s-11.833 -18.333 -16.5 -25c-12 -16 -26.833 -34.833 -44.5 -56.5s-37.834 -44.667 -60.501 -69s-47 -49.166 -73 -74.499s-52.667 -49.333 -80 -72h-147
zM395.999 399.999c0 -14.667 2.33203 -27.167 6.99902 -37.5s10.667 -19.333 18 -27s15.333 -14.167 24 -19.5l25 -15c4.66699 6 9.66699 12.833 15 20.5s10.5 15.667 15.5 24s9 17.5 12 27.5s4.5 19.667 4.5 29c0 11.333 -1.83301 21.333 -5.5 30
s-8.33398 16.167 -14.001 22.5s-12.167 10.833 -19.5 13.5c-6.66699 3.33301 -14 5 -22 5s-15.667 -1.5 -23 -4.5s-13.666 -7.5 -18.999 -13.5s-9.66602 -13.667 -12.999 -23s-5 -20 -5 -32zM608.998 147.999c0 -34 5.5 -59.665 16.5 -76.998s25.167 -26 42.5 -26
c6.66699 0 12.667 1.33301 18 4c6 3.33301 9 7 9 11v196c-9.33301 -0.666992 -19 -2.83398 -29 -6.50098s-19.167 -9.83398 -27.5 -18.501s-15.333 -19.667 -21 -33s-8.5 -30 -8.5 -50z" />
    <glyph glyph-name="nonenthai" unicode="&#xe13;" horiz-adv-x="1318" 
d="M70 594c20 28 43.3369 52.502 70.0039 73.502s55.334 38.667 86.001 53s63.167 25.166 97.5 32.499s69.833 11 106.5 11c51.333 0 96.5 -4.66699 135.5 -14s71.833 -21.833 98.5 -37.5s47.334 -33.167 62.001 -52.5c16 -20 25.333 -40.667 28 -62v-354
c0 -7.33301 -0.666992 -15.333 -2 -24c0 -9.33301 -0.666992 -18.666 -2 -27.999c-1.33301 -10.667 -2.66602 -20.667 -3.99902 -30l4 -4c12 16 25.667 32.667 41 50s32.666 33.666 51.999 48.999s40.666 29 63.999 41s48.666 20.667 75.999 26v430h145v-432
c15.333 -2 31.5 -6.16699 48.5 -12.5s32.167 -15.833 45.5 -28.5s24.666 -29 33.999 -49s14 -44 14 -72c0 -34.667 -4.66699 -63 -14 -85s-21.833 -39 -37.5 -51s-34.167 -20 -55.5 -24s-44.333 -6 -69 -6c-18.667 0 -35 3 -49 9s-25.667 13.167 -35 21.5
s-16.333 17.166 -21 26.499s-7 17.666 -7 24.999v198l-30 -12.5c-10.667 -4.33301 -21.834 -10 -33.501 -17s-24 -16 -37 -27s-26.833 -24.667 -41.5 -41s-30 -35.833 -46 -58.5s-32.667 -49.667 -50 -81c-6.66699 -11.333 -15.167 -21.333 -25.5 -30
s-23.166 -13 -38.499 -13c-8.66699 0 -17.334 1.33301 -26.001 4s-16.5 6.66699 -23.5 12s-12.5 12.666 -16.5 21.999s-6 20.666 -6 33.999v528c-2.66699 14.667 -9.33398 28.667 -20.001 42s-24.667 25 -42 35s-37.333 18 -60 24s-47.334 9 -74.001 9
c-22.667 0 -45.5 -2.33301 -68.5 -7s-44.667 -11.334 -65 -20.001s-39 -19 -56 -31s-31.167 -24.667 -42.5 -38l144 -98v-184l-4 -44c18.667 -0.666992 36.667 -3.66699 54 -9s33 -14.166 47 -26.499s25.167 -28.166 33.5 -47.499s12.5 -43.333 12.5 -72
c0 -21.333 -3.5 -40.166 -10.5 -56.499s-17.167 -30.166 -30.5 -41.499s-29.333 -20 -48 -26s-40 -9 -64 -9s-44.667 2.66699 -62 8s-31.5 12.333 -42.5 21s-19 19 -24 31s-7.5 24.667 -7.5 38v416zM320.004 66.002c0 -7.33301 2.83398 -12 8.50098 -14s11.5 -3 17.5 -3
c7.33301 0 15.166 1.33301 23.499 4s15.833 7.16699 22.5 13.5s12.334 14.666 17.001 24.999s7 23.5 7 39.5c0 29.333 -7.33301 53 -22 71c-14.667 18.667 -39.334 29.334 -74.001 32.001v-168zM1125 72.002c0 -6 2 -11.334 6 -16.001c4.66699 -4.66699 11 -7 19 -7
c20 0 36.167 8.83301 48.5 26.5s18.5 43.834 18.5 78.501c0 14 -1.83301 27.5 -5.5 40.5s-9.16699 24.833 -16.5 35.5s-16.833 20 -28.5 28s-25.5 13.333 -41.5 16v-202z" />
    <glyph glyph-name="dodekthai" unicode="&#xe14;" horiz-adv-x="911" 
d="M118 0l0.000976562 598c1.33301 12 6 24.167 14 36.5s19.333 24.666 34 36.999s32 23.833 52 34.5s42.333 20.334 67 29.001s51.334 15.334 80.001 20.001s59 7 91 7c48 0 92.167 -5.33301 132.5 -16s75.333 -24.167 105 -40.5s53.5 -34.333 71.5 -54
s28.333 -38.834 31 -57.501v-594h-148v592c-1.33301 12 -6.33301 24.667 -15 38s-20.834 25.333 -36.501 36s-35.334 19.334 -59.001 26.001s-51.5 10 -83.5 10s-59.5 -3.66699 -82.5 -11s-42 -16.333 -57 -27s-26.5 -22.334 -34.5 -35.001s-13 -24.334 -15 -35.001v-498
c8 5.33301 17.167 12.166 27.5 20.499l32 27c11 9.66699 22 20.167 33 31.5l31.5 32c10 10 19 19.667 27 29s14.333 17.333 19 24c-12 2.66699 -23.667 8.16699 -35 16.5s-21.5 18.333 -30.5 30s-16.5 24.834 -22.5 39.501s-9 30.334 -9 47.001c0 21.333 3 40.166 9 56.499
s14.167 30.166 24.5 41.499s22.5 20 36.5 26c14.667 6 30 9 46 9c14.667 0 29 -2.33301 43 -7s27 -12 39 -22s21.667 -22.667 29 -38s11 -33.666 11 -54.999c0 -12.667 -1.83301 -25.5 -5.5 -38.5s-8.16699 -25.167 -13.5 -36.5s-11.166 -22 -17.499 -32
s-11.833 -18.333 -16.5 -25c-12 -16 -26.833 -34.833 -44.5 -56.5s-37.834 -44.667 -60.501 -69s-47 -49.166 -73 -74.499s-52.667 -49.333 -80 -72h-147zM396.001 400c0 -14.667 2.33203 -27.167 6.99902 -37.5s10.667 -19.333 18 -27s15.333 -14.167 24 -19.5l25 -15
c4.66699 6 9.66699 12.833 15 20.5s10.5 15.667 15.5 24s9 17.5 12 27.5s4.5 19.667 4.5 29c0 11.333 -1.83301 21.333 -5.5 30s-8.33398 16.167 -14.001 22.5s-12.167 10.833 -19.5 13.5c-6.66699 3.33301 -14 5 -22 5s-15.667 -1.5 -23 -4.5s-13.666 -7.5 -18.999 -13.5
s-9.66602 -13.667 -12.999 -23s-5 -20 -5 -32z" />
    <glyph glyph-name="totaothai" unicode="&#xe15;" horiz-adv-x="923" 
d="M118 0l-0.00390625 624.001c2 12 9.16699 26 21.5 42s28.666 31.333 48.999 46s44.166 27.334 71.499 38.001c28 10 58 15.333 90 16l112 -88l114 88c35.333 -1.33301 66.833 -7.33301 94.5 -18s51.334 -23.334 71.001 -38.001s35 -30.334 46 -47.001
s17.833 -31.667 20.5 -45v-618h-148v631c0 8 -1.66699 15.5 -5 22.5s-7.66602 13.333 -12.999 19s-11.666 10.667 -18.999 15s-15.333 7.83301 -24 10.5l-137 -100l-137 102c-6.66699 -1.33301 -13.5 -4 -20.5 -8s-13.333 -9 -19 -15s-10.334 -12.833 -14.001 -20.5
s-5.5 -15.5 -5.5 -23.5v-537c8 5.33301 17 12.166 27 20.499l32 27c11.333 9.66699 22.333 20.167 33 31.5l31 32c10 10 19 19.667 27 29l20 24c-12 2.66699 -23.667 8.16699 -35 16.5s-21.666 18.333 -30.999 30s-16.833 24.834 -22.5 39.501s-8.5 30.334 -8.5 47.001
c0 21.333 2.83301 40.166 8.5 56.499s13.834 30.166 24.501 41.499s23 20 37 26s29 9 45 9c14.667 0 29.167 -2.33301 43.5 -7s27.333 -12 39 -22s21.167 -22.667 28.5 -38s11 -33.666 11 -54.999c0 -12.667 -1.66699 -25.5 -5 -38.5s-7.66602 -25.167 -12.999 -36.5
s-11.333 -22 -18 -32c-5.33301 -10 -10.666 -18.333 -15.999 -25c-12 -16 -27 -34.833 -45 -56.5s-38.333 -44.667 -61 -69l-72 -74.5c-25.333 -25.333 -52 -49.333 -80 -72h-148zM395.996 400.001c0 -14.667 2.33105 -27.167 6.99805 -37.5s10.667 -19.333 18 -27
s15.333 -14.167 24 -19.5l25 -15l15.5 20.5c5.66699 7.66699 10.834 15.667 15.501 24s8.66699 17.5 12 27.5s5 19.667 5 29c0 11.333 -1.83301 21.333 -5.5 30s-8.33398 16.167 -14.001 22.5s-12.167 11 -19.5 14s-15 4.5 -23 4.5s-15.667 -1.5 -23 -4.5
s-13.666 -7.5 -18.999 -13.5s-9.66602 -13.667 -12.999 -23s-5 -20 -5 -32z" />
    <glyph glyph-name="thothungthai" unicode="&#xe16;" horiz-adv-x="913" 
d="M69 594c22.667 25.333 47 48.3301 73 68.9971s54.667 38.667 86 54s65.166 27 101.499 35s76.5 12 120.5 12c56 0 105.167 -5 147.5 -15s77.833 -23 106.5 -39s50.834 -34.333 66.501 -55s24.834 -41.334 27.501 -62.001v-593h-145v589
c-2.66699 14.667 -9.83398 29 -21.501 43s-26.834 26.333 -45.501 37s-40.334 19.167 -65.001 25.5s-52 9.5 -82 9.5c-26.667 0 -53 -2.66699 -79 -8s-50.5 -12.333 -73.5 -21s-43.5 -19 -61.5 -31s-33 -24 -45 -36l143 -98v-184l-4 -44
c18.667 -0.666992 36.834 -3.66699 54.501 -9s33.334 -14.166 47.001 -26.499s24.667 -28.166 33 -47.499s12.5 -43.333 12.5 -72c0 -21.333 -3.33301 -40.166 -10 -56.499s-16.667 -30.166 -30 -41.499s-29.5 -20 -48.5 -26s-40.5 -9 -64.5 -9s-44.5 2.66699 -61.5 8
s-31.167 12.333 -42.5 21s-19.333 19 -24 31s-7 24.667 -7 38v416zM319 65.9971c0 -7.33301 2.83301 -12 8.5 -14s11.834 -3 18.501 -3c7.33301 0 15 1.33301 23 4s15.5 7.16699 22.5 13.5s12.667 14.666 17 24.999s6.5 23.5 6.5 39.5c0 29.333 -7.33301 53 -22 71
c-14.667 18.667 -39.334 29.334 -74.001 32.001v-168z" />
    <glyph glyph-name="thothahanthai" unicode="&#xe17;" horiz-adv-x="921" 
d="M48 631c0 21.333 3.5 40.1631 10.5 56.4961s17.333 29.833 31 40.5s30.167 19 49.5 25s41 9 65 9s44.333 -2.5 61 -7.5s30.667 -12 42 -21s19.333 -19.167 24 -30.5s7 -23.666 7 -36.999v-240c0 -18 -0.666992 -37.333 -2 -58c0 -21.333 -0.666992 -41.333 -2 -60l-4 -65
c2.66699 10.667 6.5 22.5 11.5 35.5l16 40l16.5 40c5.33301 13 10 23.833 14 32.5c16 35.333 32.5 68.666 49.5 99.999l50 88c16.333 27.333 31.833 52 46.5 74s28.667 41 42 57c12 14.667 25.667 26.334 41 35.001s31.666 14.5 48.999 17.5s34.333 2.83301 51 -0.5
s31.5 -10 44.5 -20s23.667 -23.167 32 -39.5s12.5 -36.5 12.5 -60.5v-642h-148v611c0 6.66699 -2 12.834 -6 18.501s-9.33301 9.16699 -16 10.5s-13.667 0 -21 -4s-15 -11.333 -23 -22c-19.333 -29.333 -39.833 -62.666 -61.5 -99.999s-43.5 -77.666 -65.5 -120.999
s-44 -89 -66 -137c-22 -49.333 -42.333 -100 -61 -152v-104h-147v392c0 10.667 0.166992 21 0.5 31s0.5 19 0.5 27c0 9.33301 0.666992 17.666 2 24.999c-17.333 0 -34.666 2.83301 -51.999 8.5s-33 14.667 -47 27s-25.333 28.333 -34 48s-13 43.834 -13 72.501zM98 625.997
c0 -29.333 7.66699 -52.665 23 -69.998c15.333 -18.667 40.333 -29.334 75 -32.001v153c0 8.66699 -2.33301 15.667 -7 21s-12.667 8 -24 8c-6.66699 0 -14 -1.33301 -22 -4s-15.167 -7.33398 -21.5 -14.001s-11.833 -15 -16.5 -25s-7 -22.333 -7 -37z" />
    <glyph glyph-name="thothongthai" unicode="&#xe18;" horiz-adv-x="815" 
d="M74 605.5c-0.666992 7 0.327148 14.8301 2.99414 23.4971c3.33301 8.66699 7.66602 17 12.999 25c10.667 14.667 24.167 29 40.5 43s36 26.333 59 37s49.5 19.334 79.5 26.001s63.667 10 101 10c25.333 0 49 -2.66699 71 -8s43.333 -11.333 64 -18
s40.334 -12.667 59.001 -18s37.334 -8 56.001 -8c19.333 0 36.833 4 52.5 12s27.5 18 35.5 30l30 -48c-4 -5.33301 -9.66699 -11.166 -17 -17.499s-16.333 -12.166 -27 -17.499s-22.334 -9.66602 -35.001 -12.999s-26.667 -5 -42 -5c-21.333 0 -42.166 2.33301 -62.499 7
s-40.5 9.83398 -60.5 15.501s-40 10.834 -60 15.501c-21.333 4.66699 -42.666 7 -63.999 7c-27.333 0 -51.333 -2.5 -72 -7.5s-38.5 -11.333 -53.5 -19s-27.5 -15.834 -37.5 -24.501s-17.333 -17 -22 -25c36.667 -2.66699 74.667 -7.33398 114 -14.001
s79 -15.334 119 -26.001s79.667 -23 119 -37s77 -29.667 113 -47c13.333 -6.66699 25 -17 35 -31s15 -33 15 -57v-297c-2 -17.333 -10.5 -33.833 -25.5 -49.5s-35 -29.5 -60 -41.5s-54.333 -21.667 -88 -29s-70.5 -11 -110.5 -11c-33.333 0 -66.333 3 -99 9
s-62.667 15 -90 27s-50.666 26 -69.999 42s-33 33.667 -41 53v351h148v-358c2 -8 6.83301 -16 14.5 -24s17.834 -15.5 30.501 -22.5s28.334 -12.833 47.001 -17.5s39.334 -7 62.001 -7c20 0 38 2.16699 54 6.5s29.667 9.83301 41 16.5s20.333 14 27 22s11 16 13 24v302
c0 17.333 -3.16699 30.166 -9.5 38.499s-13.5 14.5 -21.5 18.5c-28.667 14 -60.167 26.667 -94.5 38s-69.833 21.333 -106.5 30s-73.667 16.334 -111 23.001c-36 6.66699 -71.333 12.667 -106 18c-9.33301 1.33301 -16.5 4.5 -21.5 9.5s-7.83301 11 -8.5 18z" />
    <glyph glyph-name="nonuthai" unicode="&#xe19;" horiz-adv-x="960" 
d="M47 631c0 21.333 3.49902 40.166 10.499 56.499s17.333 29.833 31 40.5s30.167 19 49.5 25s41 9 65 9s44.5 -2.5 61.5 -7.5s31 -12 42 -21s19 -19.167 24 -30.5s7.5 -23.666 7.5 -36.999v-422c0 -13.333 -0.333008 -25.333 -1 -36
c-0.666992 -9.33301 -1.66699 -18 -3 -26c-1.33301 -8.66699 -2 -16.667 -2 -24h2c16.667 20 36 39 58 57s45.5 34.167 70.5 48.5s51.167 26.666 78.5 36.999s54.333 18.166 81 23.499v430h148v-432c17.333 -2 34.5 -6.83301 51.5 -14.5s32.333 -18.167 46 -31.5
s24.834 -30 33.501 -50s13 -43.333 13 -70c0 -33.333 -4 -60.666 -12 -81.999s-19.333 -38 -34 -50s-32 -20.333 -52 -25c-18.667 -4.66699 -40 -7 -64 -7c-18.667 0 -36 2.33301 -52 7s-29.667 11.334 -41 20.001s-20.333 19.334 -27 32.001s-10 27 -10 43v176
c-21.333 -6.66699 -44 -15.667 -68 -27s-48.167 -26.333 -72.5 -45s-48.333 -41 -72 -67s-46.167 -57.333 -67.5 -94c-2.66699 -5.33301 -6.66699 -10.833 -12 -16.5s-11.333 -10.5 -18 -14.5s-14.334 -7.33301 -23.001 -10s-17.667 -4 -27 -4
c-8.66699 0 -17.167 1.33301 -25.5 4s-16 7 -23 13s-12.667 13.667 -17 23s-6.5 20.666 -6.5 33.999v326c0 10.667 0.166992 21 0.5 31s0.833008 19 1.5 27c0.666992 9.33301 1.33398 17.666 2.00098 24.999c-17.333 0 -34.833 2.83301 -52.5 8.5s-33.5 14.667 -47.5 27
s-25.333 28.333 -34 48s-13 43.834 -13 72.501zM97.999 626c0 -29.333 7.66699 -52.665 23 -69.998c15.333 -18.667 40.333 -29.334 75 -32.001v153c0 8.66699 -2.33301 15.667 -7 21s-12.667 8 -24 8c-6.66699 0 -14 -1.33301 -22 -4s-15.167 -7.33398 -21.5 -14.001
s-11.833 -15 -16.5 -25s-7 -22.333 -7 -37zM767.999 77.001c0 -6 2.66602 -11.834 7.99902 -17.501s12.333 -8.5 21 -8.5c8 0 15.833 1.66699 23.5 5s14.5 8.83301 20.5 16.5s10.667 18 14 31s5 29.167 5 48.5c0 16 -2.5 30.833 -7.5 44.5s-11.667 25.334 -20 35.001
s-18.166 17.5 -29.499 23.5s-23 10 -35 12v-190z" />
    <glyph glyph-name="bobaimaithai" unicode="&#xe1a;" horiz-adv-x="920" 
d="M47 631c0 21.333 3.50195 40.1641 10.502 56.4971s17.333 29.833 31 40.5s30.167 19 49.5 25s41 9 65 9s44.5 -2.5 61.5 -7.5s31 -12 42 -21s19 -19.167 24 -30.5s7.5 -23.666 7.5 -36.999v-537c1.33301 -9.33301 6 -19 14 -29s19 -18.833 33 -26.5s30.667 -14 50 -19
s41.666 -7.5 66.999 -7.5s47.666 2.83301 66.999 8.5s35.5 12.667 48.5 21s23 17.333 30 27s11.167 18.167 12.5 25.5v625h145v-604c-2 -18.667 -10.667 -37.667 -26 -57s-36.333 -36.666 -63 -51.999s-58.334 -27.666 -95.001 -36.999s-77.667 -14 -123 -14
c-46 0 -87.333 4.66699 -124 14s-68.167 21.333 -94.5 36s-46.833 31 -61.5 49c-16 18 -25.333 35.667 -28 53v250c0 10.667 0.166992 21 0.5 31s0.833008 19 1.5 27c0.666992 9.33301 1.33398 17.666 2.00098 24.999c-17.333 0 -34.833 2.83301 -52.5 8.5
s-33.5 14.667 -47.5 27s-25.333 28.333 -34 48s-13 43.834 -13 72.501zM98.002 625.998c0 -29.333 7.66699 -52.665 23 -69.998c15.333 -18.667 40.333 -29.334 75 -32.001v153c0 8.66699 -2.33301 15.667 -7 21s-12.667 8 -24 8c-6.66699 0 -14 -1.33301 -22 -4
s-15.167 -7.33398 -21.5 -14.001s-11.833 -15 -16.5 -25s-7 -22.333 -7 -37z" />
    <glyph glyph-name="poplathai" unicode="&#xe1b;" horiz-adv-x="940" 
d="M47 631c0 21.333 3.50098 40.1641 10.501 56.4971s17.333 29.833 31 40.5s30.167 19 49.5 25s41 9 65 9s44.5 -2.5 61.5 -7.5s31 -12 42 -21s19 -19.167 24 -30.5s7.5 -23.666 7.5 -36.999v-537c1.33301 -9.33301 6.5 -19 15.5 -29s21 -18.833 36 -26.5
s32.833 -14 53.5 -19s43.667 -7.5 69 -7.5s48.166 2.83301 68.499 8.5s37.666 12.667 51.999 21s25.5 17.333 33.5 27s12.667 18.167 14 25.5v969h145v-948c-2 -18.667 -11.167 -37.667 -27.5 -57s-38.333 -36.666 -66 -51.999s-60.5 -27.666 -98.5 -36.999
s-79.667 -14 -125 -14c-46 0 -87.833 4.66699 -125.5 14s-70.167 21.333 -97.5 36s-49 31 -65 49c-17.333 18 -27.333 35.667 -30 53v250c0 10.667 0.166992 21 0.5 31s0.833008 19 1.5 27c0.666992 9.33301 1.33398 17.666 2.00098 24.999
c-17.333 0 -34.833 2.83301 -52.5 8.5s-33.5 14.667 -47.5 27s-25.333 28.333 -34 48s-13 43.834 -13 72.501zM98.001 625.998c0 -29.333 7.66699 -52.665 23 -69.998c15.333 -18.667 40.333 -29.334 75 -32.001v153c0 8.66699 -2.33301 15.667 -7 21s-12.667 8 -24 8
c-6.66699 0 -14 -1.33301 -22 -4s-15.167 -7.33398 -21.5 -14.001s-11.833 -15 -16.5 -25s-7 -22.333 -7 -37z" />
    <glyph glyph-name="phophungthai" unicode="&#xe1c;" horiz-adv-x="918" 
d="M120 0l0.00292969 666.002c0 13.333 2.66699 25.666 8 36.999s13.666 21.5 24.999 30.5s25.666 16 42.999 21s38 7.5 62 7.5c48 0 85.667 -11.333 113 -34s41 -55 41 -97c0 -28.667 -4.33301 -52.834 -13 -72.501s-20 -35.667 -34 -48s-29.667 -21.166 -47 -26.499
s-35.333 -8.33301 -54 -9l6 -43v-213l-4 -96l158 159c6 6 11.5 10.667 16.5 14s9.16699 5.66602 12.5 6.99902s7 2 11 2c2.66699 0 6 -0.666992 10 -2c3.33301 -1.33301 7.33301 -3.66602 12 -6.99902c5.33301 -2.66699 10.666 -7.33398 15.999 -14.001l153 -159v631h147
v-754h-120l-220 232l-220 -232h-122zM264.003 524.002c34.667 2.66699 59.333 13 74 31s22 41.667 22 71c0 16 -2.33301 29.333 -7 40s-10.334 19 -17.001 25s-14 10 -22 12c-9.33301 2 -17.333 3 -24 3h-9c-3.33301 0 -6.16602 -0.333008 -8.49902 -1s-4.33301 -2 -6 -4
s-2.5 -5 -2.5 -9v-168z" />
    <glyph glyph-name="fofathai" unicode="&#xe1d;" horiz-adv-x="918" 
d="M120 0l0.00292969 666.002c0 13.333 2.66699 25.666 8 36.999s13.666 21.5 24.999 30.5s25.666 16 42.999 21s38 7.5 62 7.5c48 0 85.667 -11.333 113 -34s41 -55 41 -97c0 -28.667 -4.33301 -52.834 -13 -72.501s-20 -35.667 -34 -48s-29.667 -21.166 -47 -26.499
s-35.333 -8.33301 -54 -9l6 -43v-213l-4 -96l158 159c6 6 11.5 10.667 16.5 14s9.16699 5.66602 12.5 6.99902s7 2 11 2c2.66699 0 6 -0.666992 10 -2c3.33301 -1.33301 7.33301 -3.66602 12 -6.99902c5.33301 -2.66699 10.666 -7.33398 15.999 -14.001l153 -159v979h147
v-1102h-120l-220 232l-220 -232h-122zM264.003 524.002c34.667 2.66699 59.333 13 74 31s22 41.667 22 71c0 16 -2.33301 29.333 -7 40s-10.334 19 -17.001 25s-14 10 -22 12c-9.33301 2 -17.333 3 -24 3h-9c-3.33301 0 -6.16602 -0.333008 -8.49902 -1s-4.33301 -2 -6 -4
s-2.5 -5 -2.5 -9v-168z" />
    <glyph glyph-name="phophanthai" unicode="&#xe1e;" horiz-adv-x="997" 
d="M47 631c0 21.333 3.49902 40.167 10.499 56.5s17.333 29.833 31 40.5s30.167 19 49.5 25s41 9 65 9s44.5 -2.5 61.5 -7.5s31 -12 42 -21s19 -19.167 24 -30.5s7.5 -23.666 7.5 -36.999v-295c0 -6 -0.333008 -13 -1 -21l-2 -25
c-0.666992 -8.66699 -1.66699 -17.334 -3 -26.001l-4 -26l-8 -61l212 514h12l211 -514l-9 67c-1.33301 9.33301 -2.5 18.5 -3.5 27.5s-2 17.5 -3 25.5s-1.66699 15.167 -2 21.5s-0.5 11.5 -0.5 15.5v385h145v-754h-112l-232 585l-235 -585h-113v392
c0 10.667 0.166992 21 0.5 31s0.833008 19 1.5 27c0.666992 9.33301 1.33398 17.666 2.00098 24.999c-17.333 0 -34.833 2.83301 -52.5 8.5s-33.5 14.667 -47.5 27s-25.333 28.333 -34 48s-13 43.834 -13 72.501zM97.999 626.001c0 -29.333 7.66699 -52.665 23 -69.998
c15.333 -18.667 40.333 -29.334 75 -32.001v153c0 8.66699 -2.33301 15.667 -7 21s-12.667 8 -24 8c-6.66699 0 -14 -1.33301 -22 -4s-15.167 -7.33398 -21.5 -14.001s-11.833 -15 -16.5 -25s-7 -22.333 -7 -37z" />
    <glyph glyph-name="fofanthai" unicode="&#xe1f;" horiz-adv-x="997" 
d="M47 631c0 21.333 3.49902 40.167 10.499 56.5s17.333 29.833 31 40.5s30.167 19 49.5 25s41 9 65 9s44.5 -2.5 61.5 -7.5s31 -12 42 -21s19 -19.167 24 -30.5s7.5 -23.666 7.5 -36.999v-295c0 -6 -0.333008 -13 -1 -21l-2 -25
c-0.666992 -8.66699 -1.66699 -17.334 -3 -26.001l-4 -26l-8 -61l212 514h12l211 -514l-9 67c-1.33301 9.33301 -2.5 18.5 -3.5 27.5s-2 17.5 -3 25.5s-1.66699 15.167 -2 21.5s-0.5 11.5 -0.5 15.5v733h145v-1102h-112l-232 585l-235 -585h-113v392
c0 10.667 0.166992 21 0.5 31s0.833008 19 1.5 27c0.666992 9.33301 1.33398 17.666 2.00098 24.999c-17.333 0 -34.833 2.83301 -52.5 8.5s-33.5 14.667 -47.5 27s-25.333 28.333 -34 48s-13 43.834 -13 72.501zM97.999 626.001c0 -29.333 7.66699 -52.665 23 -69.998
c15.333 -18.667 40.333 -29.334 75 -32.001v153c0 8.66699 -2.33301 15.667 -7 21s-12.667 8 -24 8c-6.66699 0 -14 -1.33301 -22 -4s-15.167 -7.33398 -21.5 -14.001s-11.833 -15 -16.5 -25s-7 -22.333 -7 -37z" />
    <glyph glyph-name="phosamphaothai" unicode="&#xe20;" horiz-adv-x="959" 
d="M82 127c0 28.667 4.3291 52.6621 12.9961 71.9951s20 35.166 34 47.499s30 21.333 48 27s36.333 8.5 55 8.5l-4 44v182l-121 86c19.333 26.667 41.833 50.334 67.5 71.001s54.5 38.334 86.5 53.001s67.167 26 105.5 34s80.5 12 126.5 12c56 0 105.167 -5 147.5 -15
s78 -23.167 107 -39.5s51.333 -34.666 67 -54.999s25.5 -41.166 29.5 -62.499v-592h-148v588c-2.66699 14.667 -9.66699 29 -21 43s-26.333 26.333 -45 37s-40.667 19.334 -66 26.001s-52.666 10 -81.999 10c-25.333 0 -50.666 -1.83301 -75.999 -5.5
s-49.333 -9.5 -72 -17.5s-44 -18 -64 -30c-20 -12.667 -37.333 -27 -52 -43l155 -98v-418c0 -13.333 -2.5 -26 -7.5 -38s-13 -22.333 -24 -31s-25 -15.667 -42 -21s-37.5 -8 -61.5 -8s-45.667 3 -65 9s-35.666 14.667 -48.999 26s-23.666 25.333 -30.999 42
s-11 35.334 -11 56.001zM133.996 130.995c0 -16 2.33203 -29.168 6.99902 -39.501s10.667 -18.666 18 -24.999s15 -10.833 23 -13.5s15.667 -4 23 -4c6.66699 0 12.834 0.833008 18.501 2.5s8.5 6.5 8.5 14.5v168c-34.667 -2.66699 -59.667 -13 -75 -31s-23 -42 -23 -72z
" />
    <glyph glyph-name="momathai" unicode="&#xe21;" horiz-adv-x="929" 
d="M75 631c0 21.333 3.49805 40.167 10.498 56.5s17.333 29.833 31 40.5s30.167 19 49.5 25s41 9 65 9s44.5 -2.5 61.5 -7.5s31 -12 42 -21s19 -19.167 24 -30.5s7.5 -23.666 7.5 -36.999v-332c26.667 -5.33301 54.667 -14 84 -26s57.333 -26 84 -42s52 -34 76 -54
s44 -40 60 -60l3 1c-0.666992 6 -1.66699 13.667 -3 23c-0.666992 8 -1.33398 17.333 -2.00098 28c-1.33301 9.33301 -2 20.666 -2 33.999v516h148v-678c0 -11.333 -1.66699 -22 -5 -32s-8.66602 -18.833 -15.999 -26.5s-16.333 -13.834 -27 -18.501
c-9.33301 -4.66699 -21.333 -7 -36 -7c-16 0 -31 3.66699 -45 11s-24.333 17 -31 29c-14.667 26.667 -31.834 52.167 -51.501 76.5s-41.5 47 -65.5 68s-50.167 40.167 -78.5 57.5s-59.166 31.333 -92.499 42v-181c0 -14.667 -2.66699 -28.167 -8 -40.5
s-13.666 -23.166 -24.999 -32.499s-25.666 -16.666 -42.999 -21.999s-37.666 -8 -60.999 -8c-24 0 -45.5 3 -64.5 9s-35 15.667 -48 29s-23 30.666 -30 51.999s-10.5 47 -10.5 77c0 26 4.16699 49 12.5 69s19.333 37.333 33 52s29.167 26.667 46.5 36
c17.333 8 34.666 14 51.999 18v58v31c0 10 0.333008 19 1 27c0 9.33301 0.333008 17.666 1 24.999c-17.333 0 -34.833 2.83301 -52.5 8.5s-33.5 14.667 -47.5 27s-25.333 28.333 -34 48s-13 43.834 -13 72.501zM125.998 626.001c0 -29.333 7.66699 -52.665 23 -69.998
c15.333 -18.667 40.333 -29.334 75 -32.001v153c0 8.66699 -2.33301 15.667 -7 21s-12.667 8 -24 8c-6.66699 0 -14 -1.33301 -22 -4s-15.167 -7.33398 -21.5 -14.001s-11.833 -15 -16.5 -25s-7 -22.333 -7 -37zM129.998 158.002c0 -21.333 2 -38.999 6 -52.999
s9 -25 15 -33s12.667 -13.667 20 -17s14.666 -5 21.999 -5c8.66699 0 15.834 2.66699 21.501 8s8.5 12.666 8.5 21.999v198c-10.667 -2 -21.5 -5.83301 -32.5 -11.5s-21 -13.5 -30 -23.5s-16.333 -22 -22 -36s-8.5 -30.333 -8.5 -49z" />
    <glyph glyph-name="yoyakthai" unicode="&#xe22;" horiz-adv-x="881" 
d="M120 534l0.00195312 132.001c0 13.333 2.66699 25.666 8 36.999s13.333 21.5 24 30.5s24.667 16 42 21s38 7.5 62 7.5s45.667 -3.16699 65 -9.5s35.666 -15.333 48.999 -27s23.5 -25.834 30.5 -42.501s10.5 -35.667 10.5 -57c0 -28.667 -4.33301 -52.5 -13 -71.5
s-20 -34.333 -34 -46s-29.833 -20.167 -47.5 -25.5s-35.834 -8 -54.501 -8c1.33301 -10.667 6.16602 -20.167 14.499 -28.5s19.166 -14.666 32.499 -18.999s28.5 -6.33301 45.5 -6s35.167 3.83301 54.5 10.5v-32l-141 -142l2 -104c2 -5.33301 6 -13.833 12 -25.5
s15.5 -23.334 28.5 -35.001s30.167 -21.667 51.5 -30s48 -12.5 80 -12.5c23.333 0 43.833 2 61.5 6s32.834 9.16699 45.501 15.5s23.334 13.333 32.001 21s15.667 15 21 22s9.33301 13.833 12 20.5s4.66699 11.334 6 14.001v604h146v-614
c-2.66699 -17.333 -11.5 -35 -26.5 -53s-36 -34 -63 -48s-60.167 -25.333 -99.5 -34s-84.333 -13 -135 -13c-51.333 0 -95.833 4 -133.5 12s-69.5 18.833 -95.5 32.5s-46.333 29.334 -61 47.001s-24 36.5 -28 56.5l2 71l178 161c-32 -2.66699 -59.5 0.666016 -82.5 9.99902
s-42 22 -57 38s-26.167 34 -33.5 54s-11 40 -11 60zM262.002 524.001c34.667 2.66699 59.667 11.999 75 27.999c15.333 17.333 23 40.666 23 69.999c0 16 -2.33301 29.333 -7 40s-10.667 19.334 -18 26.001s-15 11.334 -23 14.001c-9.33301 2.66699 -17.333 4 -24 4h-9
c-3.33301 0 -6.33301 -0.333008 -9 -1s-4.66699 -2 -6 -4s-2 -5 -2 -9v-168z" />
    <glyph glyph-name="roruathai" unicode="&#xe23;" horiz-adv-x="707" 
d="M47 605.5c-1.33301 7.66699 -0.825195 15.9912 1.50781 24.9912s6.5 17.167 12.5 24.5c10.667 14.667 24.167 28.834 40.5 42.501s35.166 25.834 56.499 36.501s45.333 19.334 72 26.001s56.667 10 90 10c25.333 0 48.333 -2.66699 69 -8s40.334 -11.333 59.001 -18
s36.667 -12.667 54 -18s34.666 -8 51.999 -8c19.333 0 35.166 4 47.499 12s22.833 18 31.5 30l31 -48c-4 -5.33301 -9.33301 -11.166 -16 -17.499s-14.667 -12.166 -24 -17.499s-20 -9.66602 -32 -12.999s-25.333 -5 -40 -5c-21.333 0 -41.666 2.33301 -60.999 7
s-38 9.83398 -56 15.501s-36 10.834 -54 15.501s-36.333 7 -55 7c-22 0 -41.833 -2.16699 -59.5 -6.5s-33.334 -10 -47.001 -17s-25.334 -15.167 -35.001 -24.5s-17.834 -18.666 -24.501 -27.999c22 -2.66699 47.167 -6.5 75.5 -11.5s57.5 -11.667 87.5 -20
s60.167 -18.5 90.5 -30.5s58.833 -25.333 85.5 -40c17.333 -9.33301 29 -20.666 35 -33.999s9 -28.666 9 -45.999v-350c0 -34 -13.5 -59.5 -40.5 -76.5s-63.833 -25.5 -110.5 -25.5c-22 0 -42.833 3 -62.5 9s-36.834 15.333 -51.501 28s-26 28.667 -34 48s-12 42.333 -12 69
c0 29.333 5.16699 54.666 15.5 75.999s23.666 38.5 39.999 51.5s34.166 22 53.499 27s37.666 5.83301 54.999 2.5v147c0 15.333 -3.33301 26.666 -10 33.999c-6.66699 8 -14 14 -22 18c-24 11.333 -48.5 21.166 -73.5 29.499s-49.833 15.333 -74.5 21
s-48.667 10.334 -72 14.001s-45.333 6.5 -66 8.5c-9.33301 1.33301 -16.5 4.5 -21.5 9.5s-8.16699 11.333 -9.5 19zM281.008 147.991c0 -16 2.83203 -30.3311 8.49902 -42.998s12.5 -23.334 20.5 -32.001s16.667 -15.167 26 -19.5s18 -6.5 26 -6.5
c10.667 0 19.167 2.16699 25.5 6.5s9.5 11.833 9.5 22.5v188c-16 1.33301 -31.167 -0.5 -45.5 -5.5s-26.666 -12.667 -36.999 -23s-18.5 -22.833 -24.5 -37.5s-9 -31.334 -9 -50.001z" />
    <glyph glyph-name="ruthai" unicode="&#xe24;" horiz-adv-x="912" 
d="M69 594c22.667 25.333 47 48.3301 73 68.9971s54.667 38.667 86 54s65.166 27 101.499 35s76.5 12 120.5 12c56 0 105.167 -5 147.5 -15s77.833 -23 106.5 -39s50.834 -34.333 66.501 -55s24.834 -41.334 27.501 -62.001v-913h-145v909
c-2.66699 14.667 -9.83398 29 -21.501 43s-26.834 26.333 -45.501 37s-40.334 19.167 -65.001 25.5s-52 9.5 -82 9.5c-26.667 0 -53 -2.66699 -79 -8s-50.5 -12.333 -73.5 -21s-43.5 -19 -61.5 -31s-33 -24 -45 -36l143 -98v-184l-4 -44
c18.667 -0.666992 36.834 -3.66699 54.501 -9s33.334 -14.166 47.001 -26.499s24.667 -28.166 33 -47.499s12.5 -43.333 12.5 -72c0 -21.333 -3.33301 -40.166 -10 -56.499s-16.667 -30.166 -30 -41.499s-29.5 -20 -48.5 -26s-40.5 -9 -64.5 -9s-44.5 2.66699 -61.5 8
s-31.167 12.333 -42.5 21s-19.333 19 -24 31s-7 24.667 -7 38v416zM319 65.9971c0 -7.33301 2.83301 -12 8.5 -14s11.834 -3 18.501 -3c7.33301 0 15 1.33301 23 4s15.5 7.16699 22.5 13.5s12.667 14.666 17 24.999s6.5 23.5 6.5 39.5c0 29.333 -7.33301 53 -22 71
c-14.667 18.667 -39.334 29.334 -74.001 32.001v-168z" />
    <glyph glyph-name="lolingthai" unicode="&#xe25;" horiz-adv-x="869" 
d="M96 628c15.333 20 33.9971 38.6641 55.9971 55.9971s46.833 32 74.5 44s58.167 21.333 91.5 28s69.333 10 108 10c50.667 0 95.334 -5 134.001 -15s71.834 -22.667 99.501 -38s49.334 -32.333 65.001 -51s25.5 -37 29.5 -55v-607h-148v278c-12 20 -26.333 39.333 -43 58
s-34.667 35 -54 49s-40 25.333 -62 34s-44 13 -66 13c-22.667 0 -41.167 -3 -55.5 -9s-25.833 -13.667 -34.5 -23s-14.667 -19.166 -18 -29.499s-5 -19.833 -5 -28.5v-43l-4 -17c18.667 -0.666992 37 -3.66699 55 -9s34 -14.166 48 -26.499s25.333 -28.166 34 -47.499
s13 -43.333 13 -72c0 -21.333 -3.66699 -40.166 -11 -56.499s-17.666 -30.166 -30.999 -41.499s-29.666 -20 -48.999 -26s-41 -9 -65 -9s-44.667 2.66699 -62 8s-31.333 12.333 -42 21s-18.5 19 -23.5 31s-7.5 24.667 -7.5 38v203c0 33.333 5.5 62.5 16.5 87.5
s27.167 45.833 48.5 62.5s47.666 29 78.999 37s66.333 12 105 12c25.333 0 49.833 -3.33301 73.5 -10s45.667 -15.334 66 -26.001s39.166 -23.334 56.499 -38.001c16 -14 30.667 -29 44 -45c-1.33301 6.66699 -2.33301 14.667 -3 24
c-0.666992 8 -1.33398 17.167 -2.00098 27.5s-1 22.5 -1 36.5v139c-2 12 -8.16699 24 -18.5 36s-24.5 23 -42.5 33s-39.667 18 -65 24s-54.666 9 -87.999 9c-26 0 -51 -3 -75 -9s-46.167 -14 -66.5 -24s-38.5 -21.667 -54.5 -35s-29.333 -27 -40 -41zM263.997 65.9971
c0 -4 0.835938 -7.00098 2.50293 -9.00098s3.66699 -3.33301 6 -4s5.16602 -1.16699 8.49902 -1.5s6.66602 -0.5 9.99902 -0.5c6.66699 0 14.167 1.16699 22.5 3.5s16.166 6.5 23.499 12.5s13.333 14.167 18 24.5s7 23.5 7 39.5c0 29.333 -7.66699 53 -23 71
c-15.333 18.667 -40.333 29.334 -75 32.001v-168z" />
    <glyph glyph-name="luthai" unicode="&#xe26;" horiz-adv-x="959" 
d="M82 127c0 28.667 4.3291 52.6621 12.9961 71.9951s20 35.166 34 47.499s30 21.333 48 27s36.333 8.5 55 8.5l-4 44v182l-121 86c19.333 26.667 41.833 50.334 67.5 71.001s54.5 38.334 86.5 53.001s67.167 26 105.5 34s80.5 12 126.5 12c56 0 105.167 -5 147.5 -15
s78 -23.167 107 -39.5s51.333 -34.666 67 -54.999s25.5 -41.166 29.5 -62.499v-912h-148v908c-2.66699 14.667 -9.66699 29 -21 43s-26.333 26.333 -45 37s-40.667 19.334 -66 26.001s-52.666 10 -81.999 10c-25.333 0 -50.666 -1.83301 -75.999 -5.5
s-49.333 -9.5 -72 -17.5s-44 -18 -64 -30c-20 -12.667 -37.333 -27 -52 -43l155 -98v-418c0 -13.333 -2.5 -26 -7.5 -38s-13 -22.333 -24 -31s-25 -15.667 -42 -21s-37.5 -8 -61.5 -8s-45.667 3 -65 9s-35.666 14.667 -48.999 26s-23.666 25.333 -30.999 42
s-11 35.334 -11 56.001zM133.996 130.995c0 -16 2.33203 -29.168 6.99902 -39.501s10.667 -18.666 18 -24.999s15 -10.833 23 -13.5s15.667 -4 23 -4c6.66699 0 12.834 0.833008 18.501 2.5s8.5 6.5 8.5 14.5v168c-34.667 -2.66699 -59.667 -13 -75 -31s-23 -42 -23 -72z
" />
    <glyph glyph-name="wowaenthai" unicode="&#xe27;" horiz-adv-x="710" 
d="M2 629c15.333 20 32.167 38.4971 50.5 55.4971s39.166 31.833 62.499 44.5s49.333 22.334 78 29.001s61 10 97 10c48 0 90 -4.66699 126 -14s66.167 -21.166 90.5 -35.499s43.333 -30.333 57 -48s22.5 -35.834 26.5 -54.501v-520c0 -34 -13.333 -59.333 -40 -76
c-28 -17.333 -65.333 -26 -112 -26c-22 0 -42.667 3 -62 9s-36.166 15.333 -50.499 28s-25.833 28.667 -34.5 48s-13 42.333 -13 69c0 29.333 5.33301 54.5 16 75.5s24 38 40 51s33.667 21.833 53 26.5s37.666 5.33398 54.999 2.00098v299c-1.33301 9.33301 -6 20 -14 32
s-19.5 23.333 -34.5 34s-33 19.334 -54 26.001s-44.167 10 -69.5 10s-48.333 -3 -69 -9s-39.667 -14 -57 -24s-32.666 -21.667 -45.999 -35c-14 -12 -26.333 -25.333 -37 -40zM328.001 147.997c0 -16 2.66699 -30.3311 8 -42.998s12 -23.334 20 -32.001s17 -15.167 27 -19.5
s19 -6.5 27 -6.5c14.667 0 24.334 2.16699 29.001 6.5s7 10.5 7 18.5v192c-16 1.33301 -31.333 -0.5 -46 -5.5s-27.334 -12.667 -38.001 -23s-19 -22.833 -25 -37.5s-9 -31.334 -9 -50.001z" />
    <glyph glyph-name="sosalathai" unicode="&#xe28;" horiz-adv-x="909" 
d="M116 0l-0.000976562 597.999c1.33301 12 6 24.167 14 36.5s19.333 24.666 34 36.999s32 23.833 52 34.5s42.333 20.334 67 29.001s51.334 15.334 80.001 20.001s59 7 91 7c45.333 0 86.833 -4.66699 124.5 -14s71.167 -21.333 100.5 -36c14 19.333 26.333 39 37 59
c10.667 19.333 20 39.666 28 60.999l104 -48c-21.333 -46 -50.666 -89 -87.999 -129c9.33301 -10.667 16.666 -21 21.999 -31c6.66699 -10.667 10.667 -20.667 12 -30v-594h-148v559l-52 -30.5c-17.333 -9.66699 -35.333 -18.167 -54 -25.5
c13.333 -12 23.333 -26.167 30 -42.5s10 -33.166 10 -50.499c0 -40 -9.66699 -71.667 -29 -95s-47 -35 -83 -35c-18.667 0 -35 3.66699 -49 11s-25.333 16.5 -34 27.5s-15 22.833 -19 35.5s-5.66699 24.334 -5 35.001c0 6.66699 0.666992 13.667 2 21c2 6.66699 5 14 9 22
c-9.33301 -10.667 -19.333 -23.334 -30 -38.001s-20.667 -31 -30 -49s-18.333 -37.333 -27 -58s-16 -41.667 -22 -63v-224h-147zM262.999 382.999c8 16 18 32.1699 30 48.5029s25.5 31.166 40.5 44.499s31.333 24.833 49 34.5s36.5 15.834 56.5 18.501
c37.333 15.333 70.833 32.666 100.5 51.999s56.5 40.333 80.5 63c-14.667 16 -36 29.667 -64 41s-62.667 17 -104 17c-32 0 -59.5 -3.66699 -82.5 -11s-42 -16.333 -57 -27s-26.5 -22.334 -34.5 -35.001s-13 -24.334 -15 -35.001v-211zM415.499 393.502
c1 -11 3.66504 -21.001 7.99805 -30.001s10.5 -16.5 18.5 -22.5s17.333 -9 28 -9c12.667 0 23 3.33301 31 10s13.833 15.334 17.5 26.001s5.33398 22 5.00098 34s-2.66602 23 -6.99902 33s-10.833 18.5 -19.5 25.5s-19 10.5 -31 10.5h-10c-10.667 -3.33301 -19 -9 -25 -17
s-10.333 -17.333 -13 -28s-3.5 -21.5 -2.5 -32.5z" />
    <glyph glyph-name="sorusithai" unicode="&#xe29;" horiz-adv-x="951" 
d="M47 631c0 21.333 3.49805 40.166 10.498 56.499s17.333 29.833 31 40.5s30.167 19 49.5 25s41 9 65 9s44.5 -2.5 61.5 -7.5s31 -12 42 -21s19 -19.167 24 -30.5s7.5 -23.666 7.5 -36.999v-537c1.33301 -9.33301 6.66602 -19 15.999 -29s22 -18.833 38 -26.5
s34.667 -14 56 -19s44.333 -7.5 69 -7.5c25.333 0 48.5 2.83301 69.5 8.5s38.833 12.667 53.5 21s26.334 17.333 35.001 27s13.667 18.167 15 25.5v189c-12.667 -8.66699 -27.167 -15.334 -43.5 -20.001s-32.166 -7.33398 -47.499 -8.00098
c-34.667 -2 -64.834 1.66699 -90.501 11s-47.167 22.166 -64.5 38.499s-30.166 35.166 -38.499 56.499s-12.166 43 -11.499 65c0 15.333 2.5 30 7.5 44s12.167 26.333 21.5 37s20.666 19.334 33.999 26.001c12.667 6.66699 27.667 10 45 10c18.667 0 35 -3.33301 49 -10
s25.667 -15.334 35 -26.001s16 -23.334 20 -38.001s6 -29.667 6 -45c0 -13.333 -1.66699 -26.333 -5 -39s-8 -24.167 -14 -34.5s-13 -19.166 -21 -26.499s-16.667 -12.333 -26 -15c2.66699 -1.33301 6.33398 -2.66602 11.001 -3.99902s9.66699 -2.16602 15 -2.49902
s10.666 -0.5 15.999 -0.5s10 0.333008 14 1c18.667 1.33301 35.334 6 50.001 14s27.334 17.333 38.001 28v374h145v-604c-2 -18.667 -11.333 -37.667 -28 -57s-39.334 -36.666 -68.001 -51.999s-62.334 -27.666 -101.001 -36.999s-80.667 -14 -126 -14
c-46 0 -88 4.66699 -126 14s-71 21.333 -99 36s-50.333 31 -67 49c-17.333 18 -27.333 35.667 -30 53v250c0 10.667 0.166992 21 0.5 31s0.833008 19 1.5 27c0.666992 9.33301 1.33398 17.666 2.00098 24.999c-17.333 0 -34.833 2.83301 -52.5 8.5s-33.5 14.667 -47.5 27
s-25.333 28.333 -34 48s-13 43.834 -13 72.501zM97.998 626c0 -29.333 7.66699 -52.665 23 -69.998c15.333 -18.667 40.333 -29.334 75 -32.001v153c0 8.66699 -2.33301 15.667 -7 21s-12.667 8 -24 8c-6.66699 0 -14 -1.33301 -22 -4s-15.167 -7.33398 -21.5 -14.001
s-11.833 -15 -16.5 -25s-7 -22.333 -7 -37zM451.998 462.001c-0.666992 -9.33301 0.332031 -18.9971 2.99902 -28.9971s6.16699 -19.333 10.5 -28s9.83301 -16.334 16.5 -23.001c6 -6.66699 12.333 -10.667 19 -12c9.33301 4 17.833 9.33301 25.5 16s13.834 14 18.501 22
s8.16699 16.333 10.5 25s3.5 17 3.5 25s-1.16699 16.167 -3.5 24.5s-5.83301 15.666 -10.5 21.999s-10.5 11.166 -17.5 14.499s-15.167 5 -24.5 5c-8 0 -15.167 -1.66699 -21.5 -5s-11.833 -8 -16.5 -14s-8 -12.667 -10 -20s-3 -15 -3 -23z" />
    <glyph glyph-name="sosuathai" unicode="&#xe2a;" horiz-adv-x="889" 
d="M106 628c15.333 20 34.168 38.6592 56.501 55.9922s47.833 32 76.5 44s60 21.333 94 28s70 10 108 10c48.667 0 92 -4.66699 130 -14s71.333 -21.333 100 -36c24.667 34.667 45.667 73.334 63 116.001l106 -48c-13.333 -24.667 -27.333 -47.334 -42 -68.001
c-14.667 -21.333 -30.667 -41.666 -48 -60.999c13.333 -16.667 21.333 -32.667 24 -48v-607h-148v278c-12 20 -26.5 39.333 -43.5 58s-35.667 35 -56 49s-41.666 25.333 -63.999 34s-44.5 13 -66.5 13c-22.667 0 -41.5 -3 -56.5 -9s-27 -13.667 -36 -23
s-15.5 -19.166 -19.5 -29.499s-6 -19.833 -6 -28.5v-43l-4 -17c18.667 -0.666992 37 -3.66699 55 -9s34 -14.166 48 -26.499s25.333 -28.166 34 -47.499s13 -43.333 13 -72c0 -21.333 -3.66699 -40.166 -11 -56.499s-17.666 -30.166 -30.999 -41.499
s-29.666 -20 -48.999 -26s-41 -9 -65 -9s-44.667 2.66699 -62 8s-31.333 12.333 -42 21s-18.5 19 -23.5 31s-7.5 24.667 -7.5 38v203c0 54.667 15.167 97.834 45.5 129.501s72.833 52.167 127.5 61.5c125.333 34.667 224.666 86 297.999 154
c-8 8.66699 -18.333 16.834 -31 24.501s-27.334 14.5 -44.001 20.5s-35 10.667 -55 14c-21.333 3.33301 -44 5 -68 5c-26 0 -51.167 -3 -75.5 -9s-46.833 -14 -67.5 -24s-39.334 -21.667 -56.001 -35s-30.334 -27 -41.001 -41zM274.002 65.9922
c0 -4 0.835938 -7.00098 2.50293 -9.00098s3.66699 -3.33301 6 -4s5.16602 -1.16699 8.49902 -1.5s6.66602 -0.5 9.99902 -0.5c6.66699 0 14.167 1.16699 22.5 3.5s16.166 6.5 23.499 12.5s13.333 14.167 18 24.5s7 23.5 7 39.5c0 29.333 -7.66699 53 -23 71
c-15.333 18.667 -40.333 29.334 -75 32.001v-168zM468.005 481.991c34.667 -9.33301 66.001 -23.832 94.001 -43.499s51.333 -40.834 70 -63.501c-1.33301 6.66699 -2.33301 14.667 -3 24c-0.666992 8 -1.33398 17.167 -2.00098 27.5s-1 22.5 -1 36.5v90
c-48 -29.333 -100.667 -53 -158 -71z" />
    <glyph glyph-name="hohipthai" unicode="&#xe2b;" horiz-adv-x="935" 
d="M58 631c0 21.333 3.49902 40.1621 10.499 56.4951s17.333 29.833 31 40.5s30.167 19 49.5 25s41 9 65 9s44.333 -2.5 61 -7.5s30.667 -12 42 -21s19.333 -19.167 24 -30.5s7 -23.666 7 -36.999v-298c0 -21.333 -0.833008 -43 -2.5 -65s-3.5 -42.333 -5.5 -61l-8 -62
c17.333 35.333 37.666 69.333 60.999 102s48 63.167 74 91.5s53 53.833 81 76.5s55.667 41.334 83 56.001l-9 9c-2 2 -4.66699 4.33301 -8 7c-6 5.33301 -11.833 11.833 -17.5 19.5s-10.5 16 -14.5 25s-7.33301 18.833 -10 29.5s-4 21.334 -4 32.001
c0 22.667 3.83301 42.334 11.5 59.001s18 30.667 31 42s27.833 19.666 44.5 24.999s33.667 8 51 8c19.333 0 37.5 -2.83301 54.5 -8.5s31.667 -14.167 44 -25.5s22 -25.5 29 -42.5s10.5 -36.833 10.5 -59.5c0 -12 -1.66699 -24.167 -5 -36.5s-8.5 -24.166 -15.5 -35.499
s-16 -21.5 -27 -30.5s-23.833 -16.5 -38.5 -22.5c12 -9.33301 22 -19.166 30 -29.499s14.5 -20.833 19.5 -31.5s8.5 -21.5 10.5 -32.5s3 -21.833 3 -32.5v-375h-145v396v14.5c0 6.33301 -0.333008 13 -1 20s-1.66699 13.667 -3 20s-3.33301 10.833 -6 13.5
c-24 -17.333 -46.5 -35 -67.5 -53s-41.167 -37.333 -60.5 -58s-38 -43 -56 -67s-35.667 -50.333 -53 -79s-34.666 -60 -51.999 -94s-35 -71.667 -53 -113h-123v392c0 10.667 0.166992 21 0.5 31s0.5 19 0.5 27c0 9.33301 0.666992 17.666 2 24.999
c-17.333 0 -34.666 2.83301 -51.999 8.5s-33 14.667 -47 27s-25.333 28.333 -34 48s-13 43.834 -13 72.501zM108.999 625.996c0 -29.333 7.66699 -52.665 23 -69.998c15.333 -18.667 40.333 -29.334 75 -32.001v153c0 8.66699 -2.33301 15.667 -7 21c-4 5.33301 -12 8 -24 8
c-6.66699 0 -14 -1.33301 -22 -4s-15.333 -7.33398 -22 -14.001s-12.167 -15 -16.5 -25s-6.5 -22.333 -6.5 -37zM625.999 627.997c0 -10.667 1.99805 -20.666 5.99805 -29.999s9.5 -18 16.5 -26s15 -15 24 -21s18.167 -11.667 27.5 -17c57.333 18.667 86 51.667 86 99
c0 12.667 -2.16699 24 -6.5 34s-10.166 18.667 -17.499 26s-15.666 13 -24.999 17c-10 3.33301 -19.667 5 -29 5c-10.667 0 -21 -1.83301 -31 -5.5s-18.667 -9.16699 -26 -16.5s-13.333 -16.333 -18 -27s-7 -23.334 -7 -38.001z" />
    <glyph glyph-name="lochulathai" unicode="&#xe2c;" horiz-adv-x="997" 
d="M47 631c0 21.333 3.49707 40.168 10.4971 56.501s17.333 29.833 31 40.5s30.167 19 49.5 25s41 9 65 9s44.5 -2.5 61.5 -7.5s30.833 -12 41.5 -21s18.334 -19.167 23.001 -30.5s7 -23.666 7 -36.999v-384c0 -12 -0.666992 -25 -2 -39s-2.66602 -27 -3.99902 -39
c-1.33301 -14 -3.33301 -28 -6 -42l194 297h41l190 -297c-2.66699 17.333 -4.66699 34 -6 50l-2 20.5l-2 20c-0.666992 6.33301 -1.16699 12.333 -1.5 18s-0.5 10.5 -0.5 14.5v317c-9.33301 -4 -17.833 -7.16699 -25.5 -9.5s-15.667 -4.33301 -24 -6
s-17 -2.83398 -26 -3.50098s-18.833 -1 -29.5 -1c-25.333 0 -49 2.33301 -71 7s-41.333 12 -58 22s-30 22.333 -40 37s-15 31.334 -15 50.001s5.33301 35 16 49s25 25.667 43 35s38.333 16.166 61 20.499s46 6.5 70 6.5c22.667 0 43.667 -1.66699 63 -5
s37.166 -7.83301 53.499 -13.5s30.833 -12.5 43.5 -20.5s23.667 -16.667 33 -26l12.5 16c4.33301 5.33301 8 11.333 11 18s5.83301 14 8.5 22s5 16.667 7 26l74 -11c-2.66699 -11.333 -6.5 -23 -11.5 -35s-10.667 -24 -17 -36s-13.5 -23 -21.5 -33s-16 -19 -24 -27
c2.66699 -8 5.33398 -19.333 8.00098 -34s4 -33.334 4 -56.001v-594h-112l-232 381l-239 -381h-109v392c0 10.667 0.166992 21 0.5 31s0.833008 19 1.5 27c0.666992 9.33301 1.33398 17.666 2.00098 24.999c-17.333 0 -34.833 2.83301 -52.5 8.5s-33.5 14.667 -47.5 27
s-25.333 28.333 -34 48s-13 43.834 -13 72.501zM97.9971 626.002c0 -29.333 7.66699 -52.665 23 -69.998c15.333 -18.667 40.333 -29.334 75 -32.001v153c0 8.66699 -2.33301 15.667 -7 21s-12.667 8 -24 8c-6.66699 0 -14 -1.33301 -22 -4s-15.167 -7.33398 -21.5 -14.001
s-11.833 -15 -16.5 -25s-7 -22.333 -7 -37zM509.997 698.003c0 -9.33301 2.66797 -18.166 8.00098 -26.499s13.166 -15.5 23.499 -21.5s22.833 -10.667 37.5 -14c14 -3.33301 30.333 -5 49 -5c22.667 0 42.334 2.66699 59.001 8c16.667 6 33 13.667 49 23v10
c0 15.333 -3.33301 28.5 -10 39.5s-15.334 20.167 -26.001 27.5s-22.667 12.666 -36 15.999s-26 5 -38 5c-17.333 0 -33 -1.5 -47 -4.5s-26.167 -7.16699 -36.5 -12.5s-18.333 -11.833 -24 -19.5s-8.5 -16.167 -8.5 -25.5z" />
    <glyph glyph-name="oangthai" unicode="&#xe2d;" horiz-adv-x="865" 
d="M70 628c15.333 20 34.167 38.6631 56.5 55.9961s48.166 32 77.499 44s62 21.333 98 28s75.333 10 118 10c50.667 0 95.5 -5 134.5 -15s72.333 -22.667 100 -38s49.5 -32.333 65.5 -51s26 -37 30 -55v-465c-2.66699 -17.333 -11.5 -35 -26.5 -53s-35.667 -34.667 -62 -50
s-58.166 -27.666 -95.499 -36.999s-80 -14 -128 -14c-49.333 0 -93 4.66699 -131 14s-70.167 21.666 -96.5 36.999s-47.166 32.333 -62.499 51c-14.667 20 -23.334 39.333 -26.001 58v280c0 13.333 2.5 26 7.5 38s13 22.5 24 31.5s25.167 15.833 42.5 20.5
c16 5.33301 36 8 60 8c49.333 0 87.666 -11.667 114.999 -35s41 -56 41 -98c0 -28.667 -4.33301 -52.667 -13 -72s-19.667 -35.166 -33 -47.499s-29 -21.333 -47 -27s-36.333 -8.5 -55 -8.5l2 -33v-65c2.66699 -8 7.66699 -17.333 15 -28s17.833 -20.667 31.5 -30
s30.834 -17.333 51.501 -24c21.333 -6 46.666 -9 75.999 -9c26 0 48.833 2.83301 68.5 8.5s36.334 12.834 50.001 21.501s24 18.334 31 29.001s10.5 20.334 10.5 29.001v465c-2 12 -8.16699 24 -18.5 36s-24.5 23 -42.5 33s-39.833 18 -65.5 24s-55.167 9 -88.5 9
c-26 0 -52 -3 -78 -9s-50.333 -14 -73 -24s-43 -21.667 -61 -35s-32.333 -27 -43 -41zM264.001 285.996c34.667 3.33301 59.498 14 74.498 32s22.5 41.667 22.5 71c0 16 -2.16699 29.167 -6.5 39.5s-10.166 18.5 -17.499 24.5s-15 10.167 -23 12.5s-15.667 3.5 -23 3.5
c-2.66699 0 -5.66699 -0.166992 -9 -0.5s-6.16602 -0.833008 -8.49902 -1.5s-4.5 -2 -6.5 -4s-3 -5 -3 -9v-168z" />
    <glyph glyph-name="honokhukthai" unicode="&#xe2e;" horiz-adv-x="865" 
d="M84 618c0 21.333 8.50195 41.167 25.502 59.5s39.667 34 68 47s61.5 23.167 99.5 30.5s77.667 11 119 11c28 0 53.667 -1 77 -3s44.666 -5 63.999 -9s37 -8.66699 53 -14s30.667 -11 44 -17c8.66699 12.667 16.5 26.834 23.5 42.501s12.833 33.5 17.5 53.5l94 -26
c-2.66699 -11.333 -6.16699 -22.5 -10.5 -33.5s-9.5 -21.333 -15.5 -31s-12.333 -18.834 -19 -27.501s-13 -16.334 -19 -23.001c6.66699 -5.33301 12.667 -11.333 18 -18s10 -13.334 14 -20.001s7.16699 -13 9.5 -19s3.5 -11 3.5 -15v-464
c-2.66699 -17.333 -11.5 -35 -26.5 -53s-35.667 -34.667 -62 -50s-58.166 -27.666 -95.499 -36.999s-80 -14 -128 -14c-49.333 0 -93 4.66699 -131 14s-70.167 21.666 -96.5 36.999s-47.166 32.333 -62.499 51c-14.667 20 -23.334 39.333 -26.001 58v210
c0 13.333 2.5 26 7.5 38s13 22.5 24 31.5s25.167 15.833 42.5 20.5c16 5.33301 36 8 60 8c49.333 0 87.666 -11.667 114.999 -35s41 -56 41 -98c0 -28.667 -4.33301 -52.5 -13 -71.5s-19.667 -34.333 -33 -46s-29 -20.167 -47 -25.5s-36.333 -8 -55 -8l2 -17v-15
c2.66699 -8 7.66699 -17.333 15 -28s17.833 -20.667 31.5 -30s30.834 -17.333 51.501 -24c21.333 -6 46.666 -9 75.999 -9c26 0 48.833 2.83301 68.5 8.5s36.334 12.834 50.001 21.501s24 18.334 31 29.001s10.5 20.334 10.5 29.001v425
c0 2.66699 -0.333008 5.33398 -1 8.00098s-1.33398 4.66699 -2.00098 6c-2 2 -3 3.66699 -3 5c-13.333 -10 -29 -19.333 -47 -28s-37.667 -16.334 -59 -23.001s-44.333 -11.834 -69 -15.501s-50.667 -5.5 -78 -5.5c-32.667 0 -64.334 2.16699 -95.001 6.5
s-58 10.833 -82 19.5s-43.333 19.667 -58 33s-22 30 -22 50zM176.002 622.001c0 -6.66699 2.66602 -12.334 7.99902 -17.001s12.333 -9 21 -13s18.667 -7.33301 30 -10s23.333 -4.66699 36 -6s25.334 -2.33301 38.001 -3s25 -1 37 -1c38 0 74.333 5.66699 109 17
s70 29.666 106 54.999c-5.33301 6.66699 -13.333 13.334 -24 20.001s-23.667 13 -39 19s-32.833 10.833 -52.5 14.5s-41.5 5.5 -65.5 5.5c-25.333 0 -50 -2.5 -74 -7.5s-45.667 -11.167 -65 -18.5s-35 -15.666 -47 -24.999c-12 -10.667 -18 -20.667 -18 -30z
M264.001 222.001c34.667 3.33301 59.499 13 74.499 29s22.5 38.667 22.5 68c0 16 -2.16699 29.167 -6.5 39.5s-10.166 18.5 -17.499 24.5s-15 10.167 -23 12.5s-15.667 3.5 -23 3.5c-6 0 -12 -2.16699 -18 -6.5s-9 -10.5 -9 -18.5v-152z" />
    <glyph glyph-name="paiyannoithai" unicode="&#xe2f;" horiz-adv-x="803" 
d="M74 620c0 22.667 3.6709 42.834 11.0039 60.501s17 32.334 29 44.001s25.5 20.5 40.5 26.5s30.5 9 46.5 9c18.667 0 36 -2.5 52 -7.5s30 -13 42 -24s21.5 -25.167 28.5 -42.5s10.5 -38 10.5 -62c0 -17.333 -2.83301 -33.5 -8.5 -48.5s-12.667 -28.333 -21 -40
s-17.5 -21.5 -27.5 -29.5s-19 -13.333 -27 -16c14.667 -9.33301 30.667 -15.5 48 -18.5s34 -4.5 50 -4.5c19.333 0 40.166 4.66699 62.499 14s43.666 25.166 63.999 47.499s38 51.833 53 88.5s24.5 82.334 28.5 137.001h118v-539c0 -80 -22.333 -142.833 -67 -188.5
s-113.667 -77.834 -207 -96.501l-23 73c36 9.33301 64 21 84 35s34.833 29.167 44.5 45.5s15.5 33.166 17.5 50.499s3 33.333 3 48v189l6 113c-8.66699 -13.333 -19.834 -25.5 -33.501 -36.5s-28.834 -20.333 -45.501 -28s-34.334 -13.5 -53.001 -17.5s-38 -6 -58 -6
c-21.333 0 -42.666 2.33301 -63.999 7s-42 11.5 -62 20.5s-38.667 20 -56 33s-32.333 27.833 -45 44.5s-22.667 35 -30 55s-11 41.333 -11 64zM142.004 626c0 -14.667 1.66797 -27.332 5.00098 -37.999s7.5 -20.167 12.5 -28.5s10.5 -15.5 16.5 -21.5
c5.33301 -5.33301 10.666 -10 15.999 -14c9.33301 0 18.666 3.66699 27.999 11s17.333 15.666 24 24.999s12 19.5 16 30.5s6 20.833 6 29.5c0 26.667 -5.16699 46.667 -15.5 60s-26.833 20 -49.5 20c-8.66699 0 -16.667 -2.16699 -24 -6.5s-13.666 -10 -18.999 -17
s-9.33301 -14.833 -12 -23.5s-4 -17.667 -4 -27z" />
    <glyph glyph-name="saraathai" unicode="&#xe30;" horiz-adv-x="696" 
d="M91 171c0 17.333 2.99805 33.8369 8.99805 49.5039s14.833 29.5 26.5 41.5s25.5 22 41.5 30c16 7.33301 34.667 11 56 11s40.333 -3.33301 57 -10s30.834 -15.834 42.501 -27.501s20.334 -25.5 26.001 -41.5s8.5 -33 8.5 -51c0 -13.333 -1.33301 -25.5 -4 -36.5
s-6.66699 -20.833 -12 -29.5s-11.333 -16.334 -18 -23.001s-13.334 -11.334 -20.001 -14.001h14c22.667 0 45 5 67 15s41 24.667 57 44s28 43.166 36 71.499s10 60.833 6 97.5l117 -14c-1.33301 -46.667 -9.83301 -87.667 -25.5 -123s-36.5 -64.5 -62.5 -87.5
s-55.667 -40.167 -89 -51.5s-67.666 -17 -102.999 -17c-34.667 0 -66.167 3.5 -94.5 10.5s-52.5 17.5 -72.5 31.5s-35.5 31.333 -46.5 52s-16.5 44.667 -16.5 72zM90.998 616.004c0 17.333 2.99805 33.835 8.99805 49.502s14.833 29.667 26.5 42s25.5 22.166 41.5 29.499
s34.667 11 56 11s40.333 -3.33301 57 -10s30.834 -15.834 42.501 -27.501s20.334 -25.334 26.001 -41.001s8.5 -32.834 8.5 -51.501c0 -13.333 -1.33301 -25.5 -4 -36.5s-6.66699 -21 -12 -30s-11.333 -16.5 -18 -22.5s-13.334 -11 -20.001 -15h14c22.667 0 45 5 67 15
s41 24.667 57 44s28 43.333 36 72s10 61.334 6 98.001l117 -15c-1.33301 -46.667 -9.83301 -87.5 -25.5 -122.5s-36.5 -64 -62.5 -87s-55.667 -40.167 -89 -51.5s-67.666 -17 -102.999 -17c-34.667 0 -66.167 3.5 -94.5 10.5s-52.5 17.333 -72.5 31
s-35.5 30.834 -46.5 51.501s-16.5 45 -16.5 73zM160.996 171.006c0 -12 2.16797 -23.333 6.50098 -34s10.166 -19.834 17.499 -27.501s15 -14.167 23 -19.5c8 -4 15.333 -6.66699 22 -8c8 2.66699 15.667 7 23 13s13.5 12.667 18.5 20s9 15.166 12 23.499
s4.5 16.833 4.5 25.5c0 25.333 -5.83301 44.333 -17.5 57s-27.5 19 -47.5 19c-8.66699 0 -16.667 -1.83301 -24 -5.5s-14 -8.66699 -20 -15s-10.5 -13.666 -13.5 -21.999s-4.5 -17.166 -4.5 -26.499zM160.997 616.006c0 -12 2.16797 -23.3359 6.50098 -34.0029
s10.166 -20 17.499 -28s15 -14.333 23 -19s15.333 -7.66699 22 -9c8 2.66699 15.667 7 23 13s13.5 12.833 18.5 20.5s9 15.834 12 24.501s4.5 17.334 4.5 26.001c0 25.333 -5.83301 44.166 -17.5 56.499s-27.5 18.5 -47.5 18.5c-8.66699 0 -16.667 -1.83301 -24 -5.5
s-14 -8.66699 -20 -15s-10.5 -13.666 -13.5 -21.999s-4.5 -17.166 -4.5 -26.499z" />
    <glyph glyph-name="maihanakatthai" unicode="&#xe31;" 
d="M-575 1073c0 20 3.16797 38.332 9.50098 54.999s15.333 31.167 27 43.5s26 21.833 43 28.5s36.167 10 57.5 10s40 -3.33301 56 -10s29.667 -16 41 -28s20 -26 26 -42s9 -32.667 9 -50c0 -12.667 -2 -25.167 -6 -37.5s-9.33301 -23.5 -16 -33.5s-15 -18.667 -25 -26
s-21 -12.333 -33 -15c8 -2.66699 16 -4.66699 24 -6s16.333 -2.5 25 -3.5s17 -1.66699 25 -2s15.333 -0.5 22 -0.5c34 0 65.833 6.33301 95.5 19s55.834 30 78.501 52s41.667 48.333 57 79s25.666 64 30.999 100l106 -16c-12 -46 -28.833 -87.5 -50.5 -124.5
s-48.334 -68.167 -80.001 -93.5s-68.167 -45 -109.5 -59s-87.666 -21 -138.999 -21c-42 0 -80 5 -114 15s-62.833 23.167 -86.5 39.5s-41.834 35.333 -54.501 57s-19 44.834 -19 69.501zM-503.999 1080c0 -14 2 -26.1689 6 -36.502s9.33301 -18.666 16 -24.999
s13.334 -11.166 20.001 -14.499c8 -2.66699 14.667 -4 20 -4c8 0 15.833 1.5 23.5 4.5s14.667 7.66699 21 14s11.666 14.666 15.999 24.999s6.5 22.5 6.5 36.5c0 13.333 -1.83301 24.833 -5.5 34.5s-8.5 17.834 -14.5 24.501s-13 11.667 -21 15s-16.667 5 -26 5
c-8.66699 0 -16.834 -2 -24.501 -6s-14.167 -9.5 -19.5 -16.5s-9.66602 -15.5 -12.999 -25.5s-5 -20.333 -5 -31z" />
    <glyph glyph-name="saraaathai" unicode="&#xe32;" horiz-adv-x="638" 
d="M5 656c12 16 25.999 30.667 41.999 44s34.333 25 55 35s43.667 17.667 69 23s53.333 8 84 8c43.333 0 81.333 -4 114 -12s60 -18.333 82 -31s39 -27 51 -43s19 -32.333 21 -49v-631h-147v620c-3.33301 12 -8.5 23.333 -15.5 34s-16.5 19.667 -28.5 27s-26.5 13 -43.5 17
s-37.167 6 -60.5 6c-16 0 -31.667 -1.66699 -47 -5s-30 -8.33301 -44 -15s-27 -15 -39 -25c-13.333 -10 -24.666 -21 -33.999 -33z" />
    <glyph glyph-name="saraamthai" unicode="&#xe33;" horiz-adv-x="638" 
d="M-372 1079c0 20 3.33496 39.501 10.002 58.501s16.834 35.833 30.501 50.5s31.667 26.334 54 35.001s49.166 13 80.499 13c32 0 59.167 -4.33301 81.5 -13s40.333 -20.334 54 -35.001s23.5 -31.5 29.5 -50.5s9 -38.5 9 -58.5c0 -18.667 -3.5 -37.167 -10.5 -55.5
s-17.833 -34.833 -32.5 -49.5s-32.834 -26.334 -54.501 -35.001s-47.167 -13 -76.5 -13c-28 0 -52.833 4.33301 -74.5 13s-39.834 20 -54.501 34s-26 30.167 -34 48.5s-12 37.5 -12 57.5zM-273.998 1081c0 -16.667 3 -32.334 9 -47.001s14.5 -26.667 25.5 -36
s25.167 -14 42.5 -14c16.667 0 30.667 4.66699 42 14s19.666 21.333 24.999 36s8 30.334 8 47.001s-2.66699 32.334 -8 47.001s-13.666 26.667 -24.999 36s-25.333 14 -42 14c-17.333 0 -31.5 -4.66699 -42.5 -14s-19.5 -21.333 -25.5 -36s-9 -30.334 -9 -47.001z
M5.00195 656.001c12 16 25.999 30.667 41.999 44s34.333 25 55 35s43.667 17.667 69 23s53.333 8 84 8c43.333 0 81.333 -4 114 -12s60 -18.333 82 -31s39 -27 51 -43s19 -32.333 21 -49v-631h-147v620c-3.33301 12 -8.5 23.333 -15.5 34s-16.5 19.667 -28.5 27
s-26.5 13 -43.5 17s-37.167 6 -60.5 6c-16 0 -31.667 -1.66699 -47 -5s-30 -8.33301 -44 -15s-27 -15 -39 -25c-13.333 -10 -24.666 -21 -33.999 -33z" />
    <glyph glyph-name="saraithai" unicode="&#xe34;" 
d="M-783 996c0 25.333 8.16797 48.001 24.501 68.001s37.833 36.667 64.5 50s57 23.333 91 30s69 10 105 10c84 0 157 -18.167 219 -54.5s115.667 -88.833 161 -157.5c8 -13.333 12.667 -26.333 14 -39s0 -23 -4 -31s-10.333 -13.333 -19 -16s-18.334 -1 -29.001 5
c-33.333 16 -70.333 29.5 -111 40.5s-83 19 -127 24s-89 7 -135 6s-91 -4.83301 -135 -11.5c-38 -6.66699 -67.333 -2.83398 -88 11.499s-31 35.833 -31 64.5zM-657.999 1003c0 -5.33301 2.33398 -9.99805 7.00098 -13.998s11.667 -5.33301 21 -4c30 4 63.167 6.5 99.5 7.5
s73.5 -0.333008 111.5 -4s76.333 -9.66699 115 -18s75.334 -19.5 110.001 -33.5l2 6c-17.333 24 -37.333 45 -60 63s-47.334 33.167 -74.001 45.5s-54 21.833 -82 28.5s-56 10 -84 10c-26.667 0 -50.334 -2.33301 -71.001 -7s-38 -10.834 -52 -18.501
s-24.667 -16.834 -32 -27.501s-11 -22 -11 -34z" />
    <glyph glyph-name="saraiithai" unicode="&#xe35;" 
d="M-783 996c0 25.333 8.16797 48.001 24.501 68.001s37.833 36.667 64.5 50s57 23.333 91 30s69 10 105 10c48 0 92 -6 132 -18s77.333 -29.333 112 -52v176h128v-306l4 -6l4 -6c8 -13.333 12.667 -26.333 14 -39s0 -23 -4 -31s-10.333 -13.333 -19 -16
s-18.334 -1 -29.001 5c-33.333 16 -70.333 29.5 -111 40.5s-83 19 -127 24s-89 7 -135 6s-91 -4.83301 -135 -11.5c-38 -6.66699 -67.333 -2.83398 -88 11.499s-31 35.833 -31 64.5zM-657.999 1003c0 -5.33301 2.33398 -9.99805 7.00098 -13.998s11.667 -5.33301 21 -4
c30 4 63.167 6.5 99.5 7.5s73.5 -0.333008 111.5 -4s76.333 -9.66699 115 -18s75.334 -19.5 110.001 -33.5l2 6c-17.333 24 -37.333 45 -60 63s-47.334 33.167 -74.001 45.5s-54 21.833 -82 28.5s-56 10 -84 10c-26.667 0 -50.334 -2.33301 -71.001 -7
s-38 -10.834 -52 -18.501s-24.667 -16.834 -32 -27.501s-11 -22 -11 -34z" />
    <glyph glyph-name="sarauethai" unicode="&#xe36;" 
d="M-783 996c0 25.333 8.16797 48.001 24.501 68.001s37.833 36.667 64.5 50s57 23.333 91 30s69 10 105 10c54.667 0 104.667 -8 150 -24v5v5c0 12 2.33301 25.333 7 40s12 28.167 22 40.5s23.333 22.666 40 30.999s37 12.5 61 12.5c26.667 0 49 -5.33301 67 -16
s32 -24.667 42 -42s16.167 -36 18.5 -56s1 -39.333 -4 -58s-13.667 -35.167 -26 -49.5s-27.833 -23.833 -46.5 -28.5l-5 -2c18.667 -21.333 36.667 -44.666 54 -69.999c8 -13.333 12.667 -26.333 14 -39s0 -23 -4 -31s-10.333 -13.333 -19 -16s-18.334 -1 -29.001 5
c-33.333 16 -70.333 29.5 -111 40.5s-83 19 -127 24s-89 7 -135 6s-91 -4.83301 -135 -11.5c-38 -6.66699 -67.333 -2.83398 -88 11.499s-31 35.833 -31 64.5zM-657.999 1003c0 -5.33301 2.33398 -9.99805 7.00098 -13.998s11.667 -5.33301 21 -4c30 4 63.167 6.5 99.5 7.5
s73.5 -0.333008 111.5 -4s76.333 -9.66699 115 -18s75.334 -19.5 110.001 -33.5l2 6c-17.333 24 -37.333 45 -60 63s-47.334 33.167 -74.001 45.5s-54 21.833 -82 28.5s-56 10 -84 10c-26.667 0 -50.334 -2.33301 -71.001 -7s-38 -10.834 -52 -18.501
s-24.667 -16.834 -32 -27.501s-11 -22 -11 -34zM-276.998 1132c0 -12 2.16699 -23 6.5 -33s10.833 -18.333 19.5 -25s19.667 -10 33 -10s24.333 3.33301 33 10s15.334 15 20.001 25s7 21 7 33s-2.33301 23 -7 33s-11.334 18.333 -20.001 25s-19.667 10 -33 10
s-24.333 -3.33301 -33 -10s-15.167 -15 -19.5 -25s-6.5 -21 -6.5 -33z" />
    <glyph glyph-name="saraueethai" unicode="&#xe37;" 
d="M-783 996c0 25.333 8.16797 48.001 24.501 68.001s37.833 36.667 64.5 50s57 23.333 91 30s69 10 105 10h5h5v105h129v-125c38 -12 73 -28.667 105 -50v176h128v-306l4 -6l4 -6c8 -13.333 12.667 -26.333 14 -39s0 -23 -4 -31s-10.333 -13.333 -19 -16
s-18.334 -1 -29.001 5c-33.333 16 -70.333 29.5 -111 40.5s-83 19 -127 24s-89 7 -135 6s-91 -4.83301 -135 -11.5c-38 -6.66699 -67.333 -2.83398 -88 11.499s-31 35.833 -31 64.5zM-657.999 1003c0 -5.33301 2.33398 -9.99805 7.00098 -13.998s11.667 -5.33301 21 -4
c30 4 63.167 6.5 99.5 7.5s73.5 -0.333008 111.5 -4s76.333 -9.66699 115 -18s75.334 -19.5 110.001 -33.5l2 6c-17.333 24 -37.333 45 -60 63s-47.334 33.167 -74.001 45.5s-54 21.833 -82 28.5s-56 10 -84 10c-26.667 0 -50.334 -2.33301 -71.001 -7
s-38 -10.834 -52 -18.501s-24.667 -16.834 -32 -27.501s-11 -22 -11 -34z" />
    <glyph glyph-name="sarauthai" unicode="&#xe38;" 
d="M-386 -216c0 18 3 34.499 9 49.499s14.667 27.833 26 38.5s25.333 19 42 25s35.334 9 56.001 9c21.333 0 39.833 -2.5 55.5 -7.5s28.667 -11.667 39 -20s18 -18.166 23 -29.499s7.5 -22.666 7.5 -33.999v-274h-125v113c-17.333 -0.666992 -33.833 1.16602 -49.5 5.49902
s-29.834 11.5 -42.501 21.5s-22.667 23.333 -30 40s-11 37.667 -11 63zM-335 -220.001c0 -25.333 6.33203 -44.999 18.999 -58.999s34.334 -22.667 65.001 -26v137c0 8 -2.16699 13.667 -6.5 17s-9.83301 5 -16.5 5s-13.5 -1.16699 -20.5 -3.5s-13.5 -6.33301 -19.5 -12
s-11 -13.334 -15 -23.001s-6 -21.5 -6 -35.5z" />
    <glyph glyph-name="sarauuthai" unicode="&#xe39;" 
d="M-620 -214c0 18 3.00195 34.334 9.00195 49.001s14.667 27.167 26 37.5s25.333 18.5 42 24.5s35.334 9 56.001 9c21.333 0 39.5 -2.33301 54.5 -7s27.167 -10.834 36.5 -18.501s16.333 -16.667 21 -27s7 -21.5 7 -33.5v-191c1.33301 -11.333 7 -20.333 17 -27
s23.333 -10 40 -10c17.333 0 31.166 3.5 41.499 10.5s16.166 15.833 17.499 26.5v271h124v-266c-1.33301 -18.667 -7.33301 -34.334 -18 -47.001s-24.334 -23 -41.001 -31s-35.667 -13.5 -57 -16.5s-43.666 -4.5 -66.999 -4.5c-24 0 -46.167 1.5 -66.5 4.5
s-38.5 8.5 -54.5 16.5s-28.833 18.333 -38.5 31s-15.167 28.334 -16.5 47.001v20c-17.333 -0.666992 -33.833 1.16602 -49.5 5.49902s-29.834 11.833 -42.501 22.5s-22.667 24.334 -30 41.001s-11 37.667 -11 63zM-568.998 -219.999c0 -25.333 6.5 -44.999 19.5 -58.999
s34.5 -22.667 64.5 -26v143c0 6 -2.5 10.167 -7.5 12.5s-10.167 3.5 -15.5 3.5c-6 0 -12.5 -1.16699 -19.5 -3.5s-13.5 -6.33301 -19.5 -12s-11.167 -13.334 -15.5 -23.001s-6.5 -21.5 -6.5 -35.5z" />
    <glyph glyph-name="phinthuthai" unicode="&#xe3a;" 
d="M-284 -191.5c0 17 3.33594 32.667 10.0029 47s17 26.333 31 36s31 14.5 51 14.5s36.667 -4.83301 50 -14.5s23.166 -21.667 29.499 -36s9.66602 -30 9.99902 -47s-2.83398 -32.667 -9.50098 -47s-16.667 -26.333 -30 -36s-30 -14.5 -50 -14.5s-37 4.83301 -51 14.5
s-24.333 21.667 -31 36s-10 30 -10 47z" />
    <glyph glyph-name="PUCR2005" unicode="&#xe3e;" 
 />
    <glyph glyph-name="bahtthai" unicode="&#xe3f;" horiz-adv-x="870" 
d="M48 0l-0.00390625 76h108v760h-108v76h370v100h86v-101c38 -2 73.5 -8.33301 106.5 -19s61.5 -25.334 85.5 -44.001s42.833 -41.167 56.5 -67.5s20.5 -56.5 20.5 -90.5c0 -24.667 -4.16699 -48.167 -12.5 -70.5s-20.166 -42.5 -35.499 -60.5s-33.666 -33 -54.999 -45
s-45.666 -20 -72.999 -24c13.333 -2.66699 27.833 -7 43.5 -13s31.167 -13.667 46.5 -23s30 -20.333 44 -33s26.333 -26.667 37 -42s19.334 -32.666 26.001 -51.999s10 -39.666 10 -60.999c0 -42.667 -8.66699 -80.334 -26 -113.001s-39.833 -60 -67.5 -82
s-59.5 -39 -95.5 -51s-73 -18.667 -111 -20v-102h-86v102h-370zM305.996 76h112v372h-112v-372zM305.996 520h112v316h-112v-316zM503.996 82c21.333 4 40.333 10.166 57 18.499s31 19.666 43 33.999s21.333 32.333 28 54s10 47.5 10 77.5
c0 24.667 -3.5 46.834 -10.5 66.501s-16.667 36.667 -29 51s-27 26.333 -44 36s-35.167 16.834 -54.5 21.501v-359zM503.996 523.999c18.667 3.33301 35.668 9.49902 51.001 18.499s28 20.333 38 34s17.667 29.334 23 47.001s8 36.5 8 56.5c0 20.667 -3 39.5 -9 56.5
s-14.333 32 -25 45s-23.334 23.833 -38.001 32.5c-14.667 8 -30.667 14 -48 18v-308z" />
    <glyph glyph-name="saraethai" unicode="&#xe40;" horiz-adv-x="482" 
d="M144 92l0.000976562 661.996h144v-428l-2 -44c18.667 -0.666992 36.667 -3.66699 54 -9s33.166 -14.166 47.499 -26.499s25.833 -28.166 34.5 -47.499s13 -43.333 13 -72c0 -21.333 -3.5 -40.166 -10.5 -56.499s-17.333 -30.166 -31 -41.499s-30.167 -20 -49.5 -26
s-41 -9 -65 -9s-44.5 2.66699 -61.5 8s-31 12.333 -42 21s-19 19 -24 31s-7.5 24.667 -7.5 38zM286.001 65.9961c0 -4 0.666016 -7.00098 1.99902 -9.00098s3.33301 -3.33301 6 -4s5.66699 -1.16699 9 -1.5s6.33301 -0.5 9 -0.5c6.66699 0 14.334 1.16699 23.001 3.5
s16.5 6.5 23.5 12.5s13 14.167 18 24.5s7.5 23.5 7.5 39.5c0 29.333 -7.66699 53 -23 71c-15.333 18.667 -40.333 29.334 -75 32.001v-168z" />
    <glyph glyph-name="saraaethai" unicode="&#xe41;" horiz-adv-x="867" 
d="M144 92l0.000976562 661.996h144v-428l-2 -44c18.667 -0.666992 36.667 -3.66699 54 -9s33.166 -14.166 47.499 -26.499s25.833 -28.166 34.5 -47.499s13 -43.333 13 -72c0 -21.333 -3.5 -40.166 -10.5 -56.499s-17.333 -30.166 -31 -41.499s-30.167 -20 -49.5 -26
s-41 -9 -65 -9s-44.5 2.66699 -61.5 8s-31 12.333 -42 21s-19 19 -24 31s-7.5 24.667 -7.5 38zM286.001 65.9961c0 -4 0.666016 -7.00098 1.99902 -9.00098s3.33301 -3.33301 6 -4s5.66699 -1.16699 9 -1.5s6.33301 -0.5 9 -0.5c6.66699 0 14.334 1.16699 23.001 3.5
s16.5 6.5 23.5 12.5s13 14.167 18 24.5s7.5 23.5 7.5 39.5c0 29.333 -7.66699 53 -23 71c-15.333 18.667 -40.333 29.334 -75 32.001v-168zM524 91.9951l0.000976562 661.996h144v-428l-2 -44c18.667 -0.666992 36.667 -3.66699 54 -9s33.166 -14.166 47.499 -26.499
s25.833 -28.166 34.5 -47.499s13 -43.333 13 -72c0 -21.333 -3.5 -40.166 -10.5 -56.499s-17.333 -30.166 -31 -41.499s-30.167 -20 -49.5 -26s-41 -9 -65 -9s-44.5 2.66699 -61.5 8s-31 12.333 -42 21s-19 19 -24 31s-7.5 24.667 -7.5 38zM666.001 65.9912
c0 -4 0.666016 -7.00098 1.99902 -9.00098s3.33301 -3.33301 6 -4s5.66699 -1.16699 9 -1.5s6.33301 -0.5 9 -0.5c6.66699 0 14.334 1.16699 23.001 3.5s16.5 6.5 23.5 12.5s13 14.167 18 24.5s7.5 23.5 7.5 39.5c0 29.333 -7.66699 53 -23 71
c-15.333 18.667 -40.333 29.334 -75 32.001v-168z" />
    <glyph glyph-name="saraothai" unicode="&#xe42;" horiz-adv-x="510" 
d="M-34 1143c8 22.667 18.998 42.667 32.998 60s30.667 31.666 50 42.999s40.666 19.833 63.999 25.5s48.333 8.5 75 8.5c24 0 46 -3.33301 66 -10s38.667 -14 56 -22s33.666 -16 48.999 -24s30.333 -13.5 45 -16.5s29 -2.33301 43 2s29 14.833 45 31.5l41 -35
c-21.333 -23.333 -42 -39.166 -62 -47.499s-39.667 -12.166 -59 -11.499s-38.333 4.66699 -57 12s-37.167 15.166 -55.5 23.499s-36.833 16 -55.5 23s-37.334 10.5 -56.001 10.5c-10.667 0 -21.167 -1.33301 -31.5 -4s-20.166 -6.5 -29.499 -11.5
s-17.666 -11.167 -24.999 -18.5c-8 -8 -14 -17 -18 -27l97 -55l36.5 -21l34.5 -20l28 -16c8 -4.66699 13.333 -7.66699 16 -9c14.667 -8 24.334 -17.667 29.001 -29s7 -25 7 -41v-638l-4 -44c18.667 -0.666992 37 -3.5 55 -8.5s34 -13.167 48 -24.5s25.333 -26.5 34 -45.5
s13 -42.833 13 -71.5c0 -21.333 -3.66699 -40.333 -11 -57s-17.666 -31 -30.999 -43s-29.666 -21.333 -48.999 -28s-41 -10 -65 -10s-44.5 2.66699 -61.5 8s-31 12.333 -42 21s-19 19 -24 31s-7.5 24.667 -7.5 38v887c0 5.33301 -1 11.333 -3 18
c-2.66699 7.33301 -7.33398 12.333 -14.001 15c-1.33301 0.666992 -5.16602 3 -11.499 7l-24 15.5l-32.5 21.5c-13.333 8 -26 16 -38 24zM327.998 66c0 -4 1.00098 -7.00195 3.00098 -9.00195s4.16699 -3.33301 6.5 -4s5 -1.16699 8 -1.5s6.16699 -0.5 9.5 -0.5
c6.66699 0 14.167 1.5 22.5 4.5s16.166 7.83301 23.499 14.5s13.333 15.334 18 26.001s7 24 7 40c0 30 -7.33301 53 -22 69c-16 16.667 -41.333 26.334 -76 29.001v-168z" />
    <glyph glyph-name="saraaimaimuanthai" unicode="&#xe43;" horiz-adv-x="520" 
d="M-16 1058c0 34.667 5.33398 65.334 16.001 92.001s25.667 49.5 45 68.5s41.666 33.5 66.999 43.5c26.667 10 54.667 15 84 15c34.667 0 65.667 -5.5 93 -16.5s50.5 -26.5 69.5 -46.5s33.5 -44 43.5 -72c10.667 -29.333 16 -61.333 16 -96
c0 -40.667 -6.33301 -79.834 -19 -117.501s-30.334 -71.167 -53.001 -100.5c-2 -3.33301 -3.83301 -7.16602 -5.5 -11.499s-2.5 -10.833 -2.5 -19.5v-471l-4 -44c18.667 -0.666992 36.667 -3.5 54 -8.5s33.166 -13.167 47.499 -24.5s25.833 -26.5 34.5 -45.5
s13 -42.833 13 -71.5c0 -21.333 -3.5 -40.333 -10.5 -57s-17.333 -31 -31 -43s-30.167 -21.333 -49.5 -28s-41 -10 -65 -10s-44.5 2.66699 -61.5 8s-31 12.333 -42 21s-19 19 -24 31s-7.5 24.667 -7.5 38v670c0 6.66699 1.33301 12.834 4 18.501s6 10.5 10 14.5l47.5 49
c16.333 17.333 31.333 36.333 45 57s25 43.334 34 68.001s13.5 51 13.5 79c0 26.667 -4.33301 50.667 -13 72s-20 39.166 -34 53.499s-30 25.333 -48 33s-35.667 11.5 -53 11.5c-16 0 -30.667 -1.66699 -44 -5s-25.333 -8 -36 -14s-20 -13.333 -28 -22
s-15.333 -17.667 -22 -27c7.33301 1.33301 15.833 1.5 25.5 0.5s19.5 -3.16699 29.5 -6.5s19.667 -7.83301 29 -13.5s18 -12.834 26 -21.501s14.167 -19 18.5 -31s6.5 -25.333 6.5 -40c0 -18 -3.16699 -34 -9.5 -48s-14.5 -25.833 -24.5 -35.5s-21.333 -16.834 -34 -21.501
s-26.334 -6.66699 -41.001 -6c-13.333 0 -26.666 2.5 -39.999 7.5s-25.166 13 -35.499 24s-18.666 24.667 -24.999 41s-9.5 35.833 -9.5 58.5zM42.001 1050c0 -12 1.66602 -22.333 4.99902 -31s7.5 -16 12.5 -22s10.667 -10.667 17 -14s12.833 -5 19.5 -5
s13.334 1.33301 20.001 4s12.5 6.5 17.5 11.5s9 11.333 12 19s4.5 16.834 4.5 27.501c0 11.333 -2.83301 21.166 -8.5 29.499s-13.167 15.5 -22.5 21.5s-19.833 10.167 -31.5 12.5s-23.5 2.83301 -35.5 1.5c-6.66699 -16.667 -10 -35 -10 -55zM334 66
c0 -4 0.666016 -7.00195 1.99902 -9.00195s3.33301 -3.33301 6 -4s5.66699 -1.16699 9 -1.5s6.33301 -0.5 9 -0.5c6.66699 0 14.334 1.5 23.001 4.5s16.5 7.83301 23.5 14.5s13 15.334 18 26.001s7.5 24 7.5 40c0 30 -7.66699 53 -23 69
c-15.333 16.667 -40.333 26.334 -75 29.001v-168z" />
    <glyph glyph-name="saraaimaimalaithai" unicode="&#xe44;" horiz-adv-x="520" 
d="M-71 1226l17.9941 14.998c7.33301 6 14.333 11 21 15c2.66699 1.33301 5.66699 2 9 2s6.5 -0.666992 9.5 -2s5.66699 -3 8 -5s4.83301 -4.33301 7.5 -7c6.66699 -9.33301 12.834 -19.666 18.501 -30.999s11 -23.166 16 -35.499s9.5 -24.666 13.5 -36.999l12 -36.5l8 -37
c4 -15.333 7.33301 -33 10 -53c6.66699 22.667 13 41.834 19 57.501l13 34.5c4 12 9.33301 24.833 16 38.5l19 39l16 32l9 17.5c4 8 9 14 15 18s12.333 6.33301 19 7s13.334 0 20.001 -2c8 -2.66699 15.333 -6.33398 22 -11.001c10.667 -6 20.667 -12.333 30 -19l24 -16
c9.33301 -5.33301 16 -9.33301 20 -12c6 -4 10.833 -8.66699 14.5 -14s5.5 -12 5.5 -20l1 -838l-4 -44c18.667 -0.666992 36.834 -3.5 54.501 -8.5s33.5 -13.167 47.5 -24.5s25.333 -26.5 34 -45.5s13 -42.833 13 -71.5c0 -21.333 -3.5 -40.333 -10.5 -57
s-17.333 -31 -31 -43s-30.167 -21.333 -49.5 -28s-41 -10 -65 -10s-44.333 2.66699 -61 8s-30.667 12.333 -42 21s-19.333 19 -24 31s-7 24.667 -7 38v709c0 17.333 1 36.666 3 57.999s4.5 43.5 7.5 66.5s6.5 46.167 10.5 69.5l11.5 65c3.66699 20 7.16699 38 10.5 54
s6.33301 28.667 9 38l-31 18l-103 -216c-6 -12 -13.5 -20 -22.5 -24s-17.833 -5 -26.5 -3s-16.667 6.66699 -24 14s-12.333 16.333 -15 27c-5.33301 22.667 -10.666 44 -15.999 64s-10.833 39.167 -16.5 57.5s-11.667 36 -18 53l-19.5 52.5
c-1.33301 4 -4.66602 9.16699 -9.99902 15.5s-11.666 11.5 -18.999 15.5zM338.994 65.998c0 -4 0.831055 -7.00195 2.49805 -9.00195s3.83398 -3.33301 6.50098 -4s5.33398 -1 8.00098 -1c4 -0.666992 7.33301 -1 10 -1c6.66699 0 14.167 1.5 22.5 4.5s16 7.83301 23 14.5
s13 15.334 18 26.001s7.5 24 7.5 40c0 30 -7.66699 53 -23 69c-14.667 16.667 -39.667 26.334 -75 29.001v-168z" />
    <glyph glyph-name="lakkhangyaothai" unicode="&#xe45;" horiz-adv-x="638" 
d="M5 656c12 16 25.999 30.667 41.999 44s34.333 25 55 35s43.667 17.667 69 23s53.333 8 84 8c43.333 0 81.333 -4 114 -12s60 -18.333 82 -31s39 -27 51 -43s19 -32.333 21 -49v-953h-147v942c-3.33301 12 -8.5 23.333 -15.5 34s-16.5 19.667 -28.5 27s-26.5 13 -43.5 17
s-37.167 6 -60.5 6c-16 0 -31.667 -1.66699 -47 -5s-30 -8.33301 -44 -15s-27 -15 -39 -25c-13.333 -10 -24.666 -21 -33.999 -33z" />
    <glyph glyph-name="maiyamokthai" unicode="&#xe46;" horiz-adv-x="844" 
d="M100 538c0 34.667 5.17285 65.499 15.5059 92.499s23.666 50.167 39.999 69.5s35.166 34.666 56.499 45.999c20 12 40.667 19.333 62 22l136 -94l126 90c30.667 -2.66699 58 -9 82 -19s44.167 -22.333 60.5 -37s28.833 -30.667 37.5 -48s13 -34.666 13 -51.999v-928h-137
v928c-0.666992 3.33301 -1.83398 8.5 -3.50098 15.5s-4.33398 14.333 -8.00098 22s-8.66699 15 -15 22s-14.833 11.833 -25.5 14.5l-132 -90l-140 96c-7.33301 -2.66699 -14.5 -7 -21.5 -13s-13.333 -12.667 -19 -20s-10.667 -15.666 -15 -24.999
s-6.83301 -18.666 -7.5 -27.999c19.333 -1.33301 40 -4.66602 62 -9.99902s42 -14 60 -26s33 -27 45 -45s18 -40.333 18 -67c0 -17.333 -3.33301 -33 -10 -47s-15.334 -26.167 -26.001 -36.5s-23 -18.333 -37 -24s-28.667 -8.5 -44 -8.5c-24 0 -46.5 3.66699 -67.5 11
s-39.333 19.166 -55 35.499s-27.834 37.166 -36.501 62.499c-9.33301 24.667 -14 55 -14 91zM199.006 533.999c-1.33301 -22.667 0 -42.333 4 -59s9.5 -30.667 16.5 -42s15.333 -20 25 -26s19.834 -9 30.501 -9c14.667 0 26.667 5.16699 36 15.5s14 24.833 14 43.5
c0 12 -2.83301 23.167 -8.5 33.5s-13.834 19.5 -24.501 27.5s-24 14.167 -40 18.5s-33.667 6.5 -53 6.5v-9z" />
    <glyph glyph-name="maitaikhuthai" unicode="&#xe47;" 
d="M-705 1102c0 29.333 4.82715 56.835 14.4941 82.502s24.167 48.167 43.5 67.5s44 34.666 74 45.999s65 17 105 17c22.667 0 42.334 -0.5 59.001 -1.5s32 -2 46 -3s27 -1.83301 39 -2.5c12 -1.33301 25.333 -2 40 -2c16 0 30.333 1.66699 43 5s23.834 9 33.501 17
s18 19 25 33s13.167 32 18.5 54l76 -63c-6.66699 -26.667 -16.334 -47.667 -29.001 -63s-26.834 -26.666 -42.501 -33.999s-32.334 -11.666 -50.001 -12.999s-34.5 -2.33301 -50.5 -3c-29.333 -1.33301 -61 -1 -95 1s-71.667 3 -113 3
c-17.333 0 -32.833 -3.83301 -46.5 -11.5s-25.667 -17.834 -36 -30.501s-18.166 -27.167 -23.499 -43.5s-8 -33.5 -8 -51.5c0 -34 4.83301 -62.833 14.5 -86.5s21.834 -40.834 36.501 -51.501l51 76c4 6 9.33301 11.5 16 16.5s13.334 8 20.001 9s13.334 -0.333008 20.001 -4
s12 -11.5 16 -23.5c8 -22.667 18.333 -41.334 31 -56.001s26 -25.667 40 -33s28.333 -11 43 -11s28 2.66699 40 8c-12 2.66699 -22.167 7.16699 -30.5 13.5s-15.166 14 -20.499 23s-9.16602 18.833 -11.499 29.5s-3.5 21.334 -3.5 32.001c0 14 2.5 27.167 7.5 39.5
s12 22.833 21 31.5s19.833 15.5 32.5 20.5s27 7.5 43 7.5c13.333 0 26.333 -2.33301 39 -7s23.834 -11.5 33.501 -20.5s17.334 -19.833 23.001 -32.5s8.5 -27 8.5 -43c0 -22.667 -4.5 -43.667 -13.5 -63s-21.667 -36 -38 -50s-35.833 -24.833 -58.5 -32.5
s-47.334 -11.5 -74.001 -11.5c-20 0 -38 2.16699 -54 6.5s-30 10.166 -42 17.499s-22.667 16 -32 26s-17 20.333 -23 31l-55 -77c-32.667 -2.66699 -61.667 1.5 -87 12.5s-46.5 26.5 -63.5 46.5s-30 43.333 -39 70s-13.5 54 -13.5 82zM-261.006 1042
c0 -12 4.16797 -23.834 12.501 -35.501s21.166 -22.167 38.499 -31.5c4 2.66699 8.5 6 13.5 10s9.66699 8.83301 14 14.5s7.83301 12.334 10.5 20.001s4 17.167 4 28.5c0 5.33301 -1 11 -3 17s-5 11.167 -9 15.5s-9 8 -15 11s-13 4.5 -21 4.5c-16 0 -27.5 -5 -34.5 -15
s-10.5 -23 -10.5 -39z" />
    <glyph glyph-name="maiekthai" unicode="&#xe48;" 
d="M-250 1358v284h119v-284h-119z" />
    <glyph glyph-name="maithothai" unicode="&#xe49;" 
d="M-504 1339l0.00195312 47c14.667 0 29.334 0.666992 44.001 2s28.167 4 40.5 8s23.5 9.33301 33.5 16c9.33301 6.66699 17.333 15 24 25c-4.66699 -2 -8.66699 -3 -12 -3c-4 -1.33301 -7.66699 -2 -11 -2c-10.667 -0.666992 -21.834 1.5 -33.501 6.5
s-22.5 12.167 -32.5 21.5s-18.333 21.333 -25 36s-10 31.334 -10 50.001c0 16.667 2.66699 32.167 8 46.5s13.333 27 24 38s23.667 19.667 39 26s33 9.5 53 9.5c21.333 0 40 -3 56 -9s29.333 -14.333 40 -25s18.5 -23.334 23.5 -38.001s7.5 -30.667 7.5 -48
c0 -14.667 -2 -29 -6 -43s-9.5 -27.333 -16.5 -40s-15.167 -24.667 -24.5 -36s-18.666 -21 -27.999 -29l-13 -10c9.33301 0.666992 18.5 1.83398 27.5 3.50098s19.167 3.83398 30.5 6.50098c30.667 8 57.5 19.667 80.5 35s42.667 33.666 59 54.999
s29.666 46.166 39.999 74.499s18.166 59.833 23.499 94.5l104 -11c-7.33301 -26.667 -16 -52.834 -26 -78.501s-22.167 -50 -36.5 -73s-31.333 -44.5 -51 -64.5s-42.834 -37.167 -69.501 -51.5s-57.167 -25.666 -91.5 -33.999s-73.5 -12.5 -117.5 -12.5h-33.5
c-13.667 0 -28 0.333008 -43 1l-43 2c-13.667 0.666992 -25.167 2 -34.5 4zM-423.998 1550c0 -18.667 5.66797 -34.499 17.001 -47.499s26.333 -19.5 45 -19.5c8 0 16 1.5 24 4.5s14.833 7.5 20.5 13.5s10.167 13.167 13.5 21.5s5 17.5 5 27.5s-1.5 19.167 -4.5 27.5
s-7.16699 15.333 -12.5 21s-11.833 10.167 -19.5 13.5s-15.834 5 -24.501 5c-10.667 0 -20 -1.83301 -28 -5.5s-14.667 -8.83398 -20 -15.501s-9.33301 -14 -12 -22s-4 -16 -4 -24z" />
    <glyph glyph-name="maitrithai" unicode="&#xe4a;" 
d="M-554 1488c0 17.333 2.66895 35.6689 8.00195 55.002s14.333 37.333 27 54s29.334 30.334 50.001 41.001s46.334 15.667 77.001 15l79 -79l75 77c24 1.33301 45 -1.66699 63 -9s33.167 -17.833 45.5 -31.5s21.666 -29.834 27.999 -48.501s9.5 -39.667 9.5 -63
c0 -6.66699 -0.833008 -14.834 -2.5 -24.501s-4 -19.834 -7 -30.501s-6.83301 -21.334 -11.5 -32.001s-10.334 -19.334 -17.001 -26.001l8 -2c16 8 29.667 20.667 41 38s20.333 37.833 27 61.5s10.667 49.834 12 78.501c1.33301 29.333 0.666016 60 -2.00098 92l84 -10
c-1.33301 -26 -3.66602 -51.5 -6.99902 -76.5s-8.16602 -48.833 -14.499 -71.5s-14.5 -43.667 -24.5 -63s-21.833 -36.166 -35.5 -50.499s-29.5 -25.833 -47.5 -34.5c-18 -8 -38 -12.667 -60 -14c-8.66699 0 -17 0.5 -25 1.5s-14.333 3.33301 -19 7
s-7.33398 8.83398 -8.00098 15.501c-0.666992 8 2 17.333 8 28c8.66699 14.667 15.667 31.667 21 51s8 39.333 8 60c0 24 -4.66699 44.5 -14 61.5s-23.333 29.833 -42 38.5l-82 -81h-23l-84 81c-6.66699 -0.666992 -13.5 -2.33398 -20.5 -5.00098s-13.333 -7 -19 -13
s-10.667 -13 -15 -21s-7.5 -18 -9.5 -30c20 -0.666992 38 -4 54 -10s29.5 -13.833 40.5 -23.5s19.167 -21 24.5 -34s8 -26.167 8 -39.5c0 -10 -1.66699 -20 -5 -30s-8.33301 -19 -15 -27s-15 -14.667 -25 -20s-22.333 -8 -37 -8c-20 -0.666992 -37.833 2.5 -53.5 9.5
s-28.834 17.167 -39.501 30.5s-18.834 29.333 -24.501 48s-8.5 40 -8.5 64zM-479.998 1475c-2.66699 -28.667 0.832031 -50.667 10.499 -66s22.834 -23 39.501 -23c8 0 15.667 2.83301 23 8.5s11 14.5 11 26.5c0 8 -2.33301 15.833 -7 23.5s-10.667 14.5 -18 20.5
s-16 11 -26 15s-20.333 6.66699 -31 8c0 -1.33301 -0.333008 -3.33301 -1 -6s-1 -5 -1 -7z" />
    <glyph glyph-name="maichattawathai" unicode="&#xe4b;" 
d="M-373 1460v88h125v114h116v-114h126v-88h-126v-109h-116v109h-125z" />
    <glyph glyph-name="thanthakhatthai" unicode="&#xe4c;" 
d="M-316 1304c0 17.333 3.33008 34.334 9.99707 51.001s16.667 31.667 30 45s29 24 47 32c18 9.33301 38.667 14.666 62 15.999c28 2 51.5 5.66699 70.5 11s34.5 12.833 46.5 22.5s22 21.167 30 34.5s15.333 29.333 22 48l76 -38c-13.333 -24.667 -28.333 -45.5 -45 -62.5
s-35 -30.667 -55 -41s-42.167 -17.666 -66.5 -21.999s-50.5 -6.5 -78.5 -6.5c-4.66699 0 -9.16699 -0.333008 -13.5 -1s-8.16602 -1.66699 -11.499 -3c-4 -1.33301 -7.33301 -2.66602 -10 -3.99902v-2c12.667 1.33301 24.834 0 36.501 -4s21.834 -10.167 30.501 -18.5
s15.5 -18.333 20.5 -30s7.5 -24.834 7.5 -39.501s-2.16699 -28.334 -6.5 -41.001s-10.666 -24 -18.999 -34s-18.833 -17.667 -31.5 -23c-13.333 -5.33301 -28 -8 -44 -8c-18.667 0 -34.834 3 -48.501 9s-25 14.333 -34 25s-15.5 23.167 -19.5 37.5s-6 29.833 -6 46.5z
M-252.003 1286c0 -15.333 3.99902 -27.998 11.999 -37.998c6.66699 -9.33301 17.334 -14 32.001 -14c7.33301 0 13.833 1.66699 19.5 5s10.5 7.66602 14.5 12.999s7 11.166 9 17.499s3 12.5 3 18.5c0 14.667 -4 27 -12 37s-19.333 15 -34 15c-12 0 -22.333 -5 -31 -15
s-13 -23 -13 -39z" />
    <glyph glyph-name="nikhahitthai" unicode="&#xe4d;" 
d="M-372 1079c0 20 3.33496 39.501 10.002 58.501s16.834 35.833 30.501 50.5s31.667 26.334 54 35.001s49.166 13 80.499 13c32 0 59.167 -4.33301 81.5 -13s40.333 -20.334 54 -35.001s23.5 -31.5 29.5 -50.5s9 -38.5 9 -58.5c0 -18.667 -3.5 -37.167 -10.5 -55.5
s-17.833 -34.833 -32.5 -49.5s-32.834 -26.334 -54.501 -35.001s-47.167 -13 -76.5 -13c-28 0 -52.833 4.33301 -74.5 13s-39.834 20 -54.501 34s-26 30.167 -34 48.5s-12 37.5 -12 57.5zM-273.998 1081c0 -16.667 3 -32.334 9 -47.001s14.5 -26.667 25.5 -36
s25.167 -14 42.5 -14c16.667 0 30.667 4.66699 42 14s19.666 21.333 24.999 36s8 30.334 8 47.001s-2.66699 32.334 -8 47.001s-13.666 26.667 -24.999 36s-25.333 14 -42 14c-17.333 0 -31.5 -4.66699 -42.5 -14s-19.5 -21.333 -25.5 -36s-9 -30.334 -9 -47.001z" />
    <glyph glyph-name="yamakkanthai" unicode="&#xe4e;" 
d="M-248 946v127.001l72 88l-72 82v125c0 13.333 3.33301 25.666 10 36.999s15.667 21 27 29s24.666 13.333 39.999 16s32.333 1.33398 51 -3.99902v-192l79 -93l-79 -96v-193c-18.667 -5.33301 -35.667 -6.83301 -51 -4.5s-28.666 7 -39.999 14s-20.333 16.167 -27 27.5
s-10 23.666 -10 36.999z" />
    </font>
</defs>
</svg>
