<?xml version="1.0" encoding="utf-8"?>
<!-- Generator: Adobe Illustrator 18.1.1, SVG Export Plug-In . SVG Version: 6.00 Build 0)  -->
<svg version="1.2" baseProfile="tiny" id="Layer_1" xmlns="http://www.w3.org/2000/svg" xmlns:xlink="http://www.w3.org/1999/xlink"
	 x="0px" y="0px" viewBox="0 0 1155.5 425.5" xml:space="preserve">
<g>
	<path fill="#FFFFFF" d="M991,331.7h-16v85.4h16v-44c0-6.9,0.2-13,6-19.3c5.4-5.3,15-10.2,26.8-10.2c6.8,0,13.6,1.5,18.9,6.1
		c7.5,6.1,7.7,15.3,7.7,23.4v44h15.9V372c0.1-7.9,0.3-16.4,12.6-23.5c6.9-4.2,13.9-4.9,19.5-4.9c17.4,0,23.4,9.9,24.1,11.3
		c3.2,5.5,3.2,12.8,3.2,18.8v43.5h15.9v-46.3c0-10.4,0-22.4-11.1-31.4c-6.4-5.6-16.9-10.1-30.7-10.1c-24.4,0-34.8,11.4-39.3,15.8
		c-3.8-5.2-11.5-15.4-33.9-15.4c-14.2,0-25.3,4.8-31.2,9.5c-1.5,1.2-3,2.6-4.5,3.8V331.7z M894.4,343c21.4-0.2,37.7,11.6,37.7,31.5
		c0,19.5-17.1,31.1-35.8,31.1c-22.5,0-37.7-12.8-37.7-30.8C858.7,358,870.9,343.1,894.4,343 M895,329.3
		c-30.2,0.4-52.3,18.3-52.3,46.4c0,25.2,18.9,43.8,52.7,43.8c28.6,0,52.6-15.9,52.6-45c0-30.3-24.7-45.3-52.9-45.1H895z
		 M809.2,390.1c-2.3,3.8-4.4,6.9-9.5,10.3c-7.3,4.6-16.6,6.3-24,6.3c-20.7,0-36.9-11.7-36.9-31.3c0-22.5,18.6-33.3,36.9-33.3
		c10.6,0,18.9,3.5,23.5,6.6c5.6,4,7.8,8.1,9.2,10.8l15-4.5c-2.4-4.8-6.2-11.2-15.2-17.3c-10.6-7.3-24-8.7-32.6-8.7
		c-30,0-53.7,15.9-53.7,44.8c0,19.8,9.6,35,27.2,42c8.3,2.9,17.2,3.8,26.1,3.8c11.7,0,27-2.3,38.9-12.1c5.5-4.4,7.2-7.9,10.2-13.6
		L809.2,390.1z M678.3,417.1h18.3v-19.4h-18.3V417.1z M631.8,417.1h15.5v-85.7h-15.5V417.1z M631.5,317.1h15.6v-17h-15.6V317.1z
		 M556.3,417.1h15.9v-46.5c0-6.8,0-18.4,13.7-23.9c4.1-1.5,9.1-2.3,14.2-2.3c5.5,0,8.3,0.8,12.5,2v-16.2c-3.3-0.6-5.4-1.1-9.4-1.1
		c-3.6,0-19.5,0.2-31.1,12v-9.7h-15.7V417.1z M508.2,417.1h15.7v-85.7h-15.7V417.1z M508.1,317.1h15.5v-17h-15.5V317.1z M381.6,402
		c13.6,13.3,35.3,18.1,55.2,18.1c22.6,0,44.5-7.6,44.5-28.9c0-18.2-14.6-21.8-17.7-22.8c-4.1-1.1-8.4-1.7-12.8-2.3
		c-8-0.8-15.9-1.2-23.8-2.1c-9.6-1.1-20.5-2.2-20.5-10.4c0-3.8,2.7-7,8.1-9c5.7-2.6,12.1-2.8,18.4-2.8c15,0,26.4,4.5,34.3,10.3
		l13.7-8.1c-3.8-4.1-18-16.2-46.8-16.2c-14.4,0-44.9,2.3-44.9,27.5c0,20,20.8,22.3,30.1,23.5c5.1,0.6,27.9,2.3,32.6,3
		c3.1,0.5,12.6,2.3,12.6,10.3c0,5.5-4,9-9.1,11c-5.7,2.3-14.2,2.8-19.9,2.8c-24.2,0-35.3-9.1-40.4-13.3L381.6,402z M280.1,331.4
		h-15.7v85.7h15.7v-40.7c0-9,0.2-22.3,15.4-29.6c7-2.9,12.6-3.8,17.8-3.8c5.5,0,14.9,0.9,22.2,7c7.3,6.4,7.5,14.2,7.7,22v45.2h15.5
		v-46.3c0-9.3-0.1-18.6-6.6-26.6c-8-10.7-22-15-36.3-15c-8.3,0-15.7,1.1-22.5,4c-6.9,3-9.6,5.3-13.3,8.7V331.4z M214.1,376.6
		c0,6-0.6,15.7-11.1,23.1c-9.9,7-23.7,7.5-26.4,7.5c-16.7,0-23.2-8.8-23.2-16.8c0-4.8,2.7-9.3,8.5-11.6c5.1-2.3,13.7-2.3,22.9-2.3
		H214.1z M158.8,352.2c1.3-2.5,3-5.8,9-8.1c6.1-2.7,12.9-3.5,19.7-3.5c8.6,0,14.8,1.5,18.2,3.5c8.4,3.5,8.4,10.4,8.4,19.7h-22.8
		c-10.9,0-26.8,0-35.1,2.3c-13,3.5-18.4,13.9-18.4,24.3c0,9.5,5.1,29.7,38.3,29.7c10.6,0,20.6-2.6,27.5-6.5
		c6.7-3.8,8.8-7.2,10.8-10.4c0.8,6,1.6,14.7,15.6,14.7c4.1,0,8.7-0.8,13.9-1.1v-11.3c-1.9,0-4,0.2-6,0.2c-8.8,0-8.8-4.8-8.8-16.1
		v-30.8c0-9.5,0-21.6-18.1-27.1c-7.4-2-17.4-2.6-24.5-2.6c-35.8,0-40,11.5-43.4,21.5L158.8,352.2z M13.8,402
		c13.6,13.3,35.3,18.1,55.3,18.1c22.5,0,44.4-7.6,44.4-28.9c0-18.2-14.5-21.8-17.7-22.8c-4.2-1.1-8.5-1.7-12.9-2.3
		c-7.9-0.8-15.8-1.2-23.8-2.1c-9.6-1.1-20.5-2.2-20.5-10.4c0-3.8,2.7-7,7.9-9c5.9-2.6,12.3-2.8,18.4-2.8c15.1,0,26.5,4.5,34.4,10.3
		l13.7-8.1c-3.9-4.1-18.1-16.2-47-16.2c-14.2,0-44.7,2.3-44.7,27.5c0,20,20.8,22.3,30,23.5c5.2,0.6,28,2.3,32.6,3
		c3.2,0.5,12.7,2.3,12.7,10.3c0,5.5-4.2,9-9.1,11c-5.6,2.3-14.2,2.8-19.8,2.8c-24.3,0-35.4-9.1-40.5-13.3L13.8,402z"/>
	<path fill="#FFFFFF" d="M993.2,107.2l19.1,4.3c11.2-23.1,35.3-30.1,51.9-30.1c19.8,0,48.4,10.4,48.4,44c0,22-14.8,46.6-50,46.6
		c-21.5,0-35.4-9.6-42.1-16.6c-6-6-9-13.6-11-18.4l-23.3,5.7c3.1,9.3,8.4,24.3,25.8,36.2c14.2,9.9,31.6,13.6,48.7,13.6
		c43.1,0,76.5-27.8,76.5-69.1c0-38.3-29.5-62.8-70-62.8c-30.7,0-46.5,12.7-53.2,18.5l2.8-48.3h111.1l1.2-22.3H998.1L993.2,107.2z
		 M868.5,106.3c35.4-1.1,44.5,7.6,48.5,12.1c4.9,5.8,7.8,13.2,7.8,20.9c0,18.3-14.8,26-20.9,28.4c-8.9,3.4-18.6,4-27.6,4
		c-10.4,0-34.4,0-46.1-15.1c-4.4-5.8-5.7-12.6-5.7-18.4C824.5,107.6,857.7,106.7,868.5,106.3 M871.3,25.8
		c7.1-0.4,46.8-2.2,46.8,30.5c0,16.4-12.7,29.7-43.1,29.7c-13.6,0-44.7-2.2-44.7-30.3C830.4,29.8,856.2,26.1,871.3,25.8 M835.7,94.6
		c-1.8,0.7-3.8,1.5-5.5,1.9c-6.4,2.3-30.4,11.2-30.4,43.1c0,19.3,10.4,30.1,13.3,33.3c6.7,6.9,21.5,20.6,60.2,20.6
		c22.5,0,41.1-4.4,52.7-11.8c17.9-11.2,23.4-27.8,23.4-42.4c0-8.1-2-19.6-10.8-30.1c-8.8-10.2-18-12.2-27.2-14
		c11-4.2,31.5-11.5,31.5-40.9c0-21.1-13.1-32.4-20.5-37.7c-15-9.7-32.8-11.2-46.7-11.2c-26.9,0-46,5.4-58.5,19.3
		c-11,12-11.6,25.2-11.6,30.7c0,22.7,14.8,33.9,24.9,37.6C832.4,93.6,834.1,94.1,835.7,94.6 M685.1,89.6c24-0.6,52.3,11.4,52.3,41.2
		c0,23.4-16,41.3-47.4,41.3c-29.6,0-51.9-15.3-51.9-41C638.1,106.7,658.6,90.6,685.1,89.6 M759.6,42.1c-3.8-5.8-9.6-13.9-20.6-21.8
		c-13.6-9.5-29.8-14.9-46.4-14.9c-40.1,0-84,26-84,95.6c0,62.5,33.8,92.7,80.4,92.7c33.5,0,48.4-14.4,53.8-19.8
		c4.2-4.5,18.1-17.7,18.1-44.9c0-41.7-35.8-60.2-69.6-60.2c-16.2,0-32.3,4-45.3,13.9c-9.8,7.8-12.5,13.9-15.1,20.3
		c0.2-12.3,0.6-37.5,16.5-56.7c11.4-13.4,28-19.5,43.7-19.5c28.1,0,40,16.6,45.5,24.5L759.6,42.1z M471.8,57.1
		c23.6-0.8,32.8-1.3,47.3-8v140.2h24.7V9.2h-18.7c-3.8,7.3-7.8,15.5-20.5,22.4c-12.7,7-23.1,7.5-32.8,7.8V57.1z M340.2,189.2h15.4
		V65.9h-15.4V189.2z M295.5,189.2H311V65.9h-15.5V189.2z M248.7,149c0,6.5-0.7,15.8-11.2,23.6c-9.9,7.1-23.9,7.2-26.5,7.2
		c-16.7,0-23.1-9.1-23.1-16.8c0-5,2.7-9.4,8.4-11.7c5.3-1.9,13.8-2.3,23.1-2.3H248.7z M193.4,124.7c1.3-2.7,2.9-5.5,9-8.1
		c6-2.8,12.9-3,19.7-3c8.6,0,14.8,1.5,18.2,2.7c8.5,4.3,8.5,11,8.5,20h-22.9c-11,0-26.8,0.2-35,2.5c-13.1,3.7-18.6,13.9-18.6,24.6
		c0,9.4,5.1,29.1,38.4,29.1c10.5,0,20.4-2.3,27.4-6.2c6.8-4.3,8.8-7.5,10.9-10.7c0.7,6.4,1.3,14.6,15.5,14.6c4.1,0,8.6-0.4,13.8-1.2
		v-11.1c-2,0.3-3.9,0.7-6,0.7c-8.9,0-8.9-4.8-8.9-16.2v-31.3c0-9.2,0-21.5-18-26.6c-7.4-2.3-17.4-3.1-24.4-3.1
		c-35.9,0-40.1,11.7-43.5,21.6L193.4,124.7z M140,151.8c-1.7,3.6-5.5,9.6-11.8,14.7c-7,6-19.2,10.9-37.1,10.8
		c-21,0-34.6-7.3-42.4-16.1c-8.9-10.4-12.1-23-12.1-34.7c0-34.9,25.8-48.8,53.6-48.8c14.9,0,27.4,4.4,34.5,9.2
		c7.3,4.8,10.2,10.3,12.8,15.2l17.8-4.5c-3-5.5-8.9-15.7-21.3-24c-15.7-10.2-36.1-11.6-44.5-11.6c-30,0-43.9,11.3-48.7,15.7
		c-8,6-21.6,19.7-21.6,48.7c0,37,23.4,65.9,70.9,65.9c14.1,0,32.6-2.9,46.9-12.7c11.5-7.6,16.2-16.1,20.5-24.4L140,151.8z"/>
</g>
</svg>
