<?xml version="1.0" encoding="utf-8"?>
<!-- Generator: Adobe Illustrator 21.1.0, SVG Export Plug-In . SVG Version: 6.00 Build 0)  -->
<svg version="1.1" id="Layer_1" xmlns="http://www.w3.org/2000/svg" xmlns:xlink="http://www.w3.org/1999/xlink" x="0px" y="0px"
	 viewBox="0 0 56.7 50" style="enable-background:new 0 0 56.7 50;" xml:space="preserve">
<style type="text/css">
	.st0{fill:#C1C1C1;}
</style>
<path class="st0" d="M54.6,22.8h-51c-0.3,0-0.6,0-0.9,0c0-0.2,0-2.5,0-2.7c0-4.7,0-9.4,0-14.1c0-0.2,0-0.5,0.1-0.7
	C3,3.8,4.4,2.7,5.9,2.9c1.1,0.2,2,0.9,2.3,2C8.4,5.3,8.3,5.7,8,5.9c0,0,0,0,0,0C7.4,6.3,6.9,6.7,6.3,7.1C5.8,7.4,5.6,8,5.7,8.6
	C5.9,9.6,7,9.9,7.9,9.2c2.2-1.7,4.4-3.5,6.7-5.2c0.1-0.1,0.3-0.2,0.4-0.3c0.4-0.5,0.5-1.2,0.1-1.7c-0.4-0.5-1-0.7-1.6-0.4
	c-0.4,0.2-0.7,0.4-1,0.7l-1.9,1.4l-0.3-0.6C9,0.5,5.8-0.6,3.1,0.8C3.1,0.8,3,0.8,2.9,0.9C1,1.9-0.1,3.9,0,6c0,5.4,0,13,0,18.4
	c0,3-0.1,6.1,0,9.1C0.1,38,3.2,41.9,7.5,43c0.9,0.2,1.9,0.3,3,0.5c-0.7,0.7-1.4,1.4-2.1,2.1s-1.3,1.3-1.9,2
	c-0.4,0.4-0.5,1.1-0.1,1.6c0.3,0.5,0.9,0.7,1.4,0.5c0.3-0.1,0.6-0.3,0.9-0.6c1.7-1.7,3.5-3.5,5.2-5.3c0.2-0.3,0.6-0.5,1-0.5h26.8
	c0.4,0,0.7,0.2,0.9,0.4c1.8,1.8,3.5,3.5,5.2,5.3c0.2,0.3,0.5,0.5,0.9,0.6c0.6,0.2,1.2-0.1,1.4-0.6c0.3-0.6,0.2-1.3-0.3-1.7
	c-1.1-1.2-2.3-2.4-3.5-3.6c-0.1-0.1-0.2-0.3-0.4-0.5h0.5h0.5c4.1-0.3,7.6-3.1,8.9-7c0.2-0.7,0.4-1.4,0.5-2.1V23.9
	C56.2,23.1,55.4,22.7,54.6,22.8z M53.8,33.6c-0.2,4.1-3.6,7.3-7.7,7.1c0,0,0,0,0,0c-5.7,0-11.4,0-17.1,0H10.5
	c-2.6,0.1-5-1.1-6.5-3.2c-0.9-1.1-1.3-2.5-1.4-3.9c0-2.7,0-5.3,0-8.1h51.1c0,0.1,0.1,0.1,0.1,0.1C53.8,28.3,54,31,53.8,33.6z"/>
<path class="st0" d="M19.9,13.5c0.1,0.5,0.2,0.9,0.3,1.3c0.2,0.6,0.7,1.1,1.4,1.1h0.3c0.7-0.1,1.2-0.7,1.3-1.4
	c0.1-0.7-0.3-1.5-1-1.7c-0.4-0.1-0.8-0.2-1.2-0.3l-0.7-0.1l-0.5-0.1l0.1,0.6C19.8,13.1,19.8,13.3,19.9,13.5z"/>
<path class="st0" d="M15,17l-0.7-0.1l-0.6-0.1l0.1,0.6c0.1,0.2,0.1,0.5,0.1,0.7c0.1,0.4,0.2,0.9,0.3,1.3c0.2,0.6,0.8,1.1,1.4,1h0.1
	c0.7-0.1,1.3-0.7,1.4-1.4c0.1-0.7-0.3-1.4-1-1.6C15.9,17.1,15.5,17.1,15,17z"/>
<path class="st0" d="M8.9,10.4l-0.7-0.1l-0.6-0.1l0.1,0.6c0.1,0.2,0.1,0.5,0.2,0.7c0.1,0.5,0.2,0.9,0.3,1.3c0.2,0.6,0.7,1,1.4,1h0.3
	c0.7-0.1,1.2-0.6,1.3-1.3c0.2-0.7-0.3-1.5-1-1.7C9.7,10.5,9.3,10.4,8.9,10.4z"/>
<path class="st0" d="M14.4,6l0.1,0.6c0.1,0.3,0.1,0.5,0.2,0.7c0.1,0.5,0.2,0.9,0.4,1.4c0.2,0.6,0.7,1,1.3,0.9h0.3
	c0.7-0.1,1.2-0.6,1.3-1.3C18,7.6,17.7,6.9,17,6.7c-0.5-0.2-0.9-0.3-1.4-0.4l-0.7-0.2L14.4,6z"/>
<path class="st0" d="M16.2,11.5c-0.4-0.1-0.8-0.2-1.2-0.3L14.3,11l-0.6-0.1l0.1,0.6c0.1,0.2,0.1,0.5,0.1,0.7
	c0.1,0.5,0.2,0.9,0.3,1.2c0.1,0.7,0.7,1.1,1.4,1.1h0.2c0.7-0.1,1.3-0.7,1.4-1.4C17.4,12.3,16.9,11.7,16.2,11.5z"/>
</svg>
