<?xml version="1.0" encoding="utf-8"?>
<!-- Generator: Adobe Illustrator 21.1.0, SVG Export Plug-In . SVG Version: 6.00 Build 0)  -->
<svg version="1.1" id="Layer_1" xmlns="http://www.w3.org/2000/svg" xmlns:xlink="http://www.w3.org/1999/xlink" x="0px" y="0px"
	 viewBox="0 0 101.3 70" style="enable-background:new 0 0 101.3 70;" xml:space="preserve">
<style type="text/css">
	.st0{fill:#C1C1C1;}
</style>
<path class="st0" d="M27.8,0l-0.3,25.6H10.7c-2.5,0-4.5,1.9-4.6,4.4c0,0,0,0,0,0v7.2H4.6c-2.5-0.1-4.5,1.9-4.6,4.3c0,0,0,0.1,0,0.1
	v17.6c0,2.5,2.1,4.4,4.5,4.4c0,0,0,0,0,0h1.5v4.4c0,0.8,0.7,1.5,1.5,1.5h9.1c0.8,0,1.5-0.7,1.5-1.5v-4.4h9.5v6.2h73.5V0H27.8z
	 M38,66.6v-3H44v3H38z M43.9,25.8V9.4l-9.5-6.2h24.8l-9.4,6.3v28c-0.4-0.1-0.8-0.1-1.2-0.1h-1.5V30C47.1,28,45.8,26.4,43.9,25.8
	L43.9,25.8z M85,42.8h-4.9V9.5L69.7,3.2h25.1L85,9.6V42.8z M53.2,42.8v-1.1c0-0.6-0.1-1.2-0.4-1.8V11l10.1-6.7v38.6H53.2z
	 M53.2,45.7h3.3V61l-3.3-2.4V45.7z M59.1,45.7h3.8v19.9l-3.8-2.7V45.7z M65.9,45.7h4.9v17.7l-4.9,2.7V45.7z M73.4,45.7h4.1v13.9
	l-4.1,2.3L73.4,45.7z M65.9,42.8V3.9l11.6,7v31.9H65.9z M52.6,61.4l3.8,2.8v2.5h-9.3v-3h1.5C50.2,63.7,51.8,62.9,52.6,61.4z
	 M59.1,66.1l0.9,0.6h-0.9V66.1z M70.7,66.3v0.4H70L70.7,66.3z M73.4,64.9l6.7-3.8V45.7H85v15.4l6.6,3.9v1.7H73.4V64.9z M87.7,45.7
	h3.9v16.4l-3.9-2.4V45.7z M94.3,66.6h0.1H94.3z M94.3,63.7v-18h3.6v20.1L94.3,63.7z M97.9,42.8H87.7V10.9l10.2-6.7L97.9,42.8z
	 M31,4.5l9.8,6.6v14.6H30.8L31,4.5z M9.1,30c0-0.8,0.7-1.5,1.5-1.5h31.9c0.8,0,1.5,0.7,1.5,1.5v7.6c-1.8,0.6-2.9,2.3-3,4.1v3.1H12.2
	v-3.1c0-1.9-1.2-3.5-3-4.1L9.1,30z M41,47.7v4.2H12.2v-4.2H41z M15.2,66.6H9.1v-3h6.1V66.6z M16.7,60.7H4.6c-0.8,0-1.5-0.7-1.5-1.5
	V41.7c0-0.8,0.7-1.5,1.5-1.5h3c0.8,0,1.5,0.7,1.5,1.5v11.7c0,0.8,0.7,1.5,1.5,1.5h32c0.8,0,1.5-0.7,1.5-1.5V41.7
	c0-0.8,0.7-1.5,1.5-1.5h3c0.8,0,1.5,0.7,1.5,1.5v17.6c0,0.8-0.7,1.5-1.5,1.5L16.7,60.7L16.7,60.7z M31.1,63.7h3.8v3h-3.8L31.1,63.7z
	"/>
</svg>
