<svg id="Layer_1" data-name="Layer 1" xmlns="http://www.w3.org/2000/svg" viewBox="0 0 90 90"><title>vdo-360</title><path d="M0,65.58c1.2-4.73,4.93-7,8.89-8.93a53.79,53.79,0,0,1,5.45-2.16,1.84,1.84,0,0,1,2.45,1.06A1.88,1.88,0,0,1,15.64,58c-.32.14-.65.25-1,.36A26.39,26.39,0,0,0,7.26,61.9a14.83,14.83,0,0,0-2.93,3c-1,1.3-.66,2.72.23,4a12.87,12.87,0,0,0,4.83,3.84,48.92,48.92,0,0,0,14.38,4.62c3.74.66,7.53,1,11.29,1.55.1,0,.21,0,.48,0C34.29,77.38,33.13,76,32,74.62a6.63,6.63,0,0,1-.73-1,1.79,1.79,0,0,1,.39-2.3,1.82,1.82,0,0,1,2.34,0,3.84,3.84,0,0,1,.57.55q2.93,3.45,5.84,6.9a2.11,2.11,0,0,1,0,3.2Q37.21,85.5,34,89C33,90.15,31.54,90.11,30.83,89a1.91,1.91,0,0,1,.37-2.4c1.12-1.27,2.26-2.52,3.53-3.92-1.21-.13-2.27-.23-3.32-.35C23.8,81.38,16.31,80,9.28,76.81A20.54,20.54,0,0,1,2.2,71.9,10.42,10.42,0,0,1,0,67.69Z"/><path d="M89.93,67.69c-1.13,4.3-4.37,6.62-8,8.51-5.69,2.92-11.84,4.26-18.08,5.38a73.73,73.73,0,0,1-15.3.85,1.93,1.93,0,0,1-2.13-1.86c0-1.11.84-1.87,2.18-1.87,1.81,0,3.63.11,5.44,0a67.38,67.38,0,0,0,25.62-5.59,13.62,13.62,0,0,0,5.71-4.25,3.66,3.66,0,0,0-.3-5,13.92,13.92,0,0,0-4.94-3.57c-2.43-1.06-4.94-2-7.43-2.88-1.37-.51-2-1.47-1.54-2.57a1.73,1.73,0,0,1,2.2-1.11c4.54,1.3,9,2.92,12.72,5.9a10.67,10.67,0,0,1,3.89,5.87Z"/><path d="M52.68,53.5q0-5.49,0-11c0-1.7.69-2.39,2.4-2.39H65.52c1.68,0,2.39.71,2.4,2.41q0,11,0,21.94c0,1.7-.69,2.37-2.42,2.37H55.06c-1.74,0-2.37-.65-2.38-2.39Q52.68,59,52.68,53.5ZM64.1,63.08V44H56.45V63.08Z"/><path d="M37.31,43.9c0,.28-.05.45-.05.61,0,2.34,0,4.67,0,7.14h9.07c1.77,0,2.43.66,2.44,2.43q0,5.18,0,10.36c0,1.77-.67,2.42-2.45,2.42H36c-1.8,0-2.42-.63-2.42-2.43q0-10.93,0-21.85c0-1.76.68-2.44,2.43-2.44h8.6a2,2,0,0,1,2.15,1.31c.4,1.32-.48,2.42-2,2.45-2.13,0-4.27,0-6.41,0Zm0,11.53v7.64h7.63V55.43Z"/><path d="M25.8,63.12V55.39H19.29a10.77,10.77,0,0,1-1.23,0,1.84,1.84,0,0,1-1.75-1.94,1.76,1.76,0,0,1,1.83-1.75c2.22,0,4.45,0,6.67,0h1v-7.7c-.33,0-.64,0-1,0h-6a6.16,6.16,0,0,1-1-.07,1.76,1.76,0,0,1-1.6-1.69,1.62,1.62,0,0,1,1.46-1.87c3.44-.08,6.89-.07,10.34,0,.84,0,1.32.69,1.43,1.54a8.37,8.37,0,0,1,.07,1q0,10.67,0,21.34c0,2.13-.56,2.68-2.72,2.68-2.78,0-5.56,0-8.34,0a2.57,2.57,0,0,1-1.76-.69,2.39,2.39,0,0,1-.29-1.85,1.72,1.72,0,0,1,1.87-1.16H25.8Z"/><path d="M75.37,28.66c1.2,0,2.4,0,3.6,0a1.85,1.85,0,0,1,2,2q0,3.64,0,7.28A1.86,1.86,0,0,1,79,40q-3.68.08-7.37,0a1.91,1.91,0,0,1-2-2.14q0-3.55,0-7.1a1.94,1.94,0,0,1,2.19-2.15c1.2,0,2.4,0,3.6,0Zm1.82,7.59V32.44H73.4v3.81Z"/></svg>