<svg id="Layer_1" data-name="Layer 1" xmlns="http://www.w3.org/2000/svg" viewBox="0 0 90 90"><title>vdo-walkthough</title><path d="M71.59,4.53H49.44c0-.86,0-1.62,0-2.37A2.08,2.08,0,0,0,48.28,0h-.88a4.11,4.11,0,0,1-.48.19L34.46,3.52q-8.82,2.36-17.64,4.7c-.9.24-1.51.7-1.54,1.65,0,1.17,0,2.34,0,3.51,0,.16,0,.32,0,.48,0,8.62,0,24.3,0,32.91q0,17.41,0,34.82c0,1.58.34,2,1.8,2.31l30.05,6c1.55.31,2.29-.27,2.33-1.84,0-.81,0-1.63,0-2.56H71.6c1.88,0,2.32-.45,2.32-2.34q0-38.16,0-76.33C73.92,5,73.48,4.53,71.59,4.53ZM46.3,86.6,18.38,81V79.86c0-19.35,0-45.52,0-65.09,0,0,0,0,0-.07a27.56,27.56,0,0,0,0-2.81c-.05-.7.23-.94.87-1.11q13.16-3.47,26.3-7c.24-.06.49-.09.76-.13Zm3.2-71.4H63.19V74.84H49.49ZM59.94,82.45c-3.22,0-6.45,0-9.67,0-.27,0-.77-.18-.77-.3-.05-1.36,0-2.72,0-4.13H64c1.89,0,2.36-.46,2.36-2.32q0-30.65,0-61.29c0-1.88-.46-2.35-2.33-2.35H49.5V7.65H70.74V82.45H59.94Z"/><path d="M40.7,46.73c-1.81-.07-3.62-.07-5.42,0a1.43,1.43,0,0,0-1.45,1.62,1.49,1.49,0,0,0,1.58,1.43c.85,0,1.69,0,2.54,0s1.75,0,2.63,0a1.49,1.49,0,0,0,1.58-1.43A1.43,1.43,0,0,0,40.7,46.73Z"/></svg>