<svg id="Layer_1" data-name="Layer 1" xmlns="http://www.w3.org/2000/svg" viewBox="0 0 39.81 45"><defs><style>.cls-1{fill:#c1c1c1;}</style></defs><title>closekitchen-01-01</title><circle class="cls-1" cx="7.8" cy="16.94" r="2.83"/><circle class="cls-1" cx="19.93" cy="16.94" r="2.83"/><circle class="cls-1" cx="32.06" cy="16.94" r="2.83"/><path class="cls-1" d="M0,9.5V45H39.81V9.5Zm37.67,2.1V21.91H2.14V11.59ZM2.14,42.9V24H37.71V42.9Z"/><path class="cls-1" d="M3.74,41.66H36.12V25.61H3.74Zm1.75-14.3H34.37V39.91H5.49Z"/><path class="cls-1" d="M12.27,7.47H27.4a3.53,3.53,0,0,0,3.82-3.11V1.84h4.36V0H8.44V4.36A3.53,3.53,0,0,0,12.27,7.47ZM10.19,1.75H29.48v2.5c0,.25-.26,1.47-2.08,1.47H12.27c-1.78,0-2-1.19-2.08-1.48Z"/></svg>