<svg id="Layer_1" data-name="Layer 1" xmlns="http://www.w3.org/2000/svg" viewBox="0 0 46.99 45"><defs><style>.cls-1{fill:#c1c1c1;}</style></defs><title>Untitled-2</title><path class="cls-1" d="M11.26,25.22H7l-.11,0a5.2,5.2,0,0,0-4,4.72v7.64A4.22,4.22,0,0,0,7.1,41.83h4.05a4.22,4.22,0,0,0,4.21-4.21V30a5.2,5.2,0,0,0-4-4.72ZM13.74,30v7.64a2.59,2.59,0,0,1-2.59,2.59H10.07V37.3H8.17v2.9H7.1a2.59,2.59,0,0,1-2.59-2.59V30a3.55,3.55,0,0,1,2.71-3.13H11A3.55,3.55,0,0,1,13.74,30Z"/><path class="cls-1" d="M45.27,21.14H43.05s0,0,0,0V16.43a2.74,2.74,0,0,0-2.74-2.74H35.63a2.74,2.74,0,0,0-2.74,2.74v4.68s0,0,0,0H29.21l-8.47,8.47,1.15,1.15,8-8h4.49a6.2,6.2,0,0,0,.81,0h6l.4,0h3.69v3.39H39.89v1.63h5.38v3.44H33.7v1.63H45.27v2.32a8.32,8.32,0,0,0-3.94-.93c-3.44,0-6.13,1.77-6.13,4s2.69,4,6.13,4a8.33,8.33,0,0,0,3.94-.93v2H1.63V22.77H19V21.14H1.63V10.84H0V45H46.9V11.39H45.27Zm-6.35,0V17.7H37v3.45H34.52V16.43a1.12,1.12,0,0,1,1.11-1.11h4.68a1.12,1.12,0,0,1,1.11,1.11v4.71H38.92ZM44.59,40.5a7.36,7.36,0,0,1-3.25.71c-2.73,0-5-1.34-5-2.94s2.31-2.94,5-2.94a7.36,7.36,0,0,1,3.25.71Z"/><polygon class="cls-1" points="0 0 0 4.85 6.09 9.93 7.13 8.68 1.63 4.09 1.63 1.63 45.27 1.63 45.27 4.08 39.39 8.67 40.39 9.95 46.9 4.87 46.9 0 0 0"/></svg>